<svg width="72" height="16" viewBox="0 0 72 16" fill="none" xmlns="http://www.w3.org/2000/svg">
<path d="M9.4987 15.8223C9.05126 15.5475 8.96249 14.9765 8.99261 12.5739C9.01593 10.6754 9.00438 10.5234 8.83727 10.5034C8.59385 10.4746 8.60902 10.3813 8.8658 10.3315C9.10334 10.2849 9.16244 9.95133 8.94392 9.88862C8.83908 9.85844 8.83908 9.84384 8.94392 9.81394C9.01525 9.79322 9.07435 9.71994 9.07435 9.65125C9.07435 9.54584 9.04129 9.53736 8.86399 9.59534C8.74466 9.63456 8.58751 9.64165 8.49988 9.61133C8.36378 9.56475 8.36424 9.54153 8.50395 9.41916C8.59566 9.33864 8.72722 9.29525 8.81644 9.31625C8.94053 9.34545 8.96951 9.28343 8.96951 8.99335C8.96951 8.62707 8.88845 8.55866 8.65702 8.73026C8.56713 8.79645 8.56305 8.82634 8.64434 8.82634C8.70865 8.82634 8.76141 8.87196 8.76141 8.92786C8.76141 9.00796 8.66812 9.02506 8.31782 9.00796C7.99333 8.99224 7.88192 9.00907 7.90298 9.07095C7.92132 9.12504 7.84728 9.14785 7.6942 9.13464C7.53479 9.12115 7.46754 9.14396 7.48905 9.20403C7.5058 9.25326 7.49539 9.33266 7.46572 9.38036C7.37469 9.52623 6.57083 9.23323 6.57083 9.05426C6.57083 8.94246 6.47913 8.89365 6.15577 8.83427C5.71693 8.75348 5.42414 8.54517 5.65941 8.48148C5.73029 8.46187 5.61186 8.46298 5.39629 8.48356C5.04735 8.51666 5.01202 8.50776 5.07746 8.40347C5.14177 8.29959 5.13203 8.29667 4.98824 8.37927C4.84106 8.46368 4.84151 8.48565 4.99459 8.61108C5.11233 8.70814 5.20087 8.73067 5.2885 8.68645C5.42754 8.61664 5.66711 8.67616 5.58288 8.75946C5.55389 8.78824 5.63564 8.83107 5.7638 8.85416L5.99749 8.89685L5.75565 8.95706C5.43048 9.03827 5.54823 9.13214 5.93137 9.09723C6.17434 9.07554 6.26695 9.10154 6.36953 9.22016C6.44154 9.30304 6.58646 9.40845 6.69198 9.45434C6.92385 9.55543 6.94174 9.65903 6.7273 9.65903C6.64148 9.65903 6.57129 9.61022 6.57129 9.55084C6.57129 9.45545 6.5534 9.45726 6.42591 9.56405C6.30477 9.66612 6.25427 9.67252 6.11795 9.60313C6.02466 9.55543 5.85302 9.53763 5.7158 9.56086C5.48845 9.59924 5.48619 9.59646 5.6687 9.50634C5.92616 9.37966 5.80162 9.24895 5.51404 9.34323C5.34172 9.39983 5.29484 9.39093 5.25363 9.29456C5.22646 9.23003 5.06071 9.12644 4.88612 9.06497C4.67463 8.99043 4.5888 8.91965 4.62934 8.85416C4.66353 8.80006 4.61371 8.68256 4.51861 8.59356C4.37142 8.45575 4.33247 8.44685 4.25367 8.53307C4.2034 8.58855 4.04331 8.63416 3.89952 8.63416C3.67467 8.63416 3.64161 8.60886 3.66946 8.45798C3.69618 8.31878 3.76388 8.27776 3.99576 8.26107C4.15698 8.25008 4.31459 8.19946 4.34583 8.14899C4.41082 8.04497 4.85714 8.02508 4.9545 8.12187C4.99006 8.15677 5.06297 8.18598 5.11686 8.18598C5.17076 8.18598 5.21536 8.15677 5.21536 8.12187C5.21536 8.08669 5.17143 8.06486 5.11799 8.07376C5.06478 8.08238 4.95224 8.03329 4.86868 7.96418C4.73893 7.85696 4.69138 7.85098 4.54872 7.92399C4.45611 7.97099 4.38071 7.98156 4.38071 7.94818C4.38071 7.91439 4.31006 7.88686 4.22356 7.88686C4.13728 7.88686 4.07864 7.92858 4.09313 7.97989C4.11758 8.06416 4.00323 8.12048 3.5465 8.25036C3.46023 8.27497 3.37486 8.37106 3.35697 8.46465C3.31984 8.65405 2.9204 8.84067 2.9204 8.66837C2.9204 8.54266 2.67176 8.54127 2.50307 8.66615C2.32984 8.79464 2.12446 8.78755 2.03819 8.65016C1.97161 8.54378 1.96278 8.54378 1.86428 8.65155C1.80699 8.71385 1.71641 8.74805 1.66207 8.72747C1.60795 8.70717 1.68109 8.59564 1.82488 8.47995C1.96867 8.36425 2.08619 8.22408 2.08619 8.16818C2.08619 8.11269 2.15118 8.02689 2.23111 7.97767C2.31127 7.92858 2.39347 7.83277 2.41498 7.76477C2.44283 7.67438 2.5547 7.636 2.83186 7.62167C3.13098 7.60638 3.20095 7.57898 3.1645 7.49249C3.13031 7.41378 3.00101 7.3811 2.70596 7.37609C2.36969 7.37067 2.29497 7.39139 2.29497 7.48929C2.29497 7.55548 2.22432 7.6093 2.1385 7.6093C1.98543 7.6093 1.94602 7.54867 1.96912 7.35329C1.97569 7.30031 1.93606 7.21409 1.88104 7.16111C1.79476 7.07809 1.76397 7.08032 1.64622 7.17891C1.47231 7.3252 0.834205 7.2654 0.834205 7.10298C0.834205 6.9382 1.39532 6.83251 1.66139 6.9471C1.94784 7.0703 2.97021 7.0507 2.80106 6.9254C2.73788 6.87882 2.57507 6.84072 2.43808 6.84072C2.2875 6.84072 2.19058 6.80289 2.19058 6.74449C2.19058 6.69192 2.14371 6.6484 2.08619 6.6484C2.0289 6.6484 1.98203 6.60529 1.98203 6.55231C1.98203 6.4996 1.90662 6.45622 1.81446 6.45622C1.71823 6.45622 1.66886 6.49251 1.69966 6.5409C1.72864 6.58749 1.66207 6.66022 1.55179 6.70249C1.3797 6.76882 1.33735 6.75881 1.25561 6.63421C1.18202 6.52171 1.15937 6.5142 1.15416 6.60181C1.14896 6.69011 1.08986 6.70611 0.886965 6.67482C0.664375 6.64061 0.625427 6.65702 0.622483 6.78551C0.619766 6.91581 0.601651 6.9229 0.492054 6.83821C0.422537 6.7844 0.282823 6.75019 0.182511 6.76312C0.0534398 6.77939 0 6.7456 0 6.64631C0 6.5441 0.045288 6.5174 0.168018 6.54633C0.287579 6.57442 0.318827 6.55843 0.277162 6.49112C0.244555 6.43911 0.26267 6.37932 0.317695 6.3586C0.467825 6.30172 0.437708 6.20021 0.270822 6.20021C0.17685 6.20021 0.14311 6.15543 0.17685 6.07631C0.205834 6.00831 0.283503 5.96422 0.349623 5.97841C0.415744 5.99273 0.606406 6.01874 0.773972 6.03612C0.941311 6.05322 1.11182 6.1005 1.1519 6.14083C1.20511 6.19381 1.24519 6.19423 1.29727 6.14292C1.41616 6.02472 1.66886 6.06351 1.66886 6.20021C1.66886 6.36082 1.77959 6.3618 2.10657 6.2041C2.26304 6.12873 2.36449 6.10982 2.36516 6.15571C2.3663 6.19771 2.39981 6.29672 2.4417 6.37612C2.50375 6.4946 2.48563 6.51212 2.33663 6.47721C2.2139 6.44843 2.18016 6.45872 2.23179 6.50962C2.273 6.55092 2.40117 6.58429 2.51529 6.58429C2.63055 6.58429 2.69486 6.55551 2.65954 6.52032C2.62421 6.485 2.66837 6.45622 2.75759 6.45622C2.84748 6.45622 2.9204 6.41311 2.9204 6.36013C2.9204 6.30742 2.85043 6.26432 2.76393 6.26432C2.57553 6.26432 2.56217 6.1895 2.73268 6.08493C2.80174 6.04252 2.83707 6.00553 2.8108 6.0026C2.78544 5.99982 2.62716 5.98383 2.45914 5.96701C1.90481 5.91152 1.76397 5.83434 1.89621 5.65663C1.98543 5.53564 1.9809 5.47585 1.87356 5.39645C1.78367 5.33053 1.77212 5.27852 1.83937 5.25043C1.89734 5.22693 1.97388 5.15865 2.00988 5.09914C2.05675 5.02112 2.01101 4.98553 1.84571 4.97134C1.53843 4.94436 1.51828 4.60256 1.80178 4.22376C1.96278 4.00877 1.98135 3.93368 1.88104 3.89558C1.78367 3.85859 1.7814 3.83467 1.87243 3.80018C1.95871 3.76736 1.94263 3.73065 1.8156 3.67378C1.71755 3.62956 1.67067 3.56017 1.71121 3.51956C1.81673 3.41499 1.98203 3.42848 1.98203 3.54209C1.98203 3.59507 2.05789 3.63818 2.15073 3.63818C2.27414 3.63818 2.30538 3.68087 2.26893 3.79977C2.24108 3.88876 2.25896 3.97707 2.30901 3.99556C2.5119 4.07288 2.39007 4.21458 2.11993 4.21458C1.84571 4.21458 1.84458 4.21667 2.04158 4.33306C2.23111 4.44445 2.24696 4.44486 2.31354 4.33946C2.41838 4.17356 2.55402 4.14435 2.76913 4.24086C2.93036 4.31317 2.98357 4.31276 3.10426 4.23878C3.18375 4.19024 3.35697 4.15047 3.49034 4.15047C3.62372 4.15047 3.75981 4.10737 3.79287 4.05466C3.82593 4.00168 3.94821 3.95857 4.06482 3.95857C4.20046 3.95857 4.27632 3.91616 4.27632 3.84107C4.27632 3.70507 4.37437 3.62789 4.4903 3.67197C4.53491 3.68907 4.51816 3.78878 4.45317 3.89377C4.36327 4.04048 4.36621 4.10347 4.46766 4.16535C4.5725 4.23015 4.66421 4.19817 4.93322 4.00168C5.16623 3.83147 5.31975 3.76987 5.44203 3.79907C5.54936 3.82438 5.69949 3.78906 5.83287 3.70729C5.9522 3.63387 6.09372 3.57407 6.14762 3.57407C6.32333 3.57407 6.39285 3.71508 6.24544 3.77237C6.14988 3.80936 6.24725 3.82855 6.53483 3.82939C6.90642 3.83008 6.96144 3.81325 6.91797 3.71118C6.87562 3.61259 6.94401 3.58589 7.31854 3.55488C7.56717 3.53416 7.81354 3.54348 7.86584 3.57546C7.92313 3.61037 8.00669 3.59869 8.07439 3.54626C8.20369 3.44628 8.67491 3.34518 8.63732 3.42528C8.62396 3.45406 8.64548 3.57268 8.68556 3.68866C8.74805 3.87235 8.79493 3.89697 9.04605 3.88098C9.38163 3.85928 9.53516 3.76139 9.35559 3.68379C9.28132 3.65167 9.32593 3.64638 9.46519 3.67016C9.68597 3.70826 9.75662 3.65556 9.70974 3.48897C9.70114 3.45977 9.77813 3.44558 9.87957 3.45768C10.0007 3.47186 10.0847 3.55739 10.1214 3.70298C10.1742 3.91018 10.1839 3.91546 10.2623 3.77599C10.3143 3.68337 10.3021 3.59827 10.2321 3.55488C10.0553 3.44628 10.0947 3.38189 10.3381 3.38189C10.5075 3.38189 10.5462 3.41179 10.5039 3.50997C10.4738 3.58047 10.4923 3.62219 10.5439 3.60258C10.596 3.58269 10.6384 3.59688 10.6384 3.63428C10.6384 3.67169 10.709 3.70229 10.7948 3.70229C10.8813 3.70229 10.9515 3.67809 10.9515 3.64847C10.9515 3.57226 11.5629 3.60397 11.6986 3.68699C11.7606 3.72509 11.8761 3.74108 11.9549 3.72217C12.1474 3.67698 12.1385 3.45128 11.9427 3.40498C11.7631 3.36298 11.7305 3.09028 11.8969 3.02687C12.0742 2.95971 12.1259 3.03897 11.9995 3.18429C11.9218 3.27287 11.9189 3.31779 11.9909 3.31779C12.0505 3.31779 12.0991 3.28608 12.0991 3.24687C12.0991 3.20779 12.1693 3.19249 12.2552 3.2128C12.3618 3.23797 12.4116 3.2096 12.4116 3.1238C12.4116 3.0405 12.4825 2.99767 12.6204 2.99767C12.8511 2.99767 12.9032 3.15439 12.6985 3.23449C12.5629 3.28789 12.3072 3.53847 12.3072 3.61788C12.3072 3.64318 12.3641 3.62928 12.4325 3.58687C12.5015 3.54459 12.6564 3.50997 12.7769 3.50997C12.8973 3.50997 13.0581 3.47409 13.134 3.42987C13.2447 3.36576 13.2818 3.36576 13.3201 3.42987C13.4007 3.56489 13.7675 3.52526 13.7675 3.38189C13.7675 3.31167 13.8144 3.25368 13.8719 3.25368C13.9292 3.25368 13.9763 3.28246 13.9763 3.31779C13.9763 3.35297 14.0748 3.38189 14.196 3.38189C14.3375 3.38189 14.3966 3.3513 14.3617 3.29568C14.2922 3.18429 14.9351 3.19527 15.1588 3.30916C15.2591 3.36048 15.3361 3.36548 15.3784 3.32349C15.419 3.2833 15.5345 3.27968 15.6835 3.31459C15.9722 3.38189 16.1135 3.33489 16.2138 3.13798C16.3274 2.9134 17.0011 2.79659 17.0011 3.00129C17.0011 3.03438 16.9071 3.0615 16.7923 3.0615C16.6775 3.0615 16.5838 3.09348 16.5838 3.1327C16.5838 3.1715 16.5136 3.18707 16.4271 3.16649C16.1907 3.111 16.2398 3.23908 16.4862 3.31987C16.6318 3.36799 16.7425 3.36979 16.8283 3.32599C16.9083 3.28539 17.0127 3.2833 17.1089 3.32057C17.3077 3.39788 17.4467 3.39816 17.3698 3.32168C17.3337 3.28566 17.4671 3.27718 17.7024 3.30026C18.0606 3.33559 18.0833 3.32947 17.9528 3.23226C17.874 3.17358 17.8555 3.12588 17.9112 3.12588C17.9662 3.12588 18.0631 3.19069 18.1252 3.26967C18.1877 3.34907 18.2415 3.37869 18.2456 3.33586C18.249 3.29289 18.3228 3.2744 18.4091 3.29456C18.5993 3.33948 18.6138 3.24687 18.4352 3.12978C18.328 3.05969 18.3493 3.05079 18.5563 3.0818C18.6942 3.10238 18.888 3.09279 18.9865 3.06039C19.1163 3.0177 19.2155 3.03577 19.35 3.127C19.5243 3.24589 19.5429 3.24659 19.6833 3.14118C19.7655 3.07999 19.7992 3.06929 19.758 3.1181C19.7082 3.17678 19.732 3.19597 19.8287 3.17539C19.9081 3.15828 19.9598 3.0971 19.943 3.03897C19.8989 2.88809 20.104 2.90867 20.4566 3.09098C20.6339 3.18248 20.83 3.23226 20.9255 3.2096C21.0159 3.1886 21.1262 3.20709 21.1701 3.25118C21.2344 3.31487 21.2994 3.31487 21.4937 3.25118C21.6721 3.19249 21.7468 3.19069 21.7765 3.24478C21.8327 3.34838 21.9742 3.33517 22.0466 3.21919C22.086 3.15578 22.0251 3.09918 21.875 3.05969C21.6472 3.00017 21.6479 2.9992 21.9029 3.0145C22.1132 3.02687 22.1585 3.06108 22.1377 3.18999C22.1173 3.31278 22.1343 3.3278 22.2113 3.25437C22.2878 3.18109 22.3399 3.1765 22.4339 3.23407C22.5283 3.29178 22.6193 3.28427 22.8258 3.20139C22.9735 3.14229 23.06 3.12769 23.0187 3.16927C22.9764 3.21099 22.9957 3.26508 23.06 3.2897C23.1249 3.31417 23.2135 3.2986 23.2576 3.25507C23.3138 3.19917 23.358 3.19667 23.4078 3.24659C23.4535 3.29178 23.5735 3.25869 23.7445 3.15328C23.9979 2.99809 24.0205 2.99531 24.2082 3.09988C24.3172 3.16037 24.4059 3.18707 24.4059 3.15968C24.4059 3.13228 24.4854 3.14938 24.5828 3.19778C24.6795 3.24617 24.727 3.25298 24.6883 3.21307C24.6471 3.17108 24.705 3.1263 24.8244 3.10697C24.9399 3.0882 25.0053 3.1003 24.9718 3.13367C24.9369 3.16788 25.0261 3.18109 25.1781 3.1644C25.5544 3.12227 25.6575 3.07207 25.5902 2.9636C25.5578 2.91159 25.5834 2.8696 25.6466 2.8696C25.7102 2.8696 25.7618 2.90019 25.7618 2.93718C25.7618 2.97459 25.8094 2.9871 25.8674 2.96527C26.0361 2.9013 25.6749 2.72359 25.4494 2.75988C25.3386 2.77768 25.1989 2.75571 25.138 2.71079C25.0001 2.60858 25.1097 2.42099 25.3074 2.42099C25.3891 2.42099 25.4824 2.3783 25.5148 2.32601C25.5596 2.25509 25.6233 2.24731 25.7689 2.295C25.8812 2.33199 25.938 2.3993 25.9034 2.45409C25.8603 2.5232 25.9183 2.5492 26.1131 2.5492C26.3549 2.5492 26.3728 2.5652 26.2876 2.703C26.2152 2.81968 26.2349 2.88031 26.3682 2.95428C26.5578 3.059 27.0876 3.1626 27.3003 3.13617C27.3723 3.12727 27.4307 3.15008 27.4307 3.18707C27.4307 3.22378 27.4835 3.25368 27.5473 3.25368C27.6128 3.25368 27.6395 3.19708 27.6087 3.12477C27.5374 2.95609 27.8342 2.85819 28.2586 2.9102C28.6041 2.95289 28.8 3.0697 28.5964 3.11128C28.5292 3.12519 28.4741 3.18067 28.4741 3.23477C28.4741 3.31028 28.5072 3.31667 28.6139 3.2623C28.6911 3.22309 28.7826 3.20849 28.8167 3.2299C28.8521 3.25118 28.9884 3.19138 29.1206 3.0971C29.3837 2.90909 29.6725 2.9223 29.7784 3.12727C29.8219 3.2121 29.9043 3.23477 30.0694 3.20849C30.1958 3.18818 30.4752 3.1644 30.6903 3.1555C31.3483 3.12839 31.3261 3.13367 31.1919 3.0341C31.0931 2.9611 31.1065 2.93009 31.2573 2.88281C31.361 2.84957 31.5007 2.83469 31.5673 2.84929C31.7442 2.88879 31.8479 2.74959 31.7147 2.651C31.63 2.588 31.6398 2.54601 31.7534 2.4883C31.9808 2.37232 32.1262 2.46452 32.0555 2.67978C32.008 2.82579 32.0317 2.8696 32.1574 2.8696C32.248 2.8696 32.3829 2.94678 32.4579 3.04078C32.6289 3.2566 32.757 3.28219 33.0154 3.1537C33.1273 3.09807 33.1639 3.06929 33.096 3.08987C33.0288 3.11059 32.9436 3.09849 32.9076 3.06289C32.8716 3.02687 32.8949 2.99739 32.9599 2.99739C33.0299 2.99739 33.0503 2.9458 33.0109 2.8696C32.9325 2.71761 33.1157 2.6948 33.2097 2.84471C33.2543 2.9166 33.3134 2.92898 33.4033 2.88517C33.4739 2.85069 33.6583 2.80869 33.812 2.79159C34.0414 2.76628 34.103 2.7888 34.1551 2.91688C34.2078 3.04509 34.2461 3.059 34.3713 2.99559C34.4549 2.95289 34.5233 2.87808 34.5233 2.82969C34.5233 2.71969 34.7511 2.71469 34.9238 2.82079C35.0269 2.8842 35.0728 2.881 35.1494 2.80549C35.2089 2.74611 35.3643 2.71788 35.5619 2.73068C35.7949 2.7457 35.8792 2.72428 35.8792 2.6503C35.8792 2.58508 35.9718 2.5492 36.14 2.5492C36.3348 2.5492 36.4009 2.583 36.4009 2.6827C36.4009 2.7621 36.4537 2.80438 36.5306 2.78769C36.6027 2.7717 36.7904 2.79909 36.948 2.8479C37.1348 2.90589 37.2351 2.91271 37.2351 2.86737C37.2351 2.82899 37.2813 2.8155 37.337 2.8365C37.3932 2.85778 37.5458 2.839 37.6762 2.79478C37.8066 2.75028 37.9497 2.7208 37.9955 2.72859C38.0408 2.7368 38.1671 2.71399 38.276 2.67811C38.4101 2.63389 38.4952 2.63389 38.5398 2.67839C38.5759 2.71399 38.6494 2.72678 38.7033 2.70648C38.7572 2.6859 38.8292 2.71441 38.8634 2.7692C38.9486 2.90589 39.1467 2.89518 39.3734 2.74138C39.5985 2.5887 39.7382 2.57702 39.7382 2.71079C39.7382 2.79798 39.7635 2.79798 39.9809 2.71079C40.115 2.6567 40.2592 2.63431 40.3027 2.66101C40.3455 2.68729 40.4361 2.66309 40.5026 2.60691C40.5699 2.5506 40.6713 2.4965 40.7293 2.48649C40.7861 2.47689 40.8928 2.45478 40.9652 2.43782C41.0377 2.42071 41.1856 2.42071 41.2934 2.4381C41.4279 2.45979 41.5248 2.4221 41.6024 2.31711C41.7222 2.15511 41.8823 2.12841 42.1368 2.22812C42.2573 2.27512 42.2673 2.31531 42.1796 2.40319C42.0232 2.55991 42.1056 2.67019 42.3495 2.63111C42.4609 2.61331 42.5263 2.5734 42.4958 2.54281C42.4643 2.5118 42.5118 2.50359 42.601 2.52459C42.6898 2.54559 42.763 2.53099 42.763 2.49191C42.763 2.45311 42.8098 2.42099 42.8671 2.42099C42.9246 2.42099 42.9658 2.44269 42.9588 2.46911C42.9276 2.59231 42.9837 2.62249 43.1171 2.55449C43.197 2.51388 43.2416 2.42989 43.2149 2.36829C43.1884 2.30599 43.2632 2.20281 43.3825 2.13662C43.502 2.07001 43.5972 2.0497 43.5972 2.091C43.5972 2.13161 43.5385 2.1654 43.4672 2.16582C43.3784 2.16651 43.3854 2.1857 43.4891 2.22631C43.5854 2.26372 43.6904 2.26121 43.7715 2.21991C43.8428 2.18362 43.9502 2.17249 44.0097 2.19502C44.0695 2.2181 44.1189 2.20879 44.1189 2.175C44.1189 2.1412 44.2638 2.11979 44.4404 2.1273C44.6173 2.13481 44.8804 2.1031 45.026 2.0568C45.386 1.94221 45.4746 1.95069 45.4746 2.10102C45.4746 2.18139 45.5443 2.22881 45.6625 2.22881C45.7655 2.22881 45.8985 2.25871 45.9576 2.295C46.0318 2.3402 46.0509 2.30029 46.0189 2.16679C45.9895 2.04442 46.0178 1.9728 46.0955 1.9728C46.1713 1.9728 46.1935 1.9233 46.1523 1.84473C46.1059 1.7542 46.1337 1.71652 46.2485 1.71652C46.3545 1.71652 46.4021 1.7663 46.386 1.86072C46.3645 1.98713 46.4057 2.0034 46.7209 1.9938C46.9464 1.98713 47.1262 2.0212 47.2021 2.0853C47.3597 2.21741 47.8015 2.24439 47.7215 2.11701C47.6907 2.06722 47.6647 1.99992 47.6647 1.96752C47.6647 1.93512 47.5707 1.9087 47.4566 1.9087C47.3191 1.9087 47.2478 1.86601 47.2478 1.78452C47.2478 1.60193 47.4647 1.5502 47.6405 1.69093C47.7476 1.77603 47.8078 1.78841 47.842 1.73251C47.9117 1.61904 48.082 1.63322 48.082 1.75253C48.082 1.81942 48.1597 1.84612 48.3168 1.83263C48.5064 1.8165 48.5517 1.84362 48.5517 1.9728C48.5517 2.06862 48.4889 2.1362 48.3952 2.14162C48.0567 2.16012 48.0426 2.18181 48.3429 2.22311C48.5186 2.24731 48.6873 2.23799 48.7278 2.20211C48.772 2.16262 48.8798 2.18251 49.0079 2.2537C49.1225 2.31739 49.267 2.35049 49.329 2.32671C49.4844 2.26789 49.3458 2.1483 49.1701 2.1896C48.9823 2.23382 48.8617 2.1088 49.0061 2.02022C49.0879 1.97002 49.1957 2.00089 49.3922 2.13091L49.6646 2.31141L49.7858 2.16332C49.9486 1.9646 50.1684 1.9265 50.1684 2.09671C50.1684 2.20531 50.2183 2.22589 50.4286 2.20239C50.5724 2.1864 50.6895 2.20211 50.6895 2.23702C50.6895 2.27192 50.74 2.28152 50.8013 2.25829C50.8623 2.23521 50.8883 2.17792 50.8593 2.13091C50.8009 2.03733 51.0726 1.86642 51.1781 1.93122C51.2141 1.9532 51.3063 1.93971 51.3828 1.90091C51.4587 1.86211 51.5909 1.84682 51.6761 1.8667C51.7608 1.88673 51.8552 1.8781 51.886 1.84751C51.9168 1.81692 52.0239 1.80162 52.1242 1.8133C52.2245 1.8254 52.3479 1.83722 52.3984 1.83972C52.4489 1.84223 52.465 1.96001 52.4344 2.10102C52.3799 2.35049 52.4906 2.50721 52.5995 2.3338C52.6708 2.2188 53.5265 2.26789 53.6407 2.3936C53.7097 2.46869 53.7625 2.46271 53.9473 2.35661C54.1966 2.21421 54.392 2.18612 54.279 2.30891C54.2199 2.37302 54.233 2.37302 54.3456 2.30891C54.5131 2.21352 54.6923 2.20211 54.6005 2.29292C54.5652 2.3281 54.6094 2.35689 54.6993 2.35689C54.7885 2.35689 54.8614 2.32921 54.8614 2.295C54.8614 2.2608 54.9323 2.24939 55.0181 2.2697C55.1171 2.2932 55.1746 2.269 55.1746 2.20392C55.1746 2.14732 55.2452 2.10102 55.331 2.10102C55.4169 2.10102 55.4875 2.14412 55.4875 2.19711C55.4875 2.24981 55.5346 2.29292 55.5919 2.29292C55.6487 2.29292 55.6963 2.24981 55.6963 2.19711C55.6963 2.10769 55.7721 2.0942 56.3738 2.07529C56.5049 2.07112 56.5774 2.02732 56.5681 1.95681C56.5599 1.89521 56.59 1.84473 56.6353 1.84473C56.6799 1.84473 56.7501 1.89521 56.7914 1.95681C56.8597 2.0593 56.8724 2.05791 56.9444 1.94082C57.0024 1.8464 56.9716 1.80051 56.8289 1.76672C56.7223 1.74141 56.6347 1.69093 56.6347 1.65464C56.6347 1.57162 56.8104 1.568 56.8921 1.64921C56.9259 1.68273 57.0998 1.69872 57.2782 1.68481C57.5228 1.66562 57.5739 1.67772 57.484 1.73293C57.4186 1.77311 57.3647 1.82443 57.3647 1.84682C57.3647 1.91092 57.7164 1.89771 57.8602 1.8279C57.9322 1.79342 57.9906 1.78382 57.9906 1.80691C57.9906 1.83013 58.0816 1.81942 58.193 1.78271C58.313 1.74322 58.419 1.74002 58.4543 1.77492C58.4869 1.80732 58.4543 1.84821 58.3825 1.86601C58.3008 1.88631 58.3182 1.90063 58.4278 1.90383C58.5245 1.90661 58.6353 1.87783 58.6728 1.84042C58.7107 1.80273 58.8021 1.78591 58.8764 1.80343C58.95 1.82081 59.1076 1.77951 59.2265 1.71193C59.3447 1.64393 59.532 1.5883 59.6422 1.5883C59.7523 1.5883 59.9008 1.54534 59.9719 1.49221C60.0618 1.42602 60.0659 1.39612 59.9853 1.39612C59.9205 1.39612 59.8682 1.36553 59.8682 1.32771C59.8682 1.29002 59.9737 1.26833 60.1024 1.27973C60.2532 1.29294 60.332 1.34134 60.3222 1.41462C60.3111 1.49833 60.3413 1.5114 60.4364 1.46301C60.507 1.42713 60.5958 1.41601 60.6334 1.43923C60.6705 1.46204 60.7882 1.43242 60.8942 1.37374C61.0004 1.31464 61.2004 1.27403 61.3383 1.28321C61.4995 1.29392 61.5939 1.26583 61.6032 1.20422C61.6333 0.996051 61.6582 0.986038 61.7592 1.14012C61.8611 1.29572 61.8681 1.29684 62.0131 1.17572C62.0955 1.10744 62.1627 1.01023 62.1627 0.960034C62.1627 0.882022 62.1881 0.881327 62.336 0.956141C62.4659 1.02164 62.5203 1.02442 62.5515 0.967126C62.5812 0.913032 62.6688 0.907748 62.8473 0.949327C62.987 0.982145 63.1011 0.987429 63.1011 0.961842C63.1011 0.935838 63.2037 0.875347 63.3296 0.827233C63.5325 0.74922 63.5778 0.754644 63.7354 0.874235C63.907 1.00453 63.9145 1.00495 63.9654 0.88522C63.9944 0.81722 63.9539 0.709728 63.8755 0.646455C63.7974 0.583462 63.7324 0.463453 63.7302 0.380157C63.7279 0.259453 63.7702 0.235257 63.9353 0.261956C64.0501 0.280451 64.1701 0.269048 64.2025 0.237343C64.2727 0.167535 64.7654 0.159052 64.7817 0.22747C64.8784 0.626431 64.8662 0.703331 64.7122 0.667036C64.6194 0.645343 64.5777 0.656051 64.6142 0.692345C64.6495 0.727249 64.7596 0.755756 64.8599 0.755756C64.9597 0.755756 65.0976 0.790243 65.1667 0.832656C65.2634 0.892452 65.2912 0.886055 65.2912 0.804427C65.2912 0.746439 65.2448 0.681638 65.1875 0.659527C65.0326 0.600844 65.0612 0.372648 65.2281 0.333155C65.3075 0.31466 65.351 0.247355 65.3236 0.183944C65.2749 0.0693591 65.5387 -0.0452258 65.7063 0.0180462C65.832 0.0661608 65.7557 0.442038 65.6082 0.49794C65.5068 0.536738 65.5093 0.579429 65.6198 0.699437C65.7371 0.825842 65.8471 0.852542 66.2645 0.856018C66.5776 0.858938 66.8025 0.894537 66.8587 0.950439C66.9085 0.999944 66.9809 1.02053 67.0199 0.996746C67.0586 0.972828 67.177 1.01705 67.283 1.09464C67.396 1.17794 67.4766 1.20172 67.4784 1.15221C67.4802 1.10632 67.5289 1.08644 67.5862 1.10813C67.6435 1.12983 67.6906 1.12023 67.6906 1.08672C67.6906 0.986317 68.0042 0.943625 68.2198 1.01455C68.3577 1.06002 68.4204 1.06002 68.4204 1.01413C68.4204 0.977834 68.4673 0.947936 68.5248 0.947936C68.5821 0.947936 68.629 0.991045 68.629 1.04403C68.629 1.09673 68.679 1.14012 68.7392 1.14012C68.924 1.14012 68.7304 1.27153 68.4367 1.34634C68.2152 1.40252 68.196 1.42171 68.3421 1.44313C68.4424 1.45773 68.5248 1.49653 68.5248 1.52893C68.5248 1.56161 68.6541 1.58803 68.8117 1.58733C68.9693 1.58691 69.0492 1.56522 68.9897 1.53922C68.9269 1.51224 68.9109 1.41114 68.9514 1.30031C68.9901 1.19463 69.0273 1.14415 69.0343 1.18823C69.0406 1.23203 69.1178 1.26833 69.2052 1.26833C69.3508 1.26833 69.5983 1.52253 69.6162 1.69024C69.6203 1.7282 69.7061 1.81052 69.8076 1.87282C69.909 1.93512 69.9681 2.03371 69.9385 2.09142C69.9095 2.14941 69.9287 2.23952 69.9819 2.29139C70.048 2.35619 70.0227 2.42461 69.9016 2.50902C69.7693 2.6008 69.7618 2.62471 69.873 2.6026C69.9554 2.58661 70.0533 2.5321 70.0915 2.4812C70.1298 2.43059 70.2197 2.32031 70.291 2.23632C70.3965 2.11242 70.3954 2.07362 70.2824 2.03079C70.1692 1.98782 70.1681 1.96293 70.2772 1.8959C70.3861 1.82902 70.4296 1.83152 70.5125 1.90911C70.5682 1.96182 70.596 2.05082 70.5738 2.10672C70.5526 2.1629 70.625 2.24369 70.7351 2.28569C70.9176 2.35591 70.9257 2.35091 70.822 2.23201C70.7299 2.12633 70.7392 2.10102 70.8678 2.10102C71.0122 2.10102 71.0747 2.17611 71.0405 2.30891C71.0208 2.38511 71.113 2.36579 71.3397 2.24661C71.4549 2.18612 71.5496 2.0707 71.5496 1.99033C71.5496 1.83653 71.7443 1.79773 71.9338 1.91412C72.0557 1.9888 71.997 2.22881 71.8573 2.22881C71.8109 2.22881 71.7577 2.29361 71.7391 2.37302C71.7135 2.4844 71.6347 2.51861 71.3931 2.5232C71.2208 2.5264 71.0279 2.50429 70.964 2.47439C70.8829 2.43629 70.851 2.49261 70.8596 2.66031C70.8707 2.88809 70.8521 2.90269 70.5066 2.93468C70.1814 2.96499 70.1681 2.97347 70.3855 3.0106C70.5802 3.04398 70.6151 3.08097 70.5564 3.19319C70.5009 3.30138 70.5512 3.36687 70.7727 3.47548C70.9774 3.57546 71.0347 3.64318 70.9692 3.70757C70.738 3.93535 70.9814 4.18287 71.3668 4.11168C71.5733 4.07357 71.5935 4.13476 71.4511 4.36546C71.3773 4.48435 71.298 4.51606 71.1379 4.49006C70.8934 4.45084 70.873 4.48686 71.0446 4.65526C71.2086 4.81643 71.0852 4.98316 70.8016 4.98316C70.6209 4.98316 70.5972 5.00013 70.6939 5.06006C70.7912 5.11986 70.8469 5.11986 70.9443 5.06006C71.0134 5.01765 71.1096 4.98316 71.1576 4.98316C71.2735 4.98316 71.2133 5.19425 71.0799 5.25433C71.0227 5.28033 71.0695 5.30383 71.1843 5.30633C71.2991 5.30926 71.171 5.35654 70.9004 5.41202C70.6296 5.46764 70.4307 5.53592 70.459 5.56401C70.4869 5.59182 70.4649 5.63173 70.4104 5.65273C70.3553 5.67331 70.262 5.63924 70.2029 5.57694C70.1443 5.51465 70.0945 5.49393 70.0922 5.53064C70.0904 5.56763 70.1323 5.62534 70.1848 5.65871C70.2376 5.69222 70.3048 5.81724 70.3345 5.93641C70.3642 6.05573 70.4382 6.1838 70.4998 6.22162C70.6823 6.33343 70.6336 6.63533 70.4285 6.66842C70.2546 6.69609 70.2546 6.6979 70.4285 6.70499C70.6151 6.7125 70.692 6.84072 70.5095 6.84072C70.4538 6.84072 70.4359 6.88369 70.469 6.93681C70.5073 6.99841 70.4667 7.0329 70.3553 7.0329C70.2598 7.0329 70.2115 7.00258 70.2487 6.96601C70.3338 6.8809 70.1112 6.7125 69.9131 6.7125C69.8098 6.7125 69.7831 6.75269 69.8284 6.84072C69.8748 6.93069 69.847 6.96879 69.7344 6.96879C69.6418 6.96879 69.5972 7.0055 69.6289 7.0564C69.6597 7.10479 69.6226 7.18419 69.5478 7.23259C69.3925 7.33299 69.3241 7.58927 69.414 7.7332C69.4672 7.81789 69.4881 7.81816 69.5816 7.73556C69.666 7.66047 69.6801 7.6595 69.6486 7.73139C69.5936 7.85668 68.9229 7.86266 68.763 7.73918C68.5699 7.59038 68.6047 7.48108 68.8452 7.48108C68.9949 7.48108 69.051 7.4466 69.0273 7.369C69.0012 7.2864 68.8715 7.2515 68.5316 7.2369C68.1109 7.2184 68.083 7.22591 68.2157 7.32381C68.3416 7.4167 68.3335 7.44298 68.1555 7.52308C68.04 7.57509 67.9659 7.6716 67.985 7.74418C68.0031 7.81497 67.9623 7.91467 67.8939 7.96529C67.8255 8.01618 67.8047 8.05749 67.8489 8.05749C67.8923 8.05749 67.9809 8.01368 68.0447 7.95959C68.109 7.90577 68.2986 7.85529 68.4668 7.84778C68.7374 7.83499 68.7804 7.85849 68.8488 8.05707C68.9322 8.29778 68.8794 8.39498 68.741 8.25717C68.6824 8.19877 68.552 8.18598 68.3294 8.21587C68.0993 8.24688 68.0031 8.23618 68.0031 8.17958C68.0031 8.13077 67.9288 8.14746 67.8129 8.22227C67.6516 8.32657 67.6442 8.35897 67.766 8.43336C67.8448 8.48176 67.8946 8.56825 67.8767 8.62596C67.8274 8.78226 67.5386 8.75167 67.5004 8.58605C67.4825 8.50665 67.4204 8.44198 67.3629 8.44198C67.3056 8.44198 67.2889 8.38428 67.3253 8.31377C67.3792 8.20878 67.3439 8.18556 67.1299 8.18556C66.9861 8.18556 66.8389 8.15677 66.8036 8.12159C66.7207 8.03927 66.3347 8.03788 66.3347 8.12006C66.3347 8.15427 66.17 8.27428 65.9694 8.38678C65.6171 8.58355 65.493 8.76196 65.7086 8.76196C65.7661 8.76196 65.813 8.79394 65.813 8.83316C65.813 8.87766 65.7115 8.88836 65.5387 8.86194C65.3168 8.82746 65.2767 8.83886 65.3288 8.92146C65.3666 8.98153 65.3277 9.03855 65.2339 9.06066C64.9323 9.13144 64.7706 9.46185 64.6629 10.2279C64.5435 11.0695 64.5793 11.182 65.1196 11.6693C65.4882 12.0019 65.4685 12.1272 65.0234 12.3005L64.6506 12.4451L64.7104 12.831C64.7892 13.334 64.6212 13.5019 64.0379 13.5019C63.7533 13.5019 63.5667 13.4597 63.4183 13.3618C63.1643 13.1948 63.162 13.177 63.3579 12.8897C63.4414 12.7669 63.4838 12.6249 63.4525 12.5743C63.4206 12.5237 63.4514 12.3774 63.5202 12.2489C63.6332 12.0389 63.6224 11.9958 63.4084 11.8182C63.2775 11.7096 63.0907 11.4913 62.9929 11.3333C62.8217 11.0563 62.8101 11.051 62.6897 11.1898C62.6199 11.2692 62.5853 11.3689 62.612 11.4116C62.6385 11.454 62.5864 11.7042 62.4965 11.967C62.2914 12.5643 62.3174 14.063 62.5384 14.3905C62.7793 14.7476 62.7273 15.0541 62.3917 15.2513C62.0402 15.4578 61.66 15.4717 61.3412 15.2894C61.1342 15.1709 61.1152 15.1157 61.1761 14.8156C61.2241 14.5788 61.1922 14.3652 61.0711 14.1087C60.9748 13.906 60.8815 13.5501 60.863 13.3168C60.844 13.0841 60.7704 12.8157 60.6983 12.7203C60.5992 12.5875 60.5969 12.5049 60.6879 12.3678C60.9325 12.0011 61.0826 11.4718 61.0573 11.0681C61.0074 10.2827 60.9157 9.75624 60.7975 9.58144C60.718 9.46365 60.7124 9.34865 60.779 9.22864C60.8689 9.06886 60.8682 8.94204 60.7783 8.63416C60.728 8.46145 60.4595 8.26176 60.3211 8.29458C60.1692 8.33018 59.8678 8.17096 59.8678 8.05526C59.8678 8.00659 59.7743 7.99407 59.6069 8.01966C59.4636 8.04177 59.3461 8.03537 59.3461 8.00506C59.3461 7.94387 58.5123 7.75906 58.3685 7.78827C58.3187 7.79828 58.3037 7.76518 58.335 7.71429C58.3703 7.65769 58.3146 7.6093 58.1912 7.58969C58.0805 7.57189 58.0121 7.57898 58.0388 7.60568C58.1194 7.68578 57.6672 7.94068 57.5101 7.90396C57.4261 7.88408 57.364 7.90939 57.364 7.96348C57.364 8.01507 57.4584 8.05749 57.5733 8.05749C57.6962 8.05749 57.7813 8.10018 57.7813 8.16248C57.7813 8.30195 57.3002 8.57006 57.0497 8.57006C56.7773 8.57006 56.5774 8.33686 56.7443 8.21379C56.836 8.14579 56.8382 8.09906 56.7524 8.03579C56.6881 7.98837 56.6673 7.93066 56.7049 7.90758C56.7427 7.8845 56.713 7.86558 56.6394 7.86558C56.5588 7.86558 56.5264 7.91439 56.5583 7.98879C56.5948 8.07556 56.5676 8.10198 56.4648 8.07779C56.3652 8.05429 56.3392 8.07528 56.3826 8.14495C56.4173 8.20058 56.3774 8.28846 56.2934 8.34005C56.1594 8.42266 56.1263 8.41487 56.0233 8.27609C55.9189 8.13536 55.9345 8.11158 56.1657 8.05749C56.309 8.02397 56.4254 7.95069 56.4254 7.89479C56.4254 7.79466 56.3206 7.7987 55.8086 7.91717C55.7212 7.93748 55.6893 7.92357 55.7305 7.88227C55.7758 7.83749 55.7205 7.82609 55.5751 7.84959C55.4024 7.87726 55.3693 7.86447 55.4336 7.7955C55.5016 7.72249 55.4905 7.72068 55.3768 7.78549C55.2998 7.82929 55.1497 7.86558 55.043 7.86558C54.9155 7.86558 54.8754 7.89298 54.9271 7.94568C54.9792 7.99839 54.945 7.99519 54.8268 7.93636C54.7283 7.88728 54.6146 7.86739 54.5745 7.89187C54.5351 7.91648 54.5525 7.95639 54.6139 7.98086C54.8759 8.08558 54.9595 8.29027 54.7982 8.43197C54.6019 8.60385 54.5009 8.60496 54.2278 8.43726C54.0227 8.31127 54.0209 8.29667 54.1868 8.14148C54.305 8.03037 54.3159 7.99477 54.2204 8.03009C54.104 8.07306 54.1044 8.06319 54.2222 7.97377C54.3444 7.88158 54.3426 7.86558 54.2133 7.86558C54.13 7.86558 54.029 7.88547 53.9892 7.91008C53.8592 7.98949 53.592 7.98629 53.6425 7.90577C53.6692 7.86266 53.6024 7.82359 53.4939 7.81858C53.385 7.81358 53.2969 7.85056 53.2969 7.90146C53.2969 7.95208 53.2535 7.99338 53.1996 7.99338C53.1468 7.99338 53.0291 8.03899 52.9387 8.09447C52.789 8.18625 52.7659 8.18208 52.6772 8.04636C52.624 7.96459 52.5764 7.92649 52.5716 7.96167C52.5671 7.99658 52.5225 7.98587 52.472 7.93706C52.4002 7.86739 52.3665 7.87699 52.3115 7.98198C52.2506 8.10129 52.2118 8.10769 51.9614 8.03996C51.8065 7.99839 51.6466 7.9347 51.6054 7.89868C51.5033 7.80899 51.4286 7.81677 51.3126 7.92969C51.2252 8.01507 51.2135 8.01507 51.2107 7.92969C51.2083 7.84389 51.1963 7.84389 51.1064 7.92969C51.0391 7.99338 51.0049 7.99908 51.0038 7.94568C51.0026 7.90146 50.9503 7.86558 50.8867 7.86558C50.8233 7.86558 50.795 7.90396 50.8247 7.95069C50.8541 7.99769 50.8118 8.03607 50.7311 8.03607C50.6512 8.03607 50.5794 7.97627 50.5731 7.90299C50.5631 7.79466 50.5516 7.79049 50.5133 7.88158C50.4866 7.94318 50.3985 7.99338 50.3168 7.99338C50.235 7.99338 50.1678 8.02397 50.1678 8.06138C50.1678 8.09879 50.1202 8.11116 50.0618 8.08877C50.0031 8.06666 49.9875 8.01758 50.0258 7.9792C50.0697 7.93539 50.0466 7.92816 49.9619 7.96028C49.7493 8.04108 48.6033 8.07056 48.6033 7.99546C48.6033 7.95917 48.4391 7.92969 48.238 7.92969C48.0374 7.92969 47.8735 7.95987 47.8735 7.99727C47.8735 8.03468 47.8241 8.04636 47.7643 8.02397C47.7041 8.00117 47.587 8.01716 47.5035 8.05999C47.405 8.11047 47.3058 8.11617 47.2213 8.07668C47.1493 8.04288 46.9383 8.02467 46.7517 8.03579C46.5644 8.04706 46.4132 8.02606 46.4132 7.98879C46.4132 7.95208 46.4718 7.94207 46.5436 7.96696C46.6457 8.00256 46.6468 7.99449 46.5477 7.92899C46.4455 7.86099 46.3917 7.86058 46.2612 7.92719C46.1401 7.98879 46.0647 7.99129 45.9569 7.93636C45.8659 7.8902 45.7268 7.88338 45.5744 7.91787C45.4166 7.95389 45.3761 7.98837 45.4567 8.01869C45.6915 8.10796 45.5826 8.20238 45.2862 8.16567C45.0706 8.13939 44.9621 8.16178 44.8711 8.25106C44.7934 8.32768 44.786 8.38608 44.8503 8.41056C45.012 8.47188 44.9698 8.68047 44.7871 8.72344C44.5471 8.78018 44.4046 8.70356 44.4683 8.55337C44.4991 8.48148 44.4323 8.31238 44.32 8.17735C44.1175 7.93358 44.113 7.93247 43.6221 7.97266C43.3501 7.99519 43.1112 8.03899 43.0915 8.07028C43.0714 8.10157 42.9889 8.09336 42.909 8.05248C42.8128 8.00339 42.7177 7.99908 42.6318 8.03969C42.4301 8.13578 42.1165 8.19349 42.1896 8.12076C42.2249 8.08558 42.1235 8.05359 41.96 8.04817C41.4018 8.03009 41.3536 8.02536 41.2313 7.97669C41.1636 7.94958 41.0742 7.96098 41.0325 8.00228C40.989 8.04567 41.0024 8.06027 41.0637 8.03677C41.2035 7.98406 41.5513 8.22158 41.4627 8.30988C41.3536 8.41807 40.989 8.38886 40.9154 8.26566C40.879 8.20405 40.7884 8.13119 40.7148 8.10407C40.6412 8.07668 40.61 8.00436 40.6453 7.94387C40.694 7.86127 40.6337 7.87337 40.4064 7.99268C40.2395 8.08029 40.1578 8.11269 40.225 8.06486C40.2923 8.01688 40.3219 7.93678 40.2905 7.88658C40.2458 7.81538 40.2012 7.82387 40.0842 7.92649C40.0017 7.99866 39.865 8.05749 39.7803 8.05749C39.6958 8.05749 39.4889 8.14426 39.3206 8.24967C38.9653 8.47286 38.7364 8.49455 38.6424 8.31377C38.606 8.24327 38.509 8.18556 38.4269 8.18556C38.3451 8.18556 38.2779 8.15218 38.2779 8.11088C38.2779 8.06986 38.2477 8.05429 38.2117 8.07668C38.1753 8.09879 38.0571 8.08808 37.9479 8.05206C37.7967 8.00228 37.6882 8.01688 37.486 8.11478C37.2245 8.24118 36.9579 8.23326 36.7834 8.09447C36.7238 8.04678 36.6808 8.05067 36.6436 8.10699C36.6142 8.15177 36.4604 8.22936 36.3017 8.27998C36.0791 8.35076 35.9858 8.35396 35.89 8.29486C35.7399 8.20308 35.5515 8.34478 35.6385 8.48426C35.6681 8.53126 35.6373 8.57006 35.5701 8.57006C35.5035 8.57006 35.4564 8.51958 35.4671 8.45798C35.4994 8.26288 35.4671 8.24827 35.2531 8.36077C35.1383 8.42085 35.0432 8.52876 35.0409 8.60037C35.038 8.71955 35.0293 8.72108 34.9313 8.61748C34.8722 8.55546 34.853 8.47647 34.8885 8.44157C34.9238 8.40639 34.9023 8.37788 34.8421 8.37788C34.7812 8.37788 34.7314 8.40277 34.7314 8.43308C34.7314 8.46326 34.6172 8.47466 34.478 8.45825C34.3133 8.43906 34.1417 8.47578 33.9889 8.56324C33.8596 8.63736 33.7121 8.69827 33.6619 8.69827C33.4828 8.69827 33.1621 8.56255 33.2153 8.50957C33.245 8.47995 33.1064 8.47828 32.9065 8.50595C32.7065 8.53376 32.5661 8.53307 32.594 8.50498C32.6225 8.47675 32.5516 8.46896 32.4368 8.48718C32.3223 8.50567 32.2283 8.54767 32.2283 8.58007C32.2283 8.61247 32.1628 8.60176 32.0827 8.55657C32.0028 8.51096 31.9552 8.45575 31.9772 8.43336C31.9994 8.41056 31.924 8.37746 31.8096 8.35897C31.6955 8.34075 31.6022 8.35048 31.6022 8.38066C31.6022 8.44477 30.9638 8.42015 30.7773 8.34937C30.7071 8.32267 30.5662 8.34798 30.4614 8.40639C30.2567 8.51986 29.7037 8.49886 29.6365 8.37468C29.6145 8.33407 29.4927 8.36536 29.3489 8.44838C29.2117 8.52737 29.0991 8.55838 29.0991 8.51708C29.0991 8.47578 29.1489 8.44198 29.2098 8.44198C29.2708 8.44198 29.2909 8.41278 29.2551 8.37718C29.2132 8.33588 29.1263 8.33407 29.0167 8.37148C28.9089 8.40875 28.771 8.40708 28.6503 8.36745C28.5443 8.33268 28.3842 8.32086 28.2957 8.34186C28.2069 8.36286 28.0817 8.35466 28.0167 8.32337C27.9524 8.29236 27.7826 8.25217 27.6388 8.23437C27.4957 8.21657 27.288 8.17888 27.178 8.15065C27.01 8.10769 26.9896 8.11937 27.0528 8.22116C27.123 8.33296 27.1096 8.33185 26.8888 8.20836C26.5942 8.04428 26.3067 8.03899 26.2256 8.19627C26.1921 8.26107 26.1033 8.31377 26.0279 8.31377C25.9532 8.31377 25.8325 8.35758 25.76 8.41097C25.686 8.46618 25.5114 8.49858 25.3561 8.48607C25.1502 8.46938 25.0755 8.42238 25.0506 8.29277C25.0164 8.11339 24.8771 8.06527 24.7879 8.20169C24.7515 8.25717 24.7329 8.25286 24.727 8.18737C24.7213 8.12396 24.6634 8.14176 24.549 8.24188C24.4163 8.35827 24.3149 8.38288 24.0837 8.35438C23.9213 8.33435 23.7601 8.34576 23.7259 8.37996C23.6263 8.47856 23.2588 8.45158 23.2588 8.34576C23.2588 8.28457 23.3591 8.24967 23.5364 8.24967C23.6895 8.24967 23.7794 8.22797 23.7363 8.20169C23.6211 8.13119 23.0106 8.14328 22.9214 8.21768C22.879 8.25286 22.8437 8.36258 22.8426 8.46145L22.8414 8.64126L22.5283 8.52765C22.1336 8.38455 22.1359 8.34617 22.5435 8.27456C22.8274 8.22436 22.8501 8.20586 22.711 8.13508C22.5795 8.06778 22.5215 8.07097 22.3897 8.15177C22.2901 8.21337 22.2042 8.22616 22.1637 8.18598C22.1202 8.14287 22.0269 8.14468 21.8843 8.19168C21.7052 8.25036 21.6809 8.30237 21.7348 8.50818C21.8089 8.79255 21.6572 8.89476 21.3974 8.73568C21.2373 8.63695 21.2373 8.61637 21.4026 8.43976C21.5 8.33519 21.5383 8.24967 21.4878 8.24967C21.4368 8.24967 21.3662 8.30598 21.3306 8.37468C21.2953 8.44338 21.1794 8.51638 21.0734 8.53696C20.8821 8.57437 20.0467 8.35076 19.8932 8.22116C19.8409 8.17735 19.7748 8.19349 19.7041 8.26719C19.6443 8.32949 19.5418 8.36008 19.4763 8.33547C19.3117 8.27317 18.8826 8.26677 18.9442 8.32796C18.972 8.35535 18.9215 8.37788 18.8316 8.37788C18.7424 8.37788 18.6693 8.42057 18.6693 8.47327C18.6693 8.57965 18.2508 8.58035 18.1233 8.47397C18.081 8.43865 18.0457 8.47466 18.045 8.55407C18.0439 8.66365 17.983 8.69827 17.7889 8.69827C17.6492 8.69827 17.5054 8.72706 17.4701 8.76196C17.3609 8.87057 17.2092 8.83316 17.2092 8.69827C17.2092 8.62777 17.2746 8.57006 17.3546 8.57006C17.521 8.57006 17.6596 8.39818 17.5321 8.34965C17.4289 8.31057 16.8979 8.45436 16.8967 8.52208C16.8967 8.54836 16.8306 8.57006 16.7511 8.57006C16.6712 8.57006 16.579 8.61275 16.546 8.66517C16.5125 8.71927 16.4178 8.74374 16.3252 8.72177C16.2364 8.70077 16.0938 8.71927 16.0086 8.76266C15.9008 8.81786 15.8533 8.81995 15.8533 8.77016C15.8533 8.73026 15.8961 8.69827 15.9477 8.69827C16 8.69827 16.0179 8.64056 15.9878 8.57006C15.9235 8.41876 15.7668 8.40235 15.6823 8.53807C15.6069 8.65878 15.436 8.66364 15.436 8.54544C15.436 8.49677 15.342 8.44157 15.2272 8.42335C15.1124 8.40486 15.0451 8.41598 15.077 8.44796C15.109 8.47967 15.0829 8.50595 15.0191 8.50595C14.9548 8.50595 14.9269 8.53057 14.957 8.56088C14.9878 8.59106 14.8997 8.60246 14.7616 8.58605C14.5438 8.56046 14.5037 8.58508 14.4591 8.77155C14.4301 8.88976 14.4115 9.13047 14.4179 9.30666C14.4475 10.1976 14.1391 10.6836 13.5443 10.6836C12.8958 10.6836 12.6865 10.4981 12.5728 9.82173C12.4743 9.23434 12.4209 9.14646 12.1752 9.16954C11.9252 9.19304 11.9323 9.15786 11.8453 10.8438C11.8122 11.4778 11.7409 12.2272 11.6859 12.5092C11.3363 14.3058 11.0582 15.4788 10.9468 15.6287C10.8182 15.8017 10.2924 16 9.96245 16C9.86621 16 9.65766 15.9199 9.49825 15.8223H9.4987Z" fill="#EE6818"/>
<path d="M9.4987 15.8223C9.05126 15.5475 8.96249 14.9765 8.99261 12.5739C9.01593 10.6754 9.00438 10.5234 8.83727 10.5034C8.59385 10.4746 8.60902 10.3813 8.8658 10.3315C9.10334 10.2849 9.16244 9.95133 8.94392 9.88862C8.83908 9.85844 8.83908 9.84384 8.94392 9.81394C9.01525 9.79322 9.07435 9.71994 9.07435 9.65125C9.07435 9.54584 9.04129 9.53736 8.86399 9.59534C8.74466 9.63456 8.58751 9.64165 8.49988 9.61133C8.36378 9.56475 8.36424 9.54153 8.50395 9.41916C8.59566 9.33864 8.72722 9.29525 8.81644 9.31625C8.94053 9.34545 8.96951 9.28343 8.96951 8.99335C8.96951 8.62707 8.88845 8.55866 8.65702 8.73026C8.56713 8.79645 8.56305 8.82634 8.64434 8.82634C8.70865 8.82634 8.76141 8.87196 8.76141 8.92786C8.76141 9.00796 8.66812 9.02506 8.31782 9.00796C7.99333 8.99224 7.88192 9.00907 7.90298 9.07095C7.92132 9.12504 7.84728 9.14785 7.6942 9.13464C7.53479 9.12115 7.46754 9.14396 7.48905 9.20403C7.5058 9.25326 7.49539 9.33266 7.46572 9.38036C7.37469 9.52623 6.57083 9.23323 6.57083 9.05426C6.57083 8.94246 6.47913 8.89365 6.15577 8.83427C5.71693 8.75348 5.42414 8.54517 5.65941 8.48148C5.73029 8.46187 5.61186 8.46298 5.39629 8.48356C5.04735 8.51666 5.01202 8.50776 5.07746 8.40347C5.14177 8.29959 5.13203 8.29667 4.98824 8.37927C4.84106 8.46368 4.84151 8.48565 4.99459 8.61108C5.11233 8.70814 5.20087 8.73067 5.2885 8.68645C5.42754 8.61664 5.66711 8.67616 5.58288 8.75946C5.55389 8.78824 5.63564 8.83107 5.7638 8.85416L5.99749 8.89685L5.75565 8.95706C5.43048 9.03827 5.54823 9.13214 5.93137 9.09723C6.17434 9.07554 6.26695 9.10154 6.36953 9.22016C6.44154 9.30304 6.58646 9.40845 6.69198 9.45434C6.92385 9.55543 6.94174 9.65903 6.7273 9.65903C6.64148 9.65903 6.57129 9.61022 6.57129 9.55084C6.57129 9.45545 6.5534 9.45726 6.42591 9.56405C6.30477 9.66612 6.25427 9.67252 6.11795 9.60313C6.02466 9.55543 5.85302 9.53763 5.7158 9.56086C5.48845 9.59924 5.48619 9.59646 5.6687 9.50634C5.92616 9.37966 5.80162 9.24895 5.51404 9.34323C5.34172 9.39983 5.29484 9.39093 5.25363 9.29456C5.22646 9.23003 5.06071 9.12644 4.88612 9.06497C4.67463 8.99043 4.5888 8.91965 4.62934 8.85416C4.66353 8.80006 4.61371 8.68256 4.51861 8.59356C4.37142 8.45575 4.33247 8.44685 4.25367 8.53307C4.2034 8.58855 4.04331 8.63416 3.89952 8.63416C3.67467 8.63416 3.64161 8.60886 3.66946 8.45798C3.69618 8.31878 3.76388 8.27776 3.99576 8.26107C4.15698 8.25008 4.31459 8.19946 4.34583 8.14899C4.41082 8.04497 4.85714 8.02508 4.9545 8.12187C4.99006 8.15677 5.06297 8.18598 5.11686 8.18598C5.17076 8.18598 5.21536 8.15677 5.21536 8.12187C5.21536 8.08669 5.17143 8.06486 5.11799 8.07376C5.06478 8.08238 4.95224 8.03329 4.86868 7.96418C4.73893 7.85696 4.69138 7.85098 4.54872 7.92399C4.45611 7.97099 4.38071 7.98156 4.38071 7.94818C4.38071 7.91439 4.31006 7.88686 4.22356 7.88686C4.13728 7.88686 4.07864 7.92858 4.09313 7.97989C4.11758 8.06416 4.00323 8.12048 3.5465 8.25036C3.46023 8.27497 3.37486 8.37106 3.35697 8.46465C3.31984 8.65405 2.9204 8.84067 2.9204 8.66837C2.9204 8.54266 2.67176 8.54127 2.50307 8.66615C2.32984 8.79464 2.12446 8.78755 2.03819 8.65016C1.97161 8.54378 1.96278 8.54378 1.86428 8.65155C1.80699 8.71385 1.71641 8.74805 1.66207 8.72747C1.60795 8.70717 1.68109 8.59564 1.82488 8.47995C1.96867 8.36425 2.08619 8.22408 2.08619 8.16818C2.08619 8.11269 2.15118 8.02689 2.23111 7.97767C2.31127 7.92858 2.39347 7.83277 2.41498 7.76477C2.44283 7.67438 2.5547 7.636 2.83186 7.62167C3.13098 7.60638 3.20095 7.57898 3.1645 7.49249C3.13031 7.41378 3.00101 7.3811 2.70596 7.37609C2.36969 7.37067 2.29497 7.39139 2.29497 7.48929C2.29497 7.55548 2.22432 7.6093 2.1385 7.6093C1.98543 7.6093 1.94602 7.54867 1.96912 7.35329C1.97569 7.30031 1.93606 7.21409 1.88104 7.16111C1.79476 7.07809 1.76397 7.08032 1.64622 7.17891C1.47231 7.3252 0.834205 7.2654 0.834205 7.10298C0.834205 6.9382 1.39532 6.83251 1.66139 6.9471C1.94784 7.0703 2.97021 7.0507 2.80106 6.9254C2.73788 6.87882 2.57507 6.84072 2.43808 6.84072C2.2875 6.84072 2.19058 6.80289 2.19058 6.74449C2.19058 6.69192 2.14371 6.6484 2.08619 6.6484C2.0289 6.6484 1.98203 6.60529 1.98203 6.55231C1.98203 6.4996 1.90662 6.45622 1.81446 6.45622C1.71823 6.45622 1.66886 6.49251 1.69966 6.5409C1.72864 6.58749 1.66207 6.66022 1.55179 6.70249C1.3797 6.76882 1.33735 6.75881 1.25561 6.63421C1.18202 6.52171 1.15937 6.5142 1.15416 6.60181C1.14896 6.69011 1.08986 6.70611 0.886965 6.67482C0.664375 6.64061 0.625427 6.65702 0.622483 6.78551C0.619766 6.91581 0.601651 6.9229 0.492054 6.83821C0.422537 6.7844 0.282823 6.75019 0.182511 6.76312C0.0534398 6.77939 0 6.7456 0 6.64631C0 6.5441 0.045288 6.5174 0.168018 6.54633C0.287579 6.57442 0.318827 6.55843 0.277162 6.49112C0.244555 6.43911 0.26267 6.37932 0.317695 6.3586C0.467825 6.30172 0.437708 6.20021 0.270822 6.20021C0.17685 6.20021 0.14311 6.15543 0.17685 6.07631C0.205834 6.00831 0.283503 5.96422 0.349623 5.97841C0.415744 5.99273 0.606406 6.01874 0.773972 6.03612C0.941311 6.05322 1.11182 6.1005 1.1519 6.14083C1.20511 6.19381 1.24519 6.19423 1.29727 6.14292C1.41616 6.02472 1.66886 6.06351 1.66886 6.20021C1.66886 6.36082 1.77959 6.3618 2.10657 6.2041C2.26304 6.12873 2.36449 6.10982 2.36516 6.15571C2.3663 6.19771 2.39981 6.29672 2.4417 6.37612C2.50375 6.4946 2.48563 6.51212 2.33663 6.47721C2.2139 6.44843 2.18016 6.45872 2.23179 6.50962C2.273 6.55092 2.40117 6.58429 2.51529 6.58429C2.63055 6.58429 2.69486 6.55551 2.65954 6.52032C2.62421 6.485 2.66837 6.45622 2.75759 6.45622C2.84748 6.45622 2.9204 6.41311 2.9204 6.36013C2.9204 6.30742 2.85043 6.26432 2.76393 6.26432C2.57553 6.26432 2.56217 6.1895 2.73268 6.08493C2.80174 6.04252 2.83707 6.00553 2.8108 6.0026C2.78544 5.99982 2.62716 5.98383 2.45914 5.96701C1.90481 5.91152 1.76397 5.83434 1.89621 5.65663C1.98543 5.53564 1.9809 5.47585 1.87356 5.39645C1.78367 5.33053 1.77212 5.27852 1.83937 5.25043C1.89734 5.22693 1.97388 5.15865 2.00988 5.09914C2.05675 5.02112 2.01101 4.98553 1.84571 4.97134C1.53843 4.94436 1.51828 4.60256 1.80178 4.22376C1.96278 4.00877 1.98135 3.93368 1.88104 3.89558C1.78367 3.85859 1.7814 3.83467 1.87243 3.80018C1.95871 3.76736 1.94263 3.73065 1.8156 3.67378C1.71755 3.62956 1.67067 3.56017 1.71121 3.51956C1.81673 3.41499 1.98203 3.42848 1.98203 3.54209C1.98203 3.59507 2.05789 3.63818 2.15073 3.63818C2.27414 3.63818 2.30538 3.68087 2.26893 3.79977C2.24108 3.88876 2.25896 3.97707 2.30901 3.99556C2.5119 4.07288 2.39007 4.21458 2.11993 4.21458C1.84571 4.21458 1.84458 4.21667 2.04158 4.33306C2.23111 4.44445 2.24696 4.44486 2.31354 4.33946C2.41838 4.17356 2.55402 4.14435 2.76913 4.24086C2.93036 4.31317 2.98357 4.31276 3.10426 4.23878C3.18375 4.19024 3.35697 4.15047 3.49034 4.15047C3.62372 4.15047 3.75981 4.10737 3.79287 4.05466C3.82593 4.00168 3.94821 3.95857 4.06482 3.95857C4.20046 3.95857 4.27632 3.91616 4.27632 3.84107C4.27632 3.70507 4.37437 3.62789 4.4903 3.67197C4.53491 3.68907 4.51816 3.78878 4.45317 3.89377C4.36327 4.04048 4.36621 4.10347 4.46766 4.16535C4.5725 4.23015 4.66421 4.19817 4.93322 4.00168C5.16623 3.83147 5.31975 3.76987 5.44203 3.79907C5.54936 3.82438 5.69949 3.78906 5.83287 3.70729C5.9522 3.63387 6.09372 3.57407 6.14762 3.57407C6.32333 3.57407 6.39285 3.71508 6.24544 3.77237C6.14988 3.80936 6.24725 3.82855 6.53483 3.82939C6.90642 3.83008 6.96144 3.81325 6.91797 3.71118C6.87562 3.61259 6.94401 3.58589 7.31854 3.55488C7.56717 3.53416 7.81354 3.54348 7.86584 3.57546C7.92313 3.61037 8.00669 3.59869 8.07439 3.54626C8.20369 3.44628 8.67491 3.34518 8.63732 3.42528C8.62396 3.45406 8.64548 3.57268 8.68556 3.68866C8.74805 3.87235 8.79493 3.89697 9.04605 3.88098C9.38163 3.85928 9.53516 3.76139 9.35559 3.68379C9.28132 3.65167 9.32593 3.64638 9.46519 3.67016C9.68597 3.70826 9.75662 3.65556 9.70974 3.48897C9.70114 3.45977 9.77813 3.44558 9.87957 3.45768C10.0007 3.47186 10.0847 3.55739 10.1214 3.70298C10.1742 3.91018 10.1839 3.91546 10.2623 3.77599C10.3143 3.68337 10.3021 3.59827 10.2321 3.55488C10.0553 3.44628 10.0947 3.38189 10.3381 3.38189C10.5075 3.38189 10.5462 3.41179 10.5039 3.50997C10.4738 3.58047 10.4923 3.62219 10.5439 3.60258C10.596 3.58269 10.6384 3.59688 10.6384 3.63428C10.6384 3.67169 10.709 3.70229 10.7948 3.70229C10.8813 3.70229 10.9515 3.67809 10.9515 3.64847C10.9515 3.57226 11.5629 3.60397 11.6986 3.68699C11.7606 3.72509 11.8761 3.74108 11.9549 3.72217C12.1474 3.67698 12.1385 3.45128 11.9427 3.40498C11.7631 3.36298 11.7305 3.09028 11.8969 3.02687C12.0742 2.95971 12.1259 3.03897 11.9995 3.18429C11.9218 3.27287 11.9189 3.31779 11.9909 3.31779C12.0505 3.31779 12.0991 3.28608 12.0991 3.24687C12.0991 3.20779 12.1693 3.19249 12.2552 3.2128C12.3618 3.23797 12.4116 3.2096 12.4116 3.1238C12.4116 3.0405 12.4825 2.99767 12.6204 2.99767C12.8511 2.99767 12.9032 3.15439 12.6985 3.23449C12.5629 3.28789 12.3072 3.53847 12.3072 3.61788C12.3072 3.64318 12.3641 3.62928 12.4325 3.58687C12.5015 3.54459 12.6564 3.50997 12.7769 3.50997C12.8973 3.50997 13.0581 3.47409 13.134 3.42987C13.2447 3.36576 13.2818 3.36576 13.3201 3.42987C13.4007 3.56489 13.7675 3.52526 13.7675 3.38189C13.7675 3.31167 13.8144 3.25368 13.8719 3.25368C13.9292 3.25368 13.9763 3.28246 13.9763 3.31779C13.9763 3.35297 14.0748 3.38189 14.196 3.38189C14.3375 3.38189 14.3966 3.3513 14.3617 3.29568C14.2922 3.18429 14.9351 3.19527 15.1588 3.30916C15.2591 3.36048 15.3361 3.36548 15.3784 3.32349C15.419 3.2833 15.5345 3.27968 15.6835 3.31459C15.9722 3.38189 16.1135 3.33489 16.2138 3.13798C16.3274 2.9134 17.0011 2.79659 17.0011 3.00129C17.0011 3.03438 16.9071 3.0615 16.7923 3.0615C16.6775 3.0615 16.5838 3.09348 16.5838 3.1327C16.5838 3.1715 16.5136 3.18707 16.4271 3.16649C16.1907 3.111 16.2398 3.23908 16.4862 3.31987C16.6318 3.36799 16.7425 3.36979 16.8283 3.32599C16.9083 3.28539 17.0127 3.2833 17.1089 3.32057C17.3077 3.39788 17.4467 3.39816 17.3698 3.32168C17.3337 3.28566 17.4671 3.27718 17.7024 3.30026C18.0606 3.33559 18.0833 3.32947 17.9528 3.23226C17.874 3.17358 17.8555 3.12588 17.9112 3.12588C17.9662 3.12588 18.0631 3.19069 18.1252 3.26967C18.1877 3.34907 18.2415 3.37869 18.2456 3.33586C18.249 3.29289 18.3228 3.2744 18.4091 3.29456C18.5993 3.33948 18.6138 3.24687 18.4352 3.12978C18.328 3.05969 18.3493 3.05079 18.5563 3.0818C18.6942 3.10238 18.888 3.09279 18.9865 3.06039C19.1163 3.0177 19.2155 3.03577 19.35 3.127C19.5243 3.24589 19.5429 3.24659 19.6833 3.14118C19.7655 3.07999 19.7992 3.06929 19.758 3.1181C19.7082 3.17678 19.732 3.19597 19.8287 3.17539C19.9081 3.15828 19.9598 3.0971 19.943 3.03897C19.8989 2.88809 20.104 2.90867 20.4566 3.09098C20.6339 3.18248 20.83 3.23226 20.9255 3.2096C21.0159 3.1886 21.1262 3.20709 21.1701 3.25118C21.2344 3.31487 21.2994 3.31487 21.4937 3.25118C21.6721 3.19249 21.7468 3.19069 21.7765 3.24478C21.8327 3.34838 21.9742 3.33517 22.0466 3.21919C22.086 3.15578 22.0251 3.09918 21.875 3.05969C21.6472 3.00017 21.6479 2.9992 21.9029 3.0145C22.1132 3.02687 22.1585 3.06108 22.1377 3.18999C22.1173 3.31278 22.1343 3.3278 22.2113 3.25437C22.2878 3.18109 22.3399 3.1765 22.4339 3.23407C22.5283 3.29178 22.6193 3.28427 22.8258 3.20139C22.9735 3.14229 23.06 3.12769 23.0187 3.16927C22.9764 3.21099 22.9957 3.26508 23.06 3.2897C23.1249 3.31417 23.2135 3.2986 23.2576 3.25507C23.3138 3.19917 23.358 3.19667 23.4078 3.24659C23.4535 3.29178 23.5735 3.25869 23.7445 3.15328C23.9979 2.99809 24.0205 2.99531 24.2082 3.09988C24.3172 3.16037 24.4059 3.18707 24.4059 3.15968C24.4059 3.13228 24.4854 3.14938 24.5828 3.19778C24.6795 3.24617 24.727 3.25298 24.6883 3.21307C24.6471 3.17108 24.705 3.1263 24.8244 3.10697C24.9399 3.0882 25.0053 3.1003 24.9718 3.13367C24.9369 3.16788 25.0261 3.18109 25.1781 3.1644C25.5544 3.12227 25.6575 3.07207 25.5902 2.9636C25.5578 2.91159 25.5834 2.8696 25.6466 2.8696C25.7102 2.8696 25.7618 2.90019 25.7618 2.93718C25.7618 2.97459 25.8094 2.9871 25.8674 2.96527C26.0361 2.9013 25.6749 2.72359 25.4494 2.75988C25.3386 2.77768 25.1989 2.75571 25.138 2.71079C25.0001 2.60858 25.1097 2.42099 25.3074 2.42099C25.3891 2.42099 25.4824 2.3783 25.5148 2.32601C25.5596 2.25509 25.6233 2.24731 25.7689 2.295C25.8812 2.33199 25.938 2.3993 25.9034 2.45409C25.8603 2.5232 25.9183 2.5492 26.1131 2.5492C26.3549 2.5492 26.3728 2.5652 26.2876 2.703C26.2152 2.81968 26.2349 2.88031 26.3682 2.95428C26.5578 3.059 27.0876 3.1626 27.3003 3.13617C27.3723 3.12727 27.4307 3.15008 27.4307 3.18707C27.4307 3.22378 27.4835 3.25368 27.5473 3.25368C27.6128 3.25368 27.6395 3.19708 27.6087 3.12477C27.5374 2.95609 27.8342 2.85819 28.2586 2.9102C28.6041 2.95289 28.8 3.0697 28.5964 3.11128C28.5292 3.12519 28.4741 3.18067 28.4741 3.23477C28.4741 3.31028 28.5072 3.31667 28.6139 3.2623C28.6911 3.22309 28.7826 3.20849 28.8167 3.2299C28.8521 3.25118 28.9884 3.19138 29.1206 3.0971C29.3837 2.90909 29.6725 2.9223 29.7784 3.12727C29.8219 3.2121 29.9043 3.23477 30.0694 3.20849C30.1958 3.18818 30.4752 3.1644 30.6903 3.1555C31.3483 3.12839 31.3261 3.13367 31.1919 3.0341C31.0931 2.9611 31.1065 2.93009 31.2573 2.88281C31.361 2.84957 31.5007 2.83469 31.5673 2.84929C31.7442 2.88879 31.8479 2.74959 31.7147 2.651C31.63 2.588 31.6398 2.54601 31.7534 2.4883C31.9808 2.37232 32.1262 2.46452 32.0555 2.67978C32.008 2.82579 32.0317 2.8696 32.1574 2.8696C32.248 2.8696 32.3829 2.94678 32.4579 3.04078C32.6289 3.2566 32.757 3.28219 33.0154 3.1537C33.1273 3.09807 33.1639 3.06929 33.096 3.08987C33.0288 3.11059 32.9436 3.09849 32.9076 3.06289C32.8716 3.02687 32.8949 2.99739 32.9599 2.99739C33.0299 2.99739 33.0503 2.9458 33.0109 2.8696C32.9325 2.71761 33.1157 2.6948 33.2097 2.84471C33.2543 2.9166 33.3134 2.92898 33.4033 2.88517C33.4739 2.85069 33.6583 2.80869 33.812 2.79159C34.0414 2.76628 34.103 2.7888 34.1551 2.91688C34.2078 3.04509 34.2461 3.059 34.3713 2.99559C34.4549 2.95289 34.5233 2.87808 34.5233 2.82969C34.5233 2.71969 34.7511 2.71469 34.9238 2.82079C35.0269 2.8842 35.0728 2.881 35.1494 2.80549C35.2089 2.74611 35.3643 2.71788 35.5619 2.73068C35.7949 2.7457 35.8792 2.72428 35.8792 2.6503C35.8792 2.58508 35.9718 2.5492 36.14 2.5492C36.3348 2.5492 36.4009 2.583 36.4009 2.6827C36.4009 2.7621 36.4537 2.80438 36.5306 2.78769C36.6027 2.7717 36.7904 2.79909 36.948 2.8479C37.1348 2.90589 37.2351 2.91271 37.2351 2.86737C37.2351 2.82899 37.2813 2.8155 37.337 2.8365C37.3932 2.85778 37.5458 2.839 37.6762 2.79478C37.8066 2.75028 37.9497 2.7208 37.9955 2.72859C38.0408 2.7368 38.1671 2.71399 38.276 2.67811C38.4101 2.63389 38.4952 2.63389 38.5398 2.67839C38.5759 2.71399 38.6494 2.72678 38.7033 2.70648C38.7572 2.6859 38.8292 2.71441 38.8634 2.7692C38.9486 2.90589 39.1467 2.89518 39.3734 2.74138C39.5985 2.5887 39.7382 2.57702 39.7382 2.71079C39.7382 2.79798 39.7635 2.79798 39.9809 2.71079C40.115 2.6567 40.2592 2.63431 40.3027 2.66101C40.3455 2.68729 40.4361 2.66309 40.5026 2.60691C40.5699 2.5506 40.6713 2.4965 40.7293 2.48649C40.7861 2.47689 40.8928 2.45478 40.9652 2.43782C41.0377 2.42071 41.1856 2.42071 41.2934 2.4381C41.4279 2.45979 41.5248 2.4221 41.6024 2.31711C41.7222 2.15511 41.8823 2.12841 42.1368 2.22812C42.2573 2.27512 42.2673 2.31531 42.1796 2.40319C42.0232 2.55991 42.1056 2.67019 42.3495 2.63111C42.4609 2.61331 42.5263 2.5734 42.4958 2.54281C42.4643 2.5118 42.5118 2.50359 42.601 2.52459C42.6898 2.54559 42.763 2.53099 42.763 2.49191C42.763 2.45311 42.8098 2.42099 42.8671 2.42099C42.9246 2.42099 42.9658 2.44269 42.9588 2.46911C42.9276 2.59231 42.9837 2.62249 43.1171 2.55449C43.197 2.51388 43.2416 2.42989 43.2149 2.36829C43.1884 2.30599 43.2632 2.20281 43.3825 2.13662C43.502 2.07001 43.5972 2.0497 43.5972 2.091C43.5972 2.13161 43.5385 2.1654 43.4672 2.16582C43.3784 2.16651 43.3854 2.1857 43.4891 2.22631C43.5854 2.26372 43.6904 2.26121 43.7715 2.21991C43.8428 2.18362 43.9502 2.17249 44.0097 2.19502C44.0695 2.2181 44.1189 2.20879 44.1189 2.175C44.1189 2.1412 44.2638 2.11979 44.4404 2.1273C44.6173 2.13481 44.8804 2.1031 45.026 2.0568C45.386 1.94221 45.4746 1.95069 45.4746 2.10102C45.4746 2.18139 45.5443 2.22881 45.6625 2.22881C45.7655 2.22881 45.8985 2.25871 45.9576 2.295C46.0318 2.3402 46.0509 2.30029 46.0189 2.16679C45.9895 2.04442 46.0178 1.9728 46.0955 1.9728C46.1713 1.9728 46.1935 1.9233 46.1523 1.84473C46.1059 1.7542 46.1337 1.71652 46.2485 1.71652C46.3545 1.71652 46.4021 1.7663 46.386 1.86072C46.3645 1.98713 46.4057 2.0034 46.7209 1.9938C46.9464 1.98713 47.1262 2.0212 47.2021 2.0853C47.3597 2.21741 47.8015 2.24439 47.7215 2.11701C47.6907 2.06722 47.6647 1.99992 47.6647 1.96752C47.6647 1.93512 47.5707 1.9087 47.4566 1.9087C47.3191 1.9087 47.2478 1.86601 47.2478 1.78452C47.2478 1.60193 47.4647 1.5502 47.6405 1.69093C47.7476 1.77603 47.8078 1.78841 47.842 1.73251C47.9117 1.61904 48.082 1.63322 48.082 1.75253C48.082 1.81942 48.1597 1.84612 48.3168 1.83263C48.5064 1.8165 48.5517 1.84362 48.5517 1.9728C48.5517 2.06862 48.4889 2.1362 48.3952 2.14162C48.0567 2.16012 48.0426 2.18181 48.3429 2.22311C48.5186 2.24731 48.6873 2.23799 48.7278 2.20211C48.772 2.16262 48.8798 2.18251 49.0079 2.2537C49.1225 2.31739 49.267 2.35049 49.329 2.32671C49.4844 2.26789 49.3458 2.1483 49.1701 2.1896C48.9823 2.23382 48.8617 2.1088 49.0061 2.02022C49.0879 1.97002 49.1957 2.00089 49.3922 2.13091L49.6646 2.31141L49.7858 2.16332C49.9486 1.9646 50.1684 1.9265 50.1684 2.09671C50.1684 2.20531 50.2183 2.22589 50.4286 2.20239C50.5724 2.1864 50.6895 2.20211 50.6895 2.23702C50.6895 2.27192 50.74 2.28152 50.8013 2.25829C50.8623 2.23521 50.8883 2.17792 50.8593 2.13091C50.8009 2.03733 51.0726 1.86642 51.1781 1.93122C51.2141 1.9532 51.3063 1.93971 51.3828 1.90091C51.4587 1.86211 51.5909 1.84682 51.6761 1.8667C51.7608 1.88673 51.8552 1.8781 51.886 1.84751C51.9168 1.81692 52.0239 1.80162 52.1242 1.8133C52.2245 1.8254 52.3479 1.83722 52.3984 1.83972C52.4489 1.84223 52.465 1.96001 52.4344 2.10102C52.3799 2.35049 52.4906 2.50721 52.5995 2.3338C52.6708 2.2188 53.5265 2.26789 53.6407 2.3936C53.7097 2.46869 53.7625 2.46271 53.9473 2.35661C54.1966 2.21421 54.392 2.18612 54.279 2.30891C54.2199 2.37302 54.233 2.37302 54.3456 2.30891C54.5131 2.21352 54.6923 2.20211 54.6005 2.29292C54.5652 2.3281 54.6094 2.35689 54.6993 2.35689C54.7885 2.35689 54.8614 2.32921 54.8614 2.295C54.8614 2.2608 54.9323 2.24939 55.0181 2.2697C55.1171 2.2932 55.1746 2.269 55.1746 2.20392C55.1746 2.14732 55.2452 2.10102 55.331 2.10102C55.4169 2.10102 55.4875 2.14412 55.4875 2.19711C55.4875 2.24981 55.5346 2.29292 55.5919 2.29292C55.6487 2.29292 55.6963 2.24981 55.6963 2.19711C55.6963 2.10769 55.7721 2.0942 56.3738 2.07529C56.5049 2.07112 56.5774 2.02732 56.5681 1.95681C56.5599 1.89521 56.59 1.84473 56.6353 1.84473C56.6799 1.84473 56.7501 1.89521 56.7914 1.95681C56.8597 2.0593 56.8724 2.05791 56.9444 1.94082C57.0024 1.8464 56.9716 1.80051 56.8289 1.76672C56.7223 1.74141 56.6347 1.69093 56.6347 1.65464C56.6347 1.57162 56.8104 1.568 56.8921 1.64921C56.9259 1.68273 57.0998 1.69872 57.2782 1.68481C57.5228 1.66562 57.5739 1.67772 57.484 1.73293C57.4186 1.77311 57.3647 1.82443 57.3647 1.84682C57.3647 1.91092 57.7164 1.89771 57.8602 1.8279C57.9322 1.79342 57.9906 1.78382 57.9906 1.80691C57.9906 1.83013 58.0816 1.81942 58.193 1.78271C58.313 1.74322 58.419 1.74002 58.4543 1.77492C58.4869 1.80732 58.4543 1.84821 58.3825 1.86601C58.3008 1.88631 58.3182 1.90063 58.4278 1.90383C58.5245 1.90661 58.6353 1.87783 58.6728 1.84042C58.7107 1.80273 58.8021 1.78591 58.8764 1.80343C58.95 1.82081 59.1076 1.77951 59.2265 1.71193C59.3447 1.64393 59.532 1.5883 59.6422 1.5883C59.7523 1.5883 59.9008 1.54534 59.9719 1.49221C60.0618 1.42602 60.0659 1.39612 59.9853 1.39612C59.9205 1.39612 59.8682 1.36553 59.8682 1.32771C59.8682 1.29002 59.9737 1.26833 60.1024 1.27973C60.2532 1.29294 60.332 1.34134 60.3222 1.41462C60.3111 1.49833 60.3413 1.5114 60.4364 1.46301C60.507 1.42713 60.5958 1.41601 60.6334 1.43923C60.6705 1.46204 60.7882 1.43242 60.8942 1.37374C61.0004 1.31464 61.2004 1.27403 61.3383 1.28321C61.4995 1.29392 61.5939 1.26583 61.6032 1.20422C61.6333 0.996051 61.6582 0.986038 61.7592 1.14012C61.8611 1.29572 61.8681 1.29684 62.0131 1.17572C62.0955 1.10744 62.1627 1.01023 62.1627 0.960034C62.1627 0.882022 62.1881 0.881327 62.336 0.956141C62.4659 1.02164 62.5203 1.02442 62.5515 0.967126C62.5812 0.913032 62.6688 0.907748 62.8473 0.949327C62.987 0.982145 63.1011 0.987429 63.1011 0.961842C63.1011 0.935838 63.2037 0.875347 63.3296 0.827233C63.5325 0.74922 63.5778 0.754644 63.7354 0.874235C63.907 1.00453 63.9145 1.00495 63.9654 0.88522C63.9944 0.81722 63.9539 0.709728 63.8755 0.646455C63.7974 0.583462 63.7324 0.463453 63.7302 0.380157C63.7279 0.259453 63.7702 0.235257 63.9353 0.261956C64.0501 0.280451 64.1701 0.269048 64.2025 0.237343C64.2727 0.167535 64.7654 0.159052 64.7817 0.22747C64.8784 0.626431 64.8662 0.703331 64.7122 0.667036C64.6194 0.645343 64.5777 0.656051 64.6142 0.692345C64.6495 0.727249 64.7596 0.755756 64.8599 0.755756C64.9597 0.755756 65.0976 0.790243 65.1667 0.832656C65.2634 0.892452 65.2912 0.886055 65.2912 0.804427C65.2912 0.746439 65.2448 0.681638 65.1875 0.659527C65.0326 0.600844 65.0612 0.372648 65.2281 0.333155C65.3075 0.31466 65.351 0.247355 65.3236 0.183944C65.2749 0.0693591 65.5387 -0.0452258 65.7063 0.0180462C65.832 0.0661608 65.7557 0.442038 65.6082 0.49794C65.5068 0.536738 65.5093 0.579429 65.6198 0.699437C65.7371 0.825842 65.8471 0.852542 66.2645 0.856018C66.5776 0.858938 66.8025 0.894537 66.8587 0.950439C66.9085 0.999944 66.9809 1.02053 67.0199 0.996746C67.0586 0.972828 67.177 1.01705 67.283 1.09464C67.396 1.17794 67.4766 1.20172 67.4784 1.15221C67.4802 1.10632 67.5289 1.08644 67.5862 1.10813C67.6435 1.12983 67.6906 1.12023 67.6906 1.08672C67.6906 0.986317 68.0042 0.943625 68.2198 1.01455C68.3577 1.06002 68.4204 1.06002 68.4204 1.01413C68.4204 0.977834 68.4673 0.947936 68.5248 0.947936C68.5821 0.947936 68.629 0.991045 68.629 1.04403C68.629 1.09673 68.679 1.14012 68.7392 1.14012C68.924 1.14012 68.7304 1.27153 68.4367 1.34634C68.2152 1.40252 68.196 1.42171 68.3421 1.44313C68.4424 1.45773 68.5248 1.49653 68.5248 1.52893C68.5248 1.56161 68.6541 1.58803 68.8117 1.58733C68.9693 1.58691 69.0492 1.56522 68.9897 1.53922C68.9269 1.51224 68.9109 1.41114 68.9514 1.30031C68.9901 1.19463 69.0273 1.14415 69.0343 1.18823C69.0406 1.23203 69.1178 1.26833 69.2052 1.26833C69.3508 1.26833 69.5983 1.52253 69.6162 1.69024C69.6203 1.7282 69.7061 1.81052 69.8076 1.87282C69.909 1.93512 69.9681 2.03371 69.9385 2.09142C69.9095 2.14941 69.9287 2.23952 69.9819 2.29139C70.048 2.35619 70.0227 2.42461 69.9016 2.50902C69.7693 2.6008 69.7618 2.62471 69.873 2.6026C69.9554 2.58661 70.0533 2.5321 70.0915 2.4812C70.1298 2.43059 70.2197 2.32031 70.291 2.23632C70.3965 2.11242 70.3954 2.07362 70.2824 2.03079C70.1692 1.98782 70.1681 1.96293 70.2772 1.8959C70.3861 1.82902 70.4296 1.83152 70.5125 1.90911C70.5682 1.96182 70.596 2.05082 70.5738 2.10672C70.5526 2.1629 70.625 2.24369 70.7351 2.28569C70.9176 2.35591 70.9257 2.35091 70.822 2.23201C70.7299 2.12633 70.7392 2.10102 70.8678 2.10102C71.0122 2.10102 71.0747 2.17611 71.0405 2.30891C71.0208 2.38511 71.113 2.36579 71.3397 2.24661C71.4549 2.18612 71.5496 2.0707 71.5496 1.99033C71.5496 1.83653 71.7443 1.79773 71.9338 1.91412C72.0557 1.9888 71.997 2.22881 71.8573 2.22881C71.8109 2.22881 71.7577 2.29361 71.7391 2.37302C71.7135 2.4844 71.6347 2.51861 71.3931 2.5232C71.2208 2.5264 71.0279 2.50429 70.964 2.47439C70.8829 2.43629 70.851 2.49261 70.8596 2.66031C70.8707 2.88809 70.8521 2.90269 70.5066 2.93468C70.1814 2.96499 70.1681 2.97347 70.3855 3.0106C70.5802 3.04398 70.6151 3.08097 70.5564 3.19319C70.5009 3.30138 70.5512 3.36687 70.7727 3.47548C70.9774 3.57546 71.0347 3.64318 70.9692 3.70757C70.738 3.93535 70.9814 4.18287 71.3668 4.11168C71.5733 4.07357 71.5935 4.13476 71.4511 4.36546C71.3773 4.48435 71.298 4.51606 71.1379 4.49006C70.8934 4.45084 70.873 4.48686 71.0446 4.65526C71.2086 4.81643 71.0852 4.98316 70.8016 4.98316C70.6209 4.98316 70.5972 5.00013 70.6939 5.06006C70.7912 5.11986 70.8469 5.11986 70.9443 5.06006C71.0134 5.01765 71.1096 4.98316 71.1576 4.98316C71.2735 4.98316 71.2133 5.19425 71.0799 5.25433C71.0227 5.28033 71.0695 5.30383 71.1843 5.30633C71.2991 5.30926 71.171 5.35654 70.9004 5.41202C70.6296 5.46764 70.4307 5.53592 70.459 5.56401C70.4869 5.59182 70.4649 5.63173 70.4104 5.65273C70.3553 5.67331 70.262 5.63924 70.2029 5.57694C70.1443 5.51465 70.0945 5.49393 70.0922 5.53064C70.0904 5.56763 70.1323 5.62534 70.1848 5.65871C70.2376 5.69222 70.3048 5.81724 70.3345 5.93641C70.3642 6.05573 70.4382 6.1838 70.4998 6.22162C70.6823 6.33343 70.6336 6.63533 70.4285 6.66842C70.2546 6.69609 70.2546 6.6979 70.4285 6.70499C70.6151 6.7125 70.692 6.84072 70.5095 6.84072C70.4538 6.84072 70.4359 6.88369 70.469 6.93681C70.5073 6.99841 70.4667 7.0329 70.3553 7.0329C70.2598 7.0329 70.2115 7.00258 70.2487 6.96601C70.3338 6.8809 70.1112 6.7125 69.9131 6.7125C69.8098 6.7125 69.7831 6.75269 69.8284 6.84072C69.8748 6.93069 69.847 6.96879 69.7344 6.96879C69.6418 6.96879 69.5972 7.0055 69.6289 7.0564C69.6597 7.10479 69.6226 7.18419 69.5478 7.23259C69.3925 7.33299 69.3241 7.58927 69.414 7.7332C69.4672 7.81789 69.4881 7.81816 69.5816 7.73556C69.666 7.66047 69.6801 7.6595 69.6486 7.73139C69.5936 7.85668 68.9229 7.86266 68.763 7.73918C68.5699 7.59038 68.6047 7.48108 68.8452 7.48108C68.9949 7.48108 69.051 7.4466 69.0273 7.369C69.0012 7.2864 68.8715 7.2515 68.5316 7.2369C68.1109 7.2184 68.083 7.22591 68.2157 7.32381C68.3416 7.4167 68.3335 7.44298 68.1555 7.52308C68.04 7.57509 67.9659 7.6716 67.985 7.74418C68.0031 7.81497 67.9623 7.91467 67.8939 7.96529C67.8255 8.01618 67.8047 8.05749 67.8489 8.05749C67.8923 8.05749 67.9809 8.01368 68.0447 7.95959C68.109 7.90577 68.2986 7.85529 68.4668 7.84778C68.7374 7.83499 68.7804 7.85849 68.8488 8.05707C68.9322 8.29778 68.8794 8.39498 68.741 8.25717C68.6824 8.19877 68.552 8.18598 68.3294 8.21587C68.0993 8.24688 68.0031 8.23618 68.0031 8.17958C68.0031 8.13077 67.9288 8.14746 67.8129 8.22227C67.6516 8.32657 67.6442 8.35897 67.766 8.43336C67.8448 8.48176 67.8946 8.56825 67.8767 8.62596C67.8274 8.78226 67.5386 8.75167 67.5004 8.58605C67.4825 8.50665 67.4204 8.44198 67.3629 8.44198C67.3056 8.44198 67.2889 8.38428 67.3253 8.31377C67.3792 8.20878 67.3439 8.18556 67.1299 8.18556C66.9861 8.18556 66.8389 8.15677 66.8036 8.12159C66.7207 8.03927 66.3347 8.03788 66.3347 8.12006C66.3347 8.15427 66.17 8.27428 65.9694 8.38678C65.6171 8.58355 65.493 8.76196 65.7086 8.76196C65.7661 8.76196 65.813 8.79394 65.813 8.83316C65.813 8.87766 65.7115 8.88836 65.5387 8.86194C65.3168 8.82746 65.2767 8.83886 65.3288 8.92146C65.3666 8.98153 65.3277 9.03855 65.2339 9.06066C64.9323 9.13144 64.7706 9.46185 64.6629 10.2279C64.5435 11.0695 64.5793 11.182 65.1196 11.6693C65.4882 12.0019 65.4685 12.1272 65.0234 12.3005L64.6506 12.4451L64.7104 12.831C64.7892 13.334 64.6212 13.5019 64.0379 13.5019C63.7533 13.5019 63.5667 13.4597 63.4183 13.3618C63.1643 13.1948 63.162 13.177 63.3579 12.8897C63.4414 12.7669 63.4838 12.6249 63.4525 12.5743C63.4206 12.5237 63.4514 12.3774 63.5202 12.2489C63.6332 12.0389 63.6224 11.9958 63.4084 11.8182C63.2775 11.7096 63.0907 11.4913 62.9929 11.3333C62.8217 11.0563 62.8101 11.051 62.6897 11.1898C62.6199 11.2692 62.5853 11.3689 62.612 11.4116C62.6385 11.454 62.5864 11.7042 62.4965 11.967C62.2914 12.5643 62.3174 14.063 62.5384 14.3905C62.7793 14.7476 62.7273 15.0541 62.3917 15.2513C62.0402 15.4578 61.66 15.4717 61.3412 15.2894C61.1342 15.1709 61.1152 15.1157 61.1761 14.8156C61.2241 14.5788 61.1922 14.3652 61.0711 14.1087C60.9748 13.906 60.8815 13.5501 60.863 13.3168C60.844 13.0841 60.7704 12.8157 60.6983 12.7203C60.5992 12.5875 60.5969 12.5049 60.6879 12.3678C60.9325 12.0011 61.0826 11.4718 61.0573 11.0681C61.0074 10.2827 60.9157 9.75624 60.7975 9.58144C60.718 9.46365 60.7124 9.34865 60.779 9.22864C60.8689 9.06886 60.8682 8.94204 60.7783 8.63416C60.728 8.46145 60.4595 8.26176 60.3211 8.29458C60.1692 8.33018 59.8678 8.17096 59.8678 8.05526C59.8678 8.00659 59.7743 7.99407 59.6069 8.01966C59.4636 8.04177 59.3461 8.03537 59.3461 8.00506C59.3461 7.94387 58.5123 7.75906 58.3685 7.78827C58.3187 7.79828 58.3037 7.76518 58.335 7.71429C58.3703 7.65769 58.3146 7.6093 58.1912 7.58969C58.0805 7.57189 58.0121 7.57898 58.0388 7.60568C58.1194 7.68578 57.6672 7.94068 57.5101 7.90396C57.4261 7.88408 57.364 7.90939 57.364 7.96348C57.364 8.01507 57.4584 8.05749 57.5733 8.05749C57.6962 8.05749 57.7813 8.10018 57.7813 8.16248C57.7813 8.30195 57.3002 8.57006 57.0497 8.57006C56.7773 8.57006 56.5774 8.33686 56.7443 8.21379C56.836 8.14579 56.8382 8.09906 56.7524 8.03579C56.6881 7.98837 56.6673 7.93066 56.7049 7.90758C56.7427 7.8845 56.713 7.86558 56.6394 7.86558C56.5588 7.86558 56.5264 7.91439 56.5583 7.98879C56.5948 8.07556 56.5676 8.10198 56.4648 8.07779C56.3652 8.05429 56.3392 8.07528 56.3826 8.14495C56.4173 8.20058 56.3774 8.28846 56.2934 8.34005C56.1594 8.42266 56.1263 8.41487 56.0233 8.27609C55.9189 8.13536 55.9345 8.11158 56.1657 8.05749C56.309 8.02397 56.4254 7.95069 56.4254 7.89479C56.4254 7.79466 56.3206 7.7987 55.8086 7.91717C55.7212 7.93748 55.6893 7.92357 55.7305 7.88227C55.7758 7.83749 55.7205 7.82609 55.5751 7.84959C55.4024 7.87726 55.3693 7.86447 55.4336 7.7955C55.5016 7.72249 55.4905 7.72068 55.3768 7.78549C55.2998 7.82929 55.1497 7.86558 55.043 7.86558C54.9155 7.86558 54.8754 7.89298 54.9271 7.94568C54.9792 7.99839 54.945 7.99519 54.8268 7.93636C54.7283 7.88728 54.6146 7.86739 54.5745 7.89187C54.5351 7.91648 54.5525 7.95639 54.6139 7.98086C54.8759 8.08558 54.9595 8.29027 54.7982 8.43197C54.6019 8.60385 54.5009 8.60496 54.2278 8.43726C54.0227 8.31127 54.0209 8.29667 54.1868 8.14148C54.305 8.03037 54.3159 7.99477 54.2204 8.03009C54.104 8.07306 54.1044 8.06319 54.2222 7.97377C54.3444 7.88158 54.3426 7.86558 54.2133 7.86558C54.13 7.86558 54.029 7.88547 53.9892 7.91008C53.8592 7.98949 53.592 7.98629 53.6425 7.90577C53.6692 7.86266 53.6024 7.82359 53.4939 7.81858C53.385 7.81358 53.2969 7.85056 53.2969 7.90146C53.2969 7.95208 53.2535 7.99338 53.1996 7.99338C53.1468 7.99338 53.0291 8.03899 52.9387 8.09447C52.789 8.18625 52.7659 8.18208 52.6772 8.04636C52.624 7.96459 52.5764 7.92649 52.5716 7.96167C52.5671 7.99658 52.5225 7.98587 52.472 7.93706C52.4002 7.86739 52.3665 7.87699 52.3115 7.98198C52.2506 8.10129 52.2118 8.10769 51.9614 8.03996C51.8065 7.99839 51.6466 7.9347 51.6054 7.89868C51.5033 7.80899 51.4286 7.81677 51.3126 7.92969C51.2252 8.01507 51.2135 8.01507 51.2107 7.92969C51.2083 7.84389 51.1963 7.84389 51.1064 7.92969C51.0391 7.99338 51.0049 7.99908 51.0038 7.94568C51.0026 7.90146 50.9503 7.86558 50.8867 7.86558C50.8233 7.86558 50.795 7.90396 50.8247 7.95069C50.8541 7.99769 50.8118 8.03607 50.7311 8.03607C50.6512 8.03607 50.5794 7.97627 50.5731 7.90299C50.5631 7.79466 50.5516 7.79049 50.5133 7.88158C50.4866 7.94318 50.3985 7.99338 50.3168 7.99338C50.235 7.99338 50.1678 8.02397 50.1678 8.06138C50.1678 8.09879 50.1202 8.11116 50.0618 8.08877C50.0031 8.06666 49.9875 8.01758 50.0258 7.9792C50.0697 7.93539 50.0466 7.92816 49.9619 7.96028C49.7493 8.04108 48.6033 8.07056 48.6033 7.99546C48.6033 7.95917 48.4391 7.92969 48.238 7.92969C48.0374 7.92969 47.8735 7.95987 47.8735 7.99727C47.8735 8.03468 47.8241 8.04636 47.7643 8.02397C47.7041 8.00117 47.587 8.01716 47.5035 8.05999C47.405 8.11047 47.3058 8.11617 47.2213 8.07668C47.1493 8.04288 46.9383 8.02467 46.7517 8.03579C46.5644 8.04706 46.4132 8.02606 46.4132 7.98879C46.4132 7.95208 46.4718 7.94207 46.5436 7.96696C46.6457 8.00256 46.6468 7.99449 46.5477 7.92899C46.4455 7.86099 46.3917 7.86058 46.2612 7.92719C46.1401 7.98879 46.0647 7.99129 45.9569 7.93636C45.8659 7.8902 45.7268 7.88338 45.5744 7.91787C45.4166 7.95389 45.3761 7.98837 45.4567 8.01869C45.6915 8.10796 45.5826 8.20238 45.2862 8.16567C45.0706 8.13939 44.9621 8.16178 44.8711 8.25106C44.7934 8.32768 44.786 8.38608 44.8503 8.41056C45.012 8.47188 44.9698 8.68047 44.7871 8.72344C44.5471 8.78018 44.4046 8.70356 44.4683 8.55337C44.4991 8.48148 44.4323 8.31238 44.32 8.17735C44.1175 7.93358 44.113 7.93247 43.6221 7.97266C43.3501 7.99519 43.1112 8.03899 43.0915 8.07028C43.0714 8.10157 42.9889 8.09336 42.909 8.05248C42.8128 8.00339 42.7177 7.99908 42.6318 8.03969C42.4301 8.13578 42.1165 8.19349 42.1896 8.12076C42.2249 8.08558 42.1235 8.05359 41.96 8.04817C41.4018 8.03009 41.3536 8.02536 41.2313 7.97669C41.1636 7.94958 41.0742 7.96098 41.0325 8.00228C40.989 8.04567 41.0024 8.06027 41.0637 8.03677C41.2035 7.98406 41.5513 8.22158 41.4627 8.30988C41.3536 8.41807 40.989 8.38886 40.9154 8.26566C40.879 8.20405 40.7884 8.13119 40.7148 8.10407C40.6412 8.07668 40.61 8.00436 40.6453 7.94387C40.694 7.86127 40.6337 7.87337 40.4064 7.99268C40.2395 8.08029 40.1578 8.11269 40.225 8.06486C40.2923 8.01688 40.3219 7.93678 40.2905 7.88658C40.2458 7.81538 40.2012 7.82387 40.0842 7.92649C40.0017 7.99866 39.865 8.05749 39.7803 8.05749C39.6958 8.05749 39.4889 8.14426 39.3206 8.24967C38.9653 8.47286 38.7364 8.49455 38.6424 8.31377C38.606 8.24327 38.509 8.18556 38.4269 8.18556C38.3451 8.18556 38.2779 8.15218 38.2779 8.11088C38.2779 8.06986 38.2477 8.05429 38.2117 8.07668C38.1753 8.09879 38.0571 8.08808 37.9479 8.05206C37.7967 8.00228 37.6882 8.01688 37.486 8.11478C37.2245 8.24118 36.9579 8.23326 36.7834 8.09447C36.7238 8.04678 36.6808 8.05067 36.6436 8.10699C36.6142 8.15177 36.4604 8.22936 36.3017 8.27998C36.0791 8.35076 35.9858 8.35396 35.89 8.29486C35.7399 8.20308 35.5515 8.34478 35.6385 8.48426C35.6681 8.53126 35.6373 8.57006 35.5701 8.57006C35.5035 8.57006 35.4564 8.51958 35.4671 8.45798C35.4994 8.26288 35.4671 8.24827 35.2531 8.36077C35.1383 8.42085 35.0432 8.52876 35.0409 8.60037C35.038 8.71955 35.0293 8.72108 34.9313 8.61748C34.8722 8.55546 34.853 8.47647 34.8885 8.44157C34.9238 8.40639 34.9023 8.37788 34.8421 8.37788C34.7812 8.37788 34.7314 8.40277 34.7314 8.43308C34.7314 8.46326 34.6172 8.47466 34.478 8.45825C34.3133 8.43906 34.1417 8.47578 33.9889 8.56324C33.8596 8.63736 33.7121 8.69827 33.6619 8.69827C33.4828 8.69827 33.1621 8.56255 33.2153 8.50957C33.245 8.47995 33.1064 8.47828 32.9065 8.50595C32.7065 8.53376 32.5661 8.53307 32.594 8.50498C32.6225 8.47675 32.5516 8.46896 32.4368 8.48718C32.3223 8.50567 32.2283 8.54767 32.2283 8.58007C32.2283 8.61247 32.1628 8.60176 32.0827 8.55657C32.0028 8.51096 31.9552 8.45575 31.9772 8.43336C31.9994 8.41056 31.924 8.37746 31.8096 8.35897C31.6955 8.34075 31.6022 8.35048 31.6022 8.38066C31.6022 8.44477 30.9638 8.42015 30.7773 8.34937C30.7071 8.32267 30.5662 8.34798 30.4614 8.40639C30.2567 8.51986 29.7037 8.49886 29.6365 8.37468C29.6145 8.33407 29.4927 8.36536 29.3489 8.44838C29.2117 8.52737 29.0991 8.55838 29.0991 8.51708C29.0991 8.47578 29.1489 8.44198 29.2098 8.44198C29.2708 8.44198 29.2909 8.41278 29.2551 8.37718C29.2132 8.33588 29.1263 8.33407 29.0167 8.37148C28.9089 8.40875 28.771 8.40708 28.6503 8.36745C28.5443 8.33268 28.3842 8.32086 28.2957 8.34186C28.2069 8.36286 28.0817 8.35466 28.0167 8.32337C27.9524 8.29236 27.7826 8.25217 27.6388 8.23437C27.4957 8.21657 27.288 8.17888 27.178 8.15065C27.01 8.10769 26.9896 8.11937 27.0528 8.22116C27.123 8.33296 27.1096 8.33185 26.8888 8.20836C26.5942 8.04428 26.3067 8.03899 26.2256 8.19627C26.1921 8.26107 26.1033 8.31377 26.0279 8.31377C25.9532 8.31377 25.8325 8.35758 25.76 8.41097C25.686 8.46618 25.5114 8.49858 25.3561 8.48607C25.1502 8.46938 25.0755 8.42238 25.0506 8.29277C25.0164 8.11339 24.8771 8.06527 24.7879 8.20169C24.7515 8.25717 24.7329 8.25286 24.727 8.18737C24.7213 8.12396 24.6634 8.14176 24.549 8.24188C24.4163 8.35827 24.3149 8.38288 24.0837 8.35438C23.9213 8.33435 23.7601 8.34576 23.7259 8.37996C23.6263 8.47856 23.2588 8.45158 23.2588 8.34576C23.2588 8.28457 23.3591 8.24967 23.5364 8.24967C23.6895 8.24967 23.7794 8.22797 23.7363 8.20169C23.6211 8.13119 23.0106 8.14328 22.9214 8.21768C22.879 8.25286 22.8437 8.36258 22.8426 8.46145L22.8414 8.64126L22.5283 8.52765C22.1336 8.38455 22.1359 8.34617 22.5435 8.27456C22.8274 8.22436 22.8501 8.20586 22.711 8.13508C22.5795 8.06778 22.5215 8.07097 22.3897 8.15177C22.2901 8.21337 22.2042 8.22616 22.1637 8.18598C22.1202 8.14287 22.0269 8.14468 21.8843 8.19168C21.7052 8.25036 21.6809 8.30237 21.7348 8.50818C21.8089 8.79255 21.6572 8.89476 21.3974 8.73568C21.2373 8.63695 21.2373 8.61637 21.4026 8.43976C21.5 8.33519 21.5383 8.24967 21.4878 8.24967C21.4368 8.24967 21.3662 8.30598 21.3306 8.37468C21.2953 8.44338 21.1794 8.51638 21.0734 8.53696C20.8821 8.57437 20.0467 8.35076 19.8932 8.22116C19.8409 8.17735 19.7748 8.19349 19.7041 8.26719C19.6443 8.32949 19.5418 8.36008 19.4763 8.33547C19.3117 8.27317 18.8826 8.26677 18.9442 8.32796C18.972 8.35535 18.9215 8.37788 18.8316 8.37788C18.7424 8.37788 18.6693 8.42057 18.6693 8.47327C18.6693 8.57965 18.2508 8.58035 18.1233 8.47397C18.081 8.43865 18.0457 8.47466 18.045 8.55407C18.0439 8.66365 17.983 8.69827 17.7889 8.69827C17.6492 8.69827 17.5054 8.72706 17.4701 8.76196C17.3609 8.87057 17.2092 8.83316 17.2092 8.69827C17.2092 8.62777 17.2746 8.57006 17.3546 8.57006C17.521 8.57006 17.6596 8.39818 17.5321 8.34965C17.4289 8.31057 16.8979 8.45436 16.8967 8.52208C16.8967 8.54836 16.8306 8.57006 16.7511 8.57006C16.6712 8.57006 16.579 8.61275 16.546 8.66517C16.5125 8.71927 16.4178 8.74374 16.3252 8.72177C16.2364 8.70077 16.0938 8.71927 16.0086 8.76266C15.9008 8.81786 15.8533 8.81995 15.8533 8.77016C15.8533 8.73026 15.8961 8.69827 15.9477 8.69827C16 8.69827 16.0179 8.64056 15.9878 8.57006C15.9235 8.41876 15.7668 8.40235 15.6823 8.53807C15.6069 8.65878 15.436 8.66364 15.436 8.54544C15.436 8.49677 15.342 8.44157 15.2272 8.42335C15.1124 8.40486 15.0451 8.41598 15.077 8.44796C15.109 8.47967 15.0829 8.50595 15.0191 8.50595C14.9548 8.50595 14.9269 8.53057 14.957 8.56088C14.9878 8.59106 14.8997 8.60246 14.7616 8.58605C14.5438 8.56046 14.5037 8.58508 14.4591 8.77155C14.4301 8.88976 14.4115 9.13047 14.4179 9.30666C14.4475 10.1976 14.1391 10.6836 13.5443 10.6836C12.8958 10.6836 12.6865 10.4981 12.5728 9.82173C12.4743 9.23434 12.4209 9.14646 12.1752 9.16954C11.9252 9.19304 11.9323 9.15786 11.8453 10.8438C11.8122 11.4778 11.7409 12.2272 11.6859 12.5092C11.3363 14.3058 11.0582 15.4788 10.9468 15.6287C10.8182 15.8017 10.2924 16 9.96245 16C9.86621 16 9.65766 15.9199 9.49825 15.8223H9.4987Z" fill="url(#paint0_linear_244_9530)"/>
<defs>
<linearGradient id="paint0_linear_244_9530" x1="-0.636914" y1="1.78989" x2="60.7744" y2="19.0154" gradientUnits="userSpaceOnUse">
<stop offset="0.129808" stop-color="#C55715"/>
<stop offset="0.365385" stop-color="#C42E67"/>
<stop offset="0.788462" stop-color="#2684D4"/>
<stop offset="0.982854" stop-color="#19D5BE"/>
</linearGradient>
</defs>
</svg>
