<svg width="211" height="69" viewBox="0 0 211 69" fill="none" xmlns="http://www.w3.org/2000/svg">
<path d="M6.21338 29C6.21338 17.9543 15.1677 9 26.2134 9H183.213C194.259 9 203.213 17.9543 203.213 29V41C203.213 52.0457 194.259 61 183.213 61H26.2134C15.1677 61 6.21338 52.0457 6.21338 41V29Z" fill="#00C6B5"/>
<path d="M36.6296 0.666118C46.3289 -0.906963 52.9497 0.764462 61.9476 1.03085C81.7552 1.61609 107.876 1.08899 128.134 1.13082C143.468 1.16253 159.049 1.27479 174.29 1.36483C175.072 1.36926 175.538 1.54171 175.893 1.5439C177.859 1.55585 180.609 1.50653 183.213 1.46865C185.705 1.43533 188.109 1.78458 189.927 2.25572C200.035 3.57834 211.501 18.3799 210.564 27.5866C210.579 28.0561 210.583 28.5289 210.575 29C210.518 31.3526 210.451 33.5838 210.093 34.5021C210.072 35.4917 210.443 36.0319 210.463 36.2903C210.463 36.2933 210.462 36.2962 210.462 36.2992C210.524 37.1315 210.264 39.2332 210.281 39.697C210.283 39.7663 210.552 39.3393 210.471 40.4646C210.465 40.5466 210.341 40.4995 210.295 41C210.285 41.1499 210.278 41.3357 210.273 41.5671C210.344 41.8853 210.192 46.2129 209.816 47.4215C209.31 51.6459 203.778 60.1524 199.53 62.7655C198.93 63.2117 198.636 63.5482 197.971 63.9822C197.627 64.2073 197.039 64.4237 196.931 64.4862C196.48 64.7906 194.535 66.3359 194.86 65.0165C192.646 66.1094 193.413 66.0916 193.455 66.3334C190.893 67.3781 189.476 67.1194 188.893 67.7901C187.02 68.177 185.11 68.364 183.213 68.3549C174.738 68.3011 166.262 68.2473 157.786 68.1935C157.783 68.2781 157.78 68.3627 157.777 68.4473C154.868 68.1094 153.87 68.681 152.209 68.1902C151.185 68.2983 150.161 68.4063 149.137 68.5143C122.817 68.1815 96.5581 68.5771 70.5348 68.5758C69.4365 68.5758 69.1623 68.3958 67.351 68.3946C65.3512 68.3933 62.5384 68.6025 59.9028 68.6C57.5909 68.5981 54.18 68.4278 51.602 68.4012C51.0201 68.3955 50.5992 68.5095 50.5337 68.5088C50.1484 68.5044 50.1291 68.3239 49.7555 68.3188C49.3085 68.3131 48.7684 68.4468 48.252 68.4385C46.3223 68.4087 44.2195 68.4548 43.9752 68.4517C42.7982 68.4346 42.5384 68.2581 42.4417 68.2562C41.1325 68.2346 41.6233 68.3939 41.2973 68.3847C39.6055 68.3359 38.4096 67.9382 36.0936 68.3199C36.1567 68.1723 36.2197 68.0247 36.2828 67.8771C34.5104 67.7941 35.6811 68.1862 35.3189 68.2573C35.1711 68.2836 31.3558 68.2357 31.0615 68.2287C30.0367 68.2033 30.0092 68.0072 29.9206 68.0046C29.7254 67.9988 27.5961 68.1805 26.2134 68.0884C26.0162 68.0787 25.8309 68.0638 25.6616 68.0441C23.5767 67.7658 26.0471 67.4597 25.5288 67.3641C25.4445 67.37 23.2912 67.2661 23.018 67.0832C22.7195 66.9227 24.5582 67.1081 24.5346 67.035C24.504 67.0367 21.5215 66.3811 22.1338 66.262C22.4823 66.1971 24.6822 66.5661 26.2134 66.5649C26.67 66.5747 27.0476 66.5754 27.2339 66.5511C27.3454 66.5366 27.1351 66.3058 27.2339 66.2974C27.6307 66.2663 34.9791 66.2594 35.3153 66.2974C34.9327 66.4025 34.5501 66.5076 34.1674 66.6127C34.6762 66.6233 35.1851 66.6339 35.6939 66.6445C34.9704 66.7287 34.247 66.813 33.5236 66.8972C34.5986 67.7626 37.8368 66.8853 37.9702 66.4534C38.028 66.2536 36.0486 65.7397 37.8906 65.4404C37.6106 65.3892 37.3305 65.3379 37.0505 65.2866C36.4733 65.3709 35.8961 65.4551 35.3189 65.5393C35.7033 65.5924 36.0877 65.6455 36.4721 65.6986C36.3306 65.7587 36.1891 65.8187 36.0476 65.8788C34.9687 65.9751 33.8897 66.0714 32.8108 66.1677C32.256 66.1233 32.3714 65.946 31.9901 65.9117C27.2348 65.48 30.3366 66.0294 27.2233 65.9502C26.8866 65.8781 26.55 65.806 26.2134 65.7339C26.0797 65.7108 25.9466 65.6866 25.814 65.6614C26.0008 66.0504 24.301 65.831 22.221 65.6629C22.489 65.5769 22.749 65.4859 23.0089 65.3913C19.9345 65.2758 14.6864 62.1892 15.8912 63.475C15.2945 63.1345 14.7134 62.7697 14.1509 62.3828C13.5947 62.2006 13.0412 61.9967 12.4928 61.7717C11.8294 61.317 11.189 60.8308 10.5741 60.3155C10.6104 60.2648 10.6468 60.2142 10.6832 60.1635C11.1765 60.5632 11.6852 60.944 12.2082 61.3048C11.9235 60.8776 11.6564 60.4458 11.4057 60.0097C11.0253 59.753 10.6515 59.4849 10.285 59.2059C11.6465 60.5918 9.49715 59.1845 8.87823 58.8925C7.6093 57.7851 7.1904 56.7283 6.85808 56.2908C6.67102 56.1215 4.45984 53.8652 5.66225 54.5283C4.72859 53.2515 3.91339 51.8772 3.23587 50.4287C3.04345 49.833 2.87417 49.2312 2.72837 48.6254C3.40905 49.7942 2.60054 46.0466 3.55727 48.6817C4.33539 50.6078 4.35262 51.1623 4.79604 52.0567C5.21439 52.8506 5.60913 53.169 6.13601 53.9781C9.78028 59.3511 14.4352 62.6041 20.3996 64.2571C21.587 64.5712 22.7027 64.6523 23.5142 64.7555C24.4349 64.8633 23.254 64.9873 24.4401 65.0322C25.6017 65.0538 25.9121 64.8695 26.2134 64.8475C26.2328 64.8454 26.2521 64.8442 26.2717 64.8439C26.4419 64.8418 26.9814 65.012 27.478 65.012C29.5185 65.012 32.5084 64.8474 32.7984 64.8483C33.1259 64.8502 38.8966 65.0038 39.173 65.0318C39.3194 65.047 39.0156 65.6756 40.2873 65.0054C40.6841 64.993 41.0809 64.9805 41.4777 64.968C41.4134 65.0937 41.3492 65.2193 41.2849 65.3449C43.6356 64.8687 42.827 65.1351 45.093 65.0977C50.519 65.0077 58.5229 65.1135 64.4574 65.0691C65.7826 65.059 66.2875 64.9086 67.8551 64.8977C69.3116 64.8882 73.1147 65.337 72.2876 64.7154C75.5284 65.2536 76.0493 64.3254 77.6717 64.9043C77.868 64.8201 78.0644 64.7359 78.2607 64.6517C80.0218 65.0131 80.5653 64.6954 82.488 64.6517C83.3166 64.6326 82.3614 65.017 84.0339 64.589C84.3535 64.6209 84.673 64.6528 84.9926 64.6846C84.9183 64.7776 84.844 64.8706 84.7697 64.9637C86.6272 64.8876 86.7469 64.936 86.535 64.5879C87.4317 64.6513 88.3285 64.7146 89.2252 64.778C89.3367 64.6637 89.4481 64.5495 89.5595 64.4352C89.1299 64.2173 68.7684 64.5459 65.9325 64.6506C62.607 64.3919 55.9264 64.7153 53.2399 64.6539C52.1647 64.6291 51.6897 64.3707 50.1251 64.3396C48.561 64.3086 46.5927 64.5433 45.7598 64.5517C42.9852 64.5808 29.8398 64.5293 38.7803 64.2078C38.5233 64.0818 38.2662 63.9559 38.0091 63.8299C34.4564 64.2598 35.7429 63.9951 32.7949 63.9507C31.5539 63.9318 28.6027 64.2131 28.7674 63.6409C31.0719 63.5344 33.5201 63.7173 35.5241 63.7091C35.7226 63.7082 38.0953 63.4469 39.3163 63.5179C40.4178 63.5827 39.6594 64.1281 42.0561 63.5157C43.8361 64.114 44.8653 63.5712 45.3353 63.5135C46.1479 63.4135 46.2369 63.7087 47.0493 63.7431C47.9341 63.7811 48.5433 63.5851 48.6641 63.5838C49.8776 63.5794 56.1976 63.5527 56.4873 63.6717C56.2332 63.7241 55.9791 63.7764 55.725 63.8288C57.3663 63.9131 57.0233 63.6112 57.4548 63.575C57.7762 63.5761 58.0975 63.5772 58.4188 63.5783C58.2915 63.6409 58.1641 63.7036 58.0368 63.7662C59.9752 63.7529 58.492 63.5353 61.2435 63.541C62.9906 63.5448 64.7952 63.7839 64.965 63.7662C65.015 63.7611 64.465 63.5999 65.1772 63.5783C66.3562 63.5428 68.3947 63.5469 68.6228 63.7662C69.2002 63.7351 69.151 63.5206 69.2277 63.5157C69.5629 63.4948 75.3312 63.4218 76.3646 63.4091C79.2279 63.3743 82.4157 63.42 85.5179 63.3839C85.8369 63.3803 85.6334 63.5179 85.953 63.5135C86.4662 63.5065 89.1006 63.2904 89.4941 63.2751C90.4763 63.2377 93.0602 63.3234 93.4667 63.2608C93.5245 63.2519 92.6741 63.0658 93.6684 63.0081C94.7722 62.9443 94.1779 63.1946 94.2379 63.1971C96.4844 63.2827 97.9027 63.1088 99.4363 63.0752C99.9333 63.0644 100.85 63.2528 101.552 63.1971C101.632 63.1908 101.472 63.0167 101.552 63.0081C102.611 62.9168 103.603 63.2399 104.062 63.2608C105.184 63.312 104.573 63.0736 104.631 63.0719C105.379 63.0643 106.385 63.1503 107.521 63.1389C112.589 63.0882 116.724 63.0736 122.112 63.0894C122.788 63.0914 123.591 63.2595 123.695 63.2597C124.015 63.2585 123.923 63.0608 124.848 63.0653C126.798 63.0754 128.606 63.0659 130.536 63.0697C130.925 63.0705 131.091 63.2536 131.387 63.2575C132.381 63.2689 135.771 62.7895 135.827 63.3861C137.8 62.8579 139.11 63.3131 140.698 63.3081C144.459 63.2967 150.348 63.1891 154.098 63.2575C154.887 63.2722 155.258 63.4251 155.697 63.4333C156.484 63.4485 160.987 63.3631 161.222 63.3872C161.685 63.4335 161.408 64.1066 163.785 63.5201C165.179 63.4783 165.015 63.7546 165.303 63.7695C167.55 63.8804 169.735 63.2638 169.327 63.8288C171.943 63.6754 173.638 63.3632 174.706 63.8914C174.692 63.6336 175.922 63.479 177.405 63.5772C175.887 64.0103 176.074 64.287 172.403 64.2078C172.345 64.2066 172.455 64.0201 172.397 64.0189C171.873 64.0063 170.779 64.1004 169.886 64.0903C168.992 64.0801 169.488 63.9527 169.131 63.9551C168.803 63.9577 168.814 64.1361 168.34 64.1386C166.802 64.1456 165.442 64.1948 164.567 64.1979C164.016 64.1998 163.399 64.043 162.972 64.043C161.318 64.0443 157.815 64.1667 155.711 64.1496C155.273 64.1456 155.457 63.9697 154.498 63.9551C154.386 63.9534 153.977 64.1368 153.137 64.1749C152.298 64.2129 151.646 64.1218 151.107 64.1408C150.656 64.1567 150.845 64.3196 149.92 64.3298C149.149 64.338 140.42 64.2206 139.946 64.1946C139.264 64.1572 138.94 63.9283 138.524 63.9562C138.451 63.9622 138.327 64.1832 138.073 64.199C133.888 64.4602 124.625 64.1587 119.842 64.1606C109.846 64.1637 100.624 64.2938 90.5394 64.3451C90.3596 64.3836 90.1798 64.422 90 64.4605C91.0193 64.462 92.0388 64.4634 93.0581 64.4649C93.0646 64.5689 93.0711 64.6729 93.0776 64.7769C94.4558 64.7934 94.2732 64.5474 94.2344 64.399C94.7443 64.462 95.2544 64.5249 95.7643 64.5879C96.2043 64.2255 99.6055 64.4666 101.359 64.466C102.499 64.466 103.856 64.3278 104.458 64.3386C105.728 64.3607 105.695 64.5844 105.795 64.5879C105.964 64.593 107.738 64.3958 109.018 64.4034C110.909 64.4142 111.114 64.7576 113.703 64.466C117.021 64.6441 120.697 64.5545 124.273 64.5253C123.592 64.8427 126.797 64.5423 128.242 64.5473C137.059 64.5784 147.896 64.714 156.829 64.8395C157.977 64.8554 158.844 65.0424 159.484 65.0362C159.831 65.033 159.982 64.8125 160.464 64.8417C160.548 64.8473 160.607 65.0535 161.504 65.0845C163.735 65.1625 169.293 64.8185 170.699 65.2141C174.871 65.1807 179.042 65.1473 183.213 65.1138C187.373 65.0942 191.539 63.966 195.129 61.8724C195.371 61.8311 195.613 61.786 195.855 61.7367C197.255 60.6474 202.576 56.2055 204.058 53.0745C206.029 49.7168 207.255 45.1373 207.163 41C207.139 39.1907 207.119 37.4786 207.114 35.9985C207.111 35.0623 207.233 34.2951 207.231 33.409C207.23 33.0278 207.071 32.5535 207.07 32.1568C207.068 31.1705 207.074 30.107 207.085 29C207.201 24.3537 205.555 19.0665 203.147 15.6223C198.699 8.96818 191.053 4.94874 183.213 4.98818C179.757 4.98579 176.268 4.98449 172.691 4.98691C137.9 5.01164 103.31 5.24444 68.8156 5.1506C68.3532 5.14933 68.3763 4.96731 68.0179 4.96603C65.9023 4.95716 61.1779 5.1072 58.7886 5.09896C56.8848 5.09262 53.8633 4.81431 53.2081 5.09457C59.9713 5.51876 67.1166 5.48685 74.1573 5.60542C74.6578 5.61377 74.72 5.78681 74.7816 5.78998C75.9215 5.85011 75.2017 5.6118 76.8546 5.60102C77.4071 5.59741 82.5098 6.14983 81.9026 5.59993C83.1247 5.8199 91.7389 5.92986 93.4013 5.857C93.9062 5.83481 93.5488 5.67189 93.649 5.66364C94.0841 5.62766 94.2806 5.85229 94.6695 5.8581C95.7062 5.87205 98.3428 5.68984 98.8438 5.69111C99.9965 5.69306 103.452 5.87592 104.974 5.83283C106.369 5.79352 106.108 5.55886 107.314 5.53731C108.265 5.52092 107.229 5.7183 109.352 5.7779C110.404 5.80706 114.084 5.66587 114.978 5.66584C115.872 5.66584 116.867 5.80626 118.1 5.79548C119.877 5.78026 123.741 5.70207 125.548 5.65705C125.656 5.65452 125.919 5.47198 126.185 5.47578C126.736 5.48344 126.571 5.70887 126.986 5.73176C127.403 5.75458 134.61 5.72704 135.834 5.72956C136.677 5.73083 137.26 5.59654 137.726 5.59773C138.092 5.599 138.131 5.78678 138.505 5.78889C138.62 5.78889 139.604 5.62578 140.586 5.62959C141.515 5.63341 145.04 5.78852 145.449 5.78998C145.715 5.79062 145.423 5.65718 146.209 5.66035C146.926 5.66362 147.396 5.83688 147.805 5.83942C148.752 5.84506 149.812 5.69731 150.817 5.6966C153.707 5.6947 153.558 5.90935 153.732 5.91632C154.213 5.93571 154.405 5.73911 154.563 5.73505C155.23 5.71857 156.863 5.68226 157.457 5.67463C158.197 5.66512 158.51 5.85197 159.296 5.8526C159.882 5.85248 161.066 5.67032 162.402 5.66145C165.416 5.64052 168.999 5.60614 171.959 5.61311C172.841 5.61501 172.977 5.78555 173.246 5.78998C174.664 5.81339 175.458 5.6227 175.863 5.62519C177.778 5.63655 180.689 5.77209 183.213 5.86942C184.691 5.9169 186.045 6.10575 187.066 6.28806C188.317 6.36325 193.707 7.89947 196.205 9.85299C196.497 10.0568 196.148 9.97705 196.483 10.1862C197.277 10.6958 197.369 10.437 197.746 10.7418C197.927 10.8919 198.244 11.3444 198.735 11.8085C201.274 14.233 202.651 16.2529 203.442 17.6459C205.364 21.0906 206.375 25.061 206.348 29C206.326 33.0217 206.306 37.0345 206.289 41C206.307 47.7285 203.167 54.1861 198.392 58.3061C197.201 59.3458 195.683 60.6872 193.449 61.6252C193.345 61.5825 193.242 61.539 193.139 61.4949C193.1 61.6061 193.061 61.7171 193.02 61.8282C190.556 62.9728 189.562 63.398 186.798 63.7855C186.555 63.8167 185.795 63.5297 185.392 64.046C183.482 63.9549 183.619 63.9846 183.213 64.0897C183.054 64.131 182.801 64.1724 182.244 64.1826C180.468 64.2149 178.742 64.1078 177.019 64.0837C176.075 63.9118 180.037 63.5155 180.295 63.5168C180.711 63.5183 181.143 63.7568 181.544 63.7695C182.147 63.7888 182.741 63.7493 183.213 63.7338C183.734 63.7189 184.12 63.7089 184.274 63.8068C186.003 63.4757 183.84 63.7237 184.053 63.5003C185.207 63.5418 186.368 63.496 187.531 63.3579C187.76 62.9689 189.463 62.6696 191.002 62.166C192.545 61.6843 193.905 61.0419 193.585 60.9173C194.081 60.7773 194.577 60.6176 195.068 60.4407C196.592 58.6845 197.894 58.3338 200.102 56.2704C199.895 56.374 199.686 56.4739 199.478 56.5699C199.523 56.5234 201.099 54.4466 200.778 55.3885C202.037 52.9869 202.624 53.4774 203.277 51.0816C203.812 49.7611 203.828 50.7123 204.718 48.2895C205.214 46.8393 205.467 44.9471 205.614 43.266C205.649 42.8804 205.853 42.7259 205.875 42.3756C205.895 42.024 205.715 41.8506 205.72 41.4312C205.721 41.2931 205.724 41.1483 205.728 41C205.752 40.3067 205.843 39.536 205.832 39.131C205.822 38.6994 205.656 38.0824 205.63 37.0421C205.538 33.4089 205.774 34.5064 205.854 33.9326C205.939 33.3161 205.628 32.8729 205.664 31.6438C205.668 31.5205 205.862 31.8394 205.854 31.4386C205.848 31.1153 205.638 30.9528 205.598 29.8821C205.595 29.7982 205.591 29.4741 205.586 29C205.727 26.8154 204.561 21.9695 204.119 21.1653C203.588 19.5225 201.809 16.0653 200.59 14.7191C200.149 14.1823 199.529 13.7477 199.015 13.2315C197.348 11.4764 194.134 9.19181 191.23 8.13172C189.09 7.21745 185.296 6.30597 183.213 6.49536C182.868 6.51739 182.579 6.55293 182.364 6.60624C178.885 6.64998 178.04 6.36188 177.778 6.35796C177.069 6.34718 176.741 6.53804 175.847 6.54692C164.266 6.65787 149.017 6.5317 138.05 6.54692C112.609 6.58369 87.0284 6.68799 61.4983 6.61064C61.4299 6.69523 61.3615 6.77982 61.2931 6.86441C64.3105 6.91894 67.8567 7.06591 70.8355 7.09951C74.8124 7.14385 80.7118 6.79158 83.629 7.36977C82.4459 7.42048 80.5185 7.19878 80.5531 7.49611C82.6679 7.51735 84.7828 7.53859 86.8976 7.55983C86.8345 7.4225 86.7714 7.28518 86.7084 7.14785C88.9165 7.10791 91.1749 7.13785 93.3907 7.11819C93.7756 7.11495 93.503 6.99029 93.8382 6.98965C94.2132 6.9892 93.959 7.11608 94.0292 7.11709C94.977 7.11836 95.2631 6.99 95.3788 6.99185C95.6755 6.99692 95.4448 7.11911 96.3003 7.15335C97.8874 7.2173 99.0238 6.89271 98.651 7.43349C99.1634 7.43349 99.6757 7.43349 100.188 7.43349C100.321 7.28628 100.453 7.13906 100.586 6.99185C103.738 7.58619 105.191 6.54363 106.932 7.37087C107.507 7.24453 108.081 7.11819 108.655 6.99185C108.979 7.13906 109.302 7.28628 109.626 7.43349C109.689 7.30715 109.752 7.18081 109.815 7.05447C112.91 7.14763 116.204 6.99596 119.163 7.01053C121.225 7.02067 121.719 7.07055 123.544 7.06106C127.606 7.03951 123.573 7.29019 126.948 7.56093C126.772 7.40602 126.596 7.25112 126.42 7.09622C126.979 7.03946 127.538 6.9827 128.097 6.92594C128.486 7.05227 128.875 7.17861 129.265 7.30495C130.991 6.64965 132.109 7.17861 132.344 7.17861C132.534 7.17747 133.186 6.78297 135.229 7.11709C134.382 6.57774 136.787 7.11392 136.98 7.11709C137.163 7.11928 139.505 6.99887 140.456 7.00394C141.203 7.00778 142.798 7.12388 143.912 7.11819C144.895 7.11314 144.795 6.93003 144.867 6.92813C146.077 6.91291 145.319 7.05519 146.193 7.06216C147.068 7.06912 147.747 6.91308 147.936 6.92703C148.031 6.93446 147.713 7.10502 148.148 7.12149C149.316 7.16642 151.427 7.01708 152.764 7.02151C153.238 7.02289 153.836 7.16758 154.363 7.17202C155.172 7.17832 155.55 6.98615 156.021 6.99185C156.184 6.99436 157.228 7.29123 158.525 7.24563C158.772 7.23648 159.497 6.60827 160.46 7.49831C160.534 7.37306 160.609 7.24782 160.683 7.12258C165.034 6.81252 166.244 7.82995 168.179 6.92703C171.338 7.02788 169.169 7.3796 169.516 7.43349C169.74 7.46754 170.77 7.37085 170.883 7.37636C171.084 7.38714 171.049 7.50003 171.269 7.4994C175.296 7.47848 173.508 7.26533 174.784 7.13027C177.816 6.80881 180.182 7.52251 174.907 7.30825C174.907 7.37123 174.907 7.43422 174.907 7.49721C176.206 7.437 179.503 7.4656 178.402 7.78504C177.535 8.03675 169.713 7.87247 174.143 8.22558C175.149 8.30547 175.67 8.0691 177.412 8.51231C178.564 8.53636 178.73 7.96216 180.29 8.19262C180.033 7.99231 179.777 7.792 179.52 7.59169C180.684 7.44887 181.996 7.48896 183.213 7.53622C184.299 7.57451 185.294 7.70393 186.089 7.76008C186.664 7.76458 189.019 7.31609 188.298 8.13609C189.34 8.18185 193.634 10.1785 194.355 10.6799C194.518 10.8001 195.142 10.3757 197.436 12.4907C197.558 12.6794 197.675 12.8693 197.79 13.0602C195.587 11.3454 199.095 14.7776 197.772 14.2233C197.635 13.7413 196.065 12.2331 195.827 11.9567C195.444 11.4522 197.071 12.3048 195.135 11.0268C193.517 10.8815 197.059 12.9367 196.051 13.1903C198.484 14.7958 198.343 15.3829 198.77 15.8545C200.485 18.0349 201.434 19.5564 202.288 22.0344C202.752 22.56 200.975 18.082 200.45 17.6833C202.108 19.2751 200.107 15.9329 198.696 15.0067C198.73 14.7934 198.761 14.5785 198.789 14.3621C200.194 15.9938 201.342 17.736 202.407 19.5833C202.411 19.7358 202.414 19.8873 202.415 20.0383C202.129 19.6499 201.83 19.2731 201.522 18.9103C202.171 20.5128 202.211 19.3668 202.69 21.6657C202.893 21.6655 203.096 21.6675 203.299 21.6711C204.016 23.8173 204.382 26.0734 204.389 28.3131C204.45 28.4811 204.5 28.7183 204.533 29C204.731 30.54 204.567 33.4181 204.146 32.7811C204.111 34.4251 204.373 32.3956 204.493 33.9361C204.545 34.6067 204.56 35.9171 204.427 36.2408C203.958 36.1014 203.9 34.1403 203.578 33.547C203.503 33.8073 203.657 38.6461 203.541 41C203.495 41.921 203.358 42.452 203.224 42.2169C203.102 42.9415 203.436 42.6246 203.336 43.9599C203.15 47.8351 199.871 52.7559 198.157 55.295C200.871 52.8692 201.06 51.595 202.193 49.1243C202.714 48.1577 203.959 43.751 203.917 41C203.977 39.3894 204.084 38.4398 204.272 39.3202C204.209 38.9388 204.146 38.5573 204.083 38.1758C204.231 37.7902 204.379 37.4047 204.526 37.0191C204.547 38.1057 204.569 39.1923 204.59 40.2789C204.453 40.5193 204.317 40.7596 204.181 41C204.17 41.0201 204.159 41.0401 204.148 41.0601C204.253 41.1862 204.356 41.3139 204.459 41.4432C204.47 41.9284 204.464 42.4168 204.442 42.9034C204.328 42.7562 204.213 42.611 204.096 42.468C204.024 43.2014 203.913 43.9308 203.763 44.6533C203.964 44.4878 204.163 44.3149 204.36 44.1398C203.745 47.6348 203.827 46.4435 202.947 48.1886C202.381 49.5264 203.654 47.3717 202.485 50.2485C200.815 53.4507 201.737 51.2803 198.982 54.9614C199.001 55.0669 199.02 55.1729 199.037 55.2792C198.287 55.9846 197.49 56.6313 196.655 57.2143C196.826 57.2093 196.996 57.202 197.168 57.1924C195.571 58.588 193.071 60.2026 192.25 60.0985C194.258 59.3186 193.829 58.6453 193.307 58.8149C192.768 58.9993 188.251 61.4429 183.213 61.371C179.006 61.4044 174.798 61.463 173.361 61.4712C169.4 61.494 166.406 61.2642 162.788 61.6173C165.24 61.9069 173.862 61.6697 175.496 61.87C175.658 61.8897 175.613 62.5473 176.653 61.8074C178.642 61.8818 180.862 61.8383 183.213 61.7951C184.889 61.7662 186.621 61.5345 188.334 61.1077C188.253 61.3238 188.167 61.5395 188.077 61.7549C185.741 61.9665 183.594 62.5675 183.213 62.2854C183.156 62.238 183.147 62.1655 183.196 62.059C182.683 62.059 182.171 62.059 181.659 62.059C181.659 62.1857 181.659 62.3124 181.659 62.4391C180.886 62.4391 180.114 62.4391 179.342 62.4391C179.342 62.3124 179.342 62.1857 179.342 62.059C178.702 62.059 178.062 62.059 177.422 62.059C177.356 62.1853 177.289 62.3116 177.223 62.438C175.307 62.1756 168.777 62.8772 171.647 62.1227C170.748 62.1227 169.848 62.1227 168.948 62.1227C168.951 62.2153 168.954 62.308 168.957 62.4006C168.57 62.4131 168.184 62.4255 167.797 62.438C167.924 62.3541 168.052 62.2703 168.179 62.1864C166.407 62.3366 164.726 61.8952 163.562 62.1853C164.33 62.2486 165.098 62.312 165.865 62.3754C164.393 62.255 161.681 62.5044 161.438 62.505C160.698 62.5062 160.308 62.319 159.507 62.3094C158.783 62.3013 158.883 62.4452 158.748 62.4402C154.845 62.2937 156.332 61.5145 154.51 62.4369C154.316 62.3109 154.122 62.1849 153.928 62.059C153.67 62.1641 153.412 62.2692 153.153 62.3743C152.001 62.3644 150.848 62.3545 149.695 62.3446C150.08 62.5021 150.464 62.6595 150.849 62.817C149.121 62.8873 148.315 62.5716 148.148 62.5643C147.674 62.5459 147.458 62.7441 147.311 62.7445C140.271 62.7274 144.547 62.5529 141.029 61.8085C139.774 62.1006 141.043 62.3935 141.221 62.6907C139.553 62.5512 139.033 62.6335 137.272 62.617C136.814 62.6126 136.321 62.4522 136.032 62.4501C135.781 62.4482 134.999 62.6185 134.397 62.6192C133.396 62.6205 132.062 62.5189 130.69 62.5215C129.549 62.524 126.058 62.6443 123.622 62.6456C122.583 62.6456 122.824 62.5031 122.556 62.5028C122.444 62.5028 121.634 62.6735 120.967 62.6742C115.53 62.678 109.958 62.5699 104.493 62.5731C100.643 62.575 96.7316 62.7123 92.8742 62.6983C92.0534 62.6952 92.4879 62.5699 92.1295 62.5654C92.0064 62.5643 91.8582 62.783 90.5889 62.695C90.1304 62.6633 90.6578 62.5104 90.2069 62.5028C89.9874 62.4992 89.8942 62.6909 88.6115 62.7346C86.2803 62.8145 85.0273 62.5589 84.8193 62.5665C84.4268 62.5812 84.5416 62.7399 84.0216 62.7456C81.4787 62.7735 79.3556 62.8004 77.0863 62.8137C76.0266 62.82 68.7199 62.8521 68.3185 62.8236C67.4208 62.7602 68.2564 62.4289 67.1052 62.4402C66.7827 62.524 66.4602 62.6079 66.1377 62.6918C66.65 62.7555 67.1624 62.8192 67.6747 62.8829C66.2643 62.7764 64.6651 62.9271 63.6207 62.9214C63.4278 62.9201 61.6522 62.7698 60.7465 62.7862C61.1315 62.724 61.5165 62.6617 61.9015 62.5995C61.7653 62.5464 61.6291 62.4933 61.4929 62.4402C59.6819 62.5207 57.7662 62.5186 55.909 62.5072C55.2392 62.5033 55.4656 62.3743 54.7876 62.3699C50.8383 62.3427 51.8357 62.879 48.0362 61.8722C49.3191 61.9635 53.9994 61.8354 54.6797 61.8689C55.1537 61.8924 56.9919 62.7431 56.3175 61.87C60.1095 61.8738 56.8159 62.3554 60.3574 62.2501C60.2866 62.1436 60.2159 62.037 60.1451 61.9304C61.3815 61.8632 62.2947 61.8094 63.0459 61.9974C63.2979 61.4805 67.4985 61.7829 69.8025 61.7481C73.132 61.6986 76.8936 61.5725 80.1922 61.5503C81.3286 61.5428 81.9723 61.7454 82.1148 61.7448C82.3232 61.7433 82.9087 61.5659 83.3247 61.5646C84.8778 61.5595 89.6029 61.8595 90.7782 61.3668C81.5371 61.3668 72.2959 61.3668 63.0547 61.3668C64.2166 61.609 54.8689 61.6327 54.3949 61.6206C53.9562 61.6098 54.3254 61.4398 54.195 61.4295C53.2239 61.3565 52.395 61.603 52.0867 61.603C51.8516 61.603 51.3769 61.4874 50.5408 61.4899C50.3874 61.4902 50.3448 61.6126 50.1799 61.6129C49.0894 61.6129 48.0128 61.6112 46.9184 61.6118C46.8517 61.6106 46.5756 61.432 46.2993 61.4317C46.0223 61.4317 45.7484 61.6102 45.6785 61.6107C44.8037 61.6095 43.3041 61.4934 42.4717 61.4921C42.183 61.4921 42.3832 61.623 42.0596 61.6217C41.0654 61.6185 41.3928 61.3624 40.1635 61.4284C39.7514 61.4506 39.7781 61.6464 38.989 61.6206C38.4303 61.6022 38.4904 61.2532 38.4018 61.2405C38.2794 61.2252 36.3512 61.5008 35.7204 61.2724C37.0987 60.6692 34.2126 61.2409 34.3514 61.4954C33.5872 61.4313 32.8232 61.3672 32.0591 61.3031C31.7985 61.3676 31.5378 61.432 31.2773 61.4965C29.3023 61.3104 27.8206 61.3151 26.2134 61.319C25.2949 61.3201 24.3395 61.2669 23.248 61.0759C23.0882 61.0903 20.5982 60.3878 20.7516 60.2998C22.2704 60.5726 23.7562 60.7683 24.7198 61.1234C25.4094 60.944 25.7922 60.8905 26.2134 60.8967C26.807 60.9031 27.4473 61.0361 28.9726 60.9933C29.8435 60.9686 29.9053 60.8194 30.0055 60.8175C33.3925 60.7434 38.8174 60.6792 41.0992 61.1153C41.7388 60.9973 39.4393 60.9506 40.3333 60.8637C40.821 60.8161 52.5566 60.6768 48.8074 61.179C49.1965 61.1651 49.5857 61.1511 49.9748 61.1372C50.364 60.6629 52.2992 60.7714 52.0796 61.2438C52.263 61.1471 52.4463 61.0504 52.6297 60.9538C52.9919 60.872 53.4205 60.8282 54.0217 60.8022C56.3236 60.7033 70.0188 60.8678 70.747 60.8C70.7636 60.6879 70.7801 60.5759 70.7966 60.4638C64.7463 60.337 58.8769 60.6154 52.2795 60.2946C52.4711 60.3997 52.6627 60.5048 52.8543 60.6099C50.2218 60.4627 47.5893 60.3155 44.9568 60.1683C47.743 59.9781 52.1757 59.8183 55.1006 59.9749C55.6205 60.0028 55.2394 60.1494 55.3589 60.1672C55.6709 60.2133 56.0065 59.959 57.1276 59.9343C58.2493 59.9096 61.0667 60.0899 61.3249 60.0848C61.8226 60.0743 63.1661 59.7834 64.0134 59.7871C65.1271 59.7921 64.3806 59.9722 64.6042 59.976C65.5288 59.9937 66.3579 59.9045 67.0822 59.9178C68.1575 59.9376 70.3916 60.2543 71.1432 59.7893C70.375 59.768 69.6068 59.7468 68.8386 59.7255C73.0044 59.5588 76.2614 60.1532 80.3655 59.6948C81.2981 59.1317 77.907 59.2078 80.7741 58.9675C80.2535 58.9756 79.7329 58.9836 79.2123 58.9917C79.0902 59.1096 78.9682 59.2275 78.8462 59.3454C77.9494 59.2612 77.0527 59.177 76.1559 59.0927C76.4118 59.1978 76.6677 59.3029 76.9235 59.408C73.7443 59.4873 70.5339 59.5951 69.424 59.0301C69.3586 59.1667 69.2931 59.3033 69.2277 59.4399C66.276 59.2738 61.8448 59.8528 62.6727 59.0927C62.5329 59.133 62.3932 59.1733 62.2535 59.2136C60.4693 59.0582 61.2313 59.3725 60.5608 59.408C60.3693 59.418 56.9013 59.2558 58.4383 59.0301C55.055 58.8577 56.0983 59.568 55.1661 59.5992C53.0004 59.2473 49.1046 59.7752 50.7424 59.2191C50.4199 59.1982 50.0974 59.1773 49.7749 59.1565C48.7152 59.594 47.6705 59.0989 46.5222 58.9334C46.133 58.9236 45.7439 58.9137 45.3548 58.9038C45.0942 59.051 44.8336 59.1982 44.573 59.3454C40.912 58.6448 42.0713 60.5609 40.3987 58.951C40.6593 58.8547 40.9199 58.7584 41.1805 58.6621C41.7984 58.6163 42.4163 58.5705 43.0342 58.5248C40.542 58.4823 38.0498 58.4398 35.5576 58.3973C32.3943 57.9461 30.5942 58.4357 27.08 58.0787C26.7911 58.1164 26.5023 58.154 26.2134 58.1916C26.1786 58.1968 26.1438 58.2019 26.109 58.207C26.1375 58.1717 26.1735 58.1403 26.2134 58.1122C26.5653 57.8978 27.1885 57.8792 26.2134 57.7977C26.0329 57.7798 25.7889 57.7568 25.4691 57.7165C25.3822 57.5677 25.7569 57.515 26.2134 57.5119C26.6461 57.5098 27.1391 57.552 27.4621 57.6393C27.6385 57.6875 26.1372 57.885 27.8246 57.892C28.9719 57.8969 26.8887 57.5872 30.3257 57.7019C30.1984 57.6389 30.0709 57.5759 29.9436 57.513C30.3162 57.5148 30.6889 57.5166 31.0615 57.5184C31.3928 57.6642 31.7242 57.8099 32.0555 57.9557C32.9072 57.7452 33.3852 57.4502 35.3313 57.513C34.8034 57.6042 35.5196 57.8969 36.4827 57.892C36.4827 57.7865 36.4827 57.681 36.4827 57.5756C38.8142 57.5077 38.0093 57.8172 39.9477 57.5756C40.1417 57.6594 40.3357 57.7433 40.5296 57.8272C41.5856 57.4816 45.4731 57.2465 44.764 57.7645C45.8546 57.2611 48.145 57.4882 48.9967 57.8909C49.0621 57.7861 49.1276 57.6814 49.193 57.5767C49.6464 57.5554 50.0998 57.5342 50.5532 57.513C50.8061 57.5763 51.059 57.6397 51.312 57.703C51.6333 57.6397 51.9546 57.5763 52.2759 57.513C52.4699 57.6181 52.6639 57.7232 52.8578 57.8283C53.3743 57.7023 53.8908 57.5763 54.4073 57.4503C54.7233 57.5342 55.0393 57.6181 55.3553 57.7019C55.388 57.4827 58.5189 57.4339 59.3934 57.5778C59.654 57.5141 59.9146 57.4503 60.1752 57.3866C60.3026 57.491 60.4299 57.5954 60.5572 57.6997C60.7512 57.6162 60.9452 57.5327 61.1392 57.4492C61.5861 57.5327 62.033 57.6162 62.4799 57.6997C64.3026 57.1881 64.3613 57.637 64.7775 57.6338C65.549 57.6279 68.1765 57.3075 68.6157 57.324C69.0544 57.3406 69.2663 57.5243 69.6204 57.5415C75.4584 57.83 73.0586 57.3372 74.2297 57.2592C74.8617 57.2167 75.3089 57.388 75.8676 57.369C76.8233 57.3373 81.6446 57.1106 81.922 57.1328C82.326 57.1649 81.375 57.9727 82.6879 57.7645C82.7315 57.3307 85.539 57.7686 84.2267 57.1636C85.3829 57.2167 86.5391 57.2698 87.6953 57.3229C87.5642 56.8087 88.99 57.1394 90.543 57.1109C92.7437 57.0709 97.6982 56.7328 97.5172 57.2603C98.0443 57.1391 98.5714 57.0179 99.0984 56.8966C102.705 57.0627 106.243 56.8887 109.822 56.8824C120.447 56.8627 131.974 56.9772 142.548 57.0812C143.056 57.0863 142.983 57.2587 143.349 57.2625C145.272 57.2815 150.27 57.1596 152.964 57.1977C153.827 57.2097 154.247 57.3778 154.521 57.3855C155.449 57.4128 155.23 57.1913 155.658 57.1977C156.333 57.2078 159.901 57.4134 161.13 57.435C161.739 57.4456 162.459 57.2697 163.172 57.324C163.233 57.3284 163.12 57.5098 163.172 57.513C164.47 57.5351 163.689 57.3784 164.129 57.3866C167.261 57.4456 170.61 57.4492 174.009 57.4866C174.853 57.4961 176.144 57.624 176.869 57.636C177.145 57.6403 176.65 57.5026 177.605 57.5141C177.932 57.518 178.044 57.6969 178.413 57.7085C180.004 57.7573 180.537 57.1823 181.904 57.6448C182.301 57.6402 182.742 57.633 183.213 57.624C185.454 57.6289 188.364 56.7905 189.877 56.06C190.304 55.8682 190.556 55.8623 190.954 55.6518C191.237 55.5018 191.642 55.0845 192.054 54.816C192.465 54.5499 193.205 54.235 193.933 53.6076C194.707 52.956 195.485 51.9668 195.627 51.7942C195.805 51.5885 196.039 51.6164 196.211 51.3994C196.762 50.76 197.793 48.7748 198.173 47.79C198.62 46.7452 198.904 46.1181 199.017 45.744C199.12 45.3964 199.062 44.9469 199.097 44.7892C199.152 44.5419 199.356 44.5235 199.419 44.2027C199.517 43.6773 199.486 43.1159 199.547 42.3244C199.581 41.8829 199.596 41.4448 199.595 41C199.583 36.9831 199.58 32.9839 199.585 29C199.8 20.208 191.937 12.3467 183.213 12.4783C181.012 12.4615 178.814 12.4438 176.618 12.4255C174.722 12.4097 173.651 12.5459 170.857 12.4837C169.724 12.4584 170.201 12.258 169.32 12.2959C168.927 12.313 169.026 12.4706 168.529 12.4783C166.333 12.5112 163.773 12.3648 162.821 12.3673C162.444 12.368 162.012 12.5471 161.238 12.5497C155.47 12.57 148.645 12.5197 142.437 12.5508C139.149 12.5672 134.173 12.6585 130.4 12.6705C119.976 12.7041 108.763 12.6626 99.2559 12.6804C84.901 12.7064 70.6151 12.8719 56.2911 12.676C62.9925 13.1091 72.1179 13.0729 79.5785 13.1198C101.128 13.2543 124.073 13.0027 146.158 13.0122C153.842 13.0153 163.531 13.0054 171.943 13.1056C172.324 13.11 173.115 12.9723 173.94 12.9869C174.115 12.9903 176.287 13.2414 177.019 13.244C176.326 12.7976 179.193 13.1954 180.079 13.1847C180.752 13.1762 181.864 13.0921 183.213 13.0539C183.931 13.0282 184.73 13.0722 185.545 13.2426C187.386 13.6768 186.815 13.7923 186.919 13.8112C187.535 14.0369 187.829 13.8404 188.324 13.9753C189.317 14.2221 192.379 15.5129 194.654 17.9857C197.009 20.3862 198.234 23.6914 198.543 25.1307C198.721 25.8795 198.539 25.9381 198.573 26.1052C198.655 26.5491 198.926 27.1709 198.974 27.9082C198.998 28.2655 198.998 28.6315 198.98 29C198.932 30.2652 198.842 31.4859 198.842 32.1638C198.84 34.2635 199.017 38.1518 199.038 41C199.039 41.122 199.038 41.2413 199.036 41.3575C199.018 41.9989 198.829 41.9492 198.811 42.2351C198.804 43.4949 198.181 46.7746 197.371 48.1702C196.208 50.477 194.339 52.4559 192.232 53.9885C192.05 54.0161 191.868 54.04 191.687 54.0604C191.518 54.2724 191.342 54.4815 191.16 54.6868C188.757 56.0427 186.022 56.8422 183.213 56.8839C181.105 56.911 179.002 56.9341 176.918 56.9296C176.279 56.9283 173.111 56.7721 172.583 56.7714C172.144 56.7714 171.712 56.9737 171.06 56.9439C170.148 56.9025 171.006 56.5173 169.516 56.6275C169.115 56.6573 169.504 56.8222 168.699 56.8736C168.433 56.8907 163.272 56.9575 162.995 56.9461C162.532 56.9269 162.12 56.5736 162.001 56.566C161.38 56.5261 161.407 56.7972 160.991 56.8219C159.763 56.896 158.159 56.7136 157.959 56.7176C155.547 56.7677 151.037 56.9841 148.505 56.856C148.155 56.8381 148.197 56.6362 148.135 56.6297C147.739 56.5879 147.492 56.8177 147.115 56.823C145.084 56.849 141.904 56.6943 139.861 56.6549C139.626 56.6507 139.129 56.7612 138.71 56.7505C136.336 56.6884 137.106 56.511 136.971 56.5033C136.651 56.4845 136.089 56.6802 135.238 56.6923C133.045 56.7246 128.84 56.6965 126.489 56.6813C124.728 56.6693 124.755 56.4452 124.639 56.4407C124.392 56.4327 123.706 56.6116 122.547 56.6319C120.316 56.6718 120.57 56.4958 119.653 56.5033C119.576 56.5033 119.71 56.6756 118.693 56.6934C116.727 56.7276 112.312 56.5582 110.208 56.5671C109.399 56.5702 109.209 56.7364 108.381 56.7395C107.067 56.7452 104.103 56.5655 103.869 56.566C103.803 56.566 103.656 56.7571 103.271 56.7571C102.847 56.7571 102.43 56.6587 102.114 56.6593C100.315 56.662 97.2146 56.9956 98.0761 56.3133C97.4995 56.4817 96.9229 56.6502 96.3463 56.8186C92.5774 56.785 88.9161 56.8525 85.1819 56.8868C84.342 56.8943 83.6409 56.7651 82.932 56.7714C82.2233 56.7777 79.0964 56.9915 78.5738 56.9955C77.6412 57.0025 72.3418 57.025 71.6827 57.0098C70.3956 56.9806 69.1469 56.6987 68.6228 56.7538C68.2027 56.7982 68.5912 56.9571 67.7897 57.0021C66.4023 57.08 64.0446 56.8759 63.6207 56.8791C63.4398 56.8804 63.7785 57.0042 62.0837 57.0131C61.1704 57.0182 60.68 56.8817 60.3485 56.8824C60.2455 56.8831 60.4 57.1043 58.5922 57.0746C57.3436 57.0537 56.8112 56.883 56.6801 56.8824C56.4835 56.8812 56.0089 57.0634 55.2191 57.057C53.3731 57.0411 49.9982 56.8323 48.2449 56.8164C47.9059 56.8133 48.0211 57.0333 46.669 57.0131C45.7018 56.9985 45.8708 56.8235 45.5087 56.8164C44.9345 56.8057 44.079 57.02 42.8113 57.0131C41.216 57.0042 29.3697 56.7819 28.7568 56.7242C28.3444 56.6855 27.8662 56.683 27.6619 56.5879C27.837 56.4968 28.0121 56.4056 28.1872 56.3144C30.0014 56.6344 29.2693 56.2687 29.7508 56.2452C30.4483 56.2116 33.077 56.2582 33.7128 56.1771C33.9394 56.1477 33.4207 55.9531 34.6379 55.853C35.9439 55.7459 36.525 56.0924 37.0452 55.619C38.8988 56.1446 40.6792 55.5867 38.5327 55.4377C37.6195 55.3744 30.5757 55.2503 26.2134 55.182C25.2387 55.1612 24.4653 55.044 24.0695 54.9771C22.7107 54.7987 20.1931 54.0985 18.7742 53.1211C17.8927 52.6299 16.0704 50.9521 16.353 50.8274C15.7685 50.1792 16.2302 51.0178 16.0788 50.9108C15.697 50.7232 14.1485 48.4147 13.9534 47.9345C12.808 46.0455 11.856 43.3678 12.0381 41C12.0611 40.4983 12.0927 40.0104 12.1349 39.5412C12.2023 39.7057 12.2697 39.8702 12.3371 40.0347C12.3663 40.2223 12.3787 40.5711 12.3849 41C12.3803 41.97 12.568 43.5058 12.8667 43.6635C12.694 42.7915 12.6073 41.9003 12.6073 41C12.6073 37 12.6073 33 12.6073 29C12.6073 28.9461 12.6076 28.8923 12.6082 28.8386C12.4709 28.8742 12.4009 27.7246 12.5965 26.5653C12.7729 25.4034 13.2223 24.2736 13.32 24.1977C13.4167 24.32 13.5151 24.4395 13.6149 24.5574C12.3899 26.8456 13.1766 26.7915 12.6787 28.4483C12.6634 28.7953 12.7185 28.9219 12.7767 29C12.8369 29.1175 12.9037 29.165 12.9248 29.4222C13.3406 34.4848 12.4729 29.5034 12.6699 33.3789C12.9894 32.2123 13.1061 35.3863 13.1467 36.8085C13.1535 37.0555 13.108 39.5887 13.0883 41C13.0822 41.2927 13.088 41.5102 13.0926 41.5889C13.1216 43.4957 14.2532 46.4713 15.1788 48.0743C15.969 49.3032 16.6869 49.7632 17.6738 50.5967C18.4459 51.208 18.1369 51.1425 18.5061 51.4304C19.3104 52.0166 19.8184 51.7348 20.0437 52.6336C20.6782 52.8754 21.3232 53.0639 21.9729 53.2002C21.9383 53.2998 21.9037 53.3994 21.8691 53.499C22.2696 53.6382 22.6764 53.7577 23.0882 53.8573C23.234 53.7844 23.3775 53.7092 23.5187 53.6316C24.7866 54.0155 24.2175 54.1542 24.4257 54.4926C24.7213 54.5519 25.0183 54.6014 25.3197 54.6413C25.5701 54.4276 25.8046 54.207 26.0327 53.9808C26.0928 53.9825 26.153 53.9838 26.2134 53.9847C28.0912 54.0025 29.969 54.0203 31.8468 54.0381C31.9741 54.1432 32.1015 54.2483 32.2289 54.3534C32.233 54.2483 32.2371 54.1432 32.2412 54.0381C35.5759 54.0165 38.9106 53.9949 42.2453 53.9733C43.1323 53.8047 37.7893 53.6769 37.3848 53.6668C35.134 53.611 29.1571 53.78 29.1495 53.4053C28.5436 53.5264 27.4102 53.582 26.2134 53.5789C25.2111 53.5826 24.1774 53.3198 23.7737 53.0392C24.5681 53.2125 25.3839 53.307 26.2134 53.3204C26.8737 53.3271 27.534 53.3338 28.1943 53.3405C28.13 53.2149 28.0658 53.0893 28.0015 52.9637C30.4793 53.4703 30.8419 53.4424 33.3892 52.9637C33.3915 53.1321 33.3939 53.3006 33.3962 53.469C35.1723 52.8833 38.3118 53.8769 38.4018 53.1537C39.3475 53.2123 40.2932 53.2709 41.2389 53.3295C43.281 53.2413 40.11 52.6852 48.1052 52.9032C48.6563 52.9185 48.5414 53.1027 49.3699 53.09C49.6088 53.0862 50.977 52.8182 53.5937 52.8461C54.0021 52.8506 54.0329 53.0104 54.4568 53.0307C55.4354 53.0789 57.3848 52.7628 56.4997 53.2779C60.3759 53.4281 58.7695 53.0053 59.9718 52.8373C60.7731 52.7258 60.6118 53.0306 61.3054 52.9615C62.1637 52.8758 61.5338 52.5685 64.9703 52.7099C64.5847 52.7308 64.1991 52.7516 63.8135 52.7725C64.0075 52.856 64.2015 52.9395 64.3954 53.023C66.3568 52.8226 66.1715 53.1154 67.0963 52.6462C68.5221 52.8554 69.7558 52.8721 71.7057 52.834C75.4938 52.7598 73.5518 52.2542 77.8751 52.9351C78.5756 52.8395 79.276 52.7439 79.9764 52.6484C81.1278 52.8493 80.1965 53.1008 81.915 53.1515C80.57 52.655 84.1959 52.8361 84.8087 52.3935C84.8729 52.499 84.9372 52.6044 85.0015 52.7099C85.3853 52.7099 85.7691 52.7099 86.1529 52.7099C86.1541 52.6253 86.1553 52.5407 86.1564 52.4561C86.6676 52.5195 87.1788 52.5828 87.69 52.6462C88.0744 52.5623 88.4588 52.4784 88.8432 52.3946C89.4752 52.5715 90.1073 52.7483 90.7393 52.9252C91.1361 52.9373 91.5329 52.9494 91.9297 52.9615C91.8041 52.8355 91.6785 52.7095 91.5529 52.5835C92.0629 52.6257 92.5729 52.6678 93.0829 52.7099C92.4894 52.5032 92.8624 52.2608 94.4501 52.2671C95.7603 52.2722 94.2845 52.7037 97.1015 52.5242C97.2981 52.5114 97.6459 52.2037 100.308 52.1562C103.501 52.0992 101.95 52.322 102.519 52.3298C102.631 52.331 103.606 52.1762 104.52 52.154C105.038 52.1414 105.537 52.2664 105.606 52.266C105.925 52.2603 106.019 52.0835 106.462 52.0771C107.587 52.0619 109.097 52.1485 110.199 52.1397C110.7 52.1359 111.171 52.0311 111.395 52.0299C111.742 52.0286 112.181 52.1887 112.532 52.188C113.827 52.1847 115.792 51.6537 116.393 52.3913C117.638 51.713 120.245 52.5331 120.055 52.0782C123.381 52.2499 132.252 51.6918 131.992 52.4561C133.876 51.8026 133.707 52.2759 134.497 52.266C135.379 52.2553 134.922 52.1285 135.623 52.1342C137.261 52.1475 138.826 52.202 140.455 52.2045C140.2 52.3093 139.944 52.414 139.688 52.5187C141.399 52.5523 140.81 52.3086 142.555 52.2617C145.765 52.1761 144.412 52.3705 144.886 52.6451C144.759 52.38 148.544 52.4212 148.93 52.4561C149.159 52.4774 148.152 52.819 150.47 52.7088C150.343 52.6037 150.217 52.4986 150.09 52.3935C151.146 52.5372 154.014 52.3548 154.501 52.3902C154.725 52.4067 155.92 53.2543 157.015 52.5835C157.147 52.6886 157.279 52.7937 157.411 52.8988C158.626 52.7725 159.841 52.6462 161.056 52.5198C161.25 52.7091 161.444 52.8985 161.638 53.0878C162.024 53.0878 162.409 53.0878 162.795 53.0878C162.539 52.9197 162.283 52.7516 162.027 52.5835C164.408 52.6596 167.317 52.3946 167.808 52.9615C168.318 52.8564 168.827 52.7513 169.337 52.6462C169.669 52.8348 170.001 53.0233 170.333 53.2119C172.695 53.1644 172.734 53.0383 174.348 52.8373C174.285 52.9845 174.222 53.1317 174.159 53.279C175.35 53.0723 177.524 52.8798 179.243 52.8538C180.06 52.8418 181.462 53.0447 181.655 53.0263C181.778 53.0141 182.582 52.6939 183.213 52.6302C183.434 52.5928 183.616 52.6375 183.672 52.8914C185.327 52.5002 186.053 52.5697 186.716 52.3773C187.135 52.2396 187.268 52.018 187.713 51.8175C188.35 51.5285 189.009 51.2548 189.35 51.0292C189.546 50.9001 189.494 50.7401 189.623 50.6487C190.224 50.2 189.967 50.5967 190.592 50.0951C190.65 50.0456 190.974 49.5303 191.444 49.0848C191.715 48.8464 192.495 48.2582 192.542 48.1826C192.761 47.8691 192.249 47.8965 193.363 47.097C193.272 47.0854 193.181 47.0732 193.09 47.0601C193.688 45.6219 194.044 45.5235 194.203 45.2376C194.221 45.1994 194.217 44.793 194.304 44.5838C194.452 44.2303 194.681 44.1298 194.712 44.0477C194.829 43.759 194.953 42.7442 195.192 42.0788C194.914 42.1202 194.78 41.5999 194.729 41C194.676 39.8972 194.782 38.6096 195.113 38.1528C194.987 37.4477 194.861 36.7426 194.734 36.0374C194.84 35.7184 194.945 35.3995 195.051 35.0805C194.946 34.8865 194.84 34.6926 194.735 34.4986C194.967 33.4709 195.198 32.4433 195.43 31.4156C195.198 31.3502 194.966 31.2848 194.734 31.2193C194.761 30.9316 194.787 30.6439 194.813 30.3562C194.998 30.1315 195.182 29.9069 195.366 29.6823C195.344 29.4548 195.322 29.2274 195.299 29C195.286 28.9185 195.273 28.8376 195.258 28.7572C195.124 28.7055 194.989 28.6556 194.854 28.6077C194.613 27.5261 196.029 27.8454 194.459 25.9501C194.474 25.6023 194.473 25.2491 194.455 24.8934C193.848 24.7119 193.864 23.9582 193.534 23.4736C193.303 23.1395 193.143 23.259 192.852 22.8063C192.553 22.3595 192.714 22.2667 192.692 22.2302C192.439 21.8582 192.093 21.7057 191.907 21.4391C191.878 21.3999 191.974 21.1507 191.691 20.833C191.403 20.5183 191.056 20.517 190.614 20.0836C190.384 19.864 190.429 19.6539 190.208 19.4679C189.098 18.5517 187.541 18.9117 186.961 17.5011C186.68 17.538 184.965 17.6523 184.287 17.5963C183.232 17.4748 183.609 17.2916 183.213 17.2319C183.197 17.2307 183.18 17.2296 183.162 17.2286C183.054 17.2223 182.48 17.2996 180.896 17.2857C180.613 17.2832 180.679 17.4125 180.638 17.4143C178.792 17.4117 175.208 17.3096 173.181 17.2912C173 17.2893 172.052 17.6498 170.445 17.1649C168.063 17.5231 163.578 16.7535 160.437 17.2934C160.002 17.3048 159.473 17.1759 159.28 17.1803C157.619 17.2202 158.228 17.6117 154.475 17.0385C154.779 17.2382 153.9 17.4185 152.66 17.4033C150.795 17.3804 152.12 17.0081 150.621 17.0385C150.621 17.1436 150.621 17.2487 150.621 17.3538C147.172 17.0711 146.486 17.5205 143.026 17.523C141.781 17.5237 139.942 17.2908 139.645 17.2901C139.531 17.2908 138.169 17.5442 138.039 17.5461C137.307 17.5537 136.894 17.4369 136.262 17.4362C134.173 17.4338 131.681 17.7634 132.132 17.1649C131.558 17.2912 130.983 17.4176 130.409 17.5439C128.239 16.9048 126.617 17.7856 126.162 17.1649C125.774 17.293 125.386 17.4212 124.998 17.5494C115.693 17.4846 106.388 17.4198 97.0821 17.3549C96.7122 17.5547 92.6543 17.4838 92.4462 17.4527C91.4907 17.3119 92.5 16.8764 90.5501 16.9759C90.3343 17.1667 90.1185 17.3575 89.9027 17.5483C87.452 17.6104 88.6307 17.4206 87.6635 17.2912C87.2593 17.3147 87.3898 17.4628 86.8428 17.4736C83.8755 17.5325 77.7912 17.5395 74.5464 17.5516C73.8921 17.5541 73.9908 17.4157 73.7876 17.4154C73.229 17.4166 72.1265 17.591 71.0053 17.5911C64.0728 17.5899 54.2494 17.4915 47.2704 17.345C46.7964 17.3349 46.7377 17.1698 46.4179 17.1616C45.9746 17.1509 44.9844 17.2843 44.5182 17.2703C44.0791 17.2577 43.7978 17.1323 43.3279 17.1176C41.1775 17.0492 38.2864 17.261 35.9858 16.8913C35.7923 16.8601 33.3819 16.1956 33.3273 16.152C33.0075 15.8933 35.1495 15.4868 31.6311 15.1083C34.7757 14.7779 33.7933 14.194 29.7084 13.9086C31.7572 13.835 33.8061 13.7614 35.8549 13.6878C35.8578 13.6186 35.8608 13.5494 35.8637 13.4802C33.9986 13.1372 32.1482 13.023 29.3122 12.9913C29.4007 12.9272 29.4891 12.8631 29.5776 12.799C32.0824 12.4788 35.1041 12.4197 37.0116 11.9828C34.2141 11.6594 31.4165 11.3361 28.6189 11.0127C28.7586 10.9622 28.8983 10.9117 29.0381 10.8611C30.3792 10.7299 33.3085 10.6528 34.4222 10.5304C38.6757 10.0638 30.6994 10.1812 32.0096 9.89655C36.5005 9.9068 40.9913 9.91705 45.4822 9.92731C45.6397 9.71767 28.3631 9.1386 28.5411 8.50572C29.9525 8.46324 31.364 8.42076 32.7755 8.37828C32.1464 8.21752 31.5173 8.05676 30.8882 7.896C31.0615 7.8451 31.2349 7.79419 31.4082 7.74329C33.7895 7.61842 36.1709 7.49354 38.5522 7.36867C31.3121 7.49419 27.9476 7.40308 26.2134 6.13714C26.4097 6.10492 26.606 6.07269 26.8024 6.04046C28.3708 6.83242 35.7744 6.57627 39.709 6.41838C38.907 6.1864 35.4426 6.36561 34.7105 6.22613C34.503 6.18614 35.2265 6.02512 34.7459 5.94269C33.4896 5.72838 28.1363 5.45265 28.9143 5.19015C29.4152 5.02149 38.0288 4.79008 39.709 4.80784C35.7706 4.50476 31.7127 4.41708 27.7628 4.0487C30.256 3.53511 32.4641 2.9066 37.0152 2.8787C38.4023 2.60922 28.7681 2.23591 28.5446 2.0888C30.2119 1.93097 31.8793 1.77314 33.5466 1.61531C32.1364 1.65742 30.7261 1.69953 29.3158 1.74165C29.3116 1.68891 29.3075 1.63618 29.3034 1.58345C32.9567 1.3387 36.2989 0.889459 40.4802 0.919893C40.3453 0.640903 37.8435 0.668653 36.6296 0.666118ZM15.1859 46.8213C15.3625 46.6707 15.7808 47.5106 16.088 47.9456C16.0775 47.856 16.0681 47.7667 16.0598 47.6777C16.5947 48.6687 18.0607 50.2297 18.4256 49.9108C19.0553 50.372 18.5493 50.45 18.7225 50.6471C18.795 50.7319 19.7469 51.1639 20.3513 51.7948C20.5271 51.8894 20.7053 51.9797 20.8858 52.0657C20.9846 51.9499 21.0821 51.8333 21.1785 51.716C21.3446 51.9918 21.5262 52.2647 21.7218 52.5328C18.9823 51.5089 16.5939 49.4292 15.1879 46.8252C15.1872 46.8239 15.1866 46.8226 15.1859 46.8213ZM51.8833 53.2757C53.6135 53.3587 56.264 53.4899 55.7285 53.0867C54.6354 53.1079 53.5424 53.1292 52.4493 53.1504C52.2606 53.1922 52.0719 53.2339 51.8833 53.2757ZM195.807 31.6173C196.038 30.7734 196.018 29.9686 195.975 29C195.943 28.5516 195.881 28.0625 195.842 27.4715C195.759 27.4832 195.675 27.495 195.592 27.5067C195.735 27.7952 195.801 28.3647 195.796 29C195.794 29.8813 195.779 30.8315 195.807 31.6173ZM19.3861 16.7931C19.5957 16.7112 19.8055 16.6353 20.0171 16.5643C19.4347 17.3755 19.1515 17.1668 18.3374 17.7727C18.2894 17.8099 18.3663 17.882 18.3495 17.8947C18.1552 18.0412 17.8994 18.0782 17.7252 18.218C17.392 18.4901 17.2009 18.804 16.6594 19.3264C16.246 19.7358 16.1028 19.6122 15.9653 19.7684C15.8247 19.9062 15.163 21.5589 14.4575 22.3993C13.7834 23.2367 14.3353 21.5823 15.6614 19.9295C16.9479 18.2404 19.0834 16.91 19.3861 16.7931ZM25.527 15.4064C25.3164 15.4186 25.1068 15.4356 24.8994 15.4572C25.5076 15.1031 24.2188 15.2308 23.2967 15.4497C23.2562 15.1325 25.2898 14.9312 26.2134 14.8897C25.9744 15.0563 25.7457 15.2288 25.527 15.4064ZM11.9778 37.4294C11.9481 36.2274 12.3121 36.4277 12.4206 36.4778C12.4206 36.8604 12.4206 37.243 12.4206 37.6257C12.273 37.5602 12.1254 37.4948 11.9778 37.4294ZM11.8581 28.5573C11.9159 28.6242 11.9628 28.7838 12.007 29C12.1459 29.9429 12.2118 31.6711 12.2272 32.6095C12.2272 32.6635 12.0915 32.3238 12.1042 33.1985C12.1081 33.4612 12.6019 36.0452 12.0415 35.4766C11.9836 33.3178 11.9257 31.1589 11.8678 29C11.8623 28.8527 11.8591 28.706 11.858 28.5598C11.8581 28.559 11.8581 28.5581 11.8581 28.5573ZM12.1827 26.6948C12.2033 27.0516 12.2374 27.4066 12.2847 27.7556C12.1536 27.9224 12.0253 28.0951 11.9002 28.2727C11.8911 27.867 11.8984 27.4649 11.923 27.0603C12.008 26.9362 12.0944 26.8153 12.1827 26.6948ZM91.7599 14.4546C91.8743 14.5788 91.9887 14.7029 92.1031 14.8271C92.5462 14.9031 94.7007 14.3626 94.0186 14.258C93.2657 14.3235 92.5128 14.3891 91.7599 14.4546ZM82.6615 14.1943C82.2134 14.1316 81.7653 14.069 81.3172 14.0064C80.8019 14.217 80.2866 14.4275 79.7713 14.6381C82.0098 14.7801 84.3916 14.9437 84.0075 14.3228C84.5198 14.3228 85.0322 14.3228 85.5445 14.3228C85.1131 14.5795 85.1711 14.6641 86.512 14.8271C86.8053 14.4698 88.1918 14.6518 89.7789 14.5733C88.6245 14.5524 87.4701 14.5315 86.3157 14.5107C86.3157 14.4477 86.3157 14.3847 86.3157 14.3217C88.8888 14.3445 85.6908 13.9449 84.0145 14.1954C83.8825 14.1115 83.7504 14.0276 83.6183 13.9438C83.2994 14.0273 82.9804 14.1108 82.6615 14.1943ZM172.61 55.6783C172.929 55.7416 173.248 55.805 173.567 55.8684C174.803 55.0432 172.286 55.8259 170.494 55.1729C171.086 55.669 168.355 55.6483 168.198 55.6816C168.513 55.8486 168.827 56.0156 169.141 56.1826C170.297 56.0145 171.454 55.8464 172.61 55.6783ZM181.652 56.2474C181.153 56.0618 181.984 55.9548 183.213 55.9015C184.341 55.8548 185.874 55.6496 186.608 55.5141C186.931 55.4651 187.564 55.5217 187.787 55.4185C187.901 55.2946 188.012 55.1695 188.121 55.0433C188.397 55.3061 190.732 53.9182 191.447 53.1555C191.586 53.1879 191.727 53.2183 191.868 53.2468C192.157 52.9911 192.435 52.7249 192.701 52.4497C192.731 52.5609 192.761 52.6725 192.789 52.7845C192.937 52.5012 193.075 52.2158 193.202 51.9292C193.918 51.0533 193.825 51.9437 194.293 51.1984C194.781 50.3644 193.491 51.2796 193.352 51.0834C192.893 51.6627 191.651 52.8301 190.999 53.2241C190.617 53.4455 190.893 52.9075 189.44 54.1587C189.023 54.2391 188.607 54.2996 188.193 54.3409C187.561 54.7572 186.884 55.1282 186.167 55.446C185.998 55.3304 185.833 55.212 185.672 55.0908C185.601 55.1064 183.911 55.6168 183.995 55.7009C183.788 55.6319 183.523 55.5804 183.213 55.5335C182.151 55.4149 180.697 55.3864 179.188 55.3762C178.985 55.456 178.782 55.5358 178.579 55.6157C180.617 55.4433 179.228 55.7001 179.835 55.853C180.186 55.9411 181.258 56.1142 181.652 56.2474ZM105.958 14.1327C102.536 14.491 104.654 14.1954 100.956 14.1954C101.214 14.3851 101.472 14.5747 101.73 14.7644C103.549 14.4179 106.541 14.6483 105.961 14.1327C105.96 14.1327 105.959 14.1327 105.958 14.1327ZM69.7637 14.7633C71.721 14.6486 70.7388 14.3536 73.2198 14.2591C73.221 14.2591 73.2222 14.2591 73.2234 14.2591C71.9404 14.2378 70.6575 14.2166 69.3746 14.1954C69.5043 14.3847 69.634 14.574 69.7637 14.7633ZM183.922 14.5506C185.266 14.7307 185.036 14.5608 186.176 15.0709C188.02 15.1511 186.527 14.8304 186.589 14.5153C186.148 14.5108 185.712 14.5269 185.28 14.562C184.294 14.1329 185.285 14.0989 185.294 14.0736C185.293 14.0735 185.293 14.0734 185.292 14.0733C185.304 13.9776 185.344 13.958 184.942 13.8513C184.586 14.0726 184.248 14.3064 183.922 14.5506ZM189.682 15.6084C189.151 15.6029 188.88 15.7535 189.888 16.4203C189.889 16.4207 189.889 16.4211 189.89 16.4215C190.208 16.0341 191.039 16.9639 191.475 17.2505C191.62 17.2881 191.764 17.3281 191.908 17.3707C191.233 16.7195 190.487 16.1272 189.682 15.6084ZM198.523 34.8877C197.991 34.8949 197.94 33.475 197.45 35.4732C197.46 35.8611 197.469 36.2491 197.479 36.637C197.595 36.8917 197.712 37.1464 197.829 37.4011C197.497 39.0978 197.474 40.3839 197.562 41C197.632 41.3709 197.781 41.4165 197.895 41C198.039 40.277 198.119 38.5406 197.893 35.4732C197.892 35.472 197.892 35.4708 197.892 35.4696C198.102 35.2757 198.313 35.0817 198.523 34.8877ZM198.333 26.8786C198.049 26.8698 197.766 26.8637 197.483 26.8602C198.023 25.9603 197.217 25.0857 197.09 23.4684C196.958 23.3665 196.825 23.2682 196.691 23.172C196.672 22.8674 196.043 21.3859 195.204 20.2968C194.384 19.1947 193.488 18.4862 193.771 19.0762C194.009 19.5824 194.923 20.3346 194.974 20.43C195.16 20.7211 195.214 21.2181 195.515 21.6958C195.69 21.9686 196.279 22.4462 196.555 23.0746C197.206 24.4553 197.151 27.0558 197.694 29C197.716 29.1014 197.74 29.2015 197.765 29.3002C197.681 29.4983 197.597 29.6964 197.513 29.8945C197.564 31.9362 197.831 31.2547 197.513 33.1543C198.307 33.94 198.127 31.0481 198.085 29C198.056 27.9742 197.987 27.2307 198.474 27.7558C198.474 27.7549 198.474 27.754 198.474 27.7531C198.435 27.4608 198.388 27.1673 198.333 26.8786ZM155.635 14.1327C155.512 13.8944 153.144 14.2622 153.7 13.6911C152.927 13.89 152.154 14.0888 151.381 14.2876C151.387 14.3407 151.393 14.3938 151.399 14.4469C152.167 14.4052 152.935 14.3635 153.704 14.3217C153.706 14.4059 153.709 14.4902 153.712 14.5744C154.857 14.2697 159.635 14.4024 159.489 14.7007C159.744 14.5747 160 14.4488 160.255 14.3228C162.54 14.6658 164.506 14.3011 166.996 14.6359C167.189 14.5315 167.381 14.4272 167.574 14.3228C167.7 14.407 167.825 14.4913 167.951 14.5755C168.858 14.5861 169.764 14.5967 170.671 14.6073C173.626 14.2682 167.885 13.8291 167.189 13.879C167.096 13.8859 167.11 14.104 166.532 14.1382C165.506 14.1983 159.759 13.9812 157.982 14.1251C157.967 13.9804 157.951 13.8358 157.936 13.6911C157.169 13.8383 156.402 13.9855 155.635 14.1327ZM197.523 44.5582C197.358 44.615 197.191 44.6693 197.025 44.7207C196.745 46.3068 196.127 47.1685 196.758 46.9897C196.758 46.9889 196.758 46.9881 196.759 46.9873C197.084 46.1997 197.34 45.3865 197.523 44.5582ZM43.4056 55.6157C43.4643 55.9083 44.5345 56.0177 45.9173 55.8079C45.8506 55.723 45.784 55.638 45.7174 55.5531C44.9967 55.8022 44.0975 55.3679 41.8739 55.4256C41.8739 55.5728 41.8739 55.72 41.8739 55.8673C42.3845 55.7834 42.8951 55.6995 43.4056 55.6157ZM197.86 43.1733C198.124 42.6868 197.68 41.242 197.593 42.1596C197.52 42.8468 197.725 43.4238 197.86 43.1733ZM62.0643 14.4788C62.5702 14.5096 63.076 14.5403 63.5819 14.5711C63.8454 14.4458 64.109 14.3206 64.3725 14.1954C64.3713 14.1954 64.3702 14.1954 64.369 14.1954C63.6007 14.2898 62.8325 14.3843 62.0643 14.4788ZM177.771 14.5579C179.487 14.5396 181.202 14.5213 182.918 14.503C182.935 14.4213 182.952 14.3396 182.969 14.258C181.251 14.556 180.56 14.2348 180.159 14.2151C180.161 14.2151 180.162 14.2151 180.164 14.2151C178.877 14.1505 177.651 14.1029 176.434 14.0053C176.88 14.1895 177.325 14.3737 177.771 14.5579ZM171.89 14.0427C172.179 14.6197 172.556 14.6868 175.192 14.2811C175.088 14.21 174.983 14.139 174.879 14.0679C173.513 14.1104 172.717 14.2436 172.956 13.9427C172.601 13.976 172.245 14.0093 171.89 14.0427ZM193.573 18.4682C193.553 18.1472 191.992 17.0871 192.008 17.2455C192.055 17.2687 193.662 19.0185 193.573 18.4682ZM24.8329 55.6797C25.2538 55.7609 25.6809 55.8242 26.1148 55.8691C25.5372 55.928 24.958 55.9544 24.3742 55.9466C24.5296 55.86 24.6838 55.7711 24.8329 55.6797ZM19.9984 55.2745C19.7505 55.0717 20.8422 55.0443 19.2636 54.1139C20.4429 54.7284 21.7013 55.1804 22.9975 55.4555C22.3736 55.4035 21.7461 55.3101 21.1236 55.1756C21.1768 55.3531 21.2336 55.5305 21.2941 55.7079C20.8575 55.5832 20.4244 55.4384 19.9984 55.2745ZM18.8419 54.2784C19.274 55.0586 15.9227 52.9159 15.7592 52.5243C15.7038 52.4601 15.6256 51.9769 15.5728 51.833C15.9899 52.2423 16.4307 52.6278 16.8915 52.9864C16.7951 52.792 16.7041 52.597 16.6179 52.4013C17.1518 52.8091 17.7115 53.1797 18.2906 53.5093C17.9997 53.4365 17.7085 53.3537 17.4176 53.2609C17.8714 53.6265 18.3468 53.9663 18.8419 54.2784ZM36.4827 56.0881C35.8395 56.0782 35.1962 56.0683 34.553 56.0584C34.6815 56.2056 34.8101 56.3528 34.9386 56.5C35.3236 56.5 35.7086 56.5 36.0936 56.5C36.2233 56.3627 36.353 56.2254 36.4827 56.0881ZM24.0464 56.1262C24.8045 55.5333 26.6777 57.1933 24.3989 56.4407C24.1721 56.356 23.9696 56.1843 24.0464 56.1262ZM14.7704 51.4178C13.3601 50.566 14.4604 50.1362 15.1604 51.412C15.1974 51.4772 14.8774 51.4793 14.7704 51.4178ZM10.7221 40.7776C10.726 40.6156 11.0954 40.3324 10.7441 38.786C10.7862 38.5307 10.8283 38.2754 10.8704 38.0201C10.956 38.318 11.0243 39.7384 11.0259 41C11.0246 41.9698 11.0701 42.8133 10.856 42.5638C10.7974 42.0208 10.7228 41.5559 10.7207 41C10.7206 40.9271 10.7211 40.853 10.7221 40.7776ZM9.82034 44.9513C9.98086 45.5763 10.178 46.1927 10.4091 46.7932C10.4448 46.5543 10.4856 46.3179 10.5315 46.084C10.6573 46.3702 10.7904 46.6501 10.9317 46.9272C10.9364 47.4909 10.9724 48.0641 11.0411 48.643C10.3744 47.3935 9.86522 46.0597 9.52959 44.6765C9.62579 44.7699 9.72273 44.8615 9.82034 44.9513ZM20.9022 57.3058C19.7566 56.7746 18.2542 56.3298 16.5592 55.1505C16.5586 55.1496 16.5579 55.1488 16.5573 55.1479C16.4735 55.0881 16.4146 54.8561 16.1561 54.658C16.0447 54.5778 14.8575 53.7412 13.9181 52.7534C12.9641 51.7805 12.2665 50.7098 12.4992 50.81C13.9363 52.3535 14.3111 53.1013 15.0727 53.0171C15.0602 53.1778 15.05 53.3394 15.0421 53.5019C16.4407 54.9969 17.2359 54.9162 18.2593 55.3308C18.2092 55.4119 18.159 55.493 18.1088 55.574C18.7612 55.9487 19.4405 56.2796 20.138 56.5623C20.0618 56.4654 19.9873 56.3679 19.9143 56.27C20.1573 56.3704 20.4042 56.4654 20.6518 56.554C21.1585 57.0361 21.9611 57.3343 20.9022 57.3058ZM9.54461 42.045C9.3797 41.9237 9.25559 41.5524 9.19418 41C8.97557 38.7002 9.25197 33.9394 9.13354 31.4722C9.5684 33.1293 9.26872 35.6964 9.26428 37.5036C9.25608 40.9974 9.52222 38.5824 9.6389 39.1751C9.67493 39.358 9.50789 40.1995 9.4453 41C9.40725 41.4083 9.42421 41.7992 9.54461 42.045ZM25.4402 58C23.9697 57.8617 23.1053 57.8787 21.933 57.3128C22.0496 57.2888 22.1641 57.2632 22.2788 57.2366C22.6585 57.4821 26.178 57.9704 25.4402 58ZM9.41908 27.1807C9.20533 28.2872 9.26495 28.7615 9.31551 29C9.40091 29.4326 9.52386 29.2413 9.22693 30.3013C9.2152 29.8675 9.20347 29.4338 9.19175 29C9.17236 28.3844 9.18544 27.7715 9.23119 27.1606C9.29382 27.1673 9.35645 27.174 9.41908 27.1807ZM200.735 40.0861C200.751 38.6683 200.883 37.085 200.611 36.2373C200.569 37.2007 200.526 38.164 200.484 39.1274C200.568 39.447 200.651 39.7665 200.735 40.0861ZM175.114 61.1834C175.438 61.2487 176.718 61.0559 176.853 61.0559C177.104 61.0559 177.035 61.1509 177.039 61.1757C178.679 61.1585 177.166 60.864 178.379 60.8C178.587 60.7894 181.438 60.935 182.598 60.923C182.804 60.9209 183.009 60.9193 183.213 60.918C184.775 60.9158 186.22 60.7103 186.798 60.597C187.908 60.4023 189.857 59.6505 191.491 58.8578C192.165 58.5336 192.48 58.5694 193.141 58.1883C197.824 56.1073 202.858 47.3489 202.805 42.9327C202.893 42.2337 203.027 41.5534 203.091 41C203.124 40.7214 203.146 40.4788 203.14 40.2877C203.055 39.8379 202.971 39.388 202.886 38.9382C203.647 37.5547 202.97 37.0919 202.899 35.6005C202.854 34.6531 203.08 34.2102 203.079 34.0829C203.075 33.2392 202.967 32.8229 202.95 32.1603C202.93 31.4165 203.032 30.3479 203.013 30.082C203.004 29.9544 202.818 30.245 202.741 29C202.718 28.6569 202.699 28.2064 202.657 27.5904C202.458 24.7319 201.664 21.9427 200.236 19.389C199.914 20.6682 200.814 21.0938 201.273 22.1994C201.392 22.4931 201.188 22.3544 201.286 22.6091C201.573 23.3242 202.087 24.7259 202.161 25.3703C202.246 26.061 201.885 25.8779 202.119 26.7207C202.131 26.764 202.251 26.6082 202.298 26.8109C202.496 27.6984 202.529 28.3444 202.511 29C202.484 29.8758 202.406 30.7715 202.403 32.3106C202.4 33.3745 202.446 37.614 202.466 41C202.489 43.2914 202.033 45.1324 201.969 45.2684C201.478 46.149 202.096 43.7528 202.021 41C201.97 38.2437 201.979 35.1752 201.997 34.518C202.011 34.0445 202.162 34.541 202.192 34.1095C202.203 33.9266 201.914 32.282 201.889 30.6569C201.883 30.1962 201.888 29.6264 201.901 29C201.976 27.0819 201.619 24.5939 201.178 23.3134C198.81 15.6452 191.214 10.0485 183.213 10.1213C175.637 10.0858 168.061 10.0456 160.437 10.0438C160.094 10.0438 159.643 10.2173 158.525 10.2173C137.669 10.2142 116.053 10.0773 94.9313 10.1591C90.3264 10.1769 85.7593 10.3401 81.112 10.2107C80.5354 10.3375 79.9588 10.4642 79.3822 10.5909C80.8571 10.4901 83.5597 10.7767 83.8058 10.7809C83.8945 10.7822 84.4537 10.6393 85.3553 10.6469C86.6231 10.657 87.1792 10.7809 87.2832 10.7809C87.6057 10.7813 87.3944 10.6496 87.7024 10.6502C89.9992 10.6559 91.7762 10.6185 93.8842 10.6172C96.2654 10.616 97.4724 10.8614 99.2064 10.592C99.4027 10.6971 99.5991 10.8022 99.7954 10.9073C101.091 10.4527 108.806 10.503 111.931 10.5271C112.917 10.5348 112.744 10.7194 113.075 10.7194C113.287 10.7192 113.203 10.4775 115.783 10.5249C117.082 10.549 117.422 10.7251 118.074 10.7194C118.428 10.716 118.37 10.5414 118.878 10.5414C121.819 10.5414 124.219 10.5981 127.098 10.6304C127.907 10.6393 127.916 10.785 128.097 10.7831C128.764 10.7766 129.924 10.5298 131.619 10.5304C134.409 10.5317 139.969 10.5326 142.251 10.6524C142.586 10.6701 142.864 10.845 143.11 10.8424C143.484 10.838 143.63 10.6556 143.696 10.6546C144.944 10.6514 144.193 10.821 145.03 10.7798C145.48 10.7576 145.95 10.5496 146.998 10.526C148.382 10.495 148.109 10.7419 148.687 10.7172C148.748 10.7133 148.767 10.5416 149.335 10.5359C151.489 10.5156 154.614 10.476 156.652 10.4766C157.238 10.4766 157.673 10.5922 158.49 10.5942C160.135 10.598 169.488 10.5243 170.256 10.5909C170.336 10.5978 169.505 10.8511 170.83 10.8435C171.215 10.7381 171.6 10.6326 171.985 10.5271C172.629 10.696 173.273 10.8648 173.917 11.0336C173.894 10.4503 177.681 10.3602 177.644 10.9567C178.058 10.9809 178.473 11.005 178.887 11.0292C179.75 10.6171 180.325 10.7692 181.993 10.5271C182.253 10.6535 182.513 10.7798 182.773 10.9062C182.838 10.8219 182.904 10.7377 182.969 10.6535C183.047 10.6932 183.129 10.726 183.213 10.7527C184.022 11.0242 185.15 10.7468 185.307 10.7671C185.932 10.8281 186.375 11.0256 186.661 11.0761C187.734 11.2308 190.06 11.8028 191.172 12.4642C191.224 12.4943 191.088 12.6423 191.398 12.8251C191.949 13.161 192.158 12.9419 192.722 13.678C192.914 13.6983 193.107 13.7221 193.301 13.7492C193.432 13.8887 193.562 14.0303 193.688 14.1731C194.596 14.7882 195.45 15.4869 196.236 16.258C195.295 15.7972 195.993 16.6956 196.878 17.3383C197.181 17.5593 197.126 17.1828 197.228 17.2566C197.502 17.2687 200.037 21.5465 199.887 21.9634C200.036 22.1519 200.181 22.3447 200.323 22.5418C200.247 22.6976 200.168 22.8514 200.087 23.0028C200.172 23.107 200.255 23.2127 200.337 23.3199C200.606 24.5524 201.577 27.7429 201.487 28.3846C201.478 28.6106 201.213 28.5464 201.074 29C201.012 29.2192 200.974 29.549 200.991 30.0643C201.139 30.1233 201.287 30.1822 201.436 30.2412C201.457 30.6303 201.478 31.0194 201.499 31.4086C201.486 32.1388 201.229 33.2017 201.053 33.2357C201.159 33.4639 201.264 33.692 201.37 33.9202C201.026 34.5329 201.148 37.8006 201.365 39.115C201.262 39.4995 201.158 39.8839 201.055 40.2683C201.114 40.5122 201.174 40.7561 201.233 41C201.299 41.2476 201.361 41.4966 201.417 41.7469C201.397 42.8389 201.252 41.6752 201.221 41.9076C201.211 42.387 201.178 44.9157 200.747 44.6598C200.677 44.9895 200.599 45.3139 200.511 45.6383C200.588 45.8378 200.662 46.0398 200.732 46.2444C200.137 46.6709 200.031 47.7017 198.936 49.4422C198.944 49.6399 198.947 49.8395 198.947 50.04C198.504 50.5239 198.039 50.9785 197.556 51.4014C197.615 51.6027 197.67 51.8059 197.721 52.0114C197.571 52.2487 197.415 52.4827 197.253 52.7136C196.613 52.9122 196.212 53.92 195.72 54.1683C195.008 54.5119 195.297 53.9493 196.187 52.9238C195.989 52.8909 193.058 55.6294 192.184 56.0224C192.264 56.0361 192.344 56.0494 192.424 56.0619C193.219 55.5256 193.968 54.9259 194.661 54.2721C195.731 54.2548 193.596 55.8583 192.56 56.5167C192.469 56.5755 192.061 57.1533 190.914 57.665C190.47 57.8894 188.585 58.1816 188.243 58.2329C185.45 58.7297 187.578 58.8755 184.76 58.7752C185.228 59.0034 184.383 59.0054 183.213 58.9705C182.817 58.9595 182.386 58.9556 181.95 58.9719C181.634 58.9838 178.953 59.2763 178.772 59.2839C177.643 59.3308 178.872 59.0119 177.239 59.0949C177.042 59.1788 176.846 59.2627 176.65 59.3465C176.269 59.3465 175.889 59.3465 175.509 59.3465C173.201 58.5992 172.664 59.1495 171.844 59.2202C171.512 59.2487 171.939 59.0537 171.08 59.0949C170.756 59.1103 170.397 59.2725 169.527 59.2839C166.803 59.3193 165.878 58.6249 163.373 59.3476C162.989 59.2429 162.604 59.1381 162.22 59.0334C161.961 59.159 161.701 59.2846 161.442 59.4102C159.458 59.0458 160.174 59.4191 159.457 59.4146C157.565 59.4032 153.692 59.3318 153.353 59.0312C151.72 59.7216 149.766 58.9428 149.122 58.9697C148.74 59.0536 148.357 59.1374 147.974 59.2213C147.525 59.1371 147.075 59.0528 146.625 58.9686C146.844 59.6465 144.514 58.9799 144.29 58.9697C144.032 58.9596 140.449 59.1602 139.115 59.1565C137.783 59.1527 135.461 58.969 135.257 58.9686C135.022 58.9686 132.755 59.1529 130.982 59.151C129.431 59.149 120.242 58.8872 120.821 59.1894C121.422 59.2731 122.277 59.3457 123.017 59.385C125.314 59.5054 138.795 59.6598 142.24 59.708C149.149 59.8037 156.355 59.7859 163.295 59.8519C163.704 59.8557 163.766 60.0314 164.116 60.0353C164.648 60.0404 165.998 59.8645 166.522 59.8684C168.479 59.8836 170.861 59.9123 171.909 59.9167C174.252 59.9256 175.859 60.0314 177.631 60.0485C178.186 60.0536 180.991 59.8358 182.914 59.9277C183.014 59.9418 183.114 59.956 183.213 59.9701C183.451 60.0054 183.689 60.0363 183.927 60.0629C183.742 60.081 183.498 60.1022 183.213 60.1189C182.003 60.1872 180.134 60.2863 179.165 60.3001C177.37 60.3248 176.433 60.1823 175.77 60.1847C175.216 60.1867 172.38 60.349 171.089 60.3528C170.688 60.3541 170.606 60.1698 170.263 60.1705C168.401 60.1749 165.95 60.1798 164.335 60.3605C164.994 60.3016 160.879 60.1885 160.664 60.1891C160.294 60.1892 159.892 60.3616 159.137 60.3616C157.685 60.3615 157.869 60.0009 156.054 60.3616C155.605 60.2565 155.156 60.1514 154.706 60.0463C154.679 60.5268 149.002 59.8733 147.387 60.4572C147.345 60.5231 154.722 60.7103 155.331 60.7198C158.984 60.7774 164.39 60.6596 167.935 60.7439C169.002 60.7693 172.357 61.0614 172.61 61.0559C173.018 61.0477 172.649 60.8806 172.825 60.8747C176.435 60.7504 174.634 61.0862 175.114 61.1834ZM17.7374 56.2687C18.564 56.7514 19.4314 57.1663 20.3289 57.5072C20.228 57.5832 20.1263 57.6585 20.0229 57.7327C19.6165 57.5385 19.2207 57.3302 18.8334 57.1073C18.4971 57.0222 18.16 56.9258 17.8257 56.8195C17.7934 56.6356 17.7639 56.452 17.7374 56.2687ZM15.4942 55.3391C14.7826 54.8636 14.902 54.6531 14.7586 54.5223C14.3385 54.1217 13.9099 53.8447 13.515 53.4383C14.3382 53.5411 15.1654 54.5926 15.4942 55.3391ZM33.0142 59.0916C32.7998 59.0664 31.3683 58.4976 29.7402 59.0268C28.5646 58.8646 27.389 58.7024 26.2134 58.5402C26.1758 58.5343 26.1383 58.5283 26.1009 58.5222C26.138 58.5277 26.1755 58.5328 26.2134 58.5376C28.2713 58.7686 31.0396 58.5126 32.0325 58.5226C32.4174 58.5264 32.4909 58.701 32.7984 58.7038C34.5711 58.7178 36.2945 58.3222 36.4756 58.9005C34.7993 58.7325 33.2878 59.1227 33.0142 59.0916ZM22.747 58.551C22.5226 58.3838 22.3014 58.2117 22.0891 58.0361C22.9623 58.2467 23.849 58.389 24.745 58.4632C24.4936 58.5651 24.2362 58.6615 23.9747 58.7521C23.564 58.6995 23.1527 58.6321 22.747 58.551ZM101.148 59.2861C100.516 59.2846 99.8844 59.2832 99.2523 59.2817C99.287 59.3698 100.01 59.3694 100.276 59.4289C100.275 59.4289 100.274 59.4289 100.273 59.4289C100.57 59.4961 100.443 59.6095 100.982 59.6596C101.038 59.5351 101.093 59.4106 101.148 59.2861ZM78.6163 10.2129C77.5569 10.2066 67.7735 10.206 68.6069 10.5271C69.027 10.6876 72.373 10.5477 73.3596 10.5502C74.6895 10.5535 78.2811 10.9008 78.6163 10.2129ZM61.2896 10.1503C61.1201 10.4704 67.2344 10.5213 67.8322 10.4656C67.7053 10.42 67.5096 10.3184 67.3405 10.2953C66.5158 10.185 62.6077 10.2378 61.2896 10.1503ZM136.543 60.21C136.05 60.0482 135.557 59.8863 135.064 59.7244C135.194 59.935 135.324 60.1456 135.453 60.3561C135.817 60.3074 136.18 60.2587 136.543 60.21ZM184.299 59.9477C192.137 59.6215 199.369 53.8549 201.476 46.2932C201.37 46.9759 201.224 47.659 201.04 48.3354C198.486 54.7314 191.858 59.4727 185.29 60.1765C184.955 60.1088 184.626 60.0323 184.299 59.9477ZM35.3277 60.0397C37.4316 60.0429 39.1888 59.8882 41.4777 60.1342C39.2965 60.3726 38.2167 60.0038 36.0971 60.355C36.096 60.355 36.0947 60.355 36.0936 60.355C35.8383 60.2499 35.583 60.1448 35.3277 60.0397ZM82.2988 60.1035C81.6591 60.2507 81.0194 60.3979 80.3797 60.5451C81.1491 60.5451 81.9185 60.5451 82.6879 60.5451C82.5582 60.3979 82.4285 60.2507 82.2988 60.1035ZM185.257 9.30753C184.733 9.33076 184.023 9.305 183.213 9.30454C180.608 9.30186 177.023 9.03555 175.663 9.32967C175.547 9.35503 176.61 9.51816 174.891 9.83393C176.19 9.76927 177.106 9.70329 177.203 9.45491C177.589 9.53914 177.974 9.62336 178.36 9.70759C179 9.64387 179.639 9.58015 180.279 9.51643C180.21 9.76372 180.26 9.75055 181.243 9.58125C181.691 9.64387 182.139 9.70649 182.587 9.76911C182.777 9.66438 182.967 9.55964 183.157 9.45491C183.176 9.46202 183.195 9.46914 183.213 9.47626C183.576 9.61563 183.928 9.76482 184.272 9.92315C185.728 9.86933 184.875 9.52482 185.257 9.30753ZM192.477 11.5686C192.348 11.4451 189.976 10.2998 188.012 9.95699C186.054 9.59447 184.717 9.64772 186.871 10.2294C188.005 10.4329 189.121 10.7401 190.202 11.1466C189.605 10.0082 192.286 11.934 192.452 12.123C193.504 12.7762 194.904 13.5384 195.591 14.1381C196.183 14.647 196.417 15.073 196.804 15.4527C198.173 16.7194 199.773 19.1759 200.236 19.389C199.521 18.1101 198.646 16.8913 197.607 15.7744C196.505 14.6362 195.662 13.2938 192.827 12.1225C192.2 11.7181 192.549 11.6251 192.477 11.5686ZM78.4535 60.511C78.5305 60.1716 74.6367 60.2528 74.6118 60.3869C74.6041 60.4655 75.8722 60.4637 76.0533 60.4935C76.0545 60.4935 76.0557 60.4935 76.0568 60.4935C76.1324 60.5065 75.7492 60.6364 76.3452 60.6725C77.048 60.6187 77.7507 60.5649 78.4535 60.511ZM93.8329 9.45381C93.3065 9.26334 81.2823 9.33183 80.9281 9.42305C80.8319 9.44837 80.966 9.53193 80.9281 9.58015C83.7333 9.3114 87.7211 9.62949 90.3838 9.65046C91.1261 9.65613 90.9043 9.52118 90.9463 9.51863C90.9481 9.51863 90.9498 9.51863 90.9516 9.51863C91.3728 9.5183 93.2743 9.84797 93.8329 9.45381ZM171.812 9.48457C172.323 9.53767 172.834 9.59077 173.346 9.64387C173.475 9.53877 173.605 9.43367 173.735 9.32857C173.734 9.32857 173.732 9.32857 173.731 9.32857C173.091 9.38057 172.452 9.43257 171.812 9.48457ZM154.102 9.13851C154.226 9.21249 154.35 9.28646 154.475 9.36043C155.762 9.37068 157.049 9.38094 158.336 9.39119C158.206 9.43294 158.076 9.47468 157.947 9.51643C159.893 9.62803 160.699 9.36806 161.735 9.40547C161.734 9.40547 161.733 9.40547 161.732 9.40547C161.843 9.40982 161.979 9.56395 162.393 9.56916C163.345 9.58121 166.072 9.63856 166.401 9.48347C167.099 9.15258 161.611 9.30964 160.588 9.29451C160.125 9.28754 159.569 9.15267 159.287 9.1495C158.979 9.14654 158.559 9.32868 157.809 9.32308C157.589 9.32118 155.154 9.10689 154.102 9.13851ZM131.384 9.35933C131.781 9.52609 132.609 9.36502 132.914 9.39229C132.986 9.39873 132.421 9.53832 133.106 9.58015C133.3 9.48494 133.494 9.38973 133.688 9.29451C132.92 9.31612 132.152 9.33773 131.384 9.35933ZM71.9109 60.6714C72.0229 60.7072 74.1133 60.6941 74.2138 60.6714C75.4662 60.3671 71.1363 60.4 71.9109 60.6714ZM19.2914 59.7907C19.6874 60.154 17.1173 59.3512 14.7609 57.6325C12.3563 55.9741 10.4477 53.4211 10.1322 52.9777C10.3574 52.8808 11.8971 55.1003 11.2648 53.7858C11.9079 55.0116 14.8638 57.3206 15.6158 57.7632C16.0452 58.0767 16.0434 58.3474 16.1096 58.3961C16.3581 58.6307 19.0125 59.5773 19.2914 59.7907ZM6.6314 44.3394C6.7589 45.409 6.97512 46.474 7.27855 47.5175C6.83191 46.3168 6.50108 45.0698 6.2925 43.7996C6.40288 43.9816 6.51593 44.162 6.6314 44.3394ZM6.32528 43.0092C6.19061 43.0431 6.07052 42.0805 6.08547 41C6.09635 39.9849 6.12946 38.8712 6.09921 38.4004C6.37721 39.0617 6.32767 39.9911 6.26795 41C6.22884 41.6553 6.21932 42.3477 6.32528 43.0092ZM58.0438 61.3668C59.7395 61.545 60.4682 60.7236 58.4064 61.0812C58.3437 61.093 57.9731 61.3574 58.0438 61.3668ZM184.83 8.10909C184.707 8.09761 184.018 7.99887 183.213 7.95608C182.103 7.89172 180.788 7.82986 180.665 7.90808C180.007 8.32882 182.366 8.16008 183.157 8.31896C183.176 8.32291 183.195 8.32685 183.213 8.33078C184.409 8.62684 182.589 8.67249 185.71 8.7847C185.571 8.85255 185.433 8.9218 185.297 8.99242C187.107 9.24367 186.612 8.6194 186.957 8.5922C187.064 8.58011 188.211 8.87751 188.422 8.90352C191.157 9.1095 185.131 7.92547 184.83 8.10909ZM100.018 61.4295C103.394 61.6767 101.942 61.3139 105.406 61.3361C105.521 61.1509 100.458 61.2671 100.018 61.4295ZM203.833 31.9976C203.811 30.9517 203.818 29.9616 203.828 29C203.85 26.6875 203.542 24.4897 202.571 22.3466C202.369 22.5549 203.538 26.1332 203.575 29C203.663 30.8942 203.781 32.364 203.833 31.9976ZM53.5902 7.87293C67.174 8.76503 82.8425 8.47134 97.305 8.45738C98.8811 8.45611 99.0323 8.65472 99.6026 8.63316C99.9762 8.6192 99.9109 8.45923 100.407 8.45848C118.354 8.43248 135.538 8.22322 152.729 8.31896C153.812 8.3253 159.08 8.66882 160.205 8.15087C161.057 7.75793 157.272 8.0643 156.641 8.06079C156.167 8.05825 156.147 7.87358 155.831 7.87293C155.496 7.87229 155.773 7.99846 155.384 8.00037C153.735 8.00923 151.935 7.95992 150.444 7.9707C135.819 8.07406 121.591 8.04449 107.044 8.02673C105.283 8.02482 105.645 7.87686 105.556 7.87622C105.555 7.87659 105.554 7.87696 105.553 7.87732C96.1112 7.86337 85.3284 8.19529 75.3282 8.06848C68.2862 7.96667 61.2442 7.86487 54.2022 7.76307C53.9982 7.79969 53.7942 7.83631 53.5902 7.87293ZM192.101 10.5989C191.506 9.74641 191.156 9.99372 188.096 8.92714C187.817 8.95737 187.538 8.99314 187.263 9.03478C188.933 9.35004 190.564 9.8776 192.106 10.6012C192.104 10.6005 192.103 10.5997 192.101 10.5989ZM171.393 8.3662C170.86 7.61261 163.811 8.14519 160.637 8.00146C160.055 8.37992 164.669 8.20991 165.758 8.24975C166.301 8.2694 169.211 8.65864 171.423 8.4431C171.413 8.41747 171.403 8.39183 171.393 8.3662ZM31.0915 62.1271C31.6045 62.1051 32.1174 62.0831 32.6304 62.0612C31.3468 61.9777 30.0633 61.8942 28.7798 61.8107C30.8274 61.8645 32.8751 61.9183 34.9227 61.9722C34.5412 62.1285 34.1598 62.2849 33.7783 62.4413C32.8827 62.3365 31.9871 62.2318 31.0915 62.1271ZM37.735 62.0469C34.1492 62.1058 37.8925 61.6872 38.7874 61.8733C39.3231 61.9849 38.1011 62.0405 37.735 62.0469ZM47.0616 62.316C45.3893 62.5906 42.0098 62.6095 43.2111 62.0612C45.0184 62.318 46.1834 62.1046 48.8039 62.2523C48.4212 62.3574 48.0386 62.4625 47.6559 62.5676C47.6542 62.5676 47.6524 62.5676 47.6506 62.5676C47.4543 62.4837 47.258 62.3999 47.0616 62.316ZM36.0971 62.3787C33.7486 62.0637 40.5479 62.1714 38.4106 62.3787C38.3105 62.3882 36.1896 62.3907 36.0971 62.3787ZM68.6069 7.30605C68.324 7.48522 70.1303 7.48187 70.7312 7.49391C73.3361 7.54716 76.6768 7.4692 79.3857 7.49391C79.1817 7.43495 78.9777 7.37599 78.7737 7.31704C75.3848 7.31337 71.9958 7.30971 68.6069 7.30605ZM87.8598 7.49501C89.7211 7.49501 91.5825 7.49501 93.4438 7.49501C93.6172 7.49501 94.4309 7.34126 93.8258 7.30385C91.8372 7.36757 89.8485 7.43129 87.8598 7.49501ZM201.733 18.0634C201.057 16.6504 203.682 20.3435 203.012 20.4294C202.635 19.6135 202.208 18.8233 201.733 18.0634ZM204.938 31.612C204.887 30.7413 204.836 29.8707 204.785 29C204.784 28.9736 204.782 28.9473 204.781 28.921C204.844 28.9195 204.908 28.918 204.971 28.9164C204.971 28.9443 204.97 28.9721 204.97 29C204.959 29.8707 204.949 30.7413 204.938 31.612ZM61.2896 7.17971C62.2376 7.39651 64.4992 7.36314 65.9096 7.36757C64.9382 7.1813 62.6227 7.27288 61.2896 7.17971ZM182.58 7.27309C182.696 7.42083 177.019 7.38365 178.984 7.12368C180.183 7.17349 181.382 7.22329 182.58 7.27309ZM171.05 7.05447C172.267 7.02215 173.21 7.0729 172.96 7.30495C172.314 7.29506 171.669 7.28518 171.023 7.27529C171.032 7.20168 171.041 7.12808 171.05 7.05447ZM53.4274 62.7577C55.4792 62.7368 57.5309 62.7159 59.5827 62.695C59.5066 62.7584 59.4305 62.8218 59.3545 62.8851C57.3764 62.9056 55.3984 62.9261 53.4203 62.9466C53.4227 62.8836 53.425 62.8207 53.4274 62.7577ZM60.1293 6.61064C58.7202 6.65202 57.3111 6.6934 55.9019 6.73478C57.3122 6.77726 58.7225 6.81974 60.1328 6.86222C60.1328 6.77799 60.1328 6.69376 60.1328 6.60954C60.1316 6.6099 60.1305 6.61027 60.1293 6.61064ZM25.2064 63.5562C25.5851 63.5888 25.9201 63.6102 26.2134 63.6262C28.5542 63.7704 27.7517 63.9088 26.2134 63.9523C24.5624 64.0248 22.1766 63.6379 21.386 63.2382C21.3839 63.2381 21.3819 63.238 21.3798 63.2379C21.2274 63.1655 21.6053 63.0578 21.3555 62.9268C22.0375 63.1632 22.7354 63.3675 23.4428 63.5381C24.1133 63.5147 24.7747 63.461 25.4273 63.3791C25.6395 63.4275 25.8536 63.4729 26.0695 63.5153C25.7814 63.5343 25.4936 63.548 25.2064 63.5562ZM4.2375 46.8767C3.08621 40.5305 4.37844 46.9972 5.45929 49.9871C5.34031 50.0167 4.34308 47.4692 4.2375 46.8767ZM14.0914 60.1281C14.97 60.6361 15.8806 61.0836 16.8147 61.4668C16.9095 61.5688 17.0057 61.6703 17.1033 61.7712C16.368 61.5058 15.6443 61.2014 14.9355 60.8588C14.6469 60.6213 14.3658 60.3778 14.0914 60.1281ZM44.3714 64.4627C45.8125 64.521 47.6511 63.9306 43.0236 64.0859C43.0259 64.1492 43.0283 64.2126 43.0306 64.2759C43.2152 64.2658 43.7563 64.2064 43.7859 64.2111C43.8706 64.227 43.7707 64.4385 44.3714 64.4627ZM1.8015 35.703C1.77738 35.5412 1.10913 35.4531 1.8004 33.7698C1.75828 33.261 1.71617 32.7522 1.67406 32.2434C1.82127 32.1119 1.96848 31.9804 2.11569 31.8489C2.00156 33.8182 2.29941 34.027 2.30575 34.1695C2.33362 34.8241 2.18042 34.3397 2.17831 34.7621C2.17324 35.8525 2.27612 38.3304 1.83885 37.2065C1.68223 36.8019 1.82559 35.8649 1.8015 35.703ZM1.42138 39.5536C1.47716 39.3148 1.67264 40.0842 1.72789 39.9038C1.77607 39.7459 1.97551 37.3724 2.30575 38.0148C2.29184 38.4045 2.27792 38.7942 2.26401 39.184C2.17355 39.316 2.0831 39.4481 1.99265 39.5802C2.07614 39.9575 2.15964 40.3348 2.24313 40.7122C2.21299 40.798 2.18164 40.897 2.14952 41C1.94742 41.7901 1.74579 42.8219 1.54909 41.1163C1.57152 41.8445 1.62556 42.5683 1.7113 43.289C1.85219 43.6517 2.00185 44.0147 2.15873 44.3666C1.97057 44.1965 1.78415 44.0219 1.59961 43.8427C1.48814 42.8982 1.43115 41.9515 1.42774 41C1.42562 40.5179 1.4235 40.0358 1.42138 39.5536ZM3.31797 19.6404C3.36224 19.7546 3.40728 19.8682 3.45309 19.9812C4.21416 17.3966 6.57996 13.9406 5.72232 16.1868C3.87123 19.2185 2.70858 22.664 2.3448 26.1783C2.25451 26.4044 2.1675 26.6324 2.08385 26.8611C2.63408 24.2721 1.48949 24.8954 2.31723 22.654C2.48416 22.2874 2.46952 23.474 2.99538 21.0429C2.88671 21.099 2.77819 21.1563 2.66982 21.2146C2.86784 20.682 3.08428 20.1564 3.31797 19.6404ZM20.1217 5.15807C15.6878 6.36702 20.4411 4.52985 21.3645 4.69858C21.363 4.69886 21.3616 4.69915 21.3602 4.69943C23.7459 4.93855 18.8499 5.59044 18.5852 5.806C18.1964 5.9553 17.5154 6.64229 15.2401 6.94034C16.7979 6.17545 18.4386 5.57624 20.1217 5.15807ZM7.52819 12.8023C7.76956 12.5011 7.72447 12.7459 7.83298 12.6204C7.83394 12.6193 7.83491 12.6182 7.83587 12.6171C9.30132 10.6208 14.125 7.2049 14.9366 7.41359C13.1323 7.98014 7.25573 13.4193 6.95623 13.842C7.13757 13.4924 7.32826 13.1456 7.52819 12.8023ZM1.79305 28.6449C1.75496 28.8426 1.72398 28.9558 1.69655 29C1.67793 29.0245 1.66112 29.023 1.64607 29C1.49439 28.7565 1.59788 26.5607 1.80779 25.8896C1.85776 25.7342 2.08398 27.1232 1.79305 28.6449ZM76.1488 66.1084C78.8348 65.9486 75.3058 65.7891 76.5273 65.5393C76.0144 65.5606 75.5015 65.5818 74.9885 65.603C75.3753 65.7715 75.7621 65.9399 76.1488 66.1084ZM201.037 59.3936C201.629 58.853 201.249 59.0103 201.297 58.9604C201.669 58.5931 202.095 58.3127 202.22 58.1535C204.426 55.1443 202.728 56.9666 202.695 56.9756C202.531 56.9359 202.997 56.0962 202.026 56.9967C201.552 57.6372 201.044 58.2568 200.506 58.8523C200.163 59.0686 199.815 59.2754 199.464 59.4723C198.383 60.6365 199.988 59.3353 200.317 59.3313C200.453 59.3328 199.402 60.464 201.037 59.3936ZM80.9616 66.6138C81.3971 66.3487 82.4644 66.0144 81.4162 65.7481C81.415 65.7481 81.4138 65.7481 81.4126 65.7481C81.2188 65.6993 80.4294 65.6725 80.1869 65.6041C78.4577 65.9572 79.1202 66.3221 80.9616 66.6138ZM188.166 66.6166C186.818 66.813 185.468 66.9011 184.123 66.8858C184.14 66.7262 184.157 66.5666 184.173 66.4069C184.879 66.4235 185.588 66.4111 186.301 66.3681C186.54 66.2662 186.776 66.161 187.009 66.0526C186.118 66.0034 185.238 65.9067 184.374 65.7652C183.99 65.8068 183.603 65.8396 183.213 65.8635C182.694 65.903 182.175 65.9425 181.655 65.9821C182.038 66.0659 182.42 66.1498 182.803 66.2336C180.768 66.3262 181.211 65.9397 179.527 65.792C178.951 65.9392 178.374 66.0864 177.797 66.2336C176.963 66.0857 176.128 65.9377 175.293 65.7898C173.89 65.8589 173.767 65.9716 174.711 66.1403C174.014 66.333 173.25 66.0298 172.41 66.1084C172.34 66.1147 172.471 66.2963 172.41 66.2985C168.067 66.4208 168.298 65.9441 167.604 65.9238C167.115 65.9099 165.16 66.2316 165.13 66.3413C165.092 66.4891 169.156 67.072 162.791 67.0872C166.082 67.4904 169.823 67.08 167.404 66.4885C168.446 66.548 173.038 66.4004 173.331 66.4182C173.758 66.445 173.608 66.6694 174.143 66.6753C174.459 66.6784 175.296 66.1655 177.797 66.6138C178.117 66.5295 178.437 66.4453 178.756 66.3611C179.056 66.4303 179.355 66.4995 179.655 66.5687C179.038 66.8155 178.421 67.0623 177.805 67.3092C179.96 67.0726 181.791 67.4367 183.213 67.2344C183.463 67.2074 183.702 67.1668 183.928 67.1106C185.602 67.1054 186.424 67.0177 185.723 67.3175C186.23 67.2696 186.74 67.2066 187.242 67.1296C187.556 66.964 187.864 66.7928 188.166 66.6166ZM88.8538 66.2347C90.132 66.4812 90.5916 65.9495 90.3926 65.9194C89.2716 65.754 88.1887 66.1065 88.8538 66.2347ZM198.619 61.1081C197.12 62.0857 195.527 62.897 193.879 63.5266C193.951 63.6785 194.023 63.8303 194.095 63.9822C195.704 63.1855 197.222 62.2191 198.619 61.1081ZM75.7562 66.4863C75.6264 66.3603 75.4968 66.2344 75.367 66.1084C73.8223 66.5685 72.2886 65.9083 71.5253 66.0447C71.3597 66.0745 71.6941 66.2969 72.0099 66.3446C72.2065 66.3744 75.4826 66.5288 75.7562 66.4863ZM9.10237 59.8068C9.69955 60.236 10.3126 60.6373 10.939 61.0096C10.8212 61.0978 10.7028 61.1856 10.584 61.2729C10.2801 61.0717 9.98048 60.864 9.68454 60.6493C9.48375 60.3712 9.28971 60.0902 9.10237 59.8068ZM16.1455 64.1077C17.3274 64.6357 18.5532 65.073 19.8053 65.4126C15.0413 64.045 18.8794 65.4082 15.9808 64.4854C16.0357 64.3595 16.0906 64.2336 16.1455 64.1077ZM28.3871 66.4874C28.2609 66.572 28.1348 66.6566 28.0086 66.7412C27.4102 66.7412 26.8118 66.7412 26.2134 66.7412C25.6607 66.7411 25.1174 66.724 24.5658 66.6891C25.1052 66.9173 25.6485 67.1285 26.2134 67.3222C26.4345 67.4222 26.6555 67.5222 26.8766 67.6223C27.2527 67.623 27.6289 67.6237 28.0051 67.6245C28.1324 67.2454 28.2598 66.8664 28.3871 66.4874ZM209.458 29.2967C209.458 29.2193 209.455 29.1179 209.448 29C209.428 27.9101 209.012 25.8007 208.93 25.918C208.949 26.9554 208.905 27.9812 208.802 29C208.789 29.1001 208.776 29.2001 208.763 29.3002C208.932 29.3043 209.1 29.3085 209.269 29.3126C209.185 29.4394 209.101 29.5661 209.017 29.6929C209.08 30.2029 209.143 30.7129 209.206 31.2229C209.059 31.4799 208.912 31.737 208.765 31.994C208.933 32.2523 209.101 32.5105 209.269 32.7687C209.567 30.3064 209.269 30.3911 209.272 29.8786C209.273 29.6187 209.378 29.4543 209.43 29.3621C209.439 29.3403 209.449 29.3185 209.458 29.2967ZM198.233 62.7162C201.435 60.4778 202.578 58.5045 204.544 56.5103C203.706 57.0072 201.696 59.6525 198.81 61.8121C195.978 64.0284 192.306 65.5613 190.284 65.7541C189.919 65.99 189.545 66.2179 189.163 66.437C191.283 65.8204 192.793 65.4821 193.808 65.0823C194.608 64.7562 194.465 64.6657 194.526 64.6412C194.529 64.6398 194.531 64.6385 194.534 64.6372C196.359 63.794 196.954 63.5557 198.233 62.7162ZM73.5717 67.1059C74.3619 67.3061 75.7443 67.2861 75.7597 66.9939C74.9903 66.9093 74.2209 66.8247 73.4515 66.7401C73.6095 66.8149 73.4369 67.0717 73.5717 67.1059ZM29.581 67.3037C30.1976 67.3988 31.6542 67.3154 31.0261 67.0631C30.9132 67.0183 29.4623 67.1957 30.3133 66.7401C28.8996 66.7471 29.2304 67.249 29.581 67.3037ZM145.068 66.8038C144.55 66.8122 144.031 66.8207 143.512 66.8291C143.391 66.947 143.27 67.0649 143.149 67.1828C143.789 67.0565 144.429 66.9301 145.068 66.8038ZM66.9035 67.3081C66.2138 66.731 65.0354 67.2926 63.741 66.8181C63.2628 66.8144 62.7847 66.8108 62.3065 66.8071C62.3054 66.8071 62.3042 66.8071 62.303 66.8071C62.29 66.9646 62.2771 67.122 62.2641 67.2795C63.8106 67.289 65.3571 67.2985 66.9035 67.3081ZM177.419 67.0883C177.099 67.0151 176.78 66.9419 176.46 66.8686C175.891 66.954 175.322 67.0393 174.753 67.1246C175.061 67.1858 175.369 67.2469 175.677 67.3081C176.257 67.2348 176.838 67.1616 177.419 67.0883ZM58.4984 67.3575C60.1709 67.4298 60.7999 66.9281 58.6611 66.9269C57.7595 66.9269 56.7461 67.282 58.4984 67.3575ZM182.976 2.94241C183.055 2.94832 183.134 2.95422 183.213 2.96013C183.858 2.99716 184.49 3.05716 185.129 3.14091C185.389 3.0542 185.65 2.97129 185.915 2.89239C185.013 2.85634 184.111 2.86692 183.213 2.9231C183.134 2.92954 183.055 2.93598 182.976 2.94241ZM20.2797 66.5716C20.3895 66.4887 20.4985 66.4052 20.6065 66.3211C21.2514 66.4851 21.9008 66.6239 22.5556 66.7378C22.3759 66.8182 22.1948 66.8968 22.0102 66.9732C21.4271 66.8585 20.8527 66.7252 20.2797 66.5716ZM187.886 3.42719C188.467 3.55314 189.048 3.70042 189.618 3.86601C190.018 3.9149 190.419 3.97359 190.818 4.04137C190.299 3.83001 189.766 3.63383 189.231 3.45596C188.781 3.43447 188.332 3.42476 187.886 3.42719ZM42.6451 67.3092C43.2886 67.436 45.8591 67.0409 43.5436 66.94C42.0681 66.876 42.5485 67.2899 42.6451 67.3092ZM39.1765 67.4355C41.6274 67.6771 39.7897 66.451 36.8648 67.2454C39.8092 67.1365 39.0325 67.4209 39.1765 67.4355ZM14.937 65.613C14.8617 65.5761 14.8708 65.3936 14.2789 65.0956C12.1281 64.0453 9.61122 62.1391 8.37772 60.9788C6.84598 59.6493 3.95914 56.5901 2.25167 53.1337C0.468215 49.7187 -0.12242 46.1851 0.0205259 45.4443C0.0759649 45.1303 0.50791 45.7569 0.503786 45.6326C0.464221 45.2792 0.0667706 43.2717 0.350526 43.6216C0.547218 45.6025 0.974062 47.5672 1.62133 49.4546C1.3048 49.0453 0.998377 48.6223 0.703225 48.187C2.36727 52.9681 1.95294 51.3411 2.83143 52.5115C3.07842 53.3296 3.36794 54.1412 3.69957 54.9419C4.80107 56.4505 6.05279 57.8275 7.42239 59.0495C7.0591 58.823 6.69944 58.5861 6.34406 58.3389C8.08866 60.5281 7.68765 59.8627 8.96883 60.7023C8.9019 60.7834 8.83501 60.8645 8.76814 60.9456C10.9899 62.4961 11.3003 62.9556 11.786 63.3036C12.8809 63.9386 14.5359 63.8282 18.4975 66.4209C20.5255 66.3833 20.2213 67.5158 21.4805 67.1392C24.7012 68.3189 18.3323 67.2196 15.6022 65.7962C15.6007 65.7956 15.5992 65.7949 15.5978 65.7943C15.3886 65.7003 15.6754 65.9551 14.937 65.613ZM30.4477 67.452C28.9365 67.9982 34.9069 68.0494 32.931 67.2608C32.6368 67.2352 32.3427 67.2096 32.0484 67.1839C31.5137 67.2733 30.9789 67.3626 30.4442 67.452C30.4453 67.452 30.4465 67.452 30.4477 67.452ZM86.5456 67.8145C92.0756 67.5901 88.9314 67.2758 87.0585 67.5827C86.6848 67.6436 86.4801 67.727 86.5456 67.8145ZM202.73 59.3989C202.757 59.2753 202.782 59.1517 202.807 59.0283C201.253 60.9955 197.186 63.5236 197.439 63.8056C199.386 62.5684 201.167 61.0835 202.73 59.3989ZM185.413 68.0228C185.95 68.033 188.153 67.7688 187.858 67.6367C186.897 67.6845 185.942 67.6797 184.998 67.6248C184.564 67.7269 184.133 67.8183 183.693 67.8993C184.305 67.9182 185.266 68.0306 185.413 68.0228Z" fill="#00C6B5"/>
<path d="M59.8374 45.3183C58.5817 45.3183 57.4233 45.0884 56.3622 44.6286C55.3187 44.1511 54.461 43.479 53.7889 42.6125L56.1765 39.7474C56.6894 40.4195 57.2288 40.9323 57.7947 41.286C58.3606 41.6221 58.9708 41.7901 59.6251 41.7901C61.376 41.7901 62.2514 40.7643 62.2514 38.7128V29.8789H55.7255V26.4302H66.5225V38.474C66.5225 40.7732 65.9566 42.4887 64.8247 43.6205C63.6928 44.7524 62.0304 45.3183 59.8374 45.3183ZM77.2669 45.2122C75.7459 45.2122 74.393 44.8939 73.208 44.2572C72.0408 43.6205 71.1123 42.7539 70.4226 41.6574C69.7505 40.5432 69.4145 39.2787 69.4145 37.8639C69.4145 36.4314 69.7505 35.1669 70.4226 34.0704C71.1123 32.9562 72.0408 32.0896 73.208 31.4706C74.393 30.8339 75.7459 30.5156 77.2669 30.5156C78.7701 30.5156 80.1142 30.8339 81.2992 31.4706C82.4841 32.0896 83.4126 32.9473 84.0846 34.0438C84.7567 35.1403 85.0927 36.4137 85.0927 37.8639C85.0927 39.2787 84.7567 40.5432 84.0846 41.6574C83.4126 42.7539 82.4841 43.6205 81.2992 44.2572C80.1142 44.8939 78.7701 45.2122 77.2669 45.2122ZM77.2669 41.8166C77.9566 41.8166 78.5756 41.6574 79.1238 41.3391C79.6721 41.0208 80.1054 40.5698 80.4237 39.9862C80.7421 39.3848 80.9012 38.6774 80.9012 37.8639C80.9012 37.0327 80.7421 36.3253 80.4237 35.7416C80.1054 35.158 79.6721 34.707 79.1238 34.3887C78.5756 34.0704 77.9566 33.9112 77.2669 33.9112C76.5771 33.9112 75.9581 34.0704 75.4099 34.3887C74.8616 34.707 74.4195 35.158 74.0835 35.7416C73.7651 36.3253 73.606 37.0327 73.606 37.8639C73.606 38.6774 73.7651 39.3848 74.0835 39.9862C74.4195 40.5698 74.8616 41.0208 75.4099 41.3391C75.9581 41.6574 76.5771 41.8166 77.2669 41.8166ZM87.8589 45V30.7278H91.9973V45H87.8589ZM89.9281 28.7382C89.1676 28.7382 88.5486 28.5171 88.0711 28.075C87.5936 27.6328 87.3549 27.0846 87.3549 26.4302C87.3549 25.7758 87.5936 25.2276 88.0711 24.7855C88.5486 24.3433 89.1676 24.1222 89.9281 24.1222C90.6886 24.1222 91.3076 24.3345 91.7851 24.7589C92.2626 25.1657 92.5013 25.6963 92.5013 26.3506C92.5013 27.0404 92.2626 27.6151 91.7851 28.075C91.3253 28.5171 90.7063 28.7382 89.9281 28.7382ZM95.8381 45V30.7278H99.7908V34.6805L99.048 33.4867C99.5609 32.5317 100.295 31.7978 101.25 31.2849C102.205 30.772 103.293 30.5156 104.513 30.5156C105.645 30.5156 106.653 30.7455 107.537 31.2053C108.439 31.6474 109.146 32.3372 109.659 33.2745C110.172 34.1941 110.429 35.3791 110.429 36.8293V45H106.29V37.466C106.29 36.3164 106.034 35.4675 105.521 34.9193C105.026 34.371 104.318 34.0969 103.399 34.0969C102.744 34.0969 102.152 34.2384 101.621 34.5213C101.108 34.7866 100.702 35.2022 100.401 35.7682C100.118 36.3341 99.9765 37.0592 99.9765 37.9435V45H95.8381ZM130.235 45.3183C127.6 45.3183 125.539 44.5844 124.054 43.1165C122.568 41.6486 121.825 39.5529 121.825 36.8293V26.4302H126.123V36.6701C126.123 38.4387 126.486 39.712 127.211 40.4902C127.936 41.2684 128.953 41.6574 130.261 41.6574C131.57 41.6574 132.587 41.2684 133.312 40.4902C134.037 39.712 134.4 38.4387 134.4 36.6701V26.4302H138.644V36.8293C138.644 39.5529 137.902 41.6486 136.416 43.1165C134.93 44.5844 132.87 45.3183 130.235 45.3183ZM147.401 45.2122C146.181 45.2122 145.005 45.0707 143.873 44.7878C142.759 44.4871 141.874 44.1157 141.22 43.6736L142.599 40.7024C143.254 41.1092 144.023 41.4452 144.907 41.7105C145.809 41.9581 146.694 42.0819 147.56 42.0819C148.515 42.0819 149.187 41.9669 149.576 41.737C149.983 41.5071 150.186 41.1888 150.186 40.782C150.186 40.446 150.027 40.1984 149.709 40.0392C149.408 39.8624 149.002 39.7297 148.489 39.6413C147.976 39.5529 147.41 39.4644 146.791 39.376C146.19 39.2876 145.579 39.1726 144.96 39.0311C144.341 38.872 143.775 38.6421 143.263 38.3414C142.75 38.0407 142.334 37.634 142.016 37.1211C141.715 36.6082 141.565 35.945 141.565 35.1315C141.565 34.2295 141.821 33.4337 142.334 32.7439C142.865 32.0542 143.625 31.5148 144.616 31.1257C145.606 30.7189 146.791 30.5156 148.17 30.5156C149.143 30.5156 150.133 30.6217 151.141 30.8339C152.15 31.0461 152.99 31.3556 153.662 31.7624L152.282 34.707C151.592 34.3003 150.894 34.0261 150.186 33.8847C149.497 33.7255 148.825 33.6459 148.17 33.6459C147.251 33.6459 146.579 33.7697 146.154 34.0173C145.73 34.2649 145.517 34.5832 145.517 34.9723C145.517 35.326 145.668 35.5913 145.968 35.7682C146.287 35.945 146.702 36.0865 147.215 36.1926C147.728 36.2987 148.285 36.396 148.887 36.4844C149.506 36.5552 150.125 36.6701 150.744 36.8293C151.363 36.9885 151.92 37.2184 152.415 37.519C152.928 37.802 153.343 38.1999 153.662 38.7128C153.98 39.208 154.139 39.8624 154.139 40.6759C154.139 41.5602 153.874 42.3472 153.343 43.0369C152.813 43.709 152.043 44.2395 151.035 44.6286C150.045 45.0177 148.834 45.2122 147.401 45.2122Z" fill="black"/>
</svg>
