<svg width="253" height="63" viewBox="0 0 253 63" fill="none" xmlns="http://www.w3.org/2000/svg">
<path d="M14.044 62.1206C12.7808 62.1206 11.6662 61.7491 10.8488 60.9317L1.63475 51.7176C0.743069 50.8259 0.148614 49.3398 0.148614 47.2592C0.148614 40.9431 3.41812 27.4936 6.16748 19.1712L1.41183 14.4155C0.445842 13.4496 0 12.5579 0 11.0717C0 9.28836 1.26322 7.505 3.86396 6.4647C6.61332 5.3501 16.1989 2.60074 19.0969 1.93198C23.481 0.965991 28.5339 0 31.3575 0C32.3235 0 33.3638 0.668763 34.4041 1.63475L43.6182 10.8488C45.7731 13.0037 47.6307 16.7191 47.6307 18.5767C47.6307 21.6233 44.9557 28.3109 43.8411 30.3915C42.7265 32.5464 41.3147 33.5124 39.6056 33.9583L40.8688 35.2215C45.6988 40.1257 48.7454 45.9217 48.7454 52.7579C48.7454 57.5879 45.4758 61.2289 38.3424 61.2289C35.2215 61.2289 30.0943 59.4455 25.6359 57.5879C21.8462 59.7428 16.942 62.1206 14.044 62.1206Z" fill="#111111"/>
<path d="M79.6025 62.4178C74.6982 62.4178 67.1189 60.7088 64.1466 57.8108L61.7688 55.433C61.3973 56.1017 60.8771 56.5476 60.2084 56.9191C56.1958 59.3712 50.5485 62.1206 47.3533 62.1206C46.09 62.1206 45.0497 61.7491 44.2324 60.9317L35.0183 51.7919C34.1266 50.8259 33.5322 49.3398 33.5322 47.2592C33.5322 40.3487 36.876 25.2644 39.3281 17.3135L34.6468 12.5579C33.6808 11.6662 33.2349 10.7002 33.2349 9.21406C33.2349 7.20777 34.4982 6.01886 37.0246 4.90426C42.0032 2.67505 46.9817 0.668763 49.7311 0.668763C52.2575 0.668763 60.5056 7.28208 64.964 11.2203C65.2612 11.4433 65.5585 11.7405 65.7814 11.9634L74.9954 21.1775C78.7108 24.8928 79.7511 29.2026 79.7511 31.7291C79.7511 35.4444 77.5962 37.4507 74.8468 38.491C81.5344 46.962 85.7699 52.3864 85.7699 57.8108C85.7699 61.006 83.3178 62.4178 79.6025 62.4178Z" fill="#111111"/>
<path d="M75.5655 62.1206C74.3023 62.1206 73.262 61.7491 72.4446 60.9317L63.2306 51.7919C62.3389 50.8259 61.7444 49.3398 61.7444 47.2592C61.7444 46.1446 62.2646 43.9897 62.9333 41.6119C64.1222 37.3764 65.2368 33.5124 66.8716 28.6082L70.2154 18.7997L67.3174 13.7468C66.3514 12.0377 66.1285 10.5516 66.1285 9.13975C66.1285 7.20777 67.0202 5.79594 69.2494 4.82995C71.4043 3.86396 83.8879 0.520146 86.1171 0.520146C87.1574 0.520146 88.0491 0.817374 88.8664 1.63475L98.0805 10.8488C98.6007 11.4433 99.1208 12.1863 99.4923 13.2266C100.607 16.1989 101.722 20.0629 102.91 24.0754L104.397 29.2026L109.821 34.7013C110.341 35.2215 110.638 35.8902 110.638 36.7819C110.638 38.1938 109.672 40.2744 108.483 42.3549C108.855 43.5439 111.53 50.603 111.976 51.7919C112.793 53.9468 113.239 55.21 113.239 56.9191C113.239 58.8511 111.902 61.0803 107.889 61.0803C104.768 61.0803 101.35 59.9657 97.1888 58.5539C95.2568 57.9594 93.9936 57.2906 93.1762 56.5476L90.5012 53.7982C90.1297 55.433 89.4609 56.3247 88.0491 57.142C84.2594 59.2969 78.835 62.1206 75.5655 62.1206Z" fill="#111111"/>
<path d="M108.622 62.1206C107.359 62.1206 106.244 61.7491 105.427 60.9317L96.213 51.7176C95.3213 50.8259 94.7268 49.3398 94.7268 47.2592C94.7268 41.9834 97.6991 29.8714 100.003 20.9546C98.6651 16.0503 96.6588 7.95084 96.6588 5.12718C96.6588 2.74936 97.8477 0.965991 101.266 0.965991C104.833 0.965991 112.858 3.49242 114.715 4.23549C115.681 4.60703 116.573 5.12718 117.242 5.87025L119.248 7.80223C119.545 7.20777 119.991 6.68762 120.586 6.31609C124.227 3.93826 129.28 0.520146 131.657 0.520146C132.549 0.520146 133.292 0.891685 133.961 1.56045L143.101 10.7002C143.992 11.5919 144.512 12.7808 144.512 13.9697C144.512 15.2329 141.912 27.1963 140.5 33.3638C140.946 35.6673 141.763 38.6396 142.655 41.6862C143.992 46.2932 145.404 51.2718 145.404 54.5413C145.404 56.9191 144.141 58.6282 140.797 58.6282C137.23 58.6282 129.131 56.176 127.348 55.433C126.604 55.1357 126.084 54.7642 125.564 54.3184L123.632 52.3864C123.632 54.9128 122.815 55.9531 121.329 56.9191C117.316 59.4455 111.817 62.1206 108.622 62.1206Z" fill="#111111"/>
<path d="M141.93 62.1206C140.667 62.1206 139.552 61.7491 138.735 60.9317L129.52 51.7176C128.629 50.8259 128.034 49.3398 128.034 47.2592C128.034 40.423 130.115 32.918 132.27 25.19L133.459 20.8802C131.824 15.6788 129.892 8.69391 129.892 4.97856C129.892 1.93198 132.641 0.222922 135.093 0.222922C137.025 0.222922 140.444 1.78337 142.004 2.52643C148.915 5.87025 154.785 9.36267 158.872 12.1863C160.061 12.9294 161.101 13.8211 162.067 14.7871L171.207 23.9268C173.882 26.6019 175.368 29.5742 175.368 32.1749C175.368 36.559 169.052 43.6925 164.816 48.5967C163.85 49.7113 161.844 52.0148 160.581 53.2781C159.689 54.1697 159.243 54.8385 157.831 55.7302C153.67 58.3309 145.496 62.1206 141.93 62.1206Z" fill="#111111"/>
<path d="M169.118 62.1206C167.855 62.1206 166.814 61.7491 165.997 60.9317L156.783 51.7919C155.891 50.8259 155.297 49.3398 155.297 47.2592C155.297 40.9431 158.418 25.9331 161.093 17.2392L156.411 12.5579C155.445 11.6662 155 10.7002 155 9.21406C155 7.20777 156.263 6.01886 158.789 4.90426C160.796 4.01258 169.267 0.668763 171.347 0.668763C172.685 0.668763 173.799 1.18891 174.691 2.00629L183.831 11.2203C184.871 12.1863 185.391 13.5982 185.168 14.9357C184.945 16.3475 183.682 26.7505 183.682 39.3084C183.682 43.9154 183.905 46.7391 184.054 48.8197L184.202 52.3864C184.202 54.9871 183.459 55.9531 181.973 56.9191C178.035 59.4455 172.313 62.1206 169.118 62.1206Z" fill="#111111"/>
<path d="M183.776 62.1206C182.513 62.1206 181.473 61.8234 180.655 60.9317L171.441 51.7919C170.475 50.7516 169.955 49.3398 169.955 47.2592C169.955 40.9431 173.076 25.9331 175.751 17.2392L171.07 12.5579C170.104 11.6662 169.658 10.7002 169.658 9.21406C169.658 7.20777 170.921 6.01886 173.447 4.90426C175.454 3.93827 183.925 0.668763 186.005 0.668763C187.343 0.668763 188.457 1.18891 189.275 2.00629L192.99 5.72163L193.882 5.05287C194.922 4.3098 200.347 0.668763 203.096 0.668763C204.359 0.668763 205.251 0.965991 205.92 1.70906L215.134 10.8488C215.802 11.5919 216.1 12.5579 216.174 13.6725C216.174 14.3412 214.762 21.3261 213.722 26.156L216.471 28.9054C216.991 29.4255 217.214 30.0943 217.289 30.986C217.289 32.8437 215.431 36.3361 214.019 38.491C214.836 40.5716 218.18 48.0023 219.072 50.3801C220.112 53.1295 220.707 54.8385 220.781 56.9191C220.781 58.8511 219.443 61.1546 215.431 61.0803C212.31 61.0803 208.892 60.04 204.805 58.5539C202.947 57.8851 201.684 57.3649 200.941 56.6219L198.638 54.3184C198.34 55.5816 197.746 56.2503 196.631 56.9191C192.619 59.3712 186.971 62.1206 183.776 62.1206Z" fill="#111111"/>
<path d="M215.326 62.1206C214.063 62.1206 213.023 61.7491 212.205 60.9317L202.991 51.7919C202.1 50.8259 201.505 49.3398 201.505 47.2592C201.505 46.1446 202.025 43.9897 202.694 41.6119C203.883 37.3764 204.998 33.5124 206.632 28.6082L209.976 18.7997L207.078 13.7468C206.112 12.0377 205.889 10.5516 205.889 9.13975C205.889 7.20777 206.781 5.79594 209.01 4.82995C211.165 3.86396 223.649 0.520146 225.878 0.520146C226.918 0.520146 227.81 0.817374 228.627 1.63475L237.841 10.8488C238.362 11.4433 238.882 12.1863 239.253 13.2266C240.368 16.1989 241.482 20.0629 242.671 24.0754L244.157 29.2026L249.582 34.7013C250.102 35.2215 250.399 35.8902 250.399 36.7819C250.399 38.1938 249.433 40.2744 248.244 42.3549C248.616 43.5439 251.291 50.603 251.737 51.7919C252.554 53.9468 253 55.21 253 56.9191C253 58.8511 251.662 61.0803 247.65 61.0803C244.529 61.0803 241.111 59.9657 236.95 58.5539C235.018 57.9594 233.755 57.2906 232.937 56.5476L230.262 53.7982C229.891 55.433 229.222 56.3247 227.81 57.142C224.02 59.2969 218.596 62.1206 215.326 62.1206Z" fill="#111111"/>
<path d="M4.82962 51.0588C3.04626 51.0588 2.37749 49.7956 2.37749 47.5664C2.37749 40.9531 6.24146 25.7945 8.99081 17.9922L10.6256 14.1283L8.17344 17.3235L3.41779 13.6081C2.60042 12.9394 2.22888 12.5678 2.22888 11.3789C2.22888 10.3386 3.19487 9.44692 4.68101 8.85247C7.43037 7.73786 16.793 4.98851 19.5424 4.39405C23.9265 3.42806 28.7565 2.53638 31.3572 2.53638C32.6225 2.53638 35.0115 6.24945 35.8699 8.48596C36.0702 9.00765 36.1871 9.449 36.1871 9.74415C36.1871 10.1378 36.1222 10.6234 36.0092 11.1704C35.3968 14.1342 33.3732 18.8993 32.6204 20.593C31.7287 22.4506 30.3912 22.8965 29.2023 23.0451L24.3723 23.268C30.5642 27.6318 35.0713 32.7912 36.6681 38.9319C37.0833 40.5289 37.3018 42.1923 37.3018 43.9253C37.3018 45.5585 36.8234 46.9823 35.7727 48.0561C34.481 49.3762 32.3242 50.1671 29.128 50.1671C24.7439 50.1671 15.1583 45.9316 10.7742 43.7767C10.6256 43.9253 15.3069 46.8233 15.1583 46.9719C11.4429 49.1268 7.20745 51.0588 4.82962 51.0588ZM23.8522 37.4606C24.6696 37.4606 25.264 37.1634 25.264 36.1974C25.264 35.0828 21.1772 30.773 17.3875 27.6521V35.3057C19.2452 36.1231 22.1431 37.4606 23.8522 37.4606ZM17.3875 19.7013C20.0625 19.1068 22.3661 18.3638 23.4064 18.0665C24.9668 17.6207 25.0411 17.3978 25.0411 15.2429C25.0411 14.7227 24.9668 14.3512 24.3723 14.3512C23.0348 14.3512 21.9945 14.8713 17.3875 16.3575V19.7013Z" fill="#249AFF"/>
<path d="M66.3511 51.0588C65.8861 51.0588 65.498 50.9653 65.1796 50.7842C64.3276 50.2998 63.9733 49.189 63.9733 47.5664C63.9733 46.749 64.4191 44.8913 65.0879 42.5135C65.3606 41.5407 65.6334 40.5857 65.9115 39.6313C65.9422 39.5258 65.973 39.4202 66.0039 39.3146C66.389 37.9988 66.7852 36.6807 67.2066 35.3152C68.9438 29.6856 71.1079 23.2518 74.6735 12.865L71.7755 17.3235L69.2491 12.9393C68.506 11.6018 68.3574 10.6358 68.3574 9.44692C68.3574 8.40663 68.7289 7.81217 70.1408 7.21771C71.9984 6.40034 80.9153 4.02252 85.448 3.20514C85.6709 3.13083 85.8938 3.05652 86.1168 3.05652C86.8598 3.05652 87.6029 3.50237 88.1974 5.13712C90.3523 10.9331 92.5815 20.2957 94.885 26.6861C97.3371 26.6861 99.1948 26.7605 99.1948 27.9494C99.1948 28.9897 97.9316 31.4418 96.817 33.2995C97.3371 34.7113 99.6406 41.176 100.681 43.7767C101.498 45.7087 101.796 46.749 101.796 48.0865C101.796 48.7553 101.424 50.0185 98.6746 50.0185C95.9253 50.0185 92.8787 49.0525 88.6432 47.6407C85.448 46.6004 85.0022 45.9316 85.0022 44.2226V37.312L88.7175 36.0488C86.7855 36.1231 84.2591 36.4203 82.2528 36.6433C80.7667 36.8662 77.8687 37.2377 76.2339 37.6836L79.7264 37.9065L79.2062 43.5538C79.0576 45.1143 78.8347 45.7087 77.7201 46.3775C74.079 48.4581 69.0262 51.0588 66.3511 51.0588ZM80.5437 27.6521C83.2931 27.2806 85.8195 26.9091 88.6432 26.6861C87.2314 26.4632 85.8195 26.3146 84.4077 26.3146L82.2528 14.3512L80.5437 27.6521Z" fill="#249AFF"/>
<path d="M99.4078 51.0588C97.6245 51.0588 96.9557 49.7956 96.9557 47.5664C96.9557 42.4392 100.002 30.1786 102.306 21.2617C100.968 16.4318 98.8877 8.1094 98.8877 5.43435C98.8877 4.39405 99.0363 3.50237 101.266 3.50237C104.461 3.50237 112.263 5.95449 113.898 6.62326C115.532 7.21771 116.87 8.85247 117.316 10.6358L121.7 27.4292L120.139 17.2492L120.808 10.8588C120.808 9.96707 121.105 9.00108 121.849 8.48094C125.118 6.32604 130.097 3.05652 131.657 3.05652C132.326 3.05652 133.069 4.24544 133.069 5.13712C133.069 6.10311 130.32 18.4381 128.982 24.5312C130.097 30.773 133.961 40.7301 133.961 45.7087C133.961 46.749 133.812 47.5664 131.583 47.5664C128.388 47.5664 120.585 45.1886 118.951 44.5198C117.316 43.851 116.944 42.2906 116.573 40.7301L111.148 20.2957L112.04 27.0577L112.189 43.5538C112.189 45.1143 112.04 45.5601 111 46.1546C107.136 48.5324 102.009 51.0588 99.4078 51.0588Z" fill="#249AFF"/>
<path d="M132.715 51.0588C130.932 51.0588 130.263 49.7956 130.263 47.5664C130.263 38.0551 134.424 27.2806 137.248 15.0943L135.167 19.2554C133.533 13.9053 132.121 7.81217 132.121 5.28573C132.121 3.57668 133.756 2.7593 135.093 2.7593C136.505 2.7593 139.626 4.17113 141.038 4.83989C147.8 8.1094 153.521 11.5275 157.608 14.3512C161.695 17.1005 163.924 20.593 163.924 23.3423C163.924 26.6861 158.203 33.3738 153.893 38.278C152.481 39.9128 148.32 44.5941 147.651 44.9656C143.787 47.3435 135.316 51.0588 132.715 51.0588ZM145.273 33.8939C150.4 28.098 151.738 26.6118 151.738 25.2C151.738 24.234 151.069 23.7882 149.36 22.8222C148.543 22.302 147.428 21.4847 146.016 20.7416L145.273 33.8939Z" fill="#249AFF"/>
<path d="M159.904 51.0588C158.195 51.0588 157.526 49.7956 157.526 47.5664C157.526 40.9531 161.167 23.9368 163.916 16.1345L158.417 11.7504C157.6 11.0817 157.229 10.7101 157.229 9.52123C157.229 8.48093 158.195 7.88648 159.681 7.21771C161.761 6.25172 169.861 3.20514 171.347 3.20514C172.907 3.20514 173.873 4.61697 173.725 5.80588C173.502 7.21771 172.239 17.7693 172.239 30.4758C172.239 37.9808 172.759 40.8045 172.759 43.5538C172.759 45.1143 172.536 45.5601 171.57 46.1546C167.706 48.5324 162.504 51.0588 159.904 51.0588Z" fill="#249AFF"/>
<path d="M174.562 51.0588C172.853 51.0588 172.184 49.7956 172.184 47.5664C172.184 40.9531 175.825 23.9368 178.574 16.1345L173.076 11.7504C172.258 11.0817 171.887 10.7101 171.887 9.52123C171.887 8.48093 172.853 7.88648 174.339 7.21771C176.419 6.25172 184.519 3.20514 186.005 3.20514C187.566 3.20514 188.531 4.61697 188.383 5.80588C187.863 9.44692 187.491 16.9519 187.194 21.9305C189.943 21.4847 192.47 21.1874 195.219 20.8902C193.882 20.8159 192.47 20.593 191.058 20.593L191.875 11.4532C192.024 9.37262 193.436 8.33232 195.145 7.21771C195.962 6.62326 201.164 3.20514 203.096 3.20514C204.433 3.20514 204.73 3.94821 204.73 4.83989C204.73 5.50865 201.981 18.5867 201.461 20.8902C203.913 20.8902 205.845 20.9645 205.845 22.1534C205.845 23.5652 203.541 27.7264 202.278 29.3612C203.839 33.5224 206.291 38.2037 207.703 42.2906C208.743 45.04 209.337 46.4518 209.337 48.0865C209.337 48.7553 208.966 50.0185 206.217 50.0185C203.467 50.0185 200.421 49.0525 196.259 47.6407C192.99 46.6004 192.916 45.9316 192.618 44.2226C192.173 41.176 191.875 35.5287 191.652 31.4418L195.368 30.2529L188.903 30.9216C187.417 31.1446 184.519 31.5161 182.884 31.8876L186.971 32.1848C187.194 36.346 187.417 42.0677 187.417 43.5538C187.417 45.1143 187.194 45.5601 186.228 46.1546C182.364 48.5324 177.163 51.0588 174.562 51.0588Z" fill="#249AFF"/>
<path d="M206.112 51.0588C204.403 51.0588 203.734 49.7956 203.734 47.5664C203.734 46.749 204.18 44.8913 204.849 42.5135C207.078 34.5627 209.307 27.8007 214.434 12.865L211.536 17.3235L209.01 12.9393C208.267 11.6018 208.118 10.6358 208.118 9.44692C208.118 8.40663 208.49 7.81217 209.902 7.21771C211.759 6.40034 220.676 4.02252 225.209 3.20514C225.432 3.13083 225.655 3.05652 225.878 3.05652C226.621 3.05652 227.364 3.50237 227.958 5.13712C230.113 10.9331 232.342 20.2957 234.646 26.6861C237.098 26.6861 238.956 26.7605 238.956 27.9494C238.956 28.9897 237.692 31.4418 236.578 33.2995C237.098 34.7113 239.402 41.176 240.442 43.7767C241.259 45.7087 241.556 46.749 241.556 48.0865C241.556 48.7553 241.185 50.0185 238.436 50.0185C235.686 50.0185 232.64 49.0525 228.404 47.6407C225.209 46.6004 224.763 45.9316 224.763 44.2226V37.312L228.478 36.0488C226.546 36.1231 224.02 36.4203 222.014 36.6433C220.528 36.8662 217.63 37.2377 215.995 37.6836L219.487 37.9065L218.967 43.5538C218.819 45.1143 218.596 45.7087 217.481 46.3775C213.84 48.4581 208.787 51.0588 206.112 51.0588ZM220.305 27.6521C223.054 27.2806 225.58 26.9091 228.404 26.6861C226.992 26.4632 225.58 26.3146 224.169 26.3146L222.014 14.3512L220.305 27.6521Z" fill="#249AFF"/>
<path d="M216.623 12.5409H228.748V27.9729H216.623V12.5409Z" fill="#249AFF"/>
<path d="M76.082 12.5409H88.2071V27.9729H76.082V12.5409Z" fill="#249AFF"/>
<path fill-rule="evenodd" clip-rule="evenodd" d="M35.8699 8.48596C36.0702 9.00765 36.1871 9.449 36.1871 9.74415C36.1871 10.1378 36.1222 10.6234 36.0092 11.1704C36.1808 11.3575 36.3945 11.5392 36.6527 11.7504L41.2598 15.4658L43.9348 11.156L42.1514 16.1345C40.4306 20.984 37.978 30.92 36.6681 38.9319C37.0833 40.5289 37.3018 42.1923 37.3018 43.9253C37.3018 45.5585 36.8234 46.9823 35.7727 48.0561C35.8683 49.9797 36.5592 51.0588 38.1389 51.0588C40.7396 51.0588 45.9411 48.5324 49.805 46.1546C50.771 45.5601 50.994 45.0399 50.994 43.5538C50.994 41.2503 50.8453 37.7579 50.8453 33.8939L55.9725 46.6004C56.6427 48.353 60.9603 49.9626 65.1796 50.7842C64.3276 50.2998 63.9733 49.189 63.9733 47.5664C63.9733 46.749 64.4191 44.8913 65.0879 42.5135C65.3606 41.5407 65.6334 40.5857 65.9115 39.6313C62.6397 35.5859 60.6346 32.7091 56.7899 28.2466C57.6073 28.3952 58.2017 28.3952 59.5393 28.3952C63.3289 28.3952 68.3075 27.3549 68.3075 22.8965C68.3075 20.593 67.1929 16.5061 63.4775 13.2366C59.6136 9.96707 51.1426 3.20514 49.7307 3.20514C47.4272 3.20514 42.7459 5.06281 37.9159 7.21771C37.0034 7.62834 36.287 8.01095 35.8699 8.48596ZM55.9725 21.4103C55.9725 21.7819 55.8982 23.4166 54.635 23.4166C54.0405 23.4166 52.0343 23.1937 50.6224 22.525V21.9305L50.6967 20.8902L50.994 17.3235C55.2295 19.1811 55.9725 19.9242 55.9725 21.4103Z" fill="#249AFF"/>
<path d="M224.681 17.8493C224.706 17.8481 224.73 17.8474 224.755 17.847C226.773 17.812 225.952 19.9818 225.589 21.1117C225.173 22.4068 224.761 23.7968 224.707 25.161C224.691 26.1029 225.293 26.6615 226.229 26.5934C226.868 26.5469 227.716 26.3184 228.189 25.8665C228.695 25.363 229.121 24.4899 229.937 24.4818C231.393 24.4673 231.537 26.2978 230.211 26.7949C229.087 27.2162 227.9 27.392 226.859 27.9635C226.043 28.4111 225.473 29.3109 224.861 29.978C223.819 31.1695 221.186 30.771 220.518 29.3811C219.259 26.7604 218.033 26.939 215.333 26.9644C215.061 26.9716 214.766 26.9615 214.507 26.8759C214.189 26.7711 213.898 26.5726 213.75 26.264C213.647 26.0501 213.63 25.8131 213.714 25.59C213.811 25.3292 214.057 25.0398 214.314 24.9298C215.315 24.5008 217.386 25.6709 218.338 26.0374C218.818 26.222 219.946 26.6253 220.433 26.3774C220.551 26.3174 220.615 26.2236 220.659 26.1023C221.055 24.9981 219.433 23.0335 218.69 22.3105C218.109 21.7453 217.401 21.4754 217.051 20.677C216.909 20.3551 216.873 20.0191 217.007 19.6881C217.128 19.3901 217.352 19.1227 217.655 19.0038C218.112 18.8248 218.656 18.9651 218.985 19.321C219.424 19.7946 219.865 21.2097 220.166 21.8707C220.464 22.524 221.858 24.9325 222.479 25.1993C222.628 25.2636 222.792 25.2749 222.945 25.2116C223.264 25.0794 223.396 24.6504 223.509 24.3506C223.887 23.3357 224.063 22.2563 224.026 21.1736C223.99 20.0544 223.216 18.4288 224.681 17.8493Z" fill="#111111"/>
<path d="M84.8558 16.1521C84.8804 16.151 84.905 16.1503 84.9297 16.1499C86.9477 16.1149 86.1264 18.2846 85.7634 19.4145C85.3474 20.7096 84.9354 22.0997 84.8814 23.4638C84.8655 24.4057 85.4678 24.9644 86.4041 24.8962C87.0425 24.8497 87.8908 24.6213 88.3635 24.1693C88.8695 23.6659 89.2957 22.7928 90.1116 22.7847C91.568 22.7701 91.7118 24.6007 90.3857 25.0978C89.2619 25.5191 88.0744 25.6948 87.0332 26.2664C86.218 26.7139 85.6474 27.6138 85.0354 28.2809C83.9939 29.4724 81.3605 29.0738 80.6927 27.684C79.4335 25.0633 78.2074 25.2419 75.5075 25.2672C75.2355 25.2745 74.9407 25.2644 74.6812 25.1788C74.3637 25.074 74.0731 24.8754 73.9248 24.5669C73.822 24.353 73.8047 24.1159 73.8883 23.8928C73.986 23.632 74.2322 23.3427 74.489 23.2327C75.4899 22.8037 77.5605 23.9738 78.5128 24.3403C78.9924 24.5248 80.1205 24.9281 80.6081 24.6802C80.726 24.6203 80.7899 24.5264 80.8334 24.4052C81.2294 23.301 79.6073 21.3364 78.8644 20.6134C78.2834 20.0481 77.576 19.7782 77.2253 18.9798C77.084 18.6579 77.0476 18.3219 77.1821 17.9909C77.3031 17.693 77.5266 17.4255 77.8297 17.3067C78.2864 17.1276 78.8303 17.2679 79.1599 17.6239C79.5984 18.0975 80.0393 19.5126 80.3405 20.1736C80.6382 20.8268 82.0323 23.2354 82.6533 23.5022C82.803 23.5665 82.9667 23.5778 83.1193 23.5145C83.4384 23.3822 83.5711 22.9533 83.6832 22.6535C84.0613 21.6386 84.2373 20.5591 84.201 19.4764C84.1645 18.3572 83.3904 16.7316 84.8558 16.1521Z" fill="#111111"/>
</svg>
