<svg width="582" height="523" viewBox="0 0 582 523" fill="none" xmlns="http://www.w3.org/2000/svg">
<path d="M601.01 142.595C600.837 140.992 608.976 137.355 619.09 134.512C637.157 129.432 647.858 131.592 641.813 139.098C638.157 143.638 601.458 146.787 601.01 142.595Z" fill="#00C6B5"/>
<path d="M607.542 124.833C605.361 123.077 605.014 119.855 606.77 117.674C608.527 115.493 611.748 115.146 613.929 116.902C616.11 118.659 616.457 121.88 614.701 124.061C612.945 126.242 609.723 126.589 607.542 124.833Z" fill="#00C6B5"/>
<path d="M668.564 187.051C666.383 185.295 666.036 182.073 667.792 179.893C669.549 177.712 672.77 177.364 674.951 179.121C677.132 180.877 677.479 184.099 675.723 186.279C673.966 188.46 670.745 188.808 668.564 187.051Z" fill="#00C6B5"/>
<path d="M729.483 233.001C718.764 235.174 715.085 229.799 724.911 226.332C728.221 225.16 732.831 225.735 735.147 227.6C737.78 229.72 735.645 231.754 729.483 233.001Z" fill="#00C6B5"/>
<path d="M675.305 217.465C679.5 217.012 683.972 213.423 685.239 209.488C686.606 205.242 690.131 204.42 693.914 207.467C703.53 215.211 689.995 228.315 677.967 222.91C670.68 219.636 669.9 218.047 675.305 217.465Z" fill="#00C6B5"/>
<path d="M612.173 167.785C609.992 166.028 609.645 162.807 611.401 160.626C613.158 158.445 616.379 158.098 618.56 159.854C620.741 161.611 621.088 164.832 619.332 167.013C617.575 169.194 614.354 169.541 612.173 167.785Z" fill="#00C6B5"/>
<path d="M634.248 190.603C630.958 189.379 630.549 185.552 633.331 182.098C636.112 178.644 641.209 178.095 644.663 180.876C651.666 186.516 643.573 194.073 634.248 190.603Z" fill="#00C6B5"/>
<path d="M725.954 265.955C719.76 260.967 721.864 254.929 730.101 254.044C738.336 253.153 741.68 258.604 736.692 264.798C734.057 268.069 729.225 268.59 725.954 265.955Z" fill="#00C6B5"/>
<path d="M586.866 162.804C580.503 160.753 581.024 159.669 589.84 156.603C600.136 153.024 600.645 153.414 603.835 167.254C606.214 177.596 612.734 185.546 627.105 195.649C641.22 205.566 643.929 208.826 636.348 206.761C626.098 203.977 626.007 204.179 634.319 211.31C639.797 216.01 641.062 221.435 637.742 225.964C634.591 230.258 634.878 231.81 638.457 229.809C644.478 226.447 665.397 239.686 661.571 244.436C660.447 245.832 654.571 246.741 648.515 246.46C642.456 246.175 637.774 248.53 638.118 251.69C638.456 254.851 641.464 256.595 644.79 255.566C648.122 254.537 654.874 257.013 659.794 261.067C666.092 266.257 667.088 272.23 663.157 281.242C658.616 291.653 659.526 294.654 668.027 297.297C676.888 300.053 677.457 299.655 671.768 294.682C668.075 291.459 666.489 287.031 668.246 284.85C670.002 282.669 674.583 283.378 678.423 286.418C682.26 289.462 689.962 293.966 695.536 296.428C701.615 299.108 706.177 305.626 706.941 312.706C708.622 328.304 704.31 332.911 695.641 324.779C691.529 320.925 691.139 316.701 694.71 314.629C698.066 312.678 698.139 308.925 694.868 306.291C686.014 299.16 674.282 308.199 678.898 318.597C681.087 323.524 685.833 328.582 689.44 329.833C693.045 331.088 696.835 336.259 697.864 341.337C700.615 354.894 711.672 354.745 714.246 341.11C715.386 335.059 717.881 331.362 719.788 332.898C725.455 337.461 716.629 365.555 710.269 363.192C704.38 360.999 694.053 371.005 698.51 374.594C700.005 375.798 708.47 376.229 717.323 375.553C726.168 374.878 733.664 376.659 733.972 379.516C734.28 382.372 730.773 384.235 726.177 383.658C719.134 382.777 717.85 384.306 717.985 393.416C718.071 399.356 716.942 402.349 715.476 400.063C714.01 397.785 710.872 397.297 708.501 398.983C706.13 400.669 708.382 406.379 713.508 411.67C719.852 418.225 720.678 422.531 716.095 425.194C712.198 427.461 711.764 431.028 715.071 433.691C718.548 436.492 717.968 439.907 713.576 442.463C708.703 445.291 705.888 444.2 704.85 439.076C703.895 434.378 699.989 431.128 694.537 430.503C688.576 429.82 687.338 430.797 690.669 433.552C693.371 435.781 693.207 440.839 690.302 444.794C687.151 449.088 687.438 450.64 691.017 448.639C700.003 443.625 708.258 452.686 701.347 459.978C697.936 463.572 698.163 469.749 701.869 474.231C709.686 483.697 709.921 500.346 702.37 510.078C699.367 513.954 698.8 518.643 701.108 520.501C703.416 522.36 702.495 524.874 699.06 526.088C694.595 527.663 693.072 526.234 693.715 521.085C694.39 515.718 692.958 514.461 688.124 516.17C684.552 517.431 681.687 522.53 681.76 527.505C681.851 533.422 679.828 536.291 675.927 535.803C672.646 535.396 668.665 538.335 667.083 542.336C665.501 546.338 662.851 553.061 661.199 557.28C658.705 563.64 660.387 565.366 671.03 567.394C682.675 569.615 682.867 570.051 673.112 572.059C667.196 573.276 658.785 571.398 654.423 567.885C647.484 562.297 646.507 562.876 646.594 572.517C646.679 582.331 645.915 582.5 639.619 574.051C634.675 567.422 631.141 566.314 627.868 570.379C625.294 573.575 625.862 576.523 629.129 576.931C632.395 577.339 632.928 580.33 630.312 583.578C627.694 586.829 621.077 586.822 615.614 583.566C610.147 580.313 604.855 579.935 603.864 582.732C601.934 588.165 602.73 588.768 618.721 593.913C628.451 597.042 628.345 597.336 617.037 598.609C610.4 599.358 601.677 597.405 597.647 594.277C585.261 584.655 567.289 586.687 562.807 598.217C559.87 605.769 557.068 607.146 552.345 603.343C548.681 600.392 548.566 597.207 552.082 595.966C555.943 594.605 555.023 592.112 549.633 589.34C544.884 586.901 538.788 588.156 536.084 592.13C533.049 596.595 528.321 597.069 523.725 593.368C518.368 589.054 514.529 590.086 510.041 597.055C505.291 604.422 501.753 605.089 495.235 599.839C482.554 589.627 474.274 592.562 477.871 606.002C479.607 612.499 479.033 616.208 476.594 614.244C474.151 612.277 471.607 605.606 470.936 599.418C470.273 593.229 469.133 588.637 468.405 589.208C454.948 599.773 450.155 606.025 453.466 608.692C455.706 610.496 448.081 612.886 436.51 614C417.233 615.857 415.985 616.708 421.533 624.203C428.747 633.955 422.083 643.99 408.263 644.195C401.408 644.296 399.447 642.965 401.925 639.888C403.896 637.442 407.237 636.831 409.351 638.534C411.46 640.232 414.318 638.121 415.699 633.841C419.565 621.834 404.108 612.883 386.509 616.935C377.796 618.939 370.028 618.756 369.238 616.531C366.306 608.215 350.473 610.747 334.596 622.069C323.587 629.918 313.286 632.611 303.252 630.257C285.387 626.06 284.856 626.606 276.604 657.437C269.283 684.782 265.146 690.609 207.357 754.962C184.504 780.408 162.034 808.261 157.424 816.851C152.813 825.44 147.109 851.152 144.745 873.991C142.38 896.829 138.111 918.493 135.259 922.132C132.403 925.768 120.855 927.404 109.598 925.757C86.2043 922.345 80.832 926.987 74.6677 955.956C69.646 979.537 47.7614 1004.19 41.4667 993.365C39.4347 989.866 33.0758 987.51 27.3377 988.125C15.4942 989.405 9.06504 986.228 17.4856 983.256C20.653 982.14 19.6646 980.193 15.1896 978.753C5.6502 975.679 -4.57902 942.463 2.18777 936.512C4.84314 934.173 14.0162 927.604 22.5743 921.912C31.1325 916.221 46.7879 902.838 57.3628 892.174C75.6295 873.762 76.4377 871.622 73.4039 849.528C69.3575 819.991 71.6175 809.92 89.8137 776.514C101.436 755.176 111.671 743.18 137.673 720.44C167.568 694.293 171.823 688.921 181.928 664.563C190.13 644.785 200.23 630.118 219.855 609.459C239.057 589.244 248.091 576.249 251.901 563.361C254.817 553.491 263.49 535.034 271.171 522.347C278.852 509.66 283.305 497.8 281.065 495.996C278.495 493.926 280.312 492.036 285.953 490.892C292.898 489.484 293.929 487.359 290.52 481.495C283.86 470.033 280.526 468.394 266.81 469.807C255.107 471.018 254.791 470.777 262.286 466.373C273.912 459.551 268.354 449.577 254.81 452.953C244.831 455.441 244.008 454.954 248.467 449.197C253.794 442.315 249.68 431.465 238.282 422.364C233.661 418.669 233.205 421.923 236.776 433.081C239.598 441.891 239.73 449.332 237.075 449.618C234.419 449.905 234.328 451.819 236.87 453.866C239.415 455.916 240.06 459.377 238.304 461.558C236.547 463.739 232.434 463.367 229.162 460.733C225.891 458.098 224.738 454.051 226.596 451.744C228.455 449.436 227.306 447.21 224.039 446.802C220.773 446.393 220.342 443.275 223.079 439.877C225.816 436.479 226.273 432.258 224.093 430.502C221.912 428.745 218.441 429.402 216.378 431.963C214.315 434.525 211.538 429.752 210.212 421.356C208.887 412.961 205.971 401.055 203.739 394.897C201.128 387.709 201.458 386.334 204.654 391.058C209.599 398.375 222.682 395.053 221.787 386.716C221.525 384.315 214.03 378.443 205.129 373.667C189.683 365.378 189.52 364.914 201.532 363.619C211.447 362.55 216.722 365.432 226.388 377.197C233.132 385.414 239.999 392.82 241.644 393.667C243.296 394.514 240.902 397.973 236.328 401.356C226.432 408.676 232.712 415.878 243.514 409.601C253.416 403.848 254.047 395.792 245.153 388.629C241.187 385.436 237.875 378.291 237.796 372.748C237.706 366.707 233.774 361.175 227.965 358.915C219.53 355.639 219.671 354.563 229.068 350.573C234.999 348.055 240.665 344.989 241.658 343.755C245.11 339.469 232.198 332.482 227.003 335.823C223.678 337.956 218.62 335.007 213.108 327.711C208.343 321.403 206.674 315.457 209.395 314.497C212.119 313.533 217.163 316.556 220.601 321.208C224.042 325.855 228.368 327.79 230.21 325.502C234.576 320.081 223.756 303.857 215.043 302.768C210.899 302.248 210.734 300.383 214.616 297.941C218.737 295.356 225.101 298.056 232.827 305.67C241.044 313.779 244.957 315.283 245.546 310.567C246.015 306.826 243.322 302.768 239.568 301.562C231.165 298.854 234.567 285.984 243.959 284.971C248.283 284.505 245.86 281.338 237.338 276.318C228.894 271.348 225.291 266.674 227.644 263.752C229.701 261.199 232.274 261.624 233.363 264.704C234.452 267.784 239.945 271.004 245.577 271.86C253.797 273.106 254.74 272.349 250.345 268.032C247.336 265.073 243.447 261.817 241.701 260.796C239.957 259.771 241.713 257.086 245.598 254.828C250.641 251.902 250.267 249.947 244.303 248.026C233.368 244.502 239.927 236.481 252.061 238.533C258.467 239.62 260.719 238.106 259.181 233.749C257.946 230.251 255.344 229.358 253.402 231.769C247.482 239.12 241.354 206.671 247.233 199.096C253.023 191.639 260.621 194.372 259.479 203.5C259.106 206.488 256.07 207.913 252.728 206.673C247.99 204.909 247.185 205.909 249.066 211.228C250.494 215.267 254.674 216.189 259.321 213.486C263.635 210.979 266.022 205.684 264.626 201.729C263.083 197.362 266.705 190.251 273.829 183.653C283.317 174.867 284.18 171.653 278.332 166.942C268.347 158.901 274.451 153.077 286.963 158.701C294.485 162.08 298.375 160.676 301.64 153.415C304.896 146.166 307.966 145.049 313.152 149.226C317.042 152.359 324.602 154.035 329.953 152.951C338.078 151.304 338.296 149.865 331.262 144.2C322.09 136.813 324.708 128.992 335.321 132.081C340.024 133.449 341.162 130.444 339.256 121.699C337.78 114.927 338.787 109.149 341.493 108.857C344.199 108.565 346.163 113.683 345.858 120.23C345.392 130.176 346.998 132.111 355.624 131.984C361.303 131.897 368.444 135.596 371.494 140.202C377.308 148.964 404.897 148.369 403.941 139.499C403.656 136.897 401.751 136.853 399.704 139.395C397.654 141.94 392.289 141.052 387.785 137.424C383.28 133.797 374.714 129.905 368.748 128.781C361.02 127.322 356.76 123.44 353.919 115.262C350.685 105.958 347.517 103.504 337.149 102.253C325.828 100.896 325.271 100.192 332.29 96.1111C336.648 93.5809 341.631 89.7488 343.361 87.5997C345.092 85.4505 349.248 87.8232 352.595 92.872C358.186 101.303 359.391 100.725 367.465 85.6747L376.251 69.302L396.521 85.6269C412.283 98.3207 415.676 103.328 411.78 108.166C407.728 113.198 410.584 116.851 426.71 127.282C444.599 138.852 457.287 140.468 464.337 132.071C465.684 130.463 462.941 125.704 458.24 121.5C451.524 115.497 451.539 114.691 458.309 117.745C463.049 119.888 467.786 125.873 468.837 131.054C470.373 138.626 471.762 139.208 475.929 134.033C482.028 126.46 489.338 130.614 486.205 139.877C484.463 145.011 485.879 146.152 493.275 145.572C500.938 144.97 501.569 144.08 496.97 140.375C492.766 136.99 493.43 135.688 499.708 135.011C505.979 134.335 508.44 136.336 509.845 143.26C511.288 150.357 513.889 151.956 521.508 150.41C529.867 148.716 529.659 147.091 520.119 139.407C511.522 132.484 510.883 130.185 517.376 129.485C523.683 128.805 527.191 131.526 531.257 140.252C543.073 165.646 550.077 171.836 557.112 163.101C564.766 153.596 571.955 157 568.289 168.396C566.907 172.676 569.593 179.252 574.26 183.01C580.362 187.925 583.478 187.538 585.383 181.627C586.837 177.11 589.5 171.587 591.301 169.351C593.102 167.114 591.105 164.172 586.866 162.804Z" fill="#00C6B5"/>
<path d="M769.185 297.503C765.918 297.095 764.77 294.869 766.628 292.561C768.487 290.254 771.794 289.799 773.975 291.556C776.156 293.312 777.308 295.534 776.532 296.498C775.756 297.461 772.452 297.912 769.185 297.503Z" fill="#00C6B5"/>
<path d="M396.635 13.8115C391.635 9.78459 393.043 0.707308 398.763 0.0906291C406.823 -0.778429 410.094 4.73855 405.157 10.8688C402.522 14.1401 398.689 15.4657 396.635 13.8115Z" fill="#00C6B5"/>
<path d="M512.218 97.0907C508.951 96.6825 507.802 94.4564 509.661 92.1487C511.519 89.8409 514.827 89.3865 517.008 91.1429C519.189 92.8993 520.341 95.1214 519.565 96.085C518.789 97.0485 515.484 97.4989 512.218 97.0907Z" fill="#00C6B5"/>
<path d="M548.557 134.665C545.267 133.441 544.858 129.614 547.64 126.161C550.421 122.707 555.518 122.157 558.972 124.939C565.974 130.578 557.882 138.135 548.557 134.665Z" fill="#00C6B5"/>
<path d="M683.9 253.83C687.689 253.913 694.459 251.782 698.942 249.105C707.429 244.022 717.472 248.077 712.302 254.497C710.673 256.519 704.507 258.698 698.601 259.334C684.212 260.886 682.666 263.779 692.143 271.411C696.548 274.959 697.944 280.443 695.283 283.746C689.296 291.181 686.271 288.914 684.872 275.943C684.277 270.391 682.258 263.11 680.398 259.762C678.046 255.547 679.12 253.726 683.9 253.83Z" fill="#00C6B5"/>
<path d="M676.037 236.62C672.426 235.528 667.965 231.936 666.124 228.636C664.285 225.344 667.238 226.239 672.69 230.629C678.143 235.02 679.65 237.718 676.037 236.62Z" fill="#00C6B5"/>
<path d="M772.12 322.747C771.157 321.971 770.706 318.667 771.115 315.4C771.523 312.133 773.749 310.985 776.057 312.843C778.365 314.702 778.819 318.009 777.062 320.19C775.306 322.371 773.084 323.523 772.12 322.747Z" fill="#00C6B5"/>
<path d="M478.753 94C476.679 92.3299 475.894 88.5331 477 85.5605C478.106 82.588 481.983 82.5465 485.619 85.4748C489.255 88.4032 490.041 92.2 487.373 93.9144C484.704 95.6287 480.827 95.6702 478.753 94Z" fill="#00C6B5"/>
<path d="M665.158 256.216C662.978 254.459 663.435 250.239 666.172 246.841C668.908 243.443 672.047 243.198 673.142 246.303C674.237 249.407 673.783 253.624 672.129 255.678C670.474 257.732 667.339 257.972 665.158 256.216Z" fill="#00C6B5"/>
<path d="M484.745 116.999C479.005 111.983 479.579 111.563 488.706 114.109C503.594 118.261 507.239 121.341 501.584 124.97C498.915 126.685 495.547 126.914 494.096 125.477C492.645 124.04 488.438 120.221 484.745 116.999Z" fill="#00C6B5"/>
<path d="M396.189 78.8226C394.008 77.0662 395.938 71.0177 400.473 65.387C405.011 59.7525 410.127 57.3291 411.841 59.9976C413.555 62.666 413.784 66.0341 412.348 67.4853C410.911 68.9365 407.579 72.7969 404.945 76.0682C402.31 79.3395 398.37 80.579 396.189 78.8226Z" fill="#00C6B5"/>
<path d="M434.685 102.046C429.062 99.0606 428.717 95.2524 433.526 89.2808C438.335 83.3092 442.13 82.8349 446.245 87.6922C449.466 91.5018 449.991 97.2459 447.404 100.458C444.818 103.67 439.094 104.381 434.685 102.046Z" fill="#00C6B5"/>
<path d="M737.725 338.596C734.113 337.505 729.652 333.912 727.812 330.613C725.972 327.321 728.926 328.215 734.378 332.606C739.83 336.997 741.338 339.695 737.725 338.596Z" fill="#00C6B5"/>
<path d="M818.485 418.92C812.355 413.983 814.374 407.896 822.435 407.027C828.155 406.41 831.465 414.979 827.438 419.979C825.783 422.033 821.756 421.555 818.485 418.92Z" fill="#00C6B5"/>
<path d="M380.562 66.2373C378.255 64.3787 377.8 61.0712 379.557 58.8904C381.313 56.7095 383.535 55.5576 384.499 56.3336C385.462 57.1096 385.913 60.4138 385.504 63.6805C385.096 66.9471 382.87 68.0958 380.562 66.2373Z" fill="#00C6B5"/>
<path d="M427.706 117.279C424.308 114.542 422.961 110.516 424.718 108.335C426.474 106.154 429.589 105.721 431.643 107.375C433.696 109.029 435.039 113.052 434.631 116.319C434.223 119.585 431.104 120.015 427.706 117.279Z" fill="#00C6B5"/>
<path d="M441.35 128.267C439.169 126.511 438.822 123.29 440.579 121.109C442.335 118.928 445.556 118.581 447.737 120.337C449.918 122.093 450.265 125.315 448.509 127.496C446.753 129.676 443.531 130.024 441.35 128.267Z" fill="#00C6B5"/>
<path d="M340.804 66.9029C338.496 65.0443 338.042 61.7369 339.798 59.556C341.555 57.3751 343.777 56.2232 344.741 56.9992C345.704 57.7752 346.154 61.0795 345.746 64.3461C345.338 67.6127 343.112 68.7615 340.804 66.9029Z" fill="#00C6B5"/>
<path d="M755.141 420.203C750.95 416.827 756.405 401.661 762.603 399.476C770.522 396.681 770.81 398.79 764.223 411.174C760.875 417.466 756.787 421.528 755.141 420.203Z" fill="#00C6B5"/>
<path d="M737.864 393.214C735.683 391.457 735.335 388.236 737.092 386.055C738.848 383.874 742.07 383.527 744.25 385.283C746.431 387.04 746.779 390.261 745.022 392.442C743.266 394.623 740.044 394.97 737.864 393.214Z" fill="#00C6B5"/>
<path d="M249.052 91.0654C246.871 89.309 246.523 86.0877 248.28 83.9068C250.036 81.7259 253.258 81.3786 255.438 83.135C257.619 84.8913 257.967 88.1127 256.21 90.2936C254.454 92.4745 251.233 92.8218 249.052 91.0654Z" fill="#00C6B5"/>
<path d="M270.285 127.777C267.962 125.906 270.374 123.698 275.983 122.56C281.334 121.477 286.329 121.087 287.082 121.694C287.836 122.3 285.272 124.648 281.384 126.91C277.493 129.169 272.498 129.559 270.285 127.777Z" fill="#00C6B5"/>
<path d="M708.192 470.642C704.925 470.234 703.776 468.007 705.635 465.7C707.494 463.392 710.801 462.938 712.982 464.694C715.163 466.45 716.315 468.672 715.539 469.636C714.763 470.6 711.458 471.05 708.192 470.642Z" fill="#00C6B5"/>
<path d="M251.367 112.541C249.186 110.785 248.839 107.564 250.595 105.383C252.352 103.202 255.573 102.854 257.754 104.611C259.935 106.367 260.282 109.589 258.526 111.769C256.769 113.95 253.548 114.298 251.367 112.541Z" fill="#00C6B5"/>
<path d="M758.915 521.297C756.734 519.541 756.387 516.319 758.143 514.139C759.899 511.958 763.121 511.61 765.302 513.367C767.482 515.123 767.83 518.345 766.073 520.525C764.317 522.706 761.096 523.054 758.915 521.297Z" fill="#00C6B5"/>
<path d="M744.849 571.79C741.807 571.412 739.663 568.385 740.076 565.063C740.493 561.745 743.614 561.271 747.012 564.008C753.979 569.618 753.086 572.821 744.849 571.79Z" fill="#00C6B5"/>
<path d="M250.663 182.62C248.463 182.861 246.243 179.067 245.735 174.186C245.004 167.139 245.824 167.054 249.744 173.754C252.453 178.394 252.868 182.383 250.663 182.62Z" fill="#00C6B5"/>
<path d="M207.621 172.777C205.245 173.034 201.708 170.42 199.772 166.972C197.626 163.159 199.323 162.976 204.095 166.506C208.412 169.701 209.998 172.521 207.621 172.777Z" fill="#00C6B5"/>
<path d="M211.29 211.006C207.289 215.974 203.082 212.586 199.395 201.426C197.088 194.444 198.26 194.158 205.514 199.915C210.445 203.834 213.047 208.825 211.29 211.006Z" fill="#00C6B5"/>
<path d="M226.715 245.759C224.246 241.502 224.461 235.237 227.201 231.834C229.938 228.436 232.086 226.8 231.973 228.206C231.857 229.616 231.639 235.879 231.487 242.13C231.251 252.026 230.631 252.495 226.715 245.759Z" fill="#00C6B5"/>
<path d="M631.39 592.297C631.199 590.561 635.654 588.357 641.283 587.399C646.912 586.441 653.188 586.887 655.229 588.394C657.271 589.901 652.816 592.105 645.332 593.288C637.85 594.479 631.577 594.029 631.39 592.297Z" fill="#00C6B5"/>
<path d="M640.093 628.252C637.912 626.496 637.565 623.274 639.321 621.093C641.078 618.912 644.299 618.565 646.48 620.321C648.661 622.078 649.008 625.299 647.252 627.48C645.495 629.661 642.274 630.008 640.093 628.252Z" fill="#00C6B5"/>
<path d="M191.471 301.794C187.045 295.811 188.216 291.923 196.477 285.188C206.496 277.026 206.852 277.11 201.464 286.439C198.275 291.957 197.324 297.814 199.354 299.449C201.38 301.081 201.738 304.036 200.148 306.011C198.555 307.989 194.653 306.089 191.471 301.794Z" fill="#00C6B5"/>
<path d="M132.293 272.57C130.219 270.899 129.433 267.103 130.54 264.13C131.646 261.158 135.523 261.116 139.159 264.044C142.795 266.973 143.581 270.77 140.912 272.484C138.244 274.198 134.367 274.24 132.293 272.57Z" fill="#00C6B5"/>
<path d="M579.865 638.58C577.557 636.721 577.103 633.414 578.859 631.233C580.615 629.052 582.838 627.9 583.801 628.676C584.765 629.452 585.215 632.757 584.807 636.023C584.399 639.29 582.172 640.438 579.865 638.58Z" fill="#00C6B5"/>
<path d="M537.206 628.163C533.594 627.072 529.133 623.479 527.293 620.18C525.453 616.888 528.407 617.782 533.859 622.173C539.311 626.564 540.819 629.262 537.206 628.163Z" fill="#00C6B5"/>
<path d="M135.762 349.173C124.233 352.06 124.094 351.745 132.336 341.511C137.844 334.671 143.062 332.559 146.877 335.631C154.276 341.59 151.233 345.303 135.762 349.173Z" fill="#00C6B5"/>
<path d="M535.263 661.493C532.955 659.635 532.501 656.327 534.257 654.146C536.014 651.965 538.236 650.814 539.2 651.59C540.163 652.366 540.613 655.67 540.205 658.936C539.797 662.203 537.571 663.352 535.263 661.493Z" fill="#00C6B5"/>
<path d="M155.707 381.964C154.743 381.188 154.293 377.884 154.701 374.617C155.109 371.351 157.336 370.202 159.643 372.06C161.951 373.919 162.405 377.226 160.649 379.407C158.893 381.588 156.67 382.74 155.707 381.964Z" fill="#00C6B5"/>
<path d="M187.22 403.793C184.177 403.415 182.033 400.388 182.446 397.066C182.863 393.748 185.984 393.274 189.383 396.011C196.35 401.622 195.456 404.825 187.22 403.793Z" fill="#00C6B5"/>
<path d="M514.325 670.779C512.144 669.023 511.797 665.801 513.553 663.62C515.31 661.439 518.531 661.092 520.712 662.849C522.893 664.605 523.24 667.826 521.484 670.007C519.727 672.188 516.506 672.535 514.325 670.779Z" fill="#00C6B5"/>
<path d="M154.209 403.638C150.943 403.229 149.794 401.003 151.652 398.695C153.511 396.388 156.818 395.933 158.999 397.69C161.18 399.446 162.332 401.668 161.556 402.632C160.78 403.595 157.476 404.046 154.209 403.638Z" fill="#00C6B5"/>
<path d="M258.208 496.682C255.612 494.873 253.421 488.931 253.34 483.473C253.217 475.321 254.383 474.507 259.863 478.92C263.526 481.871 264.205 485.111 261.366 486.112C258.526 487.114 257.719 490.641 259.568 493.954C261.663 497.7 261.152 498.733 258.208 496.682Z" fill="#00C6B5"/>
<path d="M93.0016 373.785C91.5574 369.693 93.8125 367.234 100.202 365.941C111.555 363.637 113.05 369.313 102.678 375.341C98.5107 377.764 94.155 377.061 93.0016 373.785Z" fill="#00C6B5"/>
<path d="M180.702 447.853C170.087 439.304 183.504 431.46 196.146 438.823C202.876 442.747 209.465 446.432 210.792 447.017C212.119 447.602 214.487 451.967 216.056 456.715C218.218 463.267 215.788 462.859 205.971 455.032C198.856 449.354 191.599 446.497 189.843 448.678C188.087 450.859 183.973 450.488 180.702 447.853Z" fill="#00C6B5"/>
<path d="M118.597 423.985C116.289 422.126 115.835 418.819 117.591 416.638C119.348 414.457 121.57 413.305 122.533 414.081C123.497 414.857 123.947 418.161 123.539 421.428C123.131 424.695 120.905 425.843 118.597 423.985Z" fill="#00C6B5"/>
<path d="M379.833 634.373C377.78 632.719 377.539 629.584 379.295 627.403C381.052 625.222 385.272 625.679 388.67 628.416C392.069 631.153 392.313 634.291 389.209 635.386C386.104 636.481 381.887 636.027 379.833 634.373Z" fill="#00C6B5"/>
<path d="M61.9298 503.748C50.9914 504.927 50.1216 496.859 60.5312 490.809C66.678 487.235 68.8107 488.109 69.4976 494.481C70.1838 500.845 68.3868 503.052 61.9298 503.748Z" fill="#00C6B5"/>
<path d="M8.14215 493.147C4.33209 495.289 4.14911 493.593 7.67912 488.82C10.8744 484.503 13.6945 482.917 13.9507 485.294C14.207 487.671 11.5937 491.208 8.14215 493.147Z" fill="#00C6B5"/>
</svg>
