<svg width="12688" height="3131" viewBox="0 0 12688 3131" fill="none" xmlns="http://www.w3.org/2000/svg">
<path d="M704.295 3115.29C640.946 3115.29 585.049 3096.66 544.059 3055.67L81.9814 2593.59C37.2643 2548.88 7.45286 2474.35 7.45286 2370.01C7.45286 2053.26 171.416 1378.78 309.294 961.418L70.8021 722.927C22.3586 674.483 0 629.766 0 555.238C0 465.803 63.3493 376.369 193.774 324.199C331.652 268.303 812.361 130.425 957.692 96.8872C1177.55 48.4436 1430.95 0 1572.55 0C1621 0 1673.17 33.5379 1725.34 81.9815L2187.41 544.059C2295.48 652.125 2388.64 838.446 2388.64 931.607C2388.64 1084.39 2254.49 1419.77 2198.59 1524.11C2142.7 1632.18 2071.89 1680.62 1986.19 1702.98L2049.54 1766.33C2291.75 2012.27 2444.54 2302.93 2444.54 2645.76C2444.54 2887.98 2280.57 3070.58 1922.84 3070.58C1766.33 3070.58 1509.2 2981.14 1285.62 2887.98C1095.57 2996.05 849.626 3115.29 704.295 3115.29Z" fill="#111111"/>
<path d="M3991.99 3130.2C3746.05 3130.2 3365.95 3044.49 3216.9 2899.16L3097.65 2779.92C3079.02 2813.45 3052.93 2835.81 3019.4 2854.44C2818.17 2977.42 2534.96 3115.29 2374.72 3115.29C2311.38 3115.29 2259.21 3096.66 2218.21 3055.67L1756.14 2597.32C1711.42 2548.88 1681.61 2474.35 1681.61 2370.01C1681.61 2023.45 1849.3 1266.99 1972.27 868.258L1737.51 629.766C1689.06 585.049 1666.7 536.606 1666.7 462.077C1666.7 361.464 1730.05 301.841 1856.75 245.944C2106.42 134.151 2356.09 33.5379 2493.97 33.5379C2620.67 33.5379 3034.3 365.19 3257.89 562.691C3272.79 573.87 3287.7 588.776 3298.88 599.955L3760.96 1062.03C3947.28 1248.35 3999.45 1464.49 3999.45 1591.18C3999.45 1777.51 3891.38 1878.12 3753.5 1930.29C4088.88 2355.1 4301.29 2627.13 4301.29 2899.16C4301.29 3059.4 4178.32 3130.2 3991.99 3130.2Z" fill="#111111"/>
<path d="M3789.54 3115.29C3726.2 3115.29 3674.03 3096.66 3633.03 3055.67L3170.96 2597.32C3126.24 2548.88 3096.43 2474.35 3096.43 2370.01C3096.43 2314.11 3122.51 2206.05 3156.05 2086.8C3215.67 1874.39 3271.57 1680.62 3353.55 1434.67L3521.24 942.786L3375.91 689.389C3327.47 603.681 3316.29 529.153 3316.29 458.351C3316.29 361.464 3361.01 290.661 3472.8 242.218C3580.86 193.774 4206.9 26.0849 4318.7 26.0849C4370.87 26.0849 4415.58 40.9906 4456.58 81.9815L4918.65 544.059C4944.74 573.87 4970.82 611.134 4989.45 663.304C5045.35 812.361 5101.25 1006.14 5160.87 1207.36L5235.4 1464.49L5507.43 1740.24C5533.51 1766.33 5548.42 1799.86 5548.42 1844.58C5548.42 1915.38 5499.98 2019.72 5440.35 2124.06C5458.98 2183.69 5593.14 2537.7 5615.49 2597.32C5656.48 2705.39 5678.84 2768.74 5678.84 2854.44C5678.84 2951.33 5611.77 3063.12 5410.54 3063.12C5254.03 3063.12 5082.62 3007.23 4873.94 2936.43C4777.05 2906.61 4713.7 2873.08 4672.71 2835.81L4538.56 2697.93C4519.92 2779.92 4486.39 2824.63 4415.58 2865.62C4225.54 2973.69 3953.51 3115.29 3789.54 3115.29Z" fill="#111111"/>
<path d="M5447.31 3115.29C5383.96 3115.29 5328.06 3096.66 5287.07 3055.67L4825 2593.59C4780.28 2548.88 4750.47 2474.35 4750.47 2370.01C4750.47 2105.43 4899.52 1498.02 5015.04 1050.85C4947.97 804.909 4847.36 398.728 4847.36 257.124C4847.36 137.878 4906.98 48.4436 5078.39 48.4436C5257.26 48.4436 5659.72 175.142 5752.88 212.406C5801.32 231.038 5846.04 257.124 5879.58 294.388L5980.19 391.275C5995.1 361.464 6017.45 335.378 6047.27 316.746C6229.86 197.501 6483.26 26.0849 6602.5 26.0849C6647.22 26.0849 6684.48 44.7172 6718.02 78.2551L7176.37 536.606C7221.09 581.323 7247.17 640.946 7247.17 700.568C7247.17 763.918 7116.75 1363.87 7045.95 1673.17C7068.31 1788.69 7109.3 1937.74 7154.01 2090.53C7221.09 2321.56 7291.89 2571.24 7291.89 2735.2C7291.89 2854.44 7228.54 2940.15 7060.85 2940.15C6881.98 2940.15 6475.8 2817.18 6386.37 2779.92C6349.11 2765.01 6323.02 2746.38 6296.94 2724.02L6200.05 2627.13C6200.05 2753.83 6159.06 2806 6084.53 2854.44C5883.3 2981.14 5607.55 3115.29 5447.31 3115.29Z" fill="#111111"/>
<path d="M7117.65 3115.29C7054.3 3115.29 6998.41 3096.66 6957.42 3055.67L6495.34 2593.59C6450.62 2548.88 6420.81 2474.35 6420.81 2370.01C6420.81 2027.18 6525.15 1650.81 6633.22 1263.26L6692.84 1047.13C6610.86 786.276 6513.97 435.992 6513.97 249.671C6513.97 96.8872 6651.85 11.1794 6774.82 11.1794C6871.71 11.1794 7043.12 89.4342 7121.38 126.698C7467.94 294.388 7762.32 469.53 7967.28 611.134C8026.9 648.398 8079.07 693.116 8127.51 741.559L8585.87 1199.91C8720.02 1334.06 8794.54 1483.12 8794.54 1613.54C8794.54 1833.4 8477.8 2191.14 8265.39 2437.08C8216.95 2492.98 8116.33 2608.5 8052.99 2671.85C8008.27 2716.57 7985.91 2750.1 7915.11 2794.82C7706.43 2925.25 7296.52 3115.29 7117.65 3115.29Z" fill="#111111"/>
<path d="M8481.12 3115.29C8417.77 3115.29 8365.6 3096.66 8324.61 3055.67L7862.53 2597.32C7817.81 2548.88 7788 2474.35 7788 2370.01C7788 2053.26 7944.51 1300.52 8078.66 864.531L7843.9 629.766C7795.45 585.049 7773.1 536.606 7773.1 462.077C7773.1 361.464 7836.44 301.841 7963.14 245.944C8063.76 201.227 8488.57 33.5379 8592.91 33.5379C8659.99 33.5379 8715.88 59.6227 8760.6 100.614L9218.95 562.691C9271.12 611.134 9297.21 681.936 9286.03 749.012C9274.85 819.814 9211.5 1341.51 9211.5 1971.28C9211.5 2202.32 9222.68 2343.92 9230.13 2448.26L9237.58 2627.13C9237.58 2757.56 9200.32 2806 9125.79 2854.44C8928.29 2981.14 8641.35 3115.29 8481.12 3115.29Z" fill="#111111"/>
<path d="M9216.21 3115.29C9152.86 3115.29 9100.69 3100.39 9059.7 3055.67L8597.63 2597.32C8549.18 2545.15 8523.1 2474.35 8523.1 2370.01C8523.1 2053.26 8679.61 1300.52 8813.76 864.531L8578.99 629.766C8530.55 585.049 8508.19 536.606 8508.19 462.077C8508.19 361.464 8571.54 301.841 8698.24 245.944C8798.85 197.501 9223.67 33.5379 9328.01 33.5379C9395.08 33.5379 9450.98 59.6227 9491.97 100.614L9678.29 286.935L9723.01 253.397C9775.18 216.133 10047.2 33.5379 10185.1 33.5379C10248.4 33.5379 10293.2 48.4436 10326.7 85.7078L10788.8 544.059C10822.3 581.323 10837.2 629.766 10840.9 685.663C10840.9 719.201 10770.1 1069.48 10718 1311.7L10855.8 1449.58C10881.9 1475.67 10893.1 1509.2 10896.8 1553.92C10896.8 1647.08 10803.7 1822.22 10732.9 1930.29C10773.9 2034.63 10941.5 2407.27 10986.3 2526.52C11038.4 2664.4 11068.2 2750.1 11072 2854.44C11072 2951.33 11004.9 3066.85 10803.7 3063.12C10647.2 3063.12 10475.7 3010.95 10270.8 2936.43C10177.6 2902.89 10114.3 2876.8 10077 2839.54L9961.5 2724.02C9946.59 2787.37 9916.78 2820.91 9860.89 2854.44C9659.66 2977.42 9376.45 3115.29 9216.21 3115.29Z" fill="#111111"/>
<path d="M10798.4 3115.29C10735.1 3115.29 10682.9 3096.66 10641.9 3055.67L10179.8 2597.32C10135.1 2548.88 10105.3 2474.35 10105.3 2370.01C10105.3 2314.11 10131.4 2206.05 10164.9 2086.8C10224.6 1874.39 10280.5 1680.62 10362.4 1434.67L10530.1 942.786L10384.8 689.389C10336.4 603.681 10325.2 529.153 10325.2 458.351C10325.2 361.464 10369.9 290.661 10481.7 242.218C10589.8 193.774 11215.8 26.0849 11327.6 26.0849C11379.8 26.0849 11424.5 40.9906 11465.5 81.9815L11927.5 544.059C11953.6 573.87 11979.7 611.134 11998.3 663.304C12054.2 812.361 12110.1 1006.14 12169.8 1207.36L12244.3 1464.49L12516.3 1740.24C12542.4 1766.33 12557.3 1799.86 12557.3 1844.58C12557.3 1915.38 12508.9 2019.72 12449.2 2124.06C12467.9 2183.69 12602 2537.7 12624.4 2597.32C12665.4 2705.39 12687.7 2768.74 12687.7 2854.44C12687.7 2951.33 12620.7 3063.12 12419.4 3063.12C12262.9 3063.12 12091.5 3007.23 11882.8 2936.43C11785.9 2906.61 11722.6 2873.08 11681.6 2835.81L11547.4 2697.93C11528.8 2779.92 11495.3 2824.63 11424.5 2865.62C11234.4 2973.69 10962.4 3115.29 10798.4 3115.29Z" fill="#111111"/>
<path d="M242.269 2560.56C152.834 2560.56 119.297 2497.21 119.297 2385.41C119.297 2053.76 313.071 1293.57 450.949 902.297L532.93 708.523L409.958 868.759L171.467 682.438C130.476 648.9 111.844 630.268 111.844 570.645C111.844 518.475 160.287 473.758 234.816 443.946C372.694 388.05 842.223 250.172 980.101 220.361C1199.96 171.917 1442.18 127.2 1572.6 127.2C1636.06 127.2 1755.86 313.407 1798.91 425.567C1808.96 451.729 1814.82 473.862 1814.82 488.664C1814.82 508.404 1811.56 532.759 1805.9 560.191C1775.19 708.82 1673.7 947.786 1635.95 1032.72C1591.24 1125.88 1524.16 1148.24 1464.54 1155.69L1222.32 1166.87C1532.84 1385.71 1758.86 1644.45 1838.94 1952.4C1859.76 2032.49 1870.72 2115.91 1870.72 2202.82C1870.72 2284.72 1846.73 2356.13 1794.04 2409.97C1729.26 2476.18 1621.1 2515.84 1460.81 2515.84C1240.95 2515.84 760.242 2303.43 540.383 2195.37C532.93 2202.82 767.695 2348.15 760.242 2355.6C573.921 2463.67 361.514 2560.56 242.269 2560.56ZM1196.23 1878.62C1237.22 1878.62 1267.04 1863.72 1267.04 1815.27C1267.04 1759.38 1062.08 1543.24 872.035 1386.73V1770.55C965.196 1811.55 1110.53 1878.62 1196.23 1878.62ZM872.035 988.005C1006.19 958.194 1121.71 920.929 1173.88 906.024C1252.13 883.665 1255.86 872.486 1255.86 764.419C1255.86 738.334 1252.13 719.702 1222.32 719.702C1155.24 719.702 1103.07 745.787 872.035 820.316V988.005Z" fill="url(#paint0_linear_497_3)"/>
<path d="M3327.52 2560.56C3304.2 2560.56 3284.74 2555.87 3268.76 2546.79C3226.04 2522.49 3208.27 2466.79 3208.27 2385.41C3208.27 2344.42 3230.63 2251.26 3264.17 2132.02C3277.85 2083.23 3291.52 2035.34 3305.47 1987.48C3307.01 1982.19 3308.56 1976.89 3310.11 1971.6C3329.42 1905.61 3349.29 1839.51 3370.42 1771.03C3457.54 1488.71 3566.07 1166.06 3744.88 645.174L3599.55 868.759L3472.85 648.9C3435.58 581.824 3428.13 533.381 3428.13 473.758C3428.13 421.588 3446.76 391.776 3517.57 361.965C3610.73 320.974 4057.9 201.729 4285.21 160.738C4296.39 157.012 4307.57 153.285 4318.75 153.285C4356.01 153.285 4393.28 175.644 4423.09 257.625C4531.15 548.286 4642.95 1017.82 4758.47 1338.29C4881.44 1338.29 4974.6 1342.02 4974.6 1401.64C4974.6 1453.81 4911.25 1576.78 4855.35 1669.94C4881.44 1740.74 4996.96 2064.94 5049.13 2195.37C5090.12 2292.25 5105.02 2344.42 5105.02 2411.5C5105.02 2445.04 5086.39 2508.39 4948.51 2508.39C4810.64 2508.39 4657.85 2459.94 4445.45 2389.14C4285.21 2336.97 4262.85 2303.43 4262.85 2217.73V1871.17L4449.17 1807.82C4352.29 1811.55 4225.59 1826.45 4124.97 1837.63C4050.44 1848.81 3905.11 1867.44 3823.13 1889.8L3998.27 1900.98L3972.19 2184.19C3964.74 2262.44 3953.56 2292.25 3897.66 2325.79C3715.07 2430.13 3461.67 2560.56 3327.52 2560.56Z" fill="url(#paint1_linear_497_3)"/>
<path d="M4985.28 2560.56C4895.85 2560.56 4862.31 2497.21 4862.31 2385.41C4862.31 2128.29 5015.09 1513.43 5130.61 1066.26C5063.54 824.042 4959.2 406.682 4959.2 272.531C4959.2 220.361 4966.65 175.644 5078.44 175.644C5238.68 175.644 5629.96 298.616 5711.94 332.154C5793.92 361.965 5860.99 443.947 5883.35 533.381L6103.21 1375.55L6024.96 865.033L6058.49 544.56C6058.49 499.843 6073.4 451.399 6110.66 425.314C6274.63 317.248 6524.3 153.285 6602.55 153.285C6636.09 153.285 6673.35 212.908 6673.35 257.625C6673.35 306.069 6535.48 924.656 6468.4 1230.22C6524.3 1543.24 6718.07 2042.58 6718.07 2292.25C6718.07 2344.42 6710.62 2385.41 6598.83 2385.41C6438.59 2385.41 6047.32 2266.17 5965.33 2232.63C5883.35 2199.09 5864.72 2120.84 5846.09 2042.58L5574.06 1017.82L5618.78 1356.92L5626.23 2184.19C5626.23 2262.44 5618.78 2284.8 5566.61 2314.61C5372.83 2433.86 5115.71 2560.56 4985.28 2560.56Z" fill="url(#paint2_linear_497_3)"/>
<path d="M6655.62 2560.56C6566.19 2560.56 6532.65 2497.21 6532.65 2385.41C6532.65 1908.43 6741.33 1368.1 6882.94 756.967L6778.6 965.646C6696.62 697.344 6625.81 391.777 6625.81 265.078C6625.81 179.37 6707.8 138.38 6774.87 138.38C6845.67 138.38 7002.18 209.182 7072.98 242.719C7412.09 406.682 7699.03 578.098 7903.98 719.702C8108.93 857.58 8220.73 1032.72 8220.73 1170.6C8220.73 1338.29 7933.79 1673.67 7717.66 1919.61C7646.86 2001.59 7438.18 2236.36 7404.64 2254.99C7210.87 2374.24 6786.05 2560.56 6655.62 2560.56ZM7285.39 1699.75C7542.52 1409.09 7609.59 1334.56 7609.59 1263.76C7609.59 1215.32 7576.05 1192.96 7490.35 1144.52C7449.36 1118.43 7393.46 1077.44 7322.66 1040.18L7285.39 1699.75Z" fill="url(#paint3_linear_497_3)"/>
<path d="M8019.09 2560.56C7933.38 2560.56 7899.85 2497.21 7899.85 2385.41C7899.85 2053.76 8082.44 1200.41 8220.32 809.136L7944.56 589.277C7903.57 555.739 7884.94 537.107 7884.94 477.484C7884.94 425.314 7933.38 395.503 8007.91 361.965C8112.25 313.521 8518.43 160.738 8592.96 160.738C8671.22 160.738 8719.66 231.54 8712.21 291.163C8701.03 361.965 8637.68 891.118 8637.68 1528.34C8637.68 1904.71 8663.76 2046.31 8663.76 2184.19C8663.76 2262.44 8652.58 2284.8 8604.14 2314.61C8410.37 2433.86 8149.52 2560.56 8019.09 2560.56Z" fill="url(#paint4_linear_497_3)"/>
<path d="M8754.19 2560.56C8668.48 2560.56 8634.94 2497.21 8634.94 2385.41C8634.94 2053.76 8817.54 1200.41 8955.42 809.136L8679.66 589.277C8638.67 555.739 8620.04 537.107 8620.04 477.484C8620.04 425.314 8668.48 395.503 8743.01 361.965C8847.35 313.521 9253.53 160.738 9328.06 160.738C9406.31 160.738 9454.75 231.54 9447.3 291.163C9421.22 473.758 9402.58 850.127 9387.68 1099.8C9525.56 1077.44 9652.26 1062.53 9790.13 1047.63C9723.06 1043.9 9652.26 1032.72 9581.46 1032.72L9622.45 574.371C9629.9 470.031 9700.7 417.861 9786.41 361.965C9827.4 332.154 10088.2 160.738 10185.1 160.738C10252.2 160.738 10267.1 198.002 10267.1 242.719C10267.1 276.257 10129.2 932.109 10103.2 1047.63C10226.1 1047.63 10323 1051.35 10323 1110.98C10323 1181.78 10207.5 1390.46 10144.1 1472.44C10222.4 1681.12 10345.4 1915.89 10416.2 2120.84C10468.3 2258.72 10498.2 2329.52 10498.2 2411.5C10498.2 2445.04 10479.5 2508.39 10341.6 2508.39C10203.8 2508.39 10051 2459.94 9842.3 2389.14C9678.34 2336.97 9674.62 2303.43 9659.71 2217.73C9637.35 2064.94 9622.45 1781.73 9611.27 1576.78L9797.59 1517.16L9473.39 1550.7C9398.86 1561.87 9253.53 1580.51 9171.55 1599.14L9376.5 1614.04C9387.68 1822.72 9398.86 2109.66 9398.86 2184.19C9398.86 2262.44 9387.68 2284.8 9339.24 2314.61C9145.46 2433.86 8884.61 2560.56 8754.19 2560.56Z" fill="url(#paint5_linear_497_3)"/>
<path d="M10336.4 2560.56C10250.7 2560.56 10217.2 2497.21 10217.2 2385.41C10217.2 2344.42 10239.5 2251.26 10273.1 2132.02C10384.8 1733.29 10496.6 1394.19 10753.8 645.174L10608.4 868.759L10481.7 648.9C10444.5 581.824 10437 533.381 10437 473.758C10437 421.588 10455.7 391.776 10526.5 361.965C10619.6 320.974 11066.8 201.729 11294.1 160.738C11305.3 157.012 11316.5 153.285 11327.6 153.285C11364.9 153.285 11402.2 175.644 11432 257.625C11540 548.286 11651.8 1017.82 11767.4 1338.29C11890.3 1338.29 11983.5 1342.02 11983.5 1401.64C11983.5 1453.81 11920.1 1576.78 11864.2 1669.94C11890.3 1740.74 12005.8 2064.94 12058 2195.37C12099 2292.25 12113.9 2344.42 12113.9 2411.5C12113.9 2445.04 12095.3 2508.39 11957.4 2508.39C11819.5 2508.39 11666.7 2459.94 11454.3 2389.14C11294.1 2336.97 11271.7 2303.43 11271.7 2217.73V1871.17L11458.1 1807.82C11361.2 1811.55 11234.5 1826.45 11133.9 1837.63C11059.3 1848.81 10914 1867.44 10832 1889.8L11007.2 1900.98L10981.1 2184.19C10973.6 2262.44 10962.4 2292.25 10906.5 2325.79C10724 2430.13 10470.6 2560.56 10336.4 2560.56Z" fill="url(#paint6_linear_497_3)"/>
<path fill-rule="evenodd" clip-rule="evenodd" d="M1798.91 425.567C1808.96 451.729 1814.82 473.862 1814.82 488.664C1814.82 508.404 1811.56 532.759 1805.9 560.191C1814.5 569.574 1825.22 578.681 1838.17 589.277L2069.21 775.599L2203.36 559.466L2113.92 809.136C2027.63 1052.33 1904.63 1550.61 1838.94 1952.4C1859.76 2032.49 1870.72 2115.91 1870.72 2202.82C1870.72 2284.72 1846.73 2356.13 1794.04 2409.97C1798.83 2506.44 1833.48 2560.56 1912.7 2560.56C2043.12 2560.56 2303.97 2433.86 2497.75 2314.61C2546.19 2284.8 2557.37 2258.72 2557.37 2184.19C2557.37 2068.67 2549.92 1893.53 2549.92 1699.75L2807.04 2336.97C2840.65 2424.86 3057.17 2505.58 3268.76 2546.79C3226.04 2522.49 3208.27 2466.79 3208.27 2385.41C3208.27 2344.42 3230.63 2251.26 3264.17 2132.02C3277.85 2083.23 3291.52 2035.34 3305.47 1987.48C3141.39 1784.6 3040.84 1640.34 2848.03 1416.54C2889.02 1424 2918.83 1424 2985.91 1424C3175.96 1424 3425.63 1371.83 3425.63 1148.24C3425.63 1032.72 3369.73 827.769 3183.41 663.806C2989.64 499.843 2564.82 160.738 2494.02 160.738C2378.5 160.738 2143.74 253.899 1901.52 361.965C1855.76 382.558 1819.83 401.745 1798.91 425.567ZM2807.04 1073.71C2807.04 1092.35 2803.31 1174.33 2739.96 1174.33C2710.15 1174.33 2609.54 1163.15 2538.74 1129.61V1099.8L2542.46 1047.63L2557.37 868.759C2769.78 961.92 2807.04 999.184 2807.04 1073.71Z" fill="url(#paint7_linear_497_3)"/>
<path d="M11267.6 895.067C11268.8 895.009 11270.1 894.973 11271.3 894.954C11372.5 893.199 11331.3 1002.01 11313.1 1058.67C11292.3 1123.62 11271.6 1193.33 11268.9 1261.74C11268.1 1308.98 11298.3 1336.99 11345.3 1333.58C11377.3 1331.24 11419.8 1319.79 11443.5 1297.12C11468.9 1271.88 11490.3 1228.09 11531.2 1227.68C11604.2 1226.95 11611.4 1318.75 11544.9 1343.68C11488.6 1364.81 11429 1373.63 11376.8 1402.29C11335.9 1424.73 11307.3 1469.86 11276.6 1503.31C11224.4 1563.07 11092.3 1543.08 11058.8 1473.38C10995.7 1341.95 10934.2 1350.91 10798.8 1352.18C10785.2 1352.55 10770.4 1352.04 10757.4 1347.74C10741.4 1342.49 10726.9 1332.53 10719.4 1317.06C10714.3 1306.33 10713.4 1294.45 10717.6 1283.26C10722.5 1270.18 10734.8 1255.67 10747.7 1250.15C10797.9 1228.64 10901.8 1287.32 10949.5 1305.7C10973.6 1314.95 11030.1 1335.17 11054.6 1322.74C11060.5 1319.74 11063.7 1315.03 11065.9 1308.95C11085.7 1253.58 11004.4 1155.05 10967.1 1118.8C10938 1090.45 10902.5 1076.91 10884.9 1036.87C10877.9 1020.73 10876 1003.88 10882.8 987.281C10888.8 972.34 10900.1 958.927 10915.3 952.966C10938.2 943.987 10965.4 951.024 10982 968.875C11004 992.625 11026.1 1063.59 11041.2 1096.74C11056.1 1129.5 11126 1250.28 11157.2 1263.66C11164.7 1266.89 11172.9 1267.46 11180.5 1264.28C11196.5 1257.65 11203.2 1236.14 11208.8 1221.1C11227.8 1170.21 11236.6 1116.08 11234.8 1061.78C11232.9 1005.65 11194.1 924.13 11267.6 895.067Z" fill="#111111"/>
<path d="M4255.41 809.964C4256.65 809.907 4257.89 809.871 4259.12 809.852C4360.33 808.096 4319.14 916.908 4300.93 973.571C4280.07 1038.52 4259.41 1108.23 4256.7 1176.64C4255.9 1223.87 4286.11 1251.89 4333.06 1248.47C4365.08 1246.14 4407.62 1234.68 4431.33 1212.02C4456.7 1186.77 4478.08 1142.99 4518.99 1142.58C4592.03 1141.85 4599.24 1233.65 4532.74 1258.58C4476.38 1279.71 4416.83 1288.52 4364.61 1317.19C4323.73 1339.63 4295.11 1384.75 4264.42 1418.21C4212.19 1477.96 4080.13 1457.98 4046.64 1388.28C3983.49 1256.85 3922 1265.81 3786.61 1267.08C3772.97 1267.44 3758.18 1266.93 3745.17 1262.64C3729.25 1257.39 3714.68 1247.43 3707.24 1231.96C3702.08 1221.23 3701.21 1209.34 3705.4 1198.15C3710.31 1185.08 3722.65 1170.57 3735.53 1165.05C3785.72 1143.53 3889.57 1202.21 3937.32 1220.59C3961.37 1229.85 4017.95 1250.07 4042.4 1237.64C4048.31 1234.64 4051.52 1229.93 4053.7 1223.85C4073.56 1168.47 3992.21 1069.95 3954.95 1033.69C3925.82 1005.35 3890.34 991.81 3872.76 951.772C3865.67 935.628 3863.84 918.778 3870.59 902.178C3876.66 887.237 3887.86 873.825 3903.06 867.864C3925.97 858.884 3953.24 865.921 3969.77 883.772C3991.76 907.522 4013.87 978.489 4028.98 1011.64C4043.91 1044.4 4113.82 1165.18 4144.96 1178.56C4152.47 1181.79 4160.68 1182.35 4168.33 1179.18C4184.34 1172.55 4190.99 1151.04 4196.61 1136C4215.58 1085.11 4224.4 1030.97 4222.58 976.676C4220.75 920.549 4181.93 839.027 4255.41 809.964Z" fill="#111111"/>
<path d="M6774.88 142.472C6845.69 142.481 7002.18 213.285 7072.98 246.821C7412.08 410.784 7699.04 582.184 7903.99 723.788C7964.36 764.402 8133.72 915.786 8177.44 960.962C8163.28 1002.71 8150.89 1047.31 8140.48 1094.31C8125.22 1163.24 8034.79 1198.8 7974.18 1162.6C7683.87 989.262 7191.75 866.153 6934.68 839.742C6898.87 836.063 6873.41 801.961 6881.57 766.905C6882.03 764.958 6882.48 763.011 6882.93 761.063L6870.46 785.993C6855.71 815.462 6825.28 833.4 6792.33 833.927C6789.08 833.978 6785.96 834.046 6782.98 834.129C6759.07 834.797 6735.49 821.519 6729.21 798.442C6692.66 664.153 6661.76 531.772 6643.52 426.612C6608.8 596.141 6550.27 862.463 6503.65 1074.14C6486.26 1109.75 6470.44 1148.66 6456.4 1190.4C6426.24 1280.02 6346.77 1347.43 6252.21 1347.43H6244.44C6160.35 1347.43 6088.85 1286.05 6076.11 1202.93L6024.95 869.137L6058.5 548.667C6058.5 503.95 6073.41 455.504 6110.68 429.419C6274.63 321.357 6524.28 157.385 6602.54 157.372C6619.96 157.372 6638.33 173.495 6652.02 195.214C6681.63 159.727 6731.39 142.472 6774.88 142.472Z" fill="url(#paint8_linear_497_3)"/>
<path d="M6774.88 142.472C6845.69 142.481 7002.18 213.285 7072.98 246.821C7412.08 410.784 7699.04 582.184 7903.99 723.788C7964.36 764.402 8133.72 915.786 8177.44 960.962C8163.28 1002.71 8150.89 1047.31 8140.48 1094.31C8125.22 1163.24 8034.79 1198.8 7974.18 1162.6C7683.87 989.262 7191.75 866.153 6934.68 839.742C6898.87 836.063 6873.41 801.961 6881.57 766.905C6882.03 764.958 6882.48 763.011 6882.93 761.063L6870.46 785.993C6855.71 815.462 6825.28 833.4 6792.33 833.927C6789.08 833.978 6785.96 834.046 6782.98 834.129C6759.07 834.797 6735.49 821.519 6729.21 798.442C6692.66 664.153 6661.76 531.772 6643.52 426.612C6608.8 596.141 6550.27 862.463 6503.65 1074.14C6486.26 1109.75 6470.44 1148.66 6456.4 1190.4C6426.24 1280.02 6346.77 1347.43 6252.21 1347.43H6244.44C6160.35 1347.43 6088.85 1286.05 6076.11 1202.93L6024.95 869.137L6058.5 548.667C6058.5 503.95 6073.41 455.504 6110.68 429.419C6274.63 321.357 6524.28 157.385 6602.54 157.372C6619.96 157.372 6638.33 173.495 6652.02 195.214C6681.63 159.727 6731.39 142.472 6774.88 142.472Z" fill="white" fill-opacity="0.21" style="mix-blend-mode:overlay"/>
<path d="M5078.44 179.748C5238.67 179.748 5629.94 302.702 5711.93 336.244C5793.91 366.054 5860.99 448.036 5883.36 537.466L6068.28 1245.91C6081.69 1297.26 6042.93 1347.43 5989.86 1347.43C5960.3 1347.43 5933.2 1331.26 5918.31 1305.71C5910.33 1292.01 5902.11 1278.31 5893.67 1264.64C5634.81 845.72 5263.17 606.101 5063.57 729.429C5054.75 734.882 5042.64 730.601 5040.22 720.514C4996.16 536.653 4959.19 356.467 4959.19 276.62C4959.19 224.454 4966.66 179.748 5078.44 179.748Z" fill="url(#paint9_linear_497_3)"/>
<path d="M5078.44 179.748C5238.67 179.748 5629.94 302.702 5711.93 336.244C5793.91 366.054 5860.99 448.036 5883.36 537.466L6068.28 1245.91C6081.69 1297.26 6042.93 1347.43 5989.86 1347.43C5960.3 1347.43 5933.2 1331.26 5918.31 1305.71C5910.33 1292.01 5902.11 1278.31 5893.67 1264.64C5634.81 845.72 5263.17 606.101 5063.57 729.429C5054.75 734.882 5042.64 730.601 5040.22 720.514C4996.16 536.653 4959.19 356.467 4959.19 276.62C4959.19 224.454 4966.66 179.748 5078.44 179.748Z" fill="white" fill-opacity="0.21" style="mix-blend-mode:overlay"/>
<path d="M10185.1 164.848C10252.2 164.848 10267.1 202.104 10267.1 246.821C10267.1 267.33 10215.7 519.767 10169.7 739.578C10091.7 734.134 10028.5 732.622 9989.17 733.721C9924.12 735.539 9863.34 767.963 9809.77 824.375C9763.04 873.574 9649.33 871.27 9600.44 824.223L9622.43 578.466C9629.89 474.129 9700.7 421.965 9786.41 366.07C9827.4 336.259 10088.2 164.861 10185.1 164.848Z" fill="url(#paint10_linear_497_3)"/>
<path d="M10185.1 164.848C10252.2 164.848 10267.1 202.104 10267.1 246.821C10267.1 267.33 10215.7 519.767 10169.7 739.578C10091.7 734.134 10028.5 732.622 9989.17 733.721C9924.12 735.539 9863.34 767.963 9809.77 824.375C9763.04 873.574 9649.33 871.27 9600.44 824.223L9622.43 578.466C9629.89 474.129 9700.7 421.965 9786.41 366.07C9827.4 336.259 10088.2 164.861 10185.1 164.848Z" fill="white" fill-opacity="0.21" style="mix-blend-mode:overlay"/>
<path d="M1572.6 131.298C1636.05 131.298 1755.85 317.531 1798.89 429.689C1819.81 405.858 1855.74 386.668 1901.52 366.07C2143.73 258.004 2378.51 164.848 2494.03 164.848C2564.87 164.888 2989.66 503.963 3183.42 667.916C3264.82 739.55 3321.31 819.012 3359.12 895.42C3380.39 938.387 3345.85 984.985 3297.93 983.503C3280.47 982.964 3263.93 975.787 3251.26 963.752C3141.49 859.402 2994.97 754.107 2824.62 662.868C2390.52 430.355 1966.15 377.143 1876.76 544.025C1866 564.124 1836.22 575.768 1816.67 564.041C1680.03 482.093 1401.96 439.645 1085.83 463.779C788.415 486.486 533.215 562.313 401.931 655.928C344.769 696.688 226.79 729.765 171.468 686.54C130.477 653.002 111.844 634.364 111.844 574.741C111.845 522.572 160.289 477.854 234.817 448.043C372.697 392.146 842.229 254.257 980.106 224.445C1199.96 176.003 1442.17 131.299 1572.6 131.298Z" fill="url(#paint11_linear_497_3)"/>
<path d="M1572.6 131.298C1636.05 131.298 1755.85 317.531 1798.89 429.689C1819.81 405.858 1855.74 386.668 1901.52 366.07C2143.73 258.004 2378.51 164.848 2494.03 164.848C2564.87 164.888 2989.66 503.963 3183.42 667.916C3264.82 739.55 3321.31 819.012 3359.12 895.42C3380.39 938.387 3345.85 984.985 3297.93 983.503C3280.47 982.964 3263.93 975.787 3251.26 963.752C3141.49 859.402 2994.97 754.107 2824.62 662.868C2390.52 430.355 1966.15 377.143 1876.76 544.025C1866 564.124 1836.22 575.768 1816.67 564.041C1680.03 482.093 1401.96 439.645 1085.83 463.779C788.415 486.486 533.215 562.313 401.931 655.928C344.769 696.688 226.79 729.765 171.468 686.54C130.477 653.002 111.844 634.364 111.844 574.741C111.845 522.572 160.289 477.854 234.817 448.043C372.697 392.146 842.229 254.257 980.106 224.445C1199.96 176.003 1442.17 131.299 1572.6 131.298Z" fill="white" fill-opacity="0.21" style="mix-blend-mode:overlay"/>
<path d="M11327.6 157.372C11364.9 157.377 11402.2 179.751 11432 261.721C11490.5 419.048 11550.1 628.773 11610.8 838.907C11291.4 739.822 10917.4 717.227 10790.7 720.765C10768.2 721.393 10746.3 725.665 10725 733.316C10734.4 705.883 10743.9 677.867 10753.8 649.265L10688.1 750.24C10664.4 763.54 10641.6 781.12 10620 802.576C10600.3 798.305 10580.6 794.26 10561 790.457L10481.7 652.989C10444.5 585.922 10437 537.483 10437 477.869C10437 425.699 10455.7 395.881 10526.5 366.07C10619.6 325.078 11066.8 205.839 11294.1 164.848C11305.3 161.122 11316.5 157.372 11327.6 157.372Z" fill="url(#paint12_linear_497_3)"/>
<path d="M11327.6 157.372C11364.9 157.377 11402.2 179.751 11432 261.721C11490.5 419.048 11550.1 628.773 11610.8 838.907C11291.4 739.822 10917.4 717.227 10790.7 720.765C10768.2 721.393 10746.3 725.665 10725 733.316C10734.4 705.883 10743.9 677.867 10753.8 649.265L10688.1 750.24C10664.4 763.54 10641.6 781.12 10620 802.576C10600.3 798.305 10580.6 794.26 10561 790.457L10481.7 652.989C10444.5 585.922 10437 537.483 10437 477.869C10437 425.699 10455.7 395.881 10526.5 366.07C10619.6 325.078 11066.8 205.839 11294.1 164.848C11305.3 161.122 11316.5 157.372 11327.6 157.372Z" fill="white" fill-opacity="0.21" style="mix-blend-mode:overlay"/>
<path d="M4318.74 157.372C4356 157.372 4393.28 179.741 4423.09 261.721C4456 350.233 4489.23 455.338 4522.82 567.769C4543.6 637.361 4464.09 697.161 4400.06 662.868C3965.96 430.355 3541.59 377.143 3452.2 544.025C3447.8 552.253 3434.07 551.732 3432.59 542.516C3429.22 521.491 3428.13 500.486 3428.13 477.869C3428.13 425.699 3446.78 395.881 3517.58 366.07C3610.75 325.076 4057.91 205.838 4285.22 164.848C4296.39 161.123 4307.56 157.374 4318.74 157.372Z" fill="url(#paint13_linear_497_3)"/>
<path d="M4318.74 157.372C4356 157.372 4393.28 179.741 4423.09 261.721C4456 350.233 4489.23 455.338 4522.82 567.769C4543.6 637.361 4464.09 697.161 4400.06 662.868C3965.96 430.355 3541.59 377.143 3452.2 544.025C3447.8 552.253 3434.07 551.732 3432.59 542.516C3429.22 521.491 3428.13 500.486 3428.13 477.869C3428.13 425.699 3446.78 395.881 3517.58 366.07C3610.75 325.076 4057.91 205.838 4285.22 164.848C4296.39 161.123 4307.56 157.374 4318.74 157.372Z" fill="white" fill-opacity="0.21" style="mix-blend-mode:overlay"/>
<path d="M9328.06 164.848C9406.32 164.852 9454.77 235.65 9447.31 295.271C9433.59 391.357 9421.96 541.097 9411.82 697.795C9069.54 530.316 8541.54 495.309 8386.06 499.651C8304.32 501.936 8229.33 552.543 8166.9 638.352C8135.19 681.93 8073.37 696.056 8031.23 662.46L7944.56 593.365C7903.58 559.833 7884.94 541.204 7884.94 481.593C7884.94 429.425 7933.38 399.607 8007.91 366.07C8112.24 317.629 8518.39 164.864 8592.95 164.848C8671.21 164.848 8719.65 235.648 8712.2 295.271C8710.02 309.097 8705.86 340.376 8700.57 386.502C8713.48 379.701 8727.69 372.96 8743 366.07C8847.34 317.626 9253.54 164.848 9328.06 164.848Z" fill="url(#paint14_linear_497_3)"/>
<path d="M9328.06 164.848C9406.32 164.852 9454.77 235.65 9447.31 295.271C9433.59 391.357 9421.96 541.097 9411.82 697.795C9069.54 530.316 8541.54 495.309 8386.06 499.651C8304.32 501.936 8229.33 552.543 8166.9 638.352C8135.19 681.93 8073.37 696.056 8031.23 662.46L7944.56 593.365C7903.58 559.833 7884.94 541.204 7884.94 481.593C7884.94 429.425 7933.38 399.607 8007.91 366.07C8112.24 317.629 8518.39 164.864 8592.95 164.848C8671.21 164.848 8719.65 235.648 8712.2 295.271C8710.02 309.097 8705.86 340.376 8700.57 386.502C8713.48 379.701 8727.69 372.96 8743 366.07C8847.34 317.626 9253.54 164.848 9328.06 164.848Z" fill="white" fill-opacity="0.21" style="mix-blend-mode:overlay"/>
<path d="M2679.91 2010.9C2681.81 2010.9 2683.34 2012.45 2683.41 2014.34C2688.33 2150.14 2983.41 2259.65 3346.69 2259.65C3584.17 2259.65 3792.48 2212.84 3909.65 2142.49C3933.91 2127.92 3976.88 2148.85 3974.29 2177.02L3973.25 2188.42C3965.79 2266.67 3954.61 2296.49 3898.72 2330.02C3845.73 2360.3 3786.73 2392.7 3726.46 2423.55C3727.81 2436.05 3728.51 2448.35 3728.51 2460.44C3728.51 2564.78 3631.63 2579.69 3531.02 2579.69C3476.2 2579.69 3412.32 2574.1 3345.59 2564.06C3339.73 2564.49 3334.06 2564.79 3328.58 2564.79C3305.27 2564.79 3285.84 2560.04 3269.88 2550.97C3058.27 2509.78 2841.71 2429.1 2808.1 2341.2L2676.73 2015.62C2675.81 2013.36 2677.48 2010.9 2679.91 2010.9Z" fill="url(#paint15_linear_497_3)"/>
<path d="M166.337 2010.9C168.182 2010.9 169.776 2012.13 170.338 2013.89C194.677 2089.93 382.157 2149.1 609.862 2149.1C722.538 2149.1 825.355 2134.57 903.442 2110.71C922.24 2104.96 942.383 2118.48 948.254 2137.24C984.769 2253.92 1165.86 2342.57 1383.76 2342.57C1566.55 2342.57 1723.39 2280.17 1790.75 2191.2C1801.23 2177.36 1821.02 2172.58 1835.92 2181.48C1916.55 2229.58 2030.86 2259.65 2157.66 2259.65C2298.43 2259.65 2423.82 2222.64 2504.8 2164.98C2524.8 2150.74 2557.89 2163.87 2557.89 2188.42C2557.89 2262.94 2546.71 2289.04 2498.27 2318.85C2304.49 2438.09 2043.63 2564.79 1913.2 2564.79C1833.97 2564.79 1799.35 2510.64 1794.57 2414.13C1729.8 2480.36 1621.64 2520.07 1461.31 2520.07C1247.32 2520.06 786.242 2318.85 559.06 2208.47C548.135 2203.16 545.361 2206.07 555.006 2213.45C604.729 2251.51 766.922 2353.58 760.745 2359.82C574.424 2467.89 362.023 2564.79 242.778 2564.79C153.346 2564.79 119.805 2501.44 119.805 2389.64C119.805 2293.86 136.025 2162.33 162.339 2014.26C162.684 2012.32 164.37 2010.9 166.337 2010.9Z" fill="url(#paint16_linear_497_3)"/>
<path d="M5604.24 2010.9C5615.33 2010.9 5624.34 2019.83 5624.44 2030.92L5625.86 2188.42C5625.86 2266.67 5618.4 2289.04 5566.23 2318.85C5372.46 2438.09 5115.34 2564.79 4984.92 2564.79C4935.53 2564.79 4903.22 2545.45 4884.16 2509.33C4762.5 2497.36 4625.22 2453.42 4445.06 2393.37C4284.83 2341.2 4262.46 2307.65 4262.46 2221.95V2217.88C4262.46 2185.65 4359.22 2144.63 4388 2159.15C4508.89 2220.14 4702.49 2259.65 4920.7 2259.65C5269.06 2259.65 5554.71 2158.95 5581.92 2030.94C5584.24 2020.03 5593.09 2010.9 5604.24 2010.9Z" fill="url(#paint17_linear_497_3)"/>
<path d="M7612.54 2010.9C7623 2010.9 7628.55 2023.25 7621.58 2031.05C7534.17 2128.93 7426.3 2246.26 7402.98 2259.22C7209.21 2378.46 6784.4 2564.78 6653.96 2564.79C6564.53 2564.79 6530.99 2501.44 6530.99 2389.64C6530.99 2388.05 6531.01 2386.46 6531.02 2384.87C6348.14 2362.41 6035.88 2266.42 5963.65 2236.87C5941.22 2227.69 5923.53 2215.16 5909.29 2200.2C5887.48 2177.28 5945.66 2134.07 5974.71 2146.6C6132.52 2214.66 6405.55 2259.65 6715.96 2259.65C7190.04 2259.65 7577 2154.75 7599.4 2022.98C7600.52 2016.38 7605.85 2010.9 7612.54 2010.9Z" fill="url(#paint18_linear_497_3)"/>
<path d="M9358.65 2160.53C9377.6 2153.47 9398.58 2166.86 9398.62 2187.07C9398.62 2187.53 9398.62 2187.98 9398.62 2188.42C9398.62 2266.67 9387.44 2289.04 9339 2318.85C9145.23 2438.09 8884.38 2564.79 8753.96 2564.79C8668.25 2564.79 8634.71 2501.44 8634.71 2389.64C8634.71 2360.7 8636.13 2327.79 8638.76 2291.56C8630.15 2301.16 8618.81 2309.67 8603.91 2318.85C8410.14 2438.09 8149.27 2564.79 8018.84 2564.79C7933.14 2564.79 7899.59 2501.43 7899.59 2389.64C7899.59 2334.81 7904.6 2265.71 7913.56 2186.8C7915.68 2168.14 7935.12 2156.79 7952.78 2163.2C8114.57 2221.88 8367.67 2259.65 8652.14 2259.65C8940.85 2259.65 9197.23 2220.72 9358.65 2160.53Z" fill="url(#paint19_linear_497_3)"/>
<path d="M9652.43 2161.03C9649.63 2136.36 9679.13 2119.09 9701.23 2130.41C9851.54 2207.44 10142.6 2259.65 10477.1 2259.65C10646.6 2259.65 10805 2246.17 10939.6 2222.89C10958.7 2219.58 10976.2 2235.88 10970.8 2254.52C10961 2287.79 10943.6 2308.11 10907.1 2330.02C10724.5 2434.36 10471.1 2564.79 10336.9 2564.79C10287.4 2564.79 10255.3 2543.61 10237 2504.17C10125.7 2487.38 10000.1 2446.74 9842.82 2393.37C9678.86 2341.2 9675.13 2307.65 9660.22 2221.95C9657.51 2203.43 9654.92 2183.01 9652.43 2161.03Z" fill="url(#paint20_linear_497_3)"/>
<path d="M11271.7 2200.09C11271.7 2180.43 11291.2 2166.66 11309.9 2172.55C11471.9 2223.42 11707.2 2255.44 11969.1 2255.44C12000.1 2255.44 12030.7 2254.93 12060.9 2254.03C12073.1 2253.67 12084.2 2261.05 12088.2 2272.57C12106.6 2325.14 12113.9 2364.69 12113.9 2411.51C12113.9 2445.04 12095.3 2508.4 11957.4 2508.41C11819.5 2508.41 11666.7 2459.96 11454.3 2389.16C11294.1 2336.99 11271.7 2303.44 11271.7 2217.74V2200.09Z" fill="url(#paint21_linear_497_3)"/>
<defs>
<linearGradient id="paint0_linear_497_3" x1="5.67305" y1="401.083" x2="10105.1" y2="3487.14" gradientUnits="userSpaceOnUse">
<stop offset="0.129808" stop-color="#EE6818"/>
<stop offset="0.365385" stop-color="#EB367B"/>
<stop offset="0.788462" stop-color="#249AFF"/>
<stop offset="0.982854" stop-color="#15FFE2"/>
</linearGradient>
<linearGradient id="paint1_linear_497_3" x1="5.67305" y1="401.083" x2="10105.1" y2="3487.14" gradientUnits="userSpaceOnUse">
<stop offset="0.129808" stop-color="#EE6818"/>
<stop offset="0.365385" stop-color="#EB367B"/>
<stop offset="0.788462" stop-color="#249AFF"/>
<stop offset="0.982854" stop-color="#15FFE2"/>
</linearGradient>
<linearGradient id="paint2_linear_497_3" x1="5.67305" y1="401.083" x2="10105.1" y2="3487.14" gradientUnits="userSpaceOnUse">
<stop offset="0.129808" stop-color="#EE6818"/>
<stop offset="0.365385" stop-color="#EB367B"/>
<stop offset="0.788462" stop-color="#249AFF"/>
<stop offset="0.982854" stop-color="#15FFE2"/>
</linearGradient>
<linearGradient id="paint3_linear_497_3" x1="5.67305" y1="401.083" x2="10105.1" y2="3487.14" gradientUnits="userSpaceOnUse">
<stop offset="0.129808" stop-color="#EE6818"/>
<stop offset="0.365385" stop-color="#EB367B"/>
<stop offset="0.788462" stop-color="#249AFF"/>
<stop offset="0.982854" stop-color="#15FFE2"/>
</linearGradient>
<linearGradient id="paint4_linear_497_3" x1="5.67305" y1="401.083" x2="10105.1" y2="3487.14" gradientUnits="userSpaceOnUse">
<stop offset="0.129808" stop-color="#EE6818"/>
<stop offset="0.365385" stop-color="#EB367B"/>
<stop offset="0.788462" stop-color="#249AFF"/>
<stop offset="0.982854" stop-color="#15FFE2"/>
</linearGradient>
<linearGradient id="paint5_linear_497_3" x1="5.67305" y1="401.083" x2="10105.1" y2="3487.14" gradientUnits="userSpaceOnUse">
<stop offset="0.129808" stop-color="#EE6818"/>
<stop offset="0.365385" stop-color="#EB367B"/>
<stop offset="0.788462" stop-color="#249AFF"/>
<stop offset="0.982854" stop-color="#15FFE2"/>
</linearGradient>
<linearGradient id="paint6_linear_497_3" x1="5.67305" y1="401.083" x2="10105.1" y2="3487.14" gradientUnits="userSpaceOnUse">
<stop offset="0.129808" stop-color="#EE6818"/>
<stop offset="0.365385" stop-color="#EB367B"/>
<stop offset="0.788462" stop-color="#249AFF"/>
<stop offset="0.982854" stop-color="#15FFE2"/>
</linearGradient>
<linearGradient id="paint7_linear_497_3" x1="5.67305" y1="401.083" x2="10105.1" y2="3487.14" gradientUnits="userSpaceOnUse">
<stop offset="0.129808" stop-color="#EE6818"/>
<stop offset="0.365385" stop-color="#EB367B"/>
<stop offset="0.788462" stop-color="#249AFF"/>
<stop offset="0.982854" stop-color="#15FFE2"/>
</linearGradient>
<linearGradient id="paint8_linear_497_3" x1="5.67305" y1="405.18" x2="10105.1" y2="3491.24" gradientUnits="userSpaceOnUse">
<stop offset="0.129808" stop-color="#EE6818"/>
<stop offset="0.365385" stop-color="#EB367B"/>
<stop offset="0.788462" stop-color="#249AFF"/>
<stop offset="0.982854" stop-color="#15FFE2"/>
</linearGradient>
<linearGradient id="paint9_linear_497_3" x1="5.67305" y1="405.18" x2="10105.1" y2="3491.24" gradientUnits="userSpaceOnUse">
<stop offset="0.129808" stop-color="#EE6818"/>
<stop offset="0.365385" stop-color="#EB367B"/>
<stop offset="0.788462" stop-color="#249AFF"/>
<stop offset="0.982854" stop-color="#15FFE2"/>
</linearGradient>
<linearGradient id="paint10_linear_497_3" x1="5.67305" y1="405.18" x2="10105.1" y2="3491.24" gradientUnits="userSpaceOnUse">
<stop offset="0.129808" stop-color="#EE6818"/>
<stop offset="0.365385" stop-color="#EB367B"/>
<stop offset="0.788462" stop-color="#249AFF"/>
<stop offset="0.982854" stop-color="#15FFE2"/>
</linearGradient>
<linearGradient id="paint11_linear_497_3" x1="5.67305" y1="405.18" x2="10105.1" y2="3491.24" gradientUnits="userSpaceOnUse">
<stop offset="0.129808" stop-color="#EE6818"/>
<stop offset="0.365385" stop-color="#EB367B"/>
<stop offset="0.788462" stop-color="#249AFF"/>
<stop offset="0.982854" stop-color="#15FFE2"/>
</linearGradient>
<linearGradient id="paint12_linear_497_3" x1="5.67305" y1="405.18" x2="10105.1" y2="3491.24" gradientUnits="userSpaceOnUse">
<stop offset="0.129808" stop-color="#EE6818"/>
<stop offset="0.365385" stop-color="#EB367B"/>
<stop offset="0.788462" stop-color="#249AFF"/>
<stop offset="0.982854" stop-color="#15FFE2"/>
</linearGradient>
<linearGradient id="paint13_linear_497_3" x1="5.67305" y1="405.18" x2="10105.1" y2="3491.24" gradientUnits="userSpaceOnUse">
<stop offset="0.129808" stop-color="#EE6818"/>
<stop offset="0.365385" stop-color="#EB367B"/>
<stop offset="0.788462" stop-color="#249AFF"/>
<stop offset="0.982854" stop-color="#15FFE2"/>
</linearGradient>
<linearGradient id="paint14_linear_497_3" x1="5.67305" y1="405.18" x2="10105.1" y2="3491.24" gradientUnits="userSpaceOnUse">
<stop offset="0.129808" stop-color="#EE6818"/>
<stop offset="0.365385" stop-color="#EB367B"/>
<stop offset="0.788462" stop-color="#249AFF"/>
<stop offset="0.982854" stop-color="#15FFE2"/>
</linearGradient>
<linearGradient id="paint15_linear_497_3" x1="13.7046" y1="2074.53" x2="4059.38" y2="7392.12" gradientUnits="userSpaceOnUse">
<stop offset="0.129808" stop-color="#C55715"/>
<stop offset="0.365385" stop-color="#C42E67"/>
<stop offset="0.788462" stop-color="#2684D4"/>
<stop offset="0.982854" stop-color="#19D5BE"/>
</linearGradient>
<linearGradient id="paint16_linear_497_3" x1="13.7046" y1="2074.53" x2="4059.38" y2="7392.12" gradientUnits="userSpaceOnUse">
<stop offset="0.129808" stop-color="#C55715"/>
<stop offset="0.365385" stop-color="#C42E67"/>
<stop offset="0.788462" stop-color="#2684D4"/>
<stop offset="0.982854" stop-color="#19D5BE"/>
</linearGradient>
<linearGradient id="paint17_linear_497_3" x1="13.7046" y1="2074.53" x2="4059.38" y2="7392.12" gradientUnits="userSpaceOnUse">
<stop offset="0.129808" stop-color="#C55715"/>
<stop offset="0.365385" stop-color="#C42E67"/>
<stop offset="0.788462" stop-color="#2684D4"/>
<stop offset="0.982854" stop-color="#19D5BE"/>
</linearGradient>
<linearGradient id="paint18_linear_497_3" x1="13.7046" y1="2074.53" x2="4059.38" y2="7392.12" gradientUnits="userSpaceOnUse">
<stop offset="0.129808" stop-color="#C55715"/>
<stop offset="0.365385" stop-color="#C42E67"/>
<stop offset="0.788462" stop-color="#2684D4"/>
<stop offset="0.982854" stop-color="#19D5BE"/>
</linearGradient>
<linearGradient id="paint19_linear_497_3" x1="13.7046" y1="2074.53" x2="4059.38" y2="7392.12" gradientUnits="userSpaceOnUse">
<stop offset="0.129808" stop-color="#C55715"/>
<stop offset="0.365385" stop-color="#C42E67"/>
<stop offset="0.788462" stop-color="#2684D4"/>
<stop offset="0.982854" stop-color="#19D5BE"/>
</linearGradient>
<linearGradient id="paint20_linear_497_3" x1="13.7046" y1="2074.53" x2="4059.38" y2="7392.12" gradientUnits="userSpaceOnUse">
<stop offset="0.129808" stop-color="#C55715"/>
<stop offset="0.365385" stop-color="#C42E67"/>
<stop offset="0.788462" stop-color="#2684D4"/>
<stop offset="0.982854" stop-color="#19D5BE"/>
</linearGradient>
<linearGradient id="paint21_linear_497_3" x1="13.7046" y1="2074.53" x2="4059.38" y2="7392.12" gradientUnits="userSpaceOnUse">
<stop offset="0.129808" stop-color="#C55715"/>
<stop offset="0.365385" stop-color="#C42E67"/>
<stop offset="0.788462" stop-color="#2684D4"/>
<stop offset="0.982854" stop-color="#19D5BE"/>
</linearGradient>
</defs>
</svg>
