<svg width="608" height="805" viewBox="0 0 608 805" fill="none" xmlns="http://www.w3.org/2000/svg">
<path d="M564.185 15.9925C571.722 16.2475 577.993 22.2132 578.617 29.7291C604.035 336.207 607.423 505.21 574.775 783.688C573.902 791.135 567.549 796.841 560.051 796.886C368.619 798.046 249.706 796.989 21.7161 793.902C13.126 793.786 6.35149 786.369 7.01215 777.803C27.3502 514.146 38.7692 344.361 11.4545 29.0228C10.7202 20.5458 17.1996 13.0446 25.7024 12.7255C185.38 6.7316 307.414 7.30813 564.185 15.9925Z" fill="#E9DFD4"/>
<path d="M588.204 29.0684C590.848 46.8269 592.77 64.3769 593.677 82.5092C593.88 86.593 592.956 86.3515 592.942 88.065C592.92 91.2523 594.295 96.4501 594.351 97.1855C594.713 101.758 593.001 100.089 592.988 100.709C592.867 107.592 594.513 105.487 595.173 111.974C596.048 120.644 596.52 131.502 597.163 141.835C597.384 145.478 596.075 143.96 596.719 151.765C597.175 157.23 599.692 174.197 598.725 182.062C598.176 182.143 597.504 181.201 596.908 180.824C599.914 191.716 600.092 196.009 600.465 211.778C600.522 214.262 601.61 216.656 601.514 221.113C601.416 225.568 599.975 225.856 600.474 234.703C600.651 237.81 601.786 239.737 602.082 244.589C602.944 258.353 602.848 284.596 603.224 295.993C603.98 318.232 606.101 330.384 605.954 350.167C605.944 351.687 604.742 348.377 604.782 351.16C604.823 353.985 606.377 356.905 606.426 357.599C606.974 365.1 605.202 380.939 605.48 385.111C606.17 395.23 606.748 385.233 607.133 399.277C607.492 412.663 605.507 431.114 604.978 444.352C604.361 459.696 607.084 464.698 603.888 476.199C603.154 516.782 601.387 557.553 598.822 598.069C598.243 597.915 597.665 597.742 597.087 597.565C597.28 600.786 597.467 604.017 597.644 607.259C597.241 606.743 596.836 606.252 596.437 605.737C597.069 620.934 596.916 634.446 594.985 651.916C594.947 652.26 593.855 651.257 593.801 651.539C593.249 655.471 593.758 660.076 593.247 663.467C592.02 671.744 588.136 685.881 591.835 679.847C589.399 699.306 588.121 722.457 585.505 740.992C584.377 748.996 582.261 751.236 581.725 755.105C581.187 758.98 582.989 757.182 582.896 758.566C582.348 766.698 580.711 780.276 578.768 781.521C579.029 782.411 579.288 783.327 579.548 784.247C579.768 785.395 579.886 786.597 579.897 787.805C579.348 787.168 578.426 790.526 575.251 794.22C572.194 797.941 566.237 801.473 560.078 801.43C554.952 801.499 550.243 801.616 547.889 801.613C546.672 801.611 546.498 800.746 545.581 800.76C535.314 800.927 532.747 802.297 524.001 802.791C520.889 802.965 525.694 801.416 517.73 802.112C517.047 802.173 517.38 803.544 507.972 803.575C492.781 803.629 463.877 804.26 445.838 803.602C444.366 803.551 448.848 802.051 442.112 802.407C439.657 802.534 440.826 803.595 434.891 803.608C411.91 803.671 387.427 802.426 363.974 803.367C364.835 802.171 373.186 800.852 360.632 801.565C358.626 801.683 360.12 802.758 359.22 802.795C351.927 803.08 345.617 802.291 337.721 802.668C335.388 802.781 334.806 803.619 331.901 803.804C327.612 804.08 325.72 802.872 320.725 803.354C312.941 804.112 311.718 805.242 302.069 802.954C247.29 802.752 192.809 802.814 138.196 801.176C122.511 801.625 107.749 802.152 91.436 802.186C86.6064 802.195 85.5523 800.66 77.9395 801.066C76.2585 801.154 63.7932 802.624 62.045 799.527C58.6477 799.747 56.4884 799.727 53.538 799.852C55.7679 800.333 58.0581 800.819 60.1756 801.303C47.7921 800.648 37.5841 801.595 26.5236 801.959C22.3047 802.095 21.7903 801.833 21.6125 801.555C21.3606 801.241 21.5221 801.197 17.9726 800.73C10.9636 799.203 6.69687 797.135 3.42474 788.824C0.602823 785.732 -0.380593 781.99 0.128676 777.272C0.439468 774.996 0.876946 772.269 1.18151 768.572C1.26063 767.602 0.986855 761.954 1.48266 757.332C1.83943 754.008 3.04671 753.122 3.28222 747.73C3.32436 746.836 2.78043 735.447 2.92002 731.893C3.13706 726.34 5.26375 717.464 5.35993 716.411C6.77902 700.861 5.80329 694.497 8.96442 683.633C7.7247 681.292 7.58106 671.845 8.24346 664.385C9.0921 654.901 13.2528 636.101 10.3927 633.256C12.474 622.314 11.5619 623.52 12.3694 610.456C13.1193 598.585 16.1162 567.257 16.4376 557.609C16.7827 547.997 14.8462 552.6 14.8202 548.763C14.766 542.485 15.8387 545.928 16.0363 541.647C16.5854 529.558 16.8297 519.015 16.7669 507.459C17.6674 506.874 18.574 506.242 19.4751 505.634C19.2082 505.024 18.9407 504.416 18.6735 503.806C18.7834 501.321 18.8755 498.535 18.9908 496.235C14.3897 515.494 20.0239 477.51 20.4132 466.026C20.792 456.375 19.3771 440.225 19.1809 429.619C19.1336 427.039 20.0453 428.829 20.0337 428.3C19.8787 422.061 19.2525 421.129 19.464 412.784C19.5755 408.374 20.8149 403.849 20.8805 399.553C21.3557 367.956 20.0177 337.467 19.2884 306.097C19.1638 300.78 20.5085 296.132 20.4331 291.611C20.3237 285.173 19.0353 281.225 18.8457 275.178C18.6577 269.13 19.7958 260.464 19.4391 256.411C19.0869 252.349 17.9583 259.365 18.0742 251.894C18.1249 248.456 19.3608 254.483 19.2409 250.239C18.8714 236.982 16.8223 218.371 17.3615 204.351C17.0869 204.987 16.8535 205.848 16.5983 206.62C15.9926 191.527 16.0266 178.412 15.2216 162.893C14.9485 157.541 13.4547 147.836 13.1131 142.453C12.7789 137.157 13.5944 134.733 13.3398 130.485C13.2369 128.741 12.4126 129.48 12.3519 128.308C11.5824 113.489 12.5772 105.59 11.2431 90.0918C9.51588 70.1722 7.66286 50.0404 5.6723 29.5237C4.34259 18.2568 13.7729 6.96108 25.4753 6.67681C54.4983 5.29106 83.5611 4.08677 112.451 3.131C114.759 3.05515 116.288 1.88467 119.655 1.64391C124.842 1.27314 125.116 2.27367 125.81 2.29449C130.338 2.425 128.474 1.53103 134.549 1.41654C147.922 1.15853 169.511 1.68836 182.845 1.51274C213.535 1.09335 239.386 0.22437 269.504 0.000263055C271.687 -0.018029 270.191 1.31391 273.987 1.36292C300.537 1.75586 306.071 0.52486 339.154 1.44471C372.1 2.346 434.324 4.70073 473.043 6.06329C473.043 6.06641 473.043 6.06954 473.043 6.07266C485.144 3.94271 500.904 5.04445 513.944 7.33915C438.457 11.1071 366.531 6.3515 286.078 5.72266C201.47 4.98718 111.48 10.7387 25.8702 13.4645C25.8233 13.4659 25.7767 13.4673 25.7303 13.4686C18.454 14.1286 14.2412 16.2223 11.7998 22.7075C11.5152 23.8028 13.3431 21.4086 12.5488 24.6635C12.2855 26.0744 12.2362 27.5185 12.3989 28.941C17.6913 75.9561 19.0499 125.769 22.3126 171.765C23.2207 184.668 24.5278 186.407 25.4191 197.764C24.7451 195.797 24.0784 194.52 23.4103 192.803C24.266 244.473 26.6757 295.773 26.7405 348.001C26.741 350.349 25.5528 350.656 25.5203 353.113C25.4499 357.993 26.7691 362.786 26.8142 367.09C26.8704 372.717 25.9213 373.685 25.9669 378.848C25.9884 381.38 26.9043 380.636 26.7196 386.154C26.7032 386.615 25.7486 386.914 25.8459 390.578C26.1314 400.568 26.6471 421.096 26.7094 429.417C26.8099 440.037 25.1554 448.494 24.9568 452.512C24.4125 463.338 25.8873 463.138 25.6015 472.32C23.5154 537.597 18.089 599.889 13.3961 666.52C13.1055 670.678 13.6225 686.365 12.9896 694.061C12.7753 696.648 11.333 710.269 11.1476 712.252C10.3991 720.445 8.86161 727.644 8.31443 732.118C7.24782 740.827 8.026 750.95 7.81512 755.726C7.54696 761.851 6.74725 771.529 6.20816 777.741C6.00029 780.126 6.38519 782.014 6.6332 782.987C7.90293 787.341 8.85705 788.696 9.27577 789.982C9.81613 791.168 10.1557 792.371 13.348 794.056C14.3066 794.512 14.4752 794.129 15.1895 794.04C15.9189 793.889 17.1083 794.272 20.4616 794.662C20.8959 794.702 21.305 794.729 21.7047 794.747C26.3001 794.958 28.408 795.943 31.797 796.173C35.4883 796.42 42.1006 794.8 44.4413 794.874C56.5278 795.274 61.5981 796.461 74.7155 796.69C85.4704 796.879 135.52 796.722 139.555 796.362C158.255 794.787 127.259 795.224 125.488 795.14C115.977 794.673 117.51 794.002 108.031 795.201C99.6117 791.032 70.3393 796.983 62.7374 792.06C55.0462 795.17 48.422 793.463 40.2574 792.708C29.0301 791.665 37.5852 793.651 29.3265 793.553C27.7968 793.534 24.905 793.176 21.7308 792.815C18.3783 792.456 15.3437 790.6 13.5444 789.193C10.4021 786.484 7.6901 785.163 7.28931 778.682C7.29186 778.396 7.30306 778.112 7.32294 777.827C8.1229 766.406 9.33756 757.501 11.3773 747.946C10.9242 746.098 10.4613 744.373 10.0055 742.555C11.1568 735.824 12.294 729.192 13.4392 722.395C12.8415 723.442 12.2392 724.491 11.6412 725.54C11.7163 723.544 11.7954 721.546 11.8735 719.559C13.1453 713.01 14.3222 706.911 15.6302 700.118C13.9967 681.479 16.1781 687.128 17.3098 676.854C18.4326 666.624 17.1112 660.698 17.6537 652.737C18.3746 642.09 18.4864 637.239 19.32 626.486C19.8008 620.277 22.1393 609.885 18.9423 618.342C19.9967 598.88 20.8248 572.325 22.8035 554.991C23.3858 549.889 23.8601 556.757 24.0093 555.891C24.729 551.577 23.5685 547.827 23.988 543.342C24.6919 535.894 26.4212 521.403 26.9187 515.529C27.6513 507.09 26.4166 493.703 26.3353 492.342C25.907 484.709 27.4258 482.729 27.4103 480.282C27.2943 466.354 26.7535 463.268 29.949 458.976C28.7329 455.339 26.8757 440.185 29.1765 436.603C27.1656 436.482 27.764 423.907 27.3695 416.24C27.975 414.821 28.5764 413.375 29.1845 411.952C25.8335 395.818 28.6126 363.816 28.8384 342.678C28.8428 342.145 27.3252 341.21 27.6364 338.008C27.6623 337.805 28.3451 338.129 28.412 335.979C28.6584 329.007 29.9052 302.072 29.8275 298.999C29.6336 287.55 28.447 285.657 28.1563 278.743C27.7599 269.655 28.7323 268.18 28.3088 259.611C28.1081 255.571 26.6445 251.934 26.5963 245.499C26.5642 241.678 27.6013 241.279 27.5706 238.303C27.4617 227.755 26.446 219.701 27.3829 210.344C23.9249 208.046 26.1754 203.425 26.1924 198.702C26.2862 179.649 23.5014 156.164 22.7405 139.712C20.972 100.874 19.593 65.3083 17.2331 28.5223C16.8528 23.5535 21.1961 18.8773 25.9365 18.9617C29.3876 18.8793 32.8398 18.7924 36.2977 18.7C44.3079 18.4882 46.28 16.7374 54.6876 16.5613C58.4936 16.484 62.4749 17.5707 68.6672 17.3958C73.6729 17.2574 80.8053 16.4264 87.0487 16.2576C88.7099 16.2116 88.8896 17.3479 91.3316 17.2905C109.844 16.8571 127.902 15.6508 146.596 14.7916C153.527 14.4729 157.841 15.9287 156.627 13.3136C159.281 13.922 161.862 14.4501 164.36 15.0559C173.887 13.2812 181.698 14.9268 194.584 14.4185C196.001 14.3573 205.681 12.4859 211.248 13.7851C211.639 12.8466 210.774 12.0532 210.933 11.2038C216.402 10.8276 224.77 11.9027 228.492 12.0163C232.149 12.1282 234.618 10.915 235.726 10.9049C239.951 10.882 238.966 12.4822 239.288 12.5093C258.915 14.1061 256.888 13.259 268.755 10.9369C271.787 10.3455 291.969 12.2996 296.006 10.4595C296.18 11.2352 295.05 11.9027 294.72 12.6372C300.744 12.9065 306.949 13.1918 312.963 13.4769C311.685 12.7155 310.154 11.9503 308.998 11.1869C321.395 12.0037 331.727 10.4235 341.952 10.6645C347.715 10.8049 346.989 12.4341 350.409 12.1404C351.081 12.0822 349.968 10.9516 351.958 10.9008C368.15 10.4964 375.175 11.8202 391.399 12.4158C398.985 12.6993 405.645 10.8428 416.512 12.4468C417.459 12.5945 428.128 14.6611 434.808 12.2769C436.859 13.1419 438.685 13.617 440.228 14.3406C453.708 10.9048 449.91 14.5277 467.926 15.9343C477.308 16.6609 508.58 16.9533 518.916 16.8835C524.903 16.8272 524.862 15.329 525.935 15.3036C532.388 15.1673 532.349 16.6176 538.392 16.5771C544.392 16.535 551.85 15.1407 558.054 15.4997C562.293 15.746 559.695 17.1118 564.147 17.1189C564.628 17.1187 565.196 17.1216 565.882 17.1648C566.555 17.2124 566.015 16.6949 566.127 16.3856C566.202 16.1456 567.239 15.7148 570.472 17.5643C570.966 17.8353 573.665 19.8564 575.107 22.76C576.666 25.625 576.713 28.8831 576.579 29.898C576.228 26.1722 570.157 19.1578 564.048 20.0465C560.366 20.1802 557.113 20.2796 554.986 20.3312C439.31 22.7875 206.812 17.2679 83.7344 21.3981C72.3131 21.6488 64.7913 20.3138 57.3072 20.4216C49.8434 20.5326 56.1998 21.7629 49.4391 21.8722C42.6549 21.9806 37.7045 21.1386 31.3664 21.2829C29.5922 21.3232 27.8128 21.3644 26.0283 21.4063C22.7346 21.2731 19.4601 24.6633 19.7699 28.3025C22.1738 61.3774 24.3206 94.4339 26.295 127.098C26.9553 138.024 28.6876 146.82 29.2906 156.82C29.5227 160.702 28.0197 160.908 28.1941 163.65C30.0564 193.511 32.8334 221.054 33.7182 250.767C34.0811 263.057 33.212 276.543 33.3867 288.654C33.5345 298.837 34.6061 309.101 34.7645 318.252C34.8532 323.188 33.7337 325.789 33.6657 327.565C33.4395 333.74 34.8191 331.566 34.8531 334.713C34.9355 343.502 33.2658 347.859 33.4315 355.995C33.495 359.19 34.5775 358.799 34.7538 363.473C34.9708 369.401 33.971 367.209 33.9321 371.431C33.9273 371.684 34.7025 370.859 34.7302 373.095C34.9156 387.505 35.3586 405.549 35.0734 419.45C34.5032 448.235 32.1586 476.588 30.7846 503.347C30.4382 510.109 31.5173 508.355 31.4766 510.503C31.2648 520.843 29.8917 524.506 29.8081 535.33C29.7928 537.131 30.8342 544.445 30.1193 551.365C29.7358 555.082 28.6401 559.272 28.2639 562.443C27.8873 565.615 29.1404 566.196 28.9277 570.031C28.5385 577.011 27.7718 574.904 27.3497 584.875C27.1772 588.914 27.5885 602.331 26.8336 612.687C25.6165 629.509 23.0932 650.389 21.6635 670.219C21.1704 677.035 21.854 685.908 21.0935 696.446C20.1606 709.452 18.0786 733.128 17.0488 746.354C16.5215 753.146 15.1039 753.567 14.9864 754.349C14.2109 759.445 15.9076 757.493 15.5823 760.937C15.1347 765.671 13.6574 770.036 13.2467 774.387C12.9844 777.164 14.0836 777.696 14.0458 778.301C14.045 778.316 14.0441 778.331 14.0432 778.346C13.7437 782.819 17.7715 786.719 21.8151 786.593C34.9571 786.701 47.625 786.882 61.2326 786.985C179.571 787.892 298.84 787.806 416.806 788.445C426.696 788.498 427.08 789.931 435.758 789.699C444.504 789.471 452.815 786.362 460.013 789.766C460.24 789.076 460.217 788.584 460.445 787.956C478.434 788.892 496.328 787.825 513.914 787.624C526.954 787.473 538.526 787.523 550.454 787.53C555.37 787.535 557.852 787.793 559.997 787.911C560.922 788.034 562.033 787.879 563.046 786.138C564.268 785.334 565.132 784.028 565.364 782.584C570.959 741.063 575.27 699.236 580.305 658.227C578.665 647.312 581.112 637.44 582.608 622.732C582.791 620.931 581.714 622.792 582.189 617.454C582.774 610.79 584.472 607.279 585.151 595.965C585.346 593.004 585.153 570.597 586.392 562.385C587.661 554.171 588.731 542.27 589.883 533.716C589.216 534.906 588.559 536.423 587.891 537.751C587.981 533.47 588.065 529.176 588.133 524.913C588.897 524.321 589.661 523.728 590.427 523.158C589.825 520.64 589.228 518.125 588.61 515.592C592.598 510.333 591.175 515.812 590.625 503.776C590.346 497.727 591.151 492.959 590.932 486.767C590.849 484.534 589.769 483.086 589.686 480.624C589.484 474.589 590.939 478.137 591.014 474.414C591.083 470.661 589.505 465.251 590.363 458.552C593.268 465.616 592.588 445.318 590.24 444.33C590.261 441.918 590.377 439.893 590.332 437.231C596.224 439.74 592.122 427.069 591.315 422.05C590.517 417.032 592.101 417.235 592.04 416.064C591.866 412.69 591.208 415.148 591.184 412.783C591.032 397.1 591.86 382.304 591.684 366.827C591.657 364.602 590.795 366.591 590.837 363.995C590.878 361.394 591.724 358.884 591.581 355.029C591.543 353.994 590.749 353.686 590.712 352.073C589.999 318.428 589.453 286.455 587.839 252.136C587.691 249.033 586.17 246.672 585.9 240.629C585.631 234.6 586.399 225.532 586.061 218.002C585.973 216.017 584.774 215.508 584.653 212.91C584.24 204.083 584.712 196.249 584.278 186.978C583.545 171.36 581.726 155.079 581.269 138.999C581.184 136.012 582.19 136.423 582.152 132.088C582.083 124.589 580.869 127.496 580.569 125.996C579.593 121.072 581.358 119.364 580.513 114.549C580.383 113.813 579.346 114.955 579.279 114.29C578.323 104.146 580.902 103.468 578.661 92.6685C579.412 82.8256 581.181 99.034 582.1 100.599C584.347 104.488 585.816 93.6521 586.049 87.203C586.256 81.7036 585.055 81.8951 584.885 79.7389C583.993 68.3878 582.382 51.2771 582.245 42.6016C582.157 37.2987 583.438 46.7621 583.615 44.0361C583.793 41.3368 582.743 39.6797 583.508 36.8446C584.274 34.013 586.723 28.1126 588.204 29.0684ZM373.928 800.378C391.511 795.66 438.142 796.18 463.143 796.566C483.919 796.901 501.801 800.507 497.496 795.191C475.058 795.237 456.909 795.817 433.183 795.672C430.743 795.657 415.981 795.165 410.891 795.073C408 795.023 407.907 794.142 403.985 794.147C403.13 794.151 398.405 795.297 396.682 795.264C390.737 795.157 373.135 793.353 370.672 793.395C363.853 793.527 366.467 794.903 363.52 795.143C353.62 795.935 352.539 793.874 342.736 794.502C340.984 794.614 335.158 796.382 327.901 796.112C324.953 796 319.909 795.048 317.662 795.08C305.361 795.251 291.553 796.387 280.321 796.101C271.052 795.864 273.561 794.499 268.685 794.275C263.822 794.057 257.831 795.612 254.532 795.677C249.21 795.778 242.662 794.808 241.01 794.806C208.371 794.782 179.2 795.521 147.687 795.53C169.1 796.416 190.484 797.234 211.763 798.102C223.897 796.79 217.852 798.073 225.769 798.597C232.102 799.011 233.657 796.598 241.884 796.941C241.877 796.941 241.87 796.941 241.863 796.941C246.194 797.122 255.321 798.883 264.484 798.253C264.805 798.228 265.639 796.976 272.415 796.984C287.729 797.007 311.15 796.513 328.356 796.865C333.407 796.969 332.362 798.287 338.342 798.478C342.703 798.615 347.752 797.413 354.575 797.711C363.131 798.09 367.232 800.205 373.119 797.297C373.601 798.342 373.353 799.36 373.928 800.378ZM597.011 519.627C597.186 518.425 601.013 502.457 597.363 507.106C595.115 528.699 594.784 552.037 592.59 574.733C596.485 567.215 595.876 553.97 596.353 537.996C596.354 537.989 596.354 537.982 596.354 537.975C596.377 537.221 597.133 540.412 597.165 536.121C597.181 534.031 596.148 526.067 597.011 519.627Z" fill="#E9DFD4"/>
</svg>
