<svg width="337" height="125" viewBox="0 0 337 125" fill="none" xmlns="http://www.w3.org/2000/svg">
<path d="M0 0H337C326.927 6.02574 323.722 26.5176 318.642 28.9131C317.361 29.5171 315.572 29.4687 314.282 28.9292C308.898 26.6772 307.76 18.858 305.675 14.0673C304.544 11.4678 302.567 8.10787 299.753 7.06388C298.209 6.49102 296.528 6.76515 295.08 7.48204C291.771 9.11833 290.277 11.876 289.08 15.1691C282.77 32.503 292.517 50.8477 287.697 64.6017C286.951 66.7295 285.663 68.7119 283.567 69.701C281.02 70.9037 278.472 70.4635 275.91 69.5908C267.425 60.3186 277.66 44.7109 267.007 34.2677C263.504 37.264 260.07 42.1044 255.381 43.1284C253.195 43.6063 251.185 43.1434 249.381 41.835C240.431 35.3395 245.042 20.1284 235.527 14.103C232.893 12.4333 229.062 11.608 225.998 12.336C208.781 16.4289 219.786 72.5486 221.569 85.6303C222.02 89.0008 222.291 92.3928 222.384 95.7919C222.62 105.386 220.98 120.912 210.083 124.021C201.139 126.572 191.415 121.674 188.27 112.886C183.05 98.2817 188.685 84.0592 190.041 69.5147C191.191 57.2151 195.73 12.8836 173.885 17.5661C167.016 22.9998 168.455 30.9728 165.003 38.248C164.346 40.1187 160.977 41.9222 159.081 40.9878C150.241 36.6365 150.728 29.0764 138.851 29.1515C127.156 29.2255 124.815 41.6036 115.177 44.492C102.53 48.2818 99.0119 29.4141 91.3607 24.1356C89.524 23.0688 85.1698 23.4755 83.584 24.8288C77.0169 30.4367 75.4908 40.6536 71.0082 47.8843C62.4969 61.6189 43.3808 57.8882 37.0257 44.5303C34.8187 39.8944 33.9317 34.5126 31.3724 29.9473C25.1098 17.7254 16.2671 4.38956 2.16516 0.70809C1.22742 0.462696 0.955656 0.589392 0 0Z" fill="#000000"/>
</svg>
