<svg width="705" height="755" viewBox="0 0 705 755" fill="none" xmlns="http://www.w3.org/2000/svg">
<g filter="url(#filter0_d_235_9519)">
<mask id="path-1-inside-1_235_9519" fill="white">
<path d="M128.384 514.571C126.523 511.087 123.616 501.428 123.218 497.438C121.847 483.755 129.107 469.205 139.926 463.97C142.673 462.638 147.038 461.216 149.621 460.802C162.019 458.827 174.389 469.053 169.787 477.478C167.97 480.785 166.872 480.894 166.29 477.814C165.528 473.756 162.816 471.539 157.653 470.752C153.081 470.056 152.276 470.291 147.276 473.811C133.97 483.187 134.396 498.598 148.379 514.469C155.727 522.801 161.825 526.178 172.634 527.906C200.718 532.406 232.964 513.247 241.568 486.945C246.1 473.093 246.515 455.857 242.994 426.305C236.528 371.86 238.13 349.604 250.306 324.712C262.526 299.745 290.141 275.152 322.468 260.47C328.74 257.617 348.127 251.373 355.953 249.682L363.29 248.089L366.134 242.291C370.074 234.231 380.25 226.095 391.948 221.663C398.136 219.316 424.399 211.178 434.672 208.422C435.703 208.148 435.742 207.78 434.802 207.285C413.179 195.949 406.236 192.452 404.08 191.825C398.999 190.353 397.684 185.928 400.916 181.173C402.676 178.582 402.174 176.483 398.326 170.289C393.395 162.348 393.15 160.906 396.315 158.36C398.343 156.728 399.471 156.478 400.799 157.358C403.621 159.23 405.117 163.238 404.763 167.962C404.342 173.629 406.191 176.696 408.995 175.034C413.579 172.313 415.473 163.538 414.421 149.882C414.033 144.942 414.344 143.853 416.639 142.007C420.187 139.152 422.798 139.735 424.499 143.773C425.557 146.276 425.17 148.665 422.542 155.966C420.743 160.962 419.453 165.613 419.671 166.301C420.504 168.908 424.048 167.941 430.907 163.235C438.545 157.992 441.369 154.83 444.014 148.561C446.102 143.603 448.747 141.23 452.485 140.984C455.804 140.764 458.874 144.178 458.348 147.517C457.535 152.584 455.49 154.565 445.429 160.053C434.533 165.995 430.583 168.863 430.814 170.69C430.898 171.371 432.012 171.906 433.297 171.867C437.738 171.725 449.154 167.714 453.76 164.666C461.528 159.552 466.267 160.487 466.716 167.235C466.998 171.433 463.93 173.024 456.305 172.656C449.484 172.325 437.476 174.271 435.236 176.073C432.91 177.945 435.889 179.226 443.161 179.477C451.359 179.771 453.699 181.605 451.12 185.744C449.146 188.919 447.237 188.855 439.132 185.39C428.335 180.774 418.802 180.536 420.208 184.913C420.791 186.728 427.725 188.659 449.644 193.099C467.604 196.738 471.862 198.743 474.535 204.824C477.22 210.935 475.808 216.974 470.749 221.044C469.511 222.04 461.947 226.126 453.949 230.136C440.478 236.871 425.15 246.172 425.925 247.135C426.108 247.362 431.306 249.076 437.481 250.946C443.657 252.816 452.554 256.225 457.245 258.527C465.393 262.512 483.162 274.975 486.357 278.946C489.275 282.573 489.382 279.467 486.735 268.191C483.977 256.488 483.886 245.311 486.526 243.187C489.189 241.044 495.124 240.372 499.266 241.735C501.572 242.5 506.699 244.8 510.668 246.845C514.634 248.905 520.804 251.489 524.374 252.591C535.359 255.996 545.737 260.316 551.822 264.014L557.617 267.544L562.348 262.873C572.473 252.894 573.543 252.188 576.696 253.444C578.862 254.308 579.821 255.291 580.577 257.418C581.438 259.835 581.126 260.666 578.453 263.165C576.18 265.279 574.32 266.143 571.658 266.298C567.715 266.528 562.235 270.654 563.048 272.787C564.24 275.969 581.014 275.905 587.981 272.698C593.3 270.264 597.11 270.67 599.763 273.967C602.391 277.233 602.155 280.468 599.092 282.932C596.053 285.377 591.877 285.718 586.881 283.919C579.682 281.337 568.667 280.316 566.545 282.024C564.688 283.517 564.757 283.747 568.077 287.152C572.319 291.494 580.451 295.298 589.574 297.209C593.321 298 596.857 299.22 597.424 299.925C599.1 302.008 598.546 306.531 596.275 309.209C594.571 311.213 593.469 311.623 590.543 311.306C587.617 310.989 586.299 310.153 583.772 307.012C579.639 301.874 569.913 293.971 565.767 292.378C563.955 291.682 561.67 291.584 560.686 292.157C558.211 293.619 560.571 299.023 567.371 307.474C573.326 314.875 573.662 316.72 569.629 319.966C566.347 322.606 562.363 322.096 559.629 318.683C557.329 315.824 556.768 313.154 556.731 304.977C556.722 301.294 556.156 299.853 553.748 297.262C551.096 294.415 550.531 294.225 548.49 295.505C546.633 296.677 546.238 298.014 546.406 302.537C546.684 310.403 546.033 311.855 541.693 313.116C537.36 314.37 534.061 313.14 532.318 309.627C530.362 305.704 531.311 302.682 535.922 298.198C543.435 290.89 543.456 290.692 537.333 283.98C528.592 274.382 514.452 262.47 510.26 261.172C504.393 259.364 503.07 260.815 506.073 265.766C515.891 281.93 520.411 300.937 516.873 311.229C515.544 315.11 515.52 317.181 516.758 320.146C517.651 322.267 519.829 327.507 521.602 331.796C523.869 337.275 526.415 341.562 530.152 346.206C547.455 367.728 550.386 385.226 539.473 401.89C537.239 405.288 535.029 409.388 534.546 411.002C533.137 415.761 528.851 424.706 525.927 428.994C519.919 437.802 511.169 441.617 504.257 438.43C500.88 436.863 498.993 434.95 491.233 425.194C472.775 401.996 467.592 383.768 475.055 368.332C476.656 365.03 478.513 361.885 479.186 361.343C479.86 360.801 480.674 359.359 480.998 358.143C481.524 356.198 480.776 356.503 474.906 360.594C467.343 365.866 461.456 367.739 447.971 369.131C443.342 369.617 438.825 370.593 437.932 371.312C434.439 374.122 432.335 386.356 433.971 394.42C434.595 397.505 435.271 402.754 435.461 406.085C435.957 414.511 438.867 417.214 448.928 418.59C452.987 419.144 456.683 420.066 457.15 420.645C458.889 422.807 458.364 427.126 456.147 428.909C453.156 431.317 451.058 430.682 445.845 425.806C443.417 423.527 440.392 421.226 439.134 420.69C437.002 419.786 436.82 419.881 436.455 422.123C435.744 426.643 439.706 434.693 445.754 440.975C450.342 445.748 451.168 447.031 450.962 449.004C450.593 452.41 446.744 455.132 443.591 454.211C439.875 453.137 439.183 451.939 437.222 443.169C435.378 434.911 432.005 428.297 429.168 427.418C426.36 426.542 424.441 435.622 425.594 444.448C426.136 448.618 426.363 452.925 426.101 454.026C425.299 457.407 421.028 459.54 417.734 458.204C413.324 456.411 413.106 452.483 416.939 443.425C420.246 435.603 420.741 427.063 417.991 425.457C415.933 424.262 409.662 429.617 405.638 436.002C401.926 441.892 397.472 445.914 394.942 445.64C392.356 445.36 390.312 442.179 390.658 438.985C390.952 436.271 391.599 435.647 401.432 428.561C411.785 421.096 411.89 420.985 411.692 418.125C411.447 414.452 410.069 414.232 400.58 416.357C394.806 417.648 393.321 417.566 391.635 415.903C389.025 413.333 389.106 410.596 391.84 408.397C393.477 407.08 395.484 406.961 399.994 407.9C403.287 408.593 408.108 409.501 410.715 409.919L415.451 410.689L416.549 401.935C417.141 397.123 419.266 385.685 421.266 376.528C425.279 358.087 426.079 356.772 434.669 354.571C438.633 353.549 451.227 347.713 453.631 345.778C455.472 344.297 452.456 343.098 446.604 342.994C433.281 342.759 420.043 341.14 409.317 338.441C391.542 333.957 373.9 326.463 366.407 320.196C362.57 316.999 362.713 319.31 366.652 324.205C372.922 331.998 380.798 344.898 385.111 354.46C391.986 369.675 394.759 387.714 391.398 395.308C389.398 399.846 384.563 401.517 374.912 401.037C366.302 400.598 361.945 398.904 353.989 392.88C350.871 390.512 345.936 387.218 343.035 385.552C336.566 381.842 316.369 373.642 315.476 374.36C314.725 374.965 316.098 378.388 318.125 380.939C318.912 381.918 321.825 383.806 324.62 385.131C331.985 388.624 334.452 390.872 334.797 394.348C335.135 397.831 333.17 399.734 329.803 399.205C327.849 398.894 326.673 397.737 323.655 393.185C319.54 386.948 317.699 386.584 318.847 392.228C319.7 396.431 325.033 403.043 331.448 407.842C335.674 411.009 336.6 412.096 337.152 414.53C338.107 418.78 337.055 421.033 333.739 421.882C331.437 422.469 330.552 422.059 328.448 419.443C327.061 417.72 324.534 413.199 322.842 409.412C317.363 397.151 317.163 396.821 316.667 399.22C316.14 401.837 317.694 409.077 320.853 418.728C323.567 427.008 323.178 431.863 319.683 433.036C313.592 435.072 311.853 431.066 312.677 416.856C313.32 405.564 312.317 397.791 309.79 394.65C307.162 391.384 305.104 395.144 301.46 409.907C299.675 417.149 298.022 419.873 294.948 420.656C293 421.153 291.997 420.643 290.012 418.176C286.867 414.268 287.626 410.961 292.582 406.986C300.364 400.751 306.639 385.922 303.267 381.732C301.156 379.108 298.829 380.594 294.595 387.278C291.198 392.63 290.34 393.488 287.917 393.941C284.471 394.597 282.073 391.921 282.508 387.907C282.792 385.278 283.464 384.557 289.249 380.65C296.291 375.9 298.834 372.358 300.725 364.733C302.401 357.901 305.172 357.143 314.301 360.984C319.853 363.33 324.37 364.327 330.01 364.473C334.367 364.58 342.065 365.135 347.131 365.69L356.337 366.709L345.635 353.359C334.247 339.142 330.062 331.711 329.095 323.999C328.84 321.933 328.339 319.884 327.986 319.446C326.789 317.958 312.79 327.195 301.193 337.107C288.168 348.245 285.528 352.02 281.135 365.787C276.723 379.594 276.499 387.928 279.533 425.214C281.414 448.254 281.432 451.981 279.734 466.34C276.757 491.456 266.237 509.507 244.166 527.33C232.351 536.875 226.69 540.023 214.402 543.897C193.564 550.471 169.37 547.951 150.947 537.305C144.419 533.538 142.293 531.713 136.443 524.86C132.674 520.448 129.05 515.815 128.384 514.571ZM488.517 404.13C490.599 405.306 492.624 406.012 493.016 405.697C494.136 404.796 492.54 393.126 490.56 387.699C488.839 382.994 488.65 382.759 486.501 382.863C481.709 383.08 479.584 389.099 481.905 395.928C483.693 401.198 484.021 401.605 488.517 404.13ZM534.88 397.818C538.71 394.736 541.866 388.701 541.511 385.116C541.12 381.134 537.708 376.718 534.776 376.393C532.628 376.16 532.385 376.356 531.514 379.057C530.396 382.511 530.302 397.58 531.39 399.013C531.86 399.629 533.204 399.167 534.88 397.818Z"/>
</mask>
<path d="M128.384 514.571C126.523 511.087 123.616 501.428 123.218 497.438C121.847 483.755 129.107 469.205 139.926 463.97C142.673 462.638 147.038 461.216 149.621 460.802C162.019 458.827 174.389 469.053 169.787 477.478C167.97 480.785 166.872 480.894 166.29 477.814C165.528 473.756 162.816 471.539 157.653 470.752C153.081 470.056 152.276 470.291 147.276 473.811C133.97 483.187 134.396 498.598 148.379 514.469C155.727 522.801 161.825 526.178 172.634 527.906C200.718 532.406 232.964 513.247 241.568 486.945C246.1 473.093 246.515 455.857 242.994 426.305C236.528 371.86 238.13 349.604 250.306 324.712C262.526 299.745 290.141 275.152 322.468 260.47C328.74 257.617 348.127 251.373 355.953 249.682L363.29 248.089L366.134 242.291C370.074 234.231 380.25 226.095 391.948 221.663C398.136 219.316 424.399 211.178 434.672 208.422C435.703 208.148 435.742 207.78 434.802 207.285C413.179 195.949 406.236 192.452 404.08 191.825C398.999 190.353 397.684 185.928 400.916 181.173C402.676 178.582 402.174 176.483 398.326 170.289C393.395 162.348 393.15 160.906 396.315 158.36C398.343 156.728 399.471 156.478 400.799 157.358C403.621 159.23 405.117 163.238 404.763 167.962C404.342 173.629 406.191 176.696 408.995 175.034C413.579 172.313 415.473 163.538 414.421 149.882C414.033 144.942 414.344 143.853 416.639 142.007C420.187 139.152 422.798 139.735 424.499 143.773C425.557 146.276 425.17 148.665 422.542 155.966C420.743 160.962 419.453 165.613 419.671 166.301C420.504 168.908 424.048 167.941 430.907 163.235C438.545 157.992 441.369 154.83 444.014 148.561C446.102 143.603 448.747 141.23 452.485 140.984C455.804 140.764 458.874 144.178 458.348 147.517C457.535 152.584 455.49 154.565 445.429 160.053C434.533 165.995 430.583 168.863 430.814 170.69C430.898 171.371 432.012 171.906 433.297 171.867C437.738 171.725 449.154 167.714 453.76 164.666C461.528 159.552 466.267 160.487 466.716 167.235C466.998 171.433 463.93 173.024 456.305 172.656C449.484 172.325 437.476 174.271 435.236 176.073C432.91 177.945 435.889 179.226 443.161 179.477C451.359 179.771 453.699 181.605 451.12 185.744C449.146 188.919 447.237 188.855 439.132 185.39C428.335 180.774 418.802 180.536 420.208 184.913C420.791 186.728 427.725 188.659 449.644 193.099C467.604 196.738 471.862 198.743 474.535 204.824C477.22 210.935 475.808 216.974 470.749 221.044C469.511 222.04 461.947 226.126 453.949 230.136C440.478 236.871 425.15 246.172 425.925 247.135C426.108 247.362 431.306 249.076 437.481 250.946C443.657 252.816 452.554 256.225 457.245 258.527C465.393 262.512 483.162 274.975 486.357 278.946C489.275 282.573 489.382 279.467 486.735 268.191C483.977 256.488 483.886 245.311 486.526 243.187C489.189 241.044 495.124 240.372 499.266 241.735C501.572 242.5 506.699 244.8 510.668 246.845C514.634 248.905 520.804 251.489 524.374 252.591C535.359 255.996 545.737 260.316 551.822 264.014L557.617 267.544L562.348 262.873C572.473 252.894 573.543 252.188 576.696 253.444C578.862 254.308 579.821 255.291 580.577 257.418C581.438 259.835 581.126 260.666 578.453 263.165C576.18 265.279 574.32 266.143 571.658 266.298C567.715 266.528 562.235 270.654 563.048 272.787C564.24 275.969 581.014 275.905 587.981 272.698C593.3 270.264 597.11 270.67 599.763 273.967C602.391 277.233 602.155 280.468 599.092 282.932C596.053 285.377 591.877 285.718 586.881 283.919C579.682 281.337 568.667 280.316 566.545 282.024C564.688 283.517 564.757 283.747 568.077 287.152C572.319 291.494 580.451 295.298 589.574 297.209C593.321 298 596.857 299.22 597.424 299.925C599.1 302.008 598.546 306.531 596.275 309.209C594.571 311.213 593.469 311.623 590.543 311.306C587.617 310.989 586.299 310.153 583.772 307.012C579.639 301.874 569.913 293.971 565.767 292.378C563.955 291.682 561.67 291.584 560.686 292.157C558.211 293.619 560.571 299.023 567.371 307.474C573.326 314.875 573.662 316.72 569.629 319.966C566.347 322.606 562.363 322.096 559.629 318.683C557.329 315.824 556.768 313.154 556.731 304.977C556.722 301.294 556.156 299.853 553.748 297.262C551.096 294.415 550.531 294.225 548.49 295.505C546.633 296.677 546.238 298.014 546.406 302.537C546.684 310.403 546.033 311.855 541.693 313.116C537.36 314.37 534.061 313.14 532.318 309.627C530.362 305.704 531.311 302.682 535.922 298.198C543.435 290.89 543.456 290.692 537.333 283.98C528.592 274.382 514.452 262.47 510.26 261.172C504.393 259.364 503.07 260.815 506.073 265.766C515.891 281.93 520.411 300.937 516.873 311.229C515.544 315.11 515.52 317.181 516.758 320.146C517.651 322.267 519.829 327.507 521.602 331.796C523.869 337.275 526.415 341.562 530.152 346.206C547.455 367.728 550.386 385.226 539.473 401.89C537.239 405.288 535.029 409.388 534.546 411.002C533.137 415.761 528.851 424.706 525.927 428.994C519.919 437.802 511.169 441.617 504.257 438.43C500.88 436.863 498.993 434.95 491.233 425.194C472.775 401.996 467.592 383.768 475.055 368.332C476.656 365.03 478.513 361.885 479.186 361.343C479.86 360.801 480.674 359.359 480.998 358.143C481.524 356.198 480.776 356.503 474.906 360.594C467.343 365.866 461.456 367.739 447.971 369.131C443.342 369.617 438.825 370.593 437.932 371.312C434.439 374.122 432.335 386.356 433.971 394.42C434.595 397.505 435.271 402.754 435.461 406.085C435.957 414.511 438.867 417.214 448.928 418.59C452.987 419.144 456.683 420.066 457.15 420.645C458.889 422.807 458.364 427.126 456.147 428.909C453.156 431.317 451.058 430.682 445.845 425.806C443.417 423.527 440.392 421.226 439.134 420.69C437.002 419.786 436.82 419.881 436.455 422.123C435.744 426.643 439.706 434.693 445.754 440.975C450.342 445.748 451.168 447.031 450.962 449.004C450.593 452.41 446.744 455.132 443.591 454.211C439.875 453.137 439.183 451.939 437.222 443.169C435.378 434.911 432.005 428.297 429.168 427.418C426.36 426.542 424.441 435.622 425.594 444.448C426.136 448.618 426.363 452.925 426.101 454.026C425.299 457.407 421.028 459.54 417.734 458.204C413.324 456.411 413.106 452.483 416.939 443.425C420.246 435.603 420.741 427.063 417.991 425.457C415.933 424.262 409.662 429.617 405.638 436.002C401.926 441.892 397.472 445.914 394.942 445.64C392.356 445.36 390.312 442.179 390.658 438.985C390.952 436.271 391.599 435.647 401.432 428.561C411.785 421.096 411.89 420.985 411.692 418.125C411.447 414.452 410.069 414.232 400.58 416.357C394.806 417.648 393.321 417.566 391.635 415.903C389.025 413.333 389.106 410.596 391.84 408.397C393.477 407.08 395.484 406.961 399.994 407.9C403.287 408.593 408.108 409.501 410.715 409.919L415.451 410.689L416.549 401.935C417.141 397.123 419.266 385.685 421.266 376.528C425.279 358.087 426.079 356.772 434.669 354.571C438.633 353.549 451.227 347.713 453.631 345.778C455.472 344.297 452.456 343.098 446.604 342.994C433.281 342.759 420.043 341.14 409.317 338.441C391.542 333.957 373.9 326.463 366.407 320.196C362.57 316.999 362.713 319.31 366.652 324.205C372.922 331.998 380.798 344.898 385.111 354.46C391.986 369.675 394.759 387.714 391.398 395.308C389.398 399.846 384.563 401.517 374.912 401.037C366.302 400.598 361.945 398.904 353.989 392.88C350.871 390.512 345.936 387.218 343.035 385.552C336.566 381.842 316.369 373.642 315.476 374.36C314.725 374.965 316.098 378.388 318.125 380.939C318.912 381.918 321.825 383.806 324.62 385.131C331.985 388.624 334.452 390.872 334.797 394.348C335.135 397.831 333.17 399.734 329.803 399.205C327.849 398.894 326.673 397.737 323.655 393.185C319.54 386.948 317.699 386.584 318.847 392.228C319.7 396.431 325.033 403.043 331.448 407.842C335.674 411.009 336.6 412.096 337.152 414.53C338.107 418.78 337.055 421.033 333.739 421.882C331.437 422.469 330.552 422.059 328.448 419.443C327.061 417.72 324.534 413.199 322.842 409.412C317.363 397.151 317.163 396.821 316.667 399.22C316.14 401.837 317.694 409.077 320.853 418.728C323.567 427.008 323.178 431.863 319.683 433.036C313.592 435.072 311.853 431.066 312.677 416.856C313.32 405.564 312.317 397.791 309.79 394.65C307.162 391.384 305.104 395.144 301.46 409.907C299.675 417.149 298.022 419.873 294.948 420.656C293 421.153 291.997 420.643 290.012 418.176C286.867 414.268 287.626 410.961 292.582 406.986C300.364 400.751 306.639 385.922 303.267 381.732C301.156 379.108 298.829 380.594 294.595 387.278C291.198 392.63 290.34 393.488 287.917 393.941C284.471 394.597 282.073 391.921 282.508 387.907C282.792 385.278 283.464 384.557 289.249 380.65C296.291 375.9 298.834 372.358 300.725 364.733C302.401 357.901 305.172 357.143 314.301 360.984C319.853 363.33 324.37 364.327 330.01 364.473C334.367 364.58 342.065 365.135 347.131 365.69L356.337 366.709L345.635 353.359C334.247 339.142 330.062 331.711 329.095 323.999C328.84 321.933 328.339 319.884 327.986 319.446C326.789 317.958 312.79 327.195 301.193 337.107C288.168 348.245 285.528 352.02 281.135 365.787C276.723 379.594 276.499 387.928 279.533 425.214C281.414 448.254 281.432 451.981 279.734 466.34C276.757 491.456 266.237 509.507 244.166 527.33C232.351 536.875 226.69 540.023 214.402 543.897C193.564 550.471 169.37 547.951 150.947 537.305C144.419 533.538 142.293 531.713 136.443 524.86C132.674 520.448 129.05 515.815 128.384 514.571ZM488.517 404.13C490.599 405.306 492.624 406.012 493.016 405.697C494.136 404.796 492.54 393.126 490.56 387.699C488.839 382.994 488.65 382.759 486.501 382.863C481.709 383.08 479.584 389.099 481.905 395.928C483.693 401.198 484.021 401.605 488.517 404.13ZM534.88 397.818C538.71 394.736 541.866 388.701 541.511 385.116C541.12 381.134 537.708 376.718 534.776 376.393C532.628 376.16 532.385 376.356 531.514 379.057C530.396 382.511 530.302 397.58 531.39 399.013C531.86 399.629 533.204 399.167 534.88 397.818Z" fill="url(#paint0_linear_235_9519)"/>
<path d="M128.384 514.571C126.523 511.087 123.616 501.428 123.218 497.438C121.847 483.755 129.107 469.205 139.926 463.97C142.673 462.638 147.038 461.216 149.621 460.802C162.019 458.827 174.389 469.053 169.787 477.478C167.97 480.785 166.872 480.894 166.29 477.814C165.528 473.756 162.816 471.539 157.653 470.752C153.081 470.056 152.276 470.291 147.276 473.811C133.97 483.187 134.396 498.598 148.379 514.469C155.727 522.801 161.825 526.178 172.634 527.906C200.718 532.406 232.964 513.247 241.568 486.945C246.1 473.093 246.515 455.857 242.994 426.305C236.528 371.86 238.13 349.604 250.306 324.712C262.526 299.745 290.141 275.152 322.468 260.47C328.74 257.617 348.127 251.373 355.953 249.682L363.29 248.089L366.134 242.291C370.074 234.231 380.25 226.095 391.948 221.663C398.136 219.316 424.399 211.178 434.672 208.422C435.703 208.148 435.742 207.78 434.802 207.285C413.179 195.949 406.236 192.452 404.08 191.825C398.999 190.353 397.684 185.928 400.916 181.173C402.676 178.582 402.174 176.483 398.326 170.289C393.395 162.348 393.15 160.906 396.315 158.36C398.343 156.728 399.471 156.478 400.799 157.358C403.621 159.23 405.117 163.238 404.763 167.962C404.342 173.629 406.191 176.696 408.995 175.034C413.579 172.313 415.473 163.538 414.421 149.882C414.033 144.942 414.344 143.853 416.639 142.007C420.187 139.152 422.798 139.735 424.499 143.773C425.557 146.276 425.17 148.665 422.542 155.966C420.743 160.962 419.453 165.613 419.671 166.301C420.504 168.908 424.048 167.941 430.907 163.235C438.545 157.992 441.369 154.83 444.014 148.561C446.102 143.603 448.747 141.23 452.485 140.984C455.804 140.764 458.874 144.178 458.348 147.517C457.535 152.584 455.49 154.565 445.429 160.053C434.533 165.995 430.583 168.863 430.814 170.69C430.898 171.371 432.012 171.906 433.297 171.867C437.738 171.725 449.154 167.714 453.76 164.666C461.528 159.552 466.267 160.487 466.716 167.235C466.998 171.433 463.93 173.024 456.305 172.656C449.484 172.325 437.476 174.271 435.236 176.073C432.91 177.945 435.889 179.226 443.161 179.477C451.359 179.771 453.699 181.605 451.12 185.744C449.146 188.919 447.237 188.855 439.132 185.39C428.335 180.774 418.802 180.536 420.208 184.913C420.791 186.728 427.725 188.659 449.644 193.099C467.604 196.738 471.862 198.743 474.535 204.824C477.22 210.935 475.808 216.974 470.749 221.044C469.511 222.04 461.947 226.126 453.949 230.136C440.478 236.871 425.15 246.172 425.925 247.135C426.108 247.362 431.306 249.076 437.481 250.946C443.657 252.816 452.554 256.225 457.245 258.527C465.393 262.512 483.162 274.975 486.357 278.946C489.275 282.573 489.382 279.467 486.735 268.191C483.977 256.488 483.886 245.311 486.526 243.187C489.189 241.044 495.124 240.372 499.266 241.735C501.572 242.5 506.699 244.8 510.668 246.845C514.634 248.905 520.804 251.489 524.374 252.591C535.359 255.996 545.737 260.316 551.822 264.014L557.617 267.544L562.348 262.873C572.473 252.894 573.543 252.188 576.696 253.444C578.862 254.308 579.821 255.291 580.577 257.418C581.438 259.835 581.126 260.666 578.453 263.165C576.18 265.279 574.32 266.143 571.658 266.298C567.715 266.528 562.235 270.654 563.048 272.787C564.24 275.969 581.014 275.905 587.981 272.698C593.3 270.264 597.11 270.67 599.763 273.967C602.391 277.233 602.155 280.468 599.092 282.932C596.053 285.377 591.877 285.718 586.881 283.919C579.682 281.337 568.667 280.316 566.545 282.024C564.688 283.517 564.757 283.747 568.077 287.152C572.319 291.494 580.451 295.298 589.574 297.209C593.321 298 596.857 299.22 597.424 299.925C599.1 302.008 598.546 306.531 596.275 309.209C594.571 311.213 593.469 311.623 590.543 311.306C587.617 310.989 586.299 310.153 583.772 307.012C579.639 301.874 569.913 293.971 565.767 292.378C563.955 291.682 561.67 291.584 560.686 292.157C558.211 293.619 560.571 299.023 567.371 307.474C573.326 314.875 573.662 316.72 569.629 319.966C566.347 322.606 562.363 322.096 559.629 318.683C557.329 315.824 556.768 313.154 556.731 304.977C556.722 301.294 556.156 299.853 553.748 297.262C551.096 294.415 550.531 294.225 548.49 295.505C546.633 296.677 546.238 298.014 546.406 302.537C546.684 310.403 546.033 311.855 541.693 313.116C537.36 314.37 534.061 313.14 532.318 309.627C530.362 305.704 531.311 302.682 535.922 298.198C543.435 290.89 543.456 290.692 537.333 283.98C528.592 274.382 514.452 262.47 510.26 261.172C504.393 259.364 503.07 260.815 506.073 265.766C515.891 281.93 520.411 300.937 516.873 311.229C515.544 315.11 515.52 317.181 516.758 320.146C517.651 322.267 519.829 327.507 521.602 331.796C523.869 337.275 526.415 341.562 530.152 346.206C547.455 367.728 550.386 385.226 539.473 401.89C537.239 405.288 535.029 409.388 534.546 411.002C533.137 415.761 528.851 424.706 525.927 428.994C519.919 437.802 511.169 441.617 504.257 438.43C500.88 436.863 498.993 434.95 491.233 425.194C472.775 401.996 467.592 383.768 475.055 368.332C476.656 365.03 478.513 361.885 479.186 361.343C479.86 360.801 480.674 359.359 480.998 358.143C481.524 356.198 480.776 356.503 474.906 360.594C467.343 365.866 461.456 367.739 447.971 369.131C443.342 369.617 438.825 370.593 437.932 371.312C434.439 374.122 432.335 386.356 433.971 394.42C434.595 397.505 435.271 402.754 435.461 406.085C435.957 414.511 438.867 417.214 448.928 418.59C452.987 419.144 456.683 420.066 457.15 420.645C458.889 422.807 458.364 427.126 456.147 428.909C453.156 431.317 451.058 430.682 445.845 425.806C443.417 423.527 440.392 421.226 439.134 420.69C437.002 419.786 436.82 419.881 436.455 422.123C435.744 426.643 439.706 434.693 445.754 440.975C450.342 445.748 451.168 447.031 450.962 449.004C450.593 452.41 446.744 455.132 443.591 454.211C439.875 453.137 439.183 451.939 437.222 443.169C435.378 434.911 432.005 428.297 429.168 427.418C426.36 426.542 424.441 435.622 425.594 444.448C426.136 448.618 426.363 452.925 426.101 454.026C425.299 457.407 421.028 459.54 417.734 458.204C413.324 456.411 413.106 452.483 416.939 443.425C420.246 435.603 420.741 427.063 417.991 425.457C415.933 424.262 409.662 429.617 405.638 436.002C401.926 441.892 397.472 445.914 394.942 445.64C392.356 445.36 390.312 442.179 390.658 438.985C390.952 436.271 391.599 435.647 401.432 428.561C411.785 421.096 411.89 420.985 411.692 418.125C411.447 414.452 410.069 414.232 400.58 416.357C394.806 417.648 393.321 417.566 391.635 415.903C389.025 413.333 389.106 410.596 391.84 408.397C393.477 407.08 395.484 406.961 399.994 407.9C403.287 408.593 408.108 409.501 410.715 409.919L415.451 410.689L416.549 401.935C417.141 397.123 419.266 385.685 421.266 376.528C425.279 358.087 426.079 356.772 434.669 354.571C438.633 353.549 451.227 347.713 453.631 345.778C455.472 344.297 452.456 343.098 446.604 342.994C433.281 342.759 420.043 341.14 409.317 338.441C391.542 333.957 373.9 326.463 366.407 320.196C362.57 316.999 362.713 319.31 366.652 324.205C372.922 331.998 380.798 344.898 385.111 354.46C391.986 369.675 394.759 387.714 391.398 395.308C389.398 399.846 384.563 401.517 374.912 401.037C366.302 400.598 361.945 398.904 353.989 392.88C350.871 390.512 345.936 387.218 343.035 385.552C336.566 381.842 316.369 373.642 315.476 374.36C314.725 374.965 316.098 378.388 318.125 380.939C318.912 381.918 321.825 383.806 324.62 385.131C331.985 388.624 334.452 390.872 334.797 394.348C335.135 397.831 333.17 399.734 329.803 399.205C327.849 398.894 326.673 397.737 323.655 393.185C319.54 386.948 317.699 386.584 318.847 392.228C319.7 396.431 325.033 403.043 331.448 407.842C335.674 411.009 336.6 412.096 337.152 414.53C338.107 418.78 337.055 421.033 333.739 421.882C331.437 422.469 330.552 422.059 328.448 419.443C327.061 417.72 324.534 413.199 322.842 409.412C317.363 397.151 317.163 396.821 316.667 399.22C316.14 401.837 317.694 409.077 320.853 418.728C323.567 427.008 323.178 431.863 319.683 433.036C313.592 435.072 311.853 431.066 312.677 416.856C313.32 405.564 312.317 397.791 309.79 394.65C307.162 391.384 305.104 395.144 301.46 409.907C299.675 417.149 298.022 419.873 294.948 420.656C293 421.153 291.997 420.643 290.012 418.176C286.867 414.268 287.626 410.961 292.582 406.986C300.364 400.751 306.639 385.922 303.267 381.732C301.156 379.108 298.829 380.594 294.595 387.278C291.198 392.63 290.34 393.488 287.917 393.941C284.471 394.597 282.073 391.921 282.508 387.907C282.792 385.278 283.464 384.557 289.249 380.65C296.291 375.9 298.834 372.358 300.725 364.733C302.401 357.901 305.172 357.143 314.301 360.984C319.853 363.33 324.37 364.327 330.01 364.473C334.367 364.58 342.065 365.135 347.131 365.69L356.337 366.709L345.635 353.359C334.247 339.142 330.062 331.711 329.095 323.999C328.84 321.933 328.339 319.884 327.986 319.446C326.789 317.958 312.79 327.195 301.193 337.107C288.168 348.245 285.528 352.02 281.135 365.787C276.723 379.594 276.499 387.928 279.533 425.214C281.414 448.254 281.432 451.981 279.734 466.34C276.757 491.456 266.237 509.507 244.166 527.33C232.351 536.875 226.69 540.023 214.402 543.897C193.564 550.471 169.37 547.951 150.947 537.305C144.419 533.538 142.293 531.713 136.443 524.86C132.674 520.448 129.05 515.815 128.384 514.571ZM488.517 404.13C490.599 405.306 492.624 406.012 493.016 405.697C494.136 404.796 492.54 393.126 490.56 387.699C488.839 382.994 488.65 382.759 486.501 382.863C481.709 383.08 479.584 389.099 481.905 395.928C483.693 401.198 484.021 401.605 488.517 404.13ZM534.88 397.818C538.71 394.736 541.866 388.701 541.511 385.116C541.12 381.134 537.708 376.718 534.776 376.393C532.628 376.16 532.385 376.356 531.514 379.057C530.396 382.511 530.302 397.58 531.39 399.013C531.86 399.629 533.204 399.167 534.88 397.818Z" stroke="black" stroke-width="16" mask="url(#path-1-inside-1_235_9519)"/>
</g>
<mask id="path-2-inside-2_235_9519" fill="white">
<path d="M126.113 506.649C124.253 503.166 121.345 493.506 120.947 489.516C119.576 475.833 126.836 461.283 137.656 456.048C140.403 454.716 144.768 453.294 147.351 452.88C159.748 450.905 172.118 461.131 167.516 469.556C165.7 472.863 164.601 472.973 164.019 469.892C163.258 465.835 160.545 463.618 155.382 462.83C150.81 462.134 150.005 462.369 145.005 465.889C131.7 475.266 132.126 490.677 146.108 506.547C153.457 514.879 159.554 518.256 170.364 519.984C198.447 524.484 230.694 505.325 239.297 479.023C243.829 465.172 244.244 447.935 240.723 418.383C234.257 363.938 235.859 341.682 248.035 316.79C260.255 291.823 287.871 267.23 320.197 252.548C326.469 249.696 345.856 243.451 353.683 241.76L361.019 240.167L363.864 234.369C367.804 226.309 377.979 218.173 389.677 213.741C395.866 211.394 422.129 203.256 432.401 200.5C433.432 200.226 433.472 199.858 432.531 199.363C410.908 188.027 403.965 184.53 401.81 183.903C396.728 182.431 395.413 178.006 398.645 173.251C400.405 170.66 399.903 168.561 396.055 162.367C391.124 154.426 390.88 152.984 394.044 150.438C396.072 148.806 397.201 148.556 398.528 149.436C401.35 151.308 402.846 155.316 402.492 160.04C402.071 165.707 403.92 168.774 406.724 167.112C411.308 164.391 413.202 155.616 412.15 141.96C411.763 137.02 412.074 135.932 414.368 134.085C417.916 131.231 420.527 131.814 422.228 135.851C423.287 138.354 422.899 140.743 420.271 148.044C418.472 153.04 417.182 157.691 417.4 158.38C418.233 160.987 421.777 160.019 428.636 155.314C436.275 150.071 439.098 146.909 441.743 140.639C443.831 135.681 446.477 133.308 450.214 133.062C453.534 132.842 456.603 136.256 456.077 139.595C455.264 144.662 453.219 146.643 443.158 152.131C432.262 158.073 428.312 160.941 428.544 162.768C428.627 163.449 429.742 163.984 431.026 163.945C435.467 163.804 446.883 159.792 451.489 156.744C459.257 151.63 463.996 152.565 464.445 159.313C464.727 163.512 461.659 165.103 454.034 164.735C447.213 164.403 435.205 166.349 432.965 168.151C430.639 170.023 433.618 171.304 440.891 171.555C449.088 171.849 451.428 173.683 448.849 177.822C446.875 180.997 444.966 180.934 436.861 177.468C426.064 172.852 416.531 172.614 417.937 176.991C418.52 178.806 425.454 180.737 447.373 185.177C465.333 188.816 469.591 190.821 472.265 196.902C474.949 203.013 473.537 209.052 468.478 213.123C467.24 214.118 459.677 218.204 451.678 222.214C438.208 228.949 422.88 238.25 423.655 239.213C423.837 239.44 429.036 241.154 435.211 243.024C441.386 244.894 450.283 248.303 454.974 250.605C463.122 254.591 480.891 267.053 484.086 271.024C487.004 274.651 487.111 271.545 484.464 260.269C481.706 248.567 481.615 237.389 484.255 235.265C486.918 233.123 492.853 232.45 496.996 233.813C499.301 234.578 504.429 236.878 508.397 238.923C512.364 240.983 518.533 243.567 522.103 244.669C533.088 248.075 543.466 252.394 549.551 256.092L555.346 259.622L560.077 254.951C570.202 244.972 571.273 244.266 574.425 245.523C576.591 246.386 577.55 247.37 578.307 249.496C579.167 251.913 578.856 252.745 576.183 255.244C573.909 257.357 572.05 258.221 569.387 258.376C565.444 258.607 559.964 262.732 560.777 264.865C561.97 268.047 578.743 267.983 585.711 264.776C591.029 262.342 594.839 262.748 597.492 266.045C600.12 269.311 599.884 272.546 596.822 275.01C593.783 277.455 589.606 277.796 584.61 275.997C577.411 273.415 566.396 272.394 564.274 274.102C562.418 275.596 562.486 275.825 565.806 279.23C570.048 283.572 578.18 287.376 587.304 289.287C591.05 290.079 594.586 291.298 595.153 292.003C596.829 294.086 596.275 298.609 594.005 301.288C592.301 303.291 591.198 303.701 588.272 303.384C585.347 303.067 584.029 302.231 581.502 299.09C577.368 293.952 567.642 286.049 563.496 284.457C561.684 283.76 559.399 283.663 558.415 284.235C555.94 285.698 558.301 291.101 565.1 299.552C571.055 306.953 571.392 308.799 567.358 312.044C564.076 314.684 560.092 314.174 557.359 310.761C555.058 307.902 554.497 305.232 554.46 297.056C554.451 293.372 553.885 291.931 551.477 289.34C548.826 286.493 548.26 286.303 546.219 287.583C544.362 288.755 543.967 290.092 544.135 294.615C544.413 302.481 543.763 303.934 539.422 305.194C535.089 306.448 531.791 305.218 530.047 301.705C528.091 297.782 529.041 294.761 533.652 290.276C541.164 282.968 541.185 282.77 535.063 276.058C526.321 266.46 512.182 254.548 507.989 253.25C502.122 251.442 500.8 252.893 503.803 257.845C513.621 274.008 518.14 293.015 514.602 303.307C513.274 307.188 513.25 309.259 514.487 312.225C515.38 314.345 517.558 319.585 519.332 323.874C521.598 329.353 524.144 333.64 527.881 338.285C545.184 359.806 548.115 377.304 537.202 393.968C534.968 397.366 532.758 401.466 532.276 403.08C530.867 407.839 526.581 416.784 523.657 421.072C517.648 429.881 508.898 433.695 501.986 430.508C498.61 428.942 496.722 427.028 488.963 417.272C470.504 394.074 465.321 375.846 472.784 360.41C474.386 357.108 476.242 353.963 476.916 353.421C477.589 352.88 478.403 351.438 478.728 350.222C479.253 348.276 478.505 348.582 472.635 352.672C465.072 357.945 459.185 359.817 445.7 361.209C441.071 361.695 436.554 362.671 435.661 363.39C432.168 366.2 430.064 378.434 431.701 386.498C432.325 389.583 433 394.832 433.19 398.163C433.686 406.589 436.597 409.293 446.658 410.668C450.716 411.222 454.413 412.144 454.879 412.724C456.618 414.885 456.093 419.204 453.877 420.988C450.885 423.395 448.787 422.76 443.574 417.884C441.147 415.605 438.121 413.304 436.864 412.768C434.731 411.865 434.549 411.959 434.185 414.201C433.474 418.721 437.435 426.772 443.483 433.053C448.071 437.826 448.897 439.109 448.691 441.082C448.322 444.488 444.474 447.21 441.32 446.289C437.604 445.215 436.912 444.017 434.952 435.247C433.107 426.989 429.734 420.375 426.898 419.496C424.09 418.62 422.17 427.7 423.323 436.526C423.866 440.696 424.093 445.003 423.83 446.104C423.028 449.485 418.758 451.618 415.463 450.282C411.053 448.489 410.835 444.561 414.668 435.503C417.975 427.682 418.471 419.141 415.72 417.535C413.662 416.34 407.391 421.695 403.368 428.08C399.655 433.97 395.202 437.992 392.672 437.718C390.085 437.438 388.042 434.257 388.388 431.063C388.681 428.349 389.328 427.725 399.161 420.639C409.515 413.174 409.62 413.064 409.422 410.204C409.176 406.531 407.798 406.31 398.309 408.435C392.535 409.726 391.05 409.644 389.364 407.982C386.754 405.411 386.836 402.674 389.569 400.475C391.206 399.158 393.214 399.039 397.724 399.978C401.016 400.671 405.837 401.579 408.444 401.997L413.18 402.767L414.278 394.013C414.87 389.201 416.996 377.763 418.995 368.606C423.008 350.165 423.809 348.85 432.398 346.649C436.362 345.627 448.956 339.791 451.36 337.856C453.201 336.375 450.185 335.176 444.333 335.072C431.01 334.837 417.772 333.218 407.047 330.519C389.272 326.035 371.63 318.541 364.136 312.274C360.3 309.077 360.443 311.388 364.381 316.283C370.651 324.076 378.528 336.976 382.84 346.538C389.715 361.753 392.488 379.792 389.128 387.386C387.127 391.924 382.292 393.595 372.642 393.115C364.031 392.676 359.674 390.982 351.718 384.958C348.6 382.59 343.666 379.296 340.765 377.63C334.295 373.92 314.099 365.72 313.206 366.438C312.454 367.043 313.828 370.467 315.854 373.017C316.641 373.996 319.554 375.884 322.349 377.209C329.714 380.702 332.181 382.95 332.526 386.426C332.864 389.909 330.899 391.813 327.532 391.284C325.578 390.972 324.402 389.815 321.384 385.263C317.269 379.026 315.428 378.662 316.576 384.306C317.429 388.509 322.762 395.121 329.178 399.92C333.403 403.087 334.33 404.174 334.881 406.608C335.837 410.858 334.785 413.111 331.468 413.96C329.167 414.547 328.282 414.137 326.177 411.521C324.791 409.798 322.263 405.277 320.571 401.49C315.092 389.229 314.892 388.9 314.396 391.298C313.87 393.915 315.424 401.155 318.583 410.806C321.297 419.086 320.907 423.941 317.412 425.114C311.322 427.15 309.582 423.144 310.406 408.934C311.049 397.642 310.046 389.869 307.519 386.728C304.892 383.462 302.833 387.222 299.19 401.985C297.404 409.227 295.751 411.951 292.678 412.734C290.729 413.231 289.726 412.722 287.741 410.254C284.596 406.346 285.355 403.039 290.311 399.065C298.093 392.829 304.368 378 300.996 373.81C298.885 371.186 296.558 372.672 292.324 379.356C288.927 384.708 288.069 385.566 285.646 386.019C282.201 386.675 279.802 383.999 280.237 379.985C280.522 377.356 281.193 376.635 286.978 372.728C294.02 367.979 296.563 364.436 298.454 356.812C300.131 349.979 302.901 349.221 312.03 353.062C317.582 355.408 322.1 356.405 327.739 356.551C332.096 356.658 339.794 357.213 344.86 357.768L354.066 358.787L343.364 345.437C331.977 331.22 327.791 323.789 326.824 316.077C326.569 314.012 326.069 311.963 325.716 311.524C324.518 310.036 310.52 319.273 298.922 329.185C285.897 340.323 283.258 344.098 278.864 357.865C274.452 371.672 274.229 380.006 277.262 417.292C279.143 440.332 279.161 444.059 277.464 458.418C274.486 483.535 263.966 501.585 241.895 519.408C230.08 528.953 224.42 532.101 212.131 535.976C191.293 542.549 167.099 540.029 148.676 529.383C142.148 525.616 140.022 523.792 134.172 516.938C130.403 512.526 126.779 507.893 126.113 506.649ZM486.246 396.208C488.328 397.384 490.353 398.09 490.745 397.775C491.865 396.874 490.269 385.204 488.29 379.777C486.568 375.072 486.379 374.837 484.23 374.941C479.438 375.158 477.313 381.177 479.634 388.006C481.423 393.276 481.75 393.684 486.246 396.208ZM532.609 389.896C536.439 386.815 539.595 380.779 539.24 377.194C538.849 373.212 535.438 368.796 532.506 368.471C530.357 368.239 530.115 368.434 529.243 371.135C528.125 374.589 528.031 389.658 529.12 391.091C529.589 391.707 530.933 391.245 532.609 389.896Z"/>
</mask>
<path d="M126.113 506.649C124.253 503.166 121.345 493.506 120.947 489.516C119.576 475.833 126.836 461.283 137.656 456.048C140.403 454.716 144.768 453.294 147.351 452.88C159.748 450.905 172.118 461.131 167.516 469.556C165.7 472.863 164.601 472.973 164.019 469.892C163.258 465.835 160.545 463.618 155.382 462.83C150.81 462.134 150.005 462.369 145.005 465.889C131.7 475.266 132.126 490.677 146.108 506.547C153.457 514.879 159.554 518.256 170.364 519.984C198.447 524.484 230.694 505.325 239.297 479.023C243.829 465.172 244.244 447.935 240.723 418.383C234.257 363.938 235.859 341.682 248.035 316.79C260.255 291.823 287.871 267.23 320.197 252.548C326.469 249.696 345.856 243.451 353.683 241.76L361.019 240.167L363.864 234.369C367.804 226.309 377.979 218.173 389.677 213.741C395.866 211.394 422.129 203.256 432.401 200.5C433.432 200.226 433.472 199.858 432.531 199.363C410.908 188.027 403.965 184.53 401.81 183.903C396.728 182.431 395.413 178.006 398.645 173.251C400.405 170.66 399.903 168.561 396.055 162.367C391.124 154.426 390.88 152.984 394.044 150.438C396.072 148.806 397.201 148.556 398.528 149.436C401.35 151.308 402.846 155.316 402.492 160.04C402.071 165.707 403.92 168.774 406.724 167.112C411.308 164.391 413.202 155.616 412.15 141.96C411.763 137.02 412.074 135.932 414.368 134.085C417.916 131.231 420.527 131.814 422.228 135.851C423.287 138.354 422.899 140.743 420.271 148.044C418.472 153.04 417.182 157.691 417.4 158.38C418.233 160.987 421.777 160.019 428.636 155.314C436.275 150.071 439.098 146.909 441.743 140.639C443.831 135.681 446.477 133.308 450.214 133.062C453.534 132.842 456.603 136.256 456.077 139.595C455.264 144.662 453.219 146.643 443.158 152.131C432.262 158.073 428.312 160.941 428.544 162.768C428.627 163.449 429.742 163.984 431.026 163.945C435.467 163.804 446.883 159.792 451.489 156.744C459.257 151.63 463.996 152.565 464.445 159.313C464.727 163.512 461.659 165.103 454.034 164.735C447.213 164.403 435.205 166.349 432.965 168.151C430.639 170.023 433.618 171.304 440.891 171.555C449.088 171.849 451.428 173.683 448.849 177.822C446.875 180.997 444.966 180.934 436.861 177.468C426.064 172.852 416.531 172.614 417.937 176.991C418.52 178.806 425.454 180.737 447.373 185.177C465.333 188.816 469.591 190.821 472.265 196.902C474.949 203.013 473.537 209.052 468.478 213.123C467.24 214.118 459.677 218.204 451.678 222.214C438.208 228.949 422.88 238.25 423.655 239.213C423.837 239.44 429.036 241.154 435.211 243.024C441.386 244.894 450.283 248.303 454.974 250.605C463.122 254.591 480.891 267.053 484.086 271.024C487.004 274.651 487.111 271.545 484.464 260.269C481.706 248.567 481.615 237.389 484.255 235.265C486.918 233.123 492.853 232.45 496.996 233.813C499.301 234.578 504.429 236.878 508.397 238.923C512.364 240.983 518.533 243.567 522.103 244.669C533.088 248.075 543.466 252.394 549.551 256.092L555.346 259.622L560.077 254.951C570.202 244.972 571.273 244.266 574.425 245.523C576.591 246.386 577.55 247.37 578.307 249.496C579.167 251.913 578.856 252.745 576.183 255.244C573.909 257.357 572.05 258.221 569.387 258.376C565.444 258.607 559.964 262.732 560.777 264.865C561.97 268.047 578.743 267.983 585.711 264.776C591.029 262.342 594.839 262.748 597.492 266.045C600.12 269.311 599.884 272.546 596.822 275.01C593.783 277.455 589.606 277.796 584.61 275.997C577.411 273.415 566.396 272.394 564.274 274.102C562.418 275.596 562.486 275.825 565.806 279.23C570.048 283.572 578.18 287.376 587.304 289.287C591.05 290.079 594.586 291.298 595.153 292.003C596.829 294.086 596.275 298.609 594.005 301.288C592.301 303.291 591.198 303.701 588.272 303.384C585.347 303.067 584.029 302.231 581.502 299.09C577.368 293.952 567.642 286.049 563.496 284.457C561.684 283.76 559.399 283.663 558.415 284.235C555.94 285.698 558.301 291.101 565.1 299.552C571.055 306.953 571.392 308.799 567.358 312.044C564.076 314.684 560.092 314.174 557.359 310.761C555.058 307.902 554.497 305.232 554.46 297.056C554.451 293.372 553.885 291.931 551.477 289.34C548.826 286.493 548.26 286.303 546.219 287.583C544.362 288.755 543.967 290.092 544.135 294.615C544.413 302.481 543.763 303.934 539.422 305.194C535.089 306.448 531.791 305.218 530.047 301.705C528.091 297.782 529.041 294.761 533.652 290.276C541.164 282.968 541.185 282.77 535.063 276.058C526.321 266.46 512.182 254.548 507.989 253.25C502.122 251.442 500.8 252.893 503.803 257.845C513.621 274.008 518.14 293.015 514.602 303.307C513.274 307.188 513.25 309.259 514.487 312.225C515.38 314.345 517.558 319.585 519.332 323.874C521.598 329.353 524.144 333.64 527.881 338.285C545.184 359.806 548.115 377.304 537.202 393.968C534.968 397.366 532.758 401.466 532.276 403.08C530.867 407.839 526.581 416.784 523.657 421.072C517.648 429.881 508.898 433.695 501.986 430.508C498.61 428.942 496.722 427.028 488.963 417.272C470.504 394.074 465.321 375.846 472.784 360.41C474.386 357.108 476.242 353.963 476.916 353.421C477.589 352.88 478.403 351.438 478.728 350.222C479.253 348.276 478.505 348.582 472.635 352.672C465.072 357.945 459.185 359.817 445.7 361.209C441.071 361.695 436.554 362.671 435.661 363.39C432.168 366.2 430.064 378.434 431.701 386.498C432.325 389.583 433 394.832 433.19 398.163C433.686 406.589 436.597 409.293 446.658 410.668C450.716 411.222 454.413 412.144 454.879 412.724C456.618 414.885 456.093 419.204 453.877 420.988C450.885 423.395 448.787 422.76 443.574 417.884C441.147 415.605 438.121 413.304 436.864 412.768C434.731 411.865 434.549 411.959 434.185 414.201C433.474 418.721 437.435 426.772 443.483 433.053C448.071 437.826 448.897 439.109 448.691 441.082C448.322 444.488 444.474 447.21 441.32 446.289C437.604 445.215 436.912 444.017 434.952 435.247C433.107 426.989 429.734 420.375 426.898 419.496C424.09 418.62 422.17 427.7 423.323 436.526C423.866 440.696 424.093 445.003 423.83 446.104C423.028 449.485 418.758 451.618 415.463 450.282C411.053 448.489 410.835 444.561 414.668 435.503C417.975 427.682 418.471 419.141 415.72 417.535C413.662 416.34 407.391 421.695 403.368 428.08C399.655 433.97 395.202 437.992 392.672 437.718C390.085 437.438 388.042 434.257 388.388 431.063C388.681 428.349 389.328 427.725 399.161 420.639C409.515 413.174 409.62 413.064 409.422 410.204C409.176 406.531 407.798 406.31 398.309 408.435C392.535 409.726 391.05 409.644 389.364 407.982C386.754 405.411 386.836 402.674 389.569 400.475C391.206 399.158 393.214 399.039 397.724 399.978C401.016 400.671 405.837 401.579 408.444 401.997L413.18 402.767L414.278 394.013C414.87 389.201 416.996 377.763 418.995 368.606C423.008 350.165 423.809 348.85 432.398 346.649C436.362 345.627 448.956 339.791 451.36 337.856C453.201 336.375 450.185 335.176 444.333 335.072C431.01 334.837 417.772 333.218 407.047 330.519C389.272 326.035 371.63 318.541 364.136 312.274C360.3 309.077 360.443 311.388 364.381 316.283C370.651 324.076 378.528 336.976 382.84 346.538C389.715 361.753 392.488 379.792 389.128 387.386C387.127 391.924 382.292 393.595 372.642 393.115C364.031 392.676 359.674 390.982 351.718 384.958C348.6 382.59 343.666 379.296 340.765 377.63C334.295 373.92 314.099 365.72 313.206 366.438C312.454 367.043 313.828 370.467 315.854 373.017C316.641 373.996 319.554 375.884 322.349 377.209C329.714 380.702 332.181 382.95 332.526 386.426C332.864 389.909 330.899 391.813 327.532 391.284C325.578 390.972 324.402 389.815 321.384 385.263C317.269 379.026 315.428 378.662 316.576 384.306C317.429 388.509 322.762 395.121 329.178 399.92C333.403 403.087 334.33 404.174 334.881 406.608C335.837 410.858 334.785 413.111 331.468 413.96C329.167 414.547 328.282 414.137 326.177 411.521C324.791 409.798 322.263 405.277 320.571 401.49C315.092 389.229 314.892 388.9 314.396 391.298C313.87 393.915 315.424 401.155 318.583 410.806C321.297 419.086 320.907 423.941 317.412 425.114C311.322 427.15 309.582 423.144 310.406 408.934C311.049 397.642 310.046 389.869 307.519 386.728C304.892 383.462 302.833 387.222 299.19 401.985C297.404 409.227 295.751 411.951 292.678 412.734C290.729 413.231 289.726 412.722 287.741 410.254C284.596 406.346 285.355 403.039 290.311 399.065C298.093 392.829 304.368 378 300.996 373.81C298.885 371.186 296.558 372.672 292.324 379.356C288.927 384.708 288.069 385.566 285.646 386.019C282.201 386.675 279.802 383.999 280.237 379.985C280.522 377.356 281.193 376.635 286.978 372.728C294.02 367.979 296.563 364.436 298.454 356.812C300.131 349.979 302.901 349.221 312.03 353.062C317.582 355.408 322.1 356.405 327.739 356.551C332.096 356.658 339.794 357.213 344.86 357.768L354.066 358.787L343.364 345.437C331.977 331.22 327.791 323.789 326.824 316.077C326.569 314.012 326.069 311.963 325.716 311.524C324.518 310.036 310.52 319.273 298.922 329.185C285.897 340.323 283.258 344.098 278.864 357.865C274.452 371.672 274.229 380.006 277.262 417.292C279.143 440.332 279.161 444.059 277.464 458.418C274.486 483.535 263.966 501.585 241.895 519.408C230.08 528.953 224.42 532.101 212.131 535.976C191.293 542.549 167.099 540.029 148.676 529.383C142.148 525.616 140.022 523.792 134.172 516.938C130.403 512.526 126.779 507.893 126.113 506.649ZM486.246 396.208C488.328 397.384 490.353 398.09 490.745 397.775C491.865 396.874 490.269 385.204 488.29 379.777C486.568 375.072 486.379 374.837 484.23 374.941C479.438 375.158 477.313 381.177 479.634 388.006C481.423 393.276 481.75 393.684 486.246 396.208ZM532.609 389.896C536.439 386.815 539.595 380.779 539.24 377.194C538.849 373.212 535.438 368.796 532.506 368.471C530.357 368.239 530.115 368.434 529.243 371.135C528.125 374.589 528.031 389.658 529.12 391.091C529.589 391.707 530.933 391.245 532.609 389.896Z" fill="url(#paint1_linear_235_9519)" stroke="white" stroke-width="16" mask="url(#path-2-inside-2_235_9519)"/>
<defs>
<filter id="filter0_d_235_9519" x="123.052" y="140.23" width="480.523" height="412.278" filterUnits="userSpaceOnUse" color-interpolation-filters="sRGB">
<feFlood flood-opacity="0" result="BackgroundImageFix"/>
<feColorMatrix in="SourceAlpha" type="matrix" values="0 0 0 0 0 0 0 0 0 0 0 0 0 0 0 0 0 0 127 0" result="hardAlpha"/>
<feOffset dx="2" dy="5"/>
<feComposite in2="hardAlpha" operator="out"/>
<feColorMatrix type="matrix" values="0 0 0 0 0.470588 0 0 0 0 0.470588 0 0 0 0 0.470588 0 0 0 0.2 0"/>
<feBlend mode="normal" in2="BackgroundImageFix" result="effect1_dropShadow_235_9519"/>
<feBlend mode="normal" in="SourceGraphic" in2="effect1_dropShadow_235_9519" result="shape"/>
</filter>
<linearGradient id="paint0_linear_235_9519" x1="416.544" y1="138.752" x2="578.151" y2="354.783" gradientUnits="userSpaceOnUse">
<stop offset="0.129808" stop-color="#C55715"/>
<stop offset="0.365385" stop-color="#C42E67"/>
<stop offset="0.788462" stop-color="#2684D4"/>
<stop offset="0.982854" stop-color="#19D5BE"/>
</linearGradient>
<linearGradient id="paint1_linear_235_9519" x1="414.274" y1="130.83" x2="575.88" y2="346.861" gradientUnits="userSpaceOnUse">
<stop offset="0.129808" stop-color="#C55715"/>
<stop offset="0.365385" stop-color="#C42E67"/>
<stop offset="0.788462" stop-color="#2684D4"/>
<stop offset="0.982854" stop-color="#19D5BE"/>
</linearGradient>
</defs>
</svg>
