<svg width="127" height="119" viewBox="0 0 127 119" fill="none" xmlns="http://www.w3.org/2000/svg">
<path opacity="0.68" d="M81.7766 0.280741C82.1915 0.522306 82.6 0.775013 83.0016 1.03864C97.1101 10.1128 79.6311 21.9833 72.8075 28.3948C68.1845 33.15 51.0381 56.651 59.2079 62.3143C64.3963 65.9109 88.402 56.1525 93.9676 54.1218C101.856 51.2435 113.993 41.0266 122.155 45.9585C124.12 47.1354 125.503 49.0819 125.967 51.3256C129.117 65.9839 111.063 66.4432 102.018 65.1097C96.0436 64.2289 63.9448 71.6066 66.8454 80.5182C69.7594 89.4711 99.3287 96.0872 106.966 99.5333C122.969 106.753 112.827 124.647 99.5577 116.332C93.4024 111.632 87.4268 104.365 80.7366 100.165C75.44 96.8394 65.3895 95.0601 59.5723 96.9886C50.9693 99.8405 46.4097 102.881 36.6829 100.662C31.7189 99.5291 28.8086 97.5826 25.3209 93.8879C13.9683 81.8609 22.2423 71.5337 16.8417 56.5653C12.9037 45.6515 8.87164 41.5206 2.42128 32.2091C0.524342 29.4707 -0.562291 25.9975 0.299759 22.6262C1.04016 19.786 2.86132 17.3478 5.37445 15.832C7.41674 14.6222 10.3639 14.0081 12.5996 14.7812C22.2863 18.1307 19.2626 29.3176 20.1577 36.3945C20.5839 39.5446 21.6272 42.5804 23.2276 45.3272C25.3106 48.8478 31.0203 54.8937 35.0615 55.2905C58.5397 57.5947 60.8413 -4.67288 81.7766 0.280741Z" fill="#249AFF"/>
</svg>
