<svg width="253" height="63" viewBox="0 0 253 63" fill="none" xmlns="http://www.w3.org/2000/svg">
<path d="M14.044 62.1206C12.7808 62.1206 11.6662 61.7491 10.8488 60.9317L1.63475 51.7176C0.743069 50.8259 0.148614 49.3398 0.148614 47.2592C0.148614 40.9431 3.41812 27.4936 6.16748 19.1712L1.41183 14.4155C0.445842 13.4496 0 12.5579 0 11.0717C0 9.28837 1.26322 7.505 3.86396 6.4647C6.61332 5.3501 16.1989 2.60074 19.0969 1.93198C23.481 0.965991 28.5339 0 31.3575 0C32.3235 0 33.3638 0.668763 34.4041 1.63475L43.6182 10.8488C45.7731 13.0037 47.6307 16.7191 47.6307 18.5767C47.6307 21.6233 44.9557 28.3109 43.8411 30.3915C42.7265 32.5464 41.3147 33.5124 39.6056 33.9583L40.8688 35.2215C45.6988 40.1257 48.7453 45.9217 48.7453 52.7579C48.7453 57.5879 45.4758 61.2289 38.3424 61.2289C35.2215 61.2289 30.0943 59.4455 25.6359 57.5879C21.8462 59.7428 16.942 62.1206 14.044 62.1206Z" fill="#111111"/>
<path d="M79.6025 62.4178C74.6982 62.4178 67.1189 60.7088 64.1466 57.8108L61.7688 55.433C61.3973 56.1017 60.8771 56.5476 60.2084 56.9191C56.1958 59.3712 50.5485 62.1206 47.3533 62.1206C46.09 62.1206 45.0497 61.7491 44.2324 60.9317L35.0183 51.7919C34.1266 50.8259 33.5322 49.3398 33.5322 47.2592C33.5322 40.3487 36.876 25.2644 39.3281 17.3135L34.6468 12.5579C33.6808 11.6662 33.2349 10.7002 33.2349 9.21406C33.2349 7.20777 34.4982 6.01886 37.0246 4.90426C42.0032 2.67505 46.9817 0.668763 49.7311 0.668763C52.2575 0.668763 60.5056 7.28208 64.964 11.2203C65.2612 11.4433 65.5584 11.7405 65.7814 11.9634L74.9954 21.1775C78.7108 24.8928 79.7511 29.2026 79.7511 31.7291C79.7511 35.4444 77.5962 37.4507 74.8468 38.491C81.5344 46.962 85.7699 52.3864 85.7699 57.8108C85.7699 61.006 83.3178 62.4178 79.6025 62.4178Z" fill="#111111"/>
<path d="M75.5655 62.1206C74.3023 62.1206 73.262 61.7491 72.4446 60.9317L63.2306 51.7919C62.3389 50.8259 61.7444 49.3398 61.7444 47.2592C61.7444 46.1446 62.2646 43.9897 62.9333 41.6119C64.1222 37.3764 65.2368 33.5124 66.8716 28.6082L70.2154 18.7997L67.3174 13.7468C66.3514 12.0377 66.1285 10.5516 66.1285 9.13975C66.1285 7.20777 67.0202 5.79594 69.2494 4.82995C71.4043 3.86396 83.8879 0.520146 86.1171 0.520146C87.1574 0.520146 88.0491 0.817374 88.8664 1.63475L98.0805 10.8488C98.6007 11.4433 99.1208 12.1863 99.4923 13.2266C100.607 16.1989 101.722 20.0629 102.91 24.0754L104.397 29.2026L109.821 34.7013C110.341 35.2215 110.638 35.8902 110.638 36.7819C110.638 38.1938 109.672 40.2744 108.483 42.3549C108.855 43.5439 111.53 50.603 111.976 51.7919C112.793 53.9468 113.239 55.21 113.239 56.9191C113.239 58.8511 111.902 61.0803 107.889 61.0803C104.768 61.0803 101.35 59.9657 97.1888 58.5539C95.2569 57.9594 93.9936 57.2906 93.1762 56.5476L90.5012 53.7982C90.1297 55.433 89.4609 56.3246 88.0491 57.142C84.2594 59.2969 78.835 62.1206 75.5655 62.1206Z" fill="#111111"/>
<path d="M108.622 62.1206C107.359 62.1206 106.244 61.7491 105.427 60.9317L96.213 51.7176C95.3213 50.8259 94.7268 49.3398 94.7268 47.2592C94.7268 41.9834 97.6991 29.8714 100.003 20.9546C98.6651 16.0503 96.6588 7.95084 96.6588 5.12718C96.6588 2.74936 97.8477 0.965991 101.266 0.965991C104.833 0.965991 112.858 3.49242 114.715 4.23549C115.681 4.60703 116.573 5.12718 117.242 5.87025L119.248 7.80223C119.545 7.20777 119.991 6.68762 120.586 6.31609C124.227 3.93826 129.28 0.520146 131.657 0.520146C132.549 0.520146 133.292 0.891685 133.961 1.56045L143.101 10.7002C143.992 11.5919 144.512 12.7808 144.512 13.9697C144.512 15.2329 141.912 27.1963 140.5 33.3638C140.946 35.6673 141.763 38.6396 142.655 41.6862C143.992 46.2932 145.404 51.2718 145.404 54.5413C145.404 56.9191 144.141 58.6282 140.797 58.6282C137.23 58.6282 129.131 56.176 127.348 55.433C126.604 55.1357 126.084 54.7642 125.564 54.3184L123.632 52.3864C123.632 54.9128 122.815 55.9531 121.329 56.9191C117.316 59.4455 111.817 62.1206 108.622 62.1206Z" fill="#111111"/>
<path d="M141.93 62.1206C140.667 62.1206 139.552 61.7491 138.735 60.9317L129.52 51.7176C128.629 50.8259 128.034 49.3398 128.034 47.2592C128.034 40.423 130.115 32.918 132.27 25.19L133.459 20.8802C131.824 15.6788 129.892 8.69391 129.892 4.97856C129.892 1.93198 132.641 0.222922 135.093 0.222922C137.025 0.222922 140.444 1.78337 142.004 2.52643C148.915 5.87025 154.785 9.36267 158.872 12.1863C160.061 12.9294 161.101 13.8211 162.067 14.7871L171.207 23.9268C173.882 26.6019 175.368 29.5742 175.368 32.1749C175.368 36.559 169.052 43.6925 164.816 48.5967C163.85 49.7113 161.844 52.0148 160.581 53.2781C159.689 54.1697 159.243 54.8385 157.831 55.7302C153.67 58.3309 145.496 62.1206 141.93 62.1206Z" fill="#111111"/>
<path d="M169.118 62.1206C167.855 62.1206 166.814 61.7491 165.997 60.9317L156.783 51.7919C155.891 50.8259 155.297 49.3398 155.297 47.2592C155.297 40.9431 158.418 25.9331 161.093 17.2392L156.411 12.5579C155.445 11.6662 155 10.7002 155 9.21406C155 7.20777 156.263 6.01886 158.789 4.90426C160.796 4.01258 169.267 0.668763 171.347 0.668763C172.685 0.668763 173.799 1.18891 174.691 2.00629L183.831 11.2203C184.871 12.1863 185.391 13.5982 185.168 14.9357C184.945 16.3475 183.682 26.7505 183.682 39.3084C183.682 43.9154 183.905 46.7391 184.054 48.8196L184.202 52.3864C184.202 54.9871 183.459 55.9531 181.973 56.9191C178.035 59.4455 172.313 62.1206 169.118 62.1206Z" fill="#111111"/>
<path d="M183.776 62.1206C182.513 62.1206 181.473 61.8234 180.655 60.9317L171.441 51.7919C170.475 50.7516 169.955 49.3398 169.955 47.2592C169.955 40.9431 173.076 25.9331 175.751 17.2392L171.07 12.5579C170.104 11.6662 169.658 10.7002 169.658 9.21406C169.658 7.20777 170.921 6.01886 173.447 4.90426C175.454 3.93827 183.925 0.668763 186.005 0.668763C187.343 0.668763 188.457 1.18891 189.275 2.00629L192.99 5.72163L193.882 5.05287C194.922 4.3098 200.347 0.668763 203.096 0.668763C204.359 0.668763 205.251 0.965991 205.92 1.70906L215.134 10.8488C215.802 11.5919 216.1 12.5579 216.174 13.6725C216.174 14.3412 214.762 21.3261 213.722 26.156L216.471 28.9054C216.991 29.4255 217.214 30.0943 217.289 30.986C217.289 32.8437 215.431 36.3361 214.019 38.491C214.836 40.5716 218.18 48.0023 219.072 50.3801C220.112 53.1295 220.707 54.8385 220.781 56.9191C220.781 58.8511 219.443 61.1546 215.431 61.0803C212.31 61.0803 208.892 60.04 204.805 58.5539C202.947 57.8851 201.684 57.3649 200.941 56.6219L198.638 54.3184C198.34 55.5816 197.746 56.2503 196.631 56.9191C192.619 59.3712 186.971 62.1206 183.776 62.1206Z" fill="#111111"/>
<path d="M215.326 62.1206C214.063 62.1206 213.023 61.7491 212.205 60.9317L202.991 51.7919C202.1 50.8259 201.505 49.3398 201.505 47.2592C201.505 46.1446 202.025 43.9897 202.694 41.6119C203.883 37.3764 204.998 33.5124 206.632 28.6082L209.976 18.7997L207.078 13.7468C206.112 12.0377 205.889 10.5516 205.889 9.13975C205.889 7.20777 206.781 5.79594 209.01 4.82995C211.165 3.86396 223.649 0.520146 225.878 0.520146C226.918 0.520146 227.81 0.817374 228.627 1.63475L237.841 10.8488C238.362 11.4433 238.882 12.1863 239.253 13.2266C240.368 16.1989 241.482 20.0629 242.671 24.0754L244.157 29.2026L249.582 34.7013C250.102 35.2215 250.399 35.8902 250.399 36.7819C250.399 38.1938 249.433 40.2744 248.244 42.3549C248.616 43.5439 251.291 50.603 251.737 51.7919C252.554 53.9468 253 55.21 253 56.9191C253 58.8511 251.662 61.0803 247.65 61.0803C244.529 61.0803 241.111 59.9657 236.95 58.5539C235.018 57.9594 233.755 57.2906 232.937 56.5476L230.262 53.7982C229.891 55.433 229.222 56.3246 227.81 57.142C224.02 59.2969 218.596 62.1206 215.326 62.1206Z" fill="#111111"/>
<path d="M4.82975 51.0588C3.04638 51.0588 2.37762 49.7956 2.37762 47.5664C2.37762 40.9531 6.24158 25.7945 8.99094 17.9922L10.6257 14.1283L8.17356 17.3235L3.41791 13.6081C2.60054 12.9394 2.229 12.5678 2.229 11.3789C2.229 10.3386 3.19499 9.44692 4.68113 8.85247C7.43049 7.73786 16.7932 4.98851 19.5425 4.39405C23.9266 3.42806 28.7566 2.53638 31.3573 2.53638C32.6226 2.53638 35.0116 6.24945 35.8701 8.48596C36.0703 9.00765 36.1873 9.449 36.1873 9.74415C36.1873 10.1378 36.1223 10.6234 36.0093 11.1704C35.397 14.1342 33.3733 18.8993 32.6205 20.593C31.7289 22.4506 30.3913 22.8965 29.2024 23.0451L24.3725 23.268C30.5644 27.6318 35.0715 32.7912 36.6682 38.9319C37.0835 40.5289 37.3019 42.1923 37.3019 43.9253C37.3019 45.5585 36.8235 46.9823 35.7728 48.0561C34.4811 49.3762 32.3243 50.1671 29.1281 50.1671C24.744 50.1671 15.1584 45.9316 10.7743 43.7767C10.6257 43.9253 15.307 46.8233 15.1584 46.9719C11.4431 49.1268 7.20757 51.0588 4.82975 51.0588ZM23.8523 37.4606C24.6697 37.4606 25.2641 37.1634 25.2641 36.1974C25.2641 35.0828 21.1773 30.773 17.3876 27.6521V35.3057C19.2453 36.1231 22.1433 37.4606 23.8523 37.4606ZM17.3876 19.7013C20.0627 19.1068 22.3662 18.3638 23.4065 18.0665C24.9669 17.6207 25.0412 17.3978 25.0412 15.2429C25.0412 14.7227 24.9669 14.3512 24.3725 14.3512C23.0349 14.3512 21.9946 14.8713 17.3876 16.3575V19.7013Z" fill="white"/>
<path d="M66.3512 51.0588C65.8862 51.0588 65.4982 50.9653 65.1797 50.7842C64.3277 50.2998 63.9734 49.189 63.9734 47.5664C63.9734 46.749 64.4193 44.8913 65.088 42.5135C65.3608 41.5407 65.6335 40.5857 65.9116 39.6313C65.9423 39.5258 65.9732 39.4202 66.0041 39.3146C66.3891 37.9988 66.7854 36.6807 67.2067 35.3152C68.9439 29.6856 71.108 23.2518 74.6736 12.865L71.7757 17.3235L69.2492 12.9393C68.5061 11.6018 68.3575 10.6358 68.3575 9.44692C68.3575 8.40663 68.7291 7.81217 70.1409 7.21771C71.9986 6.40034 80.9154 4.02252 85.4481 3.20514C85.6711 3.13083 85.894 3.05652 86.1169 3.05652C86.86 3.05652 87.603 3.50237 88.1975 5.13712C90.3524 10.9331 92.5816 20.2957 94.8851 26.6861C97.3372 26.6861 99.1949 26.7605 99.1949 27.9494C99.1949 28.9897 97.9317 31.4418 96.8171 33.2994C97.3372 34.7113 99.6408 41.176 100.681 43.7767C101.498 45.7087 101.796 46.749 101.796 48.0865C101.796 48.7553 101.424 50.0185 98.6748 50.0185C95.9254 50.0185 92.8788 49.0525 88.6433 47.6407C85.4481 46.6004 85.0023 45.9316 85.0023 44.2226V37.312L88.7176 36.0488C86.7857 36.1231 84.2592 36.4203 82.2529 36.6433C80.7668 36.8662 77.8688 37.2377 76.2341 37.6836L79.7265 37.9065L79.2063 43.5538C79.0577 45.1143 78.8348 45.7087 77.7202 46.3775C74.0792 48.4581 69.0263 51.0588 66.3512 51.0588ZM80.5439 27.6521C83.2932 27.2806 85.8197 26.9091 88.6433 26.6861C87.2315 26.4632 85.8197 26.3146 84.4078 26.3146L82.2529 14.3512L80.5439 27.6521Z" fill="white"/>
<path d="M99.408 51.0588C97.6246 51.0588 96.9558 49.7956 96.9558 47.5664C96.9558 42.4392 100.002 30.1786 102.306 21.2617C100.968 16.4318 98.8878 8.1094 98.8878 5.43435C98.8878 4.39405 99.0364 3.50237 101.266 3.50237C104.461 3.50237 112.263 5.95449 113.898 6.62326C115.533 7.21771 116.87 8.85247 117.316 10.6358L121.7 27.4292L120.14 17.2492L120.808 10.8588C120.808 9.96707 121.106 9.00108 121.849 8.48094C125.118 6.32604 130.097 3.05652 131.657 3.05652C132.326 3.05652 133.069 4.24544 133.069 5.13712C133.069 6.10311 130.32 18.4381 128.982 24.5312C130.097 30.773 133.961 40.7301 133.961 45.7087C133.961 46.749 133.812 47.5664 131.583 47.5664C128.388 47.5664 120.585 45.1886 118.951 44.5198C117.316 43.851 116.944 42.2906 116.573 40.7301L111.148 20.2957L112.04 27.0577L112.189 43.5538C112.189 45.1143 112.04 45.5601 111 46.1545C107.136 48.5324 102.009 51.0588 99.408 51.0588Z" fill="white"/>
<path d="M132.715 51.0588C130.932 51.0588 130.263 49.7956 130.263 47.5664C130.263 38.0551 134.425 27.2806 137.248 15.0943L135.168 19.2554C133.533 13.9053 132.121 7.81217 132.121 5.28573C132.121 3.57668 133.756 2.7593 135.093 2.7593C136.505 2.7593 139.626 4.17113 141.038 4.83989C147.8 8.1094 153.521 11.5275 157.608 14.3512C161.695 17.1005 163.924 20.593 163.924 23.3423C163.924 26.6861 158.203 33.3738 153.893 38.278C152.481 39.9128 148.32 44.5941 147.651 44.9656C143.787 47.3435 135.316 51.0588 132.715 51.0588ZM145.273 33.8939C150.401 28.098 151.738 26.6118 151.738 25.2C151.738 24.234 151.069 23.7882 149.36 22.8222C148.543 22.302 147.428 21.4847 146.016 20.7416L145.273 33.8939Z" fill="white"/>
<path d="M159.904 51.0588C158.195 51.0588 157.526 49.7956 157.526 47.5664C157.526 40.9531 161.167 23.9368 163.916 16.1345L158.418 11.7504C157.6 11.0817 157.229 10.7101 157.229 9.52123C157.229 8.48093 158.195 7.88648 159.681 7.21771C161.761 6.25172 169.861 3.20514 171.347 3.20514C172.907 3.20514 173.873 4.61697 173.725 5.80588C173.502 7.21771 172.239 17.7693 172.239 30.4758C172.239 37.9808 172.759 40.8045 172.759 43.5538C172.759 45.1143 172.536 45.5601 171.57 46.1545C167.706 48.5324 162.504 51.0588 159.904 51.0588Z" fill="white"/>
<path d="M174.562 51.0588C172.853 51.0588 172.184 49.7956 172.184 47.5664C172.184 40.9531 175.825 23.9368 178.574 16.1345L173.076 11.7504C172.258 11.0817 171.887 10.7101 171.887 9.52123C171.887 8.48093 172.853 7.88648 174.339 7.21771C176.42 6.25172 184.519 3.20514 186.005 3.20514C187.566 3.20514 188.532 4.61697 188.383 5.80588C187.863 9.44692 187.491 16.9519 187.194 21.9305C189.943 21.4847 192.47 21.1874 195.219 20.8902C193.882 20.8159 192.47 20.593 191.058 20.593L191.875 11.4532C192.024 9.37262 193.436 8.33232 195.145 7.21771C195.962 6.62326 201.164 3.20514 203.096 3.20514C204.433 3.20514 204.731 3.94821 204.731 4.83989C204.731 5.50865 201.981 18.5867 201.461 20.8902C203.913 20.8902 205.845 20.9645 205.845 22.1534C205.845 23.5652 203.542 27.7264 202.278 29.3612C203.839 33.5224 206.291 38.2037 207.703 42.2906C208.743 45.04 209.338 46.4518 209.338 48.0865C209.338 48.7553 208.966 50.0185 206.217 50.0185C203.467 50.0185 200.421 49.0525 196.26 47.6407C192.99 46.6004 192.916 45.9316 192.618 44.2226C192.173 41.176 191.875 35.5287 191.653 31.4418L195.368 30.2529L188.903 30.9216C187.417 31.1446 184.519 31.5161 182.884 31.8876L186.971 32.1848C187.194 36.346 187.417 42.0677 187.417 43.5538C187.417 45.1143 187.194 45.5601 186.228 46.1545C182.364 48.5324 177.163 51.0588 174.562 51.0588Z" fill="white"/>
<path d="M206.112 51.0588C204.403 51.0588 203.734 49.7956 203.734 47.5664C203.734 46.749 204.18 44.8913 204.849 42.5135C207.078 34.5627 209.307 27.8007 214.435 12.865L211.537 17.3235L209.01 12.9393C208.267 11.6018 208.118 10.6358 208.118 9.44692C208.118 8.40663 208.49 7.81217 209.902 7.21771C211.759 6.40034 220.676 4.02252 225.209 3.20514C225.432 3.13083 225.655 3.05652 225.878 3.05652C226.621 3.05652 227.364 3.50237 227.958 5.13712C230.113 10.9331 232.343 20.2957 234.646 26.6861C237.098 26.6861 238.956 26.7605 238.956 27.9494C238.956 28.9897 237.693 31.4418 236.578 33.2994C237.098 34.7113 239.402 41.176 240.442 43.7767C241.259 45.7087 241.557 46.749 241.557 48.0865C241.557 48.7553 241.185 50.0185 238.436 50.0185C235.686 50.0185 232.64 49.0525 228.404 47.6407C225.209 46.6004 224.763 45.9316 224.763 44.2226V37.312L228.479 36.0488C226.547 36.1231 224.02 36.4203 222.014 36.6433C220.528 36.8662 217.63 37.2377 215.995 37.6836L219.487 37.9065L218.967 43.5538C218.819 45.1143 218.596 45.7087 217.481 46.3775C213.84 48.4581 208.787 51.0588 206.112 51.0588ZM220.305 27.6521C223.054 27.2806 225.581 26.9091 228.404 26.6861C226.992 26.4632 225.581 26.3146 224.169 26.3146L222.014 14.3512L220.305 27.6521Z" fill="white"/>
<path d="M216.623 12.5409H228.748V27.9729H216.623V12.5409Z" fill="white"/>
<path d="M76.0821 12.5409H88.2072V27.9729H76.0821V12.5409Z" fill="white"/>
<path fill-rule="evenodd" clip-rule="evenodd" d="M35.8701 8.48596C36.0703 9.00765 36.1873 9.449 36.1873 9.74415C36.1873 10.1378 36.1223 10.6234 36.0093 11.1704C36.1809 11.3575 36.3946 11.5392 36.6528 11.7504L41.2599 15.4658L43.9349 11.156L42.1516 16.1345C40.4308 20.984 37.9781 30.92 36.6682 38.9319C37.0835 40.5289 37.3019 42.1923 37.3019 43.9253C37.3019 45.5585 36.8235 46.9823 35.7728 48.0561C35.8684 49.9797 36.5594 51.0588 38.139 51.0588C40.7397 51.0588 45.9412 48.5324 49.8052 46.1545C50.7712 45.5601 50.9941 45.0399 50.9941 43.5538C50.9941 41.2503 50.8455 37.7579 50.8455 33.8939L55.9726 46.6004C56.6428 48.353 60.9604 49.9626 65.1797 50.7842C64.3277 50.2998 63.9734 49.189 63.9734 47.5664C63.9734 46.749 64.4193 44.8913 65.088 42.5135C65.3608 41.5407 65.6335 40.5857 65.9116 39.6313C62.6398 35.5859 60.6347 32.7091 56.79 28.2466C57.6074 28.3952 58.2019 28.3952 59.5394 28.3952C63.329 28.3952 68.3076 27.3549 68.3076 22.8965C68.3076 20.593 67.193 16.5061 63.4776 13.2366C59.6137 9.96707 51.1427 3.20514 49.7309 3.20514C47.4273 3.20514 42.746 5.06281 37.9161 7.21771C37.0036 7.62834 36.2872 8.01095 35.8701 8.48596ZM55.9726 21.4103C55.9726 21.7819 55.8983 23.4166 54.6351 23.4166C54.0407 23.4166 52.0344 23.1937 50.6225 22.525V21.9305L50.6969 20.8902L50.9941 17.3235C55.2296 19.1811 55.9726 19.9242 55.9726 21.4103Z" fill="white"/>
<path d="M224.681 17.8491C224.706 17.848 224.73 17.8473 224.755 17.8469C226.773 17.8119 225.952 19.9817 225.589 21.1115C225.173 22.4067 224.761 23.7967 224.707 25.1608C224.691 26.1027 225.293 26.6614 226.23 26.5932C226.868 26.5467 227.716 26.3183 228.189 25.8663C228.695 25.3629 229.121 24.4898 229.937 24.4817C231.393 24.4672 231.537 26.2977 230.211 26.7948C229.087 27.2161 227.9 27.3919 226.859 27.9634C226.043 28.4109 225.473 29.3108 224.861 29.9779C223.819 31.1694 221.186 30.7708 220.518 29.381C219.259 26.7603 218.033 26.9389 215.333 26.9642C215.061 26.9715 214.766 26.9614 214.507 26.8758C214.189 26.771 213.899 26.5724 213.75 26.2639C213.647 26.05 213.63 25.813 213.714 25.5898C213.811 25.3291 214.058 25.0397 214.314 24.9297C215.315 24.5007 217.386 25.6708 218.338 26.0373C218.818 26.2218 219.946 26.6251 220.434 26.3773C220.551 26.3173 220.615 26.2235 220.659 26.1022C221.055 24.998 219.433 23.0334 218.69 22.3104C218.109 21.7451 217.401 21.4752 217.051 20.6769C216.909 20.355 216.873 20.019 217.008 19.6879C217.129 19.39 217.352 19.1226 217.655 19.0037C218.112 18.8246 218.656 18.965 218.985 19.3209C219.424 19.7945 219.865 21.2096 220.166 21.8706C220.464 22.5238 221.858 24.9324 222.479 25.1992C222.628 25.2635 222.792 25.2748 222.945 25.2115C223.264 25.0792 223.397 24.6503 223.509 24.3505C223.887 23.3356 224.063 22.2562 224.026 21.1735C223.99 20.0543 223.216 18.4287 224.681 17.8491Z" fill="#111111"/>
<path d="M84.856 16.1521C84.8806 16.151 84.9053 16.1503 84.93 16.1499C86.948 16.1149 86.1267 18.2846 85.7637 19.4145C85.3476 20.7096 84.9356 22.0997 84.8816 23.4638C84.8658 24.4057 85.4681 24.9644 86.4043 24.8962C87.0427 24.8497 87.891 24.6213 88.3638 24.1693C88.8698 23.6659 89.296 22.7928 90.1119 22.7847C91.5683 22.7701 91.7121 24.6007 90.386 25.0978C89.2622 25.5191 88.0747 25.6948 87.0334 26.2664C86.2183 26.7139 85.6476 27.6138 85.0356 28.2809C83.9941 29.4724 81.3608 29.0738 80.6929 27.684C79.4338 25.0633 78.2076 25.2419 75.5078 25.2672C75.2358 25.2745 74.9409 25.2644 74.6815 25.1788C74.364 25.074 74.0734 24.8754 73.9251 24.5669C73.8222 24.353 73.8049 24.1159 73.8885 23.8928C73.9862 23.632 74.2324 23.3427 74.4892 23.2327C75.4901 22.8037 77.5608 23.9738 78.5131 24.3403C78.9926 24.5248 80.1208 24.9281 80.6084 24.6802C80.7263 24.6203 80.7902 24.5264 80.8337 24.4052C81.2296 23.301 79.6076 21.3364 78.8646 20.6134C78.2837 20.0481 77.5762 19.7782 77.2256 18.9798C77.0842 18.6579 77.0478 18.3219 77.1823 17.9909C77.3033 17.693 77.5268 17.4255 77.8299 17.3067C78.2866 17.1276 78.8305 17.2679 79.1601 17.6239C79.5987 18.0975 80.0395 19.5126 80.3407 20.1736C80.6384 20.8268 82.0325 23.2354 82.6535 23.5022C82.8032 23.5665 82.9669 23.5778 83.1196 23.5145C83.4386 23.3822 83.5713 22.9533 83.6835 22.6535C84.0616 21.6386 84.2375 20.5591 84.2012 19.4764C84.1647 18.3572 83.3906 16.7316 84.856 16.1521Z" fill="#111111"/>
</svg>
