<svg width="184" height="189" viewBox="0 0 184 189" fill="none" xmlns="http://www.w3.org/2000/svg">
<path d="M30.0279 86.5958C24.4673 85.2621 10.5413 85.0385 1.72084 85.0405C0.366 85.0408 0.0407478 83.0792 1.32555 82.6493L28.2152 73.6502C28.2152 73.6502 41.6052 67.0319 38.1351 52.7952C34.6651 38.5584 6.07299 38.8495 12.8334 27.0666C19.5939 15.2837 38.7432 50.2601 53.2656 43.0199C67.788 35.7796 53.5054 -11.2863 62.7916 3.30412C71.9768 17.7359 74.8227 39.2541 87.5212 39.619C93.6785 39.796 96.4162 32.5313 100.47 26.6394C103.108 22.8042 110.343 15.5491 115.195 18.5542C124.614 24.388 105.191 43.8574 105.191 43.8574C105.191 43.8574 97.6204 59.0204 117.115 55.6536C136.61 52.2868 170.686 8.62955 181.393 25.4959C192.1 42.3622 123.017 59.7501 126.046 67.6256C129.074 75.5011 140.843 75.6429 140.843 75.6429C140.843 75.6429 129.075 75.5011 129.635 85.4655C130.196 95.4298 168.732 102.886 162.174 113.824C155.617 124.762 129.874 92.6717 122.267 99.7835C114.66 106.895 118.01 117.529 118.01 117.529C118.01 117.529 109.282 104.712 101.031 106.307C92.7805 107.903 87.8444 112.081 85.2095 123.066C82.5747 134.051 96.7404 185.705 81.574 187.429C66.4076 189.153 74.2402 162.403 73.835 141.785C73.2704 113.053 66.2512 107.795 66.2512 107.795C66.2512 107.795 56.9151 97.513 48.4974 108.005C40.0797 118.497 32.9141 131.97 26.4873 125.96C20.0606 119.95 43.2033 101.373 43.2867 96.9251C43.3701 92.4769 40.2581 89.0496 30.0279 86.5958Z" fill="#EE6818" stroke="#EE6818" stroke-width="1.03138"/>
</svg>
