<svg width="1286" height="699" viewBox="0 0 1286 699" preserveAspectRatio="none" fill="none" xmlns="http://www.w3.org/2000/svg">
<g filter="url(#filter0_g_13_11067)">
<path d="M559.334 4.15982C578.322 3.50577 604.434 5.05759 623.176 5.25748C644.914 5.49205 651.912 2.638 668.282 5.53091C725.765 5.19249 783.463 5.75555 841.01 7.12369C840.832 7.70703 840.627 8.29117 840.416 8.87369C844.958 8.58586 849.508 8.30263 854.065 8.02994C853.366 8.44776 852.702 8.86725 852.004 9.28091C873.444 8.20073 892.469 7.95029 917.425 9.37759C917.91 9.40599 916.588 10.5268 916.989 10.5729C922.584 11.0107 928.902 10.3627 933.842 10.7799C945.862 11.778 965.864 15.2494 957.127 11.7243C984.961 13.6135 1017.74 14.2546 1044.1 16.3844C1055.6 17.3086 1058.97 19.3701 1064.38 19.8014C1069.82 20.2359 1067.15 18.4798 1069.09 18.5358C1080.72 18.8808 1100.19 20.1947 1101.98 22.1002C1104.36 21.5413 1106.88 20.9839 1109.3 20.4254C1107.72 22.2856 1144.05 23.9164 1153.39 24.6491C1155.12 24.7805 1155.3 25.6616 1156.61 25.7458C1171.18 26.6768 1174.97 25.5952 1187.32 26.0592C1190.94 26.1973 1186.85 26.9142 1191.71 27.2624C1191.49 28.5474 1192.5 29.825 1194.64 30.4635C1197.98 31.4641 1199.87 29.648 1198.69 26.8258C1200.46 26.6313 1203.72 26.5754 1210.1 27.067C1210.92 27.1304 1211.76 27.1934 1212.63 27.2594C1212.64 28.102 1212.87 29.0143 1213.34 29.8844C1215.92 34.6832 1214.78 35.6105 1208.57 33.7516C1206.02 32.9885 1203.09 32.8165 1202.07 33.3688C1198.82 35.1223 1202.26 38.5427 1206.65 37.9176C1208.97 37.5907 1212.13 37.8868 1213.69 38.5797C1215.64 39.4529 1216.4 38.8868 1216.16 36.7379C1215.98 35.0319 1216.41 31.6727 1217.13 29.276C1217.3 28.681 1217.45 28.1319 1217.57 27.6295C1219.41 27.7655 1221.32 27.9061 1223.3 28.0514C1224.1 28.624 1224.92 28.8184 1225.54 28.485C1225.66 28.4206 1225.77 28.3375 1225.86 28.2399C1226.95 28.3196 1228.06 28.4008 1229.18 28.4831C1228.7 29.1699 1227.98 29.9436 1227.02 30.86C1225.76 32.0584 1224.9 33.1955 1224.43 34.3307C1224.18 34.3963 1223.97 34.4734 1223.8 34.568C1223.97 34.5814 1224.15 34.5947 1224.32 34.6081C1223.72 36.2602 1223.93 37.9205 1224.9 39.778C1226.23 42.3069 1228.59 44.5027 1230.14 44.6569C1231.69 44.81 1232.64 46.0534 1232.23 47.4176C1231.82 48.7826 1229.47 48.9423 1227.02 47.7721C1224.57 46.6038 1221.98 45.9583 1221.28 46.3395C1218.87 47.6372 1225.21 56.7386 1228.28 56.3971C1230.11 56.1926 1229.96 56.8839 1227.91 58.11C1225.75 59.404 1225.33 61.8644 1226.78 64.7575C1228.97 69.1468 1228.9 69.2143 1225.15 66.2838C1222.38 64.1138 1222.93 65.9313 1227.04 72.4801C1231.22 79.1499 1232.53 83.5674 1231.72 88.2526C1230.63 94.5232 1230.77 94.7734 1235.65 95.0836C1239.82 95.3493 1240.22 94.9913 1237.95 93.0387C1236.44 91.7372 1236.13 90.1749 1237.26 89.5641C1238.39 88.9533 1240.45 87.1341 1241.83 85.5211C1243.65 83.4101 1245 83.7923 1246.67 86.8825C1247.94 89.2459 1247.91 92.4286 1246.6 93.9567C1243.1 98.0268 1245.48 100.682 1250.29 98.0856C1254.72 95.7001 1256.54 99.4742 1257 112.016C1257.17 116.327 1258.14 118.061 1260.87 118.876C1263.67 119.714 1263.81 118.654 1261.46 114.3C1258.85 109.469 1259.05 108.762 1262.8 109.514C1266.21 110.2 1267.01 111.312 1266.37 114.494C1265.75 117.598 1266.42 118.852 1269.13 119.663C1271.84 120.474 1272.34 120.051 1271.19 117.923C1269.93 115.593 1270.35 115.336 1273.62 116.419C1276.77 117.464 1277.16 118.181 1275.55 119.999C1272.65 123.281 1274.94 126.267 1278.78 124.199C1278.85 124.162 1278.91 124.128 1278.98 124.094C1278.99 144.503 1279.02 165.186 1279.82 185.259C1278.61 184.068 1277.16 172.267 1278.08 190.013C1278.23 192.866 1279.28 190.727 1279.33 192.007C1279.73 202.353 1279.04 211.319 1279.53 222.481C1279.68 225.762 1280.53 226.604 1280.75 230.725C1281.09 236.82 1279.91 239.481 1280.46 246.564C1281.32 257.619 1282.46 259.308 1280.29 273.025C1280.74 350.695 1281.04 427.951 1279.43 505.332C1279.89 527.794 1280.41 548.308 1280.43 571.655C1280.43 578.472 1278.9 579.975 1279.29 590.791C1279.38 593.169 1280.83 610.881 1277.73 613.28C1277.95 618.122 1277.92 621.207 1278.04 625.424C1278.53 622.232 1279.02 618.956 1279.51 615.931C1279.14 625.491 1279.24 634.087 1279.47 642.413C1279.27 642.697 1279.16 643.046 1279.16 643.422C1279.16 643.829 1279.29 644.121 1279.52 644.279C1279.67 649.534 1279.86 654.703 1280.01 659.96C1279.75 659.946 1279.47 659.939 1279.16 659.939C1276.91 659.939 1275.99 660.31 1277.11 660.763C1277.9 661.081 1279.04 661.175 1280.03 661.048C1280.06 661.912 1280.08 662.778 1280.1 663.648C1280.2 668.277 1280.06 669.718 1279.86 670.25C1279.46 667.43 1277.23 662.953 1275.57 662.952C1274.78 662.952 1274.9 664.379 1275.83 666.123C1277.7 669.618 1275.75 671.794 1272.89 670.237C1273.12 663.941 1274.09 661 1274.32 656.311C1274.58 651.129 1272.97 641.461 1273.05 638.268C1273.47 621.357 1274.67 614.011 1274.91 595.402C1275.13 580.072 1274.99 509.376 1274.62 503.44C1274.2 496.485 1273.92 494.413 1273.74 495.178C1273.61 511.795 1273.47 528.853 1273.3 546.452C1273.35 546.999 1273.4 547.575 1273.46 548.182C1273.4 548.355 1273.34 548.534 1273.28 548.719C1272.94 586.252 1272.52 626.253 1272.04 669.683C1271.95 669.619 1271.87 669.551 1271.78 669.48C1270.5 668.417 1268.51 667.887 1267.36 668.299C1266.2 668.713 1264 668.404 1262.45 667.613C1259.2 665.941 1260.32 661.316 1263.97 661.316C1265.32 661.316 1266.06 662.27 1265.61 663.434C1265.14 664.672 1266.08 665.65 1267.89 665.786C1271.7 666.073 1271.85 664.052 1268.28 660.488C1266.67 658.87 1264.21 658.159 1262.15 658.714C1260.26 659.221 1257.42 659.646 1255.85 659.658C1254.28 659.671 1252.99 660.417 1252.99 661.316C1252.99 662.215 1254.28 663.004 1255.85 663.066C1258.28 663.164 1258.21 663.379 1255.44 664.474C1252.78 665.526 1251.95 664.958 1250.99 661.438C1250.16 658.392 1248.7 657.098 1246.08 657.068C1244.04 657.045 1241.85 657.786 1241.22 658.715C1240.6 659.643 1239.49 659.812 1238.77 659.089C1238.05 658.368 1238.74 656.836 1240.32 655.686C1241.89 654.537 1243.18 653.125 1243.18 652.549C1243.18 650.59 1235.28 651.493 1234.45 653.547C1233.95 654.769 1233.57 654.438 1233.49 652.729C1233.41 650.927 1232 649.825 1229.68 649.753C1226.17 649.643 1226.15 649.575 1229.27 648.206C1231.59 647.195 1230.25 646.925 1224.72 647.288C1219.09 647.656 1215.86 646.98 1213.18 644.872C1209.59 642.052 1209.39 642.058 1207.53 645.028C1205.94 647.571 1206.03 647.947 1208.04 647.178C1209.37 646.667 1210.47 647 1210.47 647.922C1210.47 648.845 1210.91 650.763 1211.46 652.186C1212.17 654.049 1211.47 654.774 1208.95 654.774C1207.03 654.774 1205.03 653.669 1204.52 652.32C1203.14 648.73 1200.65 649.327 1200.65 653.248C1200.65 656.85 1197.65 656.713 1189.58 652.741C1186.8 651.377 1185.38 651.403 1183.94 652.843C1182.45 654.327 1183.08 654.774 1186.62 654.774C1190.56 654.774 1190.94 655.139 1189.19 657.247C1187.59 659.168 1186.62 659.292 1184.83 657.807C1183.08 656.358 1182.06 656.354 1180.63 657.787C1179.2 659.221 1179.29 659.68 1181.03 659.68C1182.92 659.68 1182.94 660.031 1181.15 661.725C1179.41 663.36 1178.83 663.36 1178.23 661.725C1177.15 658.776 1174.48 659.21 1174.48 662.334C1174.48 664.467 1174.02 664.602 1172.11 663.017C1170.8 661.933 1168.41 661.39 1166.79 661.808C1164.48 662.408 1164.64 662.613 1167.53 662.761C1169.55 662.866 1171.2 663.505 1171.19 664.178C1171.11 667.699 1167.61 669.851 1160.81 670.561C1154.67 671.201 1153.22 670.862 1153.22 668.787C1153.22 666.792 1151.36 666.222 1144.86 666.222H1136.5L1137.6 672.089C1138.61 677.481 1138.43 677.869 1135.33 676.886C1133.48 676.298 1131.96 676.541 1131.96 677.427C1131.96 678.314 1131.48 680.277 1130.9 681.788C1129.97 684.223 1130.25 684.287 1133.36 682.345C1136.2 680.569 1137.49 680.545 1140.17 682.221C1142.53 683.695 1144.38 683.808 1146.61 682.616C1148.33 681.695 1151.26 680.942 1153.11 680.942C1154.97 680.942 1156.49 680.084 1156.49 679.034C1156.49 677.986 1156.98 677.613 1157.57 678.206C1159.6 680.232 1152.82 685.941 1149.6 684.921C1147.91 684.383 1145.37 684.896 1143.97 686.062C1141.84 687.831 1141.05 687.671 1139.16 685.089C1137.92 683.389 1136.39 682.505 1135.78 683.123C1135.16 683.741 1136.07 685.389 1137.8 686.786C1138.27 687.16 1138.65 687.501 1138.95 687.808C1088.78 685.31 1040.46 683.016 993.228 680.996C980.341 680.557 967.252 680.066 955.458 679.431C786.376 672.669 628.874 669.758 446.852 674.086C512.479 673.693 578.05 672.388 644.343 672.878C647.689 672.905 648.113 674.096 651.618 674.157C658.626 674.284 665.331 673.018 671.43 673.02C679.376 673.025 680.776 673.985 688.139 673.995C691.732 674 690.672 673.077 698.475 673.318C699.128 673.34 699.547 674.297 704.733 674.237C718.943 674.055 748.012 673.727 759.805 673.731C774.851 673.719 786.872 675.435 792.561 675.663C807.912 676.283 807.636 674.806 820.634 675.149C913.2 677.637 1001.63 683.097 1096.27 687.647C1102.3 687.936 1124.16 687.363 1135.31 687.985C1136.09 688.029 1137.53 688.125 1139.34 688.249C1140.07 689.166 1139.91 689.76 1138.91 690.176C1135.63 691.542 1136.55 694.027 1140.34 694.027C1141.82 694.027 1142.6 694.133 1142.79 694.508C1135.36 694.202 1129.03 693.707 1120.64 692.038C1117.32 693.282 1104.28 693.466 1093.48 692.809C1079.93 691.978 1053.14 687.845 1049.25 690.711C1033.66 688.641 1035.5 689.557 1016.86 688.753C999.997 688.013 955.543 684.997 941.791 684.65C928.132 684.286 934.72 686.232 929.299 686.251C920.432 686.292 925.275 685.226 919.199 685.018C901.954 684.435 887.112 684.158 870.653 684.17C869.8 683.266 868.879 682.357 867.993 681.453C867.135 681.717 866.281 681.982 865.423 682.247C861.898 682.126 857.948 682.021 854.688 681.894C882.108 686.588 828.073 680.774 811.809 680.3C798.084 679.86 775.215 681.156 760.15 681.262C756.494 681.288 759.022 680.392 758.273 680.399C749.443 680.502 748.09 681.12 736.249 680.833C729.984 680.681 723.598 679.399 717.48 679.292C672.63 678.509 629.347 679.487 584.81 679.816C577.222 679.873 570.62 678.468 564.304 678.484C555.224 678.509 549.48 679.747 540.886 679.857C532.287 679.965 520.131 678.71 514.311 679.013C508.52 679.311 518.46 680.533 507.84 680.317C502.955 680.22 511.563 679.065 505.528 679.129C486.824 679.318 460.271 681.116 440.4 680.389C441.29 680.672 442.502 680.918 443.586 681.183C422.165 681.586 403.625 681.376 381.5 681.981C373.906 682.184 360.116 683.552 352.51 683.824C344.88 684.094 341.475 683.248 335.474 683.448C333.007 683.529 334.004 684.363 332.346 684.409C315.194 684.883 304.331 684.236 288.862 684.632C289.964 682.208 290.511 679.91 289.96 678.602C289.212 676.831 289.552 676.005 290.743 676.689C293.911 678.505 293.179 675.665 289.622 672.337C287.9 670.723 286.933 668.124 287.475 666.56C289.151 661.72 275.67 661.518 267.022 666.255C256.4 672.076 253.528 671.65 248.342 663.491C245.848 659.563 242.259 656.42 240.37 656.505C238.48 656.593 230.628 661.053 222.92 666.415C215.212 671.777 205.722 676.871 201.83 677.735C197.937 678.599 183.309 679.069 169.326 678.778C133.961 678.045 131.051 678.318 120.624 683.347C108.868 689.018 108.557 688.999 105.089 682.342C103.141 678.605 99.5573 676.132 94.1871 674.815C86.4414 672.917 81.4315 668.686 83.2261 665.558C83.7043 664.719 81.6878 662.263 78.7418 660.098C72.7894 655.726 71.4377 648.547 76.19 646.541C77.8851 645.826 79.3019 646.149 79.3384 647.256C79.3753 648.365 80.4562 649.238 81.7398 649.196C83.3546 649.143 83.244 648.179 81.3834 646.083C77.6316 641.855 72.7438 642.467 71.647 647.305C70.8052 651.025 70.208 650.865 64.4879 645.387C61.0548 642.099 58.2795 640.374 58.3179 641.549C58.3753 643.287 55.1585 643.47 48.2935 642.12C47.9224 642.047 49.041 640.468 50.7818 638.611C52.5203 636.752 53.908 634.183 53.8658 632.901C53.8236 631.621 52.5213 632.433 50.9713 634.705C47.7661 639.406 44.6469 637.623 44.4273 630.968C44.3144 627.548 43.163 626.63 39.6129 627.124C36.2559 627.593 34.9117 626.678 34.8189 623.867C34.7392 621.455 33.3299 620.116 31.1363 620.368C29.1834 620.59 27.1675 619.036 26.6558 616.914C26.0764 614.504 26.6038 613.553 28.0562 614.386C29.379 615.145 30.3353 614.259 30.272 612.337C30.1903 609.858 29.0149 609.357 25.8912 610.462C22.5724 611.637 18.9377 609.559 16.9234 606.028C11.8218 495.542 11.0146 391.891 14.734 246.302C15.1867 246.327 15.5883 246.283 15.9205 246.156C17.4747 245.559 18.1797 245.876 17.5543 246.887C15.8919 249.578 18.3707 249.026 21.3531 246.042C22.7991 244.597 25.0766 243.835 26.4146 244.348C30.5563 245.936 31.1155 234.274 27.2623 226.654C22.5272 217.294 22.9782 214.82 30.189 210.564C33.66 208.518 36.482 205.5 36.4625 203.863C36.4403 202.225 32.8054 195.301 28.3843 188.476C23.9631 181.651 19.8248 173.292 19.1881 169.898C18.5516 166.504 18.5625 153.83 19.2134 141.734C20.3996 119.671 20.6483 112.207 19.1744 106.32C19.4341 99.234 19.7022 92.0549 19.9771 84.7799C22.1905 83.0449 23.7795 80.409 24.7886 76.8102C26.6531 70.1602 30.4577 65.9442 33.1138 67.5866C33.8264 68.0242 36.0103 66.3491 37.9683 63.861C41.9227 58.834 48.1746 57.8692 49.7759 62.0397C50.3455 63.527 50.0259 64.7445 49.067 64.7448C48.1059 64.7448 47.3199 65.6556 47.3199 66.7682C47.3201 68.1669 48.1564 68.0987 50.024 66.5485C53.7908 63.4218 53.3997 59.1731 49.2437 58.0856C46.0485 57.2507 46.2034 56.7385 51.108 51.944C54.0524 49.0663 55.6245 46.7128 54.606 46.7126C53.1006 46.7122 53.0341 43.9224 54.399 38.0192C54.4741 37.7015 55.8076 38.7151 57.3648 40.2741C58.9245 41.8319 61.1085 43.106 62.2193 43.1061C63.328 43.106 62.6627 41.9558 60.7408 40.5495C58.2766 38.7477 57.9659 37.0469 59.4566 36.0124C85.1814 34.3846 110.302 32.8315 134.877 31.3542C131.011 30.3486 122.665 29.7523 117.081 29.6256C109.395 29.461 109.513 30.669 106.456 30.8571C98.5547 31.3432 88.8361 32.0007 79.5074 32.5749C78.922 32.5822 78.4277 32.6136 78.0367 32.6647C74.4238 32.8844 70.8875 33.0895 67.5582 33.2643C67.7168 32.6754 67.7306 31.9111 67.6275 30.9352C67.3174 28.0158 68.1465 26.8776 70.5826 26.8776C72.4959 26.8775 73.6617 25.8873 73.7261 24.2575C85.9449 23.3014 98.241 22.5471 110.841 22.0231C116.695 21.7805 116.194 22.7158 118.599 22.7155C122.977 22.7186 130.416 21.2943 131.484 21.2301C138.025 20.8241 135.561 22.5541 136.445 22.5622C146.263 22.6166 143.349 20.9882 152.629 20.2643C164.589 19.3298 180.324 18.7345 194.904 17.9948C200.011 17.7408 197.829 19.0662 208.789 18.3493C216.616 17.8352 240.783 15.1373 251.746 16.026C251.838 16.5744 250.488 17.2577 249.936 17.8581C265.691 14.7165 271.579 14.5032 293.892 13.944C297.494 13.8527 300.856 12.7372 307.173 12.778C313.475 12.8219 313.837 14.2608 326.382 13.6481C330.829 13.4288 333.44 12.2764 340.377 11.9127C359.952 10.8674 397.196 10.5766 413.116 10.0241C444.78 8.90461 461.865 6.57449 489.869 6.34732C492.039 6.32802 487.307 7.59508 491.285 7.50064C495.294 7.40532 499.415 5.79529 500.397 5.73208C510.982 5.0412 533.421 6.48671 539.33 6.1188C553.636 5.21171 539.517 4.85048 559.334 4.15982ZM1279.19 672.489C1279.17 672.907 1279.17 673.424 1279.17 674.065C1279.18 675.301 1279.19 676.424 1279.2 677.481C1278.96 677.603 1278.77 677.671 1278.64 677.672C1276.84 677.671 1277.36 673.252 1279.19 672.489ZM1126.14 669.494C1125.74 669.494 1125.42 670.23 1125.42 671.13C1125.42 672.029 1126.2 672.764 1127.15 672.764C1128.1 672.764 1128.43 672.029 1127.87 671.13C1127.31 670.23 1126.54 669.494 1126.14 669.494ZM1158.03 664.587C1157.18 664.587 1156.49 665.323 1156.49 666.222C1156.49 667.122 1157.64 667.858 1159.04 667.858C1160.44 667.858 1161.14 667.122 1160.58 666.222C1160.02 665.323 1158.88 664.587 1158.03 664.587ZM1164.67 664.587C1163.77 664.587 1163.03 665.323 1163.03 666.222C1163.03 667.122 1163.77 667.858 1164.67 667.858C1165.57 667.858 1166.31 667.122 1166.31 666.222C1166.31 665.323 1165.57 664.587 1164.67 664.587ZM1135.95 661.316C1135.55 661.316 1135.23 662.052 1135.23 662.952C1135.23 663.851 1136.01 664.586 1136.96 664.587C1137.91 664.586 1138.24 663.851 1137.68 662.952C1137.13 662.053 1136.35 661.317 1135.95 661.316ZM1143.53 656.723C1142.56 656.401 1141.77 658.038 1141.77 660.362C1141.77 662.684 1142.51 664.587 1143.41 664.587C1144.31 664.586 1145.04 663.482 1145.04 662.133C1145.04 660.784 1145.1 659.148 1145.17 658.495C1145.23 657.842 1144.5 657.046 1143.53 656.723ZM1157.72 656.72C1155.71 656.335 1154.86 657.217 1154.86 659.68C1154.86 662.143 1155.71 663.026 1157.72 662.64C1159.29 662.336 1160.58 661.005 1160.58 659.68C1160.58 658.356 1159.29 657.025 1157.72 656.72ZM83.7388 654.338C82.571 653.668 81.6634 654.582 81.7222 656.365C81.7811 658.148 82.7662 659.578 83.9107 659.541C85.0552 659.503 85.9628 658.591 85.9273 657.513C85.8918 656.435 84.9067 655.007 83.7388 654.338ZM1257.9 644.844C1257.9 642.196 1254.57 643.206 1253.47 646.187C1252.88 647.76 1251.62 649.657 1250.66 650.4C1249.44 651.337 1249.54 652.01 1250.97 652.59C1252.11 653.053 1254.09 654.468 1255.35 655.737C1258.32 658.7 1259.53 658.658 1259.53 655.591C1259.53 654.229 1258.08 653.138 1256.26 653.138C1252.35 653.138 1252.16 652.102 1255.44 648.815C1256.79 647.466 1257.9 645.679 1257.9 644.844ZM1179.08 654.896C1179.76 652.849 1178.23 652.813 1173.67 654.774C1170.87 655.976 1170.81 656.196 1173.26 656.295C1174.83 656.357 1176.65 656.465 1177.3 656.532C1177.96 656.599 1178.75 655.863 1179.08 654.896ZM1246.45 650.685C1245.55 650.129 1244.81 650.823 1244.81 652.224C1244.81 653.625 1245.55 654.774 1246.45 654.774C1247.35 654.774 1248.08 654.082 1248.08 653.235C1248.08 652.388 1247.35 651.241 1246.45 650.685ZM1167.12 648.231C1165.62 648.231 1164.66 649.023 1164.98 649.99C1165.31 650.956 1166.27 651.748 1167.12 651.748C1167.98 651.747 1168.94 650.956 1169.26 649.99C1169.58 649.023 1168.62 648.231 1167.12 648.231ZM1131.96 645.778C1131.96 643.25 1130.03 642.528 1128.19 644.37C1126.88 645.677 1128.36 648.231 1130.42 648.231C1131.27 648.231 1131.96 647.127 1131.96 645.778ZM1243.18 646.854C1240.93 646.854 1240.01 647.225 1241.13 647.678C1242.26 648.133 1244.1 648.133 1245.22 647.678C1246.35 647.225 1245.42 646.854 1243.18 646.854ZM1193.43 643.325C1192 643.325 1190.84 644.489 1190.84 645.914C1190.84 647.338 1191.71 648.214 1192.78 647.857C1195.81 646.846 1196.32 643.325 1193.43 643.325ZM1176.12 643.325C1175.22 643.325 1174.48 644.105 1174.48 645.057C1174.48 646.009 1175.22 646.334 1176.12 645.778C1177.02 645.222 1177.75 644.444 1177.75 644.047C1177.75 643.649 1177.02 643.325 1176.12 643.325ZM1266.07 642.507C1266.07 639.953 1264.14 639.263 1262.26 641.145C1260.38 643.026 1261.07 644.961 1263.62 644.961C1264.97 644.96 1266.07 643.856 1266.07 642.507ZM1226.14 640.053C1224.71 640.054 1223.55 641.219 1223.55 642.643C1223.55 644.067 1224.42 644.942 1225.49 644.586C1228.52 643.575 1229.03 640.053 1226.14 640.053ZM1243.82 636.783C1242.26 636.783 1241.54 637.699 1242.06 639.037C1242.53 640.276 1242.14 642.076 1241.18 643.034C1239.94 644.268 1240.46 644.509 1242.94 643.86C1247.04 642.788 1247.78 636.783 1243.82 636.783ZM1215.37 640.053C1214.47 640.053 1213.74 640.79 1213.74 641.689C1213.74 642.589 1214.47 643.325 1215.37 643.325C1216.27 643.325 1217.01 642.588 1217.01 641.689C1217.01 640.79 1216.27 640.053 1215.37 640.053ZM1217.01 630.175C1217.01 627.079 1213.89 628.695 1210.4 633.606C1208.44 636.355 1207.14 638.906 1207.5 639.272C1208.46 640.227 1217.01 632.049 1217.01 630.175ZM1258.19 633.511C1257.24 633.511 1255.97 634.297 1255.38 635.256C1253.62 638.104 1255.62 638.708 1257.86 636.005C1259.15 634.451 1259.28 633.511 1258.19 633.511ZM1233.36 633.511C1232.46 633.511 1231.73 634.248 1231.73 635.147C1231.73 636.047 1232.46 636.783 1233.36 636.783C1234.26 636.783 1235 636.046 1235 635.147C1235 634.248 1234.26 633.512 1233.36 633.511ZM1205.56 630.241C1204.66 630.241 1203.92 630.976 1203.92 631.876C1203.92 632.775 1204.66 633.511 1205.56 633.511C1206.46 633.511 1207.19 632.775 1207.19 631.876C1207.19 630.976 1206.46 630.241 1205.56 630.241ZM42.0035 610.404C41.3798 608.991 40.9462 610.178 41.0406 613.04C41.135 615.901 41.6461 617.055 42.1754 615.606C42.7066 614.155 42.629 611.815 42.0035 610.404ZM59.1656 604.108C58.0212 604.146 57.1161 605.114 57.1539 606.258C57.1919 607.403 58.1589 608.308 59.3033 608.27C60.4478 608.232 61.3537 607.265 61.316 606.121C61.2782 604.976 60.3101 604.07 59.1656 604.108ZM52.8502 602.111C52.8102 600.9 51.8601 600.516 50.7388 601.261C49.6176 602.007 48.7143 603.028 48.731 603.534C48.7478 604.039 49.6979 604.42 50.8424 604.382C51.9866 604.344 52.8899 603.322 52.8502 602.111ZM8.81989 592.25C8.99136 592.738 9.26776 593.415 9.63532 594.285C12.3084 600.613 12.3342 601.02 10.1353 601.872C9.8581 601.979 9.57166 601.955 9.28962 601.821C9.28545 601.733 9.28207 601.646 9.2779 601.558C9.12588 598.421 8.9706 595.32 8.81989 592.25ZM7.51325 243.099C8.77154 243.992 10.149 244.792 11.4527 245.371C10.5306 313.285 8.46737 381.614 9.29548 455.111C9.74794 495.013 11.3414 535.761 13.6343 576.83C13.2867 576.6 12.8683 576.47 12.4224 576.485C11.278 576.523 10.373 577.49 10.4107 578.634C10.4486 579.779 11.4156 580.685 12.5601 580.647C13.0403 580.631 13.4768 580.449 13.8209 580.162C14.1716 586.345 14.5391 592.535 14.9195 598.73C14.2637 596.918 12.975 594.883 11.5396 593.552C9.97258 592.099 9.09991 591.324 8.77204 591.283C6.85093 552.186 5.06922 518.068 4.02497 478.736C3.94256 475.662 5.31647 477.73 5.25739 472.404C4.95214 434.801 3.57876 426.725 4.12849 379.989C4.48565 346.419 5.97301 291.612 7.51325 243.099ZM33.8463 594.404C33.8061 593.193 32.856 592.81 31.7349 593.555C30.6139 594.301 29.7104 595.322 29.7271 595.828C29.744 596.333 30.694 596.714 31.8384 596.676C32.9829 596.639 33.8862 595.615 33.8463 594.404ZM1274.36 290.874C1274.54 354.754 1274.32 418.583 1273.77 490.614C1273.77 491.066 1273.78 491.52 1273.78 491.973C1274.64 461.583 1275.4 431.319 1276.17 401.104C1274.8 383.924 1276.12 392.531 1276.6 381.215C1276.97 372.262 1274.55 370.156 1274.84 358.385V358.415C1274.99 352.381 1276.68 339.254 1275.97 326.375C1275.95 325.918 1274.69 324.761 1274.63 315.129C1274.6 308.039 1274.49 299.717 1274.36 290.874ZM1273.2 138.034C1273.6 170.444 1273.89 201.426 1274.09 231.838C1274.48 228.793 1275.26 228.025 1275.33 221.661C1275.41 215.515 1274.13 208.294 1274.32 198.67C1274.56 186.489 1276.61 180.729 1273.6 172.371C1274.64 171.67 1275.66 172.009 1276.67 171.176C1275.1 163.407 1274 151.636 1273.2 138.034ZM1270.66 140.244C1270.09 139.194 1268.48 138.538 1267.08 138.782C1265.68 139.026 1265.35 140.732 1266.34 142.573C1267.33 144.414 1268.94 145.07 1269.91 144.035C1270.89 142.999 1271.22 141.294 1270.66 140.244ZM1257.37 133.153C1256.09 132.417 1254.65 132.029 1254.16 132.292C1253.67 132.555 1253.76 133.674 1254.36 134.778C1254.95 135.882 1256.4 136.269 1257.57 135.639C1258.74 135.009 1258.65 133.889 1257.37 133.153ZM1269.79 124.576C1269.44 123.73 1268.01 123.241 1266.61 123.485C1263.64 124.002 1264.61 125.907 1270.04 130.209C1273.37 132.846 1273.68 132.771 1272.18 129.703C1271.21 127.73 1270.14 125.422 1269.79 124.576ZM1248.89 111.319C1245.64 108.265 1240.98 109.981 1242.9 113.527C1243.84 115.276 1246.04 115.934 1247.79 114.991C1249.54 114.048 1250.03 112.396 1248.89 111.319ZM1222.81 105.132C1222.22 104.027 1220.83 103.611 1219.72 104.207C1218.62 104.803 1218.2 106.193 1218.8 107.298C1219.39 108.402 1220.78 108.818 1221.89 108.222C1222.99 107.627 1223.41 106.236 1222.81 105.132ZM1228.6 98.9294C1229.14 97.12 1213.43 92.0448 1211.14 93.2848C1207.34 95.335 1211.38 98.0859 1219.73 99.1266C1224.4 99.7095 1228.39 99.6214 1228.6 98.9294ZM1228.36 86.5846C1227.77 85.4802 1226.38 85.0642 1225.27 85.6598C1224.17 86.2556 1223.75 87.6464 1224.35 88.7506C1224.94 89.8549 1226.33 90.2711 1227.44 89.6754C1228.54 89.0797 1228.96 87.6889 1228.36 86.5846ZM1223.21 73.3239C1219.96 70.2703 1215.3 71.9857 1217.22 75.5319C1218.16 77.2806 1220.36 77.939 1222.11 76.9958C1223.86 76.0525 1224.36 74.401 1223.21 73.3239ZM1208.42 68.8278C1207.82 67.7237 1206.43 67.3076 1205.33 67.903C1204.22 68.4987 1203.81 69.8904 1204.4 70.9948C1205 72.0986 1206.39 72.5151 1207.49 71.9196C1208.6 71.3239 1209.01 69.9322 1208.42 68.8278ZM41.1148 66.5485C39.5695 66.5485 38.3033 67.3595 38.3033 68.3512C38.3034 69.3429 39.0666 70.1549 40.0006 70.1549C40.9345 70.1548 42.198 69.3427 42.8111 68.3512C43.4242 67.3595 42.6599 66.5486 41.1148 66.5485ZM1210.76 52.3825C1206.73 48.0597 1198.87 51.1213 1201.49 55.9909C1202.53 57.906 1204.13 58.179 1205.43 56.6628C1206.64 55.2575 1209.11 54.5524 1210.92 55.0944C1213.25 55.7925 1213.21 55.0002 1210.76 52.3825ZM1213.94 47.0544C1212.64 45.973 1212.8 47.3492 1214.28 50.11C1215.77 52.8705 1216.84 53.7535 1216.65 52.0749C1216.46 50.3923 1215.25 48.1329 1213.94 47.0544ZM85.1871 46.7126C84.1953 46.7126 83.3834 47.5245 83.3834 48.5163C83.3836 49.5078 84.1955 50.319 85.1871 50.319C86.1784 50.3187 86.9896 49.5076 86.9898 48.5163C86.9898 47.5247 86.1786 46.7129 85.1871 46.7126ZM1221.84 40.8503C1221.25 39.7458 1219.91 39.3 1218.87 39.861C1217.83 40.4221 1216.91 42.0848 1216.82 43.5573C1216.73 45.0297 1218.07 45.4747 1219.79 44.5465C1221.52 43.6184 1222.44 41.9546 1221.84 40.8503ZM87.7847 39.4997C87.3468 39.5002 86.9898 40.3119 86.9898 41.3034C86.99 42.2949 87.8498 43.1059 88.899 43.1061C89.9482 43.106 90.3076 42.2949 89.6949 41.3034C89.0819 40.3118 88.223 39.4999 87.7847 39.4997ZM1191.24 39.2633C1188.48 38.7079 1187.24 39.1771 1187.96 40.5104C1188.59 41.6828 1190.4 42.721 1191.97 42.8122C1196.63 43.087 1196.04 40.2282 1191.24 39.2633ZM94.9976 23.2711C94.5596 23.2715 94.2027 24.0833 94.2027 25.0749C94.2031 26.0662 95.0628 26.8774 96.1119 26.8776C97.161 26.8775 97.5203 26.0663 96.9078 25.0749C96.2948 24.0832 95.4359 23.2714 94.9976 23.2711ZM730.068 11.2155C728.365 11.0755 705.556 7.69552 712.308 11.2145C715.895 11.4071 719.515 11.5702 723.164 11.7145C749.865 11.8839 776.563 12.2341 803.407 12.7711C792.198 10.6249 775.63 11.3653 756.126 11.3502C756.116 11.3501 756.106 11.3494 756.096 11.3493C755.028 11.3482 759.505 10.5006 753.429 10.5924C750.482 10.6366 739.184 11.8961 730.068 11.2155Z" fill="#E9DFD4"/>
</g>
<defs>
<filter id="filter0_g_13_11067" x="0" y="0" width="1285.54" height="698.509" filterUnits="userSpaceOnUse" color-interpolation-filters="sRGB">
<feFlood flood-opacity="0" result="BackgroundImageFix"/>
<feBlend mode="normal" in="SourceGraphic" in2="BackgroundImageFix" result="shape"/>
<feTurbulence type="fractalNoise" baseFrequency="0.060240961611270905 0.048543687909841537" numOctaves="3" seed="9607" />
<feDisplacementMap in="shape" scale="8" xChannelSelector="R" yChannelSelector="G" result="displacedImage" width="100%" height="100%" />
<feMerge result="effect1_texture_13_11067">
<feMergeNode in="displacedImage"/>
</feMerge>
</filter>
</defs>
</svg>
