<svg width="477" height="916" viewBox="0 0 477 916" fill="none" xmlns="http://www.w3.org/2000/svg">
<path d="M247.829 142.595C247.657 140.992 255.795 137.355 265.91 134.512C283.977 129.432 294.678 131.592 288.633 139.098C284.977 143.638 248.278 146.787 247.829 142.595Z" fill="#EB367B"/>
<path d="M254.362 124.833C252.181 123.076 251.834 119.855 253.59 117.674C255.347 115.493 258.568 115.146 260.749 116.902C262.93 118.659 263.277 121.88 261.521 124.061C259.764 126.242 256.543 126.589 254.362 124.833Z" fill="#EB367B"/>
<path d="M315.384 187.051C313.203 185.295 312.856 182.073 314.612 179.893C316.369 177.712 319.59 177.364 321.771 179.121C323.952 180.877 324.299 184.099 322.543 186.279C320.786 188.46 317.565 188.808 315.384 187.051Z" fill="#EB367B"/>
<path d="M376.303 233.001C365.584 235.174 361.905 229.799 371.731 226.332C375.041 225.16 379.651 225.735 381.967 227.6C384.6 229.72 382.465 231.754 376.303 233.001Z" fill="#EB367B"/>
<path d="M322.125 217.465C326.32 217.012 330.792 213.423 332.059 209.488C333.426 205.242 336.951 204.42 340.734 207.467C350.349 215.211 336.815 228.315 324.787 222.91C317.5 219.636 316.72 218.047 322.125 217.465Z" fill="#EB367B"/>
<path d="M258.993 167.785C256.812 166.028 256.465 162.807 258.221 160.626C259.978 158.445 263.199 158.098 265.38 159.854C267.561 161.611 267.908 164.832 266.152 167.013C264.395 169.194 261.174 169.541 258.993 167.785Z" fill="#EB367B"/>
<path d="M281.068 190.603C277.778 189.378 277.369 185.552 280.151 182.098C282.932 178.644 288.029 178.095 291.483 180.876C298.485 186.516 290.393 194.073 281.068 190.603Z" fill="#EB367B"/>
<path d="M372.773 265.955C366.58 260.967 368.684 254.929 376.921 254.044C385.156 253.153 388.499 258.604 383.511 264.798C380.877 268.069 376.045 268.59 372.773 265.955Z" fill="#EB367B"/>
<path d="M233.685 162.804C227.323 160.753 227.844 159.669 236.66 156.603C246.955 153.024 247.465 153.414 250.655 167.254C253.034 177.596 259.554 185.546 273.925 195.649C288.04 205.566 290.748 208.826 283.168 206.761C272.918 203.977 272.827 204.179 281.139 211.31C286.617 216.01 287.882 221.435 284.561 225.964C281.411 230.258 281.697 231.809 285.276 229.809C291.298 226.447 312.217 239.686 308.391 244.436C307.267 245.832 301.391 246.741 295.335 246.46C289.275 246.175 284.594 248.53 284.938 251.69C285.275 254.851 288.284 256.595 291.61 255.566C294.942 254.537 301.694 257.013 306.614 261.067C312.912 266.257 313.907 272.229 309.976 281.242C305.436 291.653 306.346 294.654 314.847 297.297C323.707 300.053 324.276 299.655 318.588 294.682C314.894 291.459 313.309 287.031 315.065 284.85C316.822 282.669 321.403 283.378 325.243 286.418C329.08 289.462 336.782 293.966 342.356 296.428C348.434 299.108 352.997 305.626 353.76 312.706C355.442 328.304 351.13 332.911 342.461 324.779C338.348 320.924 337.958 316.701 341.53 314.629C344.886 312.677 344.959 308.925 341.688 306.291C332.834 299.16 321.102 308.199 325.718 318.597C327.907 323.524 332.653 328.581 336.26 329.833C339.864 331.088 343.655 336.259 344.684 341.337C347.435 354.894 358.492 354.745 361.066 341.11C362.206 335.059 364.701 331.362 366.608 332.898C372.275 337.461 363.449 365.555 357.089 363.192C351.2 360.999 340.873 371.005 345.33 374.594C346.825 375.798 355.29 376.229 364.142 375.553C372.988 374.878 380.484 376.659 380.792 379.516C381.099 382.372 377.592 384.235 372.997 383.658C365.953 382.777 364.67 384.306 364.805 393.416C364.891 399.356 363.762 402.349 362.295 400.063C360.829 397.785 357.692 397.297 355.321 398.983C352.95 400.669 355.202 406.379 360.327 411.67C366.672 418.224 367.498 422.531 362.915 425.194C359.017 427.461 358.584 431.028 361.891 433.691C365.368 436.491 364.788 439.907 360.396 442.463C355.523 445.291 352.708 444.2 351.67 439.076C350.714 434.378 346.809 431.128 341.357 430.503C335.396 429.82 334.157 430.797 337.489 433.552C340.191 435.781 340.027 440.839 337.122 444.794C333.971 449.088 334.258 450.64 337.837 448.639C346.823 443.625 355.078 452.686 348.166 459.978C344.756 463.572 344.983 469.749 348.689 474.231C356.506 483.697 356.741 500.346 349.19 510.078C346.186 513.954 345.62 518.643 347.928 520.501C350.235 522.36 349.315 524.874 345.879 526.088C341.414 527.663 339.892 526.234 340.535 521.085C341.209 515.718 339.778 514.461 334.943 516.17C331.372 517.431 328.507 522.53 328.58 527.505C328.671 533.422 326.648 536.291 322.747 535.803C319.466 535.396 315.485 538.335 313.903 542.336C312.321 546.338 309.671 553.061 308.018 557.28C305.525 563.64 307.206 565.366 317.85 567.394C329.495 569.615 329.687 570.051 319.932 572.058C314.016 573.276 305.605 571.398 301.243 567.885C294.304 562.297 293.327 562.876 293.414 572.517C293.498 582.331 292.734 582.5 286.439 574.051C281.495 567.422 277.961 566.314 274.688 570.379C272.114 573.575 272.682 576.523 275.948 576.931C279.215 577.339 279.747 580.33 277.132 583.578C274.514 586.829 267.897 586.822 262.433 583.566C256.966 580.313 251.675 579.935 250.684 582.732C248.753 588.165 249.55 588.768 265.541 593.912C275.271 597.042 275.165 597.336 263.856 598.609C257.22 599.358 248.497 597.405 244.466 594.277C232.081 584.655 214.109 586.687 209.627 598.217C206.69 605.769 203.888 607.146 199.165 603.343C195.501 600.392 195.385 597.207 198.902 595.966C202.763 594.605 201.843 592.112 196.453 589.34C191.704 586.901 185.607 588.156 182.904 592.13C179.869 596.595 175.141 597.069 170.545 593.368C165.188 589.053 161.349 590.086 156.861 597.055C152.111 604.422 148.573 605.089 142.054 599.839C129.374 589.627 121.094 592.562 124.69 606.002C126.426 612.499 125.852 616.208 123.414 614.244C120.971 612.277 118.427 605.606 117.756 599.418C117.093 593.229 115.953 588.637 115.225 589.208C101.768 599.773 96.9748 606.025 100.286 608.692C102.526 610.496 94.9013 612.886 83.3294 614C64.0527 615.857 62.8046 616.708 68.3524 624.203C75.5666 633.955 68.9033 643.99 55.0826 644.195C48.2283 644.296 46.2671 642.965 48.7452 639.888C50.7155 637.442 54.057 636.831 56.1704 638.534C58.2799 640.232 61.1376 638.121 62.5191 633.841C66.3844 621.834 50.9282 612.883 33.3293 616.935C24.6161 618.939 16.8479 618.756 16.0577 616.531C13.1261 608.215 -2.70698 610.747 -18.5843 622.069C-29.5929 629.918 -39.8938 632.611 -49.9277 630.257C-67.7932 626.06 -68.3246 626.606 -76.5766 657.437C-83.8973 684.782 -88.0342 690.609 -145.823 754.962C-168.676 780.408 -191.146 808.261 -195.756 816.851C-200.367 825.44 -206.071 851.152 -208.436 873.991C-210.8 896.829 -215.069 918.493 -217.921 922.132C-220.777 925.768 -232.325 927.404 -243.583 925.757C-266.976 922.344 -272.348 926.987 -278.512 955.956C-283.534 979.537 -305.419 1004.19 -311.713 993.365C-313.746 989.866 -320.104 987.51 -325.842 988.125C-337.686 989.405 -344.115 986.228 -335.695 983.256C-332.527 982.14 -333.516 980.193 -337.991 978.753C-347.53 975.679 -357.759 942.463 -350.992 936.512C-348.337 934.173 -339.164 927.604 -330.606 921.912C-322.048 916.221 -306.392 902.838 -295.817 892.174C-277.551 873.762 -276.742 871.622 -279.776 849.528C-283.823 819.991 -281.563 809.92 -263.366 776.514C-251.745 755.176 -241.509 743.18 -215.508 720.44C-185.612 694.293 -181.357 688.921 -171.252 664.563C-163.05 644.785 -152.95 630.118 -133.325 609.459C-114.123 589.244 -105.089 576.249 -101.279 563.361C-98.3636 553.491 -89.6903 535.034 -82.0094 522.347C-74.3286 509.66 -69.8751 497.8 -72.1154 495.996C-74.6849 493.926 -72.8682 492.036 -67.227 490.892C-60.2818 489.484 -59.2511 487.359 -62.6606 481.495C-69.3206 470.033 -72.6544 468.394 -86.3701 469.807C-98.0727 471.018 -98.3888 470.777 -90.8939 466.373C-79.2677 459.551 -84.8257 449.577 -98.3697 452.953C-108.349 455.441 -109.172 454.954 -104.713 449.197C-99.3861 442.315 -103.5 431.465 -114.898 422.364C-119.519 418.669 -119.975 421.923 -116.404 433.081C-113.582 441.891 -113.45 449.332 -116.106 449.618C-118.761 449.905 -118.852 451.819 -116.311 453.866C-113.765 455.916 -113.12 459.377 -114.877 461.558C-116.633 463.739 -120.746 463.367 -124.018 460.733C-127.289 458.098 -128.442 454.051 -126.584 451.744C-124.725 449.436 -125.874 447.21 -129.141 446.802C-132.407 446.393 -132.838 443.275 -130.101 439.877C-127.364 436.479 -126.907 432.258 -129.088 430.502C-131.268 428.745 -134.739 429.402 -136.802 431.963C-138.865 434.525 -141.643 429.752 -142.968 421.356C-144.293 412.961 -147.21 401.055 -149.441 394.897C-152.052 387.709 -151.722 386.334 -148.526 391.058C-143.581 398.375 -130.498 395.053 -131.393 386.716C-131.656 384.315 -139.15 378.443 -148.051 373.667C-163.497 365.378 -163.66 364.914 -151.648 363.619C-141.733 362.55 -136.458 365.432 -126.792 377.197C-120.048 385.414 -113.181 392.82 -111.536 393.667C-109.884 394.514 -112.278 397.973 -116.852 401.356C-126.748 408.676 -120.468 415.878 -109.666 409.601C-99.7641 403.848 -99.1337 395.792 -108.028 388.629C-111.993 385.436 -115.305 378.291 -115.384 372.748C-115.475 366.707 -119.406 361.175 -125.215 358.915C-133.65 355.639 -133.509 354.563 -124.112 350.573C-118.181 348.055 -112.515 344.988 -111.522 343.755C-108.07 339.469 -120.983 332.482 -126.177 335.823C-129.503 337.956 -134.56 335.007 -140.072 327.711C-144.837 321.403 -146.506 315.457 -143.786 314.497C-141.061 313.533 -136.017 316.556 -132.579 321.208C-129.138 325.855 -124.812 327.79 -122.97 325.502C-118.604 320.081 -129.424 303.857 -138.137 302.768C-142.282 302.248 -142.447 300.383 -138.564 297.94C-134.443 295.356 -128.08 298.056 -120.354 305.67C-112.136 313.779 -108.223 315.283 -107.634 310.567C-107.165 306.826 -109.858 302.768 -113.613 301.562C-122.015 298.854 -118.613 285.984 -109.221 284.971C-104.897 284.505 -107.32 281.338 -115.842 276.318C-124.286 271.348 -127.889 266.674 -125.536 263.752C-123.479 261.199 -120.906 261.624 -119.817 264.704C-118.728 267.784 -113.236 271.004 -107.603 271.86C-99.3834 273.106 -98.4406 272.349 -102.835 268.032C-105.844 265.073 -109.733 261.817 -111.48 260.796C-113.223 259.77 -111.467 257.086 -107.582 254.828C-102.539 251.902 -102.913 249.947 -108.877 248.026C-119.812 244.502 -113.254 236.481 -101.12 238.533C-94.7128 239.62 -92.4609 238.106 -93.9988 233.749C-95.2341 230.251 -97.8362 229.358 -99.7778 231.769C-105.698 239.12 -111.826 206.671 -105.947 199.096C-100.158 191.639 -92.5595 194.372 -93.7008 203.5C-94.0739 206.488 -97.1102 207.913 -100.452 206.673C-105.19 204.909 -105.995 205.909 -104.114 211.228C-102.687 215.267 -98.5063 216.189 -93.8587 213.486C-89.545 210.979 -87.1578 205.684 -88.5547 201.729C-90.0973 197.362 -86.4753 190.251 -79.351 183.653C-69.8628 174.867 -68.9999 171.653 -74.8486 166.942C-84.833 158.901 -78.7296 153.077 -66.2175 158.701C-58.6947 162.08 -54.8052 160.675 -51.5398 153.415C-48.2841 146.166 -45.2144 145.049 -40.0279 149.226C-36.1381 152.359 -28.5782 154.035 -23.2275 152.951C-15.1023 151.304 -14.8842 149.865 -21.9185 144.199C-31.0901 136.813 -28.472 128.992 -17.8592 132.08C-13.1565 133.449 -12.0177 130.444 -13.9237 121.699C-15.3997 114.927 -14.3933 109.149 -11.6873 108.857C-8.98138 108.565 -7.01752 113.683 -7.32191 120.23C-7.78844 130.176 -6.18216 132.111 2.44374 131.984C8.1228 131.897 15.2639 135.596 18.3133 140.202C24.1282 148.964 51.7167 148.369 50.7604 139.499C50.4763 136.897 48.5705 136.853 46.5235 139.395C44.4734 141.94 39.109 141.052 34.6045 137.424C30.1001 133.797 21.5336 129.905 15.5683 128.781C7.83966 127.322 3.57949 123.44 0.738913 115.262C-2.49477 105.958 -5.66367 103.504 -16.0312 102.253C-27.3517 100.896 -27.9092 100.192 -20.89 96.1111C-16.5317 93.5809 -11.5496 89.7488 -9.81878 87.5996C-8.08795 85.4505 -3.93236 87.8232 -0.585441 92.872C5.00544 101.303 6.2106 100.725 14.2848 85.6747L23.0706 69.302L43.341 85.6269C59.1027 98.3206 62.4957 103.328 58.5998 108.166C54.5474 113.198 57.4036 116.851 73.5297 127.282C91.4189 138.852 104.107 140.468 111.157 132.071C112.504 130.463 109.761 125.704 105.06 121.5C98.344 115.497 98.3585 114.691 105.129 117.745C109.868 119.888 114.605 125.873 115.656 131.054C117.193 138.626 118.581 139.208 122.749 134.033C128.848 126.46 136.158 130.614 133.025 139.877C131.283 145.011 132.699 146.152 140.095 145.572C147.757 144.97 148.389 144.08 143.789 140.375C139.586 136.99 140.25 135.688 146.528 135.011C152.799 134.335 155.26 136.336 156.665 143.26C158.108 150.357 160.709 151.956 168.328 150.41C176.687 148.716 176.479 147.091 166.939 139.407C158.342 132.484 157.703 130.185 164.196 129.485C170.503 128.805 174.011 131.526 178.077 140.252C189.893 165.646 196.897 171.836 203.932 163.101C211.586 153.596 218.775 157 215.108 168.396C213.727 172.676 216.413 179.252 221.08 183.01C227.182 187.925 230.298 187.538 232.203 181.627C233.656 177.11 236.32 171.587 238.121 169.351C239.922 167.114 237.924 164.172 233.685 162.804Z" fill="#EB367B"/>
<path d="M416.005 297.503C412.738 297.095 411.589 294.869 413.448 292.561C415.307 290.254 418.614 289.799 420.795 291.556C422.976 293.312 424.128 295.534 423.352 296.498C422.576 297.461 419.271 297.912 416.005 297.503Z" fill="#EB367B"/>
<path d="M43.4553 13.8114C38.4551 9.78456 39.8627 0.707278 45.5824 0.0905986C53.643 -0.77846 56.9138 4.73852 51.9768 10.8687C49.3423 14.14 45.5093 15.4656 43.4553 13.8114Z" fill="#EB367B"/>
<path d="M159.038 97.0907C155.771 96.6825 154.622 94.4564 156.481 92.1486C158.339 89.8409 161.647 89.3865 163.828 91.1429C166.009 92.8993 167.161 95.1214 166.385 96.0849C165.609 97.0485 162.304 97.4989 159.038 97.0907Z" fill="#EB367B"/>
<path d="M195.376 134.665C192.087 133.441 191.678 129.614 194.46 126.16C197.241 122.707 202.338 122.157 205.792 124.939C212.794 130.578 204.701 138.135 195.376 134.665Z" fill="#EB367B"/>
<path d="M330.72 253.829C334.509 253.913 341.279 251.782 345.762 249.105C354.248 244.022 364.292 248.077 359.122 254.497C357.493 256.519 351.326 258.698 345.42 259.334C331.032 260.886 329.486 263.779 338.963 271.411C343.368 274.959 344.763 280.443 342.103 283.746C336.116 291.18 333.091 288.914 331.692 275.943C331.097 270.391 329.077 263.11 327.217 259.762C324.866 255.547 325.94 253.726 330.72 253.829Z" fill="#EB367B"/>
<path d="M322.857 236.62C319.245 235.528 314.785 231.936 312.944 228.636C311.105 225.344 314.058 226.239 319.51 230.629C324.962 235.02 326.47 237.718 322.857 236.62Z" fill="#EB367B"/>
<path d="M418.94 322.747C417.976 321.971 417.526 318.667 417.934 315.4C418.343 312.133 420.569 310.985 422.877 312.843C425.184 314.702 425.639 318.009 423.882 320.19C422.126 322.371 419.904 323.523 418.94 322.747Z" fill="#EB367B"/>
<path d="M125.573 94C123.499 92.3299 122.713 88.533 123.82 85.5605C124.926 82.5879 128.803 82.5464 132.439 85.4748C136.075 88.4031 136.861 92.2 134.192 93.9143C131.524 95.6287 127.647 95.6702 125.573 94Z" fill="#EB367B"/>
<path d="M311.978 256.216C309.797 254.459 310.255 250.239 312.992 246.841C315.728 243.442 318.867 243.198 319.962 246.303C321.057 249.407 320.603 253.624 318.948 255.678C317.294 257.732 314.159 257.972 311.978 256.216Z" fill="#EB367B"/>
<path d="M131.565 116.999C125.825 111.983 126.398 111.563 135.526 114.109C150.414 118.261 154.059 121.341 148.403 124.97C145.735 126.685 142.367 126.914 140.916 125.477C139.465 124.04 135.258 120.221 131.565 116.999Z" fill="#EB367B"/>
<path d="M43.0092 78.8226C40.8283 77.0662 42.7579 71.0176 47.2925 65.387C51.8304 59.7524 56.9464 57.3291 58.6607 59.9976C60.3751 62.666 60.6042 66.0341 59.1675 67.4853C57.7308 68.9365 54.3991 72.7968 51.7645 76.0682C49.1299 79.3395 45.19 80.5789 43.0092 78.8226Z" fill="#EB367B"/>
<path d="M81.505 102.046C75.882 99.0606 75.5366 95.2524 80.3459 89.2808C85.1552 83.3091 88.9494 82.8349 93.0651 87.6922C96.2857 91.5018 96.8108 97.2458 94.2241 100.458C91.6375 103.669 85.9135 104.381 81.505 102.046Z" fill="#EB367B"/>
<path d="M384.545 338.596C380.933 337.505 376.472 333.912 374.632 330.613C372.792 327.321 375.746 328.215 381.198 332.606C386.65 336.997 388.157 339.695 384.545 338.596Z" fill="#EB367B"/>
<path d="M465.305 418.92C459.174 413.983 461.194 407.896 469.255 407.027C474.975 406.41 478.284 414.979 474.257 419.979C472.603 422.033 468.576 421.555 465.305 418.92Z" fill="#EB367B"/>
<path d="M27.3821 66.2372C25.0743 64.3787 24.6201 61.0712 26.3765 58.8903C28.1329 56.7095 30.3552 55.5575 31.3187 56.3335C32.2823 57.1095 32.7325 60.4138 32.3243 63.6804C31.9161 66.9471 29.6898 68.0958 27.3821 66.2372Z" fill="#EB367B"/>
<path d="M74.5257 117.279C71.1275 114.542 69.7811 110.516 71.5375 108.335C73.2939 106.154 76.4083 105.721 78.4623 107.375C80.5163 109.029 81.8587 113.052 81.4505 116.319C81.0423 119.585 77.9239 120.015 74.5257 117.279Z" fill="#EB367B"/>
<path d="M88.1702 128.267C85.9893 126.511 85.642 123.29 87.3983 121.109C89.1547 118.928 92.3761 118.58 94.557 120.337C96.7378 122.093 97.0852 125.315 95.3288 127.495C93.5724 129.676 90.351 130.024 88.1702 128.267Z" fill="#EB367B"/>
<path d="M-12.3762 66.9029C-14.684 65.0443 -15.1382 61.7368 -13.3818 59.556C-11.6255 57.3751 -9.40316 56.2232 -8.43961 56.9992C-7.47607 57.7752 -7.02581 61.0795 -7.43401 64.3461C-7.84221 67.6127 -10.0685 68.7614 -12.3762 66.9029Z" fill="#EB367B"/>
<path d="M401.961 420.203C397.77 416.827 403.225 401.661 409.423 399.476C417.341 396.681 417.63 398.79 411.043 411.174C407.695 417.466 403.607 421.528 401.961 420.203Z" fill="#EB367B"/>
<path d="M384.683 393.214C382.503 391.457 382.155 388.236 383.912 386.055C385.668 383.874 388.889 383.527 391.07 385.283C393.251 387.04 393.598 390.261 391.842 392.442C390.086 394.623 386.864 394.97 384.683 393.214Z" fill="#EB367B"/>
<path d="M-104.129 91.0654C-106.309 89.309 -106.657 86.0876 -104.9 83.9068C-103.144 81.7259 -99.9225 81.3786 -97.7417 83.1349C-95.5608 84.8913 -95.2135 88.1127 -96.9699 90.2936C-98.7263 92.4744 -101.948 92.8218 -104.129 91.0654Z" fill="#EB367B"/>
<path d="M-82.895 127.777C-85.2187 125.906 -82.8062 123.697 -77.1969 122.56C-71.8461 121.477 -66.8512 121.087 -66.0979 121.694C-65.3445 122.3 -67.9084 124.648 -71.796 126.91C-75.6875 129.169 -80.6825 129.559 -82.895 127.777Z" fill="#EB367B"/>
<path d="M355.012 470.642C351.745 470.234 350.596 468.007 352.455 465.7C354.313 463.392 357.621 462.938 359.802 464.694C361.983 466.45 363.135 468.672 362.359 469.636C361.583 470.599 358.278 471.05 355.012 470.642Z" fill="#EB367B"/>
<path d="M-101.813 112.541C-103.994 110.785 -104.341 107.563 -102.585 105.383C-100.829 103.202 -97.6071 102.854 -95.4263 104.611C-93.2454 106.367 -92.8981 109.589 -94.6544 111.769C-96.4108 113.95 -99.6322 114.298 -101.813 112.541Z" fill="#EB367B"/>
<path d="M405.735 521.297C403.554 519.541 403.206 516.319 404.963 514.139C406.719 511.958 409.941 511.61 412.121 513.367C414.302 515.123 414.65 518.345 412.893 520.525C411.137 522.706 407.915 523.054 405.735 521.297Z" fill="#EB367B"/>
<path d="M391.669 571.79C388.626 571.412 386.482 568.385 386.896 565.063C387.313 561.745 390.434 561.271 393.832 564.008C400.799 569.618 399.905 572.821 391.669 571.79Z" fill="#EB367B"/>
<path d="M-102.517 182.62C-104.718 182.861 -106.937 179.067 -107.445 174.186C-108.176 167.139 -107.356 167.054 -103.437 173.754C-100.728 178.394 -100.312 182.383 -102.517 182.62Z" fill="#EB367B"/>
<path d="M-145.559 172.777C-147.936 173.034 -151.473 170.42 -153.409 166.972C-155.554 163.159 -153.858 162.976 -149.085 166.506C-144.768 169.701 -143.182 172.521 -145.559 172.777Z" fill="#EB367B"/>
<path d="M-141.89 211.006C-145.891 215.974 -150.098 212.586 -153.786 201.426C-156.092 194.443 -154.92 194.158 -147.666 199.915C-142.736 203.834 -140.134 208.825 -141.89 211.006Z" fill="#EB367B"/>
<path d="M-126.466 245.759C-128.934 241.502 -128.719 235.237 -125.979 231.834C-123.242 228.436 -121.094 226.8 -121.207 228.206C-121.323 229.616 -121.542 235.879 -121.693 242.13C-121.93 252.026 -122.549 252.495 -126.466 245.759Z" fill="#EB367B"/>
<path d="M278.21 592.297C278.019 590.561 282.474 588.357 288.103 587.399C293.731 586.441 300.007 586.887 302.049 588.394C304.091 589.901 299.636 592.105 292.152 593.288C284.669 594.479 278.397 594.029 278.21 592.297Z" fill="#EB367B"/>
<path d="M286.913 628.252C284.732 626.496 284.385 623.274 286.141 621.093C287.898 618.912 291.119 618.565 293.3 620.321C295.481 622.078 295.828 625.299 294.072 627.48C292.315 629.661 289.094 630.008 286.913 628.252Z" fill="#EB367B"/>
<path d="M-161.71 301.794C-166.135 295.811 -164.965 291.923 -156.704 285.188C-146.685 277.026 -146.328 277.11 -151.717 286.439C-154.906 291.957 -155.856 297.814 -153.826 299.449C-151.8 301.081 -151.442 304.036 -153.032 306.011C-154.626 307.989 -158.527 306.089 -161.71 301.794Z" fill="#EB367B"/>
<path d="M-220.887 272.57C-222.961 270.899 -223.747 267.103 -222.641 264.13C-221.534 261.157 -217.657 261.116 -214.021 264.044C-210.385 266.973 -209.599 270.77 -212.268 272.484C-214.936 274.198 -218.813 274.24 -220.887 272.57Z" fill="#EB367B"/>
<path d="M226.684 638.58C224.377 636.721 223.922 633.414 225.679 631.233C227.435 629.052 229.657 627.9 230.621 628.676C231.584 629.452 232.035 632.756 231.627 636.023C231.218 639.29 228.992 640.438 226.684 638.58Z" fill="#EB367B"/>
<path d="M184.026 628.163C180.414 627.072 175.953 623.479 174.113 620.18C172.273 616.888 175.227 617.782 180.679 622.173C186.131 626.564 187.639 629.262 184.026 628.163Z" fill="#EB367B"/>
<path d="M-217.419 349.173C-228.948 352.06 -229.087 351.745 -220.844 341.511C-215.336 334.671 -210.118 332.559 -206.303 335.631C-198.904 341.59 -201.947 345.303 -217.419 349.173Z" fill="#EB367B"/>
<path d="M182.083 661.493C179.775 659.635 179.321 656.327 181.077 654.146C182.834 651.965 185.056 650.814 186.019 651.589C186.983 652.365 187.433 655.67 187.025 658.936C186.617 662.203 184.391 663.352 182.083 661.493Z" fill="#EB367B"/>
<path d="M-197.473 381.964C-198.437 381.188 -198.887 377.884 -198.479 374.617C-198.071 371.35 -195.844 370.202 -193.537 372.06C-191.229 373.919 -190.775 377.226 -192.531 379.407C-194.287 381.588 -196.51 382.74 -197.473 381.964Z" fill="#EB367B"/>
<path d="M-165.96 403.793C-169.003 403.415 -171.147 400.388 -170.734 397.066C-170.317 393.748 -167.196 393.274 -163.798 396.011C-156.831 401.622 -157.724 404.824 -165.96 403.793Z" fill="#EB367B"/>
<path d="M161.145 670.779C158.964 669.023 158.617 665.801 160.373 663.62C162.13 661.439 165.351 661.092 167.532 662.849C169.713 664.605 170.06 667.826 168.304 670.007C166.547 672.188 163.326 672.535 161.145 670.779Z" fill="#EB367B"/>
<path d="M-198.971 403.638C-202.238 403.229 -203.386 401.003 -201.528 398.695C-199.669 396.388 -196.362 395.933 -194.181 397.69C-192 399.446 -190.848 401.668 -191.624 402.632C-192.4 403.595 -195.704 404.046 -198.971 403.638Z" fill="#EB367B"/>
<path d="M-94.9726 496.682C-97.5684 494.873 -99.759 488.931 -99.8406 483.473C-99.9627 475.321 -98.7975 474.507 -93.3176 478.92C-89.6538 481.871 -88.9751 485.111 -91.8145 486.112C-94.654 487.114 -95.4613 490.641 -93.6122 493.954C-91.5174 497.7 -92.0286 498.733 -94.9726 496.682Z" fill="#EB367B"/>
<path d="M-260.179 373.785C-261.623 369.693 -259.368 367.234 -252.979 365.941C-241.626 363.637 -240.13 369.313 -250.502 375.341C-254.669 377.764 -259.025 377.06 -260.179 373.785Z" fill="#EB367B"/>
<path d="M-172.478 447.853C-183.093 439.304 -169.676 431.46 -157.035 438.823C-150.304 442.747 -143.715 446.432 -142.388 447.017C-141.061 447.602 -138.693 451.967 -137.124 456.715C-134.962 463.267 -137.392 462.859 -147.209 455.032C-154.324 449.354 -161.581 446.497 -163.337 448.678C-165.093 450.859 -169.207 450.488 -172.478 447.853Z" fill="#EB367B"/>
<path d="M-234.583 423.985C-236.891 422.126 -237.345 418.819 -235.589 416.638C-233.833 414.457 -231.61 413.305 -230.647 414.081C-229.683 414.857 -229.233 418.161 -229.641 421.428C-230.049 424.695 -232.276 425.843 -234.583 423.985Z" fill="#EB367B"/>
<path d="M26.6533 634.373C24.5994 632.719 24.3589 629.583 26.1153 627.403C27.8717 625.222 32.0921 625.679 35.4903 628.416C38.8885 631.153 39.1329 634.291 36.0283 635.386C32.9238 636.481 28.7073 636.027 26.6533 634.373Z" fill="#EB367B"/>
<path d="M-291.25 503.748C-302.189 504.927 -303.059 496.859 -292.649 490.809C-286.502 487.235 -284.369 488.109 -283.683 494.481C-282.996 500.845 -284.793 503.051 -291.25 503.748Z" fill="#EB367B"/>
<path d="M-345.038 493.147C-348.848 495.289 -349.031 493.592 -345.501 488.82C-342.306 484.503 -339.486 482.917 -339.229 485.294C-338.973 487.671 -341.586 491.207 -345.038 493.147Z" fill="#EB367B"/>
</svg>
