<svg width="941" height="232" viewBox="0 0 941 232" fill="none" xmlns="http://www.w3.org/2000/svg">
<path d="M52.2 230.895C47.5048 230.895 43.3619 229.514 40.3238 226.476L6.07619 192.229C2.76191 188.914 0.552381 183.39 0.552381 175.657C0.552381 152.181 12.7048 102.19 22.9238 71.2571L5.24762 53.581C1.65714 49.9905 0 46.6762 0 41.1524C0 34.5238 4.69524 27.8952 14.3619 24.0286C24.581 19.8857 60.2095 9.66667 70.981 7.18096C87.2762 3.59048 106.057 0 116.552 0C120.143 0 124.01 2.48572 127.876 6.07619L162.124 40.3238C170.133 48.3333 177.038 62.1429 177.038 69.0476C177.038 80.3714 167.095 105.229 162.952 112.962C158.81 120.971 153.562 124.562 147.21 126.219L151.905 130.914C169.857 149.143 181.181 170.686 181.181 196.095C181.181 214.048 169.029 227.581 142.514 227.581C130.914 227.581 111.857 220.952 95.2857 214.048C81.2 222.057 62.9714 230.895 52.2 230.895Z" fill="#111111"/>
<path d="M295.873 232C277.645 232 249.473 225.648 238.426 214.876L229.588 206.038C228.207 208.524 226.273 210.181 223.788 211.562C208.873 220.676 187.883 230.895 176.007 230.895C171.311 230.895 167.445 229.514 164.407 226.476L130.159 192.505C126.845 188.914 124.635 183.39 124.635 175.657C124.635 149.971 137.064 93.9048 146.178 64.3524L128.778 46.6762C125.188 43.3619 123.531 39.7714 123.531 34.2476C123.531 26.7905 128.226 22.3714 137.616 18.2286C156.121 9.94286 174.626 2.48572 184.845 2.48572C194.235 2.48572 224.892 27.0667 241.464 41.7048C242.569 42.5333 243.673 43.6381 244.502 44.4667L278.75 78.7143C292.559 92.5238 296.426 108.543 296.426 117.933C296.426 131.743 288.416 139.2 278.197 143.067C303.054 174.552 318.797 194.714 318.797 214.876C318.797 226.752 309.683 232 295.873 232Z" fill="#111111"/>
<path d="M280.868 230.895C276.173 230.895 272.307 229.514 269.268 226.476L235.021 192.505C231.707 188.914 229.497 183.39 229.497 175.657C229.497 171.514 231.43 163.505 233.916 154.667C238.335 138.924 242.478 124.562 248.554 106.333L260.983 69.8762L250.211 51.0952C246.621 44.7429 245.792 39.2191 245.792 33.9714C245.792 26.7905 249.107 21.5429 257.392 17.9524C265.402 14.3619 311.802 1.93332 320.088 1.93332C323.954 1.93332 327.268 3.03809 330.307 6.07619L364.554 40.3238C366.488 42.5333 368.421 45.2952 369.802 49.1619C373.945 60.2095 378.088 74.5714 382.507 89.4857L388.03 108.543L408.192 128.981C410.126 130.914 411.23 133.4 411.23 136.714C411.23 141.962 407.64 149.695 403.221 157.429C404.602 161.848 414.545 188.086 416.202 192.505C419.24 200.514 420.897 205.21 420.897 211.562C420.897 218.743 415.926 227.029 401.011 227.029C389.411 227.029 376.707 222.886 361.24 217.638C354.059 215.429 349.364 212.943 346.326 210.181L336.383 199.962C335.002 206.038 332.516 209.352 327.268 212.39C313.183 220.4 293.021 230.895 280.868 230.895Z" fill="#111111"/>
<path d="M403.737 230.895C399.041 230.895 394.898 229.514 391.86 226.476L357.613 192.229C354.298 188.914 352.089 183.39 352.089 175.657C352.089 156.048 363.137 111.029 371.698 77.8857C366.727 59.6572 359.27 29.5524 359.27 19.0571C359.27 10.219 363.689 3.59048 376.394 3.59048C389.651 3.59048 419.479 12.981 426.384 15.7429C429.975 17.1238 433.289 19.0571 435.775 21.819L443.232 29C444.337 26.7905 445.994 24.8571 448.203 23.4762C461.737 14.6381 480.518 1.93332 489.356 1.93332C492.67 1.93332 495.432 3.31429 497.918 5.80001L531.889 39.7714C535.203 43.0857 537.137 47.5048 537.137 51.9238C537.137 56.619 527.47 101.086 522.222 124.01C523.879 132.571 526.918 143.619 530.232 154.943C535.203 172.067 540.451 190.571 540.451 202.724C540.451 211.562 535.756 217.914 523.327 217.914C510.07 217.914 479.965 208.8 473.337 206.038C470.575 204.933 468.641 203.552 466.708 201.895L459.527 194.714C459.527 204.105 456.489 207.971 450.965 211.562C436.051 220.952 415.613 230.895 403.737 230.895Z" fill="#111111"/>
<path d="M527.537 230.895C522.842 230.895 518.699 229.514 515.661 226.476L481.413 192.229C478.099 188.914 475.889 183.39 475.889 175.657C475.889 150.248 483.623 122.352 491.632 93.6286L496.051 77.6095C489.975 58.2762 482.794 32.3143 482.794 18.5048C482.794 7.18096 493.013 0.828577 502.127 0.828577C509.308 0.828577 522.013 6.62857 527.813 9.39047C553.499 21.819 575.318 34.8 590.508 45.2952C594.927 48.0571 598.794 51.3714 602.384 54.9619L636.356 88.9333C646.299 98.8762 651.823 109.924 651.823 119.59C651.823 135.886 628.346 162.4 612.604 180.629C609.013 184.771 601.556 193.333 596.861 198.029C593.546 201.343 591.889 203.829 586.642 207.143C571.175 216.81 540.794 230.895 527.537 230.895Z" fill="#111111"/>
<path d="M628.592 230.895C623.897 230.895 620.03 229.514 616.992 226.476L582.745 192.505C579.43 188.914 577.221 183.39 577.221 175.657C577.221 152.181 588.821 96.3905 598.764 64.0762L581.364 46.6762C577.773 43.3619 576.116 39.7714 576.116 34.2476C576.116 26.7905 580.811 22.3714 590.202 18.2286C597.659 14.9143 629.145 2.48572 636.878 2.48572C641.849 2.48572 645.992 4.41904 649.307 7.45715L683.278 41.7048C687.145 45.2952 689.078 50.5429 688.25 55.5143C687.421 60.7619 682.726 99.4286 682.726 146.105C682.726 163.229 683.554 173.724 684.107 181.457L684.659 194.714C684.659 204.381 681.897 207.971 676.373 211.562C661.735 220.952 640.469 230.895 628.592 230.895Z" fill="#111111"/>
<path d="M683.075 230.895C678.38 230.895 674.513 229.79 671.475 226.476L637.228 192.505C633.637 188.638 631.704 183.39 631.704 175.657C631.704 152.181 643.304 96.3905 653.247 64.0762L635.847 46.6762C632.256 43.3619 630.599 39.7714 630.599 34.2476C630.599 26.7905 635.294 22.3714 644.685 18.2286C652.142 14.6381 683.628 2.48572 691.361 2.48572C696.332 2.48572 700.475 4.41904 703.513 7.45715L717.323 21.2667L720.637 18.781C724.504 16.0191 744.666 2.48572 754.885 2.48572C759.58 2.48572 762.894 3.59048 765.38 6.35238L799.628 40.3238C802.113 43.0857 803.218 46.6762 803.494 50.819C803.494 53.3048 798.247 79.2667 794.38 97.2191L804.599 107.438C806.532 109.371 807.361 111.857 807.637 115.171C807.637 122.076 800.732 135.057 795.485 143.067C798.523 150.8 810.951 178.419 814.266 187.257C818.132 197.476 820.342 203.829 820.618 211.562C820.618 218.743 815.647 227.305 800.732 227.029C789.132 227.029 776.428 223.162 761.237 217.638C754.332 215.152 749.637 213.219 746.875 210.457L738.313 201.895C737.209 206.59 734.999 209.076 730.856 211.562C715.942 220.676 694.951 230.895 683.075 230.895Z" fill="#111111"/>
<path d="M800.344 230.895C795.649 230.895 791.782 229.514 788.744 226.476L754.496 192.505C751.182 188.914 748.973 183.39 748.973 175.657C748.973 171.514 750.906 163.505 753.392 154.667C757.811 138.924 761.953 124.562 768.03 106.333L780.458 69.8762L769.687 51.0952C766.096 44.7429 765.268 39.2191 765.268 33.9714C765.268 26.7905 768.582 21.5429 776.868 17.9524C784.877 14.3619 831.277 1.93332 839.563 1.93332C843.43 1.93332 846.744 3.03809 849.782 6.07619L884.03 40.3238C885.963 42.5333 887.896 45.2952 889.277 49.1619C893.42 60.2095 897.563 74.5714 901.982 89.4857L907.506 108.543L927.668 128.981C929.601 130.914 930.706 133.4 930.706 136.714C930.706 141.962 927.115 149.695 922.696 157.429C924.077 161.848 934.02 188.086 935.677 192.505C938.715 200.514 940.373 205.21 940.373 211.562C940.373 218.743 935.401 227.029 920.487 227.029C908.887 227.029 896.182 222.886 880.715 217.638C873.534 215.429 868.839 212.943 865.801 210.181L855.858 199.962C854.477 206.038 851.992 209.352 846.744 212.39C832.658 220.4 812.496 230.895 800.344 230.895Z" fill="#111111"/>
<path d="M17.9452 189.782C11.3167 189.782 8.83094 185.087 8.83094 176.801C8.83094 152.22 23.1929 95.8774 33.4119 66.8774L39.4881 52.5155L30.3738 64.3917L12.6976 50.5822C9.65952 48.0964 8.27856 46.7155 8.27856 42.2964C8.27856 38.4298 11.869 35.1155 17.3929 32.9059C27.6119 28.7631 62.4119 18.544 72.6309 16.3345C88.9262 12.744 106.879 9.42975 116.545 9.42975C121.248 9.42975 130.128 23.2308 133.319 31.5437C134.063 33.4828 134.498 35.1232 134.498 36.2202C134.498 37.6834 134.256 39.4885 133.836 41.5216C131.56 52.5375 124.038 70.2489 121.24 76.5441C117.926 83.4489 112.955 85.106 108.536 85.6584L90.5833 86.4869C113.598 102.707 130.35 121.884 136.285 144.708C137.829 150.644 138.64 156.826 138.64 163.268C138.64 169.338 136.862 174.63 132.957 178.621C128.156 183.528 120.14 186.468 108.26 186.468C91.9643 186.468 56.3357 170.725 40.0405 162.715C39.4881 163.268 56.8881 174.039 56.3357 174.592C42.5262 182.601 26.7833 189.782 17.9452 189.782ZM88.65 139.239C91.6881 139.239 93.8976 138.135 93.8976 134.544C93.8976 130.401 78.7072 114.382 64.6214 102.782V131.23C71.5262 134.268 82.2976 139.239 88.65 139.239ZM64.6214 73.2298C74.5643 71.0203 83.1262 68.2584 86.9929 67.1536C92.7929 65.4965 93.069 64.6679 93.069 56.6583C93.069 54.725 92.7928 53.3441 90.5833 53.3441C85.6119 53.3441 81.7452 55.2774 64.6214 60.8012V73.2298Z" fill="url(#paint0_linear_13_7686)"/>
<path d="M246.614 189.782C244.885 189.782 243.443 189.435 242.259 188.762C239.093 186.961 237.776 182.832 237.776 176.801C237.776 173.763 239.433 166.858 241.918 158.02C242.932 154.404 243.946 150.855 244.98 147.308C245.094 146.915 245.208 146.523 245.323 146.13C246.754 141.24 248.227 136.34 249.793 131.265C256.25 110.34 264.294 86.4268 277.547 47.8202L266.776 64.3917L257.385 48.0964C254.623 43.125 254.071 39.5345 254.071 35.1155C254.071 31.2488 255.452 29.0393 260.699 26.8297C267.604 23.7917 300.747 14.9536 317.595 11.9155C318.423 11.6393 319.252 11.3631 320.08 11.3631C322.842 11.3631 325.604 13.0202 327.814 19.0964C335.823 40.6393 344.109 75.4393 352.671 99.1917C361.785 99.1917 368.69 99.4679 368.69 103.887C368.69 107.754 363.995 116.868 359.852 123.773C361.785 129.02 370.347 153.049 374.214 162.715C377.252 169.896 378.357 173.763 378.357 178.735C378.357 181.22 376.976 185.916 366.757 185.916C356.538 185.916 345.214 182.325 329.471 177.077C317.595 173.211 315.938 170.725 315.938 164.373V138.687L329.747 133.992C322.566 134.268 313.176 135.373 305.719 136.201C300.195 137.03 289.423 138.411 283.347 140.068L296.328 140.896L294.395 161.887C293.842 167.687 293.014 169.896 288.871 172.382C275.338 180.116 256.557 189.782 246.614 189.782ZM299.366 102.782C309.585 101.401 318.976 100.02 329.471 99.1917C324.223 98.3631 318.976 97.8108 313.728 97.8108L305.719 53.3441L299.366 102.782Z" fill="url(#paint1_linear_13_7686)"/>
<path d="M369.482 189.782C362.853 189.782 360.368 185.087 360.368 176.801C360.368 157.744 371.691 112.173 380.253 79.0298C375.282 61.0774 367.549 30.144 367.549 20.2012C367.549 16.3345 368.101 13.0202 376.387 13.0202C388.263 13.0202 417.263 22.1345 423.339 24.6202C429.415 26.8298 434.387 32.906 436.044 39.5345L452.339 101.954L446.539 64.1155L449.025 40.3631C449.025 37.0488 450.129 33.4583 452.891 31.525C465.044 23.5155 483.548 11.3631 489.349 11.3631C491.834 11.3631 494.596 15.7821 494.596 19.0964C494.596 22.6869 484.377 68.5346 479.406 91.1822C483.548 114.382 497.91 151.392 497.91 169.896C497.91 173.763 497.358 176.801 489.072 176.801C477.196 176.801 448.196 167.963 442.12 165.477C436.044 162.992 434.663 157.192 433.282 151.392L413.12 75.4393L416.434 100.573L416.987 161.887C416.987 167.687 416.434 169.344 412.568 171.554C398.206 180.392 379.149 189.782 369.482 189.782Z" fill="url(#paint2_linear_13_7686)"/>
<path d="M493.282 189.782C486.654 189.782 484.168 185.087 484.168 176.801C484.168 141.449 499.634 101.401 510.13 56.106L502.396 71.5726C496.32 51.6869 491.073 29.0393 491.073 19.6488C491.073 13.2964 497.149 10.2583 502.12 10.2583C507.368 10.2583 518.968 15.5059 524.215 17.9917C549.349 30.144 570.616 42.8488 585.806 53.3441C600.997 63.5631 609.282 76.5441 609.282 86.7631C609.282 99.1917 588.016 124.049 571.997 142.277C566.749 148.354 551.282 165.754 548.797 167.135C534.435 175.973 502.949 189.782 493.282 189.782ZM539.958 125.982C559.016 104.439 563.987 98.9155 563.987 93.6679C563.987 90.0774 561.501 88.4203 555.149 84.8298C552.111 82.8965 547.968 79.8584 542.72 77.0965L539.958 125.982Z" fill="url(#paint3_linear_13_7686)"/>
<path d="M594.338 189.782C587.985 189.782 585.5 185.087 585.5 176.801C585.5 152.22 599.033 88.9726 609.252 59.9726L588.814 43.6774C585.776 41.1917 584.395 39.8107 584.395 35.3917C584.395 31.525 587.985 29.3155 593.509 26.8297C601.242 23.2393 631.347 11.9155 636.871 11.9155C642.671 11.9155 646.262 17.1631 645.709 21.5821C644.881 26.8298 640.185 66.0488 640.185 113.277C640.185 141.173 642.119 151.668 642.119 161.887C642.119 167.687 641.29 169.344 637.7 171.554C623.338 180.392 604.004 189.782 594.338 189.782Z" fill="url(#paint4_linear_13_7686)"/>
<path d="M648.821 189.782C642.468 189.782 639.983 185.087 639.983 176.801C639.983 152.22 653.516 88.9726 663.735 59.9726L643.297 43.6774C640.259 41.1917 638.878 39.8107 638.878 35.3917C638.878 31.525 642.468 29.3155 647.992 26.8297C655.725 23.2393 685.83 11.9155 691.354 11.9155C697.154 11.9155 700.744 17.1631 700.192 21.5821C698.259 35.1155 696.878 63.0107 695.773 81.5155C705.992 79.8584 715.383 78.7536 725.602 77.6488C720.63 77.3727 715.383 76.5441 710.135 76.5441L713.173 42.5726C713.725 34.8393 718.973 30.9726 725.325 26.8297C728.363 24.6202 747.697 11.9155 754.878 11.9155C759.849 11.9155 760.954 14.6774 760.954 17.9917C760.954 20.4774 750.735 69.0869 748.802 77.6488C757.916 77.6488 765.097 77.925 765.097 82.3441C765.097 87.5917 756.535 103.058 751.84 109.135C757.64 124.601 766.754 142.001 772.002 157.192C775.868 167.411 778.078 172.658 778.078 178.735C778.078 181.22 776.697 185.916 766.478 185.916C756.259 185.916 744.935 182.325 729.468 177.077C717.316 173.211 717.04 170.725 715.935 164.373C714.278 153.049 713.173 132.058 712.344 116.868L726.154 112.449L702.125 114.935C696.602 115.763 685.83 117.144 679.754 118.525L694.944 119.63C695.773 135.096 696.602 156.363 696.602 161.887C696.602 167.687 695.773 169.344 692.182 171.554C677.821 180.392 658.487 189.782 648.821 189.782Z" fill="url(#paint5_linear_13_7686)"/>
<path d="M766.089 189.782C759.737 189.782 757.251 185.087 757.251 176.801C757.251 173.763 758.908 166.858 761.394 158.02C769.68 128.468 777.966 103.335 797.023 47.8202L786.251 64.3917L776.861 48.0964C774.099 43.125 773.547 39.5345 773.547 35.1155C773.547 31.2488 774.927 29.0393 780.175 26.8297C787.08 23.7917 820.223 14.9536 837.07 11.9155C837.899 11.6393 838.727 11.3631 839.556 11.3631C842.318 11.3631 845.08 13.0202 847.289 19.0964C855.299 40.6393 863.585 75.4393 872.147 99.1917C881.261 99.1917 888.166 99.4679 888.166 103.887C888.166 107.754 883.47 116.868 879.327 123.773C881.261 129.02 889.823 153.049 893.689 162.715C896.727 169.896 897.832 173.763 897.832 178.735C897.832 181.22 896.451 185.916 886.232 185.916C876.013 185.916 864.689 182.325 848.947 177.077C837.07 173.211 835.413 170.725 835.413 164.373V138.687L849.223 133.992C842.042 134.268 832.651 135.373 825.194 136.201C819.67 137.03 808.899 138.411 802.823 140.068L815.804 140.896L813.87 161.887C813.318 167.687 812.489 169.896 808.347 172.382C794.813 180.116 776.032 189.782 766.089 189.782ZM818.842 102.782C829.061 101.401 838.451 100.02 848.947 99.1917C843.699 98.3631 838.451 97.8108 833.204 97.8108L825.194 53.3441L818.842 102.782Z" fill="url(#paint6_linear_13_7686)"/>
<path d="M805.158 46.6154H850.226V103.974H805.158V46.6154Z" fill="url(#paint7_linear_13_7686)"/>
<path d="M282.782 46.6154H327.85V103.974H282.782V46.6154Z" fill="url(#paint8_linear_13_7686)"/>
<path fill-rule="evenodd" clip-rule="evenodd" d="M133.319 31.5437C134.063 33.4828 134.498 35.1232 134.498 36.2202C134.498 37.6834 134.256 39.4885 133.836 41.5216C134.474 42.217 135.268 42.8921 136.228 43.6774L153.352 57.4869L163.295 41.4679L156.666 59.9726C150.27 77.9977 141.154 114.928 136.285 144.708C137.829 150.644 138.64 156.826 138.64 163.268C138.64 169.338 136.862 174.63 132.957 178.621C133.312 185.771 135.881 189.782 141.752 189.782C151.419 189.782 170.752 180.392 185.114 171.554C188.704 169.344 189.533 167.411 189.533 161.887C189.533 153.325 188.98 140.344 188.98 125.982L208.038 173.211C210.528 179.725 226.577 185.708 242.259 188.762C239.093 186.961 237.776 182.832 237.776 176.801C237.776 173.763 239.433 166.858 241.918 158.02C242.932 154.404 243.946 150.855 244.98 147.308C232.819 132.271 225.366 121.579 211.076 104.992C214.114 105.544 216.323 105.544 221.295 105.544C235.381 105.544 253.885 101.677 253.885 85.106C253.885 76.5441 249.742 61.3536 235.933 49.2012C221.571 37.0488 190.085 11.9155 184.838 11.9155C176.276 11.9155 158.876 18.8202 140.923 26.8297C137.532 28.356 134.869 29.7781 133.319 31.5437ZM208.038 79.5822C208.038 80.9631 207.761 87.0393 203.066 87.0393C200.857 87.0393 193.4 86.2107 188.152 83.725V81.5155L188.428 77.6488L189.533 64.3917C205.276 71.2965 208.038 74.0584 208.038 79.5822Z" fill="url(#paint9_linear_13_7686)"/>
<path d="M835.116 66.3365C835.208 66.3322 835.3 66.3296 835.391 66.3282C842.892 66.1981 839.839 74.2629 838.49 78.4625C836.944 83.2763 835.412 88.443 835.212 93.5133C835.153 97.0142 837.392 99.0907 840.871 98.8373C843.244 98.6645 846.397 97.8153 848.154 96.1355C850.035 94.2643 851.619 91.0191 854.652 90.989C860.065 90.9349 860.6 97.7388 855.671 99.5865C851.494 101.152 847.08 101.806 843.21 103.93C840.18 105.593 838.059 108.938 835.784 111.418C831.913 115.846 822.125 114.365 819.643 109.199C814.963 99.4584 810.405 100.122 800.37 100.216C799.359 100.243 798.263 100.206 797.299 99.8875C796.119 99.498 795.039 98.76 794.487 97.6133C794.105 96.8181 794.041 95.9371 794.352 95.1078C794.715 94.1385 795.63 93.0631 796.584 92.654C800.305 91.0596 808.001 95.4087 811.54 96.771C813.323 97.4569 817.516 98.9559 819.329 98.0345C819.767 97.8117 820.004 97.4629 820.166 97.0122C821.638 92.9081 815.609 85.6059 812.847 82.9186C810.688 80.8175 808.058 79.8143 806.755 76.8468C806.23 75.6503 806.094 74.4014 806.594 73.1711C807.044 72.0637 807.875 71.0696 809.001 70.6278C810.699 69.9623 812.721 70.4839 813.946 71.8069C815.576 73.5672 817.214 78.827 818.334 81.2839C819.44 83.7119 824.622 92.6641 826.93 93.6558C827.486 93.8948 828.095 93.9369 828.662 93.7017C829.848 93.2099 830.341 91.6156 830.758 90.5013C832.164 86.7291 832.818 82.7169 832.683 78.6926C832.547 74.5327 829.67 68.4905 835.116 66.3365Z" fill="#111111"/>
<path d="M315.398 60.0294C315.489 60.0252 315.581 60.0225 315.673 60.0211C323.173 59.891 320.121 67.9558 318.771 72.1554C317.225 76.9693 315.694 82.1359 315.493 87.2062C315.434 90.7071 317.673 92.7836 321.153 92.5303C323.526 92.3574 326.679 91.5083 328.436 89.8284C330.316 87.9573 331.901 84.712 334.933 84.6819C340.347 84.6279 340.881 91.4318 335.952 93.2794C331.775 94.8453 327.361 95.4986 323.491 97.6231C320.461 99.2864 318.34 102.631 316.065 105.111C312.194 109.539 302.406 108.058 299.924 102.892C295.244 93.1513 290.686 93.8151 280.651 93.9092C279.64 93.9363 278.545 93.8986 277.58 93.5804C276.4 93.1909 275.32 92.453 274.769 91.3062C274.386 90.511 274.322 89.6301 274.633 88.8007C274.996 87.8315 275.911 86.756 276.866 86.347C280.586 84.7525 288.282 89.1016 291.822 90.4639C293.604 91.1498 297.797 92.6488 299.61 91.7275C300.048 91.5047 300.286 91.1558 300.447 90.7052C301.919 86.601 295.89 79.2988 293.128 76.6115C290.969 74.5105 288.34 73.5073 287.036 70.5398C286.511 69.3433 286.376 68.0944 286.876 66.8641C287.325 65.7566 288.156 64.7626 289.283 64.3208C290.98 63.6552 293.002 64.1768 294.227 65.4998C295.857 67.2601 297.495 72.5199 298.615 74.9768C299.722 77.4048 304.903 86.357 307.211 87.3487C307.768 87.5877 308.376 87.6298 308.944 87.3946C310.13 86.9029 310.623 85.3085 311.04 84.1942C312.445 80.4221 313.099 76.4099 312.964 72.3856C312.828 68.2256 309.951 62.1835 315.398 60.0294Z" fill="#111111"/>
<path d="M502.121 10.5622C507.369 10.5628 518.967 15.8106 524.215 18.2962C549.348 30.4486 570.616 43.1521 585.807 53.6474C590.281 56.6576 602.833 67.8777 606.074 71.226C603.045 80.1542 590.453 85.4109 581.939 81.3613C560.504 71.1656 531.071 64.0716 514.409 62.2881C511.528 61.9798 509.475 59.2325 510.129 56.4101L509.515 57.638C508.233 60.2006 505.586 61.7456 502.721 61.8255C500.949 61.875 499.201 60.8909 498.736 59.1805C496.027 49.2274 493.736 39.4158 492.385 31.6217C489.811 44.1866 485.474 63.9256 482.018 79.6142C480.769 82.1717 479.63 84.9587 478.613 87.9439C476.297 94.7451 470.264 99.8694 463.079 99.8694C456.69 99.8694 451.257 95.206 450.289 88.8906L446.539 64.4202L449.025 40.668C449.025 37.3537 450.13 33.763 452.892 31.8297C465.044 23.8205 483.547 11.6674 489.348 11.6665C490.639 11.6665 492 12.8615 493.015 14.4712C495.21 11.841 498.897 10.5622 502.121 10.5622Z" fill="url(#paint10_linear_13_7686)"/>
<path d="M502.121 10.5622C507.369 10.5628 518.967 15.8106 524.215 18.2962C549.348 30.4486 570.616 43.1521 585.807 53.6474C590.281 56.6576 602.833 67.8777 606.074 71.226C603.045 80.1542 590.453 85.4109 581.939 81.3613C560.504 71.1656 531.071 64.0716 514.409 62.2881C511.528 61.9798 509.475 59.2325 510.129 56.4101L509.515 57.638C508.233 60.2006 505.586 61.7456 502.721 61.8255C500.949 61.875 499.201 60.8909 498.736 59.1805C496.027 49.2274 493.736 39.4158 492.385 31.6217C489.811 44.1866 485.474 63.9256 482.018 79.6142C480.769 82.1717 479.63 84.9587 478.613 87.9439C476.297 94.7451 470.264 99.8694 463.079 99.8694C456.69 99.8694 451.257 95.206 450.289 88.8906L446.539 64.4202L449.025 40.668C449.025 37.3537 450.13 33.763 452.892 31.8297C465.044 23.8205 483.547 11.6674 489.348 11.6665C490.639 11.6665 492 12.8615 493.015 14.4712C495.21 11.841 498.897 10.5622 502.121 10.5622Z" fill="white" fill-opacity="0.21" style="mix-blend-mode:overlay"/>
<path d="M376.386 13.3249C388.262 13.3249 417.261 22.4379 423.339 24.9239C429.415 27.1333 434.387 33.2095 436.044 39.8378L449.75 92.3452C450.743 96.1514 447.871 99.8694 443.938 99.8694C441.747 99.8694 439.738 98.671 438.635 96.7779C438.043 95.762 437.434 94.747 436.808 93.7338C417.622 62.6846 390.078 44.9248 375.284 54.0655C374.63 54.4696 373.733 54.1523 373.554 53.4047C370.288 39.7775 367.548 26.4227 367.548 20.5048C367.548 16.6384 368.101 13.3249 376.386 13.3249Z" fill="url(#paint11_linear_13_7686)"/>
<path d="M376.386 13.3249C388.262 13.3249 417.261 22.4379 423.339 24.9239C429.415 27.1333 434.387 33.2095 436.044 39.8378L449.75 92.3452C450.743 96.1514 447.871 99.8694 443.938 99.8694C441.747 99.8694 439.738 98.671 438.635 96.7779C438.043 95.762 437.434 94.747 436.808 93.7338C417.622 62.6846 390.078 44.9248 375.284 54.0655C374.63 54.4696 373.733 54.1523 373.554 53.4047C370.288 39.7775 367.548 26.4227 367.548 20.5048C367.548 16.6384 368.101 13.3249 376.386 13.3249Z" fill="white" fill-opacity="0.21" style="mix-blend-mode:overlay"/>
<path d="M754.877 12.2206C759.848 12.2206 760.955 14.9819 760.955 18.2962C760.954 19.8162 757.142 38.526 753.735 54.8177C747.953 54.4142 743.269 54.3022 740.353 54.3836C735.532 54.5184 731.027 56.9215 727.057 61.1026C723.593 64.7491 715.166 64.5782 711.542 61.0913L713.172 42.8766C713.725 35.1435 718.973 31.2772 725.325 27.1345C728.363 24.925 747.695 12.2216 754.877 12.2206Z" fill="url(#paint12_linear_13_7686)"/>
<path d="M754.877 12.2206C759.848 12.2206 760.955 14.9819 760.955 18.2962C760.954 19.8162 757.142 38.526 753.735 54.8177C747.953 54.4142 743.269 54.3022 740.353 54.3836C735.532 54.5184 731.027 56.9215 727.057 61.1026C723.593 64.7491 715.166 64.5782 711.542 61.0913L713.172 42.8766C713.725 35.1435 718.973 31.2772 725.325 27.1345C728.363 24.925 747.695 12.2216 754.877 12.2206Z" fill="white" fill-opacity="0.21" style="mix-blend-mode:overlay"/>
<path d="M116.545 9.73395C121.248 9.73395 130.127 23.537 133.317 31.8497C134.867 30.0834 137.531 28.6612 140.923 27.1345C158.875 19.125 176.277 12.2206 184.839 12.2206C190.089 12.2235 221.573 37.3546 235.934 49.5063C241.967 54.8156 246.153 60.7051 248.956 66.3682C250.532 69.5528 247.973 73.0065 244.421 72.8966C243.127 72.8566 241.9 72.3248 240.962 71.4327C232.826 63.6986 221.966 55.8946 209.341 49.1322C177.167 31.8991 145.714 27.9552 139.089 40.3239C138.291 41.8136 136.084 42.6766 134.635 41.8075C124.507 35.7337 103.898 32.5876 80.4674 34.3764C58.4238 36.0593 39.5092 41.6794 29.7788 48.6178C25.5422 51.6389 16.798 54.0903 12.6977 50.8867C9.65962 48.401 8.27856 47.0196 8.27856 42.6005C8.27864 38.7339 11.8692 35.4196 17.3929 33.2101C27.6121 29.0672 62.4123 18.8473 72.6313 16.6377C88.9261 13.0474 106.878 9.73406 116.545 9.73395Z" fill="url(#paint13_linear_13_7686)"/>
<path d="M116.545 9.73395C121.248 9.73395 130.127 23.537 133.317 31.8497C134.867 30.0834 137.531 28.6612 140.923 27.1345C158.875 19.125 176.277 12.2206 184.839 12.2206C190.089 12.2235 221.573 37.3546 235.934 49.5063C241.967 54.8156 246.153 60.7051 248.956 66.3682C250.532 69.5528 247.973 73.0065 244.421 72.8966C243.127 72.8566 241.9 72.3248 240.962 71.4327C232.826 63.6986 221.966 55.8946 209.341 49.1322C177.167 31.8991 145.714 27.9552 139.089 40.3239C138.291 41.8136 136.084 42.6766 134.635 41.8075C124.507 35.7337 103.898 32.5876 80.4674 34.3764C58.4238 36.0593 39.5092 41.6794 29.7788 48.6178C25.5422 51.6389 16.798 54.0903 12.6977 50.8867C9.65962 48.401 8.27856 47.0196 8.27856 42.6005C8.27864 38.7339 11.8692 35.4196 17.3929 33.2101C27.6121 29.0672 62.4123 18.8473 72.6313 16.6377C88.9261 13.0474 106.878 9.73406 116.545 9.73395Z" fill="white" fill-opacity="0.21" style="mix-blend-mode:overlay"/>
<path d="M839.557 11.6665C842.319 11.6668 845.08 13.3252 847.289 19.4005C851.624 31.0611 856.043 46.6052 860.54 62.1796C836.871 54.8358 809.149 53.1611 799.759 53.4233C798.094 53.4699 796.467 53.7865 794.887 54.3536C795.584 52.3204 796.294 50.2438 797.022 48.1239L792.157 55.6079C790.399 56.5937 788.711 57.8966 787.105 59.4869C785.645 59.1704 784.186 58.8706 782.732 58.5887L776.861 48.4C774.099 43.4292 773.546 39.8391 773.546 35.4206C773.546 31.554 774.928 29.344 780.176 27.1345C787.081 24.0963 820.223 15.2587 837.07 12.2206C837.899 11.9444 838.728 11.6665 839.557 11.6665Z" fill="url(#paint14_linear_13_7686)"/>
<path d="M839.557 11.6665C842.319 11.6668 845.08 13.3252 847.289 19.4005C851.624 31.0611 856.043 46.6052 860.54 62.1796C836.871 54.8358 809.149 53.1611 799.759 53.4233C798.094 53.4699 796.467 53.7865 794.887 54.3536C795.584 52.3204 796.294 50.2438 797.022 48.1239L792.157 55.6079C790.399 56.5937 788.711 57.8966 787.105 59.4869C785.645 59.1704 784.186 58.8706 782.732 58.5887L776.861 48.4C774.099 43.4292 773.546 39.8391 773.546 35.4206C773.546 31.554 774.928 29.344 780.176 27.1345C787.081 24.0963 820.223 15.2587 837.07 12.2206C837.899 11.9444 838.728 11.6665 839.557 11.6665Z" fill="white" fill-opacity="0.21" style="mix-blend-mode:overlay"/>
<path d="M320.08 11.6665C322.842 11.6665 325.604 13.3244 327.814 19.4005C330.253 25.9607 332.716 33.7508 335.205 42.0838C336.746 47.2417 330.853 51.6739 326.107 49.1322C293.933 31.8991 262.48 27.9552 255.855 40.3239C255.528 40.9338 254.511 40.8952 254.401 40.2121C254.151 38.6538 254.071 37.0969 254.071 35.4206C254.071 31.554 255.453 29.344 260.7 27.1345C267.606 24.0962 300.748 15.2586 317.595 12.2206C318.423 11.9445 319.251 11.6666 320.08 11.6665Z" fill="url(#paint15_linear_13_7686)"/>
<path d="M320.08 11.6665C322.842 11.6665 325.604 13.3244 327.814 19.4005C330.253 25.9607 332.716 33.7508 335.205 42.0838C336.746 47.2417 330.853 51.6739 326.107 49.1322C293.933 31.8991 262.48 27.9552 255.855 40.3239C255.528 40.9338 254.511 40.8952 254.401 40.2121C254.151 38.6538 254.071 37.0969 254.071 35.4206C254.071 31.554 255.453 29.344 260.7 27.1345C267.606 24.0962 300.748 15.2586 317.595 12.2206C318.423 11.9445 319.251 11.6666 320.08 11.6665Z" fill="white" fill-opacity="0.21" style="mix-blend-mode:overlay"/>
<path d="M691.354 12.2206C697.154 12.2209 700.745 17.4682 700.193 21.8871C699.175 29.0087 698.314 40.1069 697.562 51.7209C672.193 39.3078 633.06 36.7133 621.536 37.0351C617.749 37.1409 614.158 38.6461 610.867 41.3131C604.468 46.4992 595.254 49.1156 588.814 43.9809C585.776 41.4955 584.395 40.1149 584.395 35.6967C584.395 31.8301 587.985 29.6201 593.509 27.1345C601.242 23.5442 631.344 12.2218 636.87 12.2206C642.67 12.2206 646.261 17.4681 645.709 21.8871C645.547 22.9118 645.239 25.2301 644.846 28.6489C645.804 28.1448 646.856 27.6451 647.991 27.1345C655.724 23.544 685.831 12.2206 691.354 12.2206Z" fill="url(#paint16_linear_13_7686)"/>
<path d="M691.354 12.2206C697.154 12.2209 700.745 17.4682 700.193 21.8871C699.175 29.0087 698.314 40.1069 697.562 51.7209C672.193 39.3078 633.06 36.7133 621.536 37.0351C617.749 37.1409 614.158 38.6461 610.867 41.3131C604.468 46.4992 595.254 49.1156 588.814 43.9809C585.776 41.4955 584.395 40.1149 584.395 35.6967C584.395 31.8301 587.985 29.6201 593.509 27.1345C601.242 23.5442 631.344 12.2218 636.87 12.2206C642.67 12.2206 646.261 17.4681 645.709 21.8871C645.547 22.9118 645.239 25.2301 644.846 28.6489C645.804 28.1448 646.856 27.6451 647.991 27.1345C655.724 23.544 685.831 12.2206 691.354 12.2206Z" fill="white" fill-opacity="0.21" style="mix-blend-mode:overlay"/>
<path d="M198.626 149.036C198.767 149.036 198.88 149.15 198.885 149.291C199.249 159.356 221.12 167.472 248.045 167.472C265.162 167.472 280.234 164.191 289.038 159.215C291.081 158.06 294.698 159.856 294.484 162.193C293.931 167.992 293.102 170.202 288.96 172.688C285.033 174.932 280.66 177.333 276.193 179.62C276.292 180.546 276.345 181.458 276.345 182.354C276.345 190.088 269.164 191.193 261.707 191.193C257.644 191.193 252.909 190.778 247.963 190.034C247.529 190.066 247.109 190.088 246.703 190.088C244.975 190.088 243.535 189.736 242.352 189.064C226.668 186.011 210.618 180.031 208.127 173.516L198.39 149.386C198.322 149.218 198.445 149.036 198.626 149.036Z" fill="url(#paint17_linear_13_7686)"/>
<path d="M12.328 149.036C12.4647 149.036 12.5828 149.127 12.6245 149.257C14.4284 154.893 28.3238 159.278 45.2006 159.278C48.8557 159.278 52.3708 159.072 55.6536 158.692C62.683 157.877 71.6455 163.178 77.5408 167.092C83.5529 171.084 92.5301 173.618 102.56 173.618C111.494 173.618 119.592 171.607 125.503 168.345C130.973 165.328 138.724 163.601 144.715 165.37C149.259 166.713 154.431 167.472 159.918 167.472C170.352 167.472 179.645 164.729 185.647 160.456C187.13 159.4 189.582 160.373 189.582 162.193C189.582 167.716 188.753 169.65 185.163 171.86C170.801 180.698 151.466 190.088 141.8 190.088C135.927 190.088 133.362 186.074 133.007 178.921C128.207 183.83 120.19 186.773 108.307 186.773C93.9546 186.773 64.6059 174.561 46.6774 166.176C42.7168 164.324 42.2751 164.935 45.8972 167.384C50.7103 170.638 56.7095 174.567 56.3835 174.896C42.574 182.906 26.8316 190.088 17.9935 190.088C11.3651 190.088 8.87917 185.392 8.87915 177.107C8.87915 170.007 10.0814 160.259 12.0317 149.284C12.0572 149.141 12.1822 149.036 12.328 149.036Z" fill="url(#paint18_linear_13_7686)"/>
<path d="M415.368 149.036C416.189 149.036 416.857 149.698 416.865 150.519L416.969 162.193C416.969 167.993 416.417 169.65 412.55 171.86C398.189 180.697 379.132 190.088 369.465 190.088C365.805 190.088 363.41 188.655 361.997 185.977C352.98 185.09 342.806 181.834 329.453 177.383C317.577 173.516 315.919 171.03 315.919 164.678C315.919 162.234 323.302 159.074 325.493 160.158C334.469 164.602 348.693 167.472 364.706 167.472C390.525 167.472 411.696 160.009 413.713 150.521C413.885 149.712 414.541 149.036 415.368 149.036Z" fill="url(#paint19_linear_13_7686)"/>
<path d="M564.216 149.036C564.991 149.036 565.402 149.951 564.886 150.529C558.407 157.784 550.412 166.479 548.684 167.44C534.322 176.278 502.837 190.088 493.169 190.088C486.541 190.088 484.055 185.393 484.055 177.107C484.055 176.989 484.057 176.871 484.057 176.753C470.503 175.089 447.359 167.974 442.006 165.784C438.926 164.524 444.242 159.769 447.395 160.833C459.418 164.89 477.519 167.472 497.764 167.472C532.901 167.472 561.582 159.697 563.242 149.931C563.325 149.442 563.72 149.036 564.216 149.036Z" fill="url(#paint20_linear_13_7686)"/>
<path d="M693.538 160.161C694.987 159.623 696.594 160.647 696.594 162.193C696.594 167.993 695.765 169.65 692.175 171.86C677.814 180.697 658.481 190.088 648.814 190.088C642.461 190.088 639.976 185.393 639.975 177.107C639.975 174.962 640.081 172.522 640.276 169.837C639.638 170.549 638.798 171.18 637.693 171.86C623.331 180.698 603.996 190.088 594.33 190.088C587.978 190.088 585.491 185.392 585.491 177.107C585.491 175.757 585.532 174.291 585.611 172.721C585.951 165.967 593.106 161.77 599.695 163.291C611.009 165.904 625.487 167.472 641.268 167.472C662.609 167.472 681.568 164.602 693.538 160.161Z" fill="url(#paint21_linear_13_7686)"/>
<path d="M715.983 164.678C715.467 161.147 719.852 158.443 723.173 159.749C735.063 164.425 754.53 167.472 776.527 167.472C786.088 167.472 795.171 166.894 803.362 165.857C808.457 165.212 812.799 170.045 808.395 172.688C794.862 180.421 776.081 190.088 766.138 190.088C762.467 190.088 760.089 188.518 758.734 185.595C750.482 184.351 741.176 181.339 729.517 177.383C717.364 173.516 717.088 171.03 715.983 164.678Z" fill="url(#paint22_linear_13_7686)"/>
<path d="M835.422 164.366C835.422 162.272 837.5 160.803 839.507 161.399C851.454 164.947 868.362 167.16 887.108 167.16C887.431 167.16 887.753 167.159 888.075 167.158C892.466 167.138 896.713 169.731 897.457 174.059C897.722 175.6 897.841 177.105 897.841 178.727C897.841 181.213 896.46 185.909 886.242 185.909C876.023 185.909 864.698 182.318 848.956 177.071C837.08 173.204 835.422 170.718 835.422 164.366Z" fill="url(#paint23_linear_13_7686)"/>
<defs>
<linearGradient id="paint0_linear_13_7686" x1="0.409542" y1="29.729" x2="748.944" y2="258.457" gradientUnits="userSpaceOnUse">
<stop offset="0.129808" stop-color="#EE6818"/>
<stop offset="0.365385" stop-color="#EB367B"/>
<stop offset="0.788462" stop-color="#249AFF"/>
<stop offset="0.982854" stop-color="#15FFE2"/>
</linearGradient>
<linearGradient id="paint1_linear_13_7686" x1="0.409542" y1="29.729" x2="748.944" y2="258.457" gradientUnits="userSpaceOnUse">
<stop offset="0.129808" stop-color="#EE6818"/>
<stop offset="0.365385" stop-color="#EB367B"/>
<stop offset="0.788462" stop-color="#249AFF"/>
<stop offset="0.982854" stop-color="#15FFE2"/>
</linearGradient>
<linearGradient id="paint2_linear_13_7686" x1="0.409542" y1="29.729" x2="748.944" y2="258.457" gradientUnits="userSpaceOnUse">
<stop offset="0.129808" stop-color="#EE6818"/>
<stop offset="0.365385" stop-color="#EB367B"/>
<stop offset="0.788462" stop-color="#249AFF"/>
<stop offset="0.982854" stop-color="#15FFE2"/>
</linearGradient>
<linearGradient id="paint3_linear_13_7686" x1="0.409542" y1="29.729" x2="748.944" y2="258.457" gradientUnits="userSpaceOnUse">
<stop offset="0.129808" stop-color="#EE6818"/>
<stop offset="0.365385" stop-color="#EB367B"/>
<stop offset="0.788462" stop-color="#249AFF"/>
<stop offset="0.982854" stop-color="#15FFE2"/>
</linearGradient>
<linearGradient id="paint4_linear_13_7686" x1="0.409542" y1="29.729" x2="748.944" y2="258.457" gradientUnits="userSpaceOnUse">
<stop offset="0.129808" stop-color="#EE6818"/>
<stop offset="0.365385" stop-color="#EB367B"/>
<stop offset="0.788462" stop-color="#249AFF"/>
<stop offset="0.982854" stop-color="#15FFE2"/>
</linearGradient>
<linearGradient id="paint5_linear_13_7686" x1="0.409542" y1="29.729" x2="748.944" y2="258.457" gradientUnits="userSpaceOnUse">
<stop offset="0.129808" stop-color="#EE6818"/>
<stop offset="0.365385" stop-color="#EB367B"/>
<stop offset="0.788462" stop-color="#249AFF"/>
<stop offset="0.982854" stop-color="#15FFE2"/>
</linearGradient>
<linearGradient id="paint6_linear_13_7686" x1="0.409542" y1="29.729" x2="748.944" y2="258.457" gradientUnits="userSpaceOnUse">
<stop offset="0.129808" stop-color="#EE6818"/>
<stop offset="0.365385" stop-color="#EB367B"/>
<stop offset="0.788462" stop-color="#249AFF"/>
<stop offset="0.982854" stop-color="#15FFE2"/>
</linearGradient>
<linearGradient id="paint7_linear_13_7686" x1="0.409542" y1="29.729" x2="748.944" y2="258.457" gradientUnits="userSpaceOnUse">
<stop offset="0.129808" stop-color="#EE6818"/>
<stop offset="0.365385" stop-color="#EB367B"/>
<stop offset="0.788462" stop-color="#249AFF"/>
<stop offset="0.982854" stop-color="#15FFE2"/>
</linearGradient>
<linearGradient id="paint8_linear_13_7686" x1="0.409542" y1="29.729" x2="748.944" y2="258.457" gradientUnits="userSpaceOnUse">
<stop offset="0.129808" stop-color="#EE6818"/>
<stop offset="0.365385" stop-color="#EB367B"/>
<stop offset="0.788462" stop-color="#249AFF"/>
<stop offset="0.982854" stop-color="#15FFE2"/>
</linearGradient>
<linearGradient id="paint9_linear_13_7686" x1="0.409542" y1="29.729" x2="748.944" y2="258.457" gradientUnits="userSpaceOnUse">
<stop offset="0.129808" stop-color="#EE6818"/>
<stop offset="0.365385" stop-color="#EB367B"/>
<stop offset="0.788462" stop-color="#249AFF"/>
<stop offset="0.982854" stop-color="#15FFE2"/>
</linearGradient>
<linearGradient id="paint10_linear_13_7686" x1="0.409542" y1="30.0332" x2="748.944" y2="258.761" gradientUnits="userSpaceOnUse">
<stop offset="0.129808" stop-color="#EE6818"/>
<stop offset="0.365385" stop-color="#EB367B"/>
<stop offset="0.788462" stop-color="#249AFF"/>
<stop offset="0.982854" stop-color="#15FFE2"/>
</linearGradient>
<linearGradient id="paint11_linear_13_7686" x1="0.409542" y1="30.0332" x2="748.944" y2="258.761" gradientUnits="userSpaceOnUse">
<stop offset="0.129808" stop-color="#EE6818"/>
<stop offset="0.365385" stop-color="#EB367B"/>
<stop offset="0.788462" stop-color="#249AFF"/>
<stop offset="0.982854" stop-color="#15FFE2"/>
</linearGradient>
<linearGradient id="paint12_linear_13_7686" x1="0.409542" y1="30.0332" x2="748.944" y2="258.761" gradientUnits="userSpaceOnUse">
<stop offset="0.129808" stop-color="#EE6818"/>
<stop offset="0.365385" stop-color="#EB367B"/>
<stop offset="0.788462" stop-color="#249AFF"/>
<stop offset="0.982854" stop-color="#15FFE2"/>
</linearGradient>
<linearGradient id="paint13_linear_13_7686" x1="0.409542" y1="30.0332" x2="748.944" y2="258.761" gradientUnits="userSpaceOnUse">
<stop offset="0.129808" stop-color="#EE6818"/>
<stop offset="0.365385" stop-color="#EB367B"/>
<stop offset="0.788462" stop-color="#249AFF"/>
<stop offset="0.982854" stop-color="#15FFE2"/>
</linearGradient>
<linearGradient id="paint14_linear_13_7686" x1="0.409542" y1="30.0332" x2="748.944" y2="258.761" gradientUnits="userSpaceOnUse">
<stop offset="0.129808" stop-color="#EE6818"/>
<stop offset="0.365385" stop-color="#EB367B"/>
<stop offset="0.788462" stop-color="#249AFF"/>
<stop offset="0.982854" stop-color="#15FFE2"/>
</linearGradient>
<linearGradient id="paint15_linear_13_7686" x1="0.409542" y1="30.0332" x2="748.944" y2="258.761" gradientUnits="userSpaceOnUse">
<stop offset="0.129808" stop-color="#EE6818"/>
<stop offset="0.365385" stop-color="#EB367B"/>
<stop offset="0.788462" stop-color="#249AFF"/>
<stop offset="0.982854" stop-color="#15FFE2"/>
</linearGradient>
<linearGradient id="paint16_linear_13_7686" x1="0.409542" y1="30.0332" x2="748.944" y2="258.761" gradientUnits="userSpaceOnUse">
<stop offset="0.129808" stop-color="#EE6818"/>
<stop offset="0.365385" stop-color="#EB367B"/>
<stop offset="0.788462" stop-color="#249AFF"/>
<stop offset="0.982854" stop-color="#15FFE2"/>
</linearGradient>
<linearGradient id="paint17_linear_13_7686" x1="1.01537" y1="153.752" x2="300.868" y2="547.874" gradientUnits="userSpaceOnUse">
<stop offset="0.129808" stop-color="#C55715"/>
<stop offset="0.365385" stop-color="#C42E67"/>
<stop offset="0.788462" stop-color="#2684D4"/>
<stop offset="0.982854" stop-color="#19D5BE"/>
</linearGradient>
<linearGradient id="paint18_linear_13_7686" x1="1.01537" y1="153.752" x2="300.868" y2="547.874" gradientUnits="userSpaceOnUse">
<stop offset="0.129808" stop-color="#C55715"/>
<stop offset="0.365385" stop-color="#C42E67"/>
<stop offset="0.788462" stop-color="#2684D4"/>
<stop offset="0.982854" stop-color="#19D5BE"/>
</linearGradient>
<linearGradient id="paint19_linear_13_7686" x1="1.01537" y1="153.752" x2="300.868" y2="547.874" gradientUnits="userSpaceOnUse">
<stop offset="0.129808" stop-color="#C55715"/>
<stop offset="0.365385" stop-color="#C42E67"/>
<stop offset="0.788462" stop-color="#2684D4"/>
<stop offset="0.982854" stop-color="#19D5BE"/>
</linearGradient>
<linearGradient id="paint20_linear_13_7686" x1="1.01537" y1="153.752" x2="300.868" y2="547.874" gradientUnits="userSpaceOnUse">
<stop offset="0.129808" stop-color="#C55715"/>
<stop offset="0.365385" stop-color="#C42E67"/>
<stop offset="0.788462" stop-color="#2684D4"/>
<stop offset="0.982854" stop-color="#19D5BE"/>
</linearGradient>
<linearGradient id="paint21_linear_13_7686" x1="1.01537" y1="153.752" x2="300.868" y2="547.874" gradientUnits="userSpaceOnUse">
<stop offset="0.129808" stop-color="#C55715"/>
<stop offset="0.365385" stop-color="#C42E67"/>
<stop offset="0.788462" stop-color="#2684D4"/>
<stop offset="0.982854" stop-color="#19D5BE"/>
</linearGradient>
<linearGradient id="paint22_linear_13_7686" x1="1.01537" y1="153.752" x2="300.868" y2="547.874" gradientUnits="userSpaceOnUse">
<stop offset="0.129808" stop-color="#C55715"/>
<stop offset="0.365385" stop-color="#C42E67"/>
<stop offset="0.788462" stop-color="#2684D4"/>
<stop offset="0.982854" stop-color="#19D5BE"/>
</linearGradient>
<linearGradient id="paint23_linear_13_7686" x1="1.01537" y1="153.752" x2="300.868" y2="547.874" gradientUnits="userSpaceOnUse">
<stop offset="0.129808" stop-color="#C55715"/>
<stop offset="0.365385" stop-color="#C42E67"/>
<stop offset="0.788462" stop-color="#2684D4"/>
<stop offset="0.982854" stop-color="#19D5BE"/>
</linearGradient>
</defs>
</svg>
