<svg width="62" height="62" viewBox="0 0 62 62" fill="none" xmlns="http://www.w3.org/2000/svg">
<path d="M53.5542 17.3275C53.5363 17.7682 53.0438 16.6166 53.1538 17.5064C53.0475 17.3705 52.9388 17.2353 52.8302 17.102C52.9202 16.9972 53.0088 16.8909 53.0979 16.7849C53.2522 16.963 53.4042 17.1432 53.5548 17.3272C53.5546 17.3273 53.5544 17.3274 53.5542 17.3275ZM55.1461 16.8012C54.708 16.7829 54.2699 16.2289 54.3501 17.0587C54.4915 17.0475 54.6339 17.0385 54.7759 17.0291C54.8192 17.3107 54.8582 17.5924 54.8922 17.8718C54.9795 17.9332 55.0665 17.9951 55.1529 18.0581C55.0089 18.2676 54.8619 18.4741 54.7134 18.6793C54.6962 18.5704 54.6783 18.46 54.6597 18.3511C54.3088 18.0616 54.0946 17.7614 53.7872 17.2901C53.7658 17.3591 53.7446 17.4278 53.7226 17.4964C53.6617 17.2057 53.5958 16.915 53.525 16.6253C53.7287 16.7904 53.954 16.9802 54.1399 17.1407C54.2617 16.6433 53.7503 16.1747 53.5048 15.9294C53.1699 15.5936 53.3657 15.5906 53.1161 15.3429C53.0762 15.3034 52.9648 15.3714 52.902 15.2833C52.5905 14.8367 52.0045 13.9461 52.6225 14.2641C53.1289 15.0172 53.766 15.5308 54.156 16.3476C54.3327 15.9623 54.6869 16.3013 55.1461 16.8012ZM42.3491 6.20862C42.6695 6.17252 43.1385 6.48759 43.4102 6.77106C43.4106 6.77126 43.4109 6.77147 43.4113 6.77167C43.4718 6.83414 43.5253 7.12223 43.2952 6.98641C42.9216 6.76706 42.8932 6.35271 42.5782 6.46629C42.5064 6.37991 42.427 6.29601 42.3491 6.20862ZM41.4741 5.82706C41.2621 5.6388 41.4819 5.43888 41.7644 5.64519C41.7645 5.645 41.7646 5.6448 41.7647 5.64461C41.8817 5.73148 41.54 5.80822 42.0923 5.82472C42.1154 6.02114 42.1415 6.2029 42.162 6.39332C42.0505 6.34281 41.9477 6.29911 41.8303 6.24703C42.0254 6.03281 41.6852 6.01482 41.4741 5.82706ZM52.2237 13.9873C51.9999 14.1048 52.1115 14.2455 52.1518 14.5898C51.9897 14.3572 51.8241 14.1264 51.6553 13.8997C51.8448 13.9269 52.0334 13.9556 52.2237 13.9873ZM55.5945 19.8233C55.5947 19.8237 55.5949 19.8241 55.595 19.8245C55.6683 19.8958 55.7413 19.9676 55.8128 20.0387C55.7525 20.1249 55.692 20.2099 55.6309 20.2952C55.8332 20.5695 56.0317 20.851 56.2256 21.1363C55.958 21.1908 55.7898 20.6174 55.4896 20.3885C55.3828 19.9117 55.429 19.6332 55.6269 19.511C55.6168 19.615 55.6054 19.7187 55.5945 19.8233ZM2.90344 36.2879C3.00056 36.3863 3.09793 36.4821 3.196 36.5783C3.19672 36.4218 3.19089 36.2676 3.19943 36.1096C2.801 35.7802 3.0758 35.6866 2.96745 35.1721C2.66653 33.5958 2.21461 34.0448 2.82929 32.5366C2.88852 33.6975 3.20107 33.2224 3.54456 33.876C3.35815 34.0463 2.81846 33.4097 2.77806 33.89C3.09094 34.6737 3.41356 35.4083 3.73328 36.2462C3.76252 36.2134 3.79198 36.1808 3.82133 36.1482C3.77061 36.0146 3.72146 35.884 3.67293 35.7503C3.79469 35.8811 3.91567 36.0058 4.04104 36.1363C3.79035 35.9907 4.01066 36.4495 3.75581 36.4376C3.64188 36.4325 3.44591 36.248 3.31664 36.1394C3.32886 36.4845 3.35409 36.8368 3.38175 37.1846C3.2543 37.032 3.12801 36.8773 3.00332 36.7213C2.96848 36.5779 2.93571 36.435 2.90305 36.2907C2.90318 36.2898 2.90331 36.2888 2.90344 36.2879ZM56.4042 38.896C56.521 39.3748 56.2988 40.122 55.8847 40.3923C56.0732 39.8973 56.2453 39.4007 56.4042 38.896ZM55.7873 19.405C55.767 19.4667 55.7463 19.5268 55.7256 19.5882C55.567 19.4259 55.4069 19.2652 55.2454 19.1086C55.3426 19.0192 55.439 18.9284 55.5345 18.8371C55.6208 19.0248 55.7052 19.2151 55.7873 19.405ZM47.3921 8.88719C47.519 8.97658 47.5275 8.98825 47.6673 9.12252C47.6672 9.1223 47.6671 9.12208 47.667 9.12186C47.7242 9.17356 48.1707 9.63692 48.0527 9.66616C47.8095 9.46439 47.5489 9.2515 47.2938 9.0529C47.3252 8.99663 47.3624 8.94546 47.3921 8.88719ZM50.1418 11.4181C50.1419 11.4185 50.1421 11.419 50.1422 11.4195C50.2125 11.5124 50.2668 11.6118 50.345 11.7016C49.9392 11.499 50.0868 11.2598 49.7546 11.0397C49.4208 10.8215 49.1466 10.7704 49.156 10.2701C49.2851 10.3123 49.4375 10.3444 49.5757 10.3849C49.8784 10.879 50.0801 10.8825 50.5027 11.1016C50.382 11.2072 50.2623 11.3123 50.1418 11.4181ZM3.1097 29.1124C2.93012 28.9957 3.11857 28.886 3.12149 28.8741C3.12169 28.8744 3.12189 28.8746 3.1221 28.8748C3.01513 27.9204 3.21091 29.0016 3.30894 28.1205C3.34366 28.2555 3.3821 28.3882 3.41938 28.5212C3.31569 28.7153 3.20186 28.9177 3.1097 29.1124ZM19.7211 5.25977C19.7504 5.30587 19.7813 5.35143 19.8105 5.39758C19.3164 5.5983 19.2848 5.84761 18.8046 5.86117C19.1044 5.65487 19.4098 5.45422 19.7208 5.25918C19.7209 5.25938 19.721 5.25957 19.7211 5.25977ZM45.4061 7.01415C45.9665 7.24747 46.365 7.46179 46.7385 7.92888C46.7387 7.92931 46.7389 7.92974 46.7392 7.93017C46.7602 7.9575 46.5645 7.95649 46.5832 8.00473C46.6891 8.05934 46.8031 8.10958 46.9114 8.1638C46.8711 8.24628 46.8301 8.32823 46.7899 8.4101C46.5367 8.19258 46.2789 7.97916 46.0159 7.76956C46.0272 7.84108 46.0394 7.91285 46.05 7.98426C45.8012 7.84632 45.5524 7.7136 45.3005 7.58405C45.463 7.51244 45.6264 7.44198 45.7903 7.37183C45.6638 7.25149 45.5351 7.13295 45.4061 7.01415ZM11.8643 9.5905C11.975 9.57053 11.9088 9.76199 12.053 9.7011C12.1963 9.63992 12.33 9.37835 12.3907 9.54571C12.2554 9.69269 12.1167 9.85003 11.983 10.0029C12.6611 9.7901 12.981 9.17661 13.2249 9.45492C12.6901 9.7729 12.3364 10.1439 11.9726 10.6236C11.7869 10.3934 12.0633 9.79625 11.5948 9.85146C11.6833 9.76492 11.7758 9.67348 11.8638 9.59187C11.864 9.59141 11.8641 9.59096 11.8643 9.5905ZM61.6505 27.3839C61.6726 27.7939 61.8626 28.7445 61.7086 29.2726C61.6725 29.4045 61.1383 29.8439 61.0657 29.8417C60.8234 29.8335 60.7771 29.329 60.633 29.8751C60.6274 29.6928 60.613 29.5165 60.6016 29.3366C60.4401 29.3753 60.279 29.4132 60.1179 29.4495C60.1501 29.6645 60.1802 29.8809 60.2083 30.0981C60.1546 30.1096 60.1007 30.1209 60.0469 30.1323C60.0306 29.3555 59.832 29.818 59.6259 29.4268C59.5415 29.7951 59.4507 30.1641 59.3527 30.527C59.3648 30.3176 59.3707 30.0708 59.3807 29.8865C59.1048 29.8683 59.1776 30.3029 59.1259 30.3785C58.8506 30.7964 58.9441 28.6685 58.5106 28.5254C58.4898 28.8633 58.4647 29.2166 58.4322 29.5573C58.3793 29.4615 58.3259 29.365 58.272 29.2705C58.5148 28.4866 58.5408 27.6078 58.5883 26.6791C58.5658 26.5989 58.5427 26.5189 58.5203 26.4404C58.4004 26.4821 58.2806 26.5221 58.1605 26.5632C58.1287 26.4438 58.0961 26.3246 58.0626 26.2048C58.5221 26.502 58.4481 26.0055 58.5829 25.3527C58.7851 25.6505 58.7627 26.0693 59.0237 25.9995C58.6455 24.9085 58.6385 23.5439 58.1005 22.5378C57.9669 22.2903 57.6403 22.392 57.4763 21.7754C57.5192 21.7842 57.5858 21.7665 57.6379 21.7644C57.1328 20.7636 56.8079 20.1859 56.5047 19.0678C56.4175 19.1789 56.3289 19.2885 56.2406 19.3982C56.3935 19.5943 56.5447 19.7918 56.6923 19.9914C56.5613 20.2209 56.3926 20.0283 56.6507 20.6943C56.8564 21.2429 56.82 20.8846 56.9323 21.0136C57.0842 21.1893 56.9921 21.4224 57.1544 21.613C57.2786 21.7618 57.3804 21.5216 57.4846 21.9863C57.2172 21.871 56.9413 21.7595 56.6702 21.6543C56.6808 21.5316 56.6917 21.4093 56.7012 21.2859C56.7948 21.3741 56.8866 21.4617 56.9794 21.5519C56.7487 21.2019 56.5247 20.8778 56.2719 20.5301C56.6178 20.5416 56.3498 20.181 56.2251 19.9798C56.031 19.6659 56.3534 19.8699 56.2267 19.6629C56.0978 19.455 55.7723 19.3171 55.6392 18.9056C55.8649 19.0561 55.8477 18.7167 55.9917 18.7166C56.1364 18.7164 56.3565 19.1291 56.2997 18.6622C55.8353 17.9308 55.7831 18.9827 55.4637 18.5014C55.0786 17.9341 55.715 17.4147 55.9676 17.5203C56.1666 17.6039 56.3956 18.1301 56.5893 18.2233C56.363 17.1855 55.9112 17.4041 55.7495 17.2947C55.1465 16.9045 56.1648 16.8328 55.502 16.3362C55.6595 16.2627 55.8005 16.1957 55.952 16.1261C55.859 16.0266 55.7789 15.9716 55.6768 15.8467C55.6203 16.4215 55.4411 16.0817 55.3414 15.9148C55.1837 15.6513 55.2841 16.143 55.2057 16.0944C54.9977 15.9638 54.8636 15.645 54.8455 15.9017C54.8561 15.7854 54.8617 15.6614 54.8687 15.5424C54.606 15.2775 53.5519 14.9877 54.0983 15.5624C53.833 15.6455 53.8065 15.3661 53.7316 15.18C53.6567 14.9941 53.5169 15.0929 53.4463 14.9332C53.1609 14.2991 53.6542 14.4967 53.9073 14.4593C53.2459 13.7983 53.6911 14.5825 52.8215 13.5903C52.5976 13.6041 52.8003 14.2015 52.4135 13.8701C52.6153 13.6015 52.5789 13.1609 52.1949 12.53C52.0922 12.5234 51.9893 12.5179 51.8869 12.5125C51.8579 12.0188 52.2253 11.9596 51.4555 11.6559C52.2284 11.4956 51.7283 11.5821 51.4737 10.9019C51.4206 10.7636 51.7413 10.8978 51.6622 10.7085C51.6258 10.6224 51.403 10.5428 51.3135 10.3328C51.2717 10.2303 51.1129 9.69496 50.7797 9.54956C50.7262 9.95804 50.0768 9.7233 50.274 10.2944C49.6087 9.5583 48.9712 9.21398 50.1046 9.63529C49.9869 9.38819 49.8646 9.14193 49.7382 8.89674C49.5516 8.83697 49.3643 8.77792 49.177 8.72129C49.3323 8.49791 49.4064 8.45174 48.8282 8.03968C49.1069 8.1833 49.3844 8.3307 49.6615 8.48498C49.7054 8.45026 49.7756 8.43556 49.8027 8.38846C49.4486 8.21189 48.5883 7.57128 48.336 7.47453C48.0869 7.37408 48.4702 7.69479 48.3678 7.70484C47.5269 7.78758 47.8264 7.48116 47.4111 7.2998C47.1685 7.19614 47.6272 7.60939 47.5009 7.54853C47.0375 7.32264 47.0217 6.93595 46.646 6.67623C46.6823 6.91155 46.7128 7.14792 46.7386 7.38125C46.3599 7.10468 45.9245 6.81556 45.5257 6.63245C45.3693 6.56062 45.41 6.73928 45.3818 6.7319C45.2416 6.69535 44.7277 6.46892 44.6761 6.44089C44.2921 6.21906 44.3696 6.05615 43.9929 5.838C44.1501 5.90621 44.2972 5.97223 44.4497 6.04184C44.6598 5.82538 44.8731 5.61114 45.0873 5.39711C44.7173 5.15868 44.3406 4.92846 43.9586 4.70634C44.2003 4.94153 44.4376 5.18004 44.6689 5.42188C44.1168 5.38218 43.5713 5.36167 43.029 5.35692C42.8654 5.11424 42.6986 4.87385 42.5255 4.63433C41.8708 4.37837 41.7676 4.98045 41.667 4.3757C41.461 4.33564 41.2551 4.29806 41.0492 4.26228C41.1035 4.20481 41.1579 4.14721 41.2126 4.08999C40.9653 4.03925 40.7178 3.99163 40.4695 3.94814C40.623 4.28301 40.7584 4.62942 40.8958 4.95735C40.4364 4.83457 40.5057 4.62812 40.4589 4.55057C40.3332 4.3459 39.9134 4.40272 39.8172 4.22646C39.7842 4.16493 40.2761 4.18674 40.1805 3.97425C40.1655 3.93312 39.761 3.13583 39.3179 3.14625C39.2914 3.25502 39.2801 3.39513 39.2588 3.51587C38.7184 3.41453 38.6112 2.78112 38.7268 2.64366C38.4083 2.66905 37.9848 2.56575 37.8806 2.72372C37.7322 2.68943 37.5872 2.65699 37.4393 2.6253C37.6981 2.23974 37.0568 2.16789 36.9348 2.52582C37.1861 2.59202 37.4361 2.66206 37.6843 2.73479C37.3805 3.13653 38.0793 3.57472 36.5996 2.7989C36.3458 2.49913 37.1324 2.95006 36.9237 2.72093C36.5143 2.52155 36.0916 2.52488 35.7073 2.28681C35.2256 1.99499 35.8949 1.89342 34.6382 1.9708C37.1934 3.06275 34.2099 2.30328 32.9493 2.4386C32.6979 1.83816 31.8254 1.5344 30.5897 1.62404C30.4298 1.63571 30.2646 1.65402 30.0948 1.67916C30.1877 1.78466 30.3862 1.79358 30.5897 1.79729C30.7318 1.79979 30.8757 1.79962 30.9856 1.82577C31.252 1.89005 30.9621 1.99244 31.2909 2.08438C31.6193 2.17518 32.3099 2.32378 32.6309 2.47779C32.3401 2.55232 30.9644 2.74459 31.881 2.488C31.3806 2.3315 31.073 2.18751 30.5897 2.11151C30.4265 2.08624 30.2437 2.06933 30.0275 2.06497C29.7774 2.35607 29.8024 2.52356 28.9852 2.5734C29.4552 2.15234 28.4923 1.93266 28.6733 1.51455C29.2826 1.57312 28.9688 1.98819 29.3183 2.16072C29.3532 2.17692 29.8983 2.05889 30.0275 2.06497C29.464 1.72164 29.255 1.60163 29.5913 1.16482C29.1888 1.21552 28.9346 1.17815 28.9087 1.38177C28.8196 1.29902 28.7292 1.21663 28.6401 1.13459C28.5079 1.14545 28.3895 1.16206 28.2497 1.1714C28.4654 1.46061 28.0781 1.30122 27.8286 1.46404C27.5804 1.62804 27.9541 1.82837 27.241 1.90996C27.4866 1.95341 27.71 1.99193 27.9429 2.03834C27.4966 2.15799 27.0463 2.2897 26.6092 2.43031C26.9516 2.56776 27.6626 2.76648 27.6681 3.01369C27.4529 2.94065 26.7785 3.19011 26.7059 3.20922C26.418 3.27582 26.5544 3.10025 26.5319 3.09955C26.0593 3.09279 25.6883 3.21313 25.4711 3.01515C25.1439 3.18355 24.8729 3.17678 24.5073 3.26363C24.3067 3.3119 24.3844 3.47096 24.2602 3.46613C23.4377 3.44564 24.1055 3.02804 22.7323 3.85078C22.9446 3.91325 23.1537 3.98146 23.3631 4.04977C23.2092 4.13851 23.0579 4.2285 22.907 4.31978C22.7914 4.3309 22.6767 4.34232 22.5612 4.35493C22.4874 4.1058 22.4141 3.85598 22.3404 3.60681C22.2134 3.63086 22.0848 3.65679 21.9572 3.68291C22.1614 3.59041 22.366 3.50061 22.5718 3.41313C22.5784 3.36354 22.5837 3.31429 22.5904 3.26469C22.2524 3.28991 21.9137 3.32077 21.5731 3.35855C21.5954 3.44636 21.6181 3.53472 21.6406 3.6225C20.8936 3.74335 20.8444 3.68066 20.2707 4.16768C19.7595 4.36514 19.5004 4.88922 19.2837 5.16012C19.1615 5.15918 19.0388 5.15854 18.915 5.15982C18.8815 5.25803 18.8479 5.35626 18.8157 5.45447C18.644 5.41968 18.4697 5.38729 18.2958 5.35657C18.3289 5.60573 18.3263 5.68502 18.8558 5.52577C18.8109 5.86871 17.8994 6.17567 17.5094 6.27938C17.212 6.35542 17.3847 5.9811 17.3381 5.97245C17.1784 5.94173 16.7865 6.26128 16.6888 6.29932C16.2715 6.45893 16.0131 6.62999 15.6456 6.79682C15.5741 6.82875 15.3062 6.81525 15.2878 6.82153C15.1517 6.87697 14.8118 7.01199 14.7769 7.03348C12.9918 8.14644 15.1961 7.39149 13.6074 8.48075C13.7075 8.51629 13.8033 8.55463 13.9018 8.59183C13.7907 8.68331 13.679 8.77636 13.5695 8.86949C13.3804 8.92406 13.4683 8.67998 13.2531 8.99253C13.2025 8.89204 13.1521 8.79129 13.1032 8.69014C13.0157 8.83645 12.934 8.97906 12.8468 9.12861C12.4046 8.9933 11.635 9.55486 11.386 9.17984C11.2987 9.05076 11.7136 8.47827 11.3321 8.59624C11.0878 8.76921 11.3595 8.77217 11.2755 8.85957C10.6739 9.49223 10.5412 9.27819 10.3286 9.57432C10.3642 9.69214 10.3997 9.81321 10.4363 9.93206C10.3185 10.0024 10.2007 10.074 10.0826 10.1473C10.1128 10.2212 10.1423 10.2961 10.1729 10.3698C10.2643 10.2841 10.3675 10.1881 10.4527 10.111C10.5299 10.4215 9.62495 11.5611 9.82911 10.9925C9.91219 10.7592 10.2349 10.4883 9.80864 10.4443C9.5678 10.7628 9.29889 11.1257 9.06019 11.4686C8.99738 11.4303 8.93501 11.3912 8.87209 11.353C8.53636 11.8077 9.09194 11.6121 9.2068 11.7171C9.12631 11.8151 9.04521 11.9143 8.96606 12.0133C8.8778 12.0084 8.78864 11.9998 8.70009 11.9991C8.78208 12.0758 8.93327 12.2958 8.61991 12.5246C8.41786 12.6732 8.44129 12.1966 8.17833 12.5841C8.337 12.6658 8.60346 12.6689 8.33011 13.1052C8.15559 13.033 7.98049 12.9867 7.80476 12.9014C7.54963 13.5208 7.14661 13.592 6.88028 14.3351C6.71032 14.8084 6.75024 15.5944 5.98972 15.4925C5.78983 15.7853 5.99893 15.7797 5.97909 15.889C5.8894 16.4033 5.42436 16.5575 5.36173 16.6299C4.96879 17.0852 4.95156 17.3724 4.59692 17.7322C4.72521 17.7664 4.84192 17.8085 4.96479 17.8464C4.98505 17.3701 5.09413 17.1739 5.42525 16.6571C5.34859 16.85 5.27515 17.0428 5.20315 17.2363C5.31226 17.2558 5.42112 17.2758 5.5289 17.2969C6.07517 15.4514 6.41507 16.17 5.80797 17.5937C5.573 17.6211 5.33578 17.656 5.10002 17.6881C4.96058 18.6344 4.5507 18.9046 4.10059 19.8381C4.04722 19.9491 3.98966 20.4055 3.92903 20.5868C3.93084 20.5841 3.93266 20.5814 3.93448 20.5786C4.06602 20.7545 4.20179 20.6333 4.36289 20.674C4.34635 20.7768 4.33009 20.8803 4.31494 20.9826C4.12004 21.1535 4.04738 21.0433 3.92945 21.4791C4.0676 21.4618 4.20544 21.4461 4.34342 21.4305C4.18939 21.891 3.96174 22.1572 3.88854 22.6086C3.86476 22.522 3.84097 22.436 3.818 22.349C3.42106 23.268 2.93221 22.3048 3.08116 23.1392C3.00648 23.1697 2.93155 23.1991 2.85694 23.2303C2.92237 22.9187 2.99344 22.6086 3.06866 22.3014C2.98336 22.2692 2.89861 22.2365 2.81299 22.2055C2.74093 22.5414 2.6752 22.8805 2.61511 23.2193C2.61918 22.9616 2.62704 22.7022 2.63808 22.444C2.48569 22.8147 2.33983 23.193 2.20287 23.5702C2.62898 23.2399 2.53729 23.7809 2.88394 23.759C2.45626 24.3644 1.97429 24.8424 2.02811 25.9602C2.04118 26.1826 2.28406 26.0967 1.92163 26.6626C2.30419 26.5671 2.38157 27.339 2.74259 27.2815C2.74951 27.0738 2.76598 26.8596 2.77287 26.6582C2.62212 26.8674 2.28457 26.8655 2.23461 26.5011C2.17017 26.0362 2.51384 25.4206 2.14464 25.383C2.19397 25.207 2.2355 25.0431 2.28418 24.8733C2.36031 24.9623 2.43769 25.0493 2.51483 25.1359C2.46645 24.6223 2.58297 24.3184 2.8617 24.1393C2.78149 24.7278 2.72061 25.3113 2.67726 25.9C2.70688 25.8171 2.73718 25.7334 2.76698 25.6509C2.92799 26.1266 3.21773 25.7172 3.14589 26.5276C3.03934 26.5072 2.93259 26.4877 2.82552 26.4671C3.06605 26.8032 2.97225 27.6053 3.33324 27.3868C3.20443 27.6159 3.13518 27.6617 3.30049 27.8145C2.98692 28.4207 2.64609 28.8257 2.27879 28.566C2.32349 28.8147 2.37142 29.0648 2.42271 29.3073C2.53314 29.1718 2.64406 29.0375 2.75648 28.9036C2.72588 29.3228 2.70482 29.7409 2.69342 30.1607C2.38081 30.1967 2.61907 29.3482 2.33605 29.5858C2.27871 29.6336 2.39136 29.8652 2.3591 29.9244C2.00962 30.5544 2.27241 29.5599 2.01036 29.7409C1.93948 30.4105 1.7141 30.2318 1.70648 30.527C1.70433 30.6519 1.74159 30.8635 1.85939 31.2536C1.77096 31.2907 1.68089 31.3308 1.59308 31.3659C1.60267 31.8288 1.80326 31.7805 1.86203 32.1738C1.89939 32.4185 1.56785 32.7569 1.83175 33.0105C1.88175 33.0533 2.26762 32.5683 2.3401 33.5154C2.40719 34.2539 2.06974 33.9833 2.0134 34.3992C1.95623 34.8192 2.5273 35.6615 2.10956 36.0172C2.13182 35.7956 2.11759 35.5223 2.13059 35.2802C2.02244 35.2006 1.916 35.1223 1.80921 35.0418C2.0119 35.5622 1.97686 36.1397 2.27056 36.4523C2.08254 37.2374 2.59881 37.9497 2.91673 37.6397C2.80534 37.4264 2.70409 37.7149 2.72943 37.3719C2.80877 37.3181 2.88738 37.2628 2.96699 37.2095C3.08545 37.7463 3.19397 38.1187 2.86234 37.9446C2.87837 38.0301 2.89457 38.1146 2.91137 38.1998C3.10661 38.1619 3.30202 38.1218 3.49711 38.0833C3.54577 38.1748 3.59482 38.2664 3.64437 38.357C3.63379 38.4769 3.62356 38.5973 3.61438 38.719C3.27177 38.664 3.17722 38.4092 3.2728 39.3012C3.3768 39.2705 3.48075 39.2411 3.58474 39.2104C3.68228 39.9457 3.43639 40.0521 3.77543 40.9182C3.16509 40.3822 3.67312 39.7887 2.95937 40.0384C2.94725 39.8508 2.93715 39.6618 2.92874 39.4746C2.8161 39.4822 2.70332 39.4896 2.59096 39.4978C2.93952 40.4325 4.19615 41.6452 4.03171 42.4211C4.11701 42.4689 4.19559 42.5196 4.28557 42.5656C4.29175 43.2645 4.99239 43.2241 4.95527 43.96C4.9537 44.0367 4.34065 44.1965 4.77322 44.9358C4.83179 44.8787 4.94252 44.8043 5.02124 44.7408C5.06794 44.9242 5.11411 45.1078 5.163 45.2903C5.24268 45.2822 5.32308 45.2752 5.40307 45.2663C5.27022 44.9838 5.14281 44.6998 5.01924 44.4135C5.16458 44.6282 5.31338 44.8419 5.46389 45.0517C5.39947 44.7017 5.32921 44.5706 5.59363 44.6513C5.74552 44.8963 5.90171 45.1387 6.0605 45.3783C6.1177 45.3782 6.17531 45.3776 6.23246 45.3772C6.2847 45.1827 6.33571 44.9905 6.39384 44.7976C6.66555 45.4913 7.0086 46.0301 7.09525 46.6626C7.11131 46.7699 6.75602 46.596 7.27929 47.0432C7.2031 47.1098 7.14685 47.1719 7.07776 47.2354C7.78725 47.737 7.87533 47.9928 8.2569 48.7884C8.05538 48.238 8.27024 48.701 8.43861 48.7445C8.55363 48.7742 8.30804 48.4904 8.39227 48.4769C8.47611 48.4656 9.00893 48.6492 8.7758 48.3096C7.67119 47.8962 8.06895 47.2404 7.10042 46.3433C7.2769 46.4656 7.45519 46.5865 7.63322 46.7036C7.6225 46.5968 7.61395 46.501 7.60291 46.3865C7.91649 47.0402 7.78073 46.7115 8.02686 46.8951C8.27391 47.0784 8.65673 47.4538 8.89802 47.7149C8.97404 47.7974 8.79383 47.7896 8.9429 47.9951C9.04445 48.1364 9.49923 48.3681 9.39037 48.6037C9.3224 48.7604 8.49299 48.4466 9.19273 49.2582C9.21225 49.5101 8.90843 49.0908 8.88821 49.0936C8.68875 49.1384 9.02396 49.7337 9.335 49.8679C9.36023 49.878 9.30157 49.6052 9.51885 49.7624C10.0357 50.1319 10.1684 50.4953 10.3032 50.9371C10.516 50.7887 11.0947 50.9381 11.5073 51.4418C11.5809 51.4102 11.6537 51.3769 11.7274 51.3445C11.6276 51.3062 11.5283 51.2668 11.4286 51.2271C11.3796 51.1194 11.3182 51.0162 11.2783 50.9041C11.792 51.3012 12.0974 51.0969 12.4089 51.2021C13.4781 51.5455 12.404 51.8458 12.1505 51.8392C12.0885 51.6997 12.0363 51.5575 11.9801 51.4162C11.9323 51.4926 11.8843 51.5696 11.8354 51.6457C13.0449 52.6877 11.6384 52.2444 12.1631 52.902C12.6076 52.702 13.089 53.0436 13.545 53.7233C13.6151 53.7722 13.6847 53.8223 13.7556 53.8701C13.8044 53.8267 13.8612 53.7477 13.9044 53.7271C14.695 54.2001 14.4676 54.8418 14.5066 54.947C14.6844 55.403 15.1597 55.2381 15.2591 55.2958C15.6844 55.5416 15.7189 55.7637 16.1637 55.9328C16.6426 56.1102 16.4072 55.8247 16.5984 55.795C16.7507 55.772 17.1033 55.9437 17.2921 55.931C17.198 55.9723 17.098 56.0085 17.0032 56.0493C17.4078 56.3882 17.7425 56.677 18.2669 56.9524C19.1111 56.6989 19.2392 57.8219 19.3436 56.9945C18.8554 56.726 18.6135 56.5113 18.4368 56.2015C18.7718 56.3314 19.1093 56.4557 19.4491 56.5728C19.5107 56.6951 19.5456 56.8033 19.626 56.9341C19.9454 56.8659 20.4946 57.1671 20.7449 57.1991C21.91 57.3409 21.6609 56.9188 22.4964 57.7395C21.7647 57.5715 21.6801 57.8183 20.9815 57.537C21.0715 57.7675 21.4503 57.8556 21.1413 57.986C21.858 58.1698 21.6944 57.902 22.0182 57.8203C22.2962 57.7489 22.7658 57.8767 22.7941 57.6778C22.8117 57.7963 22.82 57.9084 22.8387 58.0268C23.2924 58.1533 23.7473 58.269 24.2058 58.3725C23.985 58.4389 23.7627 58.5029 23.5389 58.5636C23.6767 58.6425 23.816 58.7203 23.9561 58.7972C25.1641 58.7385 27.0645 59.6512 26.8638 58.7222C27.4175 58.7641 27.4753 58.8794 27.7608 59.0778C27.8006 59.0139 27.8383 58.9611 27.8784 58.8894C28.229 58.9932 28.5227 58.7611 28.833 58.8463C29.1447 58.9304 29.2127 59.1719 29.2767 58.7722C29.4739 58.8968 29.6735 58.9998 29.8753 59.112C30.0009 59.0236 30.1254 58.9355 30.2478 58.846C30.3611 58.8758 30.4752 58.9049 30.5897 58.9332C30.6682 58.9527 30.7467 58.9718 30.8253 58.9907C30.9271 58.7999 31.6811 58.8665 32.0029 58.7185C32.3259 58.9077 32.3611 59.5655 33.1076 59.3877C33.0743 59.2283 33.0416 59.0692 33.009 58.9096C33.1813 58.929 33.354 58.9468 33.5283 58.9629C33.5439 59.0144 33.5582 59.066 33.574 59.1174C33.4844 59.1102 33.3976 59.1025 33.3088 59.0939C33.3927 59.1757 33.4755 59.2569 33.5596 59.3382C33.8104 59.1796 34.0569 59.0178 34.2997 58.8528C33.9375 58.7988 33.5724 58.7383 33.2181 58.6703C33.6401 58.5116 33.9603 58.5938 34.3195 58.4132C34.6763 58.5902 34.5759 58.7335 34.4725 58.9923C34.5937 58.955 34.7159 58.9175 34.8361 58.8788C34.7893 59.1292 35.0234 59.247 34.2873 59.325C34.3465 59.3872 34.4066 59.4458 34.4655 59.5105C34.5851 59.4836 34.6716 59.5307 34.8004 59.4853C35.1514 59.361 35.3587 58.8936 35.3086 58.7508C35.2833 58.6763 34.9573 58.8795 34.9542 58.7677C34.9505 58.495 35.755 58.4946 34.5772 58.3996C34.9275 58.1754 35.031 58.2906 35.4547 58.2685C35.4068 58.1857 35.3603 58.1031 35.3142 58.0198C35.5118 58.0281 35.7098 58.0341 35.9077 58.0382C35.7211 58.5463 37.197 58.4293 35.9745 59.0824C36.3647 59.0303 36.7559 58.9699 37.145 58.9027C37.0765 58.9671 37.0073 59.0308 36.9378 59.0947C36.7576 59.1089 36.5774 59.1219 36.398 59.1331C36.6206 59.1765 36.8465 59.2163 37.0722 59.2543C37.5372 59.0388 37.685 58.8292 37.8524 58.5763C37.2621 58.5721 37.4932 58.7237 37.0655 58.8649C37.052 58.7356 37.0057 58.6245 37.0133 58.4837C37.2976 58.6956 37.9786 58.3236 38.141 58.2633C38.6389 58.0843 38.3107 58.4486 38.6537 58.3567C38.9979 58.2632 39.3481 57.99 39.7061 58.1456C39.6554 58.0087 39.5861 57.8726 39.5251 57.7527C40.0295 57.5345 39.981 57.7298 40.0424 57.733C41.0243 57.7752 41.3871 57.3039 42.3208 56.8517C42.1816 56.8643 42.043 56.8805 41.904 56.894C42.4946 56.2953 42.0513 56.6026 41.3928 56.7648C41.9867 56.5522 42.2083 56.1606 42.5704 55.9038C42.9338 55.6483 43.6636 55.4259 43.9569 55.3853C43.4793 55.8359 42.8115 56.0434 42.1894 56.3741C42.3236 56.4768 42.4471 56.5589 42.5917 56.6722C42.8549 56.2073 43.1665 56.2851 43.3149 56.2582C43.7469 56.1781 43.6112 55.945 43.9704 56.0829C43.9151 56 43.8698 55.9297 43.8177 55.8524C44.6012 55.4918 45.5031 55.1583 45.7813 54.5465C45.952 54.7201 46.1081 54.8926 46.2899 55.0646C46.5063 54.7128 46.871 54.6892 47.107 54.4754C47.3397 54.2623 47.1327 54.1734 47.3856 53.9016C47.432 53.8514 47.6169 53.8663 47.6977 53.6961C47.7838 53.5237 47.8598 52.6288 48.2734 53.0391C48.519 52.8494 48.76 52.6808 48.9996 52.4926C48.7933 52.7083 48.583 52.9201 48.3705 53.1291C48.6566 53.0826 48.9419 53.032 49.2296 52.9756C49.1747 52.8583 49.1181 52.7394 49.0626 52.6246C49.4865 52.069 49.9909 51.8933 50.4603 51.3812C50.5375 51.2955 50.1723 51.3049 50.581 50.9969C50.9849 50.6875 51.5912 50.7395 52.0532 49.9685C52.0769 49.9285 51.9851 49.5029 52.3739 49.429C52.4628 49.4115 52.3271 49.6921 52.49 49.6165C52.6549 49.5425 53.1747 49.0163 53.3448 49.0793C53.2921 49.0465 53.2135 49.0419 53.1509 49.0194C53.208 48.9035 53.2651 48.7863 53.3217 48.6692C53.4137 48.7276 53.5065 48.7854 53.5983 48.8433C53.8535 48.1108 53.7484 47.5797 54.4625 46.7849C54.164 46.9431 53.8639 47.0943 53.5644 47.238C53.6064 47.3681 53.6481 47.4994 53.6892 47.6296C53.3635 47.9948 53.0285 48.3522 52.6862 48.6984C52.7327 48.84 52.7788 48.9809 52.8234 49.1236C52.7271 49.2131 52.6316 49.3012 52.5344 49.3892C52.4866 49.3052 52.4392 49.2215 52.3918 49.1369C52.243 49.3455 52.0913 49.5529 51.9375 49.7568C51.8844 49.0207 52.9135 48.6912 52.5245 48.4545C52.6502 48.4109 52.7764 48.3664 52.9025 48.321C52.7634 48.1457 52.957 48.0062 53.2314 47.7023C53.0894 47.7117 52.9431 47.7285 52.8055 47.729C53.1672 47.5128 53.5697 46.9403 53.8487 46.6371C53.9719 46.5039 53.9997 46.7414 54.0454 46.7079C54.2842 46.5354 54.3442 45.944 54.4203 45.8642C54.8806 45.3863 55.5574 45.278 55.614 44.4752C55.1724 45.0819 55.403 44.7469 55.1058 44.8792C55.0124 44.9211 54.4191 45.6725 55.0736 44.6773C55.1643 44.5765 56.4893 42.8098 56.4066 43.5702C56.4893 43.2109 56.5188 42.915 56.5707 42.5817C57.5658 42.1574 56.8242 42.1286 56.3876 42.1826C56.4391 42.0648 56.4853 41.9514 56.5383 41.83C56.7907 42.2529 57.3843 40.9212 57.3563 40.3864C57.3506 40.2098 57.0736 40.5947 57.1478 40.2199C57.2352 40.0616 57.3369 39.882 57.4277 39.7123C57.102 39.89 57.1844 39.3507 56.9387 39.2785C57.2604 39.0304 57.7983 38.9166 57.9901 39.1785C57.9765 38.8703 57.9578 38.5642 57.9333 38.2597C57.8391 38.3712 57.7442 38.4833 57.6486 38.5924C58.0756 37.7413 57.9808 36.4952 58.5416 36.4127C58.5635 36.2893 58.5851 36.166 58.6053 36.0433C58.5239 35.9882 58.442 35.9347 58.3604 35.8803C58.5422 35.3481 58.7096 34.8052 58.8601 34.2593C58.8489 34.7622 58.9585 34.9016 58.7678 35.4059C58.9048 35.2234 59.0413 35.033 59.1739 34.8497C59.0078 34.0189 58.849 33.892 59.0316 32.7167C59.0428 32.6659 59.3299 31.7733 59.3506 31.7433C59.4609 31.6054 59.6038 31.8277 59.6593 31.7665C59.8201 31.601 60.2097 30.51 60.2615 30.5273C61.0042 30.7903 60.7761 34.5993 60.5711 35.6108C59.1802 46.335 51.1512 55.2346 41.2972 58.9495C41.1956 58.9891 41.2757 59.0675 41.2336 59.0879C40.9701 59.2136 40.6507 59.158 40.5482 59.1866C40.3289 59.248 40.4948 59.3457 40.3368 59.3995C38.7002 59.948 37.0945 60.2546 35.4015 60.5511C35.2906 60.5702 35.3857 60.437 35.1943 60.4875C35.0968 60.5141 34.8086 60.7379 34.58 60.7701C33.7811 60.8824 33.1079 60.8881 32.2601 60.9383C31.7998 60.9661 31.1098 60.9711 30.5897 60.9724C30.5886 60.9724 30.5875 60.9724 30.5865 60.9724C30.3571 60.9736 30.1172 61.053 29.8906 61.0507C29.5694 61.0465 29.6404 60.8809 29.5916 60.8692C29.3784 60.8168 29.3415 60.9983 29.137 60.9846C28.7559 60.9566 28.7407 60.8346 28.2582 60.81C27.9141 60.7939 27.1166 60.8122 26.6776 60.7818C25.684 60.5159 24.4126 60.3366 23.4728 60.1558C22.9179 60.0496 22.9108 59.8674 22.6889 59.8094C21.9095 59.6014 21.2578 59.6272 20.5314 59.3831C19.5697 59.0564 18.7908 58.5852 17.907 58.1688C17.7638 58.101 17.7308 58.2584 17.5876 58.1957C17.0575 57.9641 16.383 57.6511 15.9421 57.3831C15.4488 57.0833 15.3804 56.7812 14.8787 56.5339C14.7318 56.4607 14.5861 56.606 14.3375 56.4807C13.9402 56.2796 13.6339 55.8651 13.3926 55.6755C13.0614 55.4144 13.2454 55.792 12.7958 55.4404C12.7774 55.4257 12.7928 55.2583 12.6904 55.1924C12.3928 54.9985 12.3517 55.1128 11.9434 54.7873C11.9028 54.7567 11.4474 54.2205 11.3965 54.1758C11.0832 53.9224 10.5013 53.3568 10.3062 53.2183C9.60634 52.7239 9.94797 53.3345 9.74455 52.4955C9.43465 52.3612 9.12616 52.224 8.80687 52.0615C9.03878 52.149 8.50774 51.3876 8.45992 51.346C8.04036 51.0108 8.11725 51.3702 7.6865 50.845C8.59812 51.2267 7.14755 50.1608 6.89685 49.8498C5.65563 48.4068 4.76942 46.9079 3.84448 45.2438C3.53443 44.6874 3.06503 43.962 2.7848 43.3456C2.71895 43.2021 2.86025 43.2684 2.8047 43.1415C2.749 43.0149 2.70913 43.2015 2.64955 43.0548C2.28192 42.135 2.20323 41.3495 1.65429 40.5892C1.67635 40.5351 1.70558 40.5264 1.72208 40.4441C1.24645 39.8228 1.16109 38.3595 1.08593 37.8373C0.95819 37.0178 0.75941 36.8392 0.675927 36.2422C0.562894 35.4472 0.721847 34.2219 0.277395 34.8221C0.185019 34.2814 0.119913 33.7477 0.120596 33.1938C0.120784 33.1319 0.256428 33.163 0.257044 33.1382C0.262938 32.9815 0.140869 32.9402 0.127448 32.835C0.0921103 32.5501 0.267057 33.0062 0.198801 32.6019C0.164279 32.3892 0.0493135 32.2695 0.0234127 31.6738C0.0082854 31.2964 0.000419617 30.9139 0.000208974 30.527C-0.0106932 27.2351 0.589316 23.7504 1.68848 20.6198C1.7726 20.38 1.59602 20.4958 1.71056 20.1972C2.0993 19.1479 3.09661 17.424 3.51987 16.5733C3.93642 15.718 3.67463 15.8186 3.90116 15.256C3.94583 15.1476 3.99088 15.2834 4.0447 15.1934C4.40495 14.5871 4.99532 13.9669 5.33335 13.5138C5.55781 13.213 5.40328 13.1428 5.54346 12.9215C5.75381 12.5918 6.12859 12.3709 6.25733 12.2097C6.86307 11.4507 7.18555 10.8469 7.84242 10.2122C7.79116 10.2141 7.74996 10.2089 7.70267 10.2073C8.4246 9.40372 9.18757 8.63952 9.98951 7.91657C9.92914 7.9259 9.86979 7.93408 9.80898 7.94342C10.7642 7.10359 10.9044 7.49101 10.3126 6.97479C10.3657 6.89307 10.4208 6.80454 10.4731 6.72751C10.7054 7.05411 11.4739 6.77461 12.3067 6.2738C12.3662 6.23708 12.5217 5.63986 12.7506 6.04149C12.7847 5.87779 12.7997 5.77161 12.8285 5.62984C13.077 5.62292 13.3258 5.61636 13.572 5.61553C13.651 5.53635 13.7322 5.45729 13.8122 5.37899C13.7758 5.29518 13.7135 5.22459 13.6941 5.13141C14.1137 4.82952 15.0726 4.36972 15.42 4.16153C16.2766 3.63234 17.0975 2.94727 17.924 2.85869C18.2618 2.67635 17.8408 2.67048 18.3741 2.45938C18.4691 2.51539 18.5588 2.5699 18.6566 2.62813C18.929 2.07965 19.1158 2.2627 19.7393 2.111C20.1628 2.01054 20.3936 1.82398 20.789 1.70895C20.8892 1.68015 20.9126 1.79594 20.9787 1.76979C21.1988 1.68121 21.8004 1.32476 21.9618 1.27472C23.4198 0.804443 24.712 0.545588 26.1589 0.375036C26.3138 0.357059 26.097 0.27146 26.2578 0.253376C26.5169 0.224949 26.3893 0.422026 26.5393 0.410501C26.9575 0.380238 26.9381 0.191645 27.5238 0.120919C28.4867 0.00834394 29.5328 -0.020215 30.5897 0.0130781C31.639 0.0453597 32.6895 0.138363 33.6841 0.245504C33.7467 0.251866 33.7544 0.14233 33.823 0.148427C34.2715 0.190121 34.7013 0.395177 35.0996 0.452923C35.7643 0.550859 36.2892 0.488862 36.9427 0.626339C38.2202 0.899671 39.3198 1.28498 40.5839 1.72552C41.6149 2.08998 42.5048 2.43149 43.591 2.94188C48.3152 5.15664 52.8114 8.48513 55.7129 12.9663C55.7862 13.0798 55.6751 13.0901 55.702 13.1214C55.9582 13.4185 56.0857 13.3768 55.9352 13.6438C56.2531 14.0264 56.5131 14.0476 56.8171 14.5702C56.9766 14.8497 56.5812 14.8066 56.9968 15.1888C57.365 15.5398 57.2696 14.9773 57.8026 16.3498C57.8161 16.3867 57.7316 16.6434 57.9118 16.8905C58.091 17.1411 58.0638 16.7607 58.4196 17.4061C59.2555 18.9297 59.8668 21.0497 60.3993 22.982C60.4385 23.0994 60.8106 24.2624 60.8979 24.4907C61.0773 24.9292 61.2036 24.8067 61.3411 25.4028C61.4449 25.8673 61.3386 26.2698 61.4372 26.8142C61.4482 26.8775 61.6303 26.9655 61.6505 27.3839ZM3.65099 37.9938C3.83919 38.0505 4.46781 38.0603 4.46977 38.6928C4.47072 38.7544 3.97695 38.5757 4.01576 38.9229C3.87254 38.6156 3.76625 38.3066 3.65037 37.994C3.65057 37.9939 3.65078 37.9939 3.65099 37.9938ZM57.9297 30.4096C57.9583 29.9504 57.9753 29.4923 57.9813 29.0343C58.0716 29.3458 58.1565 29.6587 58.2368 29.9753C58.1356 30.1218 58.0331 30.2658 57.9297 30.4096ZM17.0829 6.41861C17.0833 6.4184 17.0837 6.41818 17.0841 6.41796C16.6995 6.72383 16.3258 7.0384 15.9612 7.36201C15.973 7.28619 15.9851 7.21004 15.9977 7.13412C16.2738 6.85424 16.5562 6.57996 16.8455 6.31074C16.9249 6.34642 17.0041 6.38231 17.0829 6.41861ZM20.3182 4.2126C20.6379 4.16226 20.6071 4.29877 20.8083 4.3434C20.8082 4.3432 20.8081 4.343 20.808 4.3428C20.861 4.35413 21.0684 4.30516 21.1463 4.28202C21.0935 4.22401 21.0326 4.17001 20.9772 4.11366C21.6182 3.69169 23.1488 3.85748 21.5014 4.66852C21.4966 4.57323 21.4911 4.47872 21.4868 4.38332C20.6406 4.70242 19.6188 4.91783 20.3182 4.2126ZM6.76569 44.6356C7.42389 45.1472 7.59915 45.3123 7.95926 46.2019C7.81399 46.1416 7.66869 46.0794 7.52368 46.016C7.50841 45.8382 7.49513 45.662 7.48358 45.4851C7.48334 45.4847 7.48311 45.4844 7.48286 45.484C7.38971 45.5075 7.29624 45.5308 7.20352 45.5548C7.05199 45.2511 6.90509 44.9431 6.76569 44.6356ZM48.6909 9.13271C48.4689 9.73107 48.6484 9.41988 48.0853 9.13003C47.8901 9.03131 47.9853 9.24385 47.8715 9.17387C47.2573 8.80274 47.45 8.45471 47.7069 8.38734C48.0412 8.62822 48.3724 8.88009 48.6898 9.13184C48.6902 9.13213 48.6905 9.13242 48.6909 9.13271ZM58.2134 25.0905C58.2135 25.091 58.2135 25.0914 58.2136 25.0918C58.074 25.1378 57.9792 24.86 57.9068 25.2088C57.8601 24.9643 57.8102 24.7181 57.7562 24.4723C57.7855 24.5414 57.8142 24.6124 57.8429 24.6819C57.8783 24.6076 57.914 24.5327 57.9487 24.4578C57.7654 24.4067 57.8435 24.3051 57.8374 24.0348C57.6798 24.1472 57.5215 24.2581 57.3629 24.3679C57.3475 24.0619 57.3275 23.7568 57.3013 23.449C57.344 23.4338 57.3868 23.4186 57.4295 23.4034C57.3442 23.3069 57.2582 23.2127 57.172 23.1181C57.2156 23.0738 57.259 23.0305 57.3025 22.9859C57.2256 22.8636 57.1479 22.7422 57.0689 22.6221C57.1816 22.5445 57.3247 22.82 57.1357 22.3124C57.3126 22.4311 57.4884 22.5526 57.6643 22.6783C57.8835 23.4752 58.0662 24.2787 58.2134 25.0905ZM43.9128 6.07607C44.7113 6.49111 44.4383 6.45237 44.1147 6.60706C44.0501 6.43025 43.9819 6.25281 43.9128 6.07607ZM4.78964 19.3656C4.87023 19.688 4.955 20.0049 5.03824 20.322C4.94911 20.8469 4.42587 21.2186 4.42759 20.7935C4.43458 20.2778 4.80217 19.8843 4.78964 19.3656ZM2.58544 31.2591C2.66603 30.6033 2.91701 31.2155 3.06206 31.3539C2.84271 31.5392 2.8702 31.7855 2.86754 32.19C2.82983 31.8135 2.57187 31.3695 2.5848 31.2591C2.58501 31.2591 2.58522 31.2591 2.58544 31.2591ZM10.8465 10.847C11.026 10.6583 11.1731 10.4363 11.3895 10.3252C11.4711 10.5131 11.017 10.7088 11.4538 10.6844C11.3385 10.8025 11.2241 10.9215 11.1122 11.041C11.1021 10.8834 10.9402 10.9196 10.8474 10.847C10.8471 10.847 10.8468 10.847 10.8465 10.847ZM35.7131 3.38924C35.2566 3.07296 35.1368 3.15217 34.6107 3.23345C34.5638 3.03774 35.2203 2.81941 35.6169 2.82314C35.6498 3.01172 35.6817 3.20045 35.7131 3.38924ZM54.094 45.2056C54.2337 45.4358 53.7639 46.2182 53.4434 46.5448C53.4454 46.4806 53.4469 46.4161 53.4481 46.3518C53.6728 45.9742 53.8882 45.5919 54.094 45.2056ZM2.86346 32.3823C2.86597 32.3146 2.86719 32.2505 2.86754 32.19C2.87408 32.2569 2.8741 32.3217 2.86346 32.3823ZM16.093 55.4384C15.7882 55.5187 16.3211 55.9205 15.6723 55.435C15.6722 55.4352 15.6721 55.4354 15.672 55.4356C15.2463 55.1104 15.1555 55.0344 14.7524 54.7519C15.06 54.6097 15.9382 55.0536 14.8342 54.267C14.8196 54.2568 14.7542 54.4195 14.5868 54.2787C14.5351 54.2349 14.4358 53.9989 14.1944 53.7785C14.1158 53.7071 13.5007 53.2151 14.3767 53.8342C14.4653 53.6516 14.6282 53.5179 14.7371 53.3567C15.1048 53.543 15.1495 54.0449 15.5264 54.2738C16.0879 54.6112 16.5727 54.4297 16.4184 54.9435C15.8772 54.7822 15.071 54.2689 15.1452 53.9389C14.7091 53.6439 14.436 53.7641 14.7218 54.1128C16.359 54.9814 14.9353 54.7308 16.4414 55.3879C16.4941 55.3346 16.5907 55.2997 16.6153 55.2355C16.9227 55.701 16.2018 55.4117 16.093 55.4384ZM13.1907 52.8024C13.5353 52.8777 13.8794 52.9441 14.2213 53.0034C14.0747 53.2044 13.802 53.2871 13.3157 53.0926C13.2738 52.9961 13.2315 52.8986 13.1907 52.8024ZM38.4609 57.6122C38.467 57.4693 38.5479 57.316 38.5944 57.1672C38.7202 57.2707 40.8999 56.6267 39.8476 57.1147C39.6933 57.1908 38.6482 57.2759 38.4609 57.6122ZM39.1822 4.06296C38.9572 3.89434 38.7311 3.7292 38.5012 3.56704C38.91 3.62665 39.3221 3.69514 39.7316 3.77294C39.5464 3.8677 39.364 3.9647 39.1822 4.06296ZM3.14434 23.4283C3.17794 23.3192 3.26327 23.7318 3.34801 23.2906C3.37774 23.6446 3.40234 23.9675 3.43993 24.3069C3.33243 24.3813 3.22534 24.4579 3.11841 24.5345C3.15764 24.6208 3.19663 24.7081 3.23665 24.7937C3.12007 24.723 3.00561 24.6573 2.88788 24.5826C3.27441 24.103 2.99902 23.913 3.14434 23.4283ZM11.1699 9.19914C11.4301 9.33899 10.9533 10.0027 11.5639 9.50348C11.5767 9.74009 11.4654 9.96959 11.1479 10.2966C11.0466 10.2967 10.9454 10.2976 10.8437 10.2989C10.9678 10.4405 10.9315 10.5723 10.8465 10.847C10.8462 10.847 10.8459 10.847 10.8456 10.8471C10.3717 11.3463 10.3602 11.2767 10.0196 11.1857C10.6536 10.772 10.4677 10.5646 10.7129 10.0877C10.8825 9.76057 11.2531 9.48862 11.1699 9.19914ZM36.0984 58.1909C36.5606 57.8545 36.0586 57.7418 37.0081 57.7842C36.9642 57.8561 36.9194 57.9274 36.8747 57.999C36.6176 58.0671 36.3565 58.1315 36.0984 58.1909ZM13.7704 8.2814C13.4639 7.96954 12.8609 8.01053 13.2339 8.61427C13.6942 8.43481 13.2688 8.26106 13.7704 8.2814ZM1.90352 31.048C1.90449 30.8049 1.94086 30.636 1.99652 30.527C2.1267 30.2736 2.35893 30.3435 2.53813 30.527C2.57923 30.5691 2.61765 30.6172 2.65159 30.669C2.56308 30.7276 2.47461 30.7865 2.387 30.8448C2.42909 31.006 2.47262 31.1663 2.51684 31.3255C2.31215 31.2352 2.10733 31.1426 1.90352 31.048ZM28.5308 2.23879C27.8518 2.59745 29.3001 2.35913 28.8225 2.58467C28.4448 2.7614 27.9098 2.49834 28.0855 2.28681C28.2207 2.26951 28.3717 2.25348 28.5294 2.23889C28.5299 2.23886 28.5303 2.23883 28.5308 2.23879ZM24.5058 2.90965C24.6893 3.20822 24.5053 3.14605 25.0355 2.97673C25.1849 2.92217 26.4448 2.83401 25.8789 2.65231C25.4325 2.72714 24.9674 2.81173 24.5058 2.90965ZM4.54682 41.3843C4.41541 41.4524 3.75835 40.6569 3.79145 40.5065C3.79125 40.5066 3.79105 40.5067 3.79085 40.5068C3.87299 40.1151 4.26647 41.0666 4.38337 40.5446C4.49679 41.5562 5.2053 41.5733 4.41519 41.8399C4.15147 41.315 4.4189 41.5044 4.54682 41.3843ZM58.7317 34.2501C58.7317 34.2496 58.7318 34.2492 58.7319 34.2487C58.7178 34.3143 58.4326 34.8156 58.3693 34.7392C58.5226 34.1144 58.6455 34.2412 58.4879 33.619C58.5645 33.5943 58.6384 33.5738 58.7158 33.5461C58.7334 33.7892 58.8063 33.9326 58.7317 34.2501ZM40.9028 57.0911C40.6924 57.2139 40.2279 57.22 39.9757 57.3174C40.5837 56.4733 41.7297 56.5983 40.9028 57.0911ZM55.1476 16.8026C55.1471 16.8021 55.1466 16.8017 55.1461 16.8012C55.1464 16.8012 55.1469 16.8013 55.1472 16.8013C55.1474 16.8017 55.1475 16.8022 55.1476 16.8026ZM22.7729 57.5561C22.7914 57.6018 22.7987 57.639 22.7966 57.6692C22.7958 57.6719 22.795 57.6745 22.7943 57.6772C22.7884 57.6377 22.7816 57.5975 22.7729 57.5561ZM5.42876 43.1967C5.43225 43.6535 4.53759 42.5765 4.43459 42.1337C4.53072 42.1247 4.60843 42.0955 4.73348 42.1175C4.65997 42.5417 5.42773 43.1259 5.42876 43.1967ZM7.63659 14.0749C7.01379 14.9467 7.17595 13.343 7.72619 13.6709C7.73408 13.6799 7.65106 14.052 7.63659 14.0749ZM2.73999 35.2782C2.46009 35.0483 2.48146 35.6021 2.38722 34.7246C2.44115 34.665 2.49542 34.6057 2.54972 34.5466C2.60961 34.7902 2.67345 35.0353 2.73999 35.2782ZM3.33714 19.8082C2.94655 21.1569 2.81532 22.4796 3.7051 21.8336C3.71617 21.7303 3.72893 21.6259 3.74117 21.5227C3.44085 21.406 3.72515 21.1021 3.92747 20.5891C3.83466 20.4704 3.91718 20.1719 3.83745 20.0784C3.68302 19.896 3.41416 20.1781 3.33714 19.8082ZM51.3965 10.6831C51.3415 10.7052 51.2867 10.7279 51.2323 10.7498C51.0388 10.6377 50.8445 10.5277 50.6496 10.421C50.7485 10.3706 50.8478 10.3205 50.9472 10.2708C51.0983 10.4064 51.2474 10.5429 51.3958 10.6819C51.396 10.6823 51.3963 10.6827 51.3965 10.6831ZM11.7359 52.4887C12.2237 52.1063 11.8245 51.9264 10.9727 51.553C11.2194 51.8689 11.4745 52.1815 11.7359 52.4887ZM18.4077 4.16734C18.506 4.31141 18.6032 4.45544 18.7018 4.59948C19.0488 4.24486 18.8951 4.0995 18.5939 3.98493C18.5309 4.0457 18.4699 4.10617 18.4077 4.16734ZM24.8344 1.99123C24.6357 1.99479 24.7613 2.11119 24.7407 2.11249C24.2408 2.14274 24.1551 2.09483 23.5902 2.33962C23.5268 2.39289 23.4655 2.44787 23.4032 2.50259C23.7611 2.78431 23.9089 2.54217 24.528 2.6234C24.3987 2.52484 24.2687 2.42687 24.1371 2.32949C24.4637 2.28186 24.7913 2.23948 25.1168 2.20357C25.1478 2.15879 25.179 2.1144 25.2104 2.06972C25.0863 2.04315 24.957 2.01216 24.8344 1.99123ZM52.9183 12.6603C53.1051 12.916 53.288 13.1762 53.466 13.4379C53.5441 13.3939 53.6223 13.3493 53.7005 13.3056C53.4429 13.0852 53.1816 12.8695 52.9183 12.6603ZM17.2921 55.931C17.3289 55.9147 17.3653 55.898 17.3995 55.8795C17.3794 55.9133 17.3409 55.9278 17.2921 55.931ZM59.312 33.4745C59.4109 33.122 59.4124 32.5974 59.4474 32.1997C59.2268 32.22 59.2162 33.2263 59.0399 33.5611C59.0736 33.6216 59.2703 33.625 59.312 33.4745ZM1.9288 29.7504C1.82013 29.6572 1.71243 29.5632 1.60461 29.4695C1.62448 29.2499 1.64737 29.0322 1.67236 28.81C1.58193 28.7981 1.49071 28.7863 1.40029 28.7743C1.46766 29.763 1.22168 29.5217 0.950176 30.0108C1.27582 29.9203 1.60185 29.8345 1.9288 29.7504ZM58.2629 21.2692C57.9767 20.6152 57.7782 20.4273 57.6564 20.8895C57.798 21.1005 57.9378 21.3158 58.0746 21.5326C58.1376 21.4449 58.2002 21.3566 58.2629 21.2692ZM29.4602 59.3789C30.0329 59.2989 30.0521 59.6434 30.5897 59.4753C30.6041 59.4707 30.6189 59.4657 30.6341 59.4603C30.6193 59.4571 30.6045 59.4539 30.5897 59.4507C30.2945 59.3863 30.0023 59.3169 29.7143 59.2439C29.6307 59.2892 29.5445 59.3344 29.4602 59.3789ZM4.85237 45.7138C4.87604 46.0029 5.63214 46.0915 5.65089 46.9332C5.85684 47.0031 6.02213 47.0205 6.21223 47.0678C6.14233 47.2179 6.07857 47.3795 6.00935 47.5273C6.00962 47.5277 6.0099 47.5281 6.01017 47.5284C6.42507 48.0371 6.32665 47.5858 6.45877 47.5119C6.513 47.4819 6.7076 47.9321 6.73062 47.7308C6.76582 47.3884 6.11578 46.6725 6.35491 46.5117C6.4598 46.8433 6.90019 47.3357 6.94477 47.0677C6.99504 46.7783 6.36187 46.4688 6.29778 46.0444C6.21838 46.7642 5.70728 45.7052 5.94457 45.4108C5.36902 44.9674 5.58438 45.5615 5.97201 46.1484C5.51648 45.9293 5.97542 46.3853 5.84721 46.5939C5.48155 46.2989 4.79753 44.9136 4.85237 45.7138ZM5.88722 14.6052C5.6424 15.0117 5.12585 15.5735 5.1616 15.9697C5.18203 16.1974 5.63917 15.6116 5.56423 16.1536C5.77461 15.7497 5.76184 15.62 5.56539 15.5937C5.60045 15.4926 5.63718 15.391 5.67405 15.2902C5.72963 15.2672 5.78548 15.2431 5.84107 15.2206C5.80662 15.1345 5.7732 15.0482 5.73875 14.9628C5.81076 14.8757 5.88394 14.788 5.95729 14.7022C5.93285 14.6708 5.91759 14.6343 5.88722 14.6052ZM45.5687 55.2029C45.4591 55.2722 45.35 55.3401 45.2397 55.4084C45.2744 55.4391 45.3125 55.4701 45.3498 55.5007C45.3783 55.5256 45.4067 55.5504 45.4353 55.5752C45.3039 55.5058 44.6642 55.6304 44.5013 55.8739C44.4183 55.997 44.8013 56.0681 44.3263 56.3722C44.6799 56.1695 44.9944 55.9554 45.3246 55.7381C45.3306 55.8186 45.338 55.899 45.3435 55.9796C45.3438 55.9796 45.344 55.9796 45.3443 55.9795C45.4668 55.9273 45.5908 55.874 45.7128 55.8199C45.6663 55.6135 45.6177 55.4084 45.5687 55.2029ZM17.9148 4.02344C17.5701 4.34728 17.4733 4.48162 17.7631 4.59335C17.7636 4.59324 17.764 4.59314 17.7645 4.59302C17.8674 4.42836 17.973 4.26403 18.0798 4.10066C18.0253 4.07465 17.9707 4.04859 17.9148 4.02344ZM20.4934 58.1758C21.6799 57.6814 19.5019 57.4434 19.7692 57.8568C19.7809 57.8781 20.4412 58.0564 20.4934 58.1758ZM1.63861 31.2264C1.62678 30.9946 1.61821 30.7615 1.61198 30.527C1.61125 30.4995 1.61055 30.472 1.60989 30.4445C1.56119 30.4717 1.5126 30.4993 1.46406 30.527C1.40547 30.5606 1.34696 30.5943 1.28838 30.6278C1.40291 30.83 1.52007 31.0299 1.63861 31.2264ZM57.4886 18.2304C57.5933 17.8781 57.3545 17.1836 56.9603 16.9921C57.0173 17.1697 57.0725 17.3477 57.1261 17.526C56.9462 17.2275 56.7606 16.9379 56.5715 16.6446C56.2678 16.7862 56.6306 17.0447 56.8143 17.6251C56.8447 17.7172 56.723 18.4233 57.0894 18.4784C57.1662 18.4894 56.9394 17.898 57.2941 18.218C57.2265 18.0367 57.1524 17.8879 57.0802 17.72C57.146 17.6734 57.2119 17.6268 57.277 17.5788C57.3507 17.7963 57.4203 18.0121 57.4886 18.2304ZM4.51884 17.0124C4.20324 17.5851 4.29234 17.7201 4.44512 17.9431C4.55166 17.6607 4.66305 17.38 4.77843 17.1009C4.69182 17.0719 4.60603 17.0414 4.51884 17.0124ZM54.5877 13.1175C54.4057 12.8032 54.3422 13.0421 54.2271 12.9478C53.791 12.5939 53.6701 12.2176 53.2617 11.8558C53.313 11.8598 53.3606 11.8631 53.4102 11.867C53.4099 11.8667 53.4096 11.8663 53.4093 11.8659C51.8638 9.82084 52.4395 11.112 53.4498 12.238C53.4163 12.3104 53.3817 12.3815 53.3482 12.4532C53.8664 12.9026 54.3298 13.3413 54.5877 13.1175ZM13.0013 54.1585C12.9985 54.2116 12.628 54.2914 13.0838 54.4627C13.626 54.3452 13.0162 54.1557 12.9926 53.9364C13.1166 53.98 13.242 54.025 13.365 54.0658C12.837 53.5296 12.6949 53.5347 12.7262 53.9428C12.7292 53.9712 13.0044 54.1058 13.0013 54.1585ZM17.1023 56.9509C17.4694 56.4561 16.5123 56.262 16.4501 56.4402C16.5622 56.5101 16.7004 56.4671 16.8017 56.5726C16.9043 56.6786 16.8697 56.8223 17.1023 56.9509ZM1.52509 35.6714C1.52679 35.6988 1.32471 36.0217 1.51742 35.9577C1.91969 35.5332 1.51143 34.9017 1.36657 35.0444C1.41014 35.2729 1.50533 35.4135 1.52446 35.6715C1.52467 35.6715 1.52488 35.6714 1.52509 35.6714ZM59.1361 22.2554C59.1507 22.2377 59.0459 21.5338 58.9244 21.4756C58.7989 21.4369 58.6775 21.4372 58.5541 21.4188C58.775 21.753 58.916 22.5215 59.1357 22.254C59.1358 22.2545 59.136 22.2549 59.1361 22.2554Z" fill="white"/>
</svg>
