<svg width="93" height="120" viewBox="0 0 93 120" fill="none" xmlns="http://www.w3.org/2000/svg">
<path d="M70.8973 14.3357C70.8144 14.3084 70.6242 14.2531 70.2328 14.1846C69.1825 14.0008 68.8154 14.3349 68.3319 14.3906C67.9311 14.4368 67.4082 14.405 67.253 14.2538C67.1792 14.1819 67.1155 14.0961 67.0476 14.0047L67.0476 14.0046L67.0386 13.9925C66.6681 13.4939 66.9677 12.3003 67.0515 11.9665L67.0555 11.9504C67.1668 11.5064 67.2403 11.2967 67.2998 11.0763C67.4003 10.704 67.8235 10.3887 67.9666 10.1752C68.0931 9.98636 68.2523 9.83822 68.4072 9.65932C68.6221 9.41113 68.7761 9.15069 68.9314 8.97137C69.0863 8.79247 69.3 8.49121 69.4615 8.263C69.6749 7.96147 69.8717 7.30845 70.0747 6.96365C70.3175 6.55113 70.4677 6.16613 70.6285 5.86983C70.8083 5.53856 70.968 5.38121 71.0815 5.17486C71.2038 4.95233 71.3253 4.68046 71.3973 4.36352C71.4503 4.13061 71.469 3.14692 71.4097 2.3558C71.3763 1.91061 71.1838 1.72232 71.0348 1.54982C70.8888 1.38078 70.6486 1.25434 70.4157 1.07523C70.1868 0.899098 69.6745 0.923363 69.3198 1.03974C69.0603 1.12489 68.8969 1.49947 68.7123 1.79558C68.4427 2.22809 68.3609 2.51798 68.2653 2.77241C68.1101 3.18539 67.8849 3.52081 67.7236 3.88645C67.5214 4.3447 67.2067 4.6623 66.9317 5.0558L66.913 5.08259C66.6905 5.40091 66.529 5.6319 66.1878 6.30624C66.0177 6.64239 65.7416 6.93373 64.8143 7.68152C64.3312 8.07116 64.1208 8.11732 63.7463 8.35069C63.3327 8.60844 63.0609 8.72232 62.7689 8.87398C62.5733 8.9756 62.3226 8.98396 62.0423 9.04628C61.7899 9.10238 61.0763 9.09456 60.2392 9.27264C59.7216 9.38274 59.1781 9.63023 58.9394 9.727C58.5382 9.88965 58.1297 9.98844 57.7432 10.1257C57.4355 10.2349 56.9876 10.3046 56.4472 10.3871C55.5283 10.5274 55.118 10.2377 54.6405 9.9352C53.9119 9.4737 53.6987 9.16472 53.3653 8.71117C53.1029 8.35413 52.8647 8.16024 52.668 7.95369C52.5552 7.78964 52.4002 7.58248 52.2336 7.39697C52.1615 7.32042 52.0854 7.26797 51.9296 7.18461C51.6036 7.18461 50.711 7.45322 50.45 7.7198C50.2842 7.8892 50.145 8.10603 50.0562 8.33008C49.9566 8.58145 49.7926 8.82478 49.6395 9.08301C49.5262 9.27407 49.2993 9.28712 48.8771 9.27409C48.6057 9.26572 48.512 8.93548 48.3124 8.7387C48.1533 8.58195 47.7853 8.4479 47.4668 8.25682C47.3678 8.19747 47.1154 8.20208 46.7926 8.22894C46.6657 8.2395 46.621 8.30953 46.5796 8.39093C46.4124 8.71954 46.4089 8.98757 46.3678 9.19188C46.3593 9.23427 46.2806 9.21956 46.2332 9.17927C46.0098 8.98941 45.8112 8.62454 45.5812 8.4534C45.3565 8.28614 45.0352 8.4593 44.8528 8.57468C44.6488 8.70376 44.588 9.01525 44.5471 9.14406C44.5152 9.24457 44.3653 9.21956 44.2772 9.19269C44.0747 9.13096 44.1066 8.73158 44.0247 8.66381C43.9344 8.58918 43.7665 8.60907 43.5791 8.63593C43.1195 8.70178 42.8968 9.2863 42.7384 9.5307C42.6712 9.63445 42.5797 9.70754 42.4627 9.76187C42.1081 9.92651 41.8163 9.27491 41.5231 8.92917C41.3286 8.69981 41.0298 8.67745 40.0691 8.65649C39.8191 8.65103 39.7252 8.67704 39.6373 8.62311C39.5309 8.55786 39.525 7.57328 39.5192 6.21699C39.5162 5.50951 39.2903 5.24571 39.1908 5.00823C39.0465 4.66396 38.8914 4.47243 38.8204 4.24838C38.7456 4.01234 38.6095 3.76752 38.4275 3.49545C38.2706 3.26089 38.0344 3.20995 37.7295 3.16233C37.018 3.05117 36.8242 3.31739 36.6419 3.45333C36.4336 3.60855 36.4006 4.03532 36.4295 4.42929C36.4495 4.70143 36.5761 4.93151 36.91 5.56764C37.1112 5.95091 37.2337 6.23388 37.3105 6.55927C37.3462 6.71021 37.3754 7.2074 37.3812 7.89216C37.3839 8.21491 37.4106 8.98187 37.3874 10.0938C37.3728 10.7882 37.1174 10.9818 36.9474 11.1591C36.8608 11.2494 36.6949 11.2138 36.5367 11.2004C36.1755 11.1697 35.908 10.6587 35.714 10.3807C35.4244 9.96575 34.9699 9.54678 34.7271 9.34226C34.4995 9.15058 34.1932 8.93548 33.8001 8.69128C33.4812 8.49321 32.6708 8.60907 32.0439 8.42003C31.6623 8.30496 31.2689 7.97254 31.0212 7.76192C30.9008 7.65953 30.7742 7.592 30.6688 7.53096C30.4475 7.40273 30.2343 7.73974 29.9818 7.93001C29.7272 8.12186 29.705 8.53907 29.6638 9.10133C29.5868 10.1512 29.7515 10.4527 29.8336 10.7108C29.9537 11.0881 29.951 11.4295 30.0743 11.6674C30.2005 11.9109 30.1864 12.1625 30.1689 12.3251C30.1515 12.3937 30.1166 12.434 30.0695 12.4614C30.0225 12.4889 29.9644 12.5023 29.9045 12.5162C29.7546 12.5301 29.7982 12.6081 29.3198 12.6131C29.0126 12.6162 28.8425 12.5802 28.7264 12.5451C28.608 12.5092 28.4324 12.4351 28.2932 12.3853C28.156 12.3363 28.021 12.2984 27.7351 12.2259C27.3886 12.138 27.1459 12.1011 27.0711 12.0754C26.9299 12.0268 26.8124 12.0117 26.7114 11.9908C26.2932 11.9042 26.113 11.8099 26.0012 11.7723C25.9536 11.7563 25.7001 11.6742 25.3301 11.5662C25.1058 11.5007 24.9986 11.4903 24.8204 11.4413C24.4878 11.35 24.2417 11.2978 24.1488 11.2628C23.9529 11.1889 23.7622 11.1428 23.6344 11.1287C23.4951 11.1133 23.2548 11.0913 22.9664 11.0281C22.7638 10.9836 22.5871 10.9128 22.4204 10.8635C22.2422 10.8108 22.05 10.7251 21.8891 10.6614C21.8011 10.6266 21.7079 10.6167 21.5965 10.5793C21.4252 10.5217 21.2043 10.4293 21.0112 10.3237C20.8977 10.2617 20.781 10.1755 20.6367 10.0957C20.5572 10.0517 20.4555 9.97815 20.3173 9.90537C20.2459 9.86776 20.0859 9.86964 19.8865 9.87662C19.8256 9.87875 19.8393 9.89645 19.9563 10.0486L19.9672 10.0629C20.0943 10.2282 20.3319 10.5444 20.4946 10.7933C20.6572 11.0423 20.7378 11.2144 20.7893 11.3356C20.9121 11.6242 20.8981 11.9159 20.8516 12.1847C20.8029 12.4656 20.5611 12.514 20.4126 12.6196C20.2085 12.7649 20.081 12.7913 20.0034 12.8407C19.9865 12.8514 19.971 12.8618 19.9607 12.8968C19.9336 12.9886 19.9462 13.0964 19.9644 13.1761C19.9827 13.2565 20.0759 13.3173 20.1733 13.3853C20.2657 13.4498 20.4332 13.4819 20.755 13.5101C20.9637 13.5283 21.2661 13.5197 21.4519 13.5266C21.8081 13.54 21.9348 13.6603 21.992 13.7191C22.054 13.7828 22.0735 13.881 22.112 13.9843C22.18 14.1664 22.0942 14.5284 21.9746 14.8102C21.9299 14.9153 21.8353 15.0436 21.7313 15.1596C21.6273 15.2756 21.5065 15.3686 21.396 15.4421C21.2854 15.5156 21.1888 15.5668 21.0423 15.6117C20.8959 15.6567 20.7026 15.6939 20.5608 15.7107C20.3353 15.7375 20.0942 15.653 19.8422 15.5427C19.7433 15.4976 19.703 15.4743 19.6641 15.46C19.6253 15.4457 19.589 15.4411 19.5517 15.4363C19.4583 15.3706 19.495 15.4929 19.4076 15.4528C19.319 15.4122 19.2024 15.3754 19.0216 15.3027C18.8779 15.2449 18.6787 15.23 18.5453 15.2061C18.5228 15.2021 18.4947 15.1922 18.154 15.1851C17.8133 15.178 17.1609 15.1733 16.7886 15.1756C16.4163 15.1778 16.3439 15.1871 16.1374 15.1966C15.9309 15.206 15.5927 15.2153 15.3761 15.2154C14.9097 15.2157 14.7158 15.1028 14.6384 15.0561C14.5054 14.9756 14.4351 14.8683 14.3212 14.8537C14.2992 14.8508 14.2965 14.8816 14.2965 14.9028C14.2963 14.9475 14.3126 14.9945 14.4315 15.2111C14.5391 15.4069 14.7558 15.7672 14.8899 16.0331C15.0963 16.4423 15.1262 16.6526 15.1323 16.7368C15.141 16.8578 15.1102 17.0371 15.0635 17.2224C15.031 17.3513 14.984 17.4231 14.8972 17.5839C14.8257 17.7164 14.7016 17.9541 14.6192 18.0995C14.5074 18.2969 14.435 18.3673 14.3762 18.4189C14.3183 18.4697 14.256 18.4803 14.2013 18.478C14.1342 18.4751 13.932 18.3546 13.6658 18.1832C13.4955 18.0735 13.398 18.0857 13.3187 18.0973C13.2902 18.1015 13.2918 18.1322 13.3018 18.1674C13.3259 18.2518 13.381 18.339 13.4962 18.4745C13.5795 18.5725 13.7281 18.7123 13.8692 18.8796C14.2842 19.4431 14.3045 19.4948 14.3228 19.5253C14.329 19.5418 14.329 19.5604 14.3534 19.5936C14.3494 19.7529 14.3709 19.9114 14.2978 20.2394C14.2764 20.3352 14.2609 20.3907 14.2004 20.5819C14.0573 21.0343 13.9192 21.3351 13.9071 21.3772C13.8574 21.5497 13.6714 21.6967 13.6062 21.7368C13.5369 21.7795 13.4154 21.7627 13.1089 21.7628C12.9621 21.7629 12.8824 21.73 12.6975 21.7345C12.5918 21.7371 12.837 22.0346 12.9486 22.2644C13.0468 22.4663 12.9839 22.6546 12.9533 22.7465C12.9124 22.8692 12.866 22.9696 12.7286 23.1356C12.6285 23.2566 12.3943 23.4312 12.256 23.5457C12.0094 23.75 11.8501 23.8523 11.7372 23.9118C11.6585 23.9533 11.5889 24.0361 11.4893 24.1159C11.2684 24.2929 11.0156 24.3557 10.8753 24.4026C10.6846 24.4662 10.4148 24.5756 10.2547 24.6586C10.1445 24.7158 9.98233 24.7644 9.89673 24.7739C9.77388 24.7874 9.596 24.8067 9.50222 24.8138C9.44934 24.8178 9.2957 24.8256 9.11058 24.8419C9.04885 24.8473 9.05836 24.8907 9.07056 24.9261C9.12114 25.0727 9.21674 25.1959 9.47849 25.5781C9.55508 25.6899 9.57098 25.7461 9.57709 25.7929C9.59412 25.9236 9.5345 26.037 9.49594 26.1358C9.47763 26.1827 9.46531 26.2253 9.45518 26.2627C9.44908 26.2816 9.44103 26.3002 9.43273 26.3194C9.4165 26.3755 9.44213 26.4604 9.38514 26.6464C9.36304 26.7185 9.33231 26.8132 9.29167 26.9211C9.26237 26.9989 9.17831 27.2345 9.01803 27.6119C8.94181 27.7914 8.86178 27.9382 8.75189 28.1242C8.64201 28.3101 8.50107 28.5287 8.25732 28.8692C8.01358 29.2096 7.6713 29.6654 7.45873 29.9374C7.18148 30.2921 7.07081 30.3837 6.9979 30.4375C6.95411 30.4699 6.89278 30.5053 6.63817 30.6268C6.38356 30.7483 5.93658 30.9529 5.63988 31.1025C5.34318 31.2521 5.21029 31.3405 5.05123 31.4209C4.71753 31.5895 4.51218 31.6568 4.42945 31.7547C4.22934 31.9914 4.06899 32.2014 4.00816 32.3347C3.9236 32.52 3.90193 32.7737 3.91603 33.0221C3.93769 33.404 4.06447 33.5215 4.13952 33.6412C4.19718 33.7332 4.25959 33.8129 4.31438 33.8714C4.36917 33.93 4.48668 34.0519 4.7217 34.2369C5.02538 34.4759 5.27618 34.5928 5.37771 34.621C5.38874 34.621 5.40552 34.6234 5.42611 34.6289C5.48865 34.6455 5.58635 34.6895 5.66488 34.7747C5.75463 34.872 5.83358 34.9391 5.90491 34.9886C6.00838 35.0605 6.15085 35.1271 6.39234 35.2607C6.48948 35.3145 6.55768 35.3525 6.6431 35.423C6.68291 35.4558 6.79697 35.5494 7.01192 35.6807C7.24021 35.8201 7.4481 35.8833 7.59008 35.9652C7.74346 36.0538 7.83907 36.1324 7.96823 36.2164C8.26671 36.4105 8.51814 36.541 8.61137 36.6298C8.85375 36.8609 8.91277 37.0854 8.93742 37.2964C8.9694 37.5702 8.97818 37.8369 8.96811 38.0383C8.95561 38.2881 8.893 38.4948 8.76378 38.747C8.66716 38.9355 8.47348 39.2224 8.32369 39.4361C8.07749 39.7874 7.94108 39.928 7.90868 39.9842C7.81424 40.1479 7.69325 40.2658 7.54493 40.4514C7.49751 40.5107 7.39282 40.6785 7.22827 40.9247C7.0505 41.1908 6.9733 41.3321 6.88373 41.4662C6.78623 41.6187 6.65603 41.7881 6.61912 41.861C6.61101 41.8776 6.59893 41.8916 6.58648 41.9059C6.47727 42.0085 6.47443 41.959 6.31165 42.1539C6.08899 42.4205 5.92043 42.6034 5.86381 42.6594C5.75537 42.7667 5.67235 42.871 5.56332 42.9854C5.15904 43.4095 5.0665 43.4488 5.01134 43.5099C4.9541 43.5733 4.90787 43.6461 4.75759 43.7914C4.68403 43.8626 4.57059 43.965 4.27956 44.222C4.06714 44.4096 3.69859 44.6743 3.47767 44.8529C3.25674 45.0314 3.18828 45.1059 3.08255 45.1953C2.68001 45.536 2.54887 45.572 2.45912 45.6169C2.2496 45.7217 1.86553 45.8539 1.77578 45.9058C1.6739 45.9646 1.52825 46.0653 1.41178 46.1219C1.32337 46.1648 1.20659 46.1924 1.11886 46.2112C1.0498 46.226 0.994756 46.2536 0.958149 46.2629C0.94367 46.2665 0.945702 46.2908 0.955769 46.3166C0.979926 46.3787 1.05906 46.4504 1.21086 46.5836C1.31204 46.6724 1.45528 46.8145 1.66687 46.9793C1.87846 47.1442 2.15229 47.3302 2.33765 47.447C2.60668 47.6165 2.75119 47.658 2.93514 47.6698C3.07058 47.6785 3.29225 47.6676 3.63587 47.6164C3.9795 47.5652 4.43856 47.4675 4.71732 47.4009C5.07289 47.316 5.25052 47.2224 5.40762 47.1396L5.42086 47.1326C5.60612 47.0351 5.80524 46.954 6.08199 46.8107C6.16752 46.7665 6.33385 46.7331 6.59352 46.6558C6.85052 46.5792 7.0826 46.559 7.24514 46.5542C7.40139 46.5497 7.52214 46.6383 7.69889 46.7299C7.77416 46.7689 7.89065 46.8348 8.00517 46.9404C8.11969 47.046 8.22842 47.1902 8.31664 47.3249C8.40487 47.4596 8.4693 47.5805 8.50652 47.6545C8.54373 47.7284 8.55179 47.7516 8.56008 47.8179C8.57216 47.8551 8.55077 47.9415 8.55699 48.1909C8.56322 48.4403 8.56322 48.9007 8.55919 49.1704C8.5529 49.5916 8.5227 49.6938 8.50428 49.9371C8.49374 50.0763 8.50161 50.3199 8.5076 50.5054L8.50824 50.5252C8.51789 50.8249 8.54686 50.9673 8.56108 51.0281C8.56869 51.0607 8.57127 51.0983 8.57133 51.4895C8.57139 51.8807 8.56736 52.6248 8.56932 53.0477C8.57127 53.4705 8.57932 53.5496 8.59958 53.6764C8.64749 53.9762 8.71746 54.2269 8.77432 54.3675C8.85624 54.5702 8.88414 54.776 8.92106 54.9272C8.94923 55.0426 8.9903 55.2779 9.05504 55.7035C9.08033 55.8698 9.181 55.9932 9.28233 56.1175C9.48079 56.3607 9.70122 56.4161 9.85406 56.5057C10.0319 56.61 10.2018 56.5716 10.5506 56.5461C10.6583 56.5383 10.7616 56.4879 10.9021 56.4269C11.2183 56.2896 11.4304 56.1866 11.5075 56.1586C11.7057 56.0865 11.9018 56.0268 12.0526 56.0385C12.2596 56.0642 12.5082 56.1393 12.6076 56.1978C12.6547 56.2285 12.695 56.261 12.7364 56.2945L12.7365 56.2946C12.8135 56.3085 12.8092 56.3084 12.9333 56.3789C13.0183 56.4271 13.0899 56.5381 13.1855 56.6512C13.2944 56.7799 13.3988 56.8437 13.5555 56.9987C13.6493 57.0914 13.7002 57.154 13.7955 57.236C14.0037 57.4151 14.1346 57.5855 14.2936 57.7478C14.4384 57.8955 14.5947 58.0694 14.7044 58.2079C14.8069 58.3373 14.9158 58.5012 15.0323 58.7319C15.0972 58.8605 15.124 58.9531 15.197 59.0728C15.251 59.1613 15.311 59.2256 15.3558 59.3078C15.4151 59.4164 15.5711 59.5402 15.6404 59.6085C15.7073 59.6745 15.7786 59.7515 15.8459 59.8176C15.9018 59.8725 15.9455 59.9443 16.0551 59.9705C16.1828 60.0009 16.2825 59.7857 16.4008 59.6539C16.5788 59.4556 16.7709 59.3905 16.8889 59.3599C17.0669 59.3138 17.1533 59.273 17.4088 59.2891C17.7766 59.3123 17.914 59.6058 18.0238 59.7327C18.1292 59.8545 18.1908 60.0052 18.2497 60.1413C18.3446 60.3604 18.4063 60.5078 18.4916 60.6977C18.5672 60.8661 18.6989 61.0568 18.7883 61.2422C18.8294 61.3485 18.8498 61.41 18.8722 61.4709C18.8824 61.5038 18.8905 61.541 18.8988 61.5794C18.9149 61.6773 19.099 62.2069 19.1456 62.5813C19.1676 62.7578 19.16 63.0336 19.15 63.2215C19.1267 63.6582 19.0138 63.8369 18.9691 63.9829C18.9599 64.0129 18.9447 64.03 18.8942 64.2023C18.8437 64.3747 18.7551 64.7002 18.6994 64.9214C18.6173 65.2475 18.6028 65.4156 18.5948 65.5164C18.5882 65.5985 18.4936 65.8787 18.396 66.3103C18.3555 66.4899 18.3468 66.5932 18.3043 66.811C18.2619 67.0288 18.1894 67.359 18.146 67.543C18.0821 67.8143 18.0337 67.9706 18.0049 68.1399C17.9887 68.474 17.9572 68.4305 17.947 68.5271C17.9349 68.691 17.9024 68.8507 17.8233 69.1179C17.7293 69.4354 17.7964 69.8369 17.8229 69.9618C17.843 70.0569 17.8533 70.1427 17.9 70.3465L17.9024 70.3566C17.9379 70.5116 17.9572 70.5957 18.0544 70.9169C18.0974 71.0589 18.1459 71.2363 18.193 71.3594C18.2236 71.4395 18.256 71.5097 18.2987 71.5849C18.3441 71.6649 18.3861 71.7726 18.4349 71.8504C18.4798 71.9217 18.5447 71.9795 18.5956 72.0336C18.6526 72.0942 18.8446 72.0785 18.9717 72.0364C19.0727 72.003 19.1304 71.8721 19.2562 71.6216C19.369 71.3969 19.3625 71.2709 19.4253 71.0155C19.4509 70.9116 19.4802 70.7549 19.529 70.5695C19.6013 70.2949 19.6676 69.9696 19.6878 69.8103C19.7181 69.5725 19.7406 69.2715 19.757 68.9906C19.7676 68.8096 19.8343 68.6731 19.8606 68.5232C19.8898 68.3574 19.9279 68.2314 19.938 68.1775C19.9475 68.1268 19.9846 67.9741 20.0212 67.6233C20.0759 67.0994 20.0538 66.7796 20.1004 66.7889C20.2153 66.8118 20.2933 66.9713 20.3589 67.1149C20.4362 67.2845 20.4971 67.385 20.6047 67.5774C20.6355 67.6435 20.68 67.7372 20.737 67.8545C20.7576 67.9021 20.905 67.8126 20.9092 67.8507C20.9253 67.729 20.9822 67.4764 20.9966 67.1612C21.0089 66.8939 20.9907 66.5733 20.9723 66.4747C20.9586 66.4016 20.9621 66.3243 20.9359 66.2377C20.896 66.1065 20.8241 65.8746 20.735 65.5513C20.6402 65.2074 20.5149 64.9532 20.4662 64.7983C20.4192 64.6491 20.3645 64.5394 20.2547 64.1832C20.209 64.035 20.1773 63.8356 20.1405 63.6329C20.1012 63.4156 20.1402 63.0462 20.2213 62.8159C20.2929 62.6127 20.4005 62.4723 20.4452 62.4066C20.4734 62.3652 20.5907 62.1218 20.7898 61.7674C20.9574 61.4692 21.1242 61.2984 21.2119 61.1501C21.2949 61.0099 21.4295 60.8984 21.5047 60.8772C21.5312 60.8748 21.5674 60.8748 21.5921 60.8841C21.6168 60.8934 21.6289 60.912 21.6413 60.9452C21.7329 61.1567 21.9702 61.8178 21.9057 62.7181C21.8718 63.1915 21.8963 64.0128 21.8872 64.4771C21.8781 64.9414 21.8599 65.0255 21.8505 68.7578C21.8412 72.4894 21.8412 79.8654 21.8412 87.4656V87.4693C21.8634 87.5595 22.1368 87.8773 22.2783 88.1308C22.4 88.3488 22.3515 88.8726 22.3235 89.4244C22.2872 90.1436 22.2505 90.5835 22.2226 91.107C22.1847 91.8184 22.1947 92.359 22.1278 92.514C21.982 92.8514 21.8247 93.0318 21.7574 93.2846C21.6631 93.6388 21.7123 94.4506 21.8686 95.2325C21.9907 95.8435 22.194 96.3209 22.2615 96.6126C22.3435 96.9676 22.4853 97.1888 22.5755 97.5637C22.7378 98.2387 22.4531 98.5741 22.3183 98.8661C22.2148 99.0904 22.005 99.3255 21.8919 99.7907C21.722 100.49 22.0924 101.033 22.1997 101.346C22.303 101.647 22.7518 102.107 23.0069 102.453C23.0843 102.559 23.2698 102.577 23.4547 102.558C23.6644 102.536 23.8524 102.088 23.9771 101.788C24.0971 101.5 24.1895 101.103 24.3357 100.836C24.4448 100.637 24.571 100.441 24.7223 100.234C24.9555 99.9153 25.2316 99.4848 25.3953 99.1596C25.5986 98.7556 25.6252 98.4219 25.637 97.8269C25.6442 97.4645 25.4469 97.0885 25.3066 96.7509C25.1531 96.3815 24.9423 96.0132 24.7686 95.6569C24.6689 95.4525 24.6053 95.0435 24.6275 94.5452C24.6451 94.1491 24.9296 93.9798 25.1316 93.7333C25.274 93.5594 25.4005 93.0116 25.5635 92.4068C25.6037 92.2574 25.6144 91.4223 25.6033 90.1669C25.5959 89.3239 25.3796 89.0202 25.2895 88.5997C25.2781 88.2968 25.3623 87.9462 25.3455 87.7658C25.3455 87.5094 25.3566 87.2747 25.3734 86.7411C25.4108 85.5544 25.3459 84.7359 25.2788 84.6392C25.0627 84.3278 24.9425 83.8179 24.8524 83.4037C24.7628 82.9921 24.8187 82.523 24.7851 81.206C24.7564 80.0817 24.7737 78.03 24.7792 76.9285C24.7848 75.8269 24.7959 75.7371 24.8016 75.5435C24.8073 75.3498 24.8073 75.0549 24.8073 74.7511C24.9415 74.5573 25.0406 74.2138 25.1714 73.8811C25.2668 73.6387 25.2108 72.5107 25.1549 71.7006C25.08 70.6141 25.3003 70.3009 25.4511 69.803C25.5981 69.3181 25.8048 68.9668 25.8442 68.7593C25.8875 68.5308 26.0168 68.0111 26.2527 67.549C26.3275 67.4025 26.4662 67.3732 26.5279 67.3023C27.0134 66.7446 26.556 65.2108 26.6287 65.101C26.7881 64.8603 27.071 64.8223 27.5692 64.8279C27.7428 64.8299 27.8228 65.0542 27.9125 65.1898C27.9952 65.3149 27.9914 65.4816 28.025 65.9761C28.0542 66.4055 28.0365 67.2015 28.0309 67.6494C28.0254 68.0973 28.0143 68.1742 28.0085 68.56C28.0028 68.9458 28.0028 69.6381 28.0417 70.2768C28.0805 70.9155 28.1582 71.4796 28.1983 71.9625C28.2383 72.4454 28.2093 72.6722 28.2093 73.0684C28.2093 73.61 28.18 74.6707 28.1282 75.9589C28.0894 76.9226 28.1206 78.7312 28.128 79.7215C28.1353 80.7118 28.1499 80.83 28.1574 81.3555C28.1783 82.8099 28.1796 83.8349 28.2018 84.2752C28.2205 84.6473 28.2093 85.3235 28.2239 85.7139C28.2385 86.1042 28.2678 86.1887 28.2829 87.5752C28.2979 88.9617 28.2979 91.6477 28.2906 93.082C28.2833 94.5164 28.2687 94.6178 28.2611 95.5907C28.2542 96.4882 28.2537 98.125 28.2536 99.8628C28.2523 100.553 28.2209 101.835 28.0697 102.144C28.0335 102.218 27.9593 102.238 27.9073 102.281C27.232 102.835 27.751 104.968 27.8029 105.292C27.8297 105.459 27.9567 105.684 28.1424 106.059C28.5767 106.934 28.2093 107.779 28.0843 108.525C28.0175 108.923 27.9434 109.25 27.8698 109.592C27.7447 110.172 27.8104 111.308 27.7222 112.04C27.6858 112.342 27.6331 113.525 27.6404 115.128C27.6454 116.219 27.8991 116.928 28.0241 117.449C28.1118 117.815 28.2971 118.106 28.4159 118.397C28.442 118.461 28.431 118.533 28.4675 118.585C28.64 118.829 28.9026 118.859 29.1393 118.952C29.2562 118.998 29.61 119.012 30.0606 118.979C30.3803 118.955 30.4247 118.331 30.536 118.007C30.6908 117.555 30.7359 117.121 30.7726 116.457C30.8728 114.648 30.6481 114.102 30.5956 113.681C30.5313 113.166 30.6463 112.411 30.7724 111.95C30.9683 111.234 30.8538 110.176 30.9056 109.462C31.0726 107.162 31.0018 106.677 31.0386 106.293C31.0754 105.789 31.1348 105.211 31.164 104.666C31.1933 104.458 31.2075 104.467 31.2678 104.397C31.2678 104.364 31.2678 103.755 31.2824 102.808C31.2895 102.349 31.3564 101.301 31.3711 99.8173C31.3791 99.0014 31.5328 98.7673 31.7325 98.4689C31.9047 98.2115 31.9326 97.3565 31.8225 96.8136C31.7171 96.294 31.2687 95.9181 31.194 95.5853C31.0515 94.9507 31.2088 94.1259 31.1793 92.9167C31.1519 91.7924 31.1499 89.6298 31.1935 88.3723C31.2372 87.1147 31.3396 86.8276 31.3923 86.6289C31.4451 86.4303 31.4451 86.329 31.4451 86.2245C31.4451 85.741 31.3938 85.1868 31.4451 84.9061C31.4719 84.759 31.5487 84.3783 31.5298 83.7817C31.5083 83.1093 31.4336 82.3555 31.459 81.6474C31.4702 81.3332 31.5349 81.1149 31.561 80.4973C31.5871 79.8797 31.5871 78.8705 31.5808 78.314C31.5745 77.7576 31.5618 77.6844 31.5616 77.0617C31.5614 76.439 31.5741 75.2689 31.5996 74.593C31.6421 73.4687 31.7529 73.0014 31.8109 72.3534C31.94 70.9099 31.9064 70.4033 31.9389 69.8324C31.9604 69.4538 31.9962 69.1596 32.0283 68.9303C32.0443 68.8154 32.1877 68.7452 32.3153 68.6641C32.438 68.5862 32.6855 68.5675 32.9921 68.5967C33.3641 68.6322 33.5559 68.9655 33.6656 69.209C33.7419 69.3783 33.7362 70.4489 33.7236 71.9186C33.6595 72.6296 33.6342 72.8512 33.5958 72.9985C33.5827 73.0728 33.5827 73.1459 33.5827 73.2212C33.5444 73.3529 33.5959 73.5709 33.5447 73.8444C33.4992 74.087 33.4555 74.3244 33.4167 74.5684C33.368 74.8751 33.3273 75.1665 33.2889 76.2213C33.2548 77.1585 33.2758 78.9143 33.2822 79.855C33.2907 81.1202 33.3396 81.5931 33.3463 82.1314C33.3539 82.7443 33.2129 83.6017 33.0843 83.9935C32.9772 84.32 32.9688 84.5919 32.937 84.9901C32.9008 85.4428 32.9431 85.8041 32.9496 85.9953C32.9592 86.2765 32.8921 87.2299 32.9111 88.4631C32.9213 89.1284 33.1093 89.3493 33.2179 89.6665C33.3325 90.0012 33.2755 90.3541 33.333 90.8383C33.5423 92.5985 33.1999 92.9092 33.1481 93.1761C33.1004 93.4214 32.9182 93.6335 32.7965 94.0102C32.6863 94.3517 32.7386 94.7557 32.7067 95.3082C32.6532 96.2358 32.7635 96.9288 32.8721 97.0688C32.9585 97.1803 33.0195 97.2838 33.1089 97.372C33.2171 97.4787 33.1991 98.4135 33.1928 99.6616L33.1927 99.6793V99.6793C33.1891 100.379 33.1869 100.816 33.2881 101.095C33.3833 101.357 33.6842 101.42 33.94 101.517C34.1028 101.578 34.2349 101.377 34.3178 101.281C34.4982 101.073 34.6306 100.465 34.7275 99.9377C34.7925 99.5838 34.9257 99.2796 34.9832 98.8612C35.1875 97.3763 34.7219 97.0045 34.6194 96.6061C34.515 96.2002 34.4156 95.5739 34.3059 95.2166C34.228 94.963 34.1969 94.2611 34.1332 93.5934C34.0223 92.431 33.9927 91.982 33.954 91.5681C33.9455 91.4779 33.916 91.42 33.9029 90.3222C33.8899 89.2243 33.8899 87.0889 33.9215 85.9011C33.958 84.534 34.0818 83.9328 34.0754 83.2536C34.0692 82.5858 33.9927 81.7597 33.954 80.8589C33.9411 80.5593 33.8899 80.091 33.8962 79.5004C33.9046 78.7167 33.9409 77.7544 33.9601 76.9919C33.976 76.3612 33.9666 75.2347 33.973 74.6253C33.9812 73.8359 34.0818 73.4566 34.1518 73.1372C34.245 72.7124 34.4394 72.0675 34.7204 71.3586C34.7785 71.2119 34.7725 71.1359 34.7979 71.0836C34.9067 70.8588 35.2486 70.9974 35.4852 71.0933L35.4944 71.0971C35.603 71.1341 35.7185 71.1638 35.8525 71.186C35.9231 71.1935 35.9991 71.1935 36.0774 71.1935C36.128 71.2227 36.2097 71.2046 36.5229 71.1753C36.8656 71.1433 36.9531 70.6444 37.1193 70.3268C37.2677 70.0432 37.4635 69.6409 37.6504 69.344C37.7804 69.1375 37.9378 68.8715 38.1234 68.6716C38.3099 68.4707 38.4114 68.1774 38.6221 67.8153C38.7971 67.5145 39.0071 67.3103 39.2828 67.0422L39.2931 67.0322C39.7124 66.6244 40.0225 66.6847 40.3487 66.6249C40.6471 66.5701 40.8921 66.4037 41.2246 66.3C41.5315 66.2043 41.8012 66.2703 42.2138 66.2481C43.9101 66.157 44.1418 66.3727 44.5632 66.4471C44.9662 66.5183 45.1396 66.7574 45.4465 66.8901C45.7609 67.0262 46.3017 67.2733 46.611 67.4C47.154 67.6226 47.7876 68.6322 47.9989 68.899C48.2158 69.173 48.3257 69.4894 48.4024 69.7779C48.4637 70.0083 48.6197 70.4476 48.754 71.0696C48.8262 71.4043 48.876 71.9536 48.9716 72.4662C49.0521 72.8981 49.1316 73.1973 49.2655 73.4861C49.4308 73.8424 49.6428 74.0252 49.911 74.2546C50.3326 74.615 51.0881 74.308 51.293 74.16C51.5158 73.999 51.6384 73.7761 51.9513 73.4147C52.163 73.1118 52.2916 72.6982 52.3871 72.1088C52.4067 71.8871 52.4067 71.5946 52.3683 71.2932C52.2782 71.2358 52.202 71.0295 52.1464 70.6526C52.1025 70.3551 51.8807 70.171 51.7447 69.8978C51.6106 69.6283 51.4587 69.3584 51.2826 69.126C51.1007 68.8858 51.0264 68.511 50.9658 68.2447C50.8083 67.5523 50.6846 67.1651 50.6391 66.7375C50.5052 65.4796 50.7744 65.1459 50.8246 64.8904C50.8727 64.6454 51.0258 64.4497 51.1458 64.2519C51.3047 63.99 51.6769 63.7186 51.8994 63.619C52.1522 63.5059 52.5222 63.4853 52.9225 63.4564C53.8071 63.3926 53.989 63.5661 54.1552 63.6648C54.3139 63.759 54.4514 63.9372 54.6473 64.0535C54.8723 64.187 55.0838 64.3661 55.2555 64.5292C55.4725 64.7353 55.5366 65.1905 55.7576 65.5783C55.9295 65.8801 56.069 66.1639 56.1103 67.3451C56.1214 67.6632 56.05 67.79 56.0349 68.0666C56.0024 68.6638 55.98 69.2393 55.8699 69.7132C55.611 70.8265 55.6083 71.1193 55.5025 71.4274C55.3667 71.8228 55.457 72.4735 55.3821 73.0574C55.3434 73.3589 55.2261 73.6496 55.196 74.2433C55.1729 74.6986 55.1857 75.4689 55.1907 75.8942C55.1977 76.4948 55.3057 76.679 55.4314 76.8763C55.4924 76.972 55.6469 76.9931 55.8176 76.9758C56.0268 76.9547 56.2589 76.2098 56.3763 75.7349C56.4595 75.3982 56.7219 74.9989 56.8483 74.731C56.9571 74.5006 57.0541 74.1523 57.1698 73.8607C57.282 73.5782 57.3151 73.1649 57.4312 72.4641C57.4896 72.1113 57.5967 71.7376 57.7025 71.4587C57.7994 71.2033 57.6377 70.9595 57.6075 70.2575C57.5809 69.6365 57.5973 68.4755 57.642 67.8376C57.6868 67.1996 57.7763 67.1192 57.8473 67.0605C58.0543 66.8895 58.2394 66.8045 58.4856 66.7059C58.6726 66.6312 58.9224 66.6304 59.1188 66.6071C59.4959 66.5623 59.9974 66.6179 60.2441 66.7515C60.4346 66.8548 60.581 66.9542 60.7567 67.1054C60.842 67.1749 60.9228 67.2334 61.003 67.2739C61.0434 67.2915 61.1057 67.1637 61.1467 67.1756C61.1865 67.1756 61.3065 67.1756 61.487 67.0779C61.9734 66.8149 61.7689 66.0643 61.8646 65.4951C61.9249 65.1365 62.1613 64.9712 62.2064 64.8843C62.356 64.596 62.9843 64.7275 63.3659 64.7095C63.5751 64.6997 63.7283 64.889 63.9192 65.0455C64.1559 65.2394 64.4113 65.5038 64.7024 65.8163C65.1249 66.2698 65.3554 66.4897 65.5672 66.7164C65.7179 66.8777 65.8082 67.0704 65.939 67.2675C66.1899 67.5321 67.4107 68.5911 67.7621 68.5857C68.0129 68.5819 68.1547 68.3599 68.3054 68.2264C68.5213 68.0352 68.5966 67.688 68.7324 67.3568C68.9148 66.912 69.0789 66.7244 69.4101 66.2837C69.639 65.979 69.8832 65.6333 70.2485 65.401C70.6661 65.1354 71.1758 65.0993 71.7107 65.0749C72.216 65.0519 72.5455 65.5616 72.7615 65.7533C72.9707 65.9389 73.0785 66.1186 73.189 66.3738C73.2491 66.5127 73.2798 67.2041 73.2898 68.1901C73.2944 68.6488 73.3401 68.903 73.3451 69.1697C73.3568 69.7945 73.2907 70.7259 73.0896 71.0155C72.9543 71.2106 72.9483 71.7668 73.0533 72.2513C73.133 72.6187 73.2593 73.2179 73.2699 73.7535C73.2761 74.067 73.2196 74.6793 73.2245 75.3695C73.2283 75.8899 73.2696 76.3072 73.2848 76.5107C73.3011 76.7287 73.3799 76.9569 73.4404 77.1779C73.4767 77.311 73.521 77.422 73.5508 77.5261C73.5954 77.6816 73.7417 77.7356 73.8268 77.7416C73.9249 77.7484 74.013 77.6779 74.0931 77.649C74.2937 77.5767 74.3548 77.1915 74.4148 76.8731L74.4307 76.7889C74.5814 75.99 74.6456 75.6495 74.6164 74.9913C74.5955 74.5176 74.6062 73.7818 74.6062 73.2422C74.6062 72.3809 74.5863 71.8542 74.5562 71.4434C74.5004 70.6836 74.6062 70.242 74.6562 69.6672C74.7215 68.918 74.3958 68.6155 74.29 68.1234C74.218 67.7885 74.2445 67.2264 74.2695 66.1909C74.2868 65.4724 74.2746 64.082 74.2796 63.3257C74.2851 62.4888 74.3048 62.1763 74.3147 61.7363C74.3303 61.0472 74.5441 60.5638 74.6963 60.2831C74.7919 60.107 74.8769 59.912 75.0226 59.7261C75.1734 59.5338 75.3689 59.3202 75.53 59.1056C75.8356 58.6985 76.1924 58.2765 76.4391 57.876C76.5976 57.6186 76.785 57.3484 76.9918 57.069C77.2588 56.7083 77.5091 56.5351 77.6553 56.3549C77.7302 56.2797 77.8117 56.1979 78.0256 56.1285C78.2003 56.1048 78.5087 56.1048 78.8867 56.1744C78.9056 56.3277 79.0318 56.7413 79.0612 57.423C79.086 57.9977 78.938 58.6787 78.8236 59.8697C78.7285 60.8594 78.7847 62.6519 78.7752 63.6599C78.7658 64.6679 78.7469 64.8423 78.7372 66.5342C78.7275 68.2262 78.7275 71.4305 78.718 73.1248C78.7067 75.1511 78.5559 75.9381 78.5084 76.9728C78.4633 77.9554 78.461 78.7811 78.4038 79.4056C78.3843 80.4007 78.4598 81.0725 78.6025 81.2261C78.6697 81.3143 78.7263 81.4232 78.9563 81.6016C78.8737 81.8498 78.8681 83.5521 78.8186 84.5788C78.7954 85.0607 78.7029 85.4791 78.6278 85.8526C78.5468 86.2554 78.5696 86.5708 78.4706 87.1827C78.3942 87.655 78.288 87.9497 78.2298 88.3705C78.1406 89.0154 78.1716 89.3665 78.1303 89.9586C78.0316 91.374 78.2045 91.7221 78.3781 92.039C78.5664 92.3826 78.8009 92.6425 78.9828 92.7574C79.3616 92.9968 79.7457 92.5483 80.0608 92.2329C80.3585 91.935 80.5416 90.966 80.5847 90.0028C80.6021 89.6123 80.3277 89.1229 80.1374 88.1367C80.0264 87.5611 79.8302 86.9959 79.8215 85.2577C79.8181 84.5763 79.9954 84.1991 79.9877 83.4252C79.9814 82.7981 79.8133 82.0583 79.7638 81.47C79.7452 81.2483 79.656 80.6314 79.6642 79.9698C79.6642 79.5521 79.5985 78.3657 79.5234 77.4749C79.3905 75.8985 79.6642 75.0161 79.5816 74.3698C79.5124 73.8279 79.5149 72.7203 79.5644 71.9567C79.6427 70.7487 79.6801 68.8651 79.7303 68.4422C79.7967 67.8837 79.8463 67.4276 79.8467 66.0427C79.8469 65.6425 79.7473 65.473 79.7224 64.8841C79.6607 63.4247 79.7303 62.3326 79.7552 62.0749C79.7854 61.7621 79.7801 61.5087 79.805 60.7965C79.8689 58.9672 79.8298 57.6403 79.8547 57.4398C79.9129 56.9704 80.0124 56.6061 80.0452 56.434C80.0779 56.2629 80.2918 56.2038 80.4651 56.1559L80.4671 56.1554C80.819 56.0582 81.089 56.3366 81.3051 56.5277C81.6131 56.7999 81.8193 57.4076 82.0429 57.6386C82.2752 57.8785 82.4819 58.174 82.8214 58.3952C83.4074 58.777 83.8251 58.1763 84.1651 57.9181C84.3028 57.8135 84.3897 57.6782 84.4726 57.5446C84.5638 57.3975 84.5395 56.991 84.5067 56.5601C84.4813 56.2278 84.1584 55.9563 83.9353 55.5533C83.7041 55.1357 83.3803 54.8831 83.106 54.538C82.8951 54.2728 82.6998 53.9638 82.4429 53.5998C82.1917 53.2441 82.0043 53.0055 81.5066 52.5852C81.316 52.4242 81.2566 52.2011 81.1656 52.0483C81.0795 51.9037 81.0571 51.6656 81.131 51.3884C81.217 51.0656 81.5869 51.0135 81.8262 50.9273C82.4845 50.6902 82.9774 51.0888 83.5097 51.185C83.8167 51.2405 84.0738 51.4714 84.2982 51.7015C84.5415 51.951 84.8201 52.1609 85.0444 52.3815C85.2679 52.6012 85.5663 52.6596 85.832 52.8506C86.2009 53.1159 86.6598 53.7489 87.1488 54.3232C88.084 55.4214 88.3522 55.646 88.5683 56.01C88.7795 56.3655 88.9661 56.7561 89.1407 57.0637C89.3061 57.3551 89.3143 57.6765 89.5136 57.9543C89.7434 58.2747 89.8619 58.6896 89.9033 58.8342C89.9217 58.8989 90.0267 58.8842 90.0854 58.8462C90.3226 58.693 90.2605 58.0453 90.1367 57.326C90.021 56.6544 89.9461 56.262 89.7638 55.8408C89.5677 55.3879 89.186 54.7704 88.8188 54.3369C88.5696 53.9822 88.3711 53.6765 88.1719 53.3792C88.1219 53.3117 87.9731 53.2979 87.9223 53.1818C87.8233 53.0675 87.6248 52.7245 87.3843 52.4263C87.1432 52.1274 86.8955 51.7282 86.7207 51.4019C86.5486 51.0807 86.3314 50.7894 86.1816 50.4826C86.039 50.1904 85.8339 49.9276 85.4282 49.4396C85.0703 49.0089 84.6569 48.2626 84.5233 47.8972C84.398 47.5544 84.1425 47.2847 83.9596 46.9779C83.7988 46.708 83.7604 46.3655 83.6609 46.0587C83.567 45.7691 83.5943 45.0291 83.6851 44.5074C83.8256 44.1437 84.0251 43.7226 84.1574 43.3681C84.2072 43.2813 84.2728 43.2055 84.44 42.955C84.5226 42.7068 84.4886 42.7654 84.5807 42.4391C84.6015 42.3653 84.5891 42.2863 84.5481 42.2472C84.331 42.0405 83.9772 42.0174 83.6372 41.8355C83.0476 41.5202 82.7664 41.1751 82.3768 40.7353C82.2045 40.5407 82.1022 40.3702 82.0194 40.2461C81.9378 40.1239 81.9525 39.8163 81.9771 39.4719C81.987 39.3335 82.051 39.2791 82.1092 39.2403C82.3948 39.05 82.83 39.0872 83.1039 38.991C83.4046 38.8853 83.8399 38.6862 84.1984 38.4265C84.4922 38.2136 84.8528 38.2059 86.3823 38.1768C86.9774 38.1656 87.3074 38.0909 87.6225 37.9666C87.9598 37.8334 88.368 37.7658 88.7501 37.6218C89.0244 37.5185 89.3301 37.4785 89.6953 37.3346C89.996 37.216 90.3251 37.0568 90.6572 36.9611C90.996 36.8635 91.336 36.6362 91.6442 36.5015C91.771 36.4461 91.8683 36.2909 91.9678 36.1099C92.0282 36.0001 92.0016 35.7962 91.9688 35.6606C91.8643 35.2292 91.3728 35.1045 91.0989 34.7405C90.81 34.3565 90.5599 34.0703 90.1303 33.8968C89.174 33.5105 88.4904 34.1243 88.0725 34.2697C87.8014 34.364 87.2626 34.4886 86.8703 34.6428C86.2709 34.8786 85.3533 34.7207 85.0132 34.5006C84.726 34.3147 84.5404 34.0128 84.3658 33.3449C84.3568 31.8485 84.3901 31.3516 84.4727 30.8437C84.4896 30.7184 84.4896 30.6047 84.4896 30.4875C84.4404 30.2973 83.7992 29.6119 83.2968 29.2051C82.8633 28.8541 82.5346 27.9997 82.2933 27.7116C82.1589 27.551 82.0361 27.3665 81.912 27.2232C81.583 26.8432 81.8521 25.798 81.911 25.3849C81.9605 25.0381 82.1018 24.7621 82.069 24.5806C82.0522 24.4879 81.9705 24.418 81.871 24.3789C81.4 24.194 80.9427 24.4927 80.5444 24.4743C80.2151 24.4591 80.0631 23.9584 79.8226 23.5091C79.3835 22.6888 79.4652 21.7395 79.5147 21.2865C79.5348 21.1027 79.5647 20.9127 79.4744 20.6648C79.185 19.8703 78.7368 19.7642 78.4961 19.4384C78.1873 19.0207 77.924 18.8254 77.6257 18.6525C76.9562 18.2642 75.6535 18.6128 75.2547 18.7662C74.7269 18.9693 73.9978 19.1115 73.5543 18.9688C73.2135 18.859 73.1312 18.3853 72.9076 17.9831C72.7109 17.6293 72.5343 17.2558 72.3932 16.9294C72.2513 16.6011 72.0209 16.317 71.7965 16.0578C71.5388 15.7602 71.4229 15.3977 71.3647 15.0814C71.349 14.9963 71.3562 14.9001 71.3234 14.8229C71.2249 14.6887 71.0916 14.6301 70.9674 14.6017C70.909 14.5732 70.948 14.3943 70.8973 14.3357Z" fill="#EE6818"/>
<path d="M67.0476 14.0047C67.0476 14.0047 67.0476 14.0047 67.0476 14.0046L67.0386 13.9925C66.6681 13.4939 66.9677 12.3003 67.0515 11.9665L67.0555 11.9504C67.1668 11.5064 67.2403 11.2967 67.2998 11.0763C67.4003 10.704 67.8235 10.3887 67.9666 10.1752C68.0931 9.98636 68.2523 9.83822 68.4072 9.65932C68.6221 9.41113 68.7761 9.15069 68.9314 8.97137C69.0863 8.79247 69.3 8.49121 69.4615 8.263C69.6749 7.96147 69.8717 7.30845 70.0747 6.96365C70.3175 6.55113 70.4677 6.16613 70.6285 5.86983C70.8083 5.53856 70.968 5.38121 71.0815 5.17486C71.2038 4.95233 71.3253 4.68046 71.3973 4.36352C71.4503 4.13061 71.469 3.14692 71.4097 2.3558C71.3763 1.91061 71.1838 1.72232 71.0348 1.54982C70.8888 1.38078 70.6485 1.25434 70.4157 1.07523C70.1868 0.899098 69.6745 0.923363 69.3198 1.03974C69.0603 1.12489 68.8969 1.49947 68.7123 1.79558C68.4427 2.22809 68.3609 2.51798 68.2653 2.77241C68.1101 3.18539 67.8849 3.52081 67.7236 3.88645C67.5214 4.3447 67.2067 4.6623 66.9317 5.0558L66.913 5.08259C66.6905 5.40091 66.529 5.6319 66.1878 6.30624C66.0177 6.64239 65.7416 6.93373 64.8143 7.68152C64.3312 8.07116 64.1208 8.11732 63.7463 8.35069C63.3327 8.60844 63.0609 8.72232 62.7689 8.87398C62.5733 8.9756 62.3226 8.98396 62.0423 9.04628C61.7899 9.10238 61.0763 9.09456 60.2392 9.27264C59.7216 9.38274 59.1781 9.63023 58.9394 9.727C58.5382 9.88965 58.1297 9.98844 57.7432 10.1257C57.4355 10.2349 56.9876 10.3046 56.4472 10.3871C55.5283 10.5274 55.118 10.2377 54.6405 9.9352C53.9119 9.4737 53.6987 9.16472 53.3653 8.71117C53.1029 8.35413 52.8647 8.16024 52.668 7.95369C52.5552 7.78964 52.4002 7.58248 52.2336 7.39697C52.1615 7.32042 52.0854 7.26797 51.9296 7.18461C51.6036 7.18461 50.711 7.45322 50.45 7.7198C50.2842 7.8892 50.145 8.10603 50.0562 8.33008C49.9566 8.58145 49.7926 8.82478 49.6395 9.08301C49.5262 9.27407 49.2993 9.28712 48.8771 9.27409C48.6057 9.26572 48.512 8.93548 48.3124 8.7387C48.1533 8.58195 47.7853 8.4479 47.4668 8.25682C47.3678 8.19747 47.1154 8.20208 46.7926 8.22894C46.6657 8.2395 46.621 8.30953 46.5796 8.39093C46.4124 8.71954 46.4089 8.98757 46.3678 9.19188C46.3593 9.23427 46.2806 9.21956 46.2332 9.17926C46.0098 8.98941 45.8112 8.62454 45.5812 8.4534C45.3565 8.28614 45.0352 8.4593 44.8528 8.57468C44.6488 8.70376 44.588 9.01525 44.5471 9.14406C44.5152 9.24457 44.3653 9.21956 44.2772 9.19269C44.0747 9.13096 44.1066 8.73158 44.0247 8.66381C43.9344 8.58918 43.7665 8.60907 43.5791 8.63593C43.1195 8.70178 42.8968 9.2863 42.7384 9.5307C42.6712 9.63445 42.5797 9.70754 42.4627 9.76187C42.1081 9.92651 41.8163 9.27491 41.5231 8.92917C41.3286 8.69981 41.0298 8.67745 40.0691 8.65649C39.8191 8.65103 39.7252 8.67704 39.6373 8.62311C39.5309 8.55786 39.525 7.57328 39.5192 6.21699C39.5162 5.50951 39.2903 5.24571 39.1908 5.00823C39.0465 4.66396 38.8914 4.47243 38.8204 4.24838C38.7456 4.01234 38.6095 3.76752 38.4275 3.49545C38.2706 3.26089 38.0344 3.20995 37.7295 3.16233C37.018 3.05117 36.8242 3.31739 36.6419 3.45333C36.4336 3.60855 36.4006 4.03532 36.4295 4.42929C36.4495 4.70143 36.5761 4.93151 36.91 5.56764C37.1112 5.95091 37.2337 6.23388 37.3105 6.55927C37.3462 6.71021 37.3754 7.2074 37.3812 7.89216C37.3839 8.21491 37.4106 8.98187 37.3874 10.0938C37.3728 10.7882 37.1174 10.9818 36.9474 11.1591C36.8608 11.2494 36.6949 11.2138 36.5367 11.2004C36.1755 11.1697 35.908 10.6587 35.714 10.3807C35.4244 9.96575 34.9699 9.54678 34.7271 9.34226C34.4995 9.15058 34.1932 8.93548 33.8001 8.69128C33.4812 8.49321 32.6708 8.60907 32.0439 8.42003C31.6623 8.30496 31.2689 7.97254 31.0212 7.76192C30.9008 7.65953 30.7742 7.592 30.6688 7.53096C30.4475 7.40273 30.2343 7.73974 29.9818 7.93001C29.7272 8.12186 29.705 8.53907 29.6638 9.10133C29.5868 10.1512 29.7515 10.4527 29.8336 10.7108C29.9537 11.0881 29.951 11.4295 30.0743 11.6674C30.2005 11.9109 30.1864 12.1625 30.1689 12.3251C30.1515 12.3937 30.1166 12.434 30.0695 12.4614C30.0225 12.4889 29.9644 12.5023 29.9045 12.5162C29.7546 12.5301 29.7982 12.6081 29.3198 12.6131C29.0126 12.6162 28.8425 12.5802 28.7264 12.5451C28.608 12.5092 28.4324 12.4351 28.2932 12.3853C28.156 12.3363 28.021 12.2984 27.7351 12.2259C27.3886 12.138 27.1459 12.1011 27.0711 12.0754C26.9299 12.0268 26.8124 12.0117 26.7114 11.9908C26.2932 11.9042 26.113 11.8099 26.0011 11.7723C25.9536 11.7563 25.7001 11.6742 25.3301 11.5662C25.1058 11.5007 24.9986 11.4903 24.8204 11.4413C24.4878 11.35 24.2417 11.2978 24.1488 11.2628C23.9529 11.1889 23.7622 11.1428 23.6344 11.1287C23.4951 11.1133 23.2548 11.0913 22.9664 11.0281C22.7638 10.9836 22.5871 10.9128 22.4204 10.8635C22.2422 10.8108 22.05 10.7251 21.8891 10.6614C21.8011 10.6266 21.7079 10.6167 21.5965 10.5793C21.4252 10.5217 21.2043 10.4293 21.0112 10.3237C20.8977 10.2617 20.781 10.1755 20.6367 10.0957C20.5572 10.0517 20.4555 9.97815 20.3173 9.90537C20.2459 9.86776 20.0859 9.86964 19.8865 9.87662C19.8256 9.87875 19.8393 9.89645 19.9563 10.0486C19.9598 10.0532 19.9635 10.058 19.9672 10.0629C20.0943 10.2282 20.3319 10.5444 20.4946 10.7933C20.6572 11.0423 20.7378 11.2144 20.7893 11.3356C20.9121 11.6242 20.8981 11.9159 20.8516 12.1847C20.8029 12.4656 20.5611 12.514 20.4126 12.6196C20.2085 12.7649 20.081 12.7913 20.0034 12.8407C19.9865 12.8514 19.971 12.8618 19.9607 12.8968C19.9336 12.9886 19.9462 13.0964 19.9644 13.1761C19.9827 13.2565 20.0759 13.3173 20.1733 13.3853C20.2657 13.4498 20.4332 13.4819 20.755 13.5101C20.9637 13.5283 21.2661 13.5197 21.4519 13.5266C21.8081 13.54 21.9348 13.6603 21.992 13.7191C22.054 13.7828 22.0735 13.881 22.112 13.9843C22.18 14.1664 22.0942 14.5284 21.9746 14.8102C21.9299 14.9153 21.8353 15.0436 21.7313 15.1596C21.6273 15.2756 21.5065 15.3686 21.396 15.4421C21.2854 15.5156 21.1888 15.5668 21.0423 15.6117C20.8959 15.6567 20.7026 15.6939 20.5608 15.7107C20.3353 15.7375 20.0942 15.653 19.8422 15.5427C19.7433 15.4976 19.703 15.4743 19.6641 15.46C19.6253 15.4457 19.589 15.4411 19.5517 15.4363C19.4583 15.3706 19.495 15.4929 19.4076 15.4528C19.319 15.4122 19.2024 15.3754 19.0216 15.3027C18.8779 15.2449 18.6787 15.23 18.5453 15.2061C18.5228 15.2021 18.4947 15.1922 18.154 15.1851C17.8133 15.178 17.1609 15.1733 16.7886 15.1756C16.4163 15.1778 16.3439 15.1871 16.1374 15.1966C15.9309 15.206 15.5927 15.2153 15.3761 15.2154C14.9097 15.2157 14.7158 15.1028 14.6384 15.0561C14.5054 14.9756 14.4351 14.8683 14.3212 14.8537C14.2992 14.8508 14.2965 14.8816 14.2965 14.9028C14.2963 14.9475 14.3126 14.9945 14.4315 15.2111C14.5391 15.4069 14.7558 15.7672 14.8899 16.0331C15.0963 16.4423 15.1262 16.6526 15.1323 16.7368C15.141 16.8578 15.1102 17.0371 15.0635 17.2224C15.031 17.3513 14.984 17.4231 14.8972 17.5839C14.8257 17.7164 14.7016 17.9541 14.6192 18.0995C14.5074 18.2969 14.435 18.3673 14.3762 18.4189C14.3183 18.4697 14.256 18.4803 14.2013 18.478C14.1342 18.4751 13.932 18.3546 13.6658 18.1832C13.4955 18.0735 13.398 18.0857 13.3187 18.0973C13.2902 18.1015 13.2918 18.1322 13.3018 18.1674C13.3259 18.2518 13.381 18.339 13.4962 18.4745C13.5795 18.5725 13.7281 18.7123 13.8692 18.8796C14.2842 19.4431 14.3045 19.4948 14.3228 19.5253C14.329 19.5418 14.329 19.5604 14.3534 19.5936C14.3494 19.7529 14.3709 19.9114 14.2978 20.2394C14.2764 20.3352 14.2609 20.3907 14.2004 20.5819C14.0573 21.0343 13.9192 21.3351 13.9071 21.3772C13.8574 21.5497 13.6714 21.6967 13.6062 21.7368C13.5369 21.7795 13.4154 21.7627 13.1089 21.7628C12.9621 21.7629 12.8824 21.73 12.6975 21.7345C12.5918 21.7371 12.837 22.0346 12.9486 22.2644C13.0468 22.4663 12.9839 22.6546 12.9533 22.7465C12.9124 22.8692 12.866 22.9696 12.7286 23.1356C12.6285 23.2566 12.3943 23.4312 12.256 23.5457C12.0094 23.75 11.8501 23.8523 11.7372 23.9118C11.6585 23.9533 11.5889 24.0361 11.4893 24.1159C11.2684 24.2929 11.0156 24.3557 10.8753 24.4026C10.6846 24.4662 10.4148 24.5756 10.2547 24.6586C10.1445 24.7158 9.98233 24.7644 9.89673 24.7739C9.77388 24.7874 9.596 24.8067 9.50222 24.8138C9.44934 24.8178 9.2957 24.8256 9.11058 24.8419C9.04886 24.8473 9.05836 24.8907 9.07056 24.9261C9.12114 25.0727 9.21674 25.1959 9.47849 25.5781C9.55508 25.6899 9.57098 25.7461 9.57709 25.7929C9.59412 25.9236 9.5345 26.037 9.49594 26.1358C9.47763 26.1827 9.46531 26.2253 9.45518 26.2627C9.44908 26.2816 9.44103 26.3002 9.43273 26.3194C9.4165 26.3755 9.44213 26.4604 9.38514 26.6464C9.36304 26.7185 9.33231 26.8132 9.29167 26.9211C9.26237 26.9989 9.17831 27.2345 9.01803 27.612C8.94181 27.7914 8.86178 27.9382 8.75189 28.1242C8.64201 28.3101 8.50107 28.5287 8.25732 28.8692C8.01358 29.2096 7.6713 29.6654 7.45873 29.9374C7.18148 30.2921 7.07081 30.3837 6.9979 30.4375C6.95411 30.4699 6.89278 30.5053 6.63817 30.6268C6.38356 30.7483 5.93659 30.9529 5.63988 31.1025C5.34318 31.2521 5.21029 31.3405 5.05123 31.4209C4.71753 31.5895 4.51218 31.6568 4.42945 31.7547C4.22934 31.9914 4.06899 32.2014 4.00816 32.3347C3.9236 32.52 3.90193 32.7737 3.91603 33.0221C3.93769 33.404 4.06447 33.5215 4.13952 33.6412C4.19718 33.7332 4.25959 33.8129 4.31438 33.8714C4.36917 33.93 4.48668 34.0519 4.7217 34.2369C5.02538 34.4759 5.27618 34.5928 5.37771 34.621C5.3957 34.6248 5.41164 34.6271 5.42611 34.6289M67.0476 14.0046L67.0476 14.0047M19.9672 10.0629L19.9563 10.0486M5.37771 34.621C5.38874 34.621 5.40552 34.6234 5.42611 34.6289M5.56148 34.6728C5.53659 34.6585 5.51242 34.6445 5.48375 34.6375C5.4665 34.6333 5.44797 34.6317 5.42611 34.6289M5.40762 47.1396C5.41205 47.1372 5.41646 47.1349 5.42086 47.1326C5.60612 47.0351 5.80524 46.954 6.08199 46.8107C6.16752 46.7665 6.33385 46.7331 6.59352 46.6558C6.85052 46.5792 7.0826 46.559 7.24514 46.5542C7.40139 46.5497 7.52214 46.6383 7.69889 46.7299C7.77416 46.7689 7.89065 46.8348 8.00517 46.9404C8.11969 47.046 8.22842 47.1902 8.31664 47.3249C8.40487 47.4596 8.4693 47.5805 8.50652 47.6545C8.54373 47.7284 8.55179 47.7516 8.56008 47.8179C8.57216 47.8551 8.55077 47.9415 8.55699 48.1909C8.56322 48.4403 8.56322 48.9007 8.55919 49.1704C8.5529 49.5916 8.5227 49.6938 8.50428 49.9371C8.49374 50.0763 8.50161 50.3199 8.5076 50.5054M5.42086 47.1326L5.40762 47.1396M8.5076 50.5054C8.50782 50.512 8.50803 50.5186 8.50824 50.5252C8.51789 50.8249 8.54686 50.9673 8.56108 51.0281C8.56869 51.0607 8.57127 51.0983 8.57133 51.4895C8.57139 51.8807 8.56736 52.6248 8.56932 53.0477C8.57127 53.4705 8.57932 53.5496 8.59958 53.6764C8.64749 53.9762 8.71746 54.2269 8.77432 54.3675C8.85624 54.5702 8.88414 54.776 8.92106 54.9272C8.94923 55.0426 8.9903 55.2779 9.05504 55.7035C9.08034 55.8698 9.181 55.9932 9.28233 56.1175C9.48079 56.3607 9.70122 56.4161 9.85406 56.5057C10.0319 56.61 10.2018 56.5716 10.5506 56.5461C10.6583 56.5383 10.7616 56.4879 10.9021 56.4269C11.2183 56.2896 11.4304 56.1866 11.5075 56.1586C11.7057 56.0865 11.9018 56.0268 12.0526 56.0385C12.2596 56.0642 12.5082 56.1393 12.6076 56.1978C12.6547 56.2285 12.695 56.261 12.7364 56.2945C12.7364 56.2946 12.7365 56.2946 12.7365 56.2946M8.50824 50.5252L8.5076 50.5054M12.7364 56.2945L12.7365 56.2946C12.8135 56.3085 12.8092 56.3084 12.9333 56.3789C13.0183 56.4271 13.0899 56.5381 13.1855 56.6512C13.2944 56.7799 13.3988 56.8437 13.5555 56.9987C13.6493 57.0914 13.7002 57.154 13.7955 57.236C14.0037 57.4152 14.1346 57.5855 14.2936 57.7478C14.4384 57.8955 14.5947 58.0694 14.7044 58.2079C14.8069 58.3373 14.9158 58.5012 15.0323 58.7319C15.0972 58.8605 15.124 58.9531 15.197 59.0728C15.251 59.1613 15.311 59.2256 15.3558 59.3078C15.4151 59.4164 15.5711 59.5402 15.6404 59.6085C15.7073 59.6745 15.7786 59.7515 15.8459 59.8176C15.9018 59.8725 15.9455 59.9443 16.0551 59.9705C16.1828 60.0009 16.2825 59.7857 16.4008 59.6539C16.5788 59.4556 16.7709 59.3905 16.8889 59.3599C17.0669 59.3138 17.1533 59.273 17.4088 59.2891C17.7766 59.3123 17.914 59.6058 18.0238 59.7327C18.1292 59.8545 18.1908 60.0052 18.2497 60.1413C18.3446 60.3604 18.4063 60.5078 18.4916 60.6977C18.5672 60.8661 18.6989 61.0568 18.7883 61.2422C18.8294 61.3485 18.8498 61.41 18.8722 61.4709C18.8824 61.5038 18.8905 61.541 18.8988 61.5794C18.9149 61.6773 19.099 62.2069 19.1456 62.5813C19.1676 62.7578 19.16 63.0336 19.15 63.2215C19.1267 63.6582 19.0138 63.8369 18.9691 63.9829C18.9599 64.0129 18.9447 64.03 18.8942 64.2023C18.8437 64.3747 18.7551 64.7002 18.6994 64.9214C18.6173 65.2475 18.6028 65.4156 18.5948 65.5164C18.5882 65.5985 18.4936 65.8787 18.396 66.3103C18.3555 66.4899 18.3468 66.5932 18.3043 66.811C18.2619 67.0288 18.1894 67.359 18.146 67.543C18.0821 67.8143 18.0337 67.9706 18.0049 68.1399C17.9887 68.474 17.9572 68.4305 17.947 68.5271C17.9349 68.691 17.9024 68.8507 17.8233 69.1179C17.7293 69.4354 17.7964 69.8369 17.8229 69.9618C17.843 70.0569 17.8533 70.1427 17.9 70.3465L17.9024 70.3566C17.9379 70.5116 17.9572 70.5957 18.0544 70.9169C18.0974 71.0589 18.1459 71.2363 18.193 71.3594C18.2236 71.4395 18.256 71.5097 18.2987 71.5849C18.3441 71.6649 18.3861 71.7726 18.4349 71.8504C18.4798 71.9217 18.5447 71.9795 18.5956 72.0336C18.6526 72.0942 18.8446 72.0784 18.9717 72.0364C19.0727 72.003 19.1304 71.8721 19.2562 71.6216C19.369 71.3969 19.3625 71.2709 19.4253 71.0155C19.4509 70.9116 19.4802 70.7549 19.529 70.5695C19.6013 70.2949 19.6676 69.9696 19.6878 69.8103C19.7181 69.5725 19.7406 69.2715 19.757 68.9906C19.7676 68.8096 19.8343 68.6731 19.8606 68.5232C19.8898 68.3574 19.9279 68.2314 19.938 68.1775C19.9475 68.1268 19.9846 67.9741 20.0212 67.6233C20.0759 67.0994 20.0538 66.7796 20.1004 66.7889C20.2153 66.8118 20.2933 66.9713 20.3589 67.1149C20.4362 67.2845 20.4971 67.385 20.6047 67.5774C20.6355 67.6435 20.68 67.7372 20.737 67.8545C20.7576 67.9021 20.905 67.8126 20.9092 67.8507C20.9253 67.729 20.9822 67.4764 20.9966 67.1612C21.0089 66.8939 20.9907 66.5733 20.9723 66.4747C20.9586 66.4016 20.9621 66.3243 20.9359 66.2377C20.896 66.1065 20.8241 65.8746 20.735 65.5513C20.6402 65.2074 20.5149 64.9532 20.4662 64.7983C20.4192 64.6491 20.3645 64.5394 20.2547 64.1832C20.209 64.035 20.1773 63.8356 20.1405 63.6329C20.1012 63.4156 20.1402 63.0462 20.2213 62.8159C20.2929 62.6127 20.4005 62.4723 20.4452 62.4066C20.4734 62.3652 20.5907 62.1218 20.7898 61.7674C20.9574 61.4692 21.1242 61.2984 21.2119 61.1501C21.2949 61.0099 21.4295 60.8984 21.5047 60.8772C21.5312 60.8748 21.5674 60.8748 21.5921 60.8841C21.6168 60.8934 21.6289 60.912 21.6413 60.9452C21.7329 61.1567 21.9702 61.8178 21.9057 62.7181C21.8718 63.1915 21.8963 64.0128 21.8872 64.4771C21.8781 64.9414 21.8599 65.0255 21.8505 68.7578C21.8412 72.4894 21.8412 79.8655 21.8412 87.4656M21.8412 87.4656V87.4693C21.8634 87.5595 22.1368 87.8773 22.2783 88.1307C22.4 88.3488 22.3515 88.8726 22.3235 89.4244C22.2872 90.1436 22.2505 90.5835 22.2226 91.107C22.1847 91.8184 22.1947 92.359 22.1278 92.514C21.982 92.8514 21.8247 93.0318 21.7574 93.2846C21.6631 93.6388 21.7123 94.4506 21.8686 95.2325C21.9907 95.8435 22.194 96.3209 22.2615 96.6126C22.3435 96.9676 22.4853 97.1888 22.5755 97.5637C22.7378 98.2387 22.4531 98.5741 22.3183 98.8661C22.2148 99.0904 22.005 99.3255 21.8919 99.7907C21.722 100.49 22.0924 101.033 22.1997 101.346C22.303 101.647 22.7518 102.107 23.0069 102.453C23.0843 102.559 23.2698 102.577 23.4547 102.558C23.6644 102.536 23.8524 102.088 23.9771 101.788C24.0971 101.5 24.1895 101.103 24.3357 100.836C24.4448 100.637 24.571 100.441 24.7223 100.234C24.9555 99.9153 25.2316 99.4848 25.3953 99.1596C25.5986 98.7556 25.6252 98.4219 25.637 97.8269C25.6442 97.4645 25.4469 97.0885 25.3066 96.7509C25.1531 96.3815 24.9423 96.0132 24.7686 95.6569C24.6689 95.4525 24.6053 95.0435 24.6275 94.5452C24.6451 94.1491 24.9296 93.9798 25.1316 93.7333C25.2741 93.5594 25.4005 93.0116 25.5635 92.4068C25.6037 92.2574 25.6144 91.4223 25.6033 90.1669C25.5959 89.3239 25.3796 89.0202 25.2895 88.5997C25.2781 88.2968 25.3623 87.9462 25.3455 87.7658C25.3398 87.6494 25.3455 87.9375 25.3455 87.7658M21.8412 87.4693C21.8412 87.4681 21.8412 87.4668 21.8412 87.4656M25.3455 87.7658C25.3455 87.5094 25.3566 87.2747 25.3734 86.7411C25.4108 85.5544 25.3459 84.7359 25.2788 84.6392C25.0627 84.3278 24.9425 83.8179 24.8524 83.4037C24.7628 82.9921 24.8187 82.523 24.7851 81.206C24.7564 80.0817 24.7737 78.03 24.7792 76.9285C24.7848 75.8269 24.7959 75.7371 24.8016 75.5435C24.8073 75.3498 24.8073 75.0549 24.8073 74.7511C24.9415 74.5573 25.0406 74.2138 25.1714 73.8811C25.2668 73.6387 25.2108 72.5107 25.1549 71.7006C25.08 70.6141 25.3003 70.3009 25.4511 69.803C25.5981 69.3181 25.8048 68.9668 25.8442 68.7593C25.8875 68.5308 26.0168 68.0111 26.2527 67.549C26.3275 67.4025 26.4662 67.3732 26.5279 67.3023C27.0134 66.7446 26.556 65.2108 26.6287 65.101C26.7881 64.8603 27.071 64.8223 27.5692 64.8279C27.7428 64.8299 27.8228 65.0542 27.9125 65.1898C27.9952 65.3149 27.9914 65.4816 28.025 65.9761C28.0542 66.4055 28.0365 67.2015 28.0309 67.6494C28.0254 68.0973 28.0143 68.1742 28.0085 68.56C28.0028 68.9458 28.0028 69.6381 28.0417 70.2768C28.0805 70.9155 28.1582 71.4796 28.1983 71.9625C28.2383 72.4454 28.2093 72.6722 28.2093 73.0684C28.2093 73.61 28.18 74.6707 28.1282 75.9589C28.0894 76.9226 28.1206 78.7312 28.128 79.7215C28.1353 80.7118 28.1499 80.83 28.1574 81.3555C28.1783 82.8099 28.1796 83.8349 28.2018 84.2752C28.2205 84.6473 28.2093 85.3235 28.2239 85.7139C28.2385 86.1042 28.2678 86.1887 28.2829 87.5752C28.2979 88.9617 28.2979 91.6477 28.2906 93.082C28.2833 94.5164 28.2687 94.6178 28.2611 95.5907C28.2542 96.4882 28.2537 98.125 28.2536 99.8628M28.2536 100.302C28.2536 100.155 28.2536 100.009 28.2536 99.8628M28.2537 99.8157C28.2537 99.8311 28.2536 99.8468 28.2536 99.8628M33.1927 99.6793L33.1928 99.6616C33.1991 98.4135 33.2171 97.4787 33.1089 97.372C33.0195 97.2838 32.9585 97.1803 32.8721 97.0688C32.7635 96.9288 32.6532 96.2358 32.7067 95.3082C32.7386 94.7557 32.6863 94.3517 32.7965 94.0102C32.9182 93.6335 33.1004 93.4214 33.1481 93.1761C33.1999 92.9092 33.5423 92.5985 33.333 90.8383C33.2755 90.3541 33.3325 90.0012 33.2179 89.6665C33.1093 89.3493 32.9213 89.1284 32.9111 88.4631C32.8921 87.2299 32.9592 86.2765 32.9496 85.9953C32.9431 85.8041 32.9008 85.4428 32.937 84.9901C32.9688 84.5919 32.9772 84.32 33.0843 83.9935C33.2129 83.6017 33.3539 82.7443 33.3463 82.1314C33.3396 81.5931 33.2907 81.1202 33.2822 79.855C33.2758 78.9143 33.2548 77.1585 33.2889 76.2213C33.3273 75.1665 33.368 74.8751 33.4167 74.5684C33.4555 74.3244 33.4992 74.087 33.5447 73.8444C33.5959 73.5709 33.5444 73.3529 33.5827 73.2212C33.5827 73.1459 33.5827 73.0728 33.5958 72.9985C33.6342 72.8512 33.6595 72.6296 33.7236 71.9186C33.7362 70.4489 33.7419 69.3783 33.6656 69.209C33.5559 68.9655 33.3641 68.6322 32.9921 68.5967C32.6855 68.5675 32.438 68.5862 32.3153 68.6641C32.1877 68.7452 32.0443 68.8154 32.0283 68.9303C31.9962 69.1596 31.9604 69.4538 31.9389 69.8324C31.9064 70.4033 31.94 70.9099 31.8109 72.3534C31.7529 73.0014 31.6421 73.4687 31.5996 74.593C31.5741 75.2689 31.5614 76.439 31.5616 77.0617C31.5618 77.6844 31.5745 77.7575 31.5808 78.314C31.5871 78.8705 31.5871 79.8797 31.561 80.4973C31.5349 81.1149 31.4702 81.3332 31.459 81.6474C31.4336 82.3555 31.5083 83.1093 31.5298 83.7817C31.5487 84.3783 31.4719 84.759 31.4451 84.9061C31.3938 85.1868 31.4451 85.741 31.4451 86.2245C31.4451 86.329 31.4451 86.4303 31.3923 86.6289C31.3396 86.8276 31.2372 87.1147 31.1935 88.3723C31.1499 89.6298 31.1519 91.7924 31.1793 92.9167C31.2088 94.1259 31.0515 94.9507 31.194 95.5853C31.2687 95.9181 31.7171 96.294 31.8225 96.8136C31.9326 97.3565 31.9047 98.2115 31.7325 98.4689C31.5328 98.7673 31.3791 99.0014 31.3711 99.8173C31.3564 101.301 31.2895 102.349 31.2824 102.808C31.2678 103.755 31.2678 104.364 31.2678 104.397C31.2075 104.467 31.1933 104.458 31.164 104.666C31.1348 105.211 31.0754 105.789 31.0386 106.293C31.0018 106.677 31.0726 107.162 30.9056 109.462C30.8538 110.176 30.9683 111.234 30.7724 111.95C30.6463 112.411 30.5313 113.166 30.5956 113.681C30.6481 114.102 30.8728 114.648 30.7726 116.457C30.7359 117.121 30.6908 117.555 30.536 118.007C30.4247 118.331 30.3803 118.955 30.0606 118.979C29.61 119.012 29.2562 118.998 29.1393 118.952C28.9026 118.859 28.64 118.829 28.4675 118.585C28.431 118.533 28.442 118.461 28.4159 118.397C28.2971 118.106 28.1118 117.815 28.0241 117.449C27.8991 116.928 27.6454 116.219 27.6404 115.128C27.6331 113.525 27.6858 112.342 27.7222 112.04C27.8104 111.308 27.7447 110.172 27.8698 109.592C27.9434 109.25 28.0175 108.923 28.0843 108.525C28.2093 107.779 28.5767 106.934 28.1424 106.059C27.9567 105.684 27.8297 105.459 27.8029 105.292C27.751 104.968 27.232 102.835 27.9073 102.281C27.9593 102.238 28.0335 102.218 28.0697 102.144C28.2209 101.835 28.2523 100.553 28.2536 99.8628M33.1927 99.6793V99.6793M33.1927 99.6793C33.1927 99.6793 33.1927 99.6793 33.1927 99.6793M33.1927 99.6793C33.1891 100.379 33.1869 100.816 33.2881 101.095C33.3833 101.357 33.6842 101.42 33.94 101.517C34.1028 101.578 34.2349 101.377 34.3178 101.281C34.4982 101.073 34.6306 100.465 34.7275 99.9377C34.7925 99.5838 34.9257 99.2796 34.9832 98.8612C35.1875 97.3763 34.7219 97.0045 34.6194 96.6061C34.515 96.2002 34.4156 95.5739 34.3059 95.2166C34.228 94.963 34.1969 94.2611 34.1332 93.5933C34.0223 92.431 33.9927 91.982 33.954 91.5681C33.9455 91.4779 33.916 91.42 33.9029 90.3222C33.8899 89.2244 33.8899 87.0889 33.9215 85.9011C33.958 84.534 34.0818 83.9328 34.0754 83.2536C34.0692 82.5858 33.9927 81.7597 33.954 80.8589C33.9411 80.5593 33.8899 80.091 33.8962 79.5004C33.9046 78.7167 33.9409 77.7544 33.9601 76.9919C33.976 76.3612 33.9666 75.2347 33.973 74.6253C33.9812 73.8359 34.0818 73.4566 34.1518 73.1372C34.245 72.7124 34.4394 72.0675 34.7204 71.3586C34.7785 71.2119 34.7725 71.1359 34.7979 71.0836C34.9067 70.8588 35.2486 70.9974 35.4852 71.0933C35.4883 71.0946 35.4913 71.0958 35.4944 71.0971C35.603 71.1341 35.7185 71.1638 35.8525 71.186C35.9231 71.1935 35.9991 71.1935 36.0774 71.1935C36.128 71.2227 36.2097 71.2046 36.5229 71.1753C36.8656 71.1433 36.9531 70.6444 37.1193 70.3268C37.2677 70.0432 37.4635 69.6409 37.6504 69.344C37.7804 69.1375 37.9378 68.8715 38.1234 68.6716C38.3099 68.4707 38.4114 68.1774 38.6221 67.8153C38.7971 67.5145 39.0071 67.3103 39.2828 67.0422L39.2931 67.0322C39.7124 66.6244 40.0225 66.6847 40.3487 66.6249C40.6471 66.5701 40.8921 66.4037 41.2246 66.3C41.5315 66.2043 41.8012 66.2703 42.2138 66.2481C43.9101 66.157 44.1418 66.3727 44.5632 66.4471C44.9662 66.5183 45.1396 66.7574 45.4465 66.8901C45.7609 67.0262 46.3017 67.2733 46.611 67.4C47.154 67.6226 47.7876 68.6322 47.9989 68.899C48.2158 69.173 48.3257 69.4894 48.4024 69.7779C48.4637 70.0083 48.6197 70.4476 48.754 71.0696C48.8262 71.4042 48.876 71.9536 48.9716 72.4662C49.0521 72.8981 49.1316 73.1973 49.2655 73.4861C49.4308 73.8424 49.6428 74.0252 49.911 74.2546C50.3326 74.615 51.0881 74.308 51.293 74.16C51.5158 73.999 51.6384 73.7761 51.9513 73.4147C52.163 73.1118 52.2916 72.6982 52.3871 72.1088C52.4067 71.8871 52.4067 71.5946 52.3683 71.2932C52.2782 71.2358 52.202 71.0295 52.1464 70.6526C52.1025 70.3551 51.8807 70.171 51.7447 69.8978C51.6106 69.6283 51.4587 69.3584 51.2826 69.126C51.1007 68.8858 51.0264 68.511 50.9658 68.2447C50.8083 67.5523 50.6846 67.1651 50.6391 66.7375C50.5052 65.4796 50.7744 65.1459 50.8246 64.8904C50.8727 64.6454 51.0258 64.4497 51.1458 64.2519C51.3047 63.99 51.6769 63.7186 51.8994 63.619C52.1522 63.5059 52.5222 63.4853 52.9225 63.4564C53.8071 63.3926 53.989 63.5661 54.1552 63.6648C54.3138 63.759 54.4514 63.9372 54.6473 64.0535C54.8723 64.187 55.0838 64.3661 55.2555 64.5292C55.4725 64.7353 55.5366 65.1905 55.7576 65.5783C55.9295 65.8801 56.069 66.1639 56.1103 67.3451C56.1214 67.6632 56.05 67.79 56.0349 68.0666C56.0024 68.6638 55.98 69.2393 55.8699 69.7132C55.611 70.8265 55.6083 71.1193 55.5025 71.4274C55.3667 71.8228 55.457 72.4735 55.3821 73.0574C55.3434 73.3589 55.2261 73.6496 55.196 74.2433C55.1729 74.6986 55.1857 75.4689 55.1907 75.8942C55.1977 76.4948 55.3057 76.679 55.4314 76.8763C55.4924 76.972 55.6469 76.9931 55.8176 76.9758C56.0268 76.9547 56.2589 76.2098 56.3763 75.7349C56.4595 75.3982 56.7219 74.9989 56.8483 74.731C56.9571 74.5006 57.0541 74.1523 57.1698 73.8607C57.282 73.5782 57.3151 73.1649 57.4312 72.4641C57.4896 72.1113 57.5967 71.7376 57.7025 71.4587C57.7994 71.2033 57.6377 70.9595 57.6075 70.2575C57.5809 69.6365 57.5973 68.4755 57.642 67.8376C57.6868 67.1996 57.7763 67.1192 57.8473 67.0605C58.0543 66.8895 58.2394 66.8045 58.4856 66.706C58.6726 66.6312 58.9224 66.6304 59.1188 66.6071C59.4959 66.5623 59.9974 66.6179 60.2441 66.7515C60.4346 66.8548 60.581 66.9542 60.7567 67.1054C60.842 67.1749 60.9228 67.2334 61.003 67.2739C61.0434 67.2915 61.1057 67.1637 61.1467 67.1756C61.1865 67.1756 61.3065 67.1756 61.487 67.0779C61.9734 66.8149 61.7689 66.0643 61.8646 65.4951C61.9249 65.1365 62.1613 64.9712 62.2064 64.8843C62.356 64.596 62.9843 64.7275 63.3659 64.7095C63.5751 64.6997 63.7283 64.889 63.9192 65.0455C64.1559 65.2394 64.4113 65.5038 64.7024 65.8163C65.1249 66.2698 65.3554 66.4897 65.5672 66.7164C65.7179 66.8777 65.8082 67.0704 65.939 67.2675C66.1899 67.5321 67.4107 68.5911 67.7621 68.5857C68.0129 68.5819 68.1547 68.3599 68.3054 68.2264C68.5213 68.0353 68.5966 67.688 68.7324 67.3568C68.9148 66.912 69.0789 66.7244 69.4101 66.2837C69.639 65.979 69.8832 65.6333 70.2485 65.401C70.6661 65.1354 71.1758 65.0993 71.7107 65.0749C72.216 65.0519 72.5455 65.5616 72.7615 65.7533C72.9707 65.9389 73.0785 66.1186 73.189 66.3738C73.2491 66.5127 73.2798 67.2041 73.2898 68.1901C73.2944 68.6488 73.3401 68.903 73.3451 69.1697C73.3568 69.7945 73.2907 70.7259 73.0896 71.0155C72.9543 71.2106 72.9483 71.7668 73.0533 72.2513C73.133 72.6187 73.2593 73.2179 73.2699 73.7535C73.2761 74.067 73.2196 74.6793 73.2245 75.3695C73.2283 75.8899 73.2696 76.3072 73.2848 76.5107C73.3011 76.7287 73.3799 76.9569 73.4404 77.1779C73.4767 77.311 73.521 77.422 73.5508 77.5261C73.5954 77.6816 73.7417 77.7356 73.8268 77.7416C73.9249 77.7484 74.013 77.6779 74.0931 77.649C74.2937 77.5767 74.3548 77.1915 74.4148 76.8731M33.2881 101.095C33.1869 100.816 33.1891 100.379 33.1927 99.6793M35.4944 71.0971L35.4852 71.0933M74.4148 76.8731L74.4307 76.7889M67.0476 14.0047C67.1155 14.0961 67.1792 14.1819 67.253 14.2538C67.4082 14.405 67.9311 14.4368 68.3319 14.3906C68.8154 14.3349 69.1825 14.0008 70.2328 14.1846C70.6242 14.2531 70.8144 14.3084 70.8973 14.3357C70.948 14.3943 70.909 14.5732 70.9674 14.6017C71.0916 14.6301 71.2249 14.6887 71.3234 14.8229C71.3562 14.9001 71.349 14.9963 71.3647 15.0814C71.4229 15.3977 71.5388 15.7602 71.7965 16.0578C72.0209 16.317 72.2513 16.6011 72.3932 16.9294C72.5343 17.2558 72.7109 17.6293 72.9076 17.9831C73.1312 18.3853 73.2135 18.859 73.5543 18.9688C73.9978 19.1115 74.7269 18.9693 75.2547 18.7662C75.6535 18.6128 76.9562 18.2642 77.6257 18.6525C77.924 18.8254 78.1873 19.0207 78.4961 19.4384C78.7369 19.7642 79.185 19.8703 79.4744 20.6648C79.5647 20.9127 79.5348 21.1027 79.5147 21.2865C79.4652 21.7395 79.3835 22.6888 79.8226 23.5091C80.0631 23.9584 80.2151 24.4591 80.5444 24.4743C80.9427 24.4927 81.4 24.194 81.871 24.3789C81.9705 24.418 82.0522 24.4879 82.069 24.5806C82.1018 24.7621 81.9605 25.0381 81.911 25.3849C81.8521 25.798 81.583 26.8432 81.912 27.2232C82.0361 27.3665 82.1589 27.551 82.2933 27.7116C82.5346 27.9997 82.8633 28.8541 83.2968 29.2051C83.7992 29.6119 84.4404 30.2973 84.4896 30.4875C84.4896 30.6047 84.4896 30.7184 84.4727 30.8437C84.3901 31.3516 84.3568 31.8485 84.3658 33.3449C84.5404 34.0128 84.726 34.3147 85.0132 34.5006C85.3533 34.7207 86.2709 34.8786 86.8703 34.6428C87.2626 34.4886 87.8014 34.364 88.0725 34.2697C88.4904 34.1243 89.174 33.5105 90.1303 33.8968C90.5599 34.0703 90.81 34.3565 91.0989 34.7405C91.3728 35.1045 91.8643 35.2292 91.9688 35.6606C92.0016 35.7962 92.0282 36.0001 91.9678 36.1099C91.8683 36.2909 91.771 36.4461 91.6442 36.5015C91.336 36.6362 90.9961 36.8635 90.6572 36.9611C90.3251 37.0568 89.9961 37.216 89.6953 37.3346C89.3301 37.4785 89.0244 37.5185 88.7501 37.6218C88.368 37.7658 87.9598 37.8334 87.6225 37.9666C87.3074 38.0909 86.9774 38.1656 86.3823 38.1768C84.8528 38.2059 84.4922 38.2136 84.1984 38.4265C83.8399 38.6862 83.4046 38.8853 83.1039 38.991C82.83 39.0872 82.3948 39.05 82.1092 39.2403C82.051 39.2791 81.987 39.3335 81.9771 39.4719C81.9525 39.8163 81.9378 40.1239 82.0194 40.2461C82.1022 40.3702 82.2045 40.5407 82.3768 40.7353C82.7664 41.1751 83.0476 41.5202 83.6372 41.8355C83.9772 42.0174 84.331 42.0405 84.5481 42.2472C84.5891 42.2863 84.6015 42.3653 84.5807 42.4391C84.4886 42.7654 84.5226 42.7068 84.44 42.955C84.2728 43.2055 84.2072 43.2813 84.1574 43.3681C84.0251 43.7226 83.8256 44.1437 83.685 44.5074C83.5943 45.0291 83.567 45.7691 83.6609 46.0587C83.7604 46.3655 83.7988 46.708 83.9596 46.9779C84.1425 47.2847 84.398 47.5544 84.5233 47.8972C84.6569 48.2626 85.0703 49.0089 85.4282 49.4396C85.8339 49.9276 86.039 50.1904 86.1816 50.4826C86.3314 50.7894 86.5486 51.0807 86.7207 51.4019C86.8955 51.7282 87.1432 52.1274 87.3843 52.4263C87.6248 52.7245 87.8233 53.0675 87.9223 53.1818C87.9731 53.2979 88.1219 53.3117 88.1719 53.3792C88.3711 53.6765 88.5696 53.9822 88.8188 54.3369C89.186 54.7704 89.5677 55.3879 89.7638 55.8408C89.9461 56.2619 90.021 56.6544 90.1367 57.326C90.2605 58.0453 90.3226 58.693 90.0854 58.8462C90.0267 58.8842 89.9217 58.8989 89.9033 58.8342C89.8619 58.6896 89.7434 58.2747 89.5136 57.9543C89.3143 57.6765 89.3061 57.3551 89.1407 57.0637C88.9661 56.7561 88.7795 56.3655 88.5683 56.01C88.3522 55.646 88.084 55.4214 87.1488 54.3232C86.6598 53.7489 86.2009 53.1159 85.832 52.8506C85.5663 52.6596 85.2679 52.6012 85.0444 52.3815C84.8201 52.1609 84.5415 51.951 84.2982 51.7015C84.0738 51.4714 83.8167 51.2405 83.5097 51.185C82.9774 51.0888 82.4845 50.6902 81.8262 50.9273C81.5869 51.0135 81.217 51.0656 81.131 51.3884C81.0571 51.6656 81.0795 51.9037 81.1656 52.0483C81.2566 52.2011 81.316 52.4242 81.5066 52.5852C82.0043 53.0055 82.1917 53.2441 82.4429 53.5998C82.6998 53.9638 82.8951 54.2728 83.106 54.538C83.3804 54.8831 83.7041 55.1357 83.9353 55.5533C84.1584 55.9563 84.4813 56.2278 84.5067 56.5601C84.5395 56.991 84.5638 57.3975 84.4726 57.5446C84.3897 57.6782 84.3028 57.8135 84.1651 57.9181C83.8251 58.1763 83.4074 58.777 82.8214 58.3952C82.4819 58.174 82.2752 57.8785 82.0429 57.6386C81.8193 57.4076 81.6131 56.7999 81.3051 56.5277C81.089 56.3366 80.819 56.0582 80.4671 56.1554L80.4651 56.1559C80.2918 56.2038 80.0779 56.2629 80.0452 56.434C80.0124 56.6061 79.9129 56.9704 79.8547 57.4398C79.8298 57.6403 79.8689 58.9672 79.805 60.7965C79.7801 61.5087 79.7854 61.7621 79.7552 62.0749C79.7303 62.3326 79.6607 63.4247 79.7224 64.8841C79.7473 65.473 79.8469 65.6425 79.8468 66.0427C79.8463 67.4276 79.7967 67.8837 79.7303 68.4422C79.6801 68.8651 79.6427 70.7487 79.5644 71.9567C79.5149 72.7203 79.5124 73.8279 79.5816 74.3698C79.6642 75.0161 79.3905 75.8985 79.5234 77.4749C79.5985 78.3657 79.6642 79.5521 79.6642 79.9698C79.656 80.6314 79.7452 81.2483 79.7638 81.47C79.8133 82.0583 79.9814 82.7981 79.9877 83.4252C79.9954 84.1991 79.8181 84.5763 79.8215 85.2577C79.8302 86.9959 80.0264 87.5611 80.1374 88.1367C80.3277 89.1229 80.6021 89.6123 80.5847 90.0028C80.5416 90.966 80.3585 91.935 80.0608 92.2329C79.7457 92.5483 79.3616 92.9969 78.9828 92.7574C78.8009 92.6425 78.5664 92.3826 78.3781 92.039C78.2045 91.7221 78.0316 91.374 78.1303 89.9586C78.1716 89.3665 78.1406 89.0154 78.2298 88.3705C78.288 87.9497 78.3942 87.655 78.4706 87.1827C78.5696 86.5708 78.5468 86.2554 78.6278 85.8526C78.7029 85.4791 78.7954 85.0607 78.8186 84.5788C78.8681 83.5521 78.8737 81.8498 78.9563 81.6016C78.7263 81.4233 78.6697 81.3143 78.6025 81.2261C78.4598 81.0725 78.3843 80.4007 78.4038 79.4056C78.4609 78.7811 78.4633 77.9554 78.5084 76.9728C78.5559 75.9381 78.7068 75.1511 78.718 73.1248C78.7275 71.4305 78.7275 68.2262 78.7372 66.5342C78.7469 64.8423 78.7658 64.6679 78.7752 63.6599C78.7847 62.6519 78.7285 60.8594 78.8236 59.8697C78.938 58.6787 79.086 57.9976 79.0612 57.423C79.0318 56.7413 78.9056 56.3277 78.8867 56.1744C78.5087 56.1048 78.2003 56.1048 78.0256 56.1285C77.8117 56.1979 77.7302 56.2797 77.6553 56.3549C77.5091 56.5351 77.2588 56.7083 76.9918 57.069C76.785 57.3484 76.5976 57.6186 76.4391 57.876C76.1924 58.2765 75.8356 58.6985 75.53 59.1056C75.3688 59.3202 75.1734 59.5338 75.0226 59.7261C74.8769 59.912 74.7919 60.107 74.6963 60.2832C74.5441 60.5637 74.3303 61.0472 74.3147 61.7363C74.3048 62.1763 74.2851 62.4888 74.2796 63.3257C74.2746 64.082 74.2868 65.4724 74.2695 66.1909C74.2445 67.2264 74.218 67.7885 74.29 68.1234C74.3958 68.6155 74.7215 68.918 74.6562 69.6672C74.6062 70.242 74.5004 70.6836 74.5562 71.4434C74.5863 71.8542 74.6062 72.3809 74.6062 73.2422C74.6062 73.7818 74.5955 74.5176 74.6164 74.9913C74.6456 75.6495 74.5814 75.99 74.4307 76.7889C74.4255 76.8164 74.4202 76.8445 74.4148 76.8731M5.42611 34.6289C5.48865 34.6455 5.58635 34.6895 5.66488 34.7747C5.75463 34.872 5.83358 34.9391 5.90491 34.9886C6.00838 35.0605 6.15085 35.1271 6.39234 35.2607C6.48948 35.3145 6.55768 35.3525 6.6431 35.423C6.68291 35.4558 6.79697 35.5494 7.01192 35.6807C7.24021 35.8201 7.4481 35.8833 7.59008 35.9652C7.74346 36.0538 7.83907 36.1324 7.96823 36.2164C8.26671 36.4105 8.51814 36.541 8.61137 36.6298C8.85375 36.8608 8.91277 37.0854 8.93742 37.2964C8.9694 37.5702 8.97818 37.8369 8.96811 38.0383C8.95561 38.2881 8.893 38.4948 8.76378 38.747C8.66716 38.9355 8.47348 39.2224 8.32369 39.4361C8.07749 39.7874 7.94108 39.928 7.90868 39.9842C7.81424 40.1479 7.69325 40.2658 7.54493 40.4514C7.49751 40.5107 7.39282 40.6785 7.22827 40.9247C7.0505 41.1908 6.9733 41.3321 6.88373 41.4662C6.78623 41.6187 6.65603 41.7881 6.61912 41.861C6.61101 41.8776 6.59893 41.8916 6.58648 41.9059C6.47727 42.0085 6.47443 41.959 6.31165 42.1539C6.08899 42.4205 5.92043 42.6034 5.86381 42.6594C5.75537 42.7667 5.67235 42.871 5.56332 42.9854C5.15904 43.4095 5.0665 43.4488 5.01134 43.5099C4.9541 43.5733 4.90787 43.6461 4.75759 43.7914C4.68403 43.8626 4.57059 43.965 4.27956 44.222C4.06714 44.4096 3.69859 44.6743 3.47767 44.8529C3.25674 45.0314 3.18828 45.1059 3.08255 45.1953C2.68001 45.536 2.54887 45.572 2.45912 45.6169C2.2496 45.7217 1.86553 45.8539 1.77578 45.9058C1.6739 45.9646 1.52825 46.0653 1.41178 46.1219C1.32337 46.1648 1.20659 46.1924 1.11886 46.2112C1.0498 46.226 0.994756 46.2536 0.958149 46.2629C0.94367 46.2665 0.945702 46.2908 0.955769 46.3166C0.979926 46.3787 1.05906 46.4504 1.21086 46.5836C1.31204 46.6724 1.45528 46.8145 1.66687 46.9793C1.87846 47.1442 2.15229 47.3302 2.33765 47.447C2.60668 47.6165 2.75119 47.658 2.93514 47.6698C3.07058 47.6785 3.29225 47.6676 3.63587 47.6164C3.9795 47.5652 4.43856 47.4675 4.71732 47.4009C5.07289 47.316 5.25052 47.2224 5.40762 47.1396" stroke="#EE6818" stroke-width="1.89559" stroke-linecap="round" stroke-linejoin="round"/>
</svg>
