<svg width="1185" height="403" viewBox="0 0 1185 403" fill="none" xmlns="http://www.w3.org/2000/svg">
<path d="M308.077 7.12507C300.168 6.68885 287.339 6.14001 279.97 5.06272C273.469 4.11236 269.472 2.43726 261.671 1.63902C256.623 1.12253 239.873 1.52418 237.732 0.629281C245.495 -0.598809 260.827 0.20699 268.91 1.04454C272.436 1.40988 273 2.54263 277.672 2.34207C296.763 1.52261 317.588 3.06977 336.631 3.73681L438.179 7.06266C447.879 7.41877 458.003 7.59675 467.801 8.01325C478.799 8.48071 491.069 6.32663 502.346 8.70491C503.083 8.83074 504.196 9.08255 504.907 9.16373C508.989 9.53197 512.481 12.0866 515.788 9.02434C516.398 7.91833 516.479 7.48705 518.16 6.82633C521.464 6.60045 521.655 7.49478 523.027 7.57764C525.068 7.70095 528.746 6.48386 531.786 6.80245L532.13 7.38125C531.402 8.15302 531.181 8.49874 530.099 9.10344C527.107 9.17472 523.056 9.07506 520.541 9.90363L520.466 10.0063L521.987 10.3491L520.468 10.0358L521.343 9.6545L522.26 10.3843C523.822 10.4093 528.254 10.3868 529.629 10.1363C541.676 9.25483 562.016 11.1381 574.689 11.5046C590.116 11.9508 605.968 11.2795 621.366 11.74C622.792 11.7826 629.592 10.8236 630.671 10.1907C627.382 9.62736 618.084 10.23 614.454 10.4291C628.602 4.67917 646.552 10.076 650.948 8.85865C650.865 8.80151 650.783 8.74438 650.7 8.68724C641.502 5.76479 631.048 5.91245 620.912 4.8665C619.94 4.76644 617.282 5.80459 615.503 5.84598C613.275 5.89767 608.69 4.98789 607.382 5.07041C600.576 5.4988 598.908 5.79882 592.161 5.49225L587.37 3.42319L588.272 2.92994C597.565 3.21417 604.896 2.42235 614.023 2.19482C617.058 2.11914 624.035 3.69633 626.516 3.41617L625.385 2.35205C627.707 1.81862 631.943 3.89635 635.273 4.11377L636.257 3.88073C636.216 3.37795 636.169 3.10924 636.251 2.60369C657.589 2.71202 677.277 1.70949 698.296 4.67507C700.07 4.92538 704.572 5.19425 705.798 5.78367C705.981 6.63333 705.904 6.79902 705.698 7.65923L706.829 8.00012L707.666 7.81041C707.748 6.11828 706.876 4.73265 707.778 3.54095C716.175 3.18068 731.078 4.47908 739.699 4.73795C739.793 4.74074 741.673 4.13621 742.822 4.16792C748.367 4.32044 754.001 4.52997 759.534 4.67084L804.873 6.06773C814.532 6.38064 824.202 6.61674 833.878 6.77598C836.73 6.81477 839.718 6.69009 842.629 6.72899C846.152 6.77598 851.25 9.04883 853.571 7.65268L853.784 6.6384C856.276 7.29221 853.937 7.90715 857.26 8.0456C865.652 8.39462 872.558 6.64058 880.973 7.95622C890.001 9.2648 899.152 7.9147 908.386 8.64113C911.562 8.89106 915.646 9.83238 918.457 9.91374C922.753 10.0379 929.058 8.99189 933.313 9.12884C957.597 9.91014 981.811 11.0678 1006.14 11.4339C1015.29 11.5717 1024.3 14.1815 1033.25 14.9959C1049.19 15.8345 1048.89 14.2986 1065.19 17.8427C1068.01 16.413 1070.04 15.6785 1074.04 15.9797C1083.79 16.7115 1093.61 19.4329 1103.47 20.1105C1108.46 20.454 1108.85 17.2897 1114.11 18.3972C1114.48 18.6989 1114.92 19.0601 1115.44 19.481C1118.51 19.987 1124.86 21.3323 1127.6 21.6014C1128.42 21.6809 1129.26 21.7426 1130.1 21.7862C1131.78 23.0002 1133.27 24.1188 1135.16 25.2273L1135.17 25.7496C1133.91 26.0117 1132.91 26.2418 1131.69 26.5546C1131.64 27.9583 1133.27 28.82 1133.33 30.0075C1130.77 30.1139 1129.79 27.0918 1126.04 27.6041C1124.02 27.8799 1121.5 26.2892 1119.09 26.405C1119.18 28.0988 1122.1 27.6962 1122.47 29.0295C1120.72 29.3733 1115.49 29.1273 1115.08 28.8625C1109.86 25.5607 1110.26 25.9903 1103.58 28.2867C1103.23 28.4082 1098.61 29.1271 1097.22 29.389L1097.54 29.7745C1100.39 30.3249 1100.63 30.0495 1101.77 31.1898C1101.98 32.8018 1100.33 35.8731 1100.89 36.0867C1105.78 37.9361 1114.03 36.7051 1118.3 39.1796L1118.35 39.6935C1113.11 40.7532 1102.3 37.8031 1099.83 38.795C1100.15 39.4789 1100.62 39.6582 1101.93 40.0166C1109.9 42.1905 1111.72 40.724 1118.06 44.5427C1122.68 44.5642 1125.58 44.2411 1129.31 45.8063C1131.37 49.3697 1139.27 49.6361 1139.39 52.2049C1135.83 52.1529 1132.2 50.2245 1128.24 49.7761C1122.58 49.1339 1118.5 49.9609 1112.91 50.1194C1110.46 50.1889 1109.55 49.1416 1106.92 49.5534L1106.89 50.202C1111.11 51.6524 1112.58 54.4181 1115.84 54.5504C1117.25 53.5287 1116.92 52.8908 1119.12 52.5798C1121.11 52.2986 1123.87 54.0812 1124.2 54.0849C1132.15 54.1699 1133.24 53.3187 1141.16 55.0193L1141.45 55.3475C1142.93 57.0189 1144.09 57.6131 1146.4 58.9465L1146.04 59.2273C1142.29 58.8572 1139.95 58.5058 1137.34 60.4123C1135.82 61.5248 1131.03 62.7007 1128.68 63.35C1132.61 63.7285 1138.49 63.8061 1141.3 65.3203C1142.79 67.6547 1133.27 70.4987 1129.57 69.7453C1126.47 69.1135 1107.42 71.0583 1105.67 71.6884L1105.35 72.3125C1107.72 73.9338 1109.28 73.3641 1112.31 74.1078C1126.17 77.5097 1135 78.4612 1145.77 84.8021C1133.03 83.3884 1121.39 81.7939 1108.32 82.0609L1108.08 82.4146C1109 82.7314 1111.35 83.5086 1112.31 83.5731C1118.35 83.9768 1143.17 84.9889 1145.88 88.4626L1145.6 89.0276C1143.33 89.4175 1142.7 89.2566 1141.67 90.1716C1142.57 91.2081 1143.17 91.4537 1144.6 92.2491C1140.04 92.5997 1133.89 91.9159 1129.18 92.1053C1117.79 92.5759 1106.23 91.8856 1094.93 92.8567C1093.81 92.9524 1091.36 92.2195 1090.46 92.3673C1085.4 93.1902 1079.33 92.2118 1078.05 95.5968C1076.5 95.9747 1077.19 96.0056 1075.91 95.7208C1075.71 95.0205 1075.66 94.8287 1075.65 94.1257C1072.67 93.3924 1060.97 95.3365 1058.32 96.4554C1056.94 97.0395 1052.81 95.0611 1049.46 96.5212L1049.25 97.4204C1053.81 99.7474 1065.72 96.851 1070.92 96.4114C1071.5 96.362 1073.18 97.2528 1073.63 97.4785C1077.49 97.8103 1082.62 95.8719 1086.51 96.1309C1088.48 97.809 1085.35 99.1237 1088.46 99.5912C1091.28 100.014 1095.15 98.1093 1097.72 98.4754C1098.6 99.4186 1097.69 100.908 1098.38 100.95C1103.83 101.279 1105.72 98.9419 1111.48 100.822C1113.34 102.684 1121.01 102.428 1124.27 102.149L1123.84 101.406C1121.99 100.827 1114.32 100.886 1111.48 100.822C1112.01 99.8159 1112.42 98.945 1113.17 97.9776C1115.14 98.286 1118.84 99.3749 1120.46 99.2862C1125.47 99.0121 1130.69 98.4472 1135.71 98.0784L1135.47 98.2473C1130.84 101.502 1128.75 100.533 1126.89 102.091C1127.68 103.337 1129.44 103.811 1131.49 104.69C1121.88 103.646 1095.3 101.944 1085.76 103.347L1085.33 103.854C1087.9 104.804 1103.18 103.837 1107.35 104.362C1120.17 105.978 1139.91 105.381 1151.31 108.74C1140.49 108.54 1129.98 108.796 1119.25 107.755C1115.28 107.371 1113.45 106.904 1112.28 109.167C1109.78 109.631 1109.27 108.882 1107.83 107.825C1105.59 107.35 1100.41 107.726 1098.14 108.214L1097.6 108.565C1101.74 112.741 1143.37 107.675 1149.34 114.316C1150.26 115.343 1151.27 116.214 1152.71 117.032L1152.74 117.513C1150.91 118.231 1144.87 117.532 1142.46 117.716C1140.8 117.843 1139.24 118.066 1137.62 118.309C1140.82 118.669 1144.32 118.776 1147.02 119.515L1147.67 120.254L1147.95 120.082C1147.8 120.141 1147.68 120.204 1147.53 120.26C1143.01 122.022 1122.71 119.805 1119.44 120.96L1119.53 121.55C1124.63 122.868 1135.4 123.231 1141.16 123.87C1144.45 124.236 1150.73 123.504 1152.75 125.112C1149.78 127.081 1148.21 124.584 1144.69 125.596L1143.26 126.784H1142.13C1139.9 125.421 1140.13 125.216 1136.38 125.152C1132.9 125.092 1129.81 125.149 1126.31 124.944C1124.5 125.72 1122.99 126.481 1120.89 126.927C1120.17 125.463 1120.73 125.873 1119.02 125.034C1116.81 125.265 1116.6 125.854 1114.45 126.342L1114.08 126.345C1108.61 126.413 1102.93 127.116 1097.42 126.898C1095.57 126.825 1094.13 125.821 1092.27 126.169L1093.08 128.113L1092.47 128.539C1090.92 128.146 1090.51 127.099 1089.71 126.047C1085.75 126.35 1077.1 127.542 1074.54 127.571L1074.05 127.127C1075.35 126.347 1076.16 126.119 1077.74 125.561L1077.51 125.209C1073.23 124.748 1066.5 125.18 1060.77 124.768C1067.97 128.658 1075.34 129.783 1084.77 127.403C1086.45 128.145 1088.36 129.029 1090.06 129.726C1101.34 129.393 1125.4 133.797 1137.64 135.7L1138.08 135.996C1135.19 137.428 1123.01 136.543 1119.15 136.391C1112.01 136.11 1105.49 136.903 1098.39 137.003C1092.01 137.14 1079.86 136.013 1074.52 137.966L1074.22 138.425C1077.34 139.589 1081.56 137.629 1084.31 137.628C1091.85 137.627 1101.06 138.965 1108.39 139.819L1109.06 140.265L1108.63 140.71C1101.47 141.527 1089.21 137.799 1080.37 140.382C1081.85 141.236 1086.6 139.805 1087.83 141.76L1087.03 142.948C1087.92 143.546 1087.74 143.352 1089.6 143.473C1095.39 141.688 1089.08 140.203 1099.48 142.587C1099.8 143.215 1099.57 143.46 1099.25 144.087C1107.49 144.6 1110.75 144.708 1118.4 146.752C1119.61 148.826 1119.51 149.437 1122.67 150.404C1126.83 151.683 1134.62 152.04 1137.16 154.231L1137.34 155.22C1134.68 155.428 1135.08 153.608 1131.39 155.138L1131.14 155.831C1132.29 156.386 1132.98 156.677 1134.24 157.149L1133.93 157.598C1130.39 157.733 1119.77 156.559 1116.14 155.985C1113.23 156.599 1109.07 157.27 1107.7 158.909C1109.29 159.316 1113.21 158.789 1115.71 158.725L1115.93 159.09C1112.78 160.826 1106.1 160.859 1106.58 161.948C1108.58 166.53 1107.87 164.929 1100 168.009C1100.96 168.735 1110.96 170.268 1112.82 171.166C1120.67 174.962 1146 170.19 1151.76 172.733C1148 173.951 1142.49 173.458 1139.99 175.472L1140.54 176.113C1143.97 176.209 1145.58 175.834 1149.16 176.101C1155.62 176.583 1161.91 178.111 1168.13 178.817C1160.8 180.392 1142.51 181.561 1135.89 184.213L1135.94 184.746C1140.26 186.339 1146.52 183.219 1150.44 183.546C1147.9 190.325 1114.39 190.79 1111.03 193.927C1116.01 194.423 1152.83 190.671 1158.59 189.593C1157.03 190.726 1154.9 192.184 1153.52 193.346C1149.7 194.28 1146 194.752 1142.41 195.831C1140.03 196.546 1137.2 195.931 1135.08 196.955L1135.17 197.542C1138.89 198.759 1160.92 198.678 1167.2 201.362L1166.87 201.612C1161.79 201.492 1145.22 199.66 1142.56 200.237C1143.62 203.625 1157.49 202.992 1161.78 203.454C1164.54 203.752 1164.02 204.274 1165.61 205.411C1169.15 206.146 1172.88 206.155 1176.59 207.061C1172.65 206.956 1169.02 206.937 1165.12 207.316L1164.85 207.646C1170.69 209.318 1174.29 208.517 1181.1 211.079C1172.77 210.476 1166.21 209.193 1157.98 209.939C1156.01 210.118 1154.17 209.599 1151.71 210.171L1151.75 210.85C1155.66 212.258 1168.81 210.909 1177.28 213.523L1176.77 213.86C1163.27 214.202 1145.71 211 1132.79 215.224C1130.5 215.973 1128.42 216.288 1126.41 217.386C1126.21 218.127 1126.27 218.154 1126.46 218.865C1125.63 219.315 1124.79 219.762 1123.94 220.205C1128.69 221.351 1134.2 219.64 1138.97 219.435C1155.24 218.736 1168.56 216.472 1185 219.024C1180.46 219.285 1175.48 219.157 1171.1 219.556C1151.69 221.327 1132.06 221.227 1112.68 222.924C1107.15 223.408 1101.51 224.736 1096.05 225.448C1092.71 225.917 1090.71 225.346 1088.66 226.019C1089.5 226.693 1091.51 227.044 1092.94 227.388C1090.96 228.629 1069.53 227.121 1066.78 228.782C1067.7 229.357 1068.44 229.768 1069.45 230.297C1066.69 231.402 1059.14 229.395 1055.45 229.227C1047.78 228.876 1040.43 230.863 1033.08 231.175L1032.38 231.734C1033.75 233.251 1038.13 232.293 1040.67 232.712C1042.77 233.057 1045.36 233.601 1047.17 234.261C1046.39 235.047 1045.72 235.199 1044.37 235.722C1045.32 236.689 1045.61 236.275 1047.37 236.223C1055.61 235.98 1065.54 238.503 1073.93 238.946C1077.4 239.13 1078.88 238.012 1081.51 238.138C1082.49 239.039 1081.91 239.358 1080.7 240.08C1080.13 240.819 1079.94 241.517 1078.68 241.726C1075.68 242.223 1071.55 242.016 1068.55 241.828C1071.88 243.206 1071.62 241.981 1076.74 244.869L1046.04 245.237C1044.41 245.979 1042.54 246.886 1040.8 247.506C1035.75 247.602 1029.75 247.769 1024.77 247.779C1014.63 247.8 1008.95 246.819 999.124 249.28C1005.51 249.21 1009.38 248.858 1015.69 248.227C1021.73 249.718 1030 248.835 1036.74 248.741C1045.28 248.621 1056.18 249.5 1064.42 248.745C1066.05 249.483 1067.23 249.767 1067.96 250.741C1064.5 250.552 1061.77 250.166 1058.98 251.398L1058.94 252.027C1059.71 252.254 1060.54 252.371 1061.4 252.283C1064.33 251.988 1067.81 254.85 1070.13 254.691C1072.69 254.515 1073.76 253.048 1076.67 254.41L1076.62 254.88C1074.36 255.893 1074.52 255.496 1074.06 256.805C1078.25 261.526 1104.27 257.695 1110.69 258.912L1110.61 259.312C1104.07 260.982 1087.42 260.613 1079.09 262.016C1073.55 262.948 1073.28 261.988 1066.27 263.945C1074.49 263.511 1081.38 263.5 1089.56 264.196C1091.52 264.363 1091.88 263.745 1093.99 263.428C1097.98 264.758 1099.35 266.17 1104.48 265.442C1111.81 264.402 1171.98 272.081 1179.1 274.505C1180.23 274.889 1181.02 275.158 1181.62 275.839C1181.18 277.835 1180.99 281.711 1178.54 282.887C1176.58 283.824 1173.08 284.259 1172.6 285.186L1173.71 286.297C1169.25 287.429 1153.17 285.028 1147.26 284.631C1138.88 284.068 1130.65 283.991 1122.7 282.303C1120.93 281.927 1112.5 282.917 1109.33 282.592L1108.99 283.045C1111.48 284.315 1117.09 283.858 1120.74 284.353C1132.49 285.943 1144.7 286.445 1156.53 287.747C1160.84 288.22 1172.84 288.016 1174.9 290.115L1174.88 290.972C1170.74 293.021 1163.16 290.188 1158.64 289.911C1150.33 289.403 1110.55 284.289 1105.87 285.213C1102.12 285.04 1097.98 284.078 1095.65 285.111L1096.02 285.548C1097.89 285.598 1099.27 285.505 1100.77 286.082C1107.8 287.292 1129.76 289.487 1137 289.35C1137.19 289.426 1139.7 290.461 1139.7 290.461C1145.15 290.581 1173.79 292.079 1174.84 295.766L1173.07 297.015L1173.3 297.457L1176.37 298.006C1176.32 298.403 1172.51 301.556 1171.54 301.817C1169.71 301.461 1168.31 301.048 1166.48 301.272L1165.48 301.787C1167.51 303.708 1181.4 304.375 1179.53 308.81C1177.57 313.431 1167.04 310.96 1160.36 310.73C1166.87 312.537 1180.15 313.87 1182.1 315.59L1181.41 315.96C1177.47 315.473 1156.99 312.958 1154.72 313.79C1159.55 317.032 1172.83 313.32 1181.78 319.571C1178.5 319.445 1171.26 318.955 1168.54 319.76C1168.62 320.202 1168.72 320.643 1168.84 321.083C1166.86 321.233 1167.66 321.296 1165.82 320.84L1164.92 318.857C1161.99 318.083 1159 318.865 1155.84 319.488C1149.9 318.562 1130.53 316.756 1124.13 316.587C1130.69 318.728 1135.51 319.461 1142.68 320.812C1142.42 321.568 1142.58 321.768 1143.09 322.476C1144.33 322.988 1145.7 323.02 1147.26 323.171C1150.72 324.814 1153.84 326.239 1156.76 328.208L1156.4 329.031C1152.32 329.388 1149.19 329.167 1144.73 329.517C1142.62 329.395 1138.61 329.14 1136.89 329.915L1137.19 330.312C1139.98 330.621 1141.91 330.387 1143.45 331.225C1138.95 332.273 1132.77 331.13 1129.32 333.055C1130.42 334.375 1131.78 333.461 1132.8 335.184C1132.15 336.222 1130.44 337.368 1128.58 337.724C1127.3 335.967 1129.02 335.782 1127.06 335.292C1124.8 335.863 1123.05 337.408 1121.49 338.56C1124.06 338.916 1128.21 339.323 1130.16 340.172C1127.42 341.365 1116.39 339.205 1113.09 338.513C1112.22 338.805 1107.75 340.323 1107.09 340.357C1103.53 340.545 1095.14 338.51 1092.09 339.433L1092.58 340.065C1098.42 341.113 1110.43 341.455 1116.78 341.942C1117.18 342.201 1117.52 342.416 1117.79 342.591C1118.59 344.243 1118.52 345.321 1118.6 347.041C1115.54 348.351 1110.13 348.653 1108.75 349.641C1110.72 351.734 1114.93 350.125 1115.74 354.065C1111.13 353.138 1107.71 353.064 1102.85 353.309L1102.22 353.601C1107.56 355.186 1111.31 354.629 1115.67 355.391L1117.28 356.234C1117.23 358.824 1116.12 358.253 1114.68 360.255C1113.75 361.538 1119.49 362.996 1115.52 365.182C1112.61 366.788 1109.25 367.393 1105.56 368.195C1100.13 366.832 1089.84 366.929 1083.58 365.932C1080.39 365.421 1078.33 364.182 1075.36 364.017L1074.4 364.289L1074.26 364.779C1078.12 366.775 1085.55 367.446 1090.63 368.128C1088.42 368.363 1085.21 368.575 1083.51 369.317L1082.74 370.15C1076.71 369.724 1076.3 370.966 1072.18 370.214C1069.48 369.724 1069.94 369.556 1066.71 369.677L1065.92 369.952C1067.77 371.37 1071.59 371.81 1072.41 372.901C1071.16 373.197 1064.04 372.471 1060.66 372.505C1058.84 373.207 1054.7 374.5 1053.8 375.367L1054.09 375.82C1056.12 376.092 1058.56 375.424 1060.77 375.011C1060.05 379.582 1047.34 379.266 1041.35 379.246L1040.66 378.961C1033.31 377.876 1032.34 378.05 1025.19 379.021C1023.87 379.199 1018.39 378.967 1016.8 378.998C1009.5 379.139 982.341 376.734 976.477 377.271L976.041 377.654C977.273 378.917 980.915 378.309 983.178 378.789C986.289 379.448 988.805 380.801 992.117 381.117C1000.46 381.732 1040.65 383.619 1045.05 386.632C1040.97 387.193 1036.1 386.854 1031.83 386.982C1006.02 387.747 980.885 384.808 955.228 383.922C950.867 383.77 945.929 382.739 941.58 382.447C937.538 382.138 928.469 383.727 924.933 382.733L922.429 380.66C914.638 380.862 915.481 382.205 909.034 382.843C905.075 383.233 899.412 379.663 896.33 379.558C895.788 380.247 895.864 380.297 894.686 380.687C890.513 380.734 881.733 380.952 878.091 379.857C877.066 379.011 876.807 378.722 875.163 378.299C872.977 378.047 869.983 377.086 868.445 377.164C868.286 378.023 869.553 378.521 870.619 379.179L870.23 379.666C866.542 380.455 856.536 378.413 852.322 378.212C848.168 378.013 843.459 379.085 839.771 378.867C828.397 378.198 817.755 376.509 806.164 377.325C803.288 377.526 800.359 377.439 797.555 378.087L797.749 378.396L797.908 377.99C798.362 378.4 798.338 378.648 799.193 378.668C805.469 378.813 808.156 383.985 812.322 384.812C821.397 386.619 831.58 387.448 840.696 389.494C842.894 389.988 845.604 389.85 847.873 390.492C851.668 391.949 855.858 391.647 858.545 393.454L858.468 394.039C856.206 394.186 855.398 393.38 852.911 393.031C844.373 391.832 838.592 390.478 829.947 391.802C815.675 391.731 802.351 389.474 787.814 391.103C785.563 391.358 780.784 390.277 777.26 390.74L776.947 391.197C782.575 394.163 825.357 394.425 836.011 395.332C839.105 397.32 844.361 396.82 848.934 396.86C842.717 396.967 816.924 396.534 813.053 397.995C810.118 398.18 806.058 396.521 804.284 397.34C805.469 398.002 805.51 398.019 807.13 398.284C808.38 399.708 812.829 400.259 815.475 400.158L816.005 400.135L816.518 400.723L815.48 401.263C815.286 402.221 815.422 401.952 816.789 403C811.473 401.858 811.721 401.274 807.566 399.903C802.398 398.392 794.573 396.48 788.751 396.239C785.551 396.104 786.924 398.435 780.377 397.146C777.331 396.544 770.342 396.507 767.095 396.726C762.139 396.669 761.414 397.404 755.227 396.87C751.656 396.229 746.676 395.946 742.952 396.087L742.469 396.312C744.926 397.33 751.768 397.639 755.156 398.244C758.597 398.68 763.559 399.292 766.788 400.048L766.871 400.662C765.604 401.092 761.202 400.598 758.798 400.649C756.388 400.656 748.768 399.557 746.01 399.198C737.395 398.089 727.566 396.396 718.903 395.822C712.203 395.315 706.057 395.731 699.322 396.007C692.132 395.809 685.291 395.486 678.06 395.745C673.723 395.899 668.096 395.238 664.012 395.631C663.299 396.265 663.452 396.494 663.541 397.246L662.78 397.135L661.72 395.872C658.473 395.318 651.944 395.392 648.502 395.516L648.514 395.856C649.94 396.41 651.154 396.638 651.413 397.387C648.991 398.193 643.464 397.985 640.576 397.979C637.041 397.898 636.292 396.739 634.218 395.187C629.916 395.08 626.722 395.221 622.509 395.473L621.437 395.446C621.077 397.223 621.602 396.608 619.639 397.831C617.506 398.009 616.257 397.784 614.648 396.87C608.502 394.166 590.983 394.996 584.153 396.964L582.158 396.695C576.312 395.919 569.124 396.759 563.143 397.438L556.742 395.55C543.088 396.48 534.019 397.132 519.882 395.328C513.111 394.089 494.007 395.241 485.127 395.197C480.93 394.865 477.163 394.311 472.803 394.112C463.253 393.672 453.792 393.239 444.205 393.145C441.957 393.142 437.786 391.879 435.684 391.946C421.349 392.396 407.441 390.609 393.074 389.588L320.293 384.738C317.035 384.523 313.932 385.245 310.728 385.013C299.697 384.214 288.372 383.038 277.468 381.745C264.399 380.193 251.248 378.306 237.831 378.114C227.148 377.96 217.352 379.639 206.881 380.304C186.765 381.581 98.3472 386.679 84.4721 382.34C81.967 381.557 78.5015 379.441 77.8409 377.859C79.1096 377.164 79.6606 378.359 82.8598 378.034C83.7997 377.207 83.5133 377.483 83.5251 376.344C82.3483 375.538 82.0118 375.716 79.9104 375.437L79.4944 375.007C80.9829 373.647 80.4744 372.491 81.9988 371.588C82.3742 371.366 83.465 371.85 85.4668 370.966C85.5982 369.546 84.9181 370.506 83.3088 368.887L84.2187 368.481C88.2205 368.77 96.1192 367.739 101.35 367.634L101.779 367.339C99.3631 366.408 83.1774 367.759 77.9387 366.644C80.4903 363.772 82.0248 363.295 88.023 363.066L88.6583 363.046C78.0436 361.236 84.475 360.729 77.046 357.88L76.6871 357.004C78.1019 355.801 80.6199 357.544 84.0112 356.493L84.3719 355.522C82.3689 354.498 80.5551 355.348 77.7277 354.048C77.3335 353.064 77.1897 353.376 77.8533 352.627C79.1797 352.63 80.8132 353.02 82.1114 353.275C83.8763 353.07 83.4832 353.259 84.7319 352.305C87.4868 350.202 88.1692 352.583 90.8327 352.479L91.0667 351.844C88.9535 348.093 78.7372 350.847 71.0683 348.553L70.9375 348.143C72.3317 347.753 72.9947 347.666 73.8232 346.961C73.0106 346.128 70.2015 345.355 68.5403 344.777C74.3518 342.658 73.1885 342.953 73.8862 339.292C75.2675 338.577 78.277 338.688 80.7519 338.389C78.5781 337.431 70.449 338.325 67.4436 335.974C68.2421 334.523 68.9976 336.074 71.4001 334.368C71.1431 333.125 70.6723 333.166 69.0848 332.091C71.6128 330.927 79.584 332.271 79.3754 329.7C77.4278 329.04 75.957 329.495 73.1166 329.431C71.7489 328.394 72.5992 328.295 72.578 327.374C72.502 324.016 50.6341 326.51 47.4815 323.77C45.7015 322.222 47.2722 316.646 47.5622 314.82C54.0407 313.161 69.5421 312.504 72.182 311.715C69.3747 310.91 63.6711 311.116 56.7504 309.408C58.6568 309.053 59.5343 308.985 61.0069 308.202L60.869 307.598C58.3182 306.691 55.9968 306.219 55.6788 304.455C56.5675 303.17 57.7915 302.714 59.6357 301.814C66.9351 301.667 73.3912 301.311 81.4868 301.193C93.4403 301.02 105.857 302.265 117.52 301.584C118.862 301.506 119.344 300.905 119.798 300.361C118.687 298.829 116.088 300.698 113.403 299.957L113.291 299.222C114.806 298.484 116.257 298.757 118.803 298.375L118.944 297.784C117.426 296.926 101.463 295.601 99.9548 296.009C90.0649 298.686 93.0178 295.537 90.1998 295.374C81.2363 294.856 72.8161 294.485 63.5691 293.53C62.268 292.845 61.0228 292.067 59.7989 291.333C44.5837 291.13 39.4857 291.773 24.1201 290.013C20.1884 286.452 22.3041 286.699 22.8852 282.807C23.0006 282.035 22.525 280.208 22.2922 279.404C13.9771 275.936 21.5952 276.216 22.0279 273.715C19.8843 272.488 18.3826 272.129 19.6954 270.452C21.6698 269.566 23.6273 269.436 26.1023 269.265C28.6392 268.544 29.9291 268.566 32.4064 267.649L32.1606 267.364C31.26 267.33 19.3626 268.37 18.7459 268.52L18.0146 269.002L17.5947 268.561C17.9458 267.479 18.0672 266.75 18.9258 265.756C21.0629 264.985 22.3089 264.786 22.3152 263.347C19.4042 262.701 18.7016 263.929 16.5864 263.213C17.9363 262.414 18.8047 262.178 19.1261 261.226C16.44 260.526 9.46383 258.023 7.77967 256.609C8.25369 254.831 11.6211 255.131 10.6403 253.489C8.99129 253.524 7.73659 253.596 6.09763 253.711L5.34439 253.259C6.34613 250.938 8.7795 251.727 10.019 250.027C10.8131 248.939 11.2386 248.637 12.3393 247.637L11.933 247.157C10.1226 247.058 9.43466 246.994 7.67973 246.725C5.84702 245.457 8.05145 245.914 8.28062 243.88C7.96193 243.851 1.97593 245.152 0 245.355V243.322C1.29202 242.608 3.2703 241.114 4.46066 240.265C8.38863 240.003 20.7561 238.082 23.7458 236.939L23.4957 236.674C14.879 235.953 7.46541 239.236 0 238.8V237.528C3.28341 235.967 7.95516 235.739 10.332 234.129L9.53266 233.775C6.37306 233.636 3.1032 234.241 0 234.691C16.3996 225.213 64.3417 222.853 87.2246 219.976C92.8976 219.263 94.4562 215.795 100.688 216.167C101.172 216.195 101.255 216.025 101.627 215.822C101.615 213.356 94.6737 213.206 91.2847 212.984C95.8416 211.314 102.531 210.808 103.263 207.634C102.77 206.457 101.436 206.072 99.7373 205.357C112.313 199.701 130.114 201.101 135.563 198.638C135.855 197.937 135.841 197.917 135.036 197.15C131.713 193.986 121.072 196.206 116.068 196.075C114.225 196.027 113.833 194.572 111.361 194.206C109.709 194.913 111.685 195.321 109.916 196.576L108.691 196.561C106.258 195.624 107.92 194.743 107.043 194.247C105.073 193.131 100.842 194.123 98.7927 192.807C101.772 190.643 100.983 189.724 100.831 186.839C98.9 186.488 96.1669 185.988 94.2011 185.758C84.8816 184.668 75.3341 184.383 65.895 183.684C63.0111 183.47 58.938 182.974 55.9868 182.696C55.3155 182.937 54.7425 183.142 54.2678 183.312C49.895 182.668 43.7187 179.174 41.1822 176.869C43.7928 176.232 46.9069 175.361 48.3652 173.917C47.0805 172.398 45.3595 173.588 44.0949 171.889C47.7054 169.508 58.9822 171.348 63.1625 170.396L62.9975 169.977C60.2226 169.151 50.262 168.843 45.8138 167.97C44.8528 167.097 45.0251 167.556 45.2332 166.554C47.118 166.106 48.2974 165.983 49.2645 164.996C49.1378 164.103 49.0307 163.918 49.4361 163.073C54.7138 161.382 97.5788 164.78 106.273 165.033C109.164 165.117 113.605 165.843 116.661 165.569L117.185 165.097C115.636 164.358 78.0289 162.228 73.6399 161.996C67.7053 161.683 59.7753 162.013 54.2919 160.697C52.8603 160.354 52.2791 160.148 51.7115 159.331L52.5052 158.729C57.5947 157.368 60.159 157.927 65.7506 158.347C64.4118 157.969 56.8299 155.842 56.0654 155.41C52.4295 153.358 55.863 150.585 52.1947 147.804L51.9333 147.609C52.9385 146.317 54.998 147.247 57.7832 145.613C59.5485 142.885 54.4876 142.279 53.9622 140.537C57.0366 139.871 63.057 141.8 65.3452 140.453C64.5685 139.849 56.7095 138.501 53.9039 137.813C53.6098 137.384 53.3293 136.952 53.0625 136.517C52.075 134.891 51.5092 131.848 55.1309 131.28C61.014 132.679 82.5174 132.364 90.0732 132.304C81.4626 130.775 73.1331 130.364 64.1808 130.045C61.3976 129.945 57.8453 130.26 55.751 129.927L55.3424 129.313C56.7198 128.619 58.1708 129.089 60.7329 128.482C62.3487 126.351 63.3175 127.274 65.1561 125.6C64.0571 125.003 61.6522 125.137 59.7418 125.061L59.4624 124.763C66.1307 121.727 83.4149 125.139 91.8121 123.832C92.5028 123.725 92.5699 122.892 92.7909 122.322C95.0897 121.848 95.1592 122.67 96.9948 122.873C101.008 123.317 114.55 120.877 115.802 118.56C115.106 117.993 114.557 117.586 113.789 117.051C114.391 115.464 116.473 114.558 117.224 112.838C114.608 111.197 113.074 112.965 110.492 112.435L110.736 111.695C114.502 108.785 118.88 111.919 122.366 109.06C122.587 107.623 122.836 108.039 121.964 106.93L120.86 106.914C119.809 107.842 119.762 107.94 118.241 108.585C115.786 109.025 111.351 108.617 109.14 108.019C109.38 107.459 111.785 106.883 113.212 105.886C112.435 105.19 112.754 105.415 111.102 105.074C108.153 105.231 107.6 105.93 104.845 106.684L105.566 105.397C105.238 104.518 103.912 103.303 103.115 102.472C106.562 102.919 114.05 103.843 111.723 100.033C109.753 99.3286 109.014 99.2506 108.808 97.9081C109.955 96.0227 111.984 96.5665 113.31 94.8908C112.557 94.22 112.402 94.0682 111.85 93.3407C113.392 91.5249 120.047 91.6176 120.852 89.2667L119.944 88.8472C114.921 88.3639 112.822 89.529 108.76 91.1309C110.069 89.7423 111.518 88.4126 112.993 87.0804C112.32 85.8185 110.493 85.8937 108.59 84.2633L108.967 83.8079C110.955 83.5768 115.733 85.1988 117.89 85.8114C112.21 81.5732 109.244 80.843 101.601 77.8103L107.65 76.77C111.925 77.7498 121.496 80.1712 126.027 79.3399C125.104 77.5852 102.283 72.3189 96.7332 67.1143C97.7303 65.6727 109.107 59.4399 109.609 58.4739C108.876 57.8928 108.126 57.3192 107.358 56.7535C107.506 53.6143 116.215 51.7394 115.371 49.095C113.824 48.5572 113.601 48.7634 111.541 48.8326C121.339 41.4092 136.596 45.7556 150.242 47.0494C141.675 42.299 133.107 41.3602 123.036 38.1024C122.149 37.8155 122.22 37.4786 122.133 37.0087C123.039 36.8401 124.785 37.1807 125.896 37.3255C129.197 36.3343 122.331 33.5064 124.511 30.1177C127.073 28.8826 157.905 26.4643 163.625 26.0638C167.306 25.8061 173.675 26.5347 178.648 26.016C180.545 25.0335 177.928 25.3462 179.867 23.4198C184.941 21.5667 208.141 22.1447 215.284 21.6523C219.142 21.3863 222.37 21.1196 226.385 20.6725C210.178 17.9054 198.222 18.043 181.268 14.7535C179.057 12.9467 177.04 12.129 173.99 10.7912C176.962 9.6156 177.206 9.45888 179.276 7.77027C210.408 0.985455 239.249 4.49914 271.502 6.19523C276.588 6.4627 293.112 7.08181 296.786 7.75603C299.072 8.05823 323.822 8.63444 326.549 8.43211L326.845 8.15648C321.302 6.95195 314.12 7.16235 308.077 7.12507ZM540.107 379.474L541.28 378.856L540.99 378.423C538.074 378.107 535.643 378.856 532.846 378.719C524.971 378.332 516.539 379.001 509.281 377.389C505.874 377.402 501.214 378.151 497.946 378.117C494.291 378.081 490.781 377.325 487.177 377.227C473.893 376.865 459.161 374.927 446.078 376.022C442.001 376.364 442.784 376.697 439.532 375.32C438.334 376.408 437.953 376.314 438.319 377.321C440.525 377.869 468.297 377.123 473.742 378.017C474.728 378.181 475.695 378.85 476.721 379.001C481.304 379.666 491.936 377.227 497.904 379.417C498.787 379.74 499.64 379.988 500.683 380.096C505.054 380.553 531.533 381.282 534.812 380.828C536.706 380.563 538.419 380.012 540.107 379.474ZM725.067 19.0918C729.151 19.5131 732.598 19.2668 736.588 18.9273C737.083 18.885 738.32 19.8754 740.748 19.8245C741.031 19.0845 740.324 18.8113 739.41 17.9886L740.141 17.7368C743.877 18.5058 741.284 19.0766 744.413 19.0187L745.651 18.155C748.745 18.0522 752.758 19.9739 756.052 20.0882C761.214 20.2672 765.303 18.6986 770.518 18.1813C774.62 17.7747 781.367 18.4778 784.278 17.8094L784.408 17.4637C777.236 15.6162 772.104 17.1211 765.038 17.2013C761.962 17.2361 758.562 16.3523 754.555 16.5078C756.093 17.3462 757.089 17.7084 758.874 18.3012L758.674 18.7629C755.857 19.1617 751.644 17.1451 748.45 16.8996C745.639 16.6837 742.84 16.7152 740.023 16.7145C738.862 17.2937 737.66 18.1267 736.199 17.9939C732.121 17.6243 726.829 17.0911 722.716 17.3597C721.567 17.9166 721.467 18.0067 720.595 18.7172C719.675 18.6822 719.169 18.8158 718.786 18.4532C717.572 17.304 702.091 16.7927 700.919 17.1167C694.354 22.6326 716.511 20.6834 720.359 20.6273C722.274 20.5993 723.677 19.8401 725.067 19.0918ZM726.181 14.109C729.351 13.8279 731.496 13.6195 734.714 13.601C739.964 13.5709 747.89 15.1842 752.333 13.6883L751.838 13.3631C740.076 12.6117 733.459 12.7367 721.697 12.8701C711.178 12.1839 675.338 11.4743 665.373 12.7646L657.383 12.8432C652.356 12.7862 649.003 12.695 644.024 13.1143L643.994 13.2962C650.624 13.9002 654.254 13.771 660.918 13.6794C662.333 13.7119 664.348 13.7943 665.709 13.7491C683.158 14.7112 697.336 14.4826 714.837 13.8334C719.557 13.6584 721.426 14.8153 726.181 14.109ZM766.075 383.804C762.38 382.817 730.577 378.682 724.743 377.899C715.008 375.83 705.338 376.462 695.951 378.645C704.661 378.363 716.116 378.853 723.311 378.484C724.843 378.86 725.928 379.068 726.252 379.968C724.708 380.469 706.069 379.542 701.92 379.78L701.59 380.371C705.81 383.461 744.502 383.152 752.327 384.294L752.752 384.829C752.551 384.98 752.345 385.131 752.145 385.282C746.37 385.769 745.174 385.463 739.64 386.763C751.237 387.066 763.07 386.72 774.702 386.921C778.815 386.992 785.498 388.13 788.981 387.233L789.057 386.696C782.434 385.353 761.874 386.454 753.512 384.939L752.911 384.829C756.794 384.184 761.968 384.022 766.075 383.804ZM141.623 365.945C156.816 364.363 173.534 365.807 188.889 363.392C192.449 362.831 202.161 363.839 204.825 362.149L204.525 361.689C203.99 361.632 203.505 361.538 203.016 361.578C186.689 361.998 169.809 364.024 153.153 364.091C150.376 364.101 138.811 364.145 137.175 364.753L137.185 365.33C139.066 365.878 139.494 365.864 141.623 365.945ZM696.216 382.044C686.428 380.724 676.988 378.806 667.241 380.563C668.214 380.388 658.331 379.626 656.628 379.646L657.306 380.358C661.001 380.643 664.401 381.587 667.937 381.879C676.835 382.612 686.069 383.095 695.008 382.77C695.833 382.39 695.739 382.534 696.216 382.044ZM551.122 378.188C552.044 378.564 552.964 378.937 553.891 379.317C553.897 379.317 554.704 381.241 554.866 381.251C558.46 381.419 561.044 381.003 564.434 380.65C570.023 381.715 572.789 382.289 578.816 382.081L580.266 382.299L581.009 381.688C578.492 379.293 562.846 379.098 558.062 378.89C555.702 378.786 553.44 378.171 551.122 378.188ZM1057.85 93.2584C1063.66 92.895 1070.12 93.4992 1074.47 92.1513L1074.75 91.7304C1073.14 91.1957 1067.83 91.8786 1063.5 91.4164L1062.87 91.5128C1057.67 92.283 1050.61 91.7395 1046.99 93.2107L1046.5 93.8764L1047.01 94.3947C1052.12 94.0961 1049.85 93.1895 1057.85 93.2584ZM400.925 11.3952C397.074 9.6366 373.194 9.51957 367.315 9.89556C368.799 10.7989 370.277 10.934 372.59 10.8317C378.285 10.5799 396.948 11.9033 400.925 11.3952ZM814.938 364.847C817.838 366.859 840.778 368.787 844.827 368.363C842.004 367.087 817.95 364.732 814.938 364.847ZM621.419 387.391C620.27 386.058 612.727 384.567 610.27 384.55C613.01 386.088 617.471 387.542 621.419 387.391ZM331.085 8.17515L331.609 8.9134C334.682 9.44158 340.362 9.07019 343.733 8.89627C341.927 7.88629 339.964 8.10089 337.136 8.11617C335.119 8.12947 333.101 8.14915 331.085 8.17515ZM176.34 371.638C179.807 371.255 183.018 370.977 186.3 370.211C186.598 369.845 186.673 369.929 186.612 369.623C186.068 369.616 184.708 369.579 184.248 369.626C180.528 369.656 177.155 369.515 174.157 370.913L174.045 371.514C175.45 371.853 174.716 371.783 176.34 371.638ZM1035.61 375.135C1033.63 375.494 1028.04 376.179 1027.05 376.636C1029.58 376.999 1030.57 376.918 1033.15 376.861C1035.55 376.925 1038.06 377.154 1040.14 376.559L1040.11 376.069C1038.33 375.397 1037.63 375.37 1035.61 375.135ZM1076.83 18.0638C1074.88 16.6043 1072.13 17.0574 1069.02 17.1944C1070.99 19.2975 1073.27 18.6502 1076.83 18.0638ZM971.763 374.557L974.486 374.876C976.996 375.128 989.672 375.521 991.38 374.722C989.259 374.285 986.171 374.325 983.838 374.278C979.495 373.596 976.796 373.549 972.429 373.519C967.933 373.368 965.782 373.334 961.239 373.533L971.763 374.557ZM617.706 378.88C620.977 381.167 638.408 382.336 644.436 382.686C645.414 382.743 646.398 382.796 647.377 382.84C647.235 382.756 646.039 382.071 646.039 382.071C640.252 381.725 622.415 378.658 617.706 378.88ZM1114.28 296.472C1115.35 298.919 1118.82 298.888 1122.85 298.83L1122.55 298.139C1120.69 297.549 1116.35 296.55 1114.28 296.472ZM1141.39 298.954C1138.09 298.976 1127.24 298.417 1126.17 298.526L1125.77 298.976C1127.61 299.776 1134.03 299.702 1137.27 299.969C1139.11 300.235 1141.45 300.266 1143.25 299.863L1143.18 299.521L1141.39 298.954ZM1113.74 47.5193L1114.49 46.8304C1112.89 46.1321 1108.59 46.1865 1106.28 46.1032L1104.69 46.6319L1104.76 47.0783C1107.51 47.5321 1110.8 47.3453 1113.74 47.5193ZM712.716 385.366C715.598 386.323 718.909 386.531 722.074 385.88C719.958 384.761 715.491 385.057 712.716 385.366ZM707.23 386.165C706.045 384.476 701.361 385.235 698.414 385.41L698.738 386.112C700.995 386.414 704.767 386.222 707.23 386.165ZM1103.71 275.282C1099.98 274.315 1098.69 274.443 1094.76 274.923C1097.55 275.891 1100.59 275.543 1103.71 275.282ZM95.9347 267.224C98.4769 266.948 105.018 266.688 106.694 265.834C100.859 265.678 100.054 265.671 94.3714 266.434C91.5475 266.517 90.7491 266.28 88.6618 267.025C90.0997 267.823 94.1298 267.526 95.9347 267.224ZM1082.08 86.5124L1081.49 85.8622C1079.48 85.6227 1059.86 85.6465 1057.11 85.7785C1060.43 87.6719 1077.11 86.8712 1082.08 86.5124ZM643.187 389.81L642.668 389.118C640.588 388.698 637.406 388.893 635.185 389.047C637.223 390.461 640.076 389.957 643.187 389.81ZM1126.68 57.5459C1129.33 57.5728 1130.89 57.7121 1133.21 56.993L1133.46 56.4422L1132.75 56.3672C1130.53 56.4579 1127.15 56.3041 1125.8 56.9174C1126.01 57.0753 1126.44 57.4394 1126.68 57.5459ZM1055.39 251.857C1052.41 250.799 1049.71 250.012 1046.07 250.267C1049.15 251.382 1051.55 252.185 1055.39 251.857ZM660.488 384.573C660.73 385.161 660.606 385.46 661.384 385.668C662.839 386.051 670.653 386.639 671.979 386.572C671.737 386.199 671.661 385.809 671.184 385.692C668.62 385.074 663.169 384.6 660.488 384.573ZM1159.04 296.346L1159.52 297.188C1162.26 297.831 1165.65 297.736 1169.58 298.564C1167.55 295.68 1163.95 296.299 1159.04 296.346ZM765.28 377.264C769.564 378.47 774.708 379.992 779.493 380.2C777.831 378.648 773.094 377.966 770.112 377.557C768.533 377.332 766.906 377.231 765.28 377.264ZM857.602 15.1501C859.547 14.816 859.788 14.9859 860.79 14.1796C859.417 13.4973 853.548 13.3171 851.874 13.5437C849.942 13.6462 848.869 13.5828 847.349 14.2512C848.733 14.9148 854.22 14.4403 857.602 15.1501ZM1091.23 22.5828C1093.35 23.8023 1104.15 25.7384 1107.19 25.0864C1105.63 23.5869 1094.5 22.4597 1091.23 22.5828ZM770.277 389.857L769.894 391.415C767.154 392.003 759.304 389.37 753.883 390.881L754.048 391.254C754.908 391.402 755.598 391.57 756.488 391.533C761.609 391.509 768.698 393.464 771.485 392.053L772.162 390.69C771.42 390.179 771.396 390.055 770.277 389.857ZM1142.65 280.507L1141.39 281.158L1141.59 281.672C1145.45 282.741 1154.76 282.737 1160.32 283.77L1161.28 283.286C1159.15 281.716 1146.72 280.923 1142.65 280.507ZM113.667 364.917L110.96 365.115L110.447 365.552C112.988 366.237 128.194 366.052 132.08 366.046L132.847 366.019L133.33 365.696L133.095 365.989L133.939 365.589L133.394 365.162C127.752 364.712 119.488 364.863 113.667 364.917Z" fill="#EB367B"/>
</svg>
