<svg width="450" height="44" viewBox="0 0 450 44" fill="none" xmlns="http://www.w3.org/2000/svg">
<path d="M9.78551 8.08818C19.0458 6.01242 25.7053 6.58787 34.4952 5.98614C53.8623 4.64145 79.3921 2.3661 99.2396 1.41871C114.279 0.675534 129.557 0.231339 144.513 0.0749473C145.284 0.0666862 145.745 0.184967 146.094 0.18179C149.387 0.148979 154.858 -0.0092173 158.113 0.000477546C164.968 -0.000781296 176.863 0.08575 183.114 0.342166C185.777 0.444105 188.505 0.53247 189.531 0.856061C190.501 0.896428 191.039 0.643399 191.293 0.635784C191.296 0.636128 191.299 0.636471 191.302 0.636816C192.12 0.613593 194.176 0.862198 194.631 0.864982C194.699 0.86532 194.286 0.658149 195.388 0.75121C195.487 0.759414 195.391 0.888083 196.321 0.919903C196.563 0.927144 199.682 0.830265 200.571 0.851587C203.532 0.913176 210.587 1.36991 214.12 1.54711C214.661 1.57374 214.976 1.51216 215.547 1.53959C215.842 1.55367 216.279 1.65994 216.37 1.66415C216.768 1.68116 218.526 1.3927 217.862 2.10963C219.678 2.15841 219.158 1.8827 219.207 1.72373C221.179 1.80714 222.108 2.21521 222.642 1.87016C232.309 2.4683 241.986 3.19958 251.632 4.05424C251.64 3.99361 251.648 3.93296 251.656 3.87233C254.478 4.35491 255.492 4.03084 257.088 4.5275C258.098 4.53883 259.11 4.55159 260.122 4.56578C285.798 7.15071 311.449 10.0899 336.659 13.8567C337.726 14.0163 337.972 14.1842 339.738 14.4518C341.7 14.7493 344.434 15.0147 346.971 15.4113C349.199 15.7588 352.486 16.4017 354.998 16.8241C355.565 16.9191 355.99 16.9039 356.053 16.9147C356.429 16.9784 356.427 17.1101 356.792 17.1726C357.234 17.248 357.76 17.2351 358.255 17.3213C360.099 17.6415 362.13 17.9409 362.366 17.982C363.498 18.1805 363.729 18.3481 363.822 18.3648C365.084 18.589 364.629 18.3973 364.943 18.456C366.575 18.762 367.686 19.2379 369.988 19.3451C369.909 19.4399 369.83 19.5347 369.751 19.6295C371.469 19.9793 370.375 19.508 370.736 19.5169C370.903 19.525 374.55 20.1781 374.831 20.232C375.811 20.4177 375.814 20.5621 375.898 20.5785C376.104 20.618 378.61 20.8848 379.867 21.2282C381.353 21.6342 379.526 21.6101 379.892 21.7284C379.953 21.7482 381.541 21.9936 381.739 22.1197C381.957 22.2561 380.587 22.016 380.602 22.0599C380.611 22.0896 382.854 22.6827 382.394 22.7395C382.018 22.8105 378.964 22.1053 378.305 22.0567C378.195 22.0485 378.37 22.2476 378.273 22.2373C377.868 22.1872 370.875 21.0005 370.505 20.9133C370.89 20.9013 371.276 20.8895 371.663 20.8778C371.167 20.7862 370.672 20.6949 370.177 20.6039C370.889 20.6619 371.621 20.724 372.315 20.7798C371.389 19.9884 368.115 20.0809 367.939 20.3685C367.859 20.5012 369.722 21.1894 367.896 21.1029C368.162 21.1849 368.428 21.267 368.694 21.3492C369.265 21.3833 369.837 21.4177 370.41 21.4526C370.042 21.3516 369.674 21.2508 369.306 21.1501C369.451 21.1305 369.596 21.1109 369.741 21.0913C370.802 21.1991 371.875 21.3099 372.908 21.4146C373.433 21.5362 373.301 21.6438 373.661 21.7302C378.165 22.8152 375.257 21.9156 378.241 22.4861C378.658 22.6277 379.074 22.7694 379.492 22.9114C379.389 22.605 380.688 23.0105 382.326 23.1714C382.117 23.2284 381.908 23.2855 381.699 23.3426C384.052 23.7005 388.721 24.9962 387.526 24.2698C388.046 24.4056 388.567 24.5418 389.088 24.6782C389.549 24.6756 390.011 24.6733 390.473 24.6711C391.09 24.7905 391.707 24.9103 392.326 25.0306C392.321 25.0753 392.316 25.1201 392.311 25.1649C391.816 25.0767 391.322 24.9888 390.828 24.9012C391.175 25.1021 391.521 25.303 391.868 25.5041C392.237 25.5469 392.606 25.5898 392.976 25.6328C391.466 25.2312 393.523 25.384 394.046 25.2942C395.352 25.4607 396.141 25.8417 396.575 25.9308C396.778 25.9722 399.27 26.0027 398.241 26.2788C399.496 26.45 400.754 26.6228 402.017 26.7973C402.504 26.9218 402.964 27.0415 403.438 27.1639C402.362 27.1823 405.323 27.9849 403.092 27.6652C401.435 27.4287 401.02 27.152 400.226 27.0086C399.503 26.8781 399.097 26.9401 398.312 26.8038C393.011 25.8818 388.877 25.1205 383.838 24.1779C382.848 23.9927 381.937 23.9005 381.275 23.7761C380.528 23.6356 381.495 23.6335 380.534 23.5081C379.525 23.377 379.287 23.4746 379.022 23.4317C378.858 23.4049 378.359 23.1939 377.881 23.1116C375.915 22.7726 373.036 22.4033 372.76 22.3561C372.486 22.3063 366.855 21.2468 366.603 21.1864C366.463 21.152 366.832 20.7528 365.521 21.0257C365.136 20.9708 364.751 20.9161 364.366 20.8616C364.443 20.7824 364.52 20.7031 364.597 20.6239C362.271 20.5883 363.082 20.5268 360.898 20.1961C355.74 19.4151 347.858 18.0852 342.202 17.2559C340.906 17.0654 340.397 17.0976 338.869 16.8747C337.448 16.6659 333.814 15.7983 334.549 16.3616C331.473 15.5136 330.878 16.1062 329.378 15.4656C329.18 15.4984 328.983 15.5313 328.786 15.5643C327.125 15.0608 326.544 15.2091 324.67 14.9748C323.861 14.8742 324.829 14.7305 323.159 14.807C322.852 14.7405 322.545 14.6741 322.238 14.6078C322.319 14.5513 322.401 14.495 322.482 14.4386C320.671 14.2402 320.562 14.1906 320.732 14.4679C319.869 14.3016 319.008 14.1363 318.148 13.9719C318.029 14.0389 317.91 14.1058 317.791 14.1728C318.183 14.3551 337.921 16.9528 340.716 17.3351C343.929 18.0094 350.355 18.7766 352.977 19.242C354.019 19.4263 354.452 19.6841 355.974 19.9517C357.5 20.2198 359.387 20.3549 360.194 20.4806C362.832 20.8801 375.614 23.0646 366.886 21.8368C367.12 21.9681 367.355 22.0995 367.589 22.2309C371.084 22.502 369.841 22.487 372.655 22.9958C373.836 23.2094 376.701 23.4938 376.473 23.8744C374.236 23.5684 371.971 23.0497 369.991 22.7224C369.796 22.69 367.458 22.4886 366.285 22.2418C365.227 22.0185 366.023 21.7506 363.637 21.8042C361.99 21.0944 360.939 21.3199 360.481 21.2872C359.689 21.2311 359.638 21.0067 358.864 20.8556C358.02 20.6907 357.416 20.7364 357.3 20.7186C356.135 20.5305 349.974 19.5689 349.718 19.4441C349.97 19.4454 350.222 19.4468 350.474 19.4483C348.895 19.1377 349.194 19.4059 348.773 19.3661C348.463 19.3166 348.153 19.2672 347.843 19.218C347.973 19.1925 348.103 19.1671 348.232 19.1416C346.362 18.8593 347.765 19.2363 345.12 18.8216C343.442 18.559 341.742 18.1246 341.564 18.1104C341.514 18.1065 342.034 18.3036 341.336 18.2129C340.181 18.0622 338.199 17.76 338.001 17.5704C337.437 17.5082 337.462 17.6687 337.387 17.661C337.054 17.624 331.469 16.849 330.479 16.7168C327.752 16.3446 324.599 15.8599 321.598 15.4667C321.288 15.4261 321.499 15.3552 321.189 15.3151C320.689 15.2499 318.12 15.0521 317.74 15.0116C316.786 14.9073 314.314 14.5097 313.91 14.5015C313.853 14.5003 314.665 14.7453 313.688 14.6558C312.604 14.5567 313.208 14.4556 313.15 14.4459C310.964 14.0908 309.568 14.0341 308.075 13.8637C307.591 13.8085 306.719 13.558 306.034 13.5104C305.955 13.5048 306.094 13.6495 306.016 13.6457C304.981 13.5788 304.052 13.2252 303.611 13.1539C302.532 12.9797 303.1 13.2255 303.044 13.2195C302.32 13.1333 301.361 12.9499 300.26 12.821C295.296 12.2409 291.295 11.7731 286.074 11.1672C285.412 11.0906 284.641 10.8818 284.54 10.8703C284.228 10.8362 284.301 10.9878 283.399 10.884C281.498 10.6649 279.738 10.4799 277.864 10.2768C277.487 10.236 277.34 10.0874 277.053 10.054C276.087 9.94192 272.773 9.94616 272.752 9.51186C270.783 9.69365 269.537 9.23876 267.989 9.08969C264.323 8.73397 258.595 8.27997 254.929 7.91395C254.159 7.83636 253.808 7.69541 253.38 7.65274C252.612 7.57348 248.225 7.27163 247.998 7.23794C247.551 7.1687 247.863 6.7042 245.502 6.94256C244.136 6.86582 244.312 6.68 244.031 6.64734C241.84 6.39732 239.675 6.68576 240.103 6.30802C237.542 6.23073 235.875 6.3417 234.861 5.88933C234.864 6.07618 233.652 6.1043 232.206 5.93733C233.711 5.7251 233.549 5.50989 237.122 5.81815C237.178 5.82306 237.061 5.94973 237.118 5.95464C237.628 5.99986 238.7 6.00845 239.572 6.07965C240.443 6.15094 239.952 6.20722 240.302 6.23116C240.622 6.25298 240.62 6.12365 241.083 6.15628C242.586 6.26313 243.919 6.33023 244.775 6.39465C245.314 6.43529 245.909 6.59569 246.328 6.62892C247.952 6.75565 251.356 6.94637 253.41 7.13612C253.838 7.17574 253.647 7.28661 254.582 7.37811C254.692 7.38886 255.101 7.29129 255.924 7.33601C256.747 7.38081 257.378 7.50312 257.907 7.53676C258.349 7.565 258.175 7.431 259.08 7.50558C259.852 7.56153 268.313 8.45171 268.785 8.52493C269.448 8.61787 269.748 8.81402 270.156 8.83471C270.228 8.83759 270.365 8.69092 270.615 8.70452C274.739 8.92202 283.694 10.1052 288.365 10.6507C298.061 11.7683 307.039 12.8096 316.837 14.1079C317.014 14.104 317.191 14.1002 317.368 14.0965C316.385 13.9608 315.403 13.8263 314.423 13.6931C314.426 13.6178 314.43 13.5425 314.434 13.4672C313.093 13.2747 313.244 13.4747 313.269 13.586C312.776 13.4741 312.284 13.3625 311.792 13.2512C311.327 13.4527 308.037 12.8432 306.338 12.6256C305.232 12.4827 303.906 12.4144 303.326 12.3331C302.1 12.1618 302.153 12.0061 302.057 11.9913C301.894 11.9669 300.166 11.8937 298.909 11.7332C297.062 11.4981 296.891 11.2264 294.345 11.1321C291.123 10.6158 287.598 10.2711 284.077 9.89864C284.767 9.74479 281.613 9.6112 280.208 9.45611C271.668 8.49976 261.084 7.37059 252.363 6.54676C251.244 6.44054 250.41 6.23594 249.787 6.18904C249.449 6.16351 249.289 6.31007 248.821 6.25081C248.74 6.24013 248.694 6.08678 247.824 5.99398C245.643 5.7578 240.186 5.59321 238.836 5.2123C231.387 4.71714 223.918 4.29742 216.445 3.9569C216.261 3.8865 216.076 3.81614 215.892 3.74583C214.456 3.98049 208.862 3.53148 206.124 3.43616C201.308 3.25844 195.157 3.14733 190.94 3.04539C190.023 3.02266 189.274 2.91491 188.406 2.89499C188.032 2.88657 187.565 2.98953 187.176 2.98089C182.8 2.88291 176.915 2.66543 172.504 2.62609C162.52 2.53321 153.13 2.54715 142.986 2.71502C108.876 3.28651 75.1189 5.51081 41.4642 8.35744C41.0151 8.39545 41.0261 8.26256 40.6777 8.29193C38.6246 8.46287 34.0123 8.98298 31.6524 9.19438C29.7961 9.35915 26.8717 9.43052 26.2496 9.69273C32.7498 9.38813 39.8986 8.72476 46.6679 8.2433C47.1618 8.20793 47.2333 8.32741 47.2942 8.32461C48.4196 8.27437 47.698 8.16142 49.3212 8.01934C49.8687 7.96973 54.8858 7.96506 54.2591 7.6179C55.4653 7.67592 63.8343 7.11276 65.487 6.94458C65.9804 6.89239 65.6217 6.80067 65.7194 6.78755C66.1438 6.73049 66.3479 6.87829 66.7287 6.85487C67.7448 6.7907 70.3055 6.47701 70.7918 6.44436C71.9243 6.36562 75.2424 6.27096 76.7661 6.13976C78.1367 6.02079 77.8688 5.86862 79.0522 5.77607C79.9837 5.70418 78.9788 5.91108 81.0603 5.82139C82.0935 5.77572 85.6752 5.453 86.5423 5.40226C87.4118 5.35025 88.3795 5.3946 89.5778 5.31755C91.3309 5.204 95.1204 4.93806 96.8828 4.814C96.9881 4.80662 97.2381 4.66146 97.4979 4.65065C98.0359 4.62815 97.8828 4.79915 98.2894 4.79467C98.6965 4.78589 105.714 4.42217 106.935 4.37372C107.763 4.33712 108.33 4.215 108.787 4.19577C109.145 4.18097 109.19 4.31479 109.555 4.30044C109.668 4.29552 110.626 4.13613 111.586 4.09883C112.495 4.06229 115.932 4.0381 116.327 4.02519C116.586 4.01582 116.297 3.93022 117.064 3.90361C117.77 3.87947 118.238 3.98759 118.639 3.9748C119.572 3.94497 120.608 3.80167 121.595 3.76766C124.428 3.67117 124.284 3.83339 124.454 3.83246C124.925 3.83157 125.109 3.68384 125.263 3.67611C125.914 3.6437 127.507 3.5699 128.086 3.54802C128.807 3.5205 129.116 3.6468 129.881 3.6263C130.444 3.61081 131.615 3.44775 132.926 3.4089C135.888 3.31984 139.394 3.2221 142.279 3.17904C143.139 3.166 143.273 3.28728 143.536 3.28627C144.927 3.2813 145.708 3.13319 146.105 3.12952C148.943 3.10071 153.982 3.27254 156.591 3.28214C157.66 3.28275 162.351 3.17359 164.984 3.2028C165.286 3.20565 165.003 3.30126 165.339 3.28731C166.141 3.25405 166.068 3.05727 166.475 3.06501C166.671 3.06939 167.118 3.18234 167.689 3.19662C170.644 3.27094 172.706 3.20716 174.059 3.22853C187.06 3.43253 200.337 3.89095 212.468 4.4912C213.821 4.55769 215.505 4.52337 217.543 4.74416C217.603 4.80848 217.662 4.8728 217.722 4.93712C217.797 4.88094 217.871 4.82477 217.946 4.7686C220.262 4.85962 221.146 4.83125 223.498 5.04372C223.701 5.06191 224.305 5.37665 224.709 5.05366C227.032 5.44419 225.764 5.11432 227.502 5.19752C229.239 5.28175 230.923 5.46766 232.608 5.59747C233.523 5.78197 229.628 5.81223 229.377 5.79708C228.97 5.77007 228.559 5.57152 228.168 5.53789C227.01 5.43789 225.881 5.50666 225.63 5.33761C224.123 5.41013 225.992 5.4407 225.796 5.57574C224.8 5.45496 223.805 5.33559 222.809 5.21764C222.277 5.68196 216.775 4.73297 217.141 5.13466C216.705 5.03589 216.269 4.93739 215.833 4.83917C213.879 5.21661 212.763 4.82579 210.196 4.56621C210.379 4.63544 210.562 4.70473 210.745 4.77405C210.691 4.79641 208.416 4.79149 209.24 4.56908C206.897 4.80737 207.018 4.24451 204.913 4.56877C203.671 4.57172 204.427 4.36193 202.206 4.28046C200.89 4.23257 199.251 4.29813 197.78 4.25718C197.441 4.24734 197.298 4.10442 196.997 4.09442C196.695 4.08452 196.544 4.21499 196.178 4.20658C195.424 4.18941 194.451 4.06421 193.979 4.05919C193.557 4.05428 192.95 4.15542 191.932 4.14532C188.376 4.11369 189.454 3.97471 188.894 3.90177C188.292 3.8252 187.852 4.03865 186.649 3.98436C186.529 3.9788 186.844 3.84609 186.451 3.84246C186.135 3.83954 185.972 3.98766 184.923 3.9931C184.499 3.9906 178.033 3.90411 177.044 3.89802C175.533 3.87913 172.161 3.71189 170.591 3.70102C169.985 3.69597 169.342 3.81332 168.703 3.80827C166.586 3.79063 163.19 3.76829 160.491 3.76555C158.054 3.75985 153.808 3.51343 152.483 3.76927C149.082 3.82942 148.248 3.63534 147.992 3.63472C147.296 3.63533 146.976 3.77713 146.098 3.79536C134.799 4.01333 119.802 4.37548 109.134 4.86676C84.1955 5.98323 59.3425 7.84695 34.4159 10.0395C34.3543 10.1064 34.2927 10.1733 34.2311 10.2402C37.1966 10.0115 40.66 9.81332 43.5424 9.5912C47.3512 9.295 53.1994 8.56189 56.04 8.75892C54.8944 8.88566 53.0018 8.87697 53.0524 9.08845C55.1173 8.93762 57.1726 8.7911 59.2187 8.64892C59.1501 8.55473 59.0815 8.46054 59.0128 8.36636C61.1236 8.17461 63.3813 8.02634 65.5432 7.85377C65.9199 7.82385 65.6465 7.75357 65.9745 7.72914C66.3415 7.70204 66.0994 7.81158 66.1682 7.80729C67.0956 7.74068 67.3679 7.62829 67.481 7.62143C67.771 7.60424 67.5524 7.70831 68.3889 7.67316C69.9402 7.60849 71.0272 7.29792 70.6923 7.71281C71.1904 7.67787 71.688 7.6432 72.1851 7.60879C72.3064 7.49382 72.4278 7.37886 72.5491 7.26392C75.618 7.48311 77.0184 6.63706 78.763 7.12186C79.3205 6.99417 79.8775 6.86682 80.4339 6.73982C80.7576 6.82566 81.081 6.91162 81.4041 6.9977C81.46 6.90273 81.516 6.80777 81.5719 6.71281C84.6082 6.58822 87.7704 6.28855 90.6752 6.13353C92.7032 6.02575 93.1893 6.03513 94.977 5.93112C98.9463 5.70392 95.0164 6.09309 98.3196 6.11593C98.1427 6.01305 97.9656 5.91021 97.7884 5.80741C98.3314 5.7381 98.874 5.66913 99.416 5.60051C99.7994 5.67237 100.183 5.74439 100.565 5.81659C102.221 5.25994 103.318 5.5903 103.552 5.57902C103.738 5.5695 104.369 5.25294 106.387 5.40183C105.537 5.05062 107.916 5.32989 108.104 5.32435C108.284 5.3175 110.572 5.13047 111.5 5.09589C112.23 5.06789 113.788 5.08804 114.87 5.0416C115.826 5.00052 115.724 4.8724 115.793 4.86828C116.969 4.81221 116.235 4.94308 117.086 4.91591C117.948 4.88855 118.611 4.75178 118.797 4.75511C118.89 4.7571 118.582 4.89149 119.01 4.88792C120.159 4.87857 122.226 4.69948 123.534 4.66061C123.997 4.64654 124.585 4.73236 125.1 4.71949C125.89 4.69944 126.255 4.54964 126.713 4.54001C126.873 4.53707 127.897 4.72081 129.158 4.6527C129.4 4.63934 130.083 4.16638 131.051 4.7839C131.122 4.69155 131.192 4.59921 131.263 4.50688C135.534 4.17322 136.729 4.88718 138.607 4.19589C141.694 4.20886 139.581 4.50391 139.92 4.53617C140.139 4.55651 141.142 4.46834 141.253 4.47047C141.448 4.47479 141.416 4.5569 141.63 4.5527C145.548 4.4723 143.814 4.34812 145.06 4.23129C148.035 3.95781 150.361 4.4447 145.183 4.35806C145.184 4.40354 145.185 4.44903 145.185 4.49451C146.462 4.43131 149.692 4.41502 148.616 4.65818C147.768 4.84365 140.103 4.84368 144.443 5.03154C145.431 5.07467 145.941 4.89607 147.652 5.19487C148.78 5.19875 148.938 4.78187 150.465 4.93296C150.213 4.79075 149.961 4.64863 149.708 4.50659C151.789 4.29577 154.352 4.53041 155.943 4.44198C156.48 4.41121 158.443 3.71483 157.987 4.40602C158.904 4.3579 163.211 4.48365 164.008 4.42594C164.2 4.41208 164.453 4.04265 167.23 4.18432C167.422 4.23135 167.615 4.27844 167.807 4.32558C165.268 4.44512 169.749 4.60677 168.53 4.94812C168.118 4.78834 166.106 4.68247 165.782 4.60291C165.229 4.46533 166.878 4.29649 164.777 4.33676C163.45 4.91449 167.238 4.66008 166.656 5.21133C169.413 4.96752 169.682 5.21855 170.309 5.23325C172.986 5.2974 174.669 5.25825 177.188 5.35856C177.804 5.25222 173.243 5.02834 172.675 5.07412C174.763 4.69387 171.175 4.6363 169.66 4.86557C169.535 4.74296 169.409 4.62038 169.283 4.49782C171.248 4.57786 173.176 4.63078 175.126 4.55542C175.252 4.6025 175.379 4.64961 175.505 4.69673C175.067 4.75958 174.629 4.82269 174.19 4.88607C175.81 5.01807 174.843 4.65028 176.997 4.99081C177.066 4.85478 177.135 4.71876 177.204 4.58274C179.274 4.65824 181.337 4.7396 183.406 4.82708C184.491 4.57211 188.475 4.76833 187.736 5.10712C189.343 5.172 187.363 4.93333 188.872 4.8846C189.529 4.86352 190.81 4.88734 191.124 4.99191C190.979 5.32633 189.061 5.31723 188.475 5.53571C188.827 5.61024 197.738 5.63392 196.933 6.0111C197.643 6.08247 197.323 5.86713 198.608 5.85907C202.211 5.83487 207.762 6.46713 210.676 6.09815C207.292 5.66196 206.271 5.91917 203.666 5.82666C202.002 5.75511 191.851 5.4736 194.13 5.19096C193.756 5.2251 193.382 5.25943 193.008 5.29396C192.634 5.17637 192.261 5.05897 191.887 4.94177C192.949 4.95647 194.011 4.97277 195.073 4.99066C195.323 5.10486 195.573 5.21914 195.823 5.33353C195.943 5.26141 196.062 5.18931 196.182 5.11723C196.63 5.11664 197.078 5.11634 197.526 5.11632C197.397 5.20329 197.268 5.29028 197.14 5.37729C197.829 5.41582 198.517 5.45503 199.206 5.49491C199.025 5.36652 198.843 5.23818 198.662 5.10989C201.91 5.19434 200.808 5.2322 202.6 5.52783C203.943 5.60352 201.681 5.27977 204.527 5.33295C207.837 5.40069 205.653 5.67855 209.936 5.78865C210 5.73068 210.065 5.67272 210.129 5.61476C211.067 5.71843 212.005 5.82335 212.943 5.92953C212.823 5.84798 212.702 5.76644 212.581 5.68493C214.522 5.80638 217.207 5.80078 217.836 6.13176C215.874 5.88558 215.867 6.40542 216.374 6.52655C217.425 6.74893 233.026 7.4932 236.049 7.72391C239.906 7.97836 242.812 8.36365 246.369 8.38962C243.983 7.98095 235.57 7.53722 233.99 7.29302C233.833 7.26818 233.909 6.79692 232.856 7.26174C229.585 6.95139 225.664 6.85658 221.584 6.61088C221.716 6.4814 221.849 6.35195 221.981 6.22253C224.474 6.65498 226.838 6.16113 226.478 6.67118C226.978 6.70171 227.478 6.73259 227.978 6.76383C227.984 6.6725 227.99 6.58117 227.996 6.48984C228.75 6.53695 229.504 6.58487 230.259 6.63361C230.253 6.72492 230.247 6.81624 230.241 6.90756C230.866 6.94792 231.491 6.98883 232.116 7.0303C232.187 6.94358 232.258 6.85686 232.33 6.77015C234.2 7.0792 240.584 7.02932 237.751 7.3727C238.628 7.43542 239.504 7.49923 240.382 7.56414C240.384 7.4972 240.386 7.43025 240.388 7.36331C240.766 7.38225 241.144 7.40139 241.522 7.42074C241.393 7.47181 241.264 7.5229 241.136 7.57403C242.873 7.59485 244.49 8.03995 245.644 7.92076C244.897 7.81601 244.151 7.71207 243.404 7.60891C244.834 7.80483 247.505 7.83719 247.737 7.85606C248.456 7.91322 248.824 8.0789 249.603 8.14985C250.306 8.21373 250.218 8.10228 250.349 8.11678C254.138 8.5407 252.643 8.98079 254.475 8.46948C254.657 8.57653 254.838 8.68362 255.019 8.79075C255.278 8.73711 255.536 8.68355 255.795 8.63008C256.919 8.73607 258.044 8.84384 259.17 8.95339C258.805 8.80597 258.439 8.65873 258.074 8.51169C259.767 8.61312 260.538 8.91408 260.696 8.93377C261.154 8.98933 261.378 8.86638 261.52 8.8793C268.356 9.53706 264.191 9.26945 267.561 10.1358C268.803 10.0462 267.588 9.71386 267.435 9.48332C269.05 9.74338 269.564 9.73471 271.283 9.92037C271.73 9.96893 272.2 10.1333 272.482 10.1638C272.725 10.19 273.511 10.147 274.088 10.2064C275.057 10.306 276.341 10.5143 277.672 10.6546C278.778 10.7698 282.182 11.0514 284.562 11.319C285.577 11.4332 285.33 11.5092 285.592 11.539C285.7 11.5512 286.51 11.519 287.156 11.5924C292.389 12.1881 297.863 12.9277 303.131 13.5937C306.847 14.0632 310.67 14.4638 314.429 14.9813C315.218 15.0902 314.788 15.1234 315.132 15.1733C315.25 15.1902 315.413 15.0525 316.628 15.2822C317.067 15.3652 316.543 15.4052 316.977 15.47C317.188 15.5017 317.296 15.3763 318.539 15.5155C320.799 15.769 321.991 16.1237 322.193 16.1463C322.576 16.1892 322.48 16.0601 322.986 16.1271C325.449 16.4538 327.565 16.7377 329.723 17.0414C330.733 17.1792 337.8 18.2039 338.195 18.2881C339.061 18.4649 338.213 18.5788 339.334 18.74C339.657 18.7277 339.98 18.7154 340.303 18.7033C339.811 18.5819 339.319 18.4609 338.828 18.3401C340.183 18.6225 341.779 18.7558 342.772 18.9125C342.956 18.9416 344.641 19.3107 345.514 19.4343C345.137 19.4213 344.761 19.4086 344.384 19.396C344.509 19.454 344.634 19.5121 344.759 19.5702C346.506 19.7816 348.352 20.0714 350.147 20.363C350.794 20.4681 350.561 20.5255 351.217 20.6326C355.036 21.2598 354.168 20.7286 357.703 22.036C356.513 21.7748 351.907 21.1313 351.265 21.0065C350.808 20.9167 349.126 20.0296 349.68 20.7553C346.021 20.1782 349.25 20.3313 345.829 19.8749C345.885 19.9616 345.941 20.0482 345.997 20.1348C344.801 19.998 343.92 19.9015 343.221 19.6566C342.948 19.9915 338.872 19.1472 336.64 18.8399C333.398 18.3902 329.8 17.9547 326.591 17.5113C325.482 17.3579 324.877 17.1243 324.738 17.105C324.535 17.0772 323.948 17.1233 323.543 17.0671C322.031 16.8551 317.492 16.0072 316.316 16.2077C325.254 17.4267 334.167 18.7253 343.144 20.1055C342.047 19.7555 351.04 21.1377 351.512 21.2274C351.936 21.3026 351.559 21.367 351.685 21.3945C352.617 21.5958 353.451 21.5488 353.751 21.5967C353.979 21.6333 354.427 21.7895 355.242 21.9186C355.392 21.9423 355.447 21.8618 355.608 21.8874C356.684 22.0606 357.689 22.2245 358.742 22.3953C358.806 22.4065 359.049 22.5768 359.314 22.6202C359.579 22.6635 359.863 22.5791 359.93 22.5896C360.768 22.7273 362.196 23.0467 362.998 23.18C363.276 23.2259 363.099 23.1008 363.41 23.1532C364.369 23.314 364.022 23.444 365.218 23.5941C365.619 23.6445 365.616 23.5005 366.377 23.6462C366.916 23.7495 366.816 23.9885 366.9 24.0119C367.016 24.0423 368.92 24.1592 369.507 24.4256C368.094 24.6295 370.971 24.6951 370.867 24.4916C371.604 24.663 372.313 24.8302 373.037 25.0003C373.294 24.9967 373.551 24.9932 373.808 24.9898C376.721 25.6997 378.551 25.8873 381.472 26.4609C381.612 26.4881 384.072 27.0231 383.946 27.0677C382.441 26.9183 380.964 26.6665 380.055 26.2976C378.434 26.4198 378.459 26.1023 375.953 25.7253C375.115 25.5997 375.038 25.696 374.942 25.6809C371.73 25.184 366.416 24.3392 364.277 23.6673C363.645 23.6489 365.861 24.0506 364.987 23.9692C364.487 23.9127 353.241 22.1861 356.886 22.411C356.516 22.3613 356.134 22.31 355.753 22.2588C355.319 22.5354 353.449 22.1565 353.717 21.854C353.527 21.8944 353.338 21.9349 353.149 21.9755C352.788 21.9777 352.367 21.9426 351.781 21.8686C349.532 21.5695 336.36 19.4279 335.624 19.3803C335.596 19.458 335.568 19.5357 335.54 19.6133C341.429 20.5851 347.036 21.2468 353.414 22.4999C353.24 22.3952 353.066 22.2905 352.892 22.1859C355.445 22.7007 357.95 23.2135 360.454 23.7309C357.779 23.4314 353.459 22.8521 350.643 22.293C350.144 22.1936 350.529 22.1473 350.415 22.1164C350.119 22.0359 349.765 22.1657 348.681 22.0133C347.594 21.86 344.907 21.3104 344.66 21.2763C344.181 21.2097 342.862 21.219 342.053 21.0925C340.978 20.9241 341.719 20.9059 341.503 20.8701C340.603 20.7196 339.786 20.6607 339.083 20.5446C338.04 20.3717 335.908 19.8208 335.133 20.0452C335.873 20.171 336.615 20.2975 337.358 20.4246C333.293 19.9362 330.261 19.0571 326.232 18.8137C325.266 19.0859 328.578 19.5053 325.76 19.2767C326.267 19.3434 326.776 19.4104 327.284 19.4777C327.415 19.4105 327.547 19.3436 327.677 19.2762C328.527 19.4602 329.378 19.6451 330.23 19.8309C329.995 19.7199 329.761 19.609 329.526 19.4982C332.583 19.8844 335.7 20.271 336.716 20.8361C336.794 20.7481 336.872 20.66 336.95 20.572C339.801 21.1197 344.148 21.3662 343.259 21.7851C343.398 21.7769 343.536 21.7688 343.674 21.7606C345.366 22.1356 344.671 21.7986 345.318 21.8729C345.502 21.8933 348.821 22.5307 347.317 22.4604C350.557 23.0946 349.634 22.4315 350.538 22.551C352.589 23.1318 356.444 23.366 354.786 23.5063C355.097 23.5716 355.409 23.637 355.72 23.7025C356.802 23.5568 357.727 24.0688 358.81 24.3662C359.182 24.4339 359.553 24.5018 359.925 24.5698C360.192 24.5057 360.459 24.4417 360.726 24.3777C364.161 25.4549 363.275 23.9075 364.697 25.3214C364.434 25.3482 364.172 25.3752 363.909 25.4022C363.308 25.3362 362.708 25.2706 362.108 25.2054C364.499 25.6302 366.904 26.0617 369.321 26.4999C372.346 27.3405 374.071 27.2752 377.413 28.1122C377.735 28.1362 378.056 28.1603 378.378 28.1846C378.011 28.3884 376.789 28.1378 379.057 28.6499C379.22 28.867 377.67 28.6233 376.993 28.3618C376.829 28.2982 378.295 28.4061 376.675 28.122C375.576 27.9297 377.533 28.4917 374.256 27.8465C374.37 27.9122 374.485 27.9778 374.599 28.0435C374.242 27.9812 373.887 27.9191 373.531 27.8571C373.232 27.6994 372.934 27.5418 372.635 27.3842C371.79 27.3949 371.333 27.5328 369.435 27.1668C369.959 27.1883 369.297 26.8621 368.362 26.7087C368.349 26.7838 368.337 26.8589 368.324 26.934C366.056 26.6035 366.872 26.5135 364.97 26.3737C364.793 26.2828 364.615 26.1919 364.438 26.1012C363.375 26.1767 359.617 25.7316 360.358 25.4744C359.253 25.6615 357.091 25.1439 356.327 24.7262C356.252 24.7908 356.178 24.8554 356.103 24.92C355.664 24.8646 355.217 24.8081 354.774 24.7525C354.535 24.6677 354.297 24.5831 354.058 24.4985C353.739 24.4936 353.42 24.4889 353.101 24.4842C352.924 24.3792 352.748 24.2742 352.572 24.1693C352.057 24.1792 351.542 24.1895 351.029 24.2001C350.732 24.0918 350.436 23.9836 350.141 23.8755C350.083 24.0261 347.058 23.5859 346.236 23.3534C345.979 23.3599 345.722 23.3664 345.464 23.373C345.354 23.2795 345.243 23.1861 345.133 23.0926C344.937 23.1233 344.742 23.1541 344.547 23.1849C344.128 23.059 343.709 22.9333 343.291 22.8078C341.493 22.9049 341.485 22.5765 341.078 22.5165C340.325 22.4051 337.738 22.2474 337.316 22.1723C336.892 22.0965 336.707 21.9345 336.366 21.8708C330.757 20.824 333.027 21.5242 331.889 21.4123C331.277 21.3532 330.865 21.1679 330.327 21.1031C329.418 20.9916 324.73 20.4827 324.457 20.4293C324.068 20.3507 325.073 19.9041 323.777 19.8721C323.69 20.1755 321.015 19.4796 322.225 20.0911C321.11 19.8956 319.998 19.7017 318.889 19.5093C318.964 19.8948 317.622 19.4674 316.126 19.2842C314.033 19.0249 309.159 18.6241 309.392 18.2719C308.869 18.2913 308.347 18.3111 307.825 18.3312C304.335 17.7545 300.968 17.4542 297.46 17.0276C287.154 15.773 276.05 14.4608 265.753 13.3897C265.26 13.3383 265.343 13.2213 264.988 13.1844C263.128 12.989 258.277 12.6267 255.651 12.3706C254.813 12.288 254.415 12.1318 254.15 12.1031C253.249 12.0054 253.448 12.1833 253.033 12.1431C252.378 12.0782 248.929 11.6402 247.741 11.53C247.154 11.4748 246.44 11.545 245.749 11.4509C245.69 11.443 245.81 11.3212 245.76 11.3149C244.495 11.1991 245.248 11.372 244.82 11.3324C241.771 11.0509 238.516 10.8067 235.22 10.5509C234.404 10.4871 233.15 10.3093 232.444 10.2536C232.175 10.2326 232.651 10.3638 231.721 10.2938C231.403 10.2699 231.302 10.1338 230.943 10.1018C229.395 9.9656 228.85 10.3473 227.54 9.93073C224.969 9.79048 220.499 9.63991 218.149 9.5189C217.594 9.48971 217.328 9.39925 216.799 9.37301C216.423 9.35435 215.757 9.43838 215.171 9.41027C214.586 9.38205 213.668 9.22335 212.542 9.17339C211.356 9.12032 209.88 9.11981 209.613 9.10745C209.29 9.09287 209.146 8.94403 208.824 8.93145C207.848 8.8918 205.228 8.92047 203.97 8.88631C202.618 8.84851 201.81 8.74936 201.348 8.73339C200.92 8.71928 200.417 8.82097 200.221 8.81495C199.917 8.80577 199.85 8.66299 199.464 8.6504C198.833 8.63028 198.18 8.69565 197.234 8.66628C180.2 8.13969 163.491 7.91835 146.91 8.03063C145.057 8.04385 144.001 8.15658 141.293 8.15901C140.191 8.16057 140.653 8.0074 139.796 8.05091C139.413 8.0706 139.512 8.18252 139.029 8.19752C136.891 8.26294 134.388 8.21547 133.456 8.24044C133.087 8.25003 132.668 8.38962 131.91 8.41097C126.314 8.56791 119.606 8.75199 113.593 9.01916C110.413 9.15801 105.514 9.4419 101.859 9.63226C91.736 10.1518 80.7761 10.792 71.5439 11.4519C57.4807 12.453 43.7558 13.7098 29.7382 14.8662C36.3333 14.5666 45.0661 13.7736 52.4288 13.2136C73.3966 11.607 95.7157 10.0067 117.213 9.21141C124.747 8.92653 134.167 8.6515 142.355 8.58974C142.727 8.58665 143.485 8.47466 144.295 8.4729C144.467 8.4723 146.596 8.62326 147.31 8.61669C146.628 8.3025 149.433 8.55552 150.295 8.54018C151.385 8.51908 153.655 8.33735 156.195 8.41671C158.506 8.48928 157.873 8.61685 158 8.62389C158.821 8.6717 159.107 8.47132 159.735 8.45008C162.307 8.34506 175.473 8.54563 179.149 8.63593C180.098 8.65345 180.122 8.78126 180.336 8.78538C180.902 8.79611 181.71 8.68523 182.616 8.70388C184.255 8.73755 186.14 8.90003 187.041 8.92218C189.198 8.9733 193.288 8.94372 196.086 9.03337C196.874 9.05817 196.821 9.18889 197.178 9.20028C198.748 9.24845 202.84 9.24265 204.788 9.32263C207.952 9.44898 211.198 9.68125 214.415 9.7981C214.616 9.86716 214.816 9.93628 215.017 10.0055C215.341 9.95985 215.666 9.9144 215.991 9.86909C221.431 10.1955 226.95 10.3891 232.362 10.7594C232.988 10.8009 236.056 11.1253 236.567 11.1631C236.994 11.1932 237.423 11.0773 238.054 11.1444C238.938 11.2383 238.084 11.4549 239.537 11.4814C239.928 11.4886 239.56 11.3419 240.345 11.3628C240.602 11.3667 245.629 11.704 245.9 11.7367C246.349 11.7862 246.731 12.0728 246.847 12.0876C247.448 12.1647 247.436 11.9674 247.841 11.9822C249.033 12.025 250.577 12.2859 250.771 12.2994C253.112 12.457 257.51 12.6859 259.972 13.0072C260.311 13.0513 260.256 13.1927 260.315 13.2029C260.695 13.2683 260.949 13.1251 261.314 13.1552C263.278 13.3184 266.348 13.7259 268.33 13.9519C268.559 13.9776 269.049 13.9461 269.456 13.9947C271.761 14.2717 271 14.3246 271.13 14.343C271.44 14.3882 272.002 14.3033 272.833 14.38C274.954 14.5735 279.011 15.0258 281.294 15.2898C283.003 15.487 282.96 15.6461 283.072 15.6616C283.312 15.6942 283.993 15.64 285.124 15.7532C287.306 15.972 287.026 16.069 287.914 16.1656C287.988 16.1742 287.873 16.0354 288.855 16.1364C290.751 16.3299 295.009 16.9611 297.058 17.2076C297.845 17.3019 298.044 17.2055 298.851 17.3032C300.143 17.4583 302.956 17.9444 303.187 17.9741C303.25 17.9821 303.409 17.8632 303.781 17.9106C304.189 17.9627 304.582 18.0848 304.887 18.1235C306.623 18.3435 309.66 18.4998 308.761 18.8787C309.336 18.8315 309.911 18.7847 310.487 18.7384C314.18 19.2525 317.645 19.6763 321.273 20.1593C322.086 20.2677 322.752 20.4559 323.44 20.5487C324.124 20.64 327.196 20.9236 327.695 20.9936C328.583 21.1144 333.678 21.845 334.316 21.9532C335.555 22.1585 336.734 22.5414 337.247 22.5785C337.659 22.6081 337.3 22.4378 338.082 22.5229C339.43 22.6691 341.723 23.1685 342.11 23.2259C342.284 23.2517 341.972 23.1129 343.594 23.3564C344.469 23.4877 344.924 23.6581 345.242 23.707C345.341 23.7221 345.216 23.5402 346.95 23.8326C348.149 24.0353 348.644 24.2383 348.77 24.2585C348.959 24.2892 349.437 24.2312 350.199 24.3564C351.971 24.6475 355.258 25.3267 356.92 25.6081C357.243 25.6629 357.157 25.4877 358.447 25.7123C359.37 25.8733 359.189 25.9719 359.534 26.0335C360.083 26.131 360.927 26.1122 362.145 26.3179C363.672 26.567 375.091 28.6556 375.639 28.7997C376.029 28.895 376.487 28.9756 376.672 29.077C376.493 29.113 376.314 29.149 376.135 29.1851C374.435 28.6589 375.093 29.0399 374.629 28.9776C373.956 28.8867 371.455 28.4268 370.842 28.3829C370.619 28.3666 371.108 28.5919 369.91 28.4627C368.627 28.3245 368.106 27.9835 367.545 28.2361C365.811 27.5606 364.028 27.673 366.083 28.1244C367.28 28.3771 378.471 30.4192 380.808 30.856C382.682 31.1989 386.248 31.7223 388.499 32.1492C389.834 32.4015 393.151 33.0137 392.98 33.168C394.175 33.4061 392.938 32.9998 393.194 33.0203C393.727 33.0618 397.461 33.8634 398.179 33.9897C401.763 34.6162 406.066 35.2019 409.444 36.0645C409.277 36.0829 409.111 36.1014 408.944 36.1199C408.163 36.0648 404.666 35.2881 404.23 35.4459C409.332 36.3854 414.65 37.381 419.735 38.3466C419.669 38.1303 426.053 39.3516 426.348 39.5015C426.217 39.5743 426.086 39.6472 425.955 39.7202C422.402 38.667 422.64 39.2049 420.272 38.493C419.291 38.303 419.558 38.5156 419.069 38.4536C414.204 37.8387 419.088 38.1241 415.321 37.558C416.41 37.9978 413.315 37.5006 411.941 37.2737C411.624 37.2202 407.55 36.4019 407.07 36.3175C404.349 35.8334 399.714 35.112 396.981 34.489C394.84 34.0857 393.636 34.036 391.698 33.7273C390.228 33.4936 390.669 33.4552 389.981 33.3309C388.539 33.0706 388.005 33.3332 387.17 32.6872C386.185 32.5747 385.208 32.4645 384.195 32.3483C384.208 32.2733 384.221 32.1983 384.234 32.1233C383.61 32.0135 382.986 31.9042 382.363 31.7953C382.167 31.838 381.971 31.8808 381.775 31.9236C379.82 31.477 380.676 31.4402 380.344 31.1635C379.921 31.0749 379.499 30.9865 379.077 30.8983C378.719 31.0044 378.363 31.1107 378.006 31.2171C376.116 30.8765 374.234 30.54 372.36 30.2074C372.251 30.1119 372.143 30.0165 372.034 29.921C372.017 29.9952 372.001 30.0693 371.984 30.1435C368.815 29.6206 365.525 29.085 362.332 28.5738C361.456 28.5516 366.587 29.4961 366.983 29.5716C369.189 29.9794 374.889 30.8269 374.858 31.0977C376.226 31.1263 380.268 31.8767 381.496 32.338C379.577 31.9882 377.666 31.6424 375.764 31.3007C375.81 31.4007 375.856 31.5007 375.902 31.6007C373.593 30.833 373.243 30.7935 370.762 30.7232C370.78 30.6029 370.798 30.4826 370.817 30.3622C369.045 30.4904 366.106 29.2706 365.938 29.7726C365.032 29.5782 364.127 29.3849 363.224 29.1925C361.256 28.934 364.211 29.8194 356.601 28.4195C356.077 28.3236 356.21 28.2102 355.417 28.0915C355.185 28.0571 353.82 28.0318 351.294 27.6092C350.9 27.5433 350.888 27.4245 350.481 27.3451C349.54 27.1605 347.629 27.0909 348.539 26.8575C344.828 26.1652 346.327 26.7102 345.155 26.6499C344.375 26.6103 344.563 26.4167 343.892 26.3633C343.058 26.2975 343.642 26.6099 340.354 26.0033C340.73 26.0455 341.11 26.0883 341.477 26.1293C341.3 26.0412 341.128 25.9539 340.947 25.8651C339.018 25.7169 339.231 25.5361 338.284 25.7351C336.925 25.3767 335.733 25.1851 333.851 24.933C330.2 24.4474 332.01 25.0813 327.944 23.9925C327.267 23.9643 326.581 23.9351 325.889 23.9055C324.791 23.6017 325.72 23.5508 324.059 23.277C325.311 23.8172 321.816 23.1887 321.183 23.4236C321.131 23.3395 321.08 23.2553 321.028 23.1712C320.658 23.1193 320.287 23.0675 319.917 23.0159C319.908 23.0762 319.898 23.1366 319.889 23.1969C319.402 23.0829 318.916 22.9692 318.431 22.8558C318.052 22.8646 317.675 22.8735 317.297 22.8827C316.707 22.6726 316.118 22.4629 315.529 22.2536C315.15 22.1931 314.771 22.1328 314.392 22.0726C314.5 22.1791 314.608 22.2855 314.716 22.392C314.232 22.2955 313.748 22.1994 313.265 22.1035C313.809 22.3277 313.443 22.4542 311.895 22.2422C310.624 22.0689 312.096 21.9495 309.348 21.7162C309.157 21.7007 308.788 21.8742 306.213 21.574C303.13 21.217 304.647 21.2512 304.099 21.1749C303.991 21.1602 303.039 21.1508 302.16 21.0556C301.661 21.0016 301.193 20.8517 301.127 20.8436C300.82 20.8091 300.715 20.9246 300.29 20.8759C299.221 20.7529 297.742 20.5064 296.677 20.3825C296.191 20.3256 295.725 20.3451 295.509 20.3197C295.173 20.2796 294.761 20.1133 294.421 20.0727C293.168 19.9233 291.227 20.0789 290.71 19.4818C289.453 19.826 287.016 18.9481 287.162 19.296C283.959 18.7931 275.326 18.2654 275.646 17.7497C273.782 18.0279 273.981 17.7059 273.221 17.6339C272.372 17.5539 272.8 17.6902 272.12 17.6161C270.53 17.4431 269.016 17.2511 267.437 17.0934C267.693 17.0426 267.948 16.9919 268.203 16.9412C266.548 16.7531 267.101 16.9842 265.41 16.8536C262.302 16.6163 263.623 16.6033 263.184 16.3618C263.286 16.5625 259.646 16.192 259.268 16.1337C259.046 16.0982 260.047 15.9409 257.788 15.8158C257.904 15.9026 258.02 15.9893 258.137 16.076C257.119 15.8786 254.326 15.7645 253.857 15.699C253.642 15.6683 252.535 14.9582 251.436 15.3515C251.314 15.2651 251.193 15.1786 251.072 15.0922C249.888 15.0842 248.707 15.0781 247.526 15.074C247.35 14.9226 247.174 14.7712 246.998 14.6198C246.625 14.5898 246.248 14.5597 245.874 14.5299C246.113 14.6707 246.352 14.8116 246.591 14.9525C244.28 14.7112 241.445 14.6884 241 14.2449C240.5 14.2835 240 14.3225 239.5 14.3618C239.188 14.2023 238.877 14.0429 238.565 13.8837C236.275 13.7526 236.231 13.8418 234.659 13.8779C234.727 13.776 234.796 13.6742 234.864 13.5723C233.705 13.6413 231.577 13.6368 229.909 13.5481C229.115 13.5052 227.763 13.2732 227.575 13.275C227.385 13.2767 225.492 13.7371 225.32 13.2279C222.572 13.2839 221.387 12.9931 220.272 12.9361C219.549 12.8998 219.213 13.0011 218.397 12.9695C217.229 12.9245 216.057 12.806 215.383 12.78C214.998 12.7654 214.92 12.8783 214.654 12.8686C213.398 12.8238 214.139 12.741 212.815 12.6841C212.693 12.6796 211.719 12.7748 210.63 12.706C210.021 12.6673 208.451 12.4366 208.312 12.4311C207.694 12.407 208.174 12.7469 206.08 12.288C206.138 12.3514 206.197 12.4148 206.256 12.4781C203.638 12.5231 203.237 12.2385 202.709 12.1987C202.642 12.1945 202.002 12.2747 201.622 12.246C200.98 12.1971 200.726 12.0442 200.584 12.0327C200.084 11.992 198.392 11.9946 197.292 11.8191C197.509 12.2338 193.638 12.2543 192.795 11.7689C192.108 11.84 191.421 11.9118 190.734 11.9843C190.426 11.8997 190.118 11.8152 189.811 11.7308C189.62 11.8017 189.43 11.8726 189.239 11.9436C188.245 11.7506 187.251 11.559 186.255 11.3688C186.187 11.5347 186.12 11.7006 186.053 11.8665C185.773 11.8411 185.494 11.8157 185.215 11.7905C184.999 11.6527 184.783 11.5149 184.568 11.3772C184.217 11.395 183.867 11.4131 183.516 11.4313C183.428 11.5257 183.339 11.6202 183.25 11.7147C181.37 11.7893 182.353 10.8863 178.763 11.6332C178.208 11.5484 177.653 11.464 177.097 11.38C176.463 11.7402 175.287 11.5005 174.335 11.5309C173.663 11.5523 173.698 11.6993 172.784 11.6928C171.869 11.6866 171.903 11.5469 171.831 11.5452C171.085 11.5295 170.521 11.6485 169.973 11.6195C169.89 11.6152 169.686 11.4468 168.992 11.4313C168.297 11.4161 167.878 11.5905 166.842 11.5518C166.312 11.5323 166.159 11.3912 165.688 11.3769C163.443 11.3075 161.179 12.0178 159.488 11.1775C159.107 11.2843 156.341 11.6668 155.172 11.6529C153.343 11.6296 154.047 11.4601 153.319 11.4348C153.214 11.4312 152.657 11.4903 151.119 11.4943C150.844 11.495 150.909 11.5879 150.869 11.5895C149.078 11.6034 145.581 11.5734 143.604 11.5927C143.428 11.5942 142.517 11.8685 140.953 11.5465C138.653 11.8454 134.278 11.3836 131.215 11.8563C130.788 11.8758 130.274 11.7965 130.088 11.8048C128.482 11.8788 129.084 12.1413 125.431 11.8385C125.73 11.9735 124.882 12.1296 123.676 12.1579C121.861 12.2012 123.141 11.8896 121.682 11.9608C121.684 12.0367 121.687 12.1126 121.689 12.1884C118.322 12.1011 117.646 12.4511 114.308 12.5844C113.104 12.6326 111.313 12.5395 111.024 12.5515C110.913 12.5565 109.597 12.7964 109.47 12.8035C108.758 12.8402 108.351 12.7738 107.735 12.801C105.699 12.8903 103.267 13.246 103.689 12.793C103.14 12.9107 102.591 13.0288 102.041 13.1472C99.9227 12.7894 98.3801 13.5072 97.9157 13.0825C97.544 13.1946 97.1721 13.3068 96.8 13.4193C87.6992 13.8551 78.6615 14.3762 69.6735 14.9681C69.3277 15.136 65.3747 15.3714 65.167 15.3654C64.2259 15.3332 65.1902 14.9458 63.2875 15.1599C63.0865 15.3132 62.8854 15.4664 62.6843 15.6198C60.285 15.8462 61.4403 15.6215 60.4955 15.5998C60.1079 15.6465 60.2418 15.7435 59.7157 15.7918C56.8675 16.0515 50.9591 16.5309 47.7712 16.8089C47.1296 16.8645 47.2179 16.7568 47.0184 16.7733C46.4777 16.8197 45.4331 17.0343 44.3524 17.1269C37.6628 17.6941 28.0943 18.498 21.316 19.0513C20.8531 19.0888 20.7842 18.9757 20.4714 19.0001C20.038 19.0343 19.0791 19.2247 18.6214 19.2594C18.1903 19.2925 17.9058 19.2294 17.4437 19.2643C15.3364 19.4218 12.604 19.8486 10.3429 19.8099C10.1547 19.8061 7.7683 19.5672 7.71091 19.5417C7.38008 19.3879 9.43584 18.8813 5.98278 18.9617C9.01753 18.4101 8.02812 18.0857 4.0161 18.2943C6.01466 18.0331 8.00341 17.7753 9.9826 17.521C9.98041 17.4709 9.97821 17.4209 9.97602 17.3709C8.14364 17.3081 6.33791 17.4097 3.55982 17.6757C3.64161 17.6207 3.72339 17.5656 3.80515 17.5106C6.23394 17.0252 9.16579 16.6824 10.9782 16.1824C8.24851 16.2235 5.50005 16.2712 2.73228 16.3253C2.86552 16.2747 2.99872 16.2241 3.13188 16.1735C4.43819 15.9416 7.29004 15.5917 8.36164 15.3939C12.4592 14.6372 4.71597 15.5131 5.96578 15.1794C10.3734 14.7328 14.5989 14.3158 19.0499 13.889C19.1071 13.7174 2.41096 14.9848 2.46793 14.5324C3.85008 14.3573 5.22757 14.1837 6.60047 14.0118C5.97531 13.9593 5.34914 13.9072 4.72196 13.8554C4.88769 13.8013 5.05336 13.7472 5.21897 13.6931C7.53675 13.363 9.84153 13.0376 12.1337 12.7167C5.13983 13.512 1.80038 13.8022 -9.28527e-05 13.0712C0.191018 13.0276 0.382042 12.9841 0.57298 12.9407C2.18696 13.344 9.40925 12.4105 13.1823 11.9219C12.3943 11.8316 9.05098 12.2994 8.32633 12.2727C8.12165 12.2645 8.81339 12.0771 8.33996 12.0655C7.10916 12.0338 1.84535 12.3795 2.5858 12.1125C3.07851 11.9353 11.4591 10.9082 13.0666 10.7645C9.24306 10.9266 5.28273 11.2684 1.36839 11.4109C3.78046 10.786 5.90495 10.1075 10.3205 9.64019C11.6595 9.30603 2.23886 9.99917 1.99016 9.92266C3.61773 9.63812 5.23897 9.35582 6.85404 9.07578C5.48125 9.24699 4.10392 9.41983 2.72198 9.59427C2.71399 9.55682 2.70599 9.51936 2.69799 9.4819C6.26658 8.93296 9.49229 8.2769 13.5322 7.89609C13.3829 7.70824 10.966 7.97016 9.78551 8.08818ZM398.531 35.2398C398.582 35.419 397.103 35.1221 396.271 34.9684C396.391 35.021 396.511 35.0736 396.631 35.1262C394.855 34.7717 391.577 34.1183 391.4 34.4163C390.135 34.231 390.741 34.053 390.341 33.949C390.185 33.908 388.518 33.7773 387.249 33.3498C386.938 33.2956 386.628 33.2415 386.319 33.1876C386.24 33.2817 386.162 33.3758 386.083 33.4699C385.673 33.2663 385.271 33.0644 384.847 32.8586C389.375 33.6329 393.914 34.4229 398.524 35.2386C398.526 35.239 398.528 35.2394 398.531 35.2398ZM352.998 27.567C351.329 27.2387 348.789 26.7418 349.26 27.111C350.316 27.2622 351.375 27.4148 352.436 27.5687C352.623 27.5681 352.811 27.5675 352.998 27.567ZM186.457 11.1013C185.06 10.7823 183.752 11.0012 181.586 10.9085C181.587 10.9691 181.589 11.0298 181.591 11.0904C182.477 10.961 184.831 11.1053 186.457 11.1013ZM439.866 41.9581C440.166 42.0399 440.466 42.1217 440.767 42.2037C439.465 42.2798 439.288 42.0112 437.887 41.769C437.802 41.7545 437.817 41.8333 437.788 41.828C437.445 41.7662 437.147 41.6165 436.839 41.5577C436.245 41.4445 435.744 41.4392 434.697 41.2319C433.887 41.0715 433.907 40.9299 433.622 40.8782C433.402 40.8389 430.847 40.7432 429.307 40.2732C426.397 39.379 438.982 41.7476 439.866 41.9581ZM448.677 43.9728C448.379 43.9148 448.081 43.857 447.783 43.7992C448.721 43.7615 446.907 43.4352 445.587 43.1787C445.668 42.9797 448.447 43.6224 449.719 43.812C449.372 43.8655 449.024 43.9191 448.677 43.9728ZM411.497 36.332C412.66 36.5276 412.419 36.7501 412.356 36.818C411.987 36.7488 411.618 36.6798 411.249 36.6109C411.332 36.5179 411.415 36.425 411.497 36.332ZM420.195 37.8784C419.8 37.9848 417.332 37.5965 416.127 37.3845C416.075 37.3747 416.422 37.3404 415.572 37.1894C415.315 37.1436 412.749 37.0245 413.374 36.7302C415.676 37.1155 417.947 37.4978 420.192 37.8777C420.193 37.878 420.194 37.8782 420.195 37.8784ZM422.688 38.4605C422.207 38.4259 421.728 38.3915 421.249 38.3574C421.022 38.2289 420.796 38.1005 420.57 37.9722C421.106 38.0527 421.643 38.1334 422.181 38.2145C422.35 38.2964 422.519 38.3784 422.688 38.4605ZM64.3363 13.2557C64.4549 13.3368 64.5734 13.4179 64.6919 13.4991C65.1301 13.5213 67.2038 12.9785 66.5328 12.9517C65.8018 13.0525 65.0696 13.1538 64.3363 13.2557ZM55.4893 13.7467C55.051 13.7361 54.6122 13.7257 54.173 13.7155C53.6842 13.9072 53.1949 14.0992 52.7052 14.2914C54.895 14.2167 57.2079 14.1541 56.8012 13.7362C57.2973 13.6972 57.7928 13.6584 58.2878 13.6199C57.885 13.8373 57.9469 13.8934 59.2499 13.9107C59.5201 13.631 60.8365 13.6612 62.4015 13.4864C61.255 13.5577 60.1623 13.626 59.0429 13.6975C59.0394 13.6521 59.0359 13.6068 59.0323 13.5614C61.5144 13.3869 58.4114 13.3352 56.8008 13.6439C56.6682 13.5935 56.5355 13.5432 56.4028 13.4929C56.0985 13.5774 55.794 13.662 55.4893 13.7467ZM236.486 11.9487C236.18 11.8812 235.874 11.8139 235.568 11.7466C234.328 12.2579 236.807 11.8624 238.511 12.4598C237.963 12.0603 240.613 12.2693 240.767 12.2575C240.471 12.1144 240.174 11.9715 239.878 11.8287C238.746 11.8669 237.615 11.9069 236.486 11.9487ZM227.724 10.9534C228.78 11.3156 223.499 11.0083 221.734 10.8464C221.305 10.8059 220.545 10.5998 220.232 10.6032C220.04 10.653 219.848 10.7028 219.656 10.7526C219.443 10.531 215.967 10.58 214.598 10.6255C214.473 10.5433 214.348 10.461 214.224 10.3788C213.725 10.3842 213.226 10.39 212.728 10.3961C212.794 10.3236 212.86 10.2511 212.926 10.1785C212.546 10.2512 212.165 10.324 211.785 10.3971C210.304 10.4288 211.233 10.0594 210.118 10.1368C208.878 10.2232 210.887 10.5608 210.842 10.719C211.844 10.7237 214.124 10.742 215.14 10.7894C215.723 10.817 215.047 11.0673 217.578 10.8703C218.125 10.976 218.672 11.0822 219.219 11.1888C220.237 11.1222 221.258 11.0571 222.273 10.9932C222.456 11.1099 222.638 11.2267 222.82 11.3434C222.926 11.3656 225.276 11.2633 225.156 11.1768C226.091 11.4359 228.031 11.5906 230.08 11.7337C230.281 11.6889 230.482 11.6442 230.683 11.5995C228.692 11.5953 230.056 11.4977 229.472 11.3495C229.135 11.2639 228.1 11.0731 227.724 10.9534ZM78.1262 12.0575C74.792 12.5379 76.8362 12.1863 73.2644 12.4295C73.5233 12.549 73.782 12.6686 74.0405 12.7883C75.7563 12.4194 78.7293 12.3909 78.1296 12.0572C78.1285 12.0573 78.1273 12.0574 78.1262 12.0575ZM42.9799 15.1949C44.8618 14.9502 43.898 14.8183 46.2794 14.548C46.2806 14.5479 46.2817 14.5478 46.2828 14.5477C45.0483 14.6365 43.8103 14.7268 42.5686 14.8186C42.7058 14.944 42.8429 15.0694 42.9799 15.1949ZM154.299 9.48174C156.123 9.53037 155.758 9.42577 157.419 9.63191C159.895 9.36599 157.799 9.40875 157.798 9.17438C157.231 9.245 156.666 9.31605 156.105 9.38751C154.741 9.17519 156.033 9.05815 156.033 9.03716C156.032 9.03716 156.031 9.03717 156.03 9.03718C156.029 8.96682 156.073 8.9517 155.55 8.91187C155.133 9.10159 154.716 9.29155 154.299 9.48174ZM162.124 9.16945C161.496 9.325 161.215 9.52416 162.863 9.6256C162.864 9.6256 162.865 9.6256 162.866 9.6256C162.999 9.27757 164.578 9.5615 165.298 9.54104C165.486 9.50389 165.675 9.46679 165.864 9.42973C164.619 9.34084 163.372 9.25408 162.124 9.16945ZM189.689 9.2187C189.686 9.6032 188.303 9.60331 190.238 10.0088C190.616 10.012 190.994 10.0155 191.371 10.0192C191.621 9.94174 191.872 9.86442 192.122 9.78718C196.886 10.6278 198.351 9.47916 190.247 9.68912C190.246 9.68936 190.245 9.68959 190.244 9.68983C190.059 9.53273 189.874 9.37569 189.689 9.2187ZM181.245 9.06274C181.181 9.26339 181.116 9.46404 181.052 9.6647C180.004 9.15895 178.631 9.59933 176.561 9.22676C176.373 9.28549 176.184 9.34427 175.996 9.4031C175.225 9.25053 167.591 9.14411 169.244 9.47011C169.958 9.61042 171.538 9.44017 171.672 9.44579C172.131 9.46534 172.727 9.64456 173.5 9.64307C173.947 9.64193 174.892 9.44912 175.804 9.46164C177.845 9.4884 181.539 10.0964 184.233 9.63679C184.424 9.70169 184.616 9.76665 184.808 9.83166C186.798 9.83878 186.139 9.63083 187.983 9.90536C189.286 8.97226 180.54 9.78777 182.374 9.0515C182.372 9.05148 182.371 9.05146 182.37 9.05144C181.995 9.05501 181.62 9.05877 181.245 9.06274ZM126.493 9.70627C126.369 9.53728 124.073 9.87485 124.601 9.44575C123.854 9.61317 123.105 9.78129 122.356 9.95012C122.363 9.98826 122.37 10.0264 122.377 10.0645C123.125 10.0093 123.873 9.9547 124.619 9.90084C124.624 9.96155 124.629 10.0223 124.634 10.083C125.744 9.82501 130.379 9.78811 130.241 10.0092C130.485 9.91152 130.732 9.81389 130.98 9.7163C133.224 9.90489 135.138 9.59536 137.567 9.7859C137.754 9.7066 137.94 9.62734 138.126 9.54813C138.249 9.60644 138.373 9.66477 138.496 9.72312C139.378 9.71297 140.259 9.70382 141.14 9.6957C144.003 9.39987 138.425 9.18199 137.744 9.23542C137.654 9.24236 137.671 9.39941 137.109 9.43612C136.121 9.49727 130.467 9.47823 128.771 9.63404C128.753 9.53003 128.735 9.42603 128.717 9.32203C127.976 9.44941 127.235 9.57749 126.493 9.70627ZM200.364 9.96504C200.486 10.0759 200.609 10.1868 200.731 10.2977C202.913 10.272 204.28 10.4214 203.736 10.0474C203.735 10.0474 203.734 10.0473 203.732 10.0473C202.61 10.0181 201.487 9.99066 200.364 9.96504ZM361.41 27.2198C361.388 27.002 360.373 26.7548 359.026 26.6885C359.08 26.7594 359.134 26.8304 359.187 26.9014C359.906 26.8366 360.715 27.2859 362.86 27.5979C362.877 27.493 362.894 27.3881 362.912 27.2832C362.411 27.2618 361.91 27.2406 361.41 27.2198ZM198.485 9.85214C197.825 9.70338 195.948 10.0219 197.174 10.0814C198.112 10.1269 198.839 9.93187 198.485 9.85214ZM35.4802 15.6492C35.9766 15.6268 36.4725 15.6047 36.9678 15.5828C37.2168 15.4698 37.4656 15.3568 37.7144 15.2439C37.7132 15.244 37.7121 15.2441 37.7109 15.2442C36.9686 15.3787 36.225 15.5136 35.4802 15.6492ZM148.055 9.55656C149.729 9.52335 151.4 9.49386 153.067 9.46811C153.083 9.40901 153.099 9.34991 153.116 9.2908C151.446 9.51876 150.771 9.29412 150.38 9.28361C150.382 9.28359 150.384 9.28357 150.386 9.28356C149.132 9.24927 147.935 9.22876 146.745 9.17383C147.182 9.30115 147.619 9.42873 148.055 9.55656ZM142.315 9.26731C142.607 9.67966 142.955 9.71999 145.534 9.38948C145.432 9.33962 145.329 9.28978 145.226 9.23994C143.888 9.28997 143.119 9.39924 143.348 9.17807C143.004 9.20766 142.659 9.23741 142.315 9.26731ZM168.487 9.26023C168.181 9.12484 165.739 9.24594 165.871 9.31392C165.924 9.33958 169.084 9.52348 168.487 9.26023ZM379.756 30.2294C379.204 30.1026 378.652 29.9762 378.101 29.8501C378.849 29.9334 379.597 30.0173 380.348 30.1019C380.15 30.1444 379.953 30.1869 379.756 30.2294ZM386.003 30.7211C386.385 30.8427 385.045 30.9861 387.372 31.4958C385.682 31.2045 383.917 30.902 382.183 30.6071C383.008 30.6897 383.834 30.7731 384.662 30.8572C384.538 30.7261 384.414 30.595 384.29 30.4639C384.86 30.5493 385.446 30.6377 386.003 30.7211ZM387.786 31.3153C386.913 30.8705 391.772 31.7128 392.225 31.8307C392.325 31.857 392.768 32.1558 392.937 32.2334C392.2 32.1012 391.464 31.9697 390.729 31.8388C390.963 31.9496 391.197 32.0605 391.431 32.1714C390.566 32.0403 389.702 31.91 388.841 31.7805C389.219 31.7785 389.598 31.7766 389.977 31.7749C389.246 31.6211 388.515 31.4679 387.786 31.3153ZM368.146 27.9935C368.769 28.1053 369.392 28.2176 370.017 28.3303C369.91 28.2043 369.802 28.0784 369.695 27.9525C369.321 27.8893 368.947 27.8263 368.573 27.7635C368.431 27.8402 368.288 27.9168 368.146 27.9935ZM380.759 30.0116C379.767 30.3583 377.5 28.8296 380.304 29.7367C380.587 29.8286 380.853 29.9778 380.759 30.0116ZM394.045 32.2196C396.037 32.1993 395.455 32.9315 393.682 32.3671C393.593 32.338 393.896 32.2208 394.045 32.2196ZM408.444 34.8407C408.6 34.8724 408.821 35.1846 410.354 35.2122C410.594 35.2879 410.835 35.3637 411.075 35.4395C410.471 35.4517 405.562 34.6162 406.288 34.4824C407.037 34.6166 407.67 34.6885 408.444 34.8407ZM403.895 32.9963C403.164 32.8694 402.434 32.7429 401.705 32.6171C401.93 32.7432 402.154 32.8694 402.38 32.9956C402.017 32.9523 401.655 32.9091 401.293 32.8661C400.696 32.6103 400.092 32.3536 399.493 32.0979C401.131 32.3729 402.704 32.6375 404.298 32.9075C404.164 32.9371 404.03 32.9667 403.895 32.9963ZM384.342 29.2703C385.777 29.6288 387.492 29.8178 389.783 30.2436C389.784 30.2441 389.785 30.2446 389.786 30.245C389.9 30.2666 390.083 30.4156 390.45 30.4858C390.755 30.5418 397.004 31.5376 396.488 31.6438C394.04 31.3783 393.191 30.9575 392.537 31.2797C392.436 31.1689 392.335 31.0581 392.234 30.9473C389.953 30.3786 389.244 30.5739 387.934 30.4592C387.951 30.3924 387.969 30.3256 387.986 30.2588C387.123 30.0989 386.28 29.943 385.403 29.7815C385.519 29.8479 385.635 29.9143 385.751 29.9807C385.44 29.9258 385.129 29.8711 384.819 29.8165C384.097 29.4827 383.148 29.2681 384.342 29.2703ZM407.195 33.7207C407.957 33.3295 414.558 34.9228 417.634 35.3952C415.99 35.4039 413.522 34.7198 411.786 34.3922C408.422 33.7586 410.713 34.3815 410.126 34.3578C409.836 34.346 407.995 33.6636 407.195 33.7207ZM379.111 28.4506C380.782 28.783 381.746 28.8292 383.174 29.2733C383.045 29.2894 382.916 29.3055 382.787 29.3217C382.29 29.1982 378.249 28.3849 379.111 28.4506ZM422.006 36.3636C418.835 35.5698 420.328 36.3346 418.732 35.6715C419.829 35.8563 420.928 36.0424 422.031 36.2296C422.023 36.2743 422.014 36.319 422.006 36.3636ZM194.798 7.76759C193.418 7.71248 191.877 7.57309 191.045 7.74715C191.983 7.80344 192.921 7.86097 193.859 7.91975C194.172 7.86889 194.485 7.81817 194.798 7.76759ZM234.33 7.81326C234.016 7.74433 232.756 7.79879 232.624 7.79016C232.38 7.77381 232.451 7.70987 232.449 7.69176C230.846 7.59793 232.31 7.90785 231.122 7.87601C230.918 7.8696 228.143 7.58576 227.011 7.52582C225.27 7.43165 223.535 7.31654 222.885 7.28283C221.791 7.22537 219.74 7.2698 217.934 7.18261C217.19 7.14634 216.936 7.00522 216.188 6.96985C211.384 6.73363 201.922 6.5113 197.659 6.29655C196.606 6.24076 195.606 6.04149 195.049 6.03775C194.608 6.08507 194.167 6.13266 193.727 6.18053C192.392 5.59059 191.926 6.06649 190.468 6.0781C189.542 6.08561 189.114 5.9119 188.99 5.90908C188.165 5.89128 187.756 5.95893 187.108 5.95629C186.381 5.95305 185.338 5.85619 185.077 5.86387C184.918 5.86989 185.422 6.09482 182.601 6.03397C179.735 5.97369 176.901 5.90661 173.977 5.86275C174.944 6.52789 175.789 6.09094 176.982 6.08405C177.302 6.08224 177.098 6.18312 177.376 6.1826C178.163 6.18149 179.669 6.10385 180.319 6.14016C181.02 6.17921 180.776 6.41538 181.667 6.34306C181.713 6.33934 181.572 6.2373 181.782 6.22458C183.888 6.10078 184.582 6.28721 187.246 6.35482C189.014 6.38574 199.729 6.61962 200.097 6.71045C202.001 7.11782 190.714 6.74674 189.394 6.7013C188.932 6.67969 189.42 6.58251 188.999 6.55062C188.821 6.53758 187.21 6.70576 185.621 6.6878C183.697 6.66397 179.852 6.44919 178.023 6.42797C162.306 6.2318 146.785 6.21124 131.077 6.62224C130.739 6.63122 130.302 6.76793 129.218 6.7981C108.872 7.35942 87.7851 8.38285 67.2089 9.93451C62.6905 10.2744 58.2799 10.7298 53.7543 10.9989C53.2001 11.1352 52.6452 11.2718 52.0896 11.4087C53.5253 11.2186 56.1672 11.2167 56.4052 11.2014C56.4911 11.1956 57.0257 11.0499 57.8988 10.9873C59.1263 10.8992 59.669 10.9476 59.7696 10.9398C60.0808 10.9162 59.8696 10.8369 60.1668 10.8146C62.3836 10.6492 64.1573 10.4897 66.2103 10.3388C68.5364 10.1685 69.7217 10.2625 71.3909 9.95062C71.5867 10.013 71.7823 10.0755 71.9779 10.138C73.1807 9.72122 80.7552 9.25175 83.7917 9.087C84.7514 9.03334 84.591 9.17694 84.9131 9.1572C85.1179 9.1449 85.0295 8.97373 87.5316 8.8589C88.7908 8.80183 89.1239 8.91012 89.7568 8.8693C90.1047 8.8468 90.041 8.72412 90.5407 8.69547C93.4294 8.53048 95.7783 8.44375 98.5803 8.32228C99.3678 8.28817 99.3816 8.39302 99.5575 8.38265C100.205 8.34505 101.323 8.10989 102.963 8.03092C105.695 7.89675 111.142 7.65697 113.357 7.65654C113.684 7.65613 113.958 7.77147 114.198 7.76008C114.56 7.74239 114.697 7.60517 114.761 7.60194C115.973 7.55212 115.249 7.70304 116.058 7.64191C116.496 7.60907 116.938 7.44162 117.971 7.38637C119.328 7.31406 119.067 7.5024 119.633 7.46417C119.693 7.45927 119.706 7.33458 120.262 7.31087C122.373 7.2213 125.421 7.09453 127.403 7.03744C127.973 7.02074 128.398 7.0919 129.191 7.0711C130.784 7.0197 139.95 6.75928 140.683 6.8027C140.762 6.80635 139.956 7.00387 141.246 6.97506C141.619 6.89224 141.992 6.80959 142.365 6.72712C142.994 6.83846 143.614 6.95045 144.251 7.06269C144.223 6.64041 147.933 6.52477 147.9 6.95737C148.305 6.96994 148.711 6.98272 149.116 6.99573C149.956 6.68908 150.518 6.79257 152.144 6.60389C152.398 6.69303 152.652 6.78225 152.906 6.87155C152.97 6.81024 153.033 6.74893 153.096 6.68762C153.966 7.01052 155.385 6.67135 155.557 6.66876C156.221 6.65796 156.717 6.73969 157.031 6.73575C158.202 6.72173 160.732 6.60153 162.095 6.65663C162.159 6.65943 162.096 6.80025 162.483 6.818C163.182 6.85024 163.251 6.6439 164.182 6.88839C164.37 6.82803 164.559 6.76772 164.747 6.70746C164.946 6.73954 165.146 6.77167 165.345 6.80385C166.523 6.79192 167.699 6.78189 168.875 6.77375C167.804 7.00544 169.031 7.14597 170.198 6.96765C170.595 6.9072 170.245 6.75912 170.377 6.7382C170.56 6.7068 175.856 6.8378 176.203 6.93969C176.454 6.89735 176.705 6.85509 176.956 6.81291C177.081 6.90622 177.206 6.99955 177.332 7.09291C177.47 7.06293 177.609 7.03298 177.747 7.00306C179.121 7.18316 182.691 6.87863 183.341 6.92244C183.687 6.94527 183.368 7.32793 185.028 7.32385C185.088 7.21802 185.148 7.1122 185.208 7.00638C185.589 6.99942 185.969 6.99266 186.349 6.98611C187.062 7.01199 188.095 7.22307 188.125 7.35087C188.35 7.28024 188.575 7.20969 188.799 7.13921C189.391 7.40137 192.58 7.40018 193.866 7.28335C194.238 7.36948 194.611 7.45582 194.983 7.54235C195.489 7.46716 195.996 7.39235 196.503 7.31792C197.672 7.32904 196.433 7.43949 196.681 7.46032C197.207 7.50275 199.899 7.34086 199.711 7.65326C200.076 7.66715 200.442 7.68122 200.808 7.69548C200.999 7.61148 201.191 7.52754 201.382 7.44366C201.998 7.78086 203.089 7.70992 205.311 7.91546C205.501 7.851 205.691 7.7866 205.881 7.72224C206.565 7.85346 207.25 7.98535 207.934 8.11791C208.081 8.00465 208.227 7.89141 208.374 7.77821C208.674 7.77423 208.974 7.77035 209.274 7.76662C209.871 8.06129 210.976 7.82246 211.527 7.95908C212.331 8.15862 211.694 8.3198 210.187 8.2877C210.291 8.48555 214.779 8.61023 215.815 8.65168C215.748 8.61015 215.682 8.56863 215.615 8.52711C214.556 8.50335 213.497 8.48119 212.438 8.46064C211.575 7.92813 214.441 8.19717 215.763 8.20257C215.884 8.20277 216.577 8.05158 217.906 8.13933C218.421 8.17299 220.415 8.55378 220.797 8.59077C223.882 8.88984 221.631 8.37144 224.634 8.88822C224.019 8.5909 225.743 8.90883 227.555 8.97132C227.863 8.98102 230.49 8.93679 230.667 8.94361C231.771 8.98189 230.557 9.1327 232.154 9.17821C232.349 9.13051 232.545 9.08287 232.741 9.03528C233.112 9.06016 233.483 9.08523 233.854 9.11051C236.063 9.80252 236.609 9.4443 237.411 9.44996C237.734 9.45247 237.309 9.5631 238.147 9.59347C238.463 9.60515 238.82 9.51333 239.668 9.56728C242.322 9.73777 243.184 10.307 245.668 9.97843C246.037 10.0835 246.406 10.1887 246.775 10.2941C247.036 10.2239 247.296 10.1538 247.554 10.0836C249.457 10.502 248.784 10.1773 249.479 10.2374C251.314 10.395 255.077 10.7716 255.389 11.0181C257.023 10.6606 258.879 11.3935 259.509 11.4318C259.888 11.4056 260.268 11.3797 260.642 11.3535C261.072 11.4542 261.502 11.5553 261.932 11.6566C261.765 11.1488 263.977 11.8409 264.194 11.8695C264.442 11.8995 267.935 12.0923 269.235 12.2263C270.531 12.3578 272.782 12.7215 272.982 12.7427C273.217 12.7667 275.414 12.8601 277.132 13.045C278.622 13.1958 287.556 14.3847 287.011 14.109C286.442 13.983 285.605 13.8349 284.888 13.7256C282.644 13.3668 269.6 11.8722 266.235 11.5305C259.559 10.8113 252.503 10.2003 245.772 9.62137C245.374 9.58716 245.323 9.4559 244.981 9.42626C244.463 9.38174 243.137 9.40674 242.626 9.36531C240.718 9.20849 238.402 9.01916 237.383 8.94366C235.106 8.77518 233.547 8.59277 231.816 8.46561C231.275 8.4255 228.528 8.40451 226.658 8.22435C226.321 8.16789 225.984 8.1116 225.646 8.05547C226.614 8.07134 229.154 8.12168 230.332 8.18637C232.085 8.2822 232.992 8.44718 233.64 8.48914C234.186 8.52401 236.945 8.59779 238.204 8.68672C238.594 8.71394 238.664 8.85249 238.998 8.87632C240.81 9.00454 243.2 9.18195 244.786 9.17538C244.138 9.16628 248.153 9.56629 248.354 9.58409C248.713 9.61328 249.113 9.52087 249.846 9.58148C251.257 9.6988 251.056 9.94289 252.843 9.83333C253.274 9.94628 253.704 10.0595 254.135 10.173C254.187 9.8263 259.693 10.7882 261.293 10.5173C261.356 10.4701 254.154 9.68718 253.569 9.63596C250.021 9.28649 244.753 8.94819 241.296 8.6307C240.257 8.53306 237.006 8.08691 236.76 8.07455C236.362 8.05244 236.712 8.19814 236.54 8.19032C233.024 8.035 234.792 7.91591 234.33 7.81326ZM388.07 29.696C387.023 29.496 386.002 29.3012 384.926 29.0973C385.016 29.0359 385.107 28.9745 385.197 28.9131C385.683 29.0286 386.162 29.1432 386.632 29.2562C387.007 29.2763 387.382 29.2965 387.758 29.3168C387.862 29.4432 387.966 29.5696 388.07 29.696ZM390.706 29.8408C391.623 29.9655 391.64 30.1318 391.849 30.1771C392.473 30.3128 393.028 30.3464 393.639 30.4584C392.867 30.7073 391.402 30.2675 390.706 29.8408ZM371.859 26.4202C372.06 26.4729 373.355 27.109 374.978 26.9991C376.124 27.3184 377.272 27.6391 378.424 27.9614C376.462 27.4336 373.69 27.1555 372.726 26.9844C372.359 26.9192 372.31 26.783 372.018 26.7312C370.348 26.4374 368.587 26.4313 368.489 25.9915C370.101 26.3851 371.609 26.355 371.859 26.4202ZM382.107 28.3345C382.367 28.4684 382.626 28.6024 382.886 28.7364C381.893 28.5627 380.902 28.3901 379.914 28.2186C380.196 28.1779 380.479 28.1373 380.761 28.0969C381.21 28.1759 381.658 28.2551 382.107 28.3345ZM306.063 16.3622C306.674 16.4422 307.286 16.5227 307.899 16.6037C307.873 16.5362 307.173 16.4452 306.92 16.3692C306.921 16.3693 306.923 16.3694 306.924 16.3696C306.643 16.2842 306.776 16.2188 306.258 16.1154C306.193 16.1976 306.128 16.2799 306.063 16.3622ZM51.3194 11.1975C50.2596 11.2728 40.7633 12.0784 41.5971 12.2435C42.0162 12.3228 45.2413 11.9447 46.1886 11.8675C47.4863 11.7594 51.0365 11.7182 51.3194 11.1975ZM34.4411 12.604C34.3021 12.8468 40.2726 12.3522 40.8419 12.2646C40.7159 12.2425 40.5196 12.186 40.3539 12.1837C39.549 12.1731 35.7421 12.5489 34.4411 12.604ZM271.818 11.7222C272.288 11.8875 272.757 12.0532 273.226 12.2192C273.115 12.0548 273.004 11.8905 272.893 11.7262C272.535 11.7247 272.176 11.7233 271.818 11.7222ZM225.256 8.10273C217.257 7.61534 209.244 7.21786 201.231 6.9124C201.938 6.87546 202.645 6.83923 203.353 6.80371C210.258 7.0955 217.617 7.52401 224.282 7.82139C224.607 7.91502 224.932 8.0088 225.256 8.10273ZM369.742 25.3678C367.695 25.0209 365.975 24.8465 363.796 24.3059C365.929 24.4845 366.93 24.9217 369.031 25.0173C369.032 25.0175 369.033 25.0177 369.035 25.0179C369.27 25.1345 369.506 25.2511 369.742 25.3678ZM324.392 18.2532C325.029 18.2362 325.667 18.2197 326.305 18.2038C325.556 18.0964 324.807 17.9897 324.059 17.8837C324.17 18.0069 324.281 18.13 324.392 18.2532ZM155.341 5.62575C153.203 5.86578 147.698 5.50066 145.945 5.80741C145.832 5.82737 146.876 5.93049 145.194 6.1822C146.467 6.11718 147.363 6.0587 147.456 5.8781C147.834 5.93423 148.212 5.99056 148.59 6.04707C149.215 5.99389 149.84 5.94124 150.464 5.88911C150.398 6.06843 150.448 6.05809 151.406 5.92709C151.844 5.9684 152.282 6.00996 152.719 6.05177C152.903 5.97469 153.088 5.89765 153.273 5.82066C153.652 5.92369 154.03 6.0269 154.409 6.13031C155.881 6.00673 154.983 5.80715 155.341 5.62575ZM162.875 5.65369C162.525 5.60358 152.547 5.76756 157.077 6.10637C158.258 6.09037 159.439 6.07625 160.618 6.06402C159.641 5.47446 162.854 6.00108 163.117 6.01504C164.378 6.07437 165.983 5.93996 166.896 5.95198C167.681 5.96236 168.147 6.07106 168.698 6.07195C170.574 6.07406 173.566 6.10137 173.977 5.86275C172.511 5.8408 171.016 5.82396 169.493 5.81885C167.886 5.81407 166.474 5.57354 163.447 5.8831C162.698 5.84788 162.965 5.66392 162.875 5.65369ZM328.173 18.4973C328.063 18.7279 331.809 19.2142 331.85 19.1233C331.865 19.0681 330.645 18.8908 330.474 18.8442C330.473 18.844 330.472 18.8439 330.471 18.8437C330.4 18.8238 330.782 18.7847 330.213 18.6753C329.532 18.6154 328.852 18.556 328.173 18.4973ZM66.0989 9.50446C65.5461 9.39695 53.875 10.3431 53.5296 10.4463C53.4373 10.472 53.5729 10.5217 53.5387 10.5594C56.2704 10.1446 60.0974 10.0778 62.7288 9.89634C63.4582 9.84578 63.2329 9.76498 63.2741 9.76003C63.2758 9.75991 63.2776 9.75977 63.2793 9.75965C63.6936 9.72819 65.5742 9.82791 66.0989 9.50446ZM142.184 5.97712C142.681 6.00701 143.179 6.03723 143.676 6.06777C143.8 5.98991 143.928 5.91201 144.054 5.83416C144.052 5.83418 144.051 5.83419 144.05 5.83421C143.423 5.88142 142.806 5.92898 142.184 5.97712ZM124.889 6.14704C125.012 6.19663 125.135 6.24623 125.258 6.29585C126.514 6.26419 127.767 6.23451 129.017 6.20682C128.892 6.24049 128.767 6.27419 128.642 6.3079C130.531 6.33528 131.322 6.12745 132.339 6.12847C132.338 6.1285 132.337 6.12853 132.336 6.12856C132.445 6.12894 132.581 6.23683 132.987 6.23049C133.921 6.21516 136.59 6.19605 136.909 6.07785C137.587 5.82216 132.219 6.05842 131.21 6.07742C130.755 6.08431 130.209 6.00158 129.937 6.00674C129.638 6.0128 129.234 6.15542 128.504 6.17213C128.291 6.17634 125.916 6.09123 124.889 6.14704ZM102.694 7.19715C103.082 7.29882 103.887 7.14381 104.189 7.14926C104.26 7.15052 103.709 7.2776 104.384 7.27581C104.572 7.1981 104.759 7.12044 104.947 7.04282C104.194 7.09372 103.432 7.1457 102.694 7.19715ZM334.485 19.3047C334.38 19.2626 332.361 18.9739 332.263 18.9763C331.023 19.0156 335.202 19.6084 334.485 19.3047ZM385.443 27.3548C384.609 26.8784 395.427 29.1207 396.529 29.3097C396.439 29.4971 393.859 28.827 395.18 29.3451C393.896 28.959 390.286 28.3953 389.454 28.2034C388.947 28.0864 388.848 27.8928 388.772 27.8737C388.468 27.7995 385.774 27.527 385.443 27.3548ZM405.575 31.0999C404.546 30.8715 403.521 30.6443 402.498 30.4182C403.717 30.6185 404.94 30.8202 406.167 31.0236C405.969 31.049 405.772 31.0744 405.575 31.0999ZM406.895 31.2508C406.895 31.0524 410.397 31.8527 411.341 31.9837C410.229 32.113 408.537 31.4808 406.895 31.2508ZM347.957 20.8526C346.344 20.4699 345.552 20.9472 347.576 21.0017C347.638 21.0027 348.025 20.87 347.957 20.8526ZM154.826 4.79398C154.546 4.79058 151.034 4.62542 150.83 4.72395C150.19 5.0337 152.495 4.89046 153.267 5.00028C154.512 5.1779 152.685 5.34169 155.718 5.21196C155.594 5.27342 155.471 5.33491 155.347 5.39641C157.122 5.4075 156.539 4.98948 156.857 4.93376C156.955 4.91674 158.073 4.94821 158.275 4.9209C160.791 4.57404 155.079 4.79189 154.826 4.79398ZM307.357 14.9688C304.109 14.3691 305.48 14.8087 302.139 14.3687C302.008 14.485 306.912 15.0269 307.357 14.9688ZM186.964 5.31478C183.545 5.28714 180.748 5.05948 177.563 5.24662C177.763 5.59984 187.844 5.4194 186.964 5.31478ZM26.8077 11.6557C40.1117 11.0496 55.2874 9.5524 69.4349 8.54283C70.9687 8.43334 71.1243 8.56677 71.677 8.51256C72.0388 8.47731 71.9675 8.36643 72.4488 8.3326C89.9577 7.10547 106.73 6.07643 123.53 5.59829C124.594 5.56543 129.725 5.66184 130.813 5.26166C131.631 4.9553 127.956 5.27664 127.341 5.29374C126.88 5.30552 126.856 5.17283 126.548 5.18159C126.221 5.19098 126.494 5.27389 126.114 5.28677C124.507 5.34196 122.746 5.36361 121.285 5.4216C107.029 5.98583 93.031 6.68326 78.9031 7.58744C77.1753 7.69869 77.5225 7.56941 77.4357 7.57451C77.4346 7.57485 77.4334 7.57519 77.4323 7.57553C68.2446 8.16862 57.7651 9.19327 47.9688 9.91961C41.1526 10.4134 34.1904 10.9582 27.3927 11.5211C27.1978 11.566 27.0028 11.6108 26.8077 11.6557ZM162.121 5.1515C161.261 4.74882 161.071 5.15187 157.98 4.99556C157.729 5.06511 157.477 5.13474 157.226 5.20445C158.862 5.18319 160.495 5.16554 162.127 5.15151C162.125 5.15151 162.123 5.1515 162.121 5.1515ZM141.762 5.17653C141.237 4.63722 134.362 5.15836 131.234 5.14259C130.671 5.42936 135.197 5.19283 136.26 5.20073C136.793 5.2027 139.642 5.42358 141.792 5.23155C141.782 5.21321 141.772 5.19487 141.762 5.17653ZM374.062 24.5711C373.569 24.5031 373.076 24.4354 372.584 24.3679C373.798 24.6353 375.017 24.9044 376.238 25.1752C374.273 24.7985 372.354 24.4325 370.368 24.0581C370.757 24.0091 371.155 23.9619 371.535 23.9117C372.376 24.1307 373.218 24.3505 374.062 24.5711ZM367.643 23.5455C371.133 24.0878 367.445 23.775 366.602 23.4987C366.096 23.3327 367.287 23.4904 367.643 23.5455ZM358.686 21.871C360.317 21.9343 363.574 22.4568 362.353 22.6572C360.644 22.1884 359.5 22.1568 357.013 21.6463C357.391 21.6305 357.769 21.6148 358.147 21.5992C358.148 21.5995 358.15 21.5998 358.152 21.6001C358.33 21.6903 358.508 21.7806 358.686 21.871ZM369.273 23.576C371.517 24.1831 364.928 22.9999 367.027 23.1997C367.125 23.2087 369.184 23.5519 369.273 23.576ZM41.3961 9.9259C41.1331 10.0785 42.8845 9.92448 43.4658 9.88365C45.9607 9.70809 49.2686 9.37517 51.9122 9.17901C51.7094 9.15275 51.5064 9.12653 51.3034 9.10034C47.9749 9.36885 44.6719 9.6444 41.3961 9.9259ZM60.1449 8.53089C61.9415 8.39348 63.7988 8.25438 65.615 8.12138C65.7849 8.1089 66.573 7.94011 65.9789 7.95634C64.0423 8.14386 62.0637 8.33799 60.1449 8.53089ZM173.613 4.44306C172.216 4.35441 176.246 4.03009 176.059 4.4271C175.244 4.4315 174.429 4.43682 173.613 4.44306ZM186.606 4.50795C185.729 4.52535 184.852 4.54383 183.974 4.56339C183.974 4.51762 183.974 4.47185 183.974 4.42608C184.851 4.45229 185.729 4.47958 186.606 4.50795ZM34.2481 10.4673C35.1932 10.5389 37.4038 10.3169 38.7772 10.1994C37.8199 10.1484 35.5632 10.4157 34.2481 10.4673ZM152.698 4.2492C152.814 4.35197 147.259 4.38186 149.18 4.17421C150.354 4.19738 151.527 4.22237 152.698 4.2492ZM141.411 4.23516C142.597 4.19088 143.515 4.21332 143.274 4.38472C142.646 4.38765 142.017 4.3911 141.388 4.39507C141.395 4.34177 141.403 4.28846 141.411 4.23516ZM352.58 20.5654C350.586 20.2633 348.6 19.966 346.623 19.6733C346.704 19.6395 346.784 19.6057 346.864 19.5719C348.771 19.8541 350.685 20.1407 352.608 20.4318C352.598 20.4763 352.589 20.5209 352.58 20.5654ZM33.0714 10.1612C31.68 10.3177 30.3218 10.4726 28.9666 10.6285C30.3285 10.5328 31.6934 10.4381 33.0913 10.3419C33.0858 10.2813 33.0803 10.2207 33.0748 10.1601C33.0737 10.1605 33.0725 10.1609 33.0714 10.1612ZM379.784 24.4911C373.783 23.239 381.519 24.3432 383.08 24.9372C383.082 24.9372 383.084 24.9372 383.085 24.9373C383.221 24.9891 382.901 25.0693 383.125 25.1634C382.517 24.9956 381.909 24.8281 381.303 24.6612C380.727 24.6375 380.152 24.6143 379.577 24.5913C379.397 24.5302 379.218 24.469 379.038 24.4079C379.287 24.4356 379.536 24.4633 379.784 24.4911ZM404.187 28.7283C409.604 29.7516 404.006 29.0585 401.353 28.3061C401.399 28.2521 403.688 28.6341 404.187 28.7283ZM389.828 26.2061C388.966 26.0839 388.107 25.9624 387.249 25.8418C387.147 25.7848 387.044 25.7278 386.942 25.6709C387.603 25.7488 388.265 25.8272 388.928 25.9061C389.228 26.006 389.528 26.106 389.828 26.2061ZM361.518 20.7623C360.14 20.4944 358.302 20.6244 362.771 21.2441C362.776 21.1985 362.781 21.153 362.786 21.1075C362.607 21.0854 362.079 21.0421 362.051 21.0341C361.972 21.0094 362.093 20.8743 361.518 20.7623ZM414.518 29.4202C414.678 29.4326 414.851 28.9736 416.394 29.7718C416.894 29.835 417.395 29.8984 417.896 29.9621C418.004 30.0907 418.114 30.2196 418.218 30.3474C416.322 29.9057 416.077 30.079 415.938 30.0575C415.299 29.9578 415.79 29.9374 415.38 29.8589C414.321 29.656 411.914 29.2817 413.058 29.1743C413.47 29.1362 414.358 29.4079 414.518 29.4202ZM410.848 28.4554C411.071 28.5378 410.304 28.5387 410.471 28.6103C410.615 28.6723 412.879 29.241 412.215 29.3599C411.841 29.2798 411.467 29.1998 411.093 29.12C410.978 29.0321 410.863 28.9442 410.747 28.8563C410.373 28.8479 409.999 28.8397 409.625 28.8316C409.043 28.5596 407.783 28.1136 409.35 28.2704C408.78 28.1786 408.21 28.0871 407.642 27.996C407.334 28.0177 407.028 28.0395 406.721 28.0614C406.896 27.974 407.07 27.8866 407.245 27.7993C408.443 28.0165 409.644 28.2352 410.848 28.4554ZM428.449 31.8329C428.368 31.8793 428.287 31.9257 428.206 31.9721C430.317 32.2623 433.607 32.8558 431.673 32.8699C428.817 32.3501 425.982 31.838 423.166 31.3337C422.988 31.2532 422.81 31.1727 422.632 31.0923C424.695 31.665 424.187 30.8044 425.977 31.366C426.28 31.4611 425.332 31.5464 427.308 31.7544C427.25 31.6811 427.193 31.6078 427.135 31.5345C427.573 31.6338 428.01 31.7333 428.449 31.8329ZM446.346 35.417C442.781 34.6233 446.767 35.184 447.398 35.4973C447.396 35.497 447.395 35.4968 447.394 35.4966C449.114 36.352 445.252 35.3387 445.017 35.2961C444.701 35.2383 443.894 35.4473 442.285 34.5939C443.634 34.8666 444.988 35.1409 446.346 35.417ZM434.764 33.0545C435.062 33.1003 434.881 33.1586 435.009 33.1821C435.01 33.1823 435.011 33.1825 435.012 33.1827C436.895 33.5277 441.428 34.3315 441.866 34.7201C440.435 34.4626 434.186 33.3093 433.819 33.0342C434.136 33.0413 434.458 33.0495 434.764 33.0545ZM421.246 30.6819C420.118 30.2725 422.742 30.7447 423.417 30.964C423.543 31.0077 422.414 31.1059 421.246 30.6819ZM330.968 14.8181C328.366 14.5559 331.746 15.1643 330.544 15.1716C331.04 15.2284 331.537 15.2854 332.034 15.3428C331.678 15.1677 331.323 14.9928 330.968 14.8181ZM211.584 2.57398C210.972 2.52404 211.257 2.64766 211.204 2.64679C210.801 2.62499 210.425 2.51798 210.27 2.52041C207.404 2.57289 209.301 2.75072 209.328 2.77334C209.384 2.88492 208.627 2.97866 209.662 3.14969C210.295 3.13956 210.929 3.13 211.562 3.12101C211.872 3.19619 212.183 3.27151 212.494 3.34697C213.754 3.27736 212.114 3.1629 211.936 2.98214C211.868 2.91105 213.052 2.88576 211.584 2.57398ZM326.358 13.7838C325.906 13.9124 324.831 14.0035 325.826 14.3394C325.827 14.3396 325.828 14.3398 325.83 14.3399C326.014 14.4017 326.782 14.531 327.012 14.6139C328.739 14.6045 328.128 14.2497 326.358 13.7838ZM222.94 2.82345C223.955 2.92661 224.97 3.03124 225.985 3.13733C225.961 3.25086 225.937 3.36439 225.912 3.47792C225.37 3.41417 224.827 3.35084 224.284 3.28792C224.09 3.32897 223.896 3.37007 223.702 3.41123C224.371 3.5813 225.039 3.75202 225.707 3.92337C226.524 3.9267 227.341 3.93098 228.159 3.93621C227.788 3.85237 227.417 3.76872 227.046 3.68527C229.042 3.74181 228.591 3.99349 230.233 4.20535C230.804 4.13562 231.376 4.06635 231.948 3.99755C232.759 4.15816 233.57 4.31971 234.382 4.48219C235.755 4.52631 235.88 4.45386 234.968 4.26865C235.658 4.1766 236.388 4.44692 237.212 4.44845C237.28 4.44869 237.162 4.30887 237.222 4.31153C241.471 4.52722 241.222 4.86032 241.899 4.92439C242.377 4.96991 244.307 4.88482 244.344 4.80855C244.39 4.70595 240.437 3.97471 246.678 4.45126C243.472 3.90317 239.79 3.93001 242.125 4.53244C241.108 4.41 236.612 4.19243 236.328 4.16187C235.913 4.11343 236.07 3.9619 235.548 3.92143C235.241 3.89823 234.397 4.20917 231.966 3.72362C231.649 3.76365 231.332 3.80382 231.015 3.84413C230.725 3.77515 230.434 3.70628 230.144 3.63753C230.76 3.49848 231.376 3.35997 231.992 3.22201C229.584 3.25724 227.622 2.77106 226.147 2.98894C224.89 2.87723 224.281 2.80658 224.831 2.68196C224.453 2.65954 224.075 2.63733 223.697 2.61532C223.444 2.68461 223.192 2.75398 222.94 2.82345ZM318.65 12.979C317.438 12.6326 316.943 12.9531 317.132 13.0007C318.198 13.2669 319.281 13.1595 318.65 12.979ZM213.847 2.88658C215.224 3.05305 216.601 3.22222 217.977 3.3941C217.983 3.27287 217.99 3.15165 217.996 3.03042C216.613 2.97975 215.23 2.9318 213.847 2.88658ZM331.386 14.6032C331.498 14.7115 331.61 14.8198 331.722 14.9282C333.259 14.8172 334.674 15.5089 335.428 15.5216C335.592 15.5242 335.291 15.317 334.991 15.2376C334.802 15.187 331.652 14.6103 331.386 14.6032ZM393.507 24.8212C392.943 24.7821 392.379 24.7434 391.817 24.7051C391.865 24.6097 391.914 24.5144 391.962 24.4191C392.238 24.4491 392.514 24.4791 392.791 24.5092C393.029 24.6131 393.268 24.7171 393.507 24.8212ZM387.212 23.867C386.229 23.6852 385.218 23.4991 384.224 23.3168C388.049 23.8929 384.939 23.3 387.264 23.574C387.246 23.6716 387.229 23.7693 387.212 23.867ZM377.187 21.911C377.318 21.8717 377.45 21.8323 377.582 21.793C378.57 21.9628 379.56 22.1338 380.552 22.3058C379.961 21.988 379.37 21.6706 378.78 21.3537C378.418 21.2906 378.055 21.2277 377.693 21.1649C377.525 21.4136 377.356 21.6623 377.187 21.911ZM184.408 1.1941C183.797 1.17688 181.677 1.32112 181.767 1.39145C182.643 1.49168 183.522 1.59305 184.401 1.69551C184.407 1.57397 184.414 1.45242 184.421 1.33087C184.544 1.39406 184.667 1.45727 184.79 1.52051C185.292 1.48581 185.794 1.45146 186.296 1.41747C186.546 1.52955 186.795 1.64172 187.045 1.75397C187.301 1.6386 187.558 1.52333 187.814 1.40814C185.402 1.13513 185.48 1.35412 184.977 1.34041C184.721 1.33385 184.561 1.25511 184.472 1.2153C184.45 1.20823 184.429 1.20117 184.408 1.1941ZM214.841 2.16035C211.959 1.98709 210.299 2.23246 208.225 1.87322C209.537 2.49313 218.198 2.32186 221.22 2.97781C221.542 2.90414 221.863 2.83058 222.183 2.75714C220.522 2.74448 219.381 2.49426 218.575 2.42393C217.933 2.3682 217.995 2.46766 217.946 2.46365C217.944 2.46353 217.942 2.46341 217.939 2.46329C216.438 2.34488 215.977 2.22928 214.841 2.16035ZM333.56 14.47C332.817 14.2141 331.481 14.0332 331.436 14.24C332.168 14.4089 332.902 14.5784 333.637 14.7486C333.493 14.6726 333.687 14.5137 333.56 14.47ZM376.139 21.1332C375.558 20.9639 374.153 20.7854 374.724 21.0676C374.826 21.1178 376.24 21.2294 375.368 21.4142C376.725 21.6412 376.469 21.2299 376.139 21.1332ZM263.973 6.16505C264.479 6.20691 264.985 6.24913 265.492 6.29171C265.618 6.21827 265.744 6.14484 265.87 6.07145C265.237 6.10209 264.605 6.13329 263.973 6.16505ZM340.057 15.2937C340.663 15.8071 341.89 15.5833 343.084 16.1131C343.542 16.186 344 16.2592 344.459 16.3327C344.46 16.3328 344.461 16.333 344.462 16.3332C344.492 16.2227 344.522 16.1122 344.552 16.0017C343.076 15.7672 341.565 15.5293 340.057 15.2937ZM232.36 3.40616C232.67 3.47973 232.98 3.55343 233.29 3.62728C233.851 3.60325 234.416 3.5799 234.975 3.55656C234.678 3.49188 234.379 3.42714 234.08 3.36256C233.506 3.37663 232.933 3.39116 232.36 3.40616ZM348.188 16.5094C346.581 16.2058 345.92 16.4696 347.983 16.7921C348.853 16.9282 349.873 16.8284 348.188 16.5094ZM153.062 1.11862C153.623 1.14538 154.184 1.17255 154.745 1.20015C154.935 1.12284 155.125 1.04558 155.316 0.96837C154.565 1.0177 153.813 1.06779 153.062 1.11862ZM383.793 22.4995C383.714 22.5632 383.636 22.6268 383.558 22.6904C383.064 22.5885 382.57 22.4869 382.078 22.3856C382.215 22.3328 382.353 22.2799 382.49 22.2271C382.924 22.3177 383.358 22.4085 383.793 22.4995ZM156.833 1.14359C157.283 1.15629 157.735 1.16925 158.186 1.18248C158.489 1.14458 158.791 1.10679 159.094 1.06913C158.672 1.03325 158.25 0.997611 157.828 0.962211C157.496 1.02252 157.164 1.08299 156.833 1.14359ZM363.514 19.0072C362.907 18.814 360.386 18.6898 362.604 19.1276C364.02 19.4073 363.606 19.0364 363.514 19.0072ZM366.885 19.4734C364.54 18.907 366.169 20.0733 369.109 19.9843C366.233 19.5825 367.024 19.5075 366.885 19.4734ZM387.802 22.6014C387.861 22.6123 387.887 22.7462 388.356 22.8339C390.044 23.1489 392.279 23.5984 393.498 23.8248C396.417 24.3616 405.529 25.7906 406.463 26.3412C406.666 26.4574 406.124 26.5926 406.21 26.6206C406.463 26.7009 407.979 26.8668 407.671 26.9832C406.203 26.7104 404.74 26.4398 403.282 26.1715C403.662 26.1189 404.042 26.0665 404.422 26.0142C400.785 25.4129 401.952 25.6198 400.851 25.6845C400.24 25.4703 399.63 25.2565 399.021 25.043C397.638 24.8955 396.259 24.7501 394.885 24.6066C395.206 24.5871 395.527 24.5678 395.849 24.5485C393.829 24.0423 394.381 24.2355 393.233 24.2166C393.244 24.1415 393.255 24.0664 393.266 23.9913C391.267 23.8216 390.927 23.5307 390.499 23.4517C389.607 23.2889 388.397 23.9844 385.127 22.5029C383.618 22.6746 383.802 21.8195 382.884 22.1105C380.544 21.2117 385.123 22.1862 387.309 22.5893C387.31 22.5895 387.311 22.5897 387.312 22.5899C387.473 22.6198 387.231 22.4942 387.802 22.6014ZM375.325 20.8854C376.838 20.7426 371.13 19.7338 372.925 20.6168C373.203 20.6827 373.481 20.7488 373.76 20.8149C374.282 20.8383 374.805 20.862 375.329 20.886C375.328 20.8858 375.327 20.8856 375.325 20.8854ZM321.043 12.1584C315.662 11.5782 318.676 12.2231 320.522 12.255C320.891 12.2618 321.098 12.2299 321.043 12.1584ZM210.737 1.66015C210.656 1.7038 210.574 1.74746 210.493 1.79113C212.313 1.82828 215.82 2.18592 215.788 1.8656C214.104 1.79309 212.42 1.72461 210.737 1.66015ZM225.132 2.21101C224.743 2.16821 223.152 2.02995 223.338 2.16052C224.023 2.28496 224.708 2.41008 225.394 2.53585C225.719 2.50229 226.043 2.46887 226.368 2.4356C225.92 2.39031 225.237 2.22229 225.132 2.21101Z" fill="#EE6818"/>
</svg>
